<svg width="36" height="36" viewBox="0 0 36 36" fill="none" xmlns="http://www.w3.org/2000/svg">
<g clip-path="url(#clip0_1387_3791)">
<path d="M32.6282 32.5015L18 36.0017L3.3717 32.5015L-0.00390625 0.00390625H36.0042L32.6282 32.5015Z" fill="#2062AF"/>
<path d="M18 2.63623V33.2101L18.0331 33.2181L29.871 30.3855L32.6034 2.63623H18Z" fill="#3C9CD7"/>
<path d="M17.9864 10.7618L7.5166 14.6366L7.86381 18.4729L17.9864 14.6268L28.7543 10.5358L29.2007 6.61133L17.9864 10.7618Z" fill="white"/>
<path d="M7.5166 14.6365L7.86381 18.4729L17.9864 14.6268V10.7617L7.5166 14.6365Z" fill="url(#paint0_linear_1387_3791)"/>
<path d="M29.2006 6.61133L17.9863 10.7617V14.6267L28.7542 10.5357L29.2006 6.61133Z" fill="url(#paint1_linear_1387_3791)"/>
<path d="M7.5332 14.6367L7.88052 18.4731L23.4124 18.5171L23.0649 23.6321L17.9541 24.9108L13.041 23.8084L12.7433 20.6335H8.17821L8.77371 26.7627L18.0037 29.1879L27.1836 26.8067L28.3746 14.6367H7.5332Z" fill="url(#paint2_linear_1387_3791)"/>
<path opacity="0.05" d="M17.9864 14.6367H7.5166L7.86381 18.4731L17.9864 18.5018V14.6367ZM17.9864 24.8985L17.9368 24.9109L13.0244 23.8085L12.7267 20.6336H8.16172L8.75711 26.7628L17.9864 29.188V24.8985Z" fill="black"/>
<path d="M6.57422 6.61133H29.2012L28.7548 10.5358H7.11999L6.57422 6.61133Z" fill="url(#paint3_linear_1387_3791)"/>
<path opacity="0.05" d="M17.987 6.61133H6.57422L7.11999 10.5358H17.987V6.61133Z" fill="black"/>
</g>
<defs>
<linearGradient id="paint0_linear_1387_3791" x1="12.7515" y1="18.473" x2="12.7515" y2="10.7618" gradientUnits="userSpaceOnUse">
<stop offset="0.387" stop-color="#D1D3D4" stop-opacity="0"/>
<stop offset="1" stop-color="#D1D3D4"/>
</linearGradient>
<linearGradient id="paint1_linear_1387_3791" x1="23.5934" y1="14.6268" x2="23.5934" y2="6.61142" gradientUnits="userSpaceOnUse">
<stop offset="0.387" stop-color="#D1D3D4" stop-opacity="0"/>
<stop offset="1" stop-color="#D1D3D4"/>
</linearGradient>
<linearGradient id="paint2_linear_1387_3791" x1="7.5332" y1="21.9124" x2="28.3745" y2="21.9124" gradientUnits="userSpaceOnUse">
<stop stop-color="#E8E7E5"/>
<stop offset="1" stop-color="white"/>
</linearGradient>
<linearGradient id="paint3_linear_1387_3791" x1="6.57422" y1="8.57355" x2="29.2011" y2="8.57355" gradientUnits="userSpaceOnUse">
<stop stop-color="#E8E7E5"/>
<stop offset="1" stop-color="white"/>
</linearGradient>
<clipPath id="clip0_1387_3791">
<rect width="36" height="36" fill="white"/>
</clipPath>
</defs>
</svg>
