<svg width="38" height="41" viewBox="0 0 38 41" fill="none" xmlns="http://www.w3.org/2000/svg">
<path fill-rule="evenodd" clip-rule="evenodd" d="M22.4616 4.69271L30.7937 9.5542C31.0283 9.30306 31.3024 9.08132 31.6133 8.89883C33.3413 7.89497 35.5453 8.49101 36.5491 10.2373C37.5424 11.9836 36.9526 14.2109 35.2246 15.2253C34.9161 15.4045 34.592 15.5327 34.2622 15.6125V25.3393C34.5885 25.4192 34.9089 25.5467 35.2142 25.724C36.9526 26.7383 37.5424 28.9656 36.5387 30.7119C35.5453 32.4583 33.331 33.0543 31.6029 32.0504C31.2589 31.8506 30.9599 31.6018 30.7097 31.3177L22.4284 36.1496C22.5468 36.5111 22.6108 36.8978 22.6108 37.2998C22.6108 39.3075 20.9966 40.9493 18.9995 40.9493C17.0024 40.9493 15.3882 39.318 15.3882 37.2998C15.3882 36.9411 15.4392 36.5946 15.5343 36.2673L7.20443 31.4071C6.97232 31.6533 6.70207 31.8709 6.39613 32.0504C4.65774 33.0543 2.4537 32.4583 1.46033 30.7119C0.466956 28.9656 1.05677 26.7383 2.78482 25.724C3.09036 25.5465 3.41077 25.419 3.7368 25.3391V15.6125C3.407 15.5327 3.08299 15.4045 2.77447 15.2253C1.04642 14.2214 0.456609 11.9836 1.44998 10.2373C2.44335 8.49101 4.65774 7.89497 6.38579 8.89883C6.69499 9.08032 6.96774 9.30065 7.20151 9.55011L15.5358 4.68731C15.4398 4.35845 15.3882 4.01013 15.3882 3.64946C15.3882 1.63128 17.0024 0 18.9995 0C20.9966 0 22.6108 1.63128 22.6108 3.64946C22.6108 4.01211 22.5587 4.36227 22.4616 4.69271ZM21.5935 6.19055L29.9454 11.0636C29.6873 11.9799 29.782 12.9959 30.2888 13.8868C30.7972 14.7805 31.6254 15.373 32.5445 15.6039V25.3428C32.4977 25.3544 32.4511 25.367 32.4047 25.3805L21.4965 6.28789C21.5295 6.25607 21.5618 6.22361 21.5935 6.19055ZM16.5048 6.2901L5.59677 25.3824C5.54961 25.3685 5.50217 25.3557 5.4545 25.3438V15.6039C6.37367 15.373 7.20188 14.7805 7.71028 13.8868C8.21803 12.9942 8.31215 11.9759 8.05207 11.0582L16.4016 6.18649C16.4353 6.22172 16.4697 6.25626 16.5048 6.2901ZM20.0086 7.15504L30.9141 26.243C30.67 26.4781 30.4549 26.7522 30.2784 27.0625C30.1029 27.371 29.9768 27.6948 29.8977 28.0245H8.10152C8.02241 27.695 7.89627 27.3713 7.72063 27.0625C7.5434 26.7541 7.32874 26.4816 7.08589 26.2475L17.9935 7.15592C18.3128 7.24904 18.6503 7.29892 18.9995 7.29892C19.3499 7.29892 19.6884 7.24872 20.0086 7.15504ZM21.6702 34.8412L29.9679 29.9997C29.943 29.9207 29.9208 29.8409 29.9012 29.7604H8.0969C8.08534 29.8077 8.07285 29.8548 8.05943 29.9016L16.3978 34.7668C17.0544 34.0782 17.9767 33.6503 18.9995 33.6503C20.0587 33.6503 21.0101 34.1092 21.6702 34.8412Z" fill="#E535AB"/>
</svg>
