<svg width="36" height="36" viewBox="0 0 36 36" fill="none" xmlns="http://www.w3.org/2000/svg">
<path d="M2.68907 0C2.35818 0 2.11166 0.26965 2.14105 0.599136L4.93043 31.8868C4.95982 32.2164 5.24459 32.5585 5.56353 32.647L17.4003 35.9336C17.7192 36.0221 18.2408 36.0221 18.5597 35.9338L30.4325 32.6418C30.7514 32.5533 31.0365 32.2113 31.0658 31.8818L33.8598 0.599136C33.8894 0.26965 33.6426 0 33.3117 0H2.68907ZM27.9194 7.17571C27.8931 7.46962 27.8475 7.97988 27.8181 8.30944L27.7446 9.13034C27.715 9.45976 27.6729 9.93093 27.6507 10.1772C27.6286 10.4236 27.6075 10.6252 27.6037 10.6252C27.5999 10.6252 27.3261 10.6252 26.9953 10.6252H18.602C18.2711 10.6252 17.9977 10.6252 17.9941 10.6252C17.9905 10.6252 17.7168 10.6252 17.3859 10.6252H12.9654C12.6345 10.6252 12.388 10.8948 12.4174 11.2243L12.6753 14.1065C12.7046 14.4359 12.9995 14.7056 13.3304 14.7056H17.3859C17.7168 14.7056 17.9905 14.7056 17.9941 14.7056C17.9978 14.7056 18.2712 14.7056 18.6021 14.7056H25.573C25.9039 14.7056 26.4159 14.7056 26.7108 14.7056C27.0055 14.7056 27.225 14.9461 27.1982 15.24C27.1714 15.5339 27.1255 16.0444 27.0962 16.3738L26.2672 25.6656C26.2376 25.9952 26.2002 26.4161 26.1841 26.6012C26.1676 26.7861 25.8934 27.0098 25.5745 27.0982L18.5802 29.0376C18.2613 29.1259 17.9965 29.1991 17.9915 29.2002C17.9866 29.2012 17.7218 29.1297 17.4027 29.0413L10.401 27.0984C10.0821 27.0099 9.79721 26.6679 9.76789 26.3384L9.31718 21.2797C9.28779 20.9502 9.53459 20.6805 9.86548 20.6805H10.5045C10.8354 20.6805 11.3768 20.6805 11.7076 20.6805H12.6605C12.9914 20.6805 13.286 20.9502 13.3156 21.2797L13.4924 23.26C13.5218 23.5896 13.807 23.9297 14.1265 24.0159L17.4016 24.9004C17.7209 24.9867 17.9835 25.0573 17.9849 25.0573C17.9864 25.0573 18.2488 24.9865 18.5683 24.9003L21.8493 24.0137C22.1686 23.9274 22.4541 23.5872 22.4837 23.2578L22.8395 19.2902C22.8691 18.9606 22.6226 18.691 22.2917 18.691H18.6021C18.2712 18.691 17.9977 18.691 17.9941 18.691C17.9906 18.691 17.7168 18.691 17.3859 18.691H9.6871C9.35621 18.691 9.0616 18.4213 9.03221 18.0919L8.1592 8.30951C8.12981 7.97995 8.08425 7.46983 8.05788 7.17578C8.03179 6.88188 8.28091 6.64134 8.61181 6.64134H17.3859C17.7168 6.64134 17.9905 6.64134 17.9941 6.64134C17.9978 6.64134 18.2712 6.64134 18.6021 6.64134H27.3656C27.6964 6.6412 27.9457 6.88167 27.9194 7.17571Z" fill="#DD512A"/>
</svg>
