<svg width="36" height="36" viewBox="0 0 36 36" fill="none" xmlns="http://www.w3.org/2000/svg">
<path fill-rule="evenodd" clip-rule="evenodd" d="M35.1645 26.7204L35.0033 27.1418C32.2571 32.5386 27.3918 35.85 20.4518 35.9961C17.2074 36.0635 14.116 35.2235 12.0967 34.3096C7.73859 32.3334 4.07318 28.6684 2.07122 24.7526C-0.800411 19.1391 -1.3182 11.3305 4.65269 5.49805C4.74469 5.49805 3.9285 6.76271 4.02049 6.76271L3.85615 7.30239C-0.446569 20.8986 12.8095 32.5501 25.6957 31.2176C28.7926 30.8973 32.7419 29.1854 35.1645 26.7204Z" fill="#21609B"/>
<path fill-rule="evenodd" clip-rule="evenodd" d="M27.366 21.0986C30.608 21.1212 33.9943 19.5918 35.9994 17.4446C34.2451 21.9394 29.1655 24.8287 22.3532 23.9096C16.6497 23.1394 11.2163 17.3462 10.6564 11.5415C10.2471 7.317 11.7061 4.7956 14.1099 1.7373C13.2744 3.33689 12.9623 4.5706 12.8844 5.3575C11.9711 14.4959 20.117 21.051 27.366 21.0986Z" fill="#21609B"/>
<path fill-rule="evenodd" clip-rule="evenodd" d="M35.674 9.74829C35.1699 10.9149 32.268 13.1185 30.9867 13.3939C25.9126 14.4847 22.6628 12.0562 20.9608 9.29274C20.7076 8.87965 20.2397 7.75268 20.156 7.46578C19.4959 5.20033 19.7994 1.77379 21.7687 0C21.1755 1.68649 21.089 3.64559 21.4011 4.91899C21.5902 5.68921 22.1666 7.03325 22.7434 7.87887C23.7931 9.41933 24.4587 9.79353 25.8069 10.6114C26.4139 10.9796 27.0654 11.2749 27.3469 11.3562C28.625 11.7356 31.3237 12.7363 35.674 9.74829Z" fill="#21609B"/>
</svg>
