<svg width="22" height="49" viewBox="0 0 22 49" fill="none" xmlns="http://www.w3.org/2000/svg">
<path fill-rule="evenodd" clip-rule="evenodd" d="M12.0863 49.0001L10.7819 48.5542C10.7819 48.5542 10.9412 41.9045 8.55458 41.4273C6.96404 39.5817 8.80973 -36.8454 14.5368 41.1725C14.5368 41.1725 12.5638 42.1586 12.2139 43.8454C11.8318 45.5 12.0863 49.0001 12.0863 49.0001Z" fill="white"/>
<path fill-rule="evenodd" clip-rule="evenodd" d="M12.0863 49.0001L10.7819 48.5542C10.7819 48.5542 10.9412 41.9045 8.55458 41.4273C6.96404 39.5817 8.80973 -36.8454 14.5368 41.1725C14.5368 41.1725 12.5638 42.1586 12.2139 43.8454C11.8318 45.5 12.0863 49.0001 12.0863 49.0001Z" fill="#A6A385"/>
<path fill-rule="evenodd" clip-rule="evenodd" d="M12.7869 42.5731C12.7869 42.5731 24.2099 35.0639 21.5367 19.4409C18.9597 8.08233 12.8824 4.35959 12.2142 2.92766C11.4825 1.90948 10.7822 0.12793 10.7822 0.12793L11.2598 31.7228C11.2598 31.7549 10.2733 41.3957 12.7872 42.5735" fill="white"/>
<path fill-rule="evenodd" clip-rule="evenodd" d="M12.7869 42.5731C12.7869 42.5731 24.2099 35.0639 21.5367 19.4409C18.9597 8.08233 12.8824 4.35959 12.2142 2.92766C11.4825 1.90948 10.7822 0.12793 10.7822 0.12793L11.2598 31.7228C11.2598 31.7549 10.2733 41.3957 12.7872 42.5735" fill="#499D4A"/>
<path fill-rule="evenodd" clip-rule="evenodd" d="M10.1139 42.9862C10.1139 42.9862 -0.609236 35.6679 0.027254 22.7819C0.631678 9.89559 8.20439 3.56379 9.66805 2.41839C10.6228 1.40021 10.6545 1.01818 10.7183 0C11.3865 1.43193 11.2593 21.4138 11.3544 23.768C11.6406 32.8361 10.8455 41.2684 10.1139 42.9862Z" fill="white"/>
<path fill-rule="evenodd" clip-rule="evenodd" d="M10.1139 42.9862C10.1139 42.9862 -0.609236 35.6679 0.027254 22.7819C0.631678 9.89559 8.20439 3.56379 9.66805 2.41839C10.6228 1.40021 10.6545 1.01818 10.7183 0C11.3865 1.43193 11.2593 21.4138 11.3544 23.768C11.6406 32.8361 10.8455 41.2684 10.1139 42.9862Z" fill="#58AA50"/>
</svg>
