<svg width="36" height="36" viewBox="0 0 36 36" fill="none" xmlns="http://www.w3.org/2000/svg">
<g clip-path="url(#clip0_1387_3354)">
<path fill-rule="evenodd" clip-rule="evenodd" d="M8.19289 6.06011C7.78339 6.05252 7.49363 6.10452 7.18754 6.17169V6.22729H7.24352C7.43916 6.62864 7.78415 6.88709 8.02552 7.23283C8.21111 7.62393 8.39727 8.01446 8.58342 8.40498C8.6024 8.38639 8.62118 8.36798 8.6394 8.34938C8.98571 8.10592 9.14359 7.71615 9.14207 7.12107C9.00317 6.97495 8.98249 6.7924 8.86256 6.61839C8.70354 6.38631 8.39423 6.25519 8.19289 6.06011ZM35.218 34.7054C35.4816 34.8988 35.6582 35.1986 36 35.32V35.264C35.8201 35.036 35.7744 34.7211 35.6093 34.482C35.3679 34.2407 35.1246 33.9983 34.8833 33.756C34.1732 32.8139 33.2728 31.9869 32.3149 31.2996C31.5518 30.751 29.8417 30.0109 29.5229 29.1223C29.5047 29.1033 29.4857 29.0845 29.4667 29.0655C30.0081 29.0048 30.6425 28.809 31.1421 28.6748C31.9816 28.4498 32.7321 28.5082 33.5986 28.2841C33.9901 28.1719 34.3806 28.06 34.7713 27.9494V27.7253C34.3331 27.2755 34.0208 26.6804 33.5434 26.2734C32.2925 25.2092 30.9283 24.145 29.5227 23.2585C28.7439 22.7662 27.7801 22.4469 26.9541 22.0298C26.6763 21.8897 26.1886 21.8167 26.0047 21.5831C25.5715 21.0297 25.3349 20.3286 25.0002 19.6843C24.2996 18.3346 23.6105 16.8605 22.9895 15.4403C22.5665 14.4722 22.2896 13.5173 21.7615 12.6484C19.2261 8.47994 16.4964 5.96372 12.2691 3.49057C11.3689 2.96474 10.2861 2.75715 9.14207 2.48579C8.5282 2.44879 7.91319 2.41102 7.29931 2.37402C6.92453 2.21747 6.53477 1.75901 6.18276 1.53642C4.78195 0.651754 1.18922 -1.27298 0.152366 1.25747C-0.502687 2.8543 1.13077 4.41262 1.71542 5.22213C2.12587 5.78971 2.65056 6.42635 2.94431 7.06452C3.13692 7.48408 3.16975 7.90516 3.33579 8.349C3.74149 9.44278 4.09407 10.6326 4.61895 11.6436C4.8848 12.1548 5.1776 12.6939 5.5131 13.1511C5.71899 13.4317 6.0708 13.5553 6.12602 13.9887C5.78199 14.4712 5.76225 15.22 5.56889 15.8313C4.69599 18.5832 5.02522 22.003 6.29491 24.0399C6.68392 24.6648 7.6016 26.0062 8.86256 25.4914C9.96563 25.042 9.7197 23.6492 10.0353 22.4205C10.1062 22.1414 10.063 21.9366 10.2026 21.7505V21.8061C10.5381 22.4761 10.8733 23.1461 11.208 23.816C11.9522 25.014 13.2724 26.2668 14.3912 27.111C14.9706 27.549 15.4273 28.3065 16.1778 28.5629V28.5061H16.1218C15.9757 28.2805 15.7484 28.1858 15.5639 28.0042C15.1267 27.5755 14.6408 27.0431 14.2791 26.5522C13.2612 25.1709 12.3623 23.6589 11.5433 22.0854C11.1518 21.3337 10.8118 20.5047 10.4818 19.7401C10.3548 19.4451 10.3564 18.9993 10.0911 18.8465C9.72976 19.4067 9.19786 19.8603 8.91835 20.5218C8.47165 21.5795 8.41415 22.8693 8.24849 24.2069C8.15058 24.2422 8.19403 24.2181 8.13634 24.2625C7.35833 24.0754 7.08526 23.2746 6.79645 22.5877C6.06568 20.851 5.93 18.0541 6.5731 16.0546C6.73952 15.5375 7.49249 13.908 7.18697 13.4302C7.04162 12.9532 6.56266 12.6778 6.29453 12.3133C5.96131 11.8628 5.62999 11.2702 5.39962 10.7497C4.80225 9.39553 4.52293 7.87536 3.89311 6.50624C3.59177 5.85214 3.08265 5.18949 2.66441 4.6075C2.2014 3.96307 1.68278 3.48867 1.32433 2.70876C1.19662 2.4319 1.02299 1.98881 1.21237 1.70398C1.27214 1.51175 1.35753 1.43167 1.54786 1.36886C1.87216 1.11913 2.77334 1.45197 3.11092 1.59221C4.00583 1.96395 4.75387 2.31823 5.51234 2.82053C5.87611 3.0619 6.24443 3.52909 6.68411 3.65832H7.18678C7.97353 3.83878 8.85421 3.71468 9.58801 3.93765C10.8862 4.33216 12.0494 4.94584 13.1058 5.61304C16.3239 7.6448 18.9555 10.5379 20.7556 13.9887C21.0452 14.5443 21.1708 15.0745 21.4255 15.6641C21.9399 16.8525 22.5887 18.0752 23.1007 19.2376C23.6113 20.3967 24.1092 21.567 24.8313 22.5321C25.2108 23.0391 26.6776 23.3112 27.3447 23.5932C27.8118 23.7904 28.5771 23.9965 29.0191 24.2625C29.865 24.7728 30.6835 25.3796 31.4763 25.9383C31.8725 26.2178 33.091 26.83 33.1509 27.3336C31.1875 27.2816 29.6874 27.4639 28.405 28.0044C28.0405 28.1575 27.4596 28.1621 27.3997 28.6181C27.6001 28.8279 27.6318 29.1422 27.7912 29.4001C28.0965 29.8957 28.6134 30.5593 29.0751 30.9081C29.5793 31.2886 30.0986 31.6956 30.6383 32.0248C31.5995 32.6112 32.6727 32.9457 33.5976 33.5327C34.1449 33.8792 34.6863 34.3147 35.218 34.7054Z" fill="#00758F"/>
</g>
<defs>
<clipPath id="clip0_1387_3354">
<rect width="36" height="36" fill="white"/>
</clipPath>
</defs>
</svg>
