<svg width="36" height="41" viewBox="0 0 36 41" fill="none" xmlns="http://www.w3.org/2000/svg">
<path d="M16.3757 0.437412C17.3594 -0.144489 18.6406 -0.147118 19.6234 0.437412C24.5679 3.32487 29.5139 6.2078 34.4576 9.09701C35.3874 9.63832 36.0094 10.7078 35.9999 11.8151V29.1871C36.0068 30.3403 35.3234 31.4353 34.3424 31.9643C29.4142 34.8359 24.4885 37.7109 19.5611 40.5825C18.5571 41.1758 17.2502 41.1301 16.2775 40.4881C14.8001 39.603 13.32 38.7221 11.8424 37.8378C11.5405 37.6518 11.2001 37.5037 10.9869 37.2012C11.1754 36.9386 11.5124 36.9059 11.7862 36.7913C12.4029 36.5886 12.9693 36.2633 13.5359 35.9476C13.6792 35.8462 13.8541 35.8851 13.9914 35.9757C15.2549 36.7244 16.5071 37.4948 17.7748 38.2363C18.0452 38.3977 18.319 38.1835 18.5502 38.0503C23.3863 35.2255 28.2283 32.4113 33.0636 29.5856C33.2427 29.4966 33.3418 29.3 33.3272 29.0972C33.3306 23.3665 33.3281 17.6348 33.3289 11.9042C33.3494 11.674 33.2206 11.4624 33.0192 11.3683C28.1081 8.50985 23.1995 5.64707 18.2892 2.78794C18.2042 2.7275 18.1034 2.69507 18.0001 2.69491C17.8969 2.69475 17.796 2.72688 17.7108 2.78707C12.8005 5.64707 7.89277 8.51248 2.98249 11.3707C2.78186 11.4651 2.64721 11.6731 2.67108 11.9042C2.67193 17.6348 2.67108 23.3665 2.67108 29.0981C2.66257 29.197 2.6836 29.2963 2.73134 29.3825C2.77909 29.4688 2.85125 29.5378 2.93812 29.5804C4.24845 30.3483 5.56048 31.1108 6.87166 31.8762C7.61033 32.2871 8.51727 32.5312 9.33111 32.2164C10.0493 31.9502 10.5527 31.1928 10.539 30.4047C10.5458 24.7074 10.5356 19.0093 10.5441 13.313C10.5261 13.0601 10.7583 12.8511 10.9962 12.8749C11.6258 12.8705 12.2563 12.8662 12.8858 12.8767C13.1486 12.8705 13.3295 13.1429 13.297 13.3977C13.2945 19.131 13.3038 24.8644 13.2928 30.5977C13.2945 32.1257 12.687 33.7883 11.3195 34.536C9.63474 35.4379 7.5524 35.2467 5.88799 34.3818C4.44711 33.6385 3.07207 32.7613 1.65676 31.9651C0.673231 31.439 -0.00680164 30.3396 0.000121609 29.1873V11.8151C-0.0101926 10.6849 0.636496 9.59597 1.5953 9.06255C6.52267 6.18867 11.4492 3.3126 16.3757 0.437412Z" fill="#8CC84B"/>
<path d="M20.674 12.4712C22.8231 12.3282 25.1237 12.3865 27.0576 13.4806C28.5548 14.3191 29.3849 16.0788 29.4113 17.7979C29.3695 18.0298 29.135 18.1577 28.9208 18.1418C28.2972 18.141 27.6736 18.1506 27.0501 18.1374C26.7856 18.148 26.6318 17.8959 26.5986 17.6543C26.4195 16.8317 25.9854 16.0171 25.2363 15.6203C24.0864 15.0253 22.753 15.0552 21.499 15.0676C20.5836 15.1178 19.5992 15.1998 18.8237 15.7561C18.2283 16.1775 18.0474 17.0283 18.2599 17.7134C18.4603 18.2053 19.0098 18.3641 19.4594 18.5104C22.0492 19.2104 24.7937 19.1408 27.3341 20.062C28.3858 20.4376 29.4147 21.1677 29.7747 22.3058C30.2456 23.8312 30.0392 25.6544 28.9891 26.879C28.1376 27.8867 26.8973 28.4351 25.6603 28.733C24.0147 29.1122 22.3069 29.1219 20.6357 28.9535C19.0643 28.7684 17.429 28.3417 16.2159 27.2351C15.1785 26.3042 14.6719 24.8538 14.7222 23.4539C14.7342 23.2174 14.9619 23.0526 15.1811 23.072C15.809 23.0667 16.4369 23.065 17.0648 23.0729C17.3156 23.0543 17.5015 23.2783 17.5143 23.5226C17.6302 24.3063 17.9152 25.1289 18.5764 25.5935C19.8526 26.4444 21.4538 26.3861 22.915 26.4099C24.1256 26.3545 25.4846 26.3377 26.4725 25.5107C26.9937 25.0391 27.1481 24.25 27.0073 23.5711C26.8547 22.998 26.2745 22.7309 25.7763 22.5562C23.2197 21.7204 20.4446 22.0237 17.9126 21.0785C16.8848 20.7031 15.8908 19.9933 15.4959 18.9019C14.9448 17.3573 15.1973 15.4467 16.3575 14.2635C17.4886 13.0865 19.1215 12.6333 20.674 12.471V12.4712Z" fill="#8CC84B"/>
</svg>
