<svg width="45" height="24" viewBox="0 0 45 24" fill="none" xmlns="http://www.w3.org/2000/svg">
<path d="M22.5 23.4246C34.9264 23.4246 45 18.1808 45 11.7123C45 5.24378 34.9264 0 22.5 0C10.0736 0 0 5.24378 0 11.7123C0 18.1808 10.0736 23.4246 22.5 23.4246Z" fill="#8993BE"/>
<path fill-rule="evenodd" clip-rule="evenodd" d="M6.31836 18.6473L8.78422 6.16436H14.486C16.9517 6.31852 18.1846 7.55127 18.1846 9.70898C18.1846 13.4076 15.2567 15.5651 12.6366 15.411H9.86299L9.24652 18.6473H6.31836ZM10.4793 13.0995L11.2499 8.47605H13.2533C14.3321 8.47605 15.1025 8.93836 15.1025 9.86297C14.9485 12.483 13.7156 12.9453 12.3287 13.0995H10.4795H10.4793ZM17.6118 15.411L20.0775 2.92822H23.0056L22.3892 6.16436H25.163C27.6288 6.31852 28.5535 7.55127 28.2453 9.09252L27.1665 15.411H24.0844L25.1632 9.70898C25.3171 8.93836 25.3172 8.47605 24.2386 8.47605H21.9269L20.5399 15.411H17.6118ZM26.9691 18.6473L29.4348 6.16436H35.1368C37.6027 6.31852 38.8356 7.55127 38.8356 9.70898C38.8356 13.4076 35.9074 15.5651 33.2876 15.411H30.5136L29.8971 18.6473H26.9691ZM31.1299 13.0995L31.9005 8.47605H33.9041C34.9828 8.47605 35.7533 8.93836 35.7533 9.86297C35.5993 12.483 34.3664 12.9453 32.9795 13.0995H31.1301H31.1299Z" fill="#232531"/>
</svg>
