<svg width="36" height="36" viewBox="0 0 36 36" fill="none" xmlns="http://www.w3.org/2000/svg">
<path d="M35.3192 21.5572C35.1099 20.9234 34.5616 20.4818 33.8525 20.3758C33.5181 20.3259 33.1352 20.3472 32.6821 20.4406C31.8923 20.6036 31.3063 20.6656 30.8787 20.6777C32.4928 17.9524 33.8053 14.8446 34.5609 11.9192C35.7826 7.18897 35.1297 5.03404 34.3668 4.05925C32.3477 1.47936 29.4019 0.0933152 25.8479 0.0508277C23.9521 0.0276893 22.2877 0.402015 21.4196 0.671129C20.6112 0.52859 19.7419 0.448936 18.8299 0.434183C17.1204 0.406933 15.6099 0.779565 14.3192 1.54547C13.6045 1.30393 12.4579 0.963301 11.1335 0.745865C8.01859 0.234483 5.5082 0.632995 3.67197 1.93019C1.44843 3.50086 0.417603 6.22974 0.608273 10.0411C0.668739 11.2512 1.34572 14.933 2.41153 18.4248C3.0241 20.4317 3.67729 22.0984 4.35298 23.3788C5.31116 25.1945 6.33643 26.2638 7.48746 26.6477C8.13267 26.8627 9.30483 27.0131 10.5378 25.9865C10.694 26.1757 10.9024 26.3637 11.1792 26.5384C11.5305 26.76 11.9603 26.9411 12.3893 27.0484C13.9359 27.435 15.3845 27.3383 16.6203 26.7964C16.6279 27.0162 16.6338 27.2262 16.6388 27.4075C16.647 27.7017 16.6551 27.9901 16.6659 28.2598C16.7391 30.0836 16.8632 31.5017 17.2308 32.4938C17.251 32.5485 17.2781 32.6316 17.3068 32.7197C17.4902 33.2813 17.7969 34.2213 18.5771 34.9577C19.3852 35.7203 20.3625 35.9542 21.2575 35.9541C21.7064 35.9541 22.1348 35.8953 22.5104 35.8148C23.8496 35.5278 25.3704 35.0905 26.4706 33.5241C27.5107 32.0431 28.0163 29.8126 28.1078 26.298C28.1197 26.1987 28.1307 26.1038 28.1412 26.0134C28.1483 25.9523 28.1556 25.8899 28.1629 25.8277L28.408 25.8492L28.4711 25.8535C29.8351 25.9156 31.5028 25.6264 32.527 25.1506C33.3364 24.775 35.9298 23.4059 35.3192 21.5572Z" fill="black"/>
<path d="M32.9869 21.9168C28.9315 22.7533 28.6527 21.3802 28.6527 21.3802C32.9346 15.0266 34.7245 6.96166 33.1798 4.9878C28.9658 -0.396502 21.671 2.14993 21.5492 2.21604L21.51 2.22305C20.7088 2.05673 19.8122 1.95764 18.8044 1.9412C16.9694 1.91113 15.5774 2.42227 14.5212 3.22324C14.5212 3.22324 1.50802 -2.13768 2.11325 9.96561C2.242 12.5405 5.80378 29.4483 10.0521 24.3414C11.6049 22.4739 13.1052 20.895 13.1052 20.895C13.8504 21.39 14.7424 21.6425 15.6776 21.5518L15.7503 21.4901C15.7277 21.722 15.738 21.9488 15.7794 22.2173C14.685 23.44 15.0066 23.6547 12.8187 24.1051C10.6049 24.5613 11.9055 25.3736 12.7546 25.5859C13.7839 25.8433 16.1654 26.2079 17.7745 23.9554L17.7104 24.2124C18.1392 24.5558 18.4403 26.4465 18.3898 28.1603C18.3394 29.8743 18.3057 31.0509 18.6435 31.97C18.9814 32.8891 19.3182 34.9571 22.1943 34.3408C24.5975 33.8258 25.8429 32.4912 26.0161 30.265C26.1391 28.6823 26.4173 28.9162 26.4349 27.5013L26.658 26.8314C26.9154 24.686 26.6989 23.9938 28.1795 24.3157L28.5394 24.3473C29.6291 24.3969 31.0554 24.1721 31.8925 23.783C33.695 22.9465 34.7641 21.5498 32.9868 21.9168H32.9869Z" fill="#336791"/>
<path d="M15.2829 11.1173C14.9175 11.0664 14.5865 11.1135 14.4191 11.2403C14.3248 11.3116 14.2957 11.3943 14.2879 11.4512C14.2668 11.6019 14.3725 11.7684 14.4373 11.8544C14.6208 12.0976 14.8889 12.2648 15.1543 12.3016C15.1928 12.307 15.231 12.3095 15.269 12.3095C15.7117 12.3095 16.114 11.965 16.1494 11.7106C16.1938 11.3921 15.7313 11.1797 15.2829 11.1173Z" fill="white"/>
<path d="M27.3896 11.1273H27.3895C27.3547 10.8776 26.9103 10.8064 26.4887 10.865C26.0676 10.9237 25.6593 11.1137 25.6934 11.364C25.7208 11.5586 26.0721 11.8908 26.4881 11.8908C26.5232 11.8908 26.5586 11.8884 26.5943 11.8834C26.872 11.845 27.0757 11.6687 27.1725 11.567C27.3199 11.4122 27.4052 11.2395 27.3896 11.1273Z" fill="white"/>
<path d="M34.3364 21.822C34.1817 21.3544 33.684 21.2039 32.8571 21.3747C30.4019 21.8814 29.5226 21.5304 29.2338 21.3178C31.1423 18.4104 32.7122 14.8962 33.5592 11.6172C33.9604 10.0641 34.182 8.62167 34.2001 7.44605C34.2201 6.15546 34.0004 5.20727 33.5471 4.62801C31.7195 2.29272 29.0373 1.04011 25.7904 1.00568C23.5583 0.98061 21.6724 1.55189 21.3068 1.71249C20.5369 1.52102 19.6975 1.40347 18.7838 1.38847C17.1081 1.36138 15.6597 1.76256 14.4605 2.58022C13.9396 2.38641 12.5934 1.92428 10.9472 1.65912C8.10092 1.20079 5.83924 1.54802 4.2252 2.69148C2.29932 4.05592 1.41022 6.49488 1.58251 9.94048C1.64048 11.0998 2.30093 14.6659 3.34336 18.0812C4.71546 22.5763 6.20688 25.121 7.77626 25.6444C7.95991 25.7057 8.17178 25.7486 8.40526 25.7486C8.97776 25.7486 9.67957 25.4905 10.4098 24.6126C11.6228 23.1534 12.7553 21.9306 13.1727 21.4863C13.7896 21.8175 14.4673 22.0023 15.1605 22.0209C15.1617 22.039 15.1636 22.0572 15.1652 22.0752C15.0261 22.2402 14.9121 22.3847 14.8148 22.5082C14.3346 23.1178 14.2346 23.2447 12.6886 23.5631C12.2489 23.6538 11.0808 23.8945 11.0638 24.7132C11.0451 25.6077 12.4443 25.9834 12.6038 26.0232C13.1594 26.1623 13.6945 26.2309 14.2049 26.2309C15.4463 26.2308 16.5387 25.8229 17.4117 25.0335C17.3848 28.2225 17.5178 31.3649 17.9007 32.3224C18.2142 33.1061 18.9804 35.0217 21.4004 35.0215C21.7554 35.0215 22.1463 34.9802 22.5763 34.8881C25.1018 34.3465 26.1985 33.2303 26.6228 30.7694C26.8498 29.4543 27.2395 26.3136 27.4227 24.629C27.8094 24.7496 28.3073 24.8048 28.8455 24.8047C29.9681 24.8047 31.2634 24.5663 32.0757 24.1892C32.9882 23.7654 34.635 22.7254 34.3364 21.822ZM28.3219 10.4382C28.3135 10.9356 28.2451 11.3871 28.1725 11.8584C28.0945 12.3652 28.0137 12.8893 27.9934 13.5255C27.9733 14.1446 28.0506 14.7882 28.1254 15.4106C28.2765 16.6679 28.4316 17.9622 27.8313 19.2394C27.7381 19.0738 27.648 18.893 27.5654 18.6928C27.4909 18.512 27.3289 18.2215 27.1047 17.8194C26.232 16.2546 24.1886 12.59 25.2347 11.0947C25.5462 10.6495 26.3369 10.1919 28.3219 10.4382ZM25.9159 2.01281C28.8251 2.07706 31.1262 3.16537 32.7556 5.24734C34.0052 6.84429 32.6292 14.1107 28.6456 20.3794C28.6063 20.3294 28.5662 20.279 28.5248 20.2272C28.5082 20.2065 28.4914 20.1854 28.4744 20.1642C29.5037 18.4641 29.3024 16.7821 29.1233 15.2908C29.0497 14.6788 28.9802 14.1007 28.9978 13.5578C29.0161 12.9822 29.0922 12.4887 29.1658 12.0114C29.2563 11.4232 29.3483 10.8147 29.3229 10.0972C29.3419 10.022 29.3495 9.93306 29.3396 9.82753C29.2748 9.1395 28.4894 7.08067 26.8884 5.21694C26.0128 4.19773 24.7356 3.05702 22.9919 2.28764C23.742 2.13221 24.7676 1.98725 25.9159 2.01281ZM9.63708 23.9701C8.83256 24.9374 8.27692 24.752 8.09423 24.6911C6.90369 24.294 5.5224 21.7779 4.30453 17.7878C3.25073 14.3354 2.63486 10.8638 2.58617 9.89025C2.43226 6.81148 3.17857 4.66574 4.80447 3.51269C7.45046 1.63622 11.8008 2.75936 13.5488 3.32903C13.5237 3.35378 13.4976 3.377 13.4726 3.40216C10.6042 6.29913 10.6723 11.2486 10.6793 11.5511C10.679 11.6679 10.6888 11.8331 10.7023 12.0605C10.7516 12.8929 10.8434 14.4423 10.5981 16.1969C10.37 17.8274 10.8726 19.4233 11.9768 20.5754C12.0911 20.6947 12.2104 20.8066 12.3337 20.912C11.8422 21.4384 10.774 22.6023 9.63708 23.9701ZM12.7024 19.8801C11.8124 18.9515 11.4083 17.6599 11.5934 16.3361C11.8525 14.4825 11.7568 12.8682 11.7054 12.001C11.6982 11.8797 11.6919 11.7733 11.6881 11.6894C12.1072 11.3179 14.0491 10.2773 15.4339 10.5946C16.066 10.7394 16.451 11.1697 16.6111 11.91C17.4397 15.7422 16.7208 17.3394 16.1432 18.6229C16.0241 18.8874 15.9116 19.1373 15.8155 19.3959L15.7411 19.5958C15.5526 20.1012 15.3772 20.5711 15.2686 21.0173C14.3226 21.0144 13.4022 20.6103 12.7024 19.8801ZM12.8476 25.0483C12.5714 24.9793 12.3229 24.8594 12.1771 24.76C12.2989 24.7027 12.5156 24.6248 12.8914 24.5474C14.7101 24.1729 14.9909 23.9087 15.6043 23.1299C15.745 22.9514 15.9044 22.749 16.1251 22.5024C16.1252 22.5023 16.1253 22.5022 16.1253 22.5021C16.4542 22.134 16.6045 22.1964 16.8773 22.3095C17.0984 22.401 17.3136 22.678 17.4009 22.9829C17.4422 23.1269 17.4886 23.4003 17.3368 23.6129C16.0555 25.4069 14.1885 25.3838 12.8476 25.0483ZM22.3656 33.9054C20.1407 34.3822 19.3529 33.2469 18.8338 31.9492C18.4988 31.1113 18.3341 27.3331 18.4509 23.1609C18.4525 23.1053 18.4446 23.0517 18.4293 23.0013C18.416 22.904 18.3955 22.8056 18.3671 22.7065C18.1933 22.0994 17.7699 21.5916 17.262 21.3811C17.0602 21.2975 16.6898 21.144 16.2447 21.2579C16.3396 20.8668 16.5043 20.4252 16.6827 19.947L16.7576 19.7457C16.8419 19.5189 16.9476 19.284 17.0595 19.0354C17.664 17.6924 18.4919 15.853 17.5934 11.6975C17.2568 10.1411 16.1329 9.38112 14.4291 9.5576C13.4077 9.6633 12.4733 10.0754 12.0072 10.3117C11.907 10.3625 11.8153 10.4115 11.7297 10.4594C11.8597 8.89111 12.3513 5.96044 14.1898 4.10622C15.3473 2.93882 16.8889 2.3623 18.7672 2.39334C22.4681 2.45397 24.8414 4.35325 26.1808 5.93593C27.3349 7.2998 27.9598 8.67359 28.2093 9.4145C26.3336 9.22383 25.058 9.59413 24.4112 10.5186C23.0044 12.5296 25.1809 16.433 26.227 18.3089C26.4188 18.6528 26.5844 18.9498 26.6364 19.0761C26.9771 19.9017 27.4181 20.4528 27.7401 20.8552C27.8387 20.9784 27.9345 21.098 28.0073 21.2024C27.4393 21.3662 26.4188 21.7446 26.5118 23.636C26.4368 24.5852 25.9034 29.0287 25.6325 30.5987C25.2749 32.6727 24.5117 33.4453 22.3656 33.9054ZM31.6525 23.2777C31.0717 23.5474 30.0995 23.7496 29.176 23.793C28.156 23.8408 27.6368 23.6788 27.5146 23.5791C27.4572 22.4004 27.8961 22.2773 28.3604 22.1469C28.4333 22.1263 28.5045 22.1064 28.5732 22.0824C28.6159 22.1171 28.6627 22.1516 28.7139 22.1854C29.5337 22.7266 30.996 22.7849 33.0604 22.3588C33.0679 22.3572 33.0755 22.3558 33.083 22.3542C32.8046 22.6146 32.3282 22.964 31.6525 23.2777Z" fill="white"/>
</svg>
