<svg width="36" height="36" viewBox="0 0 36 36" fill="none" xmlns="http://www.w3.org/2000/svg">
<path d="M17.854 0.344832C8.83582 0.344832 9.40612 4.24423 9.40612 4.24423V8.29604H17.9823V9.5662H5.99066C5.99066 9.5662 0.217773 8.85491 0.217773 18.0064C0.217773 27.1579 5.31493 26.7858 5.31493 26.7858H8.25789V22.5168C8.25789 22.5168 8.09277 17.4196 13.2115 17.4196H21.8004C21.8004 17.4196 26.5914 17.4958 26.5914 12.781V5.04443C26.5914 5.04443 27.3179 0.32959 17.901 0.32959L17.854 0.344832ZM13.1137 3.05917C13.4186 3.05147 13.7189 3.13437 13.9767 3.29737C14.2345 3.46036 14.4381 3.69614 14.5619 3.97489C14.6857 4.25363 14.724 4.56282 14.672 4.86335C14.6201 5.16387 14.4802 5.44224 14.27 5.66325C14.0598 5.88426 13.7888 6.03798 13.4913 6.10497C13.1938 6.17196 12.883 6.14921 12.5984 6.0396C12.3138 5.92999 12.0681 5.73844 11.8924 5.48918C11.7166 5.23992 11.6188 4.94414 11.6111 4.63925V4.61384C11.6111 4.41135 11.651 4.21084 11.7285 4.02376C11.806 3.83667 11.9196 3.66669 12.0628 3.5235C12.2059 3.38032 12.3759 3.26674 12.563 3.18924C12.7501 3.11175 12.9506 3.07187 13.1531 3.07187L13.1137 3.05917Z" fill="url(#paint0_linear_1387_3820)"/>
<path d="M18.1077 35.6679C27.1258 35.6679 26.5555 31.7558 26.5555 31.7558V27.7167H17.9806V26.4465H30.0091C30.0091 26.4465 35.7819 27.0918 35.7819 17.9936C35.7819 8.89545 30.6848 9.21426 30.6848 9.21426H27.7037V13.4274C27.7037 13.4274 27.8688 18.5245 22.7501 18.5245H14.1575C14.1575 18.5245 9.36259 18.4521 9.36259 23.167V30.9556C9.36259 30.9556 8.63606 35.6704 18.053 35.6704H18.1038L18.1077 35.6679ZM22.8479 32.9409C22.543 32.9486 22.2427 32.8657 21.9849 32.7027C21.7271 32.5397 21.5235 32.3039 21.3997 32.0251C21.2759 31.7464 21.2376 31.4372 21.2896 31.1367C21.3415 30.8362 21.4814 30.5578 21.6916 30.3368C21.9018 30.1158 22.1728 29.9621 22.4703 29.8951C22.7679 29.8281 23.0786 29.8508 23.3632 29.9604C23.6478 30.07 23.8935 30.2616 24.0692 30.5109C24.245 30.7601 24.3429 31.0559 24.3505 31.3608V31.3989C24.3505 31.8078 24.188 32.2001 23.8989 32.4892C23.6097 32.7784 23.2175 32.9409 22.8085 32.9409H22.8466H22.8479Z" fill="url(#paint1_linear_1387_3820)"/>
<defs>
<linearGradient id="paint0_linear_1387_3820" x1="3.73251" y1="3.80335" x2="20.6087" y2="20.6413" gradientUnits="userSpaceOnUse">
<stop stop-color="#387EB8"/>
<stop offset="1" stop-color="#366994"/>
</linearGradient>
<linearGradient id="paint1_linear_1387_3820" x1="13.7161" y1="14.7719" x2="32.9974" y2="31.6048" gradientUnits="userSpaceOnUse">
<stop stop-color="#FFE052"/>
<stop offset="1" stop-color="#FFC331"/>
</linearGradient>
</defs>
</svg>
