<svg width="36" height="36" viewBox="0 0 36 36" fill="none" xmlns="http://www.w3.org/2000/svg">
<path d="M0.000976562 17.9995C0.000976562 25.1238 4.14084 31.2813 10.1451 34.1978L1.5588 10.6743C0.561281 12.9121 0.000976562 15.3896 0.000976562 17.9995Z" fill="#1C769B"/>
<path d="M18.316 19.5737L12.915 35.2669C14.5286 35.7413 16.2327 36.0002 18.0002 36.0002C20.0956 36.0002 22.1064 35.6379 23.9771 34.9801C23.9295 34.9023 23.8848 34.8216 23.8488 34.7321L18.316 19.5737Z" fill="#1C769B"/>
<path d="M30.1515 17.0919C30.1515 14.8664 29.3514 13.3265 28.6674 12.1281C27.7541 10.6435 26.8982 9.38815 26.8982 7.90639C26.8982 6.25102 28.153 4.71062 29.921 4.71062C30.0011 4.71062 30.0766 4.72165 30.1532 4.72572C26.9534 1.79123 22.6858 0 18.0001 0C11.7108 0 6.17974 3.22654 2.96191 8.11251C3.38461 8.12587 3.78234 8.13458 4.11968 8.13458C6.00149 8.13458 8.9174 7.90581 8.9174 7.90581C9.88704 7.84775 10.0008 9.27435 9.0312 9.38815C9.0312 9.38815 8.05633 9.50311 6.97114 9.5606L13.5258 29.0563L17.4654 17.2429L14.6627 9.5606C13.6919 9.50311 12.7733 9.38815 12.7733 9.38815C11.8037 9.33067 11.9169 7.84833 12.8883 7.90581C12.8883 7.90581 15.8605 8.13458 17.6291 8.13458C19.5115 8.13458 22.4263 7.90581 22.4263 7.90581C23.3971 7.84775 23.5109 9.27435 22.5406 9.38815C22.5406 9.38815 21.5646 9.50311 20.4812 9.5606L26.9859 28.9082L28.7829 22.9098C29.5581 20.4189 30.1515 18.6317 30.1515 17.0919Z" fill="#1C769B"/>
<path d="M33.9169 11.2148C33.9169 13.0409 33.5755 15.094 32.5472 17.6621L27.0498 33.5567C32.4009 30.4376 35.9996 24.6395 35.9996 18C35.9996 14.8699 35.2001 11.9278 33.7949 9.36377C33.8733 9.93743 33.9169 10.5517 33.9169 11.2148Z" fill="#1C769B"/>
<path d="M26.8988 7.90581C26.8988 6.25044 28.1536 4.71004 29.9216 4.71004C30.0017 4.71004 30.0772 4.72107 30.1538 4.72514C26.9534 1.79123 22.6858 0 18.0001 0C11.7108 0 6.17975 3.22654 2.96191 8.11251C3.38461 8.12587 3.78234 8.13458 4.11968 8.13458C6.00149 8.13458 8.9174 7.90581 8.9174 7.90581C9.88705 7.84775 10.0008 9.27435 9.0312 9.38815C9.0312 9.38815 8.05633 9.50311 6.97114 9.56059L9.47074 16.9949C11.1714 17.5953 13.0137 17.9257 14.9379 17.9257C15.7386 17.9257 16.5253 17.8682 17.2947 17.7585L17.466 17.2434L14.6633 9.56117C13.6925 9.50369 12.7739 9.38873 12.7739 9.38873C11.8043 9.33125 11.9175 7.84891 12.8889 7.90639C12.8889 7.90639 15.8611 8.13516 17.6297 8.13516C19.5121 8.13516 22.4268 7.90639 22.4268 7.90639C23.3976 7.84833 23.5114 9.27493 22.5412 9.38873C22.5412 9.38873 21.5652 9.50369 20.4817 9.56117L22.6475 16.0038C24.8457 14.8217 26.7084 13.1523 28.0665 11.1498C27.4121 10.0634 26.8988 9.05197 26.8988 7.90581Z" fill="#2795B7"/>
<path d="M18.0001 0C12.3523 0 7.32176 2.60701 4.02148 6.67604C6.91823 7.27815 10.0995 7.61201 13.4381 7.61201C19.7599 7.61201 25.5198 6.41766 29.8506 4.45863C26.6851 1.68498 22.54 0 18.0001 0Z" fill="#3FB5D1"/>
</svg>
