<svg width="24" height="24" viewBox="0 0 24 24" fill="none" xmlns="http://www.w3.org/2000/svg">
<path d="M12.9609 1.34007C10.9594 1.94475 10.875 1.98225 10.875 2.226C10.875 2.42756 10.9313 2.4885 11.3672 2.77913L11.8031 3.06975L10.3828 4.64944L8.9625 6.22444L7.92188 5.36194C7.08281 4.6635 6.85781 4.49944 6.74063 4.49944C6.63281 4.49944 6.52969 4.56507 6.31406 4.77132C6.15469 4.92132 5.68594 5.35725 5.27344 5.74163C4.86094 6.13069 4.52344 6.45882 4.52344 6.47288C4.52344 6.48694 4.63125 6.61819 4.75781 6.7635L4.99219 7.03069L5.86875 6.21038C6.35156 5.76038 6.75469 5.39007 6.76875 5.39007C6.77813 5.39007 7.25625 5.77913 7.82813 6.25725C8.99063 7.22757 9.03281 7.24632 9.3 6.96975C9.78281 6.47757 12.6891 3.21038 12.7219 3.12132C12.7969 2.92444 12.7172 2.77444 12.4453 2.59632C12.3047 2.50257 12.1875 2.40882 12.1875 2.39007C12.1875 2.36663 14.5406 1.64007 14.5641 1.65882C14.5922 1.67756 14.3156 4.17132 14.2828 4.17132C14.2641 4.17132 14.1047 4.07757 13.9313 3.96038C13.5656 3.71194 13.4156 3.69788 13.2234 3.876C13.125 3.96975 9.31406 8.09944 9.00469 8.44632C8.98594 8.46507 8.50313 8.09475 7.92656 7.61663C7.08281 6.9135 6.85781 6.74944 6.74063 6.74944C6.63281 6.74944 6.53438 6.81507 6.31406 7.02132C6.0375 7.28382 1.89844 11.1369 1.62656 11.3854L1.5 11.5026V10.8932V10.2838L2.92969 8.95257C3.71719 8.22132 4.35469 7.60725 4.35 7.5885C4.33125 7.53694 3.89063 7.07757 3.8625 7.07757C3.83438 7.07757 1.14844 9.57132 0.904688 9.82444L0.75 9.98382V11.2494V12.5198L0.867188 12.6323C1.05469 12.8244 1.22813 12.7916 1.5375 12.501C3.3375 10.8135 6.75 7.64007 6.76875 7.64007C6.77813 7.64007 7.25625 8.02913 7.82813 8.50725C8.97188 9.45882 9.01875 9.48694 9.27656 9.24319C9.35156 9.17288 10.3359 8.1135 11.4656 6.89007C12.5906 5.66663 13.5281 4.65882 13.5516 4.64944C13.5703 4.64007 13.7953 4.77132 14.0484 4.94007C14.3391 5.13694 14.5547 5.24944 14.6391 5.24944C14.7891 5.24944 15 5.06663 15 4.93538C15 4.8885 15.0844 4.01663 15.1875 2.99944C15.2906 1.98225 15.375 1.11038 15.375 1.0635C15.375 0.932253 15.1641 0.74944 15.0141 0.754128C14.9438 0.758815 14.0203 1.02131 12.9609 1.34007Z" fill="#FCFCFC"/>
<path d="M18.75 1.49981V2.24981H17.7422C16.7297 2.24981 16.7297 2.24981 16.6172 2.36699C16.5047 2.47481 16.5 2.50293 16.5 3.11699V3.74981H16.2422C16.0266 3.74981 15.9609 3.76856 15.8672 3.86699L15.75 3.97949V5.17949V6.37481H14.7328H13.7156L12.1172 7.96856L10.5234 9.56231L10.5 10.7342L10.4766 11.9107L9.43125 11.0201C8.5875 10.2936 8.3625 10.1248 8.25 10.1248C8.1375 10.1248 7.87031 10.3311 6.7875 11.2545C6.05625 11.8779 5.41406 12.4357 5.35313 12.5014C5.25469 12.6092 5.25 12.6467 5.25 13.4764V14.3389L4.55156 13.9217C4.16719 13.6873 3.80625 13.4998 3.75 13.4998C3.63281 13.4998 1.70625 14.6342 1.58438 14.7748C1.50938 14.8592 1.5 14.9998 1.5 16.2467V17.6248H1.125H0.75V17.9998V18.3748L1.74844 18.3795H2.74219L3.07031 18.8342C3.45 19.3545 4.40156 20.3342 4.94531 20.7607C6.27656 21.8154 7.72031 22.5232 9.3375 22.9217C10.3266 23.1654 10.8469 23.2217 12 23.2217C13.0266 23.2217 13.3313 23.1982 14.1797 23.0342C16.2469 22.6357 18.2438 21.5904 19.8234 20.0904C20.1422 19.7857 20.8875 18.9232 21.0984 18.6139L21.2578 18.3795L22.2563 18.3748H23.25V17.9998V17.6248H22.875H22.5V15.5623V13.4998H22.125H21.75V15.5623V17.6248H20.625H19.5V16.8748V16.1248H19.125H18.75V16.8748V17.6248H17.625H16.5V11.0623V4.49981H19.125H21.75V8.62481V12.7498H22.125H22.5V8.36699V3.97949L22.3828 3.86699C22.2891 3.76856 22.2234 3.74981 22.0078 3.74981H21.75V3.11699C21.75 2.50293 21.7453 2.47481 21.6328 2.36699C21.5203 2.24981 21.5203 2.24981 20.5078 2.24981H19.5V1.49981V0.749805H19.125H18.75V1.49981ZM21 3.37481V3.74981H19.125H17.25V3.37481V2.99981H19.125H21V3.37481ZM15.75 12.3748V17.6248H14.8125H13.875V16.8748V16.1248H13.5H13.125V16.8748V17.6248H12.1875H11.25V13.7717V9.91387L12.6422 8.52168L14.0391 7.12481H14.8922H15.75V12.3748ZM9.39844 11.9764L10.4953 12.9139L10.5 15.267V17.6248H9.5625H8.625V16.8748V16.1248H8.25H7.875V16.8748V17.6248H6.9375H6V15.267L6.00469 12.9139L7.11563 11.967C7.725 11.442 8.24063 11.0201 8.26406 11.0295C8.28281 11.0342 8.79375 11.4607 9.39844 11.9764ZM4.52813 14.7748L5.25 15.2107V16.4154V17.6248H4.6875H4.125V16.8748V16.1248H3.75H3.375V16.8748V17.6248H2.8125H2.25V16.4154V15.2107L2.96719 14.7795C3.35625 14.5404 3.70781 14.3482 3.74063 14.3436C3.77813 14.3436 4.12969 14.5404 4.52813 14.7748ZM7.2375 18.7826C7.44844 19.2045 7.81406 19.8467 7.97344 20.0717C8.025 20.1373 8.0625 20.2076 8.0625 20.2217C8.0625 20.2357 7.48594 20.2498 6.78281 20.2498H5.49844L5.15156 19.9498C4.75781 19.6123 4.20469 19.0451 3.86719 18.642L3.64688 18.3748H5.33906H7.03125L7.2375 18.7826ZM15.9375 18.7498C15.8297 18.9514 15.5766 19.3732 15.3703 19.6873L15.0047 20.2498H12H8.99531L8.62969 19.6873C8.42344 19.3732 8.17031 18.9514 8.0625 18.7498L7.87031 18.3748H12H16.1297L15.9375 18.7498ZM20.1328 18.642C19.7953 19.0451 19.2422 19.6123 18.8484 19.9498L18.5016 20.2498H17.2172C16.5141 20.2498 15.9375 20.2357 15.9375 20.2217C15.9375 20.2076 15.975 20.1373 16.0266 20.0717C16.1859 19.8467 16.5516 19.2045 16.7625 18.7826L16.9688 18.3748H18.6609H20.3531L20.1328 18.642ZM8.8125 21.2201C8.90156 21.342 9.14062 21.6139 9.34688 21.8295C9.54844 22.0451 9.68438 22.2186 9.64688 22.2186C9.50156 22.2186 8.80781 22.0123 8.27344 21.8107C7.72969 21.6045 7.23281 21.3701 6.79688 21.1217L6.58594 20.9998H7.61719L8.64844 21.0045L8.8125 21.2201ZM14.1 21.3373C13.9313 21.5248 13.6125 21.8436 13.3875 22.0498C12.9188 22.4811 12.8719 22.4951 12 22.4951C11.1281 22.4951 11.0813 22.4811 10.6125 22.0498C10.3875 21.8436 10.0688 21.5248 9.9 21.3373L9.59531 20.9998H12H14.4047L14.1 21.3373ZM17.2031 21.1217C16.5516 21.4967 15.7266 21.8436 14.9484 22.0779C14.2359 22.2889 14.2266 22.2795 14.6531 21.8295C14.8594 21.6139 15.0984 21.342 15.1875 21.2201L15.3516 21.0045L16.3828 20.9998H17.4141L17.2031 21.1217Z" fill="#FCFCFC"/>
<path d="M14.25 9.1875V10.125H14.625H15V9.1875V8.25H14.625H14.25V9.1875Z" fill="#FCFCFC"/>
<path d="M12 11.8125V12.75H12.375H12.75V11.8125V10.875H12.375H12V11.8125Z" fill="#FCFCFC"/>
<path d="M14.25 11.8125V12.75H14.625H15V11.8125V10.875H14.625H14.25V11.8125Z" fill="#FCFCFC"/>
<path d="M12 14.4375V15.375H12.375H12.75V14.4375V13.5H12.375H12V14.4375Z" fill="#FCFCFC"/>
<path d="M14.25 14.4375V15.375H14.625H15V14.4375V13.5H14.625H14.25V14.4375Z" fill="#FCFCFC"/>
<path d="M6.75 14.4375V15.375H7.125H7.5V14.4375V13.5H7.125H6.75V14.4375Z" fill="#FCFCFC"/>
<path d="M9 14.4375V15.375H9.375H9.75V14.4375V13.5H9.375H9V14.4375Z" fill="#FCFCFC"/>
<path d="M17.25 6.5625V7.5H17.625H18V6.5625V5.625H17.625H17.25V6.5625Z" fill="#FCFCFC"/>
<path d="M18.75 6.5625V7.5H19.125H19.5V6.5625V5.625H19.125H18.75V6.5625Z" fill="#FCFCFC"/>
<path d="M20.25 6.5625V7.5H20.625H21V6.5625V5.625H20.625H20.25V6.5625Z" fill="#FCFCFC"/>
<path d="M17.25 9.1875V10.125H17.625H18V9.1875V8.25H17.625H17.25V9.1875Z" fill="#FCFCFC"/>
<path d="M18.75 9.1875V10.125H19.125H19.5V9.1875V8.25H19.125H18.75V9.1875Z" fill="#FCFCFC"/>
<path d="M20.25 9.1875V10.125H20.625H21V9.1875V8.25H20.625H20.25V9.1875Z" fill="#FCFCFC"/>
<path d="M17.25 11.8125V12.75H17.625H18V11.8125V10.875H17.625H17.25V11.8125Z" fill="#FCFCFC"/>
<path d="M18.75 11.8125V12.75H19.125H19.5V11.8125V10.875H19.125H18.75V11.8125Z" fill="#FCFCFC"/>
<path d="M20.25 11.8125V12.75H20.625H21V11.8125V10.875H20.625H20.25V11.8125Z" fill="#FCFCFC"/>
<path d="M17.25 14.4375V15.375H17.625H18V14.4375V13.5H17.625H17.25V14.4375Z" fill="#FCFCFC"/>
<path d="M18.75 14.4375V15.375H19.125H19.5V14.4375V13.5H19.125H18.75V14.4375Z" fill="#FCFCFC"/>
<path d="M20.25 14.4375V15.375H20.625H21V14.4375V13.5H20.625H20.25V14.4375Z" fill="#FCFCFC"/>
</svg>
