<svg width="24" height="26" viewBox="0 0 24 26" fill="none" xmlns="http://www.w3.org/2000/svg">
<path fill-rule="evenodd" clip-rule="evenodd" d="M16.4254 0.166748C16.9084 0.166748 17.3004 0.558748 17.3004 1.04175L17.301 2.03086C19.0044 2.14765 20.4192 2.73114 21.4205 3.73453C22.5137 4.83236 23.0888 6.41086 23.0831 8.30436V18.9479C23.0831 22.8352 20.6143 25.2502 16.6418 25.2502H6.77418C2.80167 25.2502 0.333008 22.8014 0.333008 18.8592V8.30203C0.333008 4.63542 2.53457 2.28184 6.12514 2.03126L6.12586 1.04175C6.12586 0.558748 6.51786 0.166748 7.00086 0.166748C7.48386 0.166748 7.87586 0.558748 7.87586 1.04175L7.87551 2.00891H15.5498L15.5504 1.04175C15.5504 0.558748 15.9424 0.166748 16.4254 0.166748ZM21.333 10.5547H2.08301V18.8592C2.08301 21.8529 3.74901 23.5002 6.77418 23.5002H16.6418C19.667 23.5002 21.3331 21.8832 21.3331 18.9479L21.333 10.5547ZM16.9011 17.8958C17.3841 17.8958 17.7761 18.2878 17.7761 18.7708C17.7761 19.2538 17.3841 19.6458 16.9011 19.6458C16.4181 19.6458 16.0214 19.2538 16.0214 18.7708C16.0214 18.2878 16.4076 17.8958 16.8906 17.8958H16.9011ZM11.724 17.8958C12.207 17.8958 12.599 18.2878 12.599 18.7708C12.599 19.2538 12.207 19.6458 11.724 19.6458C11.241 19.6458 10.8443 19.2538 10.8443 18.7708C10.8443 18.2878 11.2305 17.8958 11.7135 17.8958H11.724ZM6.53606 17.8958C7.01906 17.8958 7.41106 18.2878 7.41106 18.7708C7.41106 19.2538 7.01906 19.6458 6.53606 19.6458C6.05306 19.6458 5.65523 19.2538 5.65523 18.7708C5.65523 18.2878 6.04256 17.8958 6.52556 17.8958H6.53606ZM16.9011 13.3613C17.3841 13.3613 17.7761 13.7533 17.7761 14.2363C17.7761 14.7193 17.3841 15.1113 16.9011 15.1113C16.4181 15.1113 16.0214 14.7193 16.0214 14.2363C16.0214 13.7533 16.4076 13.3613 16.8906 13.3613H16.9011ZM11.724 13.3613C12.207 13.3613 12.599 13.7533 12.599 14.2363C12.599 14.7193 12.207 15.1113 11.724 15.1113C11.241 15.1113 10.8443 14.7193 10.8443 14.2363C10.8443 13.7533 11.2305 13.3613 11.7135 13.3613H11.724ZM6.53606 13.3613C7.01906 13.3613 7.41106 13.7533 7.41106 14.2363C7.41106 14.7193 7.01906 15.1113 6.53606 15.1113C6.05306 15.1113 5.65523 14.7193 5.65523 14.2363C5.65523 13.7533 6.04256 13.3613 6.52556 13.3613H6.53606ZM15.5498 3.75891H7.87551L7.87586 4.88125C7.87586 5.36425 7.48386 5.75625 7.00086 5.75625C6.51786 5.75625 6.12586 5.36425 6.12586 4.88125L6.12524 3.7854C3.51164 4.00496 2.08301 5.58925 2.08301 8.30203V8.80475H21.333L21.3331 8.30203C21.3377 6.8612 20.9503 5.7412 20.1815 4.9712C19.5066 4.29431 18.52 3.89005 17.3014 3.78596L17.3004 4.88125C17.3004 5.36425 16.9084 5.75625 16.4254 5.75625C15.9424 5.75625 15.5504 5.36425 15.5504 4.88125L15.5498 3.75891Z" fill="#FCFCFC"/>
</svg>
