<svg width="263" height="203" viewBox="0 0 263 203" fill="none" xmlns="http://www.w3.org/2000/svg">
<path d="M140.242 202.533C97.114 202.533 62.1519 197.647 62.1519 191.618C62.1519 185.589 97.114 180.701 140.242 180.701C183.372 180.701 218.332 185.589 218.332 191.618C218.332 197.647 183.372 202.533 140.242 202.533Z" fill="#38A98E"/>
<path d="M44.0556 61.5362C33.713 67.0455 30.9298 70.7309 28.46 82.1855C22.9508 71.8434 19.2658 69.0592 7.81055 66.5895C18.1531 61.0803 20.9363 57.3948 23.4061 45.9402C28.9153 56.2824 32.6004 59.0666 44.0556 61.5362Z" fill="white"/>
<path d="M12.6732 38.4588C9.05685 40.3843 8.08373 41.6731 7.22019 45.6777C5.29387 42.0622 4.00524 41.0895 0 40.2248C3.61633 38.2992 4.58945 37.0104 5.45299 33.0058C7.37931 36.6213 8.66778 37.594 12.6732 38.4588Z" fill="white"/>
<path d="M34.8005 23.4225C30.6418 25.6383 29.5228 27.1201 28.5296 31.7266C26.3144 27.5669 24.8326 26.4484 20.2266 25.4544C24.3853 23.2401 25.5043 21.7583 26.4975 17.1518C28.7127 21.31 30.1945 22.4301 34.8005 23.4225Z" fill="white"/>
<path d="M226.368 81.3062C237.833 78.8852 241.53 76.1176 247.084 65.7999C249.503 77.2651 252.272 80.9613 262.591 86.5145C251.124 88.9356 247.427 91.7032 241.875 102.022C239.453 90.5573 236.687 86.8595 226.368 81.3062Z" fill="white"/>
<path d="M250.107 112.191C254.117 111.345 255.411 110.377 257.35 106.769C258.198 110.778 259.166 112.07 262.774 114.012C258.765 114.859 257.473 115.827 255.531 119.435C254.683 115.426 253.715 114.132 250.107 112.191Z" fill="white"/>
<path d="M224.674 120.491C229.285 119.519 230.771 118.406 233.005 114.257C233.978 118.867 235.091 120.353 239.24 122.586C234.63 123.56 233.143 124.672 230.91 128.821C229.937 124.212 228.823 122.725 224.674 120.491Z" fill="white"/>
<path d="M57.0739 55.7851C55.4426 48.8545 55.4606 34.2256 53.8291 27.2954C80.501 23.6872 107.342 21.3332 134.236 20.2452C134.392 17.7793 134.547 15.3118 134.703 12.8443C159.533 13.7611 184.363 14.6764 209.194 15.5916C211.211 15.6673 213.634 15.9982 214.465 17.8385C214.911 18.8246 214.735 19.9653 214.602 21.0402C213.04 33.6988 214.878 46.4891 214.447 59.0303L57.0739 55.7851Z" fill="#38A98E"/>
<path d="M205.713 78.9579L68.4453 81.6875L66.686 31.171L204.693 27.6705L205.713 78.9579Z" fill="#E9EBEF"/>
<path d="M69.6639 80.3989L204.425 77.7179L203.455 28.9632L67.9934 32.3994L69.6639 80.3989ZM205.738 80.218L68.4704 82.949C67.7803 82.9627 67.2071 82.4202 67.1833 81.7302L65.4246 31.2125C65.4129 30.877 65.5364 30.5495 65.7669 30.3035C65.9982 30.059 66.3179 29.9153 66.6547 29.9073L204.661 26.4071C204.981 26.3736 205.321 26.5222 205.566 26.757C205.808 26.9886 205.947 27.3081 205.955 27.6436L206.975 78.9308C206.989 79.6268 206.436 80.2043 205.738 80.218Z" fill="#11493E"/>
<path d="M209.977 87.0733L72.7089 89.8027L70.9492 39.2853L208.957 35.7854L209.977 87.0733Z" fill="white"/>
<path d="M73.9264 88.5151L208.688 85.8341L207.719 37.0793L72.2556 40.5149L73.9264 88.5151ZM210.002 88.3342L72.7326 91.0652C72.0426 91.0788 71.4694 90.5363 71.4456 89.8463L69.6868 39.3296C69.675 38.9935 69.7985 38.6639 70.0291 38.4188C70.2608 38.1752 70.5803 38.0307 70.9169 38.0226L208.924 34.5236H208.93C209.263 34.5171 209.586 34.6421 209.828 34.8727C210.072 35.1049 210.211 35.4247 210.218 35.7608L211.239 87.0469C211.252 87.743 210.697 88.3205 210.002 88.3342Z" fill="#11493E"/>
<path d="M216.175 58.9951C216.462 49.5667 215.559 40.157 215.704 30.7296C215.739 28.4701 215.835 26.2123 216.024 23.9612C216.185 22.0648 216.802 19.8468 216.319 17.9537C215.491 14.693 212.061 14.0083 209.16 13.8641C204.918 13.6519 200.664 13.5508 196.419 13.3933C179.29 12.7617 162.159 12.1302 145.028 11.4986C143.024 11.424 141.003 11.2731 138.997 11.2764C136.968 11.2781 135.118 12.029 133.885 13.6917C132.489 15.5765 132.648 18.0432 132.508 20.2794C133.073 19.6926 133.636 19.1041 134.202 18.5173C118.402 19.1638 102.622 20.2313 86.8812 21.7415C79.0822 22.4908 71.2935 23.3462 63.518 24.3076C60.6419 24.664 56.9759 24.4983 54.7192 26.6268C52.7058 28.5265 52.6207 30.8738 52.8827 33.4549C53.5806 40.3327 53.8411 47.3514 55.3739 54.1137C55.4957 54.6514 56.054 55.2076 56.6049 55.2966C65.6651 56.7605 74.7254 58.2248 83.7859 59.6887C98.2131 62.0199 112.64 64.3503 127.067 66.6817C130.306 67.2061 133.547 67.8262 136.801 68.2547C139.503 68.6103 142.291 68.5861 145.008 68.7273C159.429 69.4781 173.846 70.2304 188.264 70.9812C190.877 71.1164 193.49 71.2532 196.102 71.3901C197.274 71.4508 198.582 71.6895 199.756 71.5801C201.405 71.4264 203.061 69.5313 204.304 68.5753C207.174 66.3687 210.043 64.1618 212.913 61.9554C213.521 61.4886 214.126 61.0218 214.733 60.5552C216.479 59.2134 214.697 56.2465 212.929 57.6055C210.988 59.0987 209.047 60.592 207.104 62.0852C204.599 64.0115 201.679 65.7957 199.412 68.0009C199.119 68.2851 198.958 68.2624 199.03 68.2411C199.066 68.2289 199.169 68.2168 199.353 68.2501C200.276 68.4218 200.144 68.3262 199.903 68.2289C199.737 68.1619 199.522 68.0951 199.567 68.1165C199.341 68.0086 198.937 68.0222 198.587 68.0359C198.423 68.0435 198.272 68.0495 198.158 68.0435C196.067 67.9356 193.977 67.8262 191.887 67.7168C177.566 66.9705 163.246 66.2242 148.925 65.4781C145.103 65.279 141.277 65.1043 137.456 64.8808C137.317 64.8732 137.396 64.8884 137.505 64.902C137.678 64.9264 137.927 64.9491 137.532 64.8838C137.119 64.8155 136.706 64.75 136.292 64.6847C134.54 64.4006 132.788 64.1179 131.035 63.8351C117.29 61.6135 103.541 59.3921 89.7948 57.1708C82.9632 56.0669 76.1316 54.9629 69.3001 53.859C66.876 53.4675 64.4518 53.0756 62.0277 52.6841C60.7311 52.4745 59.3053 52.0526 57.9892 52.0314C57.8152 52.0288 57.6302 51.9736 57.4573 51.9456C57.8677 52.3398 58.278 52.7341 58.6886 53.1285C57.9216 49.7453 57.5634 46.2838 57.2239 42.8358C56.8645 39.1872 56.2496 35.4242 56.1677 31.7623C56.1198 29.6206 57.3117 28.5912 59.3469 28.2994C61.6019 27.9762 63.8704 27.7258 66.132 27.4523C70.6576 26.9069 75.1874 26.3964 79.7212 25.9222C97.8569 24.0275 116.05 22.7179 134.27 21.9736C135.263 21.9322 135.904 21.1613 135.964 20.2098C136.068 18.5703 135.747 16.0738 137.37 15.0891C138.043 14.6797 138.696 14.7294 139.42 14.7444C141.227 14.7825 143.034 14.8786 144.841 14.9449C152.218 15.2168 159.594 15.4887 166.971 15.7605C180.805 16.2711 194.637 16.7618 208.469 17.2922C209.229 17.3204 210 17.3237 210.75 17.4613C211.802 17.652 212.803 17.9023 213.016 19.1157C213.17 19.9926 212.868 21.0503 212.774 21.9189C212.498 24.4469 212.339 26.9848 212.273 29.5278C212.014 39.3778 213.017 49.2127 212.719 59.0637C212.651 61.2892 216.107 61.2144 216.175 58.9951Z" fill="#11493E"/>
<path d="M207.935 60.2085C212.61 60.1154 216.435 63.9044 216.365 68.5807C216.116 85.4246 217.413 104.533 216.513 120.424C216.249 125.089 215.79 130.207 212.479 133.501C209.119 136.842 203.912 137.234 199.18 137.429C167.041 138.748 134.904 140.068 102.766 141.389C92.8828 141.795 82.9598 142.201 73.1211 141.188C70.8913 140.959 68.5117 140.585 66.8745 139.055C65.0371 137.337 64.6139 134.628 64.2959 132.132C61.7501 112.165 59.1562 75.6418 56.6104 55.6735L63.2484 47.9958L156.727 43.8737L160.088 61.1602L207.935 60.2085Z" fill="#38A98E"/>
<path d="M208.871 72.8069L193.701 73.1077C191.915 73.1442 190.438 71.7248 190.403 69.939L190.385 69.0394C190.35 67.2551 191.768 65.7779 193.553 65.7429L208.723 65.4404C210.51 65.4055 211.987 66.8235 212.021 68.6092L212.041 69.5089C212.075 71.2946 210.656 72.7704 208.871 72.8069Z" fill="#11493E"/>
<path d="M140.162 127.64C114.614 129.053 88.9472 132.479 63.7197 127.32C63.9123 129 64.1045 130.626 64.2964 132.132C64.6146 134.628 65.0375 137.337 66.8751 139.055C68.5124 140.585 70.8919 140.959 73.1215 141.188C82.9605 142.201 92.8835 141.795 102.766 141.389C134.905 140.068 167.043 138.748 199.181 137.429C203.915 137.234 209.12 136.842 212.479 133.501C213.551 132.436 214.3 131.167 214.864 129.796C189.953 129.211 165.106 126.258 140.162 127.64Z" fill="#347474"/>
<path d="M208.066 61.935C210.163 61.9685 212.112 62.8288 213.385 64.5385C214.863 66.5251 214.624 68.8441 214.61 71.1785C214.579 76.4112 214.671 81.6421 214.783 86.8717C215.002 97.3416 215.355 107.832 214.893 118.301C214.706 122.529 214.768 127.628 212.17 131.216C209.374 135.078 204.159 135.464 199.794 135.672C188.391 136.216 176.979 136.611 165.573 137.079C142.367 138.034 119.162 139.151 95.9494 139.923C90.302 140.111 84.6445 140.199 78.9989 139.909C76.32 139.771 73.4727 139.739 70.8568 139.104C68.1391 138.444 66.9324 136.797 66.3549 134.163C65.5838 130.646 65.3918 126.919 65.0074 123.343C64.5806 119.377 64.1874 115.406 63.8066 111.433C62.0245 92.837 60.687 74.1755 58.3386 55.6396C58.178 56.0502 58.0174 56.461 57.8567 56.8715C60.0694 54.3127 62.282 51.7535 64.4947 49.1945C64.0906 49.3713 63.6867 49.5481 63.2826 49.7248C76.1282 49.1584 88.9739 48.5918 101.82 48.0251C117.55 47.3314 133.279 46.6383 149.009 45.9443C152.32 45.7971 155.366 46.5898 156.239 50.385C157.095 54.1072 157.702 57.9036 158.43 61.6534C158.573 62.3881 159.418 62.9034 160.122 62.8882C174.097 62.6115 188.074 62.3334 202.047 62.0548C204.054 62.0148 206.061 61.975 208.066 61.935C210.289 61.8909 210.224 58.4344 207.996 58.4788C194.023 58.7567 180.046 59.0348 166.071 59.3126C164.066 59.3528 162.059 59.3926 160.054 59.4326C160.617 59.8443 161.181 60.2562 161.744 60.6682C160.982 56.7443 160.508 52.6322 159.41 48.7886C158.114 44.2501 153.924 42.2682 149.531 42.4606C141.996 42.7934 134.462 43.1262 126.927 43.459C106.618 44.3538 86.3077 45.2502 65.9977 46.1467C64.1863 46.2253 62.701 45.9911 61.4286 47.4622C59.7528 49.4004 58.0771 51.3386 56.4012 53.2768C55.9595 53.7877 55.2681 54.3931 55.0177 55.0395C54.5105 56.3492 55.2612 58.7783 55.42 60.1542C57.4383 77.6512 58.7769 95.2214 60.4704 112.75C60.8673 116.857 61.2789 120.964 61.7306 125.064C62.1375 128.755 62.2245 132.827 63.3582 136.379C64.8363 141.008 68.6651 142.446 73.1553 142.917C79.0551 143.535 85.0025 143.62 90.9292 143.514C114.973 143.084 139.033 141.629 163.059 140.642C175.111 140.146 187.164 139.686 199.216 139.157C203.512 138.967 208.233 138.683 211.908 136.185C215.567 133.701 217.194 129.608 217.791 125.368C219.205 115.339 218.614 104.866 218.41 94.7747C218.296 89.2138 218.151 83.6544 218.089 78.092C218.061 75.5099 218.049 72.9279 218.072 70.3473C218.091 68.1816 218.097 66.1983 217.163 64.1952C215.48 60.5887 211.911 58.5413 207.996 58.4788C205.772 58.4435 205.843 61.8997 208.066 61.935Z" fill="#11493E"/>
<path d="M67.9938 92.4064C68.299 97.5265 68.8435 102.628 69.6259 107.697C69.8267 108.998 70.7136 110.268 72.2015 110.173C73.4179 110.094 74.8924 108.996 74.6765 107.597C73.8942 102.528 73.3497 97.4262 73.0444 92.3061C72.9658 90.9884 71.8688 89.7407 70.4688 89.8303C69.1467 89.917 67.9095 90.9945 67.9938 92.4064Z" fill="white"/>
<path d="M70.3266 116.079C70.3291 116.206 70.3316 116.334 70.3342 116.462C70.3279 116.81 70.407 117.132 70.5711 117.43C70.679 117.741 70.8585 118.009 71.1094 118.232C71.343 118.474 71.6173 118.643 71.9325 118.738C72.2366 118.89 72.5623 118.956 72.9097 118.936C73.1328 118.903 73.3561 118.868 73.5792 118.833C74.0046 118.705 74.3718 118.48 74.6807 118.161C74.8089 117.988 74.9371 117.816 75.0654 117.643C75.2859 117.244 75.3925 116.817 75.3847 116.362C75.3823 116.234 75.3797 116.106 75.3773 115.979C75.3833 115.63 75.3045 115.308 75.1403 115.01C75.0323 114.699 74.8528 114.431 74.602 114.208C74.3684 113.966 74.0939 113.798 73.7789 113.702C73.4748 113.55 73.1491 113.483 72.8017 113.503C72.5784 113.538 72.3553 113.573 72.1322 113.608C71.7067 113.735 71.3396 113.959 71.0307 114.279C70.9024 114.451 70.7741 114.624 70.646 114.798C70.4255 115.196 70.319 115.623 70.3266 116.079Z" fill="white"/>
<path d="M124.266 18.9805C130.476 9.62924 141.484 3.42243 153.341 1.9528C154.878 1.76283 156.387 1.67013 157.861 1.67013C168.167 1.67013 176.895 6.15652 183.212 12.9074C170.484 12.4393 157.756 11.9697 145.028 11.5001C143.037 11.4271 141.034 11.2782 139.041 11.2782C139.026 11.2782 139.013 11.2782 138.997 11.2782C136.968 11.2797 135.117 12.032 133.885 13.6946C132.835 15.1111 132.664 16.8573 132.585 18.5853C129.812 18.7039 127.038 18.8361 124.266 18.9805Z" fill="#FEF5DA"/>
<path d="M119.986 28.5547C120.521 26.4559 121.272 24.4513 122.208 22.55C126.228 22.3312 130.248 22.1397 134.269 21.974C135.262 21.933 135.903 21.164 135.964 20.2111C136.067 18.5727 135.746 16.0742 137.37 15.0909C137.868 14.787 138.356 14.7368 138.868 14.7368C139.049 14.7368 139.231 14.7429 139.42 14.7459C141.227 14.7839 143.034 14.8797 144.841 14.9465C152.216 15.2186 159.593 15.4906 166.97 15.7627C173.369 15.9982 179.767 16.2307 186.167 16.4633C187.731 18.5864 189.088 20.8631 190.219 23.243C190.76 24.3814 191.244 25.5485 191.672 26.737L119.986 28.5547Z" fill="#347474"/>
<path d="M119.026 36.8037C118.995 34.8401 119.143 32.9343 119.45 31.0939L192.476 29.2413C193.004 31.0984 193.393 32.9967 193.64 34.9116L119.026 36.8037Z" fill="#F7F9FA"/>
<path d="M119.45 31.0938C119.594 30.2336 119.773 29.3855 119.986 28.5542L191.671 26.7365C191.968 27.5618 192.237 28.3976 192.475 29.2411L119.45 31.0938Z" fill="#347474"/>
<path d="M161.509 59.4043C160.873 55.8689 160.391 52.2211 159.41 48.7891C158.928 47.1004 158.045 45.7644 156.9 44.7643L156.727 43.8736L155.743 43.9177C154.119 42.9252 152.152 42.4494 150.114 42.4494C149.921 42.4494 149.726 42.454 149.53 42.4616C141.997 42.7944 134.461 43.1273 126.929 43.4587C124.556 43.5635 122.183 43.6684 119.812 43.7733C119.566 42.5406 119.37 41.2836 119.229 40.0023C119.203 39.7758 119.18 39.5524 119.16 39.3275L193.88 37.4321C194.345 44.8859 192.631 52.4612 188.43 58.8678C180.977 59.0167 173.524 59.1657 166.071 59.3131C164.55 59.3435 163.03 59.3739 161.509 59.4043Z" fill="white"/>
<path d="M119.161 39.3262C119.084 38.4751 119.04 37.6347 119.026 36.8033L193.64 34.9112C193.748 35.7486 193.828 36.589 193.881 37.431L119.161 39.3262Z" fill="#347474"/>
<path d="M122.208 22.5498C122.818 21.3157 123.506 20.1242 124.266 18.9798C127.038 18.8355 129.812 18.7032 132.586 18.5847C132.665 16.8567 132.835 15.1105 133.885 13.694C135.118 12.0314 136.969 11.2791 138.998 11.2776C139.013 11.2776 139.026 11.2776 139.042 11.2776C141.034 11.2776 143.037 11.4265 145.028 11.4995C157.756 11.9691 170.484 12.4387 183.213 12.9068C184.266 14.0329 185.251 15.2214 186.167 16.4631C179.767 16.2305 173.369 15.998 166.971 15.7625C159.594 15.4904 152.217 15.2184 144.841 14.9463C143.034 14.8795 141.227 14.7837 139.42 14.7457C139.232 14.7427 139.049 14.7366 138.868 14.7366C138.356 14.7366 137.868 14.7868 137.37 15.0907C135.747 16.074 136.067 18.5725 135.964 20.2109C135.903 21.1638 135.262 21.9328 134.27 21.9738C130.248 22.1395 126.228 22.331 122.208 22.5498Z" fill="#C89196"/>
<path d="M156.736 74.9941C140.002 74.9941 125.468 63.9332 120.646 47.1943C130.101 46.7763 139.555 46.3599 149.01 45.9435C149.248 45.9328 149.487 45.9268 149.723 45.9268C152.75 45.9268 155.429 46.8629 156.239 50.3843C157.097 54.1062 157.703 57.9027 158.431 61.652C158.572 62.3769 159.396 62.8891 160.095 62.8891C160.104 62.8891 160.113 62.8891 160.122 62.8875C168.673 62.7189 177.221 62.5486 185.77 62.3784C182.719 65.88 178.772 68.8877 173.87 71.1309C168.1 73.7722 162.296 74.9941 156.736 74.9941ZM156.9 44.7626C156.539 44.448 156.153 44.1653 155.744 43.9161L156.727 43.8735L156.9 44.7626Z" fill="#347474"/>
<path d="M160.095 62.8896C159.396 62.8896 158.572 62.3775 158.431 61.6526C157.703 57.9032 157.096 54.1068 156.239 50.3849C155.429 46.8635 152.75 45.9273 149.722 45.9273C149.487 45.9273 149.248 45.9334 149.01 45.9441C139.555 46.3605 130.1 46.7769 120.646 47.1948C120.325 46.0793 120.046 44.9364 119.813 43.7723C122.184 43.6674 124.556 43.5626 126.929 43.4577C134.462 43.1264 141.997 42.7936 149.531 42.4607C149.727 42.4531 149.921 42.4485 150.114 42.4485C152.152 42.4485 154.119 42.9258 155.744 43.9167C156.153 44.1659 156.539 44.4486 156.9 44.7632C158.045 45.7647 158.929 47.0991 159.411 48.7891C160.393 52.2208 160.875 55.8683 161.51 59.4033C163.031 59.3729 164.551 59.3425 166.072 59.3121C173.525 59.1647 180.978 59.0157 188.431 58.8683C187.635 60.0841 186.749 61.2559 185.77 62.379C177.221 62.5492 168.673 62.7194 160.122 62.8881C160.113 62.8897 160.104 62.8896 160.095 62.8896Z" fill="#347474"/>
<path d="M122.436 52.9494C120.596 54.2944 118.951 55.9069 117.57 57.72C117.119 58.3112 116.682 58.9556 116.576 59.6927C116.394 60.9709 117.231 62.1517 118.052 63.1472C119.591 65.0104 121.239 66.784 122.985 68.4543C123.81 69.2446 124.807 70.0652 125.944 69.9513C126.699 69.8753 127.345 69.3935 127.923 68.9011C129.515 67.5424 130.792 67.2324 131.941 65.4831" fill="white"/>
<path d="M118.435 56.7359C116.769 52.2389 110.287 57.3849 108.307 58.9852C103.978 62.4868 98.5013 65.8379 98.6683 71.7377C98.8461 78.0524 104.588 85.1453 111.187 85.3155C117.433 85.4766 129.476 75.3153 127.754 71.0417" fill="white"/>
<path d="M147.694 25.3008C144.543 26.1838 141.871 28.62 140.701 31.6748L147.694 25.3008Z" fill="white"/>
<path d="M160.114 60.7511C149.797 62.8638 139.458 56.9867 134.42 48.0957C131.98 43.786 130.691 38.3842 131.439 33.4483C132.13 28.8763 134.388 24.7532 137.533 21.4122C143.83 14.7255 153.839 11.0698 162.751 14.2782C162.922 14.3399 163.075 14.4186 163.217 14.5003C173.977 17.2552 181.542 27.6007 181.263 38.8115C180.977 50.3971 170.794 58.5646 160.114 60.7511ZM190.218 23.2431C183.894 9.93301 170.468 -0.168762 153.341 1.9537C134.013 4.34765 116.938 19.336 119.228 40.0008C122.193 66.7363 148.352 82.8095 173.87 71.1314C194.073 61.8861 198.022 39.666 190.218 23.2431Z" fill="#DEDEDE"/>
<path d="M191.241 25.6222C191.9 28.1738 192.264 30.8025 192.148 33.5497C191.771 42.4397 188.351 53.7134 182.382 60.0733C175.762 67.1254 166.92 71.2166 157.251 71.6983C148.622 72.13 138.692 67.8517 130.787 64.3684C141.413 74.8108 157.765 78.5023 173.869 71.1315C193.115 62.3259 197.603 41.7513 191.241 25.6222Z" fill="#949494"/>
<path d="M175.849 54.9533C183.077 47.6127 184.226 37.0669 180.484 28.4376C178.37 23.5636 174.695 19.3007 169.674 16.5711C167.09 15.1684 164.309 14.3036 161.473 13.8811C161.9 14.0042 162.327 14.1258 162.751 14.2778C162.923 14.3401 163.075 14.4176 163.218 14.4996C173.978 17.255 181.542 27.6002 181.264 38.8116C180.978 50.3969 170.794 58.5643 160.115 60.7512C153.096 62.1874 146.073 59.923 140.711 55.5323C144.493 58.8561 149.16 61.1677 154.13 61.9549C161.934 63.192 170.306 60.5826 175.849 54.9533Z" fill="#C0B2B7"/>
<path d="M122.436 52.9494C120.596 54.2944 118.951 55.9069 117.57 57.72C117.119 58.3112 116.682 58.9556 116.576 59.6927C116.394 60.9709 117.231 62.1517 118.052 63.1472C119.591 65.0104 121.239 66.784 122.985 68.4543C123.81 69.2446 124.807 70.0652 125.944 69.9513C126.699 69.8753 127.345 69.3935 127.923 68.9011C129.515 67.5424 130.792 67.2324 131.941 65.4831" fill="white"/>
<path d="M111.187 85.3156C115.533 85.4281 120.079 82.0238 123.12 79.2593C124.65 77.8687 126.315 76.2319 127.213 74.3352C128.939 70.6938 126.424 71.4111 124.138 69.8898C123.644 69.56 123.263 69.0919 122.888 68.6299C121.6 67.0448 120.313 65.4581 119.026 63.8715C118.137 62.7772 117.219 61.6207 116.959 60.2346C116.585 58.2453 118.979 57.1966 117.775 55.6343C117.041 54.6829 115.603 54.92 114.617 55.154C112.284 55.7057 110.13 57.5112 108.307 58.9869C103.978 62.487 98.5013 65.8381 98.6683 71.7379C98.8461 78.0526 104.588 85.1454 111.187 85.3156Z" fill="#9BDDCF"/>
<path d="M105.514 63.1267C108.997 60.0978 112.844 57.5628 116.669 54.9974C115.993 54.8697 115.22 55.011 114.617 55.1539C112.284 55.7056 110.131 57.5111 108.307 58.9868C104.196 62.3106 99.0591 65.5052 98.6943 70.873C100.412 67.8836 103.014 65.3 105.514 63.1267Z" fill="#6FCEB6"/>
<path d="M123.12 79.2593C124.651 77.8687 126.315 76.2319 127.213 74.3352C128.69 71.2166 127.058 71.2926 125.125 70.4233C121.787 73.9279 118.309 77.3611 114.199 79.9538C111.596 81.5952 108.836 82.8384 105.948 83.6803C107.561 84.6515 109.334 85.2685 111.187 85.3156C115.534 85.4281 120.079 82.0238 123.12 79.2593Z" fill="#6FCEB6"/>
<path d="M147.694 25.3008C144.543 26.1838 141.871 28.62 140.701 31.6748L147.694 25.3008Z" fill="#C0B2B7"/>
<path d="M188.744 24.1442C194.389 36.2357 193.286 51.4592 184.169 61.5805C174.256 72.5855 156.906 76.2681 143.284 70.6312C129.862 65.0747 121.028 51.3199 120.757 36.8794C120.471 21.6962 131.939 9.7641 145.819 5.3617C154.18 2.70943 163.33 2.58101 171.379 6.35515C179.146 9.99622 185.041 16.4892 188.744 24.1442C189.713 26.145 192.656 24.3315 191.695 22.3399C188.099 14.9062 182.417 8.44106 175.161 4.40851C167.607 0.208824 158.967 -0.857353 150.517 0.646736C135.051 3.39803 120.325 14.7236 117.741 30.8817C115.217 46.6637 123.544 63.4744 137.25 71.4807C151.371 79.7301 170.152 77.8987 182.793 67.6265C196.271 56.6786 198.824 37.6129 191.695 22.3399C190.756 20.3283 187.811 22.1434 188.744 24.1442Z" fill="#11493E"/>
<path d="M178.826 28.9301C182.634 38.0123 180.834 48.6478 173.118 55.1357C165.24 61.7589 153.771 62.1085 145.174 56.733C136.797 51.4958 131.353 40.9577 134.163 31.1155C136.621 22.509 145.533 16.6776 154.065 15.5241C164.671 14.0909 174.623 19.5667 179.009 29.3389C179.918 31.3633 182.86 29.5441 181.959 27.5349C177.497 17.5925 167.427 11.4754 156.568 11.8568C146.656 12.2049 136.364 17.8478 132.035 27.0303C127.069 37.5655 131.59 50.3454 140.273 57.4397C149.162 64.7028 161.627 66.1101 171.679 60.3258C182.971 53.8272 187.1 39.7798 182.141 27.9453C181.292 25.9164 177.965 26.8738 178.826 28.9301Z" fill="#11493E"/>
<path d="M121.535 51.4745C120.22 52.4486 118.976 53.511 117.857 54.7055C116.868 55.7663 115.773 56.9654 115.204 58.315C113.799 61.6372 116.878 64.5385 118.922 66.7726C119.959 67.9064 121.023 69.0508 122.179 70.0645C123.429 71.1587 125.005 72.0204 126.714 71.5614C128.12 71.1845 129.143 70.066 130.319 69.2757C131.563 68.4398 132.596 67.5705 133.452 66.3273C133.98 65.5568 133.546 64.4002 132.784 63.9747C131.904 63.4838 130.962 63.8698 130.432 64.6419C129.93 65.3714 129.237 65.841 128.515 66.3258C128.081 66.6176 127.657 66.9155 127.246 67.2392C126.871 67.5355 126.455 67.993 125.999 68.1678C125.236 68.458 124.439 67.458 123.954 66.9899C123.047 66.1145 122.169 65.2103 121.318 64.2801C120.523 63.4124 119.699 62.5339 119.008 61.581C118.425 60.7801 118.047 60.1494 118.594 59.2527C119.74 57.3758 121.588 55.7222 123.339 54.4243C124.087 53.8696 124.429 52.8939 123.912 52.0474C123.457 51.3058 122.289 50.9167 121.535 51.4745Z" fill="#11493E"/>
<path d="M120.093 56.2437C117.651 50.3667 111.117 54.5628 107.796 57.1981C103.156 60.879 97.0454 64.7286 96.9372 71.3549C96.8366 77.5222 101.307 83.8399 106.957 86.1302C112.164 88.2412 117.196 85.9296 121.453 82.8232C123.81 81.1028 126.017 79.1179 127.728 76.744C128.964 75.0282 130.184 72.709 129.411 70.5494C128.664 68.4658 125.344 69.4324 126.096 71.5357C126.243 71.9446 126.257 72.0069 126.075 72.6148C125.862 73.3276 125.455 73.9856 125.035 74.5981C123.927 76.2136 122.45 77.621 120.948 78.8672C118.301 81.0648 114.412 83.8627 110.766 83.5694C105.886 83.1773 101.95 78.5313 100.751 74.0571C99.3158 68.7013 103.112 65.2317 106.98 62.2119C108.052 61.3745 115.699 54.6342 116.778 57.2285C117.622 59.2589 120.948 58.3014 120.093 56.2437Z" fill="#11493E"/>
<path d="M147.2 23.6423C145.332 24.1773 143.64 25.1697 142.209 26.4752C140.765 27.7913 139.73 29.4388 139.026 31.2473C138.874 31.6364 139.02 32.2382 139.227 32.5756C139.444 32.9297 139.862 33.2641 140.275 33.3492C140.719 33.4419 141.216 33.41 141.604 33.1486C142.002 32.8811 142.204 32.5437 142.377 32.0999C142.174 32.6227 142.444 31.9571 142.5 31.837C142.575 31.6789 142.654 31.5224 142.736 31.3674C142.918 31.0269 143.121 30.6956 143.339 30.378C143.399 30.2914 143.462 30.2078 143.522 30.1196C143.245 30.53 143.449 30.2215 143.514 30.1394C143.624 30.0026 143.736 29.8673 143.852 29.7351C144.119 29.4312 144.402 29.1424 144.701 28.8704C144.844 28.7412 144.999 28.6227 145.14 28.4904C145.029 28.5953 144.876 28.6986 145.086 28.5391C145.169 28.4752 145.253 28.4129 145.339 28.3521C145.652 28.1257 145.979 27.9175 146.315 27.7275C146.484 27.6317 146.654 27.5406 146.827 27.4554C146.915 27.4114 147.039 27.381 147.113 27.3202C147.01 27.4038 146.78 27.4631 147.042 27.3551C147.414 27.2001 147.797 27.0694 148.186 26.957C149.055 26.7092 149.653 25.6849 149.35 24.808C149.042 23.9159 148.131 23.3764 147.2 23.6423Z" fill="white"/>
<path d="M138.874 39.8872C141.099 39.8432 141.034 36.3872 138.806 36.4313C136.582 36.4753 136.648 39.9328 138.874 39.8872Z" fill="white"/>
</svg>
