<svg width="23" height="23" viewBox="0 0 23 23" fill="none" xmlns="http://www.w3.org/2000/svg">
<rect width="23" height="23" rx="4" fill="#E9F1F1"/>
<g clip-path="url(#clip0_1889_7131)">
<path d="M16.969 6.03006C16.9656 6.02673 16.9622 6.0234 16.9588 6.02013C15.7134 4.78407 13.7284 4.65653 12.3361 5.7242C12.1968 5.83075 12.0845 5.92764 11.9828 6.02906C11.9799 6.032 11.977 6.03493 11.9741 6.03793L9.74599 8.26636C9.55081 8.46154 9.55081 8.778 9.74605 8.97311C9.9413 9.16836 10.2578 9.1683 10.4528 8.97305L12.6892 6.73629C12.6916 6.73396 12.6938 6.73162 12.6962 6.72929C12.7643 6.66199 12.8431 6.59468 12.9437 6.51778C13.9438 5.75092 15.3701 5.84488 16.2615 6.73642C16.2645 6.73935 16.2675 6.74229 16.2705 6.74515C17.2468 7.73046 17.2441 9.32683 16.2622 10.3091L14.0259 12.5457C13.8307 12.7409 13.8307 13.0573 14.026 13.2525C14.1236 13.35 14.2515 13.3988 14.3794 13.3988C14.5072 13.3988 14.6352 13.35 14.7328 13.2524L16.9692 11.0158C18.3434 9.64102 18.3434 7.4044 16.969 6.03006Z" fill="#347474"/>
<path d="M12.5454 14.0256L10.3103 16.2608C10.3059 16.2652 10.3015 16.2698 10.2973 16.2744C10.0502 16.5175 9.76022 16.7042 9.43463 16.8297C8.50204 17.1908 7.44297 16.9677 6.73708 16.2617C5.75297 15.2765 5.75297 13.6735 6.73708 12.6887L8.97323 10.4534C9.06693 10.3596 9.11964 10.2325 9.11964 10.0999V10.099C9.11964 9.82291 8.89593 9.59961 8.61985 9.59961C8.47758 9.59961 8.34917 9.65925 8.25815 9.75474L6.03012 11.9819C4.65672 13.3565 4.65658 15.5933 6.02998 16.9683C6.70269 17.6411 7.6045 17.9997 8.52296 17.9997C8.95038 17.9997 9.38152 17.922 9.79467 17.7621C10.2559 17.5844 10.6668 17.3176 11.0159 16.9694C11.0209 16.9644 11.0259 16.9592 11.0307 16.9539L13.2522 14.7324C13.4474 14.5372 13.4474 14.2208 13.2522 14.0256C13.0571 13.8305 12.7407 13.8305 12.5454 14.0256Z" fill="#347474"/>
<path d="M8.94129 14.0568C9.03892 14.1545 9.16679 14.2032 9.29474 14.2032C9.42262 14.2032 9.55056 14.1545 9.64812 14.0569L14.0571 9.6481C14.2524 9.45292 14.2524 9.13646 14.0572 8.94134C13.862 8.74609 13.5456 8.74616 13.3504 8.94127L8.94142 13.3501C8.74611 13.5452 8.74611 13.8617 8.94129 14.0568Z" fill="#347474"/>
</g>
<defs>
<clipPath id="clip0_1889_7131">
<rect width="13" height="13" fill="white" transform="translate(5 5)"/>
</clipPath>
</defs>
</svg>
