<svg width="16" height="16" viewBox="0 0 16 16" fill="none" xmlns="http://www.w3.org/2000/svg">
<path d="M0 8C0 8.57881 0.467665 9.04171 1.04138 9.04171H6.96116V14.9585C6.96116 15.5373 7.42883 16 8.00237 16C8.58099 16 9.04374 15.5322 9.04374 14.9585V9.04171H14.9586C15.5372 9.04171 16 8.5739 16 8C16 7.42646 15.5323 6.95864 14.9586 6.95864H9.04357V1.04153C9.04357 0.462904 8.5759 0 8.00219 0C7.42374 0 6.96099 0.467638 6.96099 1.04153V6.95373H1.04611C0.467665 6.95373 0 7.42119 0 8Z" fill="white"/>
</svg>
