<svg width="14" height="14" viewBox="0 0 14 14" fill="none" xmlns="http://www.w3.org/2000/svg">
<rect x="1.07285" y="0.549902" width="12.7769" height="13.3" rx="6.38846" fill="url(#paint0_linear_1717_5017)"/>
<path d="M8.53603 9.25702C8.45296 9.16743 5.66308 6.15842 5.55398 6.04074C5.47162 5.95191 5.33816 5.95191 5.2558 6.04074C5.17343 6.12949 5.17343 6.27356 5.2558 6.36234L5.45999 6.58257L4.20442 10.4223C4.17737 10.5049 4.19673 10.5969 4.25419 10.6588C4.31196 10.7211 4.39741 10.7414 4.47344 10.7125L8.03359 9.3583L8.23786 9.57862C8.32022 9.66745 8.45367 9.66746 8.53604 9.57862C8.61839 9.48985 8.61839 9.34578 8.53603 9.25702ZM5.93931 9.67259L5.16859 8.84144L5.40187 8.1281L6.60072 9.42101L5.93931 9.67259Z" fill="white"/>
<path d="M9.03003 5.50774C8.95044 5.4219 8.82148 5.4219 8.74189 5.50774L7.46985 6.8796C7.39026 6.96536 7.39026 7.10452 7.46985 7.19036C7.54944 7.27619 7.67838 7.27621 7.75798 7.19036L9.03003 5.8185C9.10962 5.73274 9.10962 5.59357 9.03003 5.50774Z" fill="white"/>
<path d="M8.8182 7.52832H8.1061C7.99361 7.52832 7.90234 7.62669 7.90234 7.74807C7.90234 7.86947 7.99361 7.96783 8.1061 7.96783H8.8182C8.93069 7.96783 9.02196 7.86946 9.02196 7.74807C9.02196 7.62667 8.93069 7.52832 8.8182 7.52832Z" fill="white"/>
<path d="M6.95278 5.51709C6.84029 5.51709 6.74902 5.61544 6.74902 5.73684V6.50494C6.74902 6.62634 6.84029 6.72469 6.95278 6.72469C7.06527 6.72469 7.15653 6.62632 7.15653 6.50494V5.73684C7.15653 5.61546 7.06527 5.51709 6.95278 5.51709Z" fill="white"/>
<path d="M10.403 7.28161C10.1644 7.02407 9.77753 7.02389 9.53863 7.28153C9.2998 7.53894 9.29945 7.95628 9.53863 8.21394C9.77729 8.47149 10.1642 8.47167 10.403 8.21394C10.6418 7.95653 10.6422 7.53925 10.403 7.28161ZM10.1149 7.9031C10.1149 7.90318 10.1149 7.90318 10.1149 7.90318C9.99323 8.03441 9.76709 7.9488 9.76709 7.74774C9.76709 7.62726 9.85737 7.52805 9.97085 7.52805C10.1529 7.52804 10.2421 7.76591 10.1149 7.9031Z" fill="white"/>
<path d="M7.38599 4.02716C7.14775 3.77022 6.75985 3.77022 6.52135 4.02731C6.28323 4.28433 6.28323 4.70254 6.52148 4.95957C6.75968 5.21665 7.14776 5.21658 7.38599 4.95965V4.95957C7.62485 4.70227 7.6251 4.28504 7.38599 4.02716ZM7.09787 4.64876V4.64884C7.0184 4.73447 6.88932 4.7346 6.8096 4.64884C6.73027 4.56313 6.73027 4.42371 6.8096 4.33808C6.88909 4.25248 7.01804 4.2522 7.09787 4.338C7.17768 4.42423 7.17738 4.563 7.09787 4.64876Z" fill="white"/>
<path d="M9.5475 6.72418C9.66004 6.72418 9.75126 6.62579 9.75126 6.50442C9.75126 6.38306 9.66004 6.28467 9.5475 6.28467C9.43497 6.28467 9.34375 6.38306 9.34375 6.50442C9.34375 6.62579 9.43497 6.72418 9.5475 6.72418Z" fill="white"/>
<path d="M8.1061 5.17046C8.21863 5.17046 8.30985 5.07208 8.30985 4.95071C8.30985 4.82934 8.21863 4.73096 8.1061 4.73096C7.99357 4.73096 7.90234 4.82934 7.90234 4.95071C7.90234 5.07208 7.99357 5.17046 8.1061 5.17046Z" fill="white"/>
<path d="M9.5475 9.21099C9.66004 9.21099 9.75126 9.1126 9.75126 8.99124C9.75126 8.86987 9.66004 8.77148 9.5475 8.77148C9.43497 8.77148 9.34375 8.86987 9.34375 8.99124C9.34375 9.1126 9.43497 9.21099 9.5475 9.21099Z" fill="white"/>
<path d="M5.80044 5.17046C5.91297 5.17046 6.00419 5.07208 6.00419 4.95071C6.00419 4.82934 5.91297 4.73096 5.80044 4.73096C5.6879 4.73096 5.59668 4.82934 5.59668 4.95071C5.59668 5.07208 5.6879 5.17046 5.80044 5.17046Z" fill="white"/>
<path d="M9.75063 3.85156C9.63814 3.85156 9.54688 3.94993 9.54688 4.07132V4.29107C9.54688 4.41247 9.63814 4.51082 9.75063 4.51082C9.86312 4.51082 9.95438 4.41246 9.95438 4.29107V4.07133C9.95438 3.94993 9.86312 3.85156 9.75063 3.85156Z" fill="white"/>
<path d="M9.75063 4.95117C9.63814 4.95117 9.54688 5.04954 9.54688 5.17093V5.39068C9.54688 5.51208 9.63814 5.61043 9.75063 5.61043C9.86312 5.61043 9.95438 5.51207 9.95438 5.39068V5.17093C9.95438 5.04954 9.86312 4.95117 9.75063 4.95117Z" fill="white"/>
<path d="M9.34208 4.51123H9.13833C9.02584 4.51123 8.93457 4.6096 8.93457 4.73098C8.93457 4.85237 9.02584 4.95074 9.13833 4.95074H9.34208C9.45457 4.95074 9.54584 4.85237 9.54584 4.73098C9.54584 4.6096 9.45457 4.51123 9.34208 4.51123Z" fill="white"/>
<path d="M10.3616 4.51123H10.1579C10.0454 4.51123 9.9541 4.6096 9.9541 4.73098C9.9541 4.85237 10.0454 4.95074 10.1579 4.95074H10.3616C10.4741 4.95074 10.5654 4.85237 10.5654 4.73098C10.5654 4.6096 10.4741 4.51123 10.3616 4.51123Z" fill="white"/>
<rect x="1.07285" y="0.549902" width="12.7769" height="13.3" rx="6.38846" stroke="white" stroke-width="0.3"/>
<defs>
<linearGradient id="paint0_linear_1717_5017" x1="5.00939" y1="3.7999" x2="15.29" y2="16.1564" gradientUnits="userSpaceOnUse">
<stop stop-color="#11493F"/>
<stop offset="1" stop-color="#38A88D"/>
</linearGradient>
</defs>
</svg>
