<svg width="14" height="15" viewBox="0 0 14 15" fill="none" xmlns="http://www.w3.org/2000/svg">
<path fill-rule="evenodd" clip-rule="evenodd" d="M9.52901 0.666687C9.80501 0.666687 10.029 0.890687 10.029 1.16669L10.0293 1.73189C11.0027 1.79863 11.8112 2.13205 12.3833 2.70542C13.008 3.33275 13.3367 4.23475 13.3334 5.31675V11.3988C13.3334 13.6201 11.9227 15.0001 9.65268 15.0001H4.01401C1.74401 15.0001 0.333344 13.6008 0.333344 11.3481V5.31542C0.333344 3.22022 1.59138 1.87531 3.64313 1.73212L3.64354 1.16669C3.64354 0.890687 3.86754 0.666687 4.14354 0.666687C4.41954 0.666687 4.64354 0.890687 4.64354 1.16669L4.64334 1.71935H9.02868L9.02901 1.16669C9.02901 0.890687 9.25301 0.666687 9.52901 0.666687ZM12.3333 6.60269H1.33334V11.3481C1.33334 13.0588 2.28534 14.0001 4.01401 14.0001H9.65268C11.3813 14.0001 12.3334 13.0761 12.3334 11.3988L12.3333 6.60269ZM9.80081 10.7976C10.0768 10.7976 10.3008 11.0216 10.3008 11.2976C10.3008 11.5736 10.0768 11.7976 9.80081 11.7976C9.52481 11.7976 9.29814 11.5736 9.29814 11.2976C9.29814 11.0216 9.51881 10.7976 9.79481 10.7976H9.80081ZM6.84248 10.7976C7.11848 10.7976 7.34248 11.0216 7.34248 11.2976C7.34248 11.5736 7.11848 11.7976 6.84248 11.7976C6.56648 11.7976 6.33981 11.5736 6.33981 11.2976C6.33981 11.0216 6.56048 10.7976 6.83648 10.7976H6.84248ZM3.87794 10.7976C4.15394 10.7976 4.37794 11.0216 4.37794 11.2976C4.37794 11.5736 4.15394 11.7976 3.87794 11.7976C3.60194 11.7976 3.37461 11.5736 3.37461 11.2976C3.37461 11.0216 3.59594 10.7976 3.87194 10.7976H3.87794ZM9.80081 8.20642C10.0768 8.20642 10.3008 8.43042 10.3008 8.70642C10.3008 8.98242 10.0768 9.20642 9.80081 9.20642C9.52481 9.20642 9.29814 8.98242 9.29814 8.70642C9.29814 8.43042 9.51881 8.20642 9.79481 8.20642H9.80081ZM6.84248 8.20642C7.11848 8.20642 7.34248 8.43042 7.34248 8.70642C7.34248 8.98242 7.11848 9.20642 6.84248 9.20642C6.56648 9.20642 6.33981 8.98242 6.33981 8.70642C6.33981 8.43042 6.56048 8.20642 6.83648 8.20642H6.84248ZM3.87794 8.20642C4.15394 8.20642 4.37794 8.43042 4.37794 8.70642C4.37794 8.98242 4.15394 9.20642 3.87794 9.20642C3.60194 9.20642 3.37461 8.98242 3.37461 8.70642C3.37461 8.43042 3.59594 8.20642 3.87194 8.20642H3.87794ZM9.02868 2.71935H4.64334L4.64354 3.36069C4.64354 3.63669 4.41954 3.86069 4.14354 3.86069C3.86754 3.86069 3.64354 3.63669 3.64354 3.36069L3.64319 2.73449C2.1497 2.85995 1.33334 3.76526 1.33334 5.31542V5.60269H12.3333L12.3334 5.31542C12.336 4.49209 12.1147 3.85209 11.6753 3.41209C11.2897 3.02529 10.7259 2.79429 10.0296 2.73481L10.029 3.36069C10.029 3.63669 9.80501 3.86069 9.52901 3.86069C9.25301 3.86069 9.02901 3.63669 9.02901 3.36069L9.02868 2.71935Z" fill="#347474"/>
</svg>
