<svg width="386" height="150" viewBox="0 0 386 150" fill="none" xmlns="http://www.w3.org/2000/svg">
    <path d="M18.6894 112.444C23.0689 118.667 25.0919 127.859 15.1102 141H330.891C339.35 137.362 350.109 131.497 352.344 123.533C355.122 113.707 342.217 110.323 342.184 99.9684C342.145 88.5055 357.868 87.3811 369.845 70.3041C375.592 62.1163 385.634 47.7932 372.668 38.6966C361.392 30.7818 344.613 35.1759 317.341 27.3293C282.327 17.2638 286.957 3.41281 263.708 0.437919C235.036 -3.2302 223.326 17.2365 177.53 21.213L177.33 21.2321L177.174 21.2458L176.235 21.3194C162.313 22.4112 151.097 21.4859 140.966 19.8102L140.454 19.7256L139.676 19.5918C117.228 15.7081 99.8715 8.40189 69.4984 12.0809C39.9422 15.6672 9.73584 28.249 7.39603 41.4695C5.40082 52.7386 25.0974 56.3303 21.5071 68.9177C18.1114 80.85 -1.15179 83.1098 0.0542297 93.5901C0.965698 101.45 12.1257 103.121 18.6894 112.444Z"
          fill="#E9F1F1"/>
    <path d="M191.004 107.039L202.545 135.125H200.317L187.193 106.646L191.004 107.039Z" fill="#004F80"/>
    <path d="M175.094 107.039L186.633 135.125H184.405L171.281 106.646L175.094 107.039Z" fill="#035077"/>
    <path d="M146.482 107.039L134.941 135.125H137.169L150.293 106.646L146.482 107.039Z" fill="#004F80"/>
    <path d="M187.19 106.645L188.092 108.599L190.488 108.847L201.285 135.125H202.545L191.004 107.04L187.19 106.645Z"
          fill="#01496D"/>
    <path d="M135.938 135.125H137.169L150.293 106.645L146.48 107.04L145.795 108.705L148.227 108.452L135.938 135.125Z"
          fill="#01496D"/>
    <path d="M162.392 107.039L150.853 135.125H153.081L166.205 106.646L162.392 107.039Z" fill="#035077"/>
    <path d="M171.278 106.645L171.343 106.784L173.801 107.04L185.342 135.125H186.633L175.092 107.04L171.278 106.645Z"
          fill="#01496D"/>
    <path d="M151.79 135.125H153.081L166.205 106.645L164.85 106.784L151.79 135.125Z" fill="#01496D"/>
    <path d="M246.886 115.893L256.232 135.125H253.997L242.156 115.893H246.886Z" fill="#004F80"/>
    <path d="M241.084 115.893L247.973 135.125H246.325L237.599 115.893H241.084Z" fill="#035077"/>
    <path d="M229.685 115.893L222.794 135.125H224.442L233.171 115.893H229.685Z" fill="#035077"/>
    <path d="M240.31 115.89L247.198 135.125H247.973L241.084 115.89H240.31Z" fill="#01496D"/>
    <path d="M223.667 135.125H224.442L233.171 115.89H232.396L223.667 135.125Z" fill="#01496D"/>
    <path d="M223.83 115.893L214.483 135.125H216.719L228.56 115.893H223.83Z" fill="#004F80"/>
    <path d="M245.853 115.89L255.2 135.125H256.232L246.886 115.89H245.853Z" fill="#01496D"/>
    <path d="M215.684 135.125H216.717L228.558 115.89H227.525L215.684 135.125Z" fill="#01496D"/>
    <path d="M251.554 111.346H220.695V112.42C220.695 113.688 221.199 114.904 222.096 115.801C222.992 116.698 224.209 117.201 225.477 117.201H246.772C248.04 117.201 249.256 116.698 250.153 115.801C251.05 114.904 251.554 113.688 251.554 112.42V111.346Z"
          fill="#F19B51"/>
    <path d="M204.084 96.8766C204.308 98.3586 204.76 101.356 206.219 104.106C207.036 105.724 208.239 107.117 209.722 108.159C212.692 110.178 215.661 109.737 220.486 108.56C223.631 107.785 227.566 106.711 232.802 105.797C235.345 105.353 237.565 105.061 239.515 104.87C250.439 103.804 253.181 105.903 258.892 102.389C265.803 98.1288 268.331 91.5115 272.137 81.5377C273.944 76.787 279.72 60.2114 274.496 44.9499C273.484 41.9859 272.271 39.1639 269.645 36.9461C265.323 33.3031 259.023 32.6654 254.04 34.3229C251.711 35.1114 249.585 36.4077 247.818 38.1183C246.027 39.8723 244.543 41.9146 243.429 44.1599C239.187 52.3392 243.524 56.4599 239.233 65.2719C238.126 67.5439 234.914 74.138 229.004 75.5013C224.442 76.5521 222.642 73.4745 217.463 74.5821C211.881 75.7775 208.581 80.5049 207.497 82.0566C202.981 88.5191 203.854 95.4385 204.084 96.8766Z"
          fill="#80BDAE"/>
    <path d="M204.083 96.8765C204.308 98.3585 204.76 101.356 206.219 104.106C210.499 107.302 215.55 108.464 220.486 108.559C228.265 108.714 235.761 106.223 239.52 104.87L240.452 104.529C244.26 103.138 248.631 101.539 250.766 97.4497C252.117 94.8678 251.683 93.0037 253.653 91.4158C256.516 89.1102 259.968 91.0053 261.783 88.7926C262.625 87.7599 262.444 86.6678 262.22 83.2855C261.652 74.7395 262.429 76.1027 261.783 71.4837C261.127 66.8183 260.691 63.702 259.072 60.8981C258.668 60.2401 258.345 59.5352 258.112 58.799C257.242 56.0106 257.98 53.5345 258.197 52.6799C258.765 50.4544 258.933 46.9017 257.061 41.1415C254.103 39.7938 251.005 38.7798 247.823 38.1182C246.032 39.8722 244.548 41.9145 243.434 44.1598C239.192 52.3391 243.529 56.4598 239.238 65.2718C238.131 67.5438 234.919 74.1379 229.009 75.5011C224.447 76.552 222.647 73.4744 217.468 74.582C211.886 75.7774 208.586 80.5048 207.502 82.0565C202.981 88.519 203.854 95.4384 204.083 96.8765Z"
          fill="#5A9687"/>
    <path d="M216.871 106.489C220.016 105.714 223.951 104.64 229.187 103.726C231.73 103.282 233.95 102.99 235.9 102.799C246.823 101.733 249.565 103.832 255.277 100.318C262.188 96.0579 264.716 89.4406 268.522 79.4668C270.329 74.7162 276.105 58.1405 270.881 42.8791C269.869 39.9151 268.656 37.0931 266.03 34.8752C265.919 34.7823 265.805 34.6919 265.692 34.6016C267.127 35.1627 268.462 35.9526 269.645 36.9407C272.27 39.1534 273.484 41.9754 274.496 44.9446C279.719 60.206 273.951 76.7817 272.136 81.5323C268.33 91.5061 265.803 98.1234 258.891 102.384C253.18 105.903 250.438 103.798 239.514 104.865C237.56 105.056 235.339 105.348 232.801 105.792C227.565 106.706 223.63 107.785 220.486 108.554C215.66 109.732 212.691 110.173 209.722 108.154C209.309 107.872 208.919 107.559 208.555 107.217C210.824 107.811 213.352 107.338 216.871 106.489Z"
          fill="#5A9687"/>
    <path d="M181.333 96.0666V99.782H186.86L186.522 96.0951L186.424 95.0391L185.993 95.1269L181.604 96.0124L181.333 96.0666Z"
          fill="#F5C3C0"/>
    <path d="M175.211 98.5394C175.205 98.7005 175.232 98.861 175.29 99.0115C175.348 99.162 175.436 99.2992 175.548 99.4151C175.66 99.531 175.794 99.6232 175.942 99.6861C176.091 99.749 176.25 99.7813 176.411 99.7812H181.691V96.2854L181.604 96.0117C181.327 95.1519 180.442 92.4152 179.6 90.014C178.898 88.013 178.224 86.247 177.955 85.9914C177.3 85.3692 176.249 85.2711 175.921 85.9914C175.75 86.3684 175.554 90.1018 175.405 93.5899C175.374 94.3232 175.343 95.0487 175.317 95.7277C175.273 96.8302 175.237 97.8164 175.211 98.5394Z"
          fill="#F4C584"/>
    <path d="M175.895 99.265H181.175V95.7692L181.087 95.4955C180.883 94.8578 180.341 93.1718 179.732 91.38L175.627 89.1234L175.658 88.607L179.585 90.923C179.422 90.4479 179.257 89.9677 179.092 89.4978C178.673 88.2161 178.181 86.9593 177.62 85.7334C177.744 85.8064 177.859 85.893 177.963 85.9916C178.221 86.2498 178.906 88.0132 179.608 90.0141C180.45 92.4153 181.335 95.1521 181.611 96.0119L181.699 96.2855V99.7814H176.419C176.199 99.7812 175.984 99.7201 175.796 99.6048C175.609 99.4894 175.457 99.3245 175.358 99.1282C175.524 99.216 175.708 99.2629 175.895 99.265Z"
          fill="#E0B880"/>
    <path opacity="0.25"
          d="M175.316 95.7201C176.47 97.3002 178.437 99.7737 179.462 99.7737C180.115 99.7344 180.752 99.5585 181.332 99.2573C181.45 99.2031 181.572 99.1437 181.691 99.0791C182.683 98.5542 183.6 97.8986 184.417 97.1298C184.652 96.9026 185.233 96.6134 186.005 96.2907C186.17 96.2236 186.341 96.1539 186.521 96.0867C189.026 95.1134 192.94 93.9644 194.378 93.5513L185.987 94.77C185.987 94.8862 185.987 95.0024 185.987 95.1185L181.598 96.0041C181.435 95.4877 181.061 94.3414 180.609 92.9859V92.9988L177.844 91.5039L175.404 93.5823C175.373 94.3233 175.342 95.0488 175.316 95.7201Z"
          fill="black"/>
    <path d="M187.17 90.3112L189.176 94.2125C189.219 94.298 189.289 94.3663 189.376 94.4058C189.463 94.4453 189.561 94.4536 189.654 94.4293L207.792 89.3327C208.815 89.0451 209.912 89.1741 210.841 89.6916L211.969 90.2983L214.236 91.5609C214.307 91.5997 214.387 91.6176 214.468 91.6125L241.926 89.6632H242.001C242.085 89.6601 242.165 89.632 242.232 89.5827C242.299 89.5335 242.35 89.4652 242.377 89.3867C242.405 89.3083 242.409 89.2233 242.388 89.1428C242.367 89.0623 242.322 88.9899 242.26 88.9351C242.213 88.8922 242.156 88.8612 242.094 88.8447L240.406 88.38L236.128 87.2001L234.14 86.6527L210.944 80.2548C209.627 79.8913 208.224 80.0094 206.986 80.5879L203.988 81.9847L187.366 89.7303C187.314 89.7536 187.266 89.7876 187.227 89.8302C187.188 89.8728 187.159 89.923 187.14 89.9776C187.122 90.0322 187.115 90.0901 187.12 90.1476C187.125 90.205 187.142 90.2607 187.17 90.3112Z"
          fill="#004F80"/>
    <path d="M211.968 90.2981L214.344 91.6201L241.926 89.663L240.395 88.3721L211.968 90.2981Z" fill="#01496D"/>
    <path d="M185.987 94.7772C185.987 94.8934 185.987 95.0096 185.987 95.1258C185.987 95.5157 185.987 95.9004 186 96.298C186.026 97.4615 186.039 98.6225 186.039 99.7809C186.039 99.8403 186.039 99.8971 186.039 99.9565L212.397 99.3007C223.799 100.006 232.438 100.708 238.624 101.596C240.24 101.828 244.867 102.528 246.822 100.153C247.668 99.12 248.311 97.1474 248.59 95.8255C248.768 95.0019 248.855 94.1611 248.848 93.3185C248.835 91.7694 248.828 90.8425 248.195 90.1867C247.149 89.11 245.182 89.598 244.932 89.6703L240.408 88.8828L212.147 90.9819L194.378 93.5638L185.987 94.7772Z"
          fill="#004F80"/>
    <path d="M211.378 98.5265C222.779 99.2313 231.418 99.9336 237.604 100.822C239.221 101.054 243.847 101.756 245.802 99.3811C246.649 98.3483 247.292 96.3732 247.573 95.0513C247.744 94.2267 247.826 93.3863 247.818 92.5443C247.805 91.2017 247.798 90.3161 247.374 89.6758C247.684 89.7832 247.964 89.9598 248.195 90.1922C248.828 90.848 248.836 91.7852 248.851 93.324C248.859 94.166 248.777 95.0064 248.606 95.831C248.324 97.1529 247.681 99.128 246.835 100.161C244.88 102.536 240.253 101.834 238.637 101.601C232.441 100.713 223.812 100.011 212.41 99.3062L186.039 99.9568C186.039 99.6986 186.039 99.425 186.039 99.159L211.378 98.5265Z"
          fill="#01496D"/>
    <path d="M203.985 81.9899C204.45 82.3993 204.986 82.7189 205.568 82.9322C207.355 83.5751 208.408 82.5191 210.639 82.3642C213.068 82.1938 213.267 83.3453 217.328 84.4297C221.116 85.4315 221.266 84.5175 224.803 85.5245C228.19 86.4875 228.629 87.4918 231.141 87.7965C232.827 87.9785 234.532 87.7745 236.127 87.2001L234.139 86.6527L210.943 80.2548C209.626 79.8913 208.223 80.0094 206.985 80.5879L203.985 81.9899Z"
          fill="#01496D"/>
    <path d="M223.556 77.1309C223.729 78.3134 223.908 79.4933 224.073 80.6784C224.096 80.8281 224.117 80.9804 224.14 81.1302L237.122 82.8342C240.509 77.4949 243.199 71.7439 245.125 65.7216C245.613 64.1931 246.032 62.7034 246.396 61.2601C246.632 60.3237 246.842 59.4063 247.028 58.5078C245.903 58.5078 244.175 58.7221 242.766 59.8865C241.914 60.6196 241.28 61.5713 240.93 62.6388C239.954 65.2904 237.545 70.0901 233.587 77.3271L223.556 77.1309Z"
          fill="#EE9087"/>
    <path d="M255.749 59.109L256.841 50.3306C258.269 49.3262 259.279 47.8337 259.681 46.1351C260.213 43.6978 259.392 40.7493 257.061 39.1847C254.195 37.2638 250.43 38.3585 248.623 40.2329C247.332 41.5833 247.074 43.3028 246.558 46.6592C246.142 49.4709 245.602 50.8987 246.253 51.335C246.565 51.5467 247.002 51.4589 247.345 51.335C247.14 51.796 246.993 52.2809 246.909 52.7783C246.756 53.6768 246.529 54.9935 247.301 55.7939C248.151 56.6769 249.658 56.3593 249.837 56.3103C249.808 56.7027 249.78 57.0848 249.749 57.4902L248.22 57.6193C247.423 59.4266 247.851 60.2502 248.001 60.4826C248.886 61.8639 252.163 61.8923 256.087 59.9869L255.749 59.109Z"
          fill="#F5C3C0"/>
    <path d="M255.326 59.473L254.975 58.5926L256.067 49.8143C257.495 48.8098 258.505 47.3173 258.907 45.6187C259.411 43.3131 258.701 40.5479 256.646 38.9316C256.785 39.0117 256.925 39.0917 257.061 39.1898C259.385 40.7544 260.214 43.703 259.682 46.1402C259.28 47.8389 258.27 49.3314 256.842 50.3358L255.75 59.1142L256.098 59.9946C252.368 61.8019 249.225 61.8664 248.164 60.6839C249.615 61.2649 252.272 60.955 255.326 59.473Z"
          fill="#EFA097"/>
    <path d="M246.834 44.0285C247.609 44.2867 248.326 43.8865 249.062 43.5689C250.366 43.0225 251.756 42.7121 253.167 42.6524C252.986 43.0653 252.898 43.5131 252.909 43.964C252.94 45.0871 253.627 45.5957 253.927 46.6181C254.089 47.1836 254.185 48.0485 253.728 49.2749C253.934 48.5623 254.386 48.0975 254.843 48.095C255.051 48.1003 255.25 48.1821 255.401 48.3247C255.995 48.8592 255.816 50.1321 255.336 50.9453C254.995 51.5288 254.35 52.1459 254.025 51.9962C253.834 51.9084 253.795 51.5779 253.795 51.3068C253.67 51.4684 253.595 51.6623 253.577 51.8656C253.56 52.0688 253.601 52.2728 253.697 52.4532C253.773 52.5614 253.874 52.6499 253.991 52.7114C254.562 53.1057 255.109 53.5324 255.631 53.9894C255.926 54.2312 256.207 54.4898 256.472 54.7639C256.987 53.4909 257.627 52.2723 258.383 51.1261C259.932 48.7817 260.784 48.5442 261.499 46.6698C261.654 46.2618 262.767 43.352 261.401 41.7849C261.23 41.5914 261.031 41.4252 260.81 41.2917C260.93 41.0274 260.99 40.7402 260.988 40.45C260.967 39.2624 259.798 38.4207 259.367 38.1134C256.441 36.0118 253.415 38.351 249.073 36.3758C247.782 35.7897 246.697 34.9661 245.458 35.3921C244.751 35.6348 243.942 36.3087 243.909 37.1994C243.88 38.1315 244.727 39.0971 246.005 39.3295C245.848 39.3305 245.692 39.3632 245.547 39.4258C245.403 39.4883 245.272 39.5794 245.164 39.6935C244.751 40.1841 244.955 41.0439 245.388 41.3717C246.016 41.8494 247.18 41.2581 247.229 41.3976C247.278 41.537 245.794 41.9139 245.68 42.6885C245.615 43.2075 246.196 43.8245 246.834 44.0285Z"
          fill="#5B1C10"/>
    <path d="M248.38 36.0929C247.536 35.7082 246.774 35.2203 246 35.0602C247.151 34.7788 248.2 35.5456 249.413 36.0929C250.596 36.6302 251.876 36.9209 253.175 36.9475C251.744 36.9888 250.162 36.9088 248.38 36.0929Z"
          fill="#47160C"/>
    <path d="M246.196 41.4053C246.212 41.444 246.124 41.4982 245.985 41.5679C245.855 41.5649 245.727 41.5405 245.605 41.4956C245.925 41.4285 246.173 41.3433 246.196 41.4053Z"
          fill="#2CA8B5"/>
    <path d="M253.717 49.2746C253.856 48.9026 253.954 48.5164 254.009 48.123C254.123 48.1583 254.23 48.2163 254.321 48.2935C254.023 48.5503 253.812 48.893 253.717 49.2746Z"
          fill="#5B1C10"/>
    <path d="M253.803 51.5855C253.733 51.6559 253.66 51.7223 253.583 51.7843C253.62 51.614 253.689 51.4521 253.785 51.3066C253.784 51.3999 253.79 51.4931 253.803 51.5855Z"
          fill="#5B1C10"/>
    <path d="M248.38 43.2675C249.684 42.7219 251.074 42.4125 252.485 42.3535C252.47 42.3845 252.457 42.4206 252.441 42.4568C251.4 42.5895 250.381 42.8622 249.413 43.2675C248.685 43.5825 247.98 43.9801 247.208 43.7348C247.61 43.6075 248.001 43.4514 248.38 43.2675Z"
          fill="#47160C"/>
    <path d="M257.691 50.8434C259.24 48.499 260.092 48.2615 260.807 46.3871C260.962 45.9791 262.075 43.0694 260.709 41.5022C260.538 41.3088 260.338 41.1425 260.118 41.009C260.237 40.7447 260.298 40.4575 260.296 40.1673C260.275 38.9797 259.105 38.138 258.674 37.8307C257.814 37.2228 256.787 36.8938 255.734 36.8884C257.143 36.8419 258.434 36.9168 259.707 37.8307C260.138 38.138 261.308 38.9797 261.328 40.1673C261.331 40.4575 261.27 40.7447 261.15 41.009C261.371 41.1425 261.571 41.3088 261.742 41.5022C263.107 43.0694 262 45.9791 261.84 46.3871C261.124 48.2563 260.272 48.499 258.723 50.8434C257.967 51.9896 257.327 53.2082 256.813 54.4813C256.579 54.2376 256.334 54.0058 256.077 53.7867C256.535 52.7641 257.075 51.7799 257.691 50.8434Z"
          fill="#47160C"/>
    <path d="M204.559 79.5216C204.772 80.2011 205.221 80.7824 205.824 81.1611C206.094 81.3225 206.39 81.4369 206.699 81.4993C208.625 80.3504 209.919 80.2083 210.657 80.229C210.755 80.229 211.07 80.2471 211.46 80.2781C212.854 80.3891 213.267 80.5543 214.148 80.5517C214.576 80.5494 215.002 80.5097 215.423 80.433C216.389 80.5586 217.384 80.6628 218.408 80.7454C218.565 79.9089 218.731 78.8942 218.854 77.6471L215.498 78.1351C213.55 77.5843 211.572 77.1413 209.575 76.808C209.575 76.808 208.517 76.6325 205.462 77.0042C205.253 77.0276 205.056 77.1182 204.902 77.2624C204.729 77.4354 204.566 77.7581 204.667 77.926C204.853 78.2384 205.808 77.802 207.12 77.7039C207.862 77.6499 208.608 77.7091 209.333 77.8795C207.6 77.8543 205.914 78.4382 204.569 79.5293L204.559 79.5216Z"
          fill="#F5C3C0"/>
    <path d="M224.08 80.6886C224.104 80.8383 224.124 80.9906 224.148 81.1404L237.129 82.8444C240.516 77.5051 243.206 71.7541 245.133 65.7318C245.621 64.2033 246.039 62.7136 246.403 61.2703C245.527 61.0207 244.63 60.8479 243.723 60.7539C242.476 62.2499 241.47 63.9311 240.741 65.7369C239.267 69.4187 238.358 75.2563 237.628 78.1299C237.552 78.4315 237.452 78.7267 237.331 79.0129C236.939 79.9223 236.344 80.7302 235.593 81.3753C232.283 81.334 228.73 81.1585 224.971 80.7841L224.08 80.6886Z"
          fill="#F08175"/>
    <path d="M230.266 86.6036C233.103 87.3788 235.978 88.0088 238.88 88.491C241.113 88.8576 242.13 88.9299 243.599 89.6709C246.106 90.936 248.03 93.1874 248.386 93.6186C248.585 93.8587 248.766 94.0885 248.931 94.3053C249.026 93.2261 249.189 91.7544 249.447 90.022C249.837 87.5331 250.542 83.1929 252.421 78.4036C254.182 73.9111 254.975 74.1202 256.008 70.7793C256.866 67.9964 257.209 65.0801 257.02 62.1739C257.004 61.9286 256.986 61.6937 256.968 61.4691L255.749 59.1092C255.127 59.4455 254.467 59.7097 253.785 59.8967C252.587 60.222 251.399 60.5448 250.242 60.0258C248.936 59.4397 248.399 58.1049 248.231 57.6221C247.676 57.7229 247.134 57.8839 246.615 58.1023C244.361 59.055 242.484 61.2444 240.713 66.5399C238.113 74.2855 239.375 76.0773 237.217 79.9656C235.443 83.1542 232.742 85.2275 230.266 86.6036Z"
          fill="#EE9087"/>
    <path d="M248.386 93.6105C248.585 93.8506 248.765 94.0804 248.931 94.2973C249.026 93.218 249.189 91.7464 249.447 90.0139C249.837 87.525 250.542 83.1849 252.421 78.3955C254.182 73.9108 254.975 74.1199 256.008 70.779C256.866 67.996 257.209 65.0797 257.02 62.1736C255.15 61.9722 253.57 62.282 252.773 63.1289C252.168 63.7743 252.122 64.869 252.029 67.0636C251.871 70.8022 252.804 71.5277 252.545 74.6259C252.39 76.5469 251.887 78.0753 251.365 79.6529C250.591 82.023 250.273 81.9533 249.661 83.9362C249.073 85.8442 248.933 87.3055 248.657 90.2308C248.52 91.7025 248.425 92.8178 248.386 93.6105Z"
          fill="#F08175"/>
    <path d="M249.194 82.942C248.336 82.9366 247.48 82.8502 246.638 82.6838C246.38 82.6321 246.148 82.5779 245.915 82.5185H238.999C237.146 81.6933 235.25 80.971 233.318 80.3549C233.318 80.3549 232.299 80.0296 229.221 79.9625C229.012 79.9506 228.805 80.0078 228.632 80.1251C228.433 80.2723 228.229 80.5692 228.304 80.7499C228.444 81.083 229.451 80.7887 230.762 80.879C231.504 80.9328 232.234 81.0991 232.926 81.3722C231.216 81.0989 229.464 81.4352 227.976 82.3223C228.088 83.0265 228.448 83.6676 228.991 84.1296C229.236 84.3294 229.514 84.485 229.812 84.5892C231.878 83.7294 233.184 83.7682 233.91 83.9024C234.008 83.9179 234.315 83.9773 234.697 84.0651C236.06 84.3749 236.442 84.5969 237.32 84.7209C237.748 84.7809 238.18 84.8025 238.611 84.7854C240.846 85.417 243.119 85.9102 245.414 86.2622C245.843 86.3268 246.269 86.3862 246.693 86.443L249.194 82.942Z"
          fill="#F5C3C0"/>
    <path d="M229.303 84.0655C231.369 83.2057 232.675 83.2445 233.401 83.3787C233.499 83.3942 233.806 83.4536 234.188 83.5414C235.551 83.8512 235.934 84.0733 236.811 84.1972C237.239 84.2572 237.671 84.2788 238.102 84.2617C240.338 84.8933 242.61 85.3865 244.906 85.7386C245.334 85.8031 245.76 85.8625 246.184 85.9193L248.347 82.9062C248.644 82.9269 248.933 82.9398 249.207 82.9424L246.687 86.4253C246.264 86.3685 245.838 86.3092 245.409 86.2446C243.113 85.8925 240.841 85.3993 238.606 84.7678C238.174 84.7849 237.742 84.7633 237.315 84.7032C236.437 84.5793 236.055 84.3573 234.692 84.0474C234.31 83.9597 234.002 83.9003 233.904 83.8848C233.179 83.7505 231.875 83.7118 229.807 84.5716C229.508 84.4674 229.231 84.3118 228.986 84.112C228.821 83.9772 228.674 83.8229 228.547 83.6524C228.776 83.8291 229.031 83.9685 229.303 84.0655Z"
          fill="#EF7F98"/>
    <path d="M254.833 60.2888C256.124 59.9893 257.198 60.6451 257.588 60.8801C259.839 62.2407 260.056 65.0885 260.079 65.4681L261.001 85.9656L260.916 86.7737C260.774 87.2901 260.451 88.1369 259.684 88.55C258.804 89.0225 257.784 88.6739 257.392 88.55C255.535 87.9562 251.711 87.2462 245.618 86.3399L245.915 82.5162L254.9 82.5833L253.916 76.4849C253.329 72.576 252.745 68.6687 252.163 64.7632C252.069 64.1882 252.095 63.5998 252.24 63.0353C252.385 62.4709 252.645 61.9427 253.005 61.4842C253.465 60.894 254.108 60.4734 254.833 60.2888Z"
          fill="#EE9087"/>
    <path d="M256.875 88.0337C257.268 88.1576 258.287 88.5061 259.168 88.0337C259.942 87.6206 260.257 86.7737 260.399 86.2573L260.485 85.4492L259.563 64.9517C259.545 64.647 259.398 62.7545 258.179 61.3164C259.873 62.7726 260.059 65.1247 260.079 65.4681L261.001 85.9656L260.916 86.7737C260.774 87.2901 260.451 88.1369 259.684 88.55C258.804 89.0225 257.784 88.674 257.392 88.55C255.535 87.9562 251.711 87.2462 245.618 86.3399C245.631 86.1825 245.641 86.0379 245.652 85.9062C251.42 86.7711 255.076 87.4579 256.875 88.0337Z"
          fill="#F08175"/>
    <path d="M222.885 66.4694L226.902 83.435L226.247 85.2035L211.034 80.4193L207.001 63.6087C206.97 63.4798 206.972 63.345 207.008 63.2172C207.043 63.0894 207.111 62.9728 207.204 62.8788C207.298 62.7847 207.414 62.7162 207.542 62.6799C207.669 62.6436 207.804 62.6407 207.933 62.6715L222.294 65.8937C222.437 65.9242 222.568 65.9944 222.672 66.0963C222.777 66.1981 222.851 66.3275 222.885 66.4694Z"
          fill="#CCE2EC"/>
    <path d="M234.4 86.0949C234.341 86.3151 234.199 86.5041 234.004 86.6228C233.81 86.7415 233.577 86.7808 233.354 86.7326L226.246 85.2041L226.902 83.4355L233.739 85.0002C233.855 85.0267 233.965 85.0764 234.062 85.1463C234.158 85.2162 234.24 85.3049 234.302 85.4071C234.364 85.5093 234.404 85.6228 234.421 85.741C234.438 85.8592 234.43 85.9795 234.4 86.0949Z"
          fill="#CCE2EC"/>
    <path d="M214.375 74.1408C214.213 72.8834 214.533 71.8063 215.089 71.735C215.645 71.6637 216.226 72.6252 216.388 73.8826C216.549 75.1399 216.229 76.217 215.673 76.2883C215.117 76.3596 214.536 75.3981 214.375 74.1408Z"
          fill="white"/>
    <path d="M225.87 83.6933L221.852 66.7278C221.819 66.5844 221.746 66.4534 221.641 66.3501C221.537 66.2468 221.405 66.1754 221.261 66.1443L207.125 62.9712C207.215 62.8468 207.34 62.752 207.484 62.6987C207.628 62.6453 207.784 62.636 207.933 62.6717L222.294 65.8939C222.437 65.9249 222.569 65.9963 222.674 66.0997C222.779 66.203 222.852 66.334 222.885 66.4774L226.902 83.4429L226.247 85.2115L225.407 84.9533L225.87 83.6933Z"
          fill="#BFD5DD"/>
    <path d="M232.838 86.2165C233.059 86.2618 233.289 86.2209 233.481 86.1024C233.673 85.9839 233.813 85.7966 233.871 85.5788C233.921 85.4009 233.912 85.2116 233.845 85.0392C234.054 85.1184 234.225 85.2736 234.325 85.4738C234.424 85.6739 234.444 85.9042 234.381 86.1185C234.317 86.3327 234.175 86.5151 233.983 86.629C233.791 86.743 233.563 86.7801 233.344 86.7329L226.236 85.2044L226.376 84.8301L232.838 86.2165Z"
          fill="#BFD5DD"/>
    <path d="M179.889 93.3346L180.806 97.1377L189.251 94.3158C189.221 94.2853 189.196 94.2505 189.176 94.2125L187.17 90.3113C187.159 90.2898 187.151 90.2673 187.144 90.2441L179.889 93.3346Z"
          fill="#F5C3C0"/>
    <path d="M188.218 94.0569C188.188 94.0264 188.163 93.9916 188.143 93.9536L186.401 90.5559L187.144 90.2383C187.151 90.2615 187.159 90.284 187.17 90.3054L189.176 94.2066C189.196 94.2446 189.221 94.2795 189.251 94.3099L180.806 97.1319L180.671 96.5742L188.218 94.0569Z"
          fill="#EFA097"/>
    <path d="M171.422 88.6921C171.583 89.3118 176.775 96.2802 178.745 98.9086C178.842 99.0374 178.963 99.1454 179.103 99.2261C179.242 99.3068 179.397 99.3586 179.557 99.3783C179.717 99.3981 179.879 99.3854 180.034 99.3411C180.189 99.2968 180.334 99.2217 180.459 99.1203L184.417 95.9317L182.029 92.4229C181.904 92.4768 181.768 92.4989 181.633 92.4872C181.498 92.4755 181.368 92.4303 181.254 92.3558C178.931 90.8376 173.694 87.4735 172.992 87.4167C172.096 87.3418 171.224 87.9227 171.422 88.6921Z"
          fill="#F4C584"/>
    <path d="M179.684 98.6039L183.642 95.4152C182.978 94.4359 182.314 93.459 181.649 92.4848C181.779 92.4951 181.909 92.4738 182.029 92.4229L184.417 95.9316L180.459 99.1202C180.334 99.2216 180.189 99.2967 180.034 99.341C179.879 99.3854 179.717 99.398 179.557 99.3783C179.397 99.3585 179.243 99.3067 179.103 99.226C178.963 99.1453 178.842 99.0373 178.745 98.9085L178.696 98.844C178.868 98.8797 179.046 98.8767 179.217 98.8352C179.388 98.7937 179.548 98.7147 179.684 98.6039Z"
          fill="#E0B880"/>
    <path d="M276.733 42.7162C272.602 40.7953 266.663 42.4581 264.799 45.8635C263.17 48.8301 265.352 51.7631 267.162 57.5362C267.647 59.0853 271.166 70.7218 268.342 81.2714C266.534 88.0101 261.252 97.6327 252.577 100.067C248.187 101.296 247.749 99.3522 235.557 97.9245C229.859 97.2583 214.884 95.9183 209.854 101.464C209.444 101.919 208.246 103.238 208.019 105.203C207.76 107.511 208.958 109.783 210.51 111.169C212.002 112.504 213.645 112.628 218.772 112.874C227.334 113.276 227.951 113.276 227.951 113.276C248.606 112.695 249.318 113.297 253.917 112.096C257.345 111.198 262.424 109.871 267.422 106.063C275.442 99.9564 277.892 91.5524 280.931 81.1474C280.931 81.1474 287.065 60.1181 281.323 47.707C279.761 44.3144 277.732 43.181 276.733 42.7162Z"
          fill="#5A9687"/>
    <path d="M216.707 111.841C225.268 112.244 225.885 112.244 225.885 112.244C246.54 111.663 247.253 112.265 251.851 111.064C255.28 110.165 260.359 108.838 265.357 105.03C273.376 98.924 275.827 90.52 278.865 80.115C278.865 80.115 285 59.0857 279.258 46.6746C278.189 44.3638 276.906 43.1039 275.881 42.3887C276.171 42.4833 276.456 42.5954 276.733 42.7243C277.732 43.1813 279.761 44.3147 281.311 47.697C287.053 60.1081 280.918 81.1374 280.918 81.1374C277.879 91.5424 275.429 99.9464 267.41 106.053C262.411 109.861 257.34 111.188 253.904 112.086C249.306 113.287 248.59 112.685 227.938 113.266C227.938 113.266 227.321 113.282 218.759 112.871C213.764 112.631 212.078 112.51 210.614 111.268C211.907 111.596 213.712 111.699 216.707 111.841Z"
          fill="#80BDAE"/>
    <path d="M140.944 99.7812H196.545V104.284H140.944V99.7812Z" fill="white"/>
    <path d="M143.747 104.284H193.74V107.535H143.747V104.284Z" fill="white"/>
    <path d="M192.966 105.059H143.745V104.284H193.74V107.535H192.966V105.059Z" fill="#EDF3F4"/>
    <path d="M147.452 88.9602C147.452 88.6633 149.26 88.4258 151.48 88.4258C153.701 88.4258 155.508 88.6633 155.508 88.9602C155.508 89.2571 153.701 89.4921 151.48 89.4921C149.26 89.4921 147.452 89.2649 147.452 88.9602Z"
          fill="white"/>
    <path d="M144.902 95.4615C144.898 96.562 145.078 97.6553 145.433 98.6966C145.56 99.0718 145.713 99.4376 145.89 99.7913H157.07C157.731 98.4441 158.07 96.962 158.061 95.4615C158.061 92.8203 157.06 90.4708 155.508 88.9707L154.955 89.0198C153.85 89.1153 152.683 89.1643 151.48 89.1643C150.076 89.1643 148.723 89.0972 147.452 88.9707C145.901 90.4604 144.902 92.81 144.902 95.4615Z"
          fill="#11493E"/>
    <path d="M145.433 98.6863C145.56 99.0615 145.713 99.4273 145.89 99.781H157.07C157.729 98.4369 158.068 96.9586 158.061 95.4615C158.061 92.8203 157.06 90.4708 155.508 88.9707L154.955 89.0198C155.385 89.5581 155.733 90.1566 155.988 90.7961C156.221 91.377 156.954 93.1998 156.321 95.1543C155.94 96.3471 155.153 97.369 154.098 98.0434C151.563 99.5512 146.965 98.9238 145.433 98.6863Z"
          fill="#5A9687"/>
    <path d="M150.685 87.5773C150.35 87.9336 149.774 88.073 149.079 88.0343H148.953C148.381 87.9768 147.819 87.8422 147.282 87.6341L147.156 87.585C146.6 87.3641 146.067 87.0891 145.565 86.764L145.447 86.6865C144.947 86.3541 144.485 85.967 144.071 85.5324L143.954 85.393L143.864 85.2898C143.523 84.8933 143.227 84.4604 142.981 83.9988C142.96 83.9601 142.94 83.9214 142.922 83.8826C142.728 83.5085 142.566 83.1191 142.436 82.7182L142.398 82.5943C142.26 82.1479 142.159 81.6911 142.095 81.2285C142.776 81.0973 143.469 81.0436 144.161 81.0684H144.313C144.848 81.0985 145.379 81.178 145.899 81.3059L145.963 81.3214L146.097 81.355C146.737 81.5128 147.36 81.7333 147.956 82.0134L148.07 82.0702C148.602 82.3336 149.094 82.6708 149.531 83.0719L149.611 83.1494C150.019 83.5439 150.349 84.0116 150.585 84.5281L150.616 84.603C150.616 84.6236 150.634 84.6443 150.641 84.6624C150.727 84.8767 151.488 86.7304 150.685 87.5773Z"
          fill="#80BDAE"/>
    <path d="M145.868 83.3477C146.525 83.5589 147.158 83.8429 147.752 84.1945C148.047 84.3703 148.33 84.5634 148.602 84.7729C148.736 84.8813 148.875 84.9871 149.005 85.1033C149.134 85.2195 149.263 85.3305 149.387 85.457C149.882 85.9506 150.312 86.5059 150.665 87.1094C151.015 87.7194 151.282 88.3732 151.46 89.0536L151.119 89.1362C150.976 88.4754 150.746 87.8365 150.435 87.236C150.116 86.6352 149.721 86.0781 149.26 85.5784C149.149 85.4519 149.023 85.3357 148.901 85.2169C148.78 85.0982 148.643 84.9871 148.519 84.8761C148.256 84.6576 147.98 84.455 147.693 84.2694C147.121 83.8948 146.509 83.5857 145.868 83.3477Z"
          fill="#11493E"/>
    <path d="M160.786 79.2605C160.786 79.3121 160.773 79.3637 160.765 79.4179C160.691 79.9325 160.575 80.4402 160.419 80.9361C160.404 80.9851 160.388 81.0368 160.37 81.0884C160.169 81.7001 159.9 82.2872 159.567 82.8389C159.539 82.888 159.511 82.937 159.48 82.9835L159.356 83.1746C159.104 83.5535 158.824 83.9134 158.519 84.2512C158.328 84.4629 158.129 84.6695 157.923 84.8657L157.796 84.9845C157.254 85.4837 156.665 85.9282 156.035 86.3115L155.891 86.3968C155.282 86.7605 154.627 87.0418 153.944 87.2333L153.794 87.2694C153.061 87.4398 152.41 87.4218 151.935 87.1713C151.87 87.1357 151.807 87.096 151.747 87.0525C150.595 86.1902 151.135 83.7787 151.194 83.5051C151.194 83.4767 151.207 83.4508 151.215 83.425C151.223 83.3992 151.215 83.3605 151.238 83.3295C151.416 82.6535 151.719 82.0168 152.132 81.4525L152.217 81.3389C152.663 80.7603 153.19 80.249 153.781 79.8207L153.908 79.7278C154.574 79.2621 155.285 78.8634 156.03 78.5375L156.185 78.4704L156.26 78.4368C156.864 78.1732 157.492 77.9666 158.134 77.8198L158.32 77.7785C159.159 77.602 160.015 77.5214 160.871 77.5383C160.888 78.1137 160.86 78.6896 160.786 79.2605Z"
          fill="#80BDAE"/>
    <path d="M158.519 84.2513C158.327 84.463 158.129 84.6696 157.922 84.8658L157.796 84.9845C157.254 85.4837 156.664 85.9283 156.035 86.3116L155.89 86.3968C155.281 86.7606 154.627 87.0418 153.943 87.2334L153.794 87.2695C153.06 87.4399 152.41 87.4218 151.935 87.1714C151.868 85.945 152.851 84.4656 154.186 83.7969C154.878 83.4567 155.651 83.3189 156.418 83.3993C157.184 83.4797 157.913 83.775 158.519 84.2513Z"
          fill="#347474"/>
    <path d="M156.719 80.9053C155.964 81.3014 155.255 81.7785 154.604 82.3279C154.28 82.6055 153.97 82.9002 153.677 83.2109C153.538 83.371 153.391 83.5285 153.256 83.6963C153.122 83.8641 152.998 84.0293 152.867 84.2127C152.367 84.9153 151.961 85.6799 151.658 86.4873C151.36 87.3013 151.171 88.1512 151.095 89.0149L151.529 89.0433C151.565 88.2108 151.711 87.3867 151.966 86.5931C152.226 85.7967 152.589 85.0373 153.045 84.334C153.153 84.1559 153.285 83.9906 153.406 83.8176C153.528 83.6446 153.664 83.4897 153.799 83.3245C154.074 83.0053 154.367 82.7019 154.676 82.4157C155.3 81.8388 155.985 81.3323 156.719 80.9053Z"
          fill="#11493E"/>
    <path d="M151.814 88.1214C151.939 88.2763 152.096 88.4025 152.274 88.4915C152.452 88.5806 152.647 88.6305 152.846 88.6378H152.934C153.33 88.6747 153.728 88.6573 154.119 88.5861L154.212 88.5707C154.618 88.4924 155.016 88.3757 155.4 88.2221L155.49 88.186C155.873 88.0252 156.236 87.8225 156.574 87.5818L156.678 87.5069L156.753 87.4475C157.038 87.2241 157.298 86.9695 157.527 86.6885L157.581 86.6188C157.762 86.3898 157.924 86.1463 158.064 85.8907L158.106 85.8132C158.257 85.5278 158.386 85.2308 158.49 84.9251C158.045 84.7465 157.581 84.6192 157.106 84.5455L157.001 84.53C156.634 84.4799 156.264 84.4643 155.895 84.4836H155.831H155.735C155.281 84.5059 154.829 84.5734 154.388 84.6849L154.305 84.7108C153.909 84.8176 153.531 84.9811 153.182 85.1961L153.115 85.24C152.787 85.4539 152.503 85.7271 152.276 86.0456C152.263 86.06 152.252 86.0755 152.242 86.0921L152.219 86.1282C152.141 86.2831 151.38 87.4424 151.814 88.1214Z"
          fill="#80BDAE"/>
    <path d="M155.64 85.8828C155.165 85.9406 154.698 86.0505 154.248 86.2107C154.023 86.2912 153.802 86.3843 153.587 86.4896C153.481 86.5464 153.375 86.6006 153.272 86.66C153.169 86.7193 153.063 86.7813 152.965 86.851C152.153 87.3898 151.503 88.1396 151.085 89.0198L151.307 89.1205C151.491 88.6901 151.731 88.2864 152.022 87.9199C152.317 87.555 152.657 87.2296 153.035 86.9517C153.127 86.8794 153.228 86.8175 153.326 86.7503C153.424 86.6832 153.528 86.6316 153.631 86.5696C153.838 86.4565 154.052 86.3556 154.271 86.2675C154.712 86.089 155.171 85.9599 155.64 85.8828Z"
          fill="#11493E"/>
    <path d="M205.289 16.3429V23.9594H205.891V16.2422L205.798 16.2603L205.725 16.2732L205.289 16.3429Z" fill="#004F80"/>
    <path d="M202.08 25.1892V26.5344H209.101V25.1892C209.101 24.3087 208.77 23.4603 208.173 22.8126C207.577 22.1649 206.759 21.7653 205.881 21.6934C205.785 21.6882 205.688 21.6882 205.592 21.6934C204.663 21.6927 203.772 22.0603 203.114 22.7156C202.455 23.3709 202.084 24.2604 202.08 25.1892Z"
          fill="white"/>
    <path d="M205.591 36.6517C203.8 36.6517 202.348 35.1998 202.348 33.4088C202.348 31.6179 203.8 30.166 205.591 30.166C207.382 30.166 208.834 31.6179 208.834 33.4088C208.834 35.1998 207.382 36.6517 205.591 36.6517Z"
          fill="#F4C584"/>
    <path d="M198 33.0917V33.4093H213.182V33.0917C213.182 31.1915 212.47 29.3602 211.185 27.9599C209.901 26.5596 208.137 25.6923 206.244 25.5294C206.03 25.5087 205.81 25.501 205.591 25.501C203.578 25.501 201.647 26.3007 200.223 27.7242C198.8 29.1478 198 31.0785 198 33.0917Z"
          fill="white"/>
    <path d="M206.244 25.5293C206.866 25.6532 207.767 25.8856 208.276 26.6731C208.65 27.2514 208.434 27.5406 208.898 28.5398C209.415 29.6371 209.812 29.5983 210.143 30.3755C210.708 31.7051 209.843 32.5752 210.112 33.4092H213.182V33.0916C213.182 31.1914 212.47 29.3601 211.185 27.9598C209.901 26.5596 208.137 25.6922 206.244 25.5293Z"
          fill="#EDF3F4"/>
    <path d="M209.101 25.4308V26.683C208.678 26.5059 208.286 26.2637 207.939 25.9653C208.08 25.349 208.053 24.7062 207.861 24.1038C207.694 23.6308 207.433 23.1961 207.094 22.8254C206.756 22.4547 206.347 22.1555 205.891 21.9453C206.766 22.0173 207.582 22.4157 208.176 23.0615C208.771 23.7072 209.101 24.553 209.101 25.4308Z"
          fill="#EDF3F4"/>
    <path d="M205.725 16.031C205.725 17.8934 205.732 19.754 205.746 21.613L205.79 21.6311H205.891V16L205.798 16.0181L205.725 16.031Z"
          fill="#01496D"/>
    <path d="M188.951 20.709V49.2955H189.55V20.9155L189.312 20.8355L188.951 20.709Z" fill="#004F80"/>
    <path d="M185.742 50.775V52.1176H192.752V50.775C192.751 49.8942 192.419 49.0457 191.823 48.3978C191.226 47.7499 190.408 47.3497 189.53 47.2766C189.434 47.2766 189.339 47.2637 189.241 47.2637C188.311 47.2664 187.421 47.6376 186.765 48.2959C186.109 48.9542 185.741 49.8458 185.742 50.775Z"
          fill="white"/>
    <path d="M189.25 61.9906C187.459 61.9906 186.007 60.5387 186.007 58.7477C186.007 56.9567 187.459 55.5049 189.25 55.5049C191.041 55.5049 192.493 56.9567 192.493 58.7477C192.493 60.5387 191.041 61.9906 189.25 61.9906Z"
          fill="#F4C584"/>
    <path d="M181.649 58.4276V58.7478H196.844V58.4276C196.843 56.5286 196.131 54.6986 194.848 53.2987C193.565 51.8989 191.803 51.0306 189.911 50.8653C189.695 50.8473 189.478 50.8369 189.256 50.8369C188.257 50.8349 187.269 51.0297 186.346 51.4103C185.423 51.7908 184.585 52.3496 183.878 53.0547C183.172 53.7598 182.611 54.5973 182.229 55.5192C181.846 56.4412 181.649 57.4295 181.649 58.4276Z"
          fill="white"/>
    <path d="M189.912 50.8652C190.532 50.9917 191.433 51.2241 191.944 52.0116C192.316 52.5873 192.102 52.8791 192.564 53.8757C193.08 54.973 193.48 54.9369 193.808 55.7114C194.374 57.0411 193.511 57.9112 193.777 58.7477H196.85V58.4275C196.849 56.5277 196.136 54.697 194.852 53.297C193.567 51.897 191.805 51.0293 189.912 50.8652Z"
          fill="#EDF3F4"/>
    <path d="M192.752 50.7619V52.0141C192.328 51.8401 191.935 51.5976 191.59 51.2963C191.729 50.6806 191.701 50.039 191.51 49.4374C191.343 48.9639 191.082 48.5288 190.744 48.1576C190.405 47.7865 189.996 47.4868 189.54 47.2764C190.415 47.3483 191.231 47.7466 191.826 48.3923C192.421 49.038 192.752 49.8839 192.752 50.7619Z"
          fill="#EDF3F4"/>
    <path d="M189.313 20.8457L189.395 47.1808L189.442 47.2015H189.54V20.9154L189.313 20.8457Z" fill="#01496D"/>
    <path d="M120.485 136.207H293.796C293.967 136.207 294.131 136.139 294.252 136.018C294.373 135.897 294.441 135.733 294.441 135.561C294.441 135.39 294.373 135.226 294.252 135.105C294.131 134.984 293.967 134.916 293.796 134.916H120.485C120.314 134.916 120.15 134.984 120.029 135.105C119.908 135.226 119.84 135.39 119.84 135.561C119.84 135.733 119.908 135.897 120.029 136.018C120.15 136.139 120.314 136.207 120.485 136.207Z"
          fill="#11493E"/>
</svg>
