<svg width="24" height="25" viewBox="0 0 24 25" fill="none" xmlns="http://www.w3.org/2000/svg">
    <path fill-rule="evenodd" clip-rule="evenodd" d="M12 22.7585C6.48 22.7585 2 18.2885 2 12.7585C2 7.23854 6.48 2.75854 12 2.75854C17.53 2.75854 22 7.23854 22 12.7585C22 18.2885 17.53 22.7585 12 22.7585ZM15.19 16.4685C15.31 16.5385 15.44 16.5785 15.58 16.5785C15.83 16.5785 16.08 16.4485 16.22 16.2085C16.43 15.8585 16.32 15.3985 15.96 15.1785L12.4 13.0585V8.43854C12.4 8.01854 12.06 7.68854 11.65 7.68854C11.24 7.68854 10.9 8.01854 10.9 8.43854V13.4885C10.9 13.7485 11.04 13.9885 11.27 14.1285L15.19 16.4685Z" fill="#347474"/>
</svg>
