<svg width="18" height="18" viewBox="0 0 18 18" fill="none" xmlns="http://www.w3.org/2000/svg">
<path fill-rule="evenodd" clip-rule="evenodd" d="M8.99996 17.3334C4.39996 17.3334 0.666626 13.6084 0.666626 9.00008C0.666626 4.40008 4.39996 0.666748 8.99996 0.666748C13.6083 0.666748 17.3333 4.40008 17.3333 9.00008C17.3333 13.6084 13.6083 17.3334 8.99996 17.3334ZM11.6583 12.0917C11.7583 12.1501 11.8666 12.1834 11.9833 12.1834C12.1916 12.1834 12.4 12.0751 12.5166 11.8751C12.6916 11.5834 12.6 11.2001 12.3 11.0167L9.33329 9.25008V5.40008C9.33329 5.05008 9.04996 4.77508 8.70829 4.77508C8.36663 4.77508 8.08329 5.05008 8.08329 5.40008V9.60841C8.08329 9.82508 8.19996 10.0251 8.39163 10.1417L11.6583 12.0917Z" fill="#FCFCFC"/>
</svg>
