<svg width="16" height="17" viewBox="0 0 16 17" fill="none" xmlns="http://www.w3.org/2000/svg">
<path d="M8.88392 8.03623L15.8169 1.0718C16.061 0.826606 16.061 0.429065 15.8169 0.183899C15.5728 -0.0612681 15.1771 -0.0612995 14.933 0.183899L7.99998 7.14833L1.06697 0.183899C0.822881 -0.0612995 0.427132 -0.0612995 0.18307 0.183899C-0.060992 0.429097 -0.0610233 0.826637 0.18307 1.0718L7.11608 8.0362L0.18307 15.0006C-0.0610233 15.2458 -0.0610233 15.6434 0.18307 15.8885C0.305101 16.0111 0.465069 16.0724 0.625037 16.0724C0.785006 16.0724 0.944943 16.0111 1.067 15.8885L7.99998 8.92414L14.933 15.8885C15.055 16.0111 15.215 16.0724 15.375 16.0724C15.5349 16.0724 15.6949 16.0111 15.8169 15.8885C16.061 15.6433 16.061 15.2458 15.8169 15.0006L8.88392 8.03623Z" fill="#787878"/>
</svg>
