<svg width="32" height="32" viewBox="0 0 32 32" fill="none" xmlns="http://www.w3.org/2000/svg">
<path d="M28.1101 6.72386L27.6847 6.29848L22.115 0.728828L21.6897 0.303448C21.4971 0.110897 21.2301 0 20.957 0H4.94483C4.29049 0 3.58594 0.505379 3.58594 1.61434V21.5172V30.6411V30.8966C3.58594 31.3583 4.05049 31.8086 4.60001 31.9503C4.62759 31.9575 4.65408 31.968 4.68277 31.9735C4.76883 31.9906 4.85656 32 4.94483 32H27.0546C27.1429 32 27.2306 31.9906 27.3167 31.9735C27.3454 31.968 27.3719 31.9575 27.3995 31.9503C27.949 31.8086 28.4135 31.3583 28.4135 30.8966V30.6411V21.5172V7.712C28.4135 7.28883 28.3628 6.97655 28.1101 6.72386ZM26.4466 6.62069H21.7928V1.9669L26.4466 6.62069ZM4.94483 30.8966C4.90566 30.8966 4.87035 30.8822 4.83559 30.8695C4.74952 30.8287 4.68939 30.7426 4.68939 30.6411V22.6207H27.3101V30.6411C27.3101 30.7426 27.2499 30.8281 27.1639 30.8695C27.1291 30.8822 27.0938 30.8966 27.0546 30.8966H4.94483ZM4.68939 21.5172V1.61434C4.68939 1.49462 4.70759 1.10345 4.94483 1.10345H20.7214C20.7032 1.17297 20.6894 1.24469 20.6894 1.31917V7.72414H27.0944C27.1688 7.72414 27.24 7.71034 27.3095 7.69214C27.3095 7.70041 27.3101 7.70372 27.3101 7.712V21.5172H4.68939Z" fill="#828282"/>
<path d="M12.1608 24.6868C11.977 24.5362 11.7696 24.4225 11.5384 24.3475C11.3072 24.2719 11.0733 24.2344 10.8372 24.2344H9.23828V29.7935H10.1437V27.7869H10.8151C11.1064 27.7869 11.3735 27.7444 11.6146 27.6589C11.8557 27.5734 12.062 27.4526 12.233 27.297C12.4041 27.1414 12.537 26.9489 12.633 26.7199C12.7285 26.4909 12.7765 26.236 12.7765 25.9541C12.7765 25.6876 12.7197 25.4476 12.6066 25.2335C12.4935 25.0195 12.3445 24.838 12.1608 24.6868ZM11.8176 26.5235C11.7619 26.6769 11.6896 26.796 11.5991 26.8815C11.5086 26.9671 11.4093 27.0289 11.3012 27.0664C11.193 27.1039 11.0832 27.1232 10.9729 27.1232H10.1431V24.9207H10.8217C11.0529 24.9207 11.2388 24.9571 11.3801 25.03C11.5208 25.1028 11.63 25.1933 11.7083 25.3014C11.7861 25.4095 11.8375 25.5227 11.8628 25.6407C11.8877 25.7588 11.9003 25.8631 11.9003 25.9535C11.9003 26.1803 11.8728 26.3701 11.8176 26.5235Z" fill="#828282"/>
<path d="M17.6292 25.0487C17.3953 24.8027 17.1012 24.6046 16.7465 24.4567C16.3917 24.3089 15.9807 24.2344 15.5134 24.2344H13.8389V29.7935H15.9431C16.0132 29.7935 16.1214 29.7847 16.2676 29.7671C16.4132 29.7494 16.5743 29.7097 16.7503 29.6462C16.9263 29.5833 17.1084 29.489 17.2971 29.3632C17.4858 29.2374 17.6551 29.0653 17.8063 28.8462C17.9575 28.6272 18.0816 28.3558 18.1798 28.0313C18.278 27.7069 18.3271 27.3158 18.3271 26.8584C18.3271 26.5262 18.2692 26.2029 18.1539 25.889C18.0375 25.5756 17.8631 25.2953 17.6292 25.0487ZM16.9694 28.5411C16.6979 28.9334 16.2554 29.1293 15.6419 29.1293H14.7442V24.9202H15.2722C15.7048 24.9202 16.0568 24.977 16.3282 25.0901C16.5997 25.2032 16.8149 25.3516 16.9732 25.5353C17.1316 25.7191 17.238 25.9238 17.2938 26.15C17.3489 26.3762 17.3765 26.6051 17.3765 26.8363C17.3765 27.5806 17.2408 28.1494 16.9694 28.5411Z" fill="#828282"/>
<path d="M19.6406 29.7935H20.5609V27.2893H22.8842V26.6708H20.5609V24.9207H23.1176V24.2344H19.6406V29.7935Z" fill="#828282"/>
<path d="M21.202 12.6685C20.6949 12.6685 20.0726 12.7347 19.3493 12.866C18.3396 11.7946 17.2858 10.2299 16.5421 8.69389C17.2798 5.58824 16.9107 5.14851 16.7479 4.94106C16.5747 4.72037 16.3303 4.3623 16.0522 4.3623C15.9358 4.3623 15.618 4.41527 15.4916 4.4572C15.1738 4.56313 15.0028 4.8081 14.866 5.12755C14.4759 6.03955 15.0111 7.5943 15.5617 8.79265C15.0911 10.6646 14.3016 12.9052 13.4718 14.7237C11.3807 15.6815 10.2701 16.6222 10.1697 17.5198C10.1333 17.8464 10.2105 18.3259 10.7849 18.7568C10.9421 18.8743 11.1264 18.9366 11.3184 18.9366C11.8012 18.9366 12.2889 18.567 12.8533 17.7742C13.2649 17.196 13.7068 16.4075 14.1681 15.4288C15.6456 14.7827 17.4734 14.199 19.0387 13.8718C19.9104 14.7088 20.6911 15.1325 21.362 15.1325C21.8563 15.1325 22.2801 14.9052 22.5868 14.4754C22.9063 14.028 22.9791 13.6274 22.802 13.2837C22.5896 12.8704 22.066 12.6685 21.202 12.6685ZM11.3305 18.0053C11.0723 17.8073 11.0872 17.6738 11.0927 17.6235C11.1269 17.3168 11.6075 16.7722 12.7865 16.1096C11.8927 17.7604 11.4127 17.9794 11.3305 18.0053ZM15.8547 5.35872C15.8784 5.35099 16.4312 5.96617 15.9076 7.13306C15.1209 6.3281 15.8006 5.37693 15.8547 5.35872ZM14.7143 14.2007C15.2743 12.866 15.7951 11.3924 16.1896 10.0274C16.8092 11.1408 17.5534 12.2211 18.2983 13.0862C17.1209 13.3626 15.8674 13.7527 14.7143 14.2007ZM21.8321 13.9364C21.6621 14.1742 21.2936 14.1797 21.1645 14.1797C20.8704 14.1797 20.7606 14.0048 20.3109 13.6589C20.6817 13.6114 21.0315 13.5993 21.3101 13.5993C21.8006 13.5993 21.8905 13.6715 21.9584 13.708C21.9463 13.7471 21.9143 13.8211 21.8321 13.9364Z" fill="#347474"/>
</svg>
