<svg width="436" height="217" viewBox="0 0 436 217" fill="none" xmlns="http://www.w3.org/2000/svg">
<path opacity="0.0845424" d="M405.314 98.5672C410.95 91.0702 421.622 89.5424 429.151 95.1553C436.605 100.712 438.183 111.184 432.745 118.667L432.577 118.893L387.918 178.296C382.23 185.862 371.666 187.78 363.671 182.745L363.43 182.59L335.316 164.266L306.969 205.378C301.699 213.021 291.257 215.021 283.526 209.916L283.292 209.759C275.616 204.511 273.609 194.112 278.735 186.413L278.893 186.181L316.038 132.308C321.572 124.282 332.476 122.07 340.711 127.252L340.96 127.411L369.597 146.076L405.314 98.5672Z" fill="#F2994A"/>
<path opacity="0.0845424" d="M259.132 2.17117C260.562 0.102321 263.408 -0.423847 265.49 0.995942C267.545 2.39704 268.088 5.16966 266.729 7.2306L266.673 7.31265L255.544 23.423C253.912 25.6933 250.755 26.2402 248.449 24.6697L248.367 24.6127L241.975 20.0785L235.047 31.014C233.72 33.11 230.952 33.7587 228.825 32.4901L228.741 32.439C226.632 31.1198 225.978 28.3701 227.256 26.257L227.307 26.1739L236.494 11.672C238.008 9.28297 241.184 8.56519 243.588 10.0689L243.714 10.1501L243.838 10.2349L250.364 14.8643L259.132 2.17117Z" fill="#6FCF97"/>
<path opacity="0.0739397" fill-rule="evenodd" clip-rule="evenodd" d="M55.6601 12.1758C86.0689 12.1758 110.721 36.7239 110.721 67.0058C110.721 97.2874 86.0689 121.835 55.6601 121.835C25.251 121.835 0.599609 97.2874 0.599609 67.0058C0.599609 36.7239 25.251 12.1758 55.6601 12.1758ZM55.6601 39.308C40.2988 39.308 27.846 51.7086 27.846 67.0058C27.846 82.3023 40.2988 94.7032 55.6601 94.7032C71.0217 94.7032 83.474 82.3023 83.474 67.0058C83.474 51.7086 71.0217 39.308 55.6601 39.308Z" fill="#F2994A"/>
<path fill-rule="evenodd" clip-rule="evenodd" d="M37.0234 60.6869C37.0234 55.3947 41.3292 51.1045 46.6406 51.1045H329.221C334.533 51.1045 338.838 55.3947 338.838 60.6869V182.997C338.838 188.289 334.533 192.579 329.221 192.579H46.6406C41.3292 192.579 37.0234 188.289 37.0234 182.997V60.6869Z" fill="#D4E4E6"/>
<path fill-rule="evenodd" clip-rule="evenodd" d="M41.5615 60.6869C41.5615 55.3947 45.8672 51.1045 51.1787 51.1045H329.221C334.532 51.1045 338.838 55.3947 338.838 60.6869V182.997C338.838 188.289 334.532 192.579 329.221 192.579H51.1787C45.8673 192.579 41.5615 188.289 41.5615 182.997V60.6869Z" fill="#DEE8E8"/>
<path fill-rule="evenodd" clip-rule="evenodd" d="M46.1006 61.6208C46.1006 58.3132 48.7916 55.6318 52.1113 55.6318H328.289C331.608 55.6318 334.299 58.3132 334.299 61.6208V182.063C334.299 185.371 331.608 188.052 328.289 188.052H52.1113C48.7916 188.052 46.1006 185.371 46.1006 182.063V61.6208Z" fill="#E9F1F1"/>
<g filter="url(#filter0_d_1770_5582)">
<path fill-rule="evenodd" clip-rule="evenodd" d="M54.6104 64.5185C54.6104 62.7362 56.0605 61.291 57.8493 61.291H132.998C134.786 61.291 136.237 62.7362 136.237 64.5185V88.8638C136.237 90.6461 134.786 92.0913 132.998 92.0913H57.8493C56.0605 92.0913 54.6104 90.6461 54.6104 88.8638V64.5185Z" fill="#658989"/>
</g>
<path opacity="0.454078" fill-rule="evenodd" clip-rule="evenodd" d="M78.7627 79.588C78.7627 79.0825 79.1738 78.6729 79.6811 78.6729H94.9646C95.4719 78.6729 95.883 79.0825 95.883 79.588C95.883 80.0934 95.4719 80.5031 94.9646 80.5031H79.6811C79.1738 80.5031 78.7627 80.0934 78.7627 79.588Z" fill="#C7C1FF"/>
<path fill-rule="evenodd" clip-rule="evenodd" d="M78.7627 74.4044C78.7627 73.8989 79.1738 73.4893 79.6811 73.4893H88.8505C89.3572 73.4893 89.7683 73.8989 89.7683 74.4044C89.7683 74.9098 89.3572 75.3195 88.8505 75.3195H79.6811C79.1738 75.3195 78.7627 74.9098 78.7627 74.4044Z" fill="#E9F1F1"/>
<path fill-rule="evenodd" clip-rule="evenodd" d="M123.707 72.2367C125.012 70.5269 127.458 70.1957 129.172 71.4971C129.566 71.7959 129.9 72.1678 130.154 72.5913C130.286 72.8099 130.215 73.0931 129.996 73.2243C129.777 73.3549 129.493 73.2842 129.362 73.0656C129.168 72.7422 128.913 72.4589 128.612 72.2307C127.331 71.2587 125.514 71.4809 124.505 72.7164L124.443 72.7949L123.01 74.6736C120.771 77.6089 116.982 78.9025 113.417 77.9646L113.264 77.9233L112.112 77.5987C112.037 77.5777 111.962 77.5592 111.887 77.5424C109.778 77.0788 107.692 78.3797 107.176 80.4578L107.151 80.5603L106.913 81.6371C106.829 82.0186 106.666 82.3779 106.434 82.6917C105.518 83.9351 103.764 84.2016 102.517 83.287C102.312 83.1361 102.268 82.8475 102.419 82.6426C102.57 82.4372 102.86 82.3935 103.065 82.5444C103.9 83.1571 105.075 82.9786 105.69 82.1455C105.826 81.9611 105.927 81.7539 105.987 81.5341L106.011 81.4388L106.249 80.362C106.831 77.7268 109.444 76.0613 112.086 76.6416L112.225 76.6746L112.362 76.7111L113.516 77.0357C116.71 77.9353 120.127 76.8255 122.18 74.2359L122.274 74.1155L123.707 72.2367Z" fill="#E9F1F1"/>
<path fill-rule="evenodd" clip-rule="evenodd" d="M119.542 71.679C120.485 69.5853 122.953 68.6504 125.052 69.5925C125.474 69.7811 125.861 70.0392 126.198 70.3549C126.991 71.0987 127.725 72.2744 128.414 73.8842C128.513 74.1184 128.405 74.3891 128.17 74.4891C127.934 74.5891 127.663 74.4801 127.563 74.2459C126.92 72.7433 126.25 71.6701 125.564 71.0268C125.302 70.7813 125.001 70.5807 124.673 70.4333C123.069 69.714 121.189 70.4016 120.426 71.9695L120.385 72.057L120.088 72.7169C120.018 72.8709 119.938 73.0194 119.85 73.1625C118.751 74.9209 116.431 75.4581 114.668 74.3627C114.458 74.2322 114.228 74.1375 113.987 74.0824C112.814 73.8147 111.645 74.5232 111.336 75.6731L111.316 75.754L110.802 77.9951C110.647 78.67 110.317 79.2935 109.847 79.8025C108.38 81.392 105.917 81.5202 104.293 80.1122L104.207 80.0349L102.111 78.1106C101.923 77.9382 101.911 77.6465 102.084 77.459C102.246 77.2842 102.511 77.262 102.699 77.3997L102.738 77.4321L104.833 79.357C106.079 80.5009 108.02 80.4212 109.167 79.1779C109.5 78.8167 109.741 78.3807 109.871 77.9082L109.9 77.789L110.414 75.5479C110.803 73.8543 112.495 72.7954 114.193 73.1835C114.492 73.2518 114.779 73.3632 115.045 73.5135L115.158 73.58C116.487 74.4064 118.236 74.001 119.065 72.675C119.11 72.6031 119.151 72.5289 119.19 72.4534L119.244 72.339L119.542 71.679Z" fill="#FBBF9A"/>
<path d="M68.2144 83.2471C71.6757 83.2471 74.4816 80.4483 74.4816 76.9956C74.4816 73.543 71.6757 70.7441 68.2144 70.7441C64.7532 70.7441 61.9473 73.543 61.9473 76.9956C61.9473 80.4483 64.7532 83.2471 68.2144 83.2471Z" fill="#E9F1F1"/>
<g filter="url(#filter1_d_1770_5582)">
<path fill-rule="evenodd" clip-rule="evenodd" d="M54.6104 99.3715C54.6104 97.7173 55.9558 96.377 57.6157 96.377H153.156C154.815 96.377 156.161 97.7173 156.161 99.3715V178.833C156.161 180.487 154.815 181.828 153.156 181.828H57.6157C55.9558 181.828 54.6104 180.487 54.6104 178.833V99.3715Z" fill="#658989"/>
</g>
<mask id="mask0_1770_5582" style="mask-type:alpha" maskUnits="userSpaceOnUse" x="55" y="96" width="97" height="80">
<path fill-rule="evenodd" clip-rule="evenodd" d="M55 98.8035C55 97.2548 56.2852 96 57.8707 96H149.129C150.715 96 152 97.2548 152 98.8035V173.197C152 174.745 150.715 176 149.129 176H57.8707C56.2852 176 55 174.745 55 173.197V98.8035Z" fill="white"/>
</mask>
<g mask="url(#mask0_1770_5582)">
<path opacity="0.414737" fill-rule="evenodd" clip-rule="evenodd" d="M67 161.423C67 161.423 79.295 158.01 84.7162 151.043C90.1374 144.075 91.9653 137.322 101.289 137.322C110.613 137.322 111.808 147.665 121.888 147.665C131.967 147.665 132.518 134.475 135.869 129.238C139.218 124 145 124 145 124V168.171C145 169.181 144.156 170 143.115 170H68.8854C67.8441 170 67 169.181 67 168.171V161.423Z" fill="#CEF9FF"/>
<path d="M68 160.915C68 160.915 80.0725 157.457 85.3956 150.398C90.7187 143.339 92.5135 136.497 101.668 136.497C110.824 136.497 111.997 146.976 121.894 146.976C131.792 146.976 132.333 133.613 135.622 128.306C138.911 123 144.588 123 144.588 123" stroke="#FBBF9A" stroke-width="2" stroke-linecap="round"/>
<path d="M92.6198 104.865H64.2576C63.3166 104.865 62.5537 105.625 62.5537 106.563V106.563C62.5537 107.501 63.3166 108.261 64.2576 108.261H92.6198C93.5608 108.261 94.3237 107.501 94.3237 106.563C94.3237 105.625 93.5608 104.865 92.6198 104.865Z" fill="#FBBF9A"/>
<path fill-rule="evenodd" clip-rule="evenodd" d="M62.5537 115.052C62.5537 114.115 63.3165 113.354 64.2577 113.354H75.6006C76.5412 113.354 77.304 114.115 77.304 115.052C77.304 115.99 76.5412 116.75 75.6006 116.75H64.2577C63.3165 116.75 62.5537 115.99 62.5537 115.052Z" fill="#FCFCFC"/>
<path d="M136.588 108.827C137.685 108.827 138.574 107.941 138.574 106.847C138.574 105.753 137.685 104.866 136.588 104.866C135.492 104.866 134.603 105.753 134.603 106.847C134.603 107.941 135.492 108.827 136.588 108.827Z" fill="#FCFCFC"/>
<path d="M142.262 108.827C143.359 108.827 144.248 107.941 144.248 106.847C144.248 105.753 143.359 104.866 142.262 104.866C141.165 104.866 140.276 105.753 140.276 106.847C140.276 107.941 141.165 108.827 142.262 108.827Z" fill="#FCFCFC"/>
<path d="M147.935 108.827C149.031 108.827 149.92 107.941 149.92 106.847C149.92 105.753 149.031 104.866 147.935 104.866C146.838 104.866 145.949 105.753 145.949 106.847C145.949 107.941 146.838 108.827 147.935 108.827Z" fill="#FCFCFC"/>
</g>
<g filter="url(#filter2_d_1770_5582)">
<path fill-rule="evenodd" clip-rule="evenodd" d="M172.046 73.696C172.046 71.2208 174.06 69.2139 176.545 69.2139H311.913C314.398 69.2139 316.412 71.2208 316.412 73.696V163.84C316.412 166.316 314.398 168.322 311.913 168.322H176.545C174.06 168.322 172.046 166.316 172.046 163.84V73.696Z" fill="#658989"/>
</g>
<path fill-rule="evenodd" clip-rule="evenodd" d="M196.461 120.039V155.486H191.153V120.039H196.461Z" fill="#FFFCFB"/>
<path fill-rule="evenodd" clip-rule="evenodd" d="M196.461 128.51V155.485H191.153V128.51H196.461Z" fill="#FFE0CD"/>
<path fill-rule="evenodd" clip-rule="evenodd" d="M196.461 145.451V155.485H191.153V145.451H196.461Z" fill="#FBBF9A"/>
<path fill-rule="evenodd" clip-rule="evenodd" d="M209.199 111.568V155.486H203.892V111.568H209.199Z" fill="#FFFCFB"/>
<path fill-rule="evenodd" clip-rule="evenodd" d="M209.199 124.274V155.486H203.892V124.274H209.199Z" fill="#FFE0CD"/>
<path fill-rule="evenodd" clip-rule="evenodd" d="M209.199 145.452V155.486H203.892V145.452H209.199Z" fill="#FBBF9A"/>
<path fill-rule="evenodd" clip-rule="evenodd" d="M221.937 117.921V155.485H216.63V117.921H221.937Z" fill="#FFFCFB"/>
<path fill-rule="evenodd" clip-rule="evenodd" d="M221.937 130.627V155.485H216.63V130.627H221.937Z" fill="#FFE0CD"/>
<path fill-rule="evenodd" clip-rule="evenodd" d="M221.937 147.569V155.486H216.63V147.569H221.937Z" fill="#FBBF9A"/>
<path fill-rule="evenodd" clip-rule="evenodd" d="M234.676 107.333V155.486H229.368V107.333H234.676Z" fill="#FFFCFB"/>
<path fill-rule="evenodd" clip-rule="evenodd" d="M234.676 120.039V155.486H229.368V120.039H234.676Z" fill="#FFE0CD"/>
<path fill-rule="evenodd" clip-rule="evenodd" d="M234.676 136.981V155.486H229.368V136.981H234.676Z" fill="#FBBF9A"/>
<path fill-rule="evenodd" clip-rule="evenodd" d="M247.413 98.8623V155.486H242.105V98.8623H247.413Z" fill="#FFFCFB"/>
<path fill-rule="evenodd" clip-rule="evenodd" d="M247.413 115.804V155.486H242.105V115.804H247.413Z" fill="#FFE0CD"/>
<path fill-rule="evenodd" clip-rule="evenodd" d="M247.413 141.217V155.486H242.105V141.217H247.413Z" fill="#FBBF9A"/>
<path fill-rule="evenodd" clip-rule="evenodd" d="M260.153 111.568V155.486H254.845V111.568H260.153Z" fill="#FFFCFB"/>
<path fill-rule="evenodd" clip-rule="evenodd" d="M260.153 124.274V155.486H254.845V124.274H260.153Z" fill="#FFE0CD"/>
<path fill-rule="evenodd" clip-rule="evenodd" d="M260.153 143.758V155.486H254.845V143.758H260.153Z" fill="#FBBF9A"/>
<path fill-rule="evenodd" clip-rule="evenodd" d="M272.89 115.804V155.486H267.583V115.804H272.89Z" fill="#FFFCFB"/>
<path fill-rule="evenodd" clip-rule="evenodd" d="M272.89 124.274V155.486H267.583V124.274H272.89Z" fill="#FFE0CD"/>
<path fill-rule="evenodd" clip-rule="evenodd" d="M272.89 140.793V155.486H267.583V140.793H272.89Z" fill="#FBBF9A"/>
<path fill-rule="evenodd" clip-rule="evenodd" d="M285.629 107.333V155.486H280.321V107.333H285.629Z" fill="#FFFCFB"/>
<path fill-rule="evenodd" clip-rule="evenodd" d="M285.629 124.274V155.486H280.321V124.274H285.629Z" fill="#FFE0CD"/>
<path fill-rule="evenodd" clip-rule="evenodd" d="M285.629 145.027V155.485H280.321V145.027H285.629Z" fill="#FBBF9A"/>
<path fill-rule="evenodd" clip-rule="evenodd" d="M298.366 115.804V155.486H293.059V115.804H298.366Z" fill="#FFFCFB"/>
<path fill-rule="evenodd" clip-rule="evenodd" d="M298.366 124.274V155.486H293.059V124.274H298.366Z" fill="#FFE0CD"/>
<path fill-rule="evenodd" clip-rule="evenodd" d="M298.366 145.028V155.486H293.059V145.028H298.366Z" fill="#FBBF9A"/>
<path opacity="0.57573" fill-rule="evenodd" clip-rule="evenodd" d="M189.455 87.4261C189.455 86.7242 190.026 86.1553 190.731 86.1553H233.188C233.892 86.1553 234.463 86.7242 234.463 87.4261C234.463 88.1275 233.892 88.6964 233.188 88.6964H190.731C190.026 88.6964 189.455 88.1275 189.455 87.4261Z" fill="#F7F7F7"/>
<path d="M211.958 78.9551H190.73C190.026 78.9551 189.455 79.524 189.455 80.2257C189.455 80.9275 190.026 81.4963 190.73 81.4963H211.958C212.662 81.4963 213.233 80.9275 213.233 80.2257C213.233 79.524 212.662 78.9551 211.958 78.9551Z" fill="#DEDEDE"/>
<defs>
<filter id="filter0_d_1770_5582" x="34.6104" y="42.291" width="137.626" height="86.7998" filterUnits="userSpaceOnUse" color-interpolation-filters="sRGB">
<feFlood flood-opacity="0" result="BackgroundImageFix"/>
<feColorMatrix in="SourceAlpha" type="matrix" values="0 0 0 0 0 0 0 0 0 0 0 0 0 0 0 0 0 0 127 0" result="hardAlpha"/>
<feOffset dx="8" dy="9"/>
<feGaussianBlur stdDeviation="14"/>
<feColorMatrix type="matrix" values="0 0 0 0 0.0862745 0 0 0 0 0.113725 0 0 0 0 0.192157 0 0 0 0.7 0"/>
<feBlend mode="normal" in2="BackgroundImageFix" result="effect1_dropShadow_1770_5582"/>
<feBlend mode="normal" in="SourceGraphic" in2="effect1_dropShadow_1770_5582" result="shape"/>
</filter>
<filter id="filter1_d_1770_5582" x="34.6104" y="77.377" width="157.551" height="141.45" filterUnits="userSpaceOnUse" color-interpolation-filters="sRGB">
<feFlood flood-opacity="0" result="BackgroundImageFix"/>
<feColorMatrix in="SourceAlpha" type="matrix" values="0 0 0 0 0 0 0 0 0 0 0 0 0 0 0 0 0 0 127 0" result="hardAlpha"/>
<feOffset dx="8" dy="9"/>
<feGaussianBlur stdDeviation="14"/>
<feColorMatrix type="matrix" values="0 0 0 0 0.0862745 0 0 0 0 0.113725 0 0 0 0 0.192157 0 0 0 0.7 0"/>
<feBlend mode="normal" in2="BackgroundImageFix" result="effect1_dropShadow_1770_5582"/>
<feBlend mode="normal" in="SourceGraphic" in2="effect1_dropShadow_1770_5582" result="shape"/>
</filter>
<filter id="filter2_d_1770_5582" x="162.046" y="59.2139" width="176.366" height="131.108" filterUnits="userSpaceOnUse" color-interpolation-filters="sRGB">
<feFlood flood-opacity="0" result="BackgroundImageFix"/>
<feColorMatrix in="SourceAlpha" type="matrix" values="0 0 0 0 0 0 0 0 0 0 0 0 0 0 0 0 0 0 127 0" result="hardAlpha"/>
<feOffset dx="6" dy="6"/>
<feGaussianBlur stdDeviation="8"/>
<feColorMatrix type="matrix" values="0 0 0 0 0.0862745 0 0 0 0 0.113725 0 0 0 0 0.192157 0 0 0 0.7 0"/>
<feBlend mode="normal" in2="BackgroundImageFix" result="effect1_dropShadow_1770_5582"/>
<feBlend mode="normal" in="SourceGraphic" in2="effect1_dropShadow_1770_5582" result="shape"/>
</filter>
</defs>
</svg>
