<svg width="24" height="24" viewBox="0 0 24 24" fill="none" xmlns="http://www.w3.org/2000/svg">
<path d="M16.5 12.5C16.5 12.2033 16.588 11.9133 16.7528 11.6666C16.9176 11.42 17.1519 11.2277 17.426 11.1142C17.7001 11.0006 18.0017 10.9709 18.2926 11.0288C18.5836 11.0867 18.8509 11.2296 19.0607 11.4393C19.2704 11.6491 19.4133 11.9164 19.4712 12.2074C19.5291 12.4983 19.4994 12.7999 19.3858 13.074C19.2723 13.3481 19.08 13.5824 18.8334 13.7472C18.5867 13.912 18.2967 14 18 14C17.6022 14 17.2206 13.842 16.9393 13.5607C16.658 13.2794 16.5 12.8978 16.5 12.5ZM10.5 12.5C10.5 12.2033 10.588 11.9133 10.7528 11.6666C10.9176 11.42 11.1519 11.2277 11.426 11.1142C11.7001 11.0006 12.0017 10.9709 12.2926 11.0288C12.5836 11.0867 12.8509 11.2296 13.0607 11.4393C13.2704 11.6491 13.4133 11.9164 13.4712 12.2074C13.5291 12.4983 13.4994 12.7999 13.3858 13.074C13.2723 13.3481 13.08 13.5824 12.8334 13.7472C12.5867 13.912 12.2967 14 12 14C11.6022 14 11.2206 13.842 10.9393 13.5607C10.658 13.2794 10.5 12.8978 10.5 12.5ZM4.5 12.5C4.5 12.2033 4.58797 11.9133 4.7528 11.6666C4.91762 11.42 5.15189 11.2277 5.42597 11.1142C5.70006 11.0006 6.00166 10.9709 6.29264 11.0288C6.58361 11.0867 6.85088 11.2296 7.06066 11.4393C7.27044 11.6491 7.4133 11.9164 7.47118 12.2074C7.52906 12.4983 7.49935 12.7999 7.38582 13.074C7.27229 13.3481 7.08003 13.5824 6.83336 13.7472C6.58668 13.912 6.29667 14 6 14C5.60218 14 5.22064 13.842 4.93934 13.5607C4.65804 13.2794 4.5 12.8978 4.5 12.5V12.5Z" fill="#949494"/>
</svg>
