<svg width="538" height="359" viewBox="0 0 538 359" fill="none" xmlns="http://www.w3.org/2000/svg">
<path d="M97.6157 296.889C99.2734 309.757 101.451 320.313 103.132 327.551H425.111C441.568 311.273 444.146 298.543 443.838 290.361C443.003 268.493 420.973 263.092 411.609 231.515C406.247 213.406 408.317 197.683 409.431 189.232C413.49 158.422 426.889 153.896 430.336 129.516C430.65 127.274 435.343 89.8659 409.866 62.8201C400.72 53.145 389.665 46.7997 378.158 43.0464L377.838 42.9434L377.032 42.6917C367.235 39.6903 357.009 38.3368 346.77 38.6866H346.358C346.118 38.6866 345.878 38.6866 345.644 38.7209C340.731 38.9237 335.845 39.5478 331.039 40.5861C306.893 45.8786 308.368 57.7909 284.005 62.3796C254.435 67.9295 225.557 55.4164 210.409 48.8595C185.177 37.9256 179.112 28.4678 163.81 30.5505C149.611 32.4901 136.881 43.0864 130.278 54.9644C117.217 78.4228 134.457 95.4902 129.838 130.809C126.077 159.635 113.89 153.696 102.4 191.836C89.5558 234.501 94.8033 275.119 97.6157 296.889Z" fill="#E9F1F1"/>
<path d="M226.62 282.213L226.746 286.407L218.783 293.737L209.351 288.364L217.377 277.127L226.62 282.213Z" fill="#FBBF9A"/>
<path d="M217.377 277.127L218.492 277.739L210.494 288.936L218.834 293.691L218.783 293.742L209.351 288.364L217.377 277.127Z" fill="#BE8F71"/>
<path d="M209.123 287.375C209.123 287.375 200.548 297.633 200.32 297.673C200.194 297.713 199.691 299.453 199.296 300.866C199.152 301.394 199.186 301.955 199.393 302.462C199.6 302.969 199.968 303.393 200.44 303.67L230.736 321.727C231.269 322.049 231.905 322.158 232.515 322.032C233.126 321.906 233.666 321.553 234.028 321.046L235.343 319.221C235.827 318.552 236.081 317.744 236.066 316.919C236.052 316.093 235.77 315.295 235.263 314.643L220.338 295.35C220.084 295.021 219.916 294.633 219.851 294.222C219.786 293.811 219.826 293.39 219.966 292.999L209.757 287.546L209.123 287.375Z" fill="#F4C584"/>
<path d="M200.319 297.696C200.537 297.633 209.122 287.397 209.122 287.397L209.723 287.586L211.437 288.496C208.939 291.471 204.406 296.849 204.252 296.895C204.098 296.941 203.623 298.669 203.223 300.082C203.079 300.611 203.113 301.173 203.319 301.681C203.526 302.189 203.894 302.614 204.366 302.891L234.251 320.708L233.994 321.069C233.631 321.576 233.091 321.928 232.481 322.055C231.87 322.181 231.235 322.072 230.701 321.75L200.405 303.692C199.933 303.416 199.565 302.992 199.358 302.485C199.152 301.978 199.118 301.417 199.262 300.889C199.691 299.476 200.194 297.731 200.319 297.696Z" fill="#C9A676"/>
<path d="M217.377 277.127L226.62 282.213L226.746 286.407" fill="#FF8189"/>
<path d="M217.377 277.127L226.62 282.213L226.746 286.407" fill="#FF8189"/>
<path d="M273.705 289.223L274.716 291.174L270.583 310.181L260.866 311.817L259.402 308.996L260.546 289.48C260.546 289.48 264.839 287.369 265.033 287.409C265.227 287.449 273.705 289.223 273.705 289.223Z" fill="#FBBF9A"/>
<path d="M260.563 289.48C260.563 289.48 264.856 287.369 265.05 287.409L266.142 287.638C264.913 288.175 262.261 289.48 262.261 289.48L261.117 308.996L262.444 311.554L260.866 311.817L259.403 308.996L260.563 289.48Z" fill="#BE8F71"/>
<path d="M258.797 309.139C258.797 309.139 256.51 322.677 256.356 322.843C256.202 323.009 256.727 324.742 257.105 326.201C257.249 326.743 257.568 327.223 258.013 327.565C258.457 327.908 259.002 328.094 259.563 328.095L295.718 328.347C296.353 328.353 296.967 328.122 297.441 327.699C297.915 327.275 298.213 326.69 298.279 326.058L298.496 323.769C298.576 322.926 298.381 322.079 297.938 321.357C297.496 320.635 296.831 320.076 296.044 319.764L272.83 310.444C272.436 310.285 272.088 310.029 271.818 309.7C271.548 309.371 271.365 308.98 271.287 308.562L259.426 309.042L258.797 309.139Z" fill="#F4C584"/>
<path d="M259.426 308.996L261.872 308.893C261.226 312.681 259.9 320.439 259.78 320.565C259.66 320.691 260.146 322.465 260.529 323.924C260.673 324.466 260.992 324.946 261.436 325.289C261.881 325.631 262.426 325.817 262.987 325.817L298.273 326.058C298.208 326.689 297.91 327.273 297.438 327.696C296.965 328.119 296.352 328.351 295.718 328.346L259.563 328.095C259.002 328.094 258.458 327.907 258.013 327.565C257.569 327.223 257.25 326.743 257.105 326.201C256.728 324.742 256.265 322.945 256.356 322.842C256.448 322.739 258.797 309.139 258.797 309.139L259.426 308.996Z" fill="#C9A676"/>
<path d="M183.771 232.024L197.547 234.084L198.427 234.215L222.436 237.797L227.346 238.529L264.604 245.939L264.29 248.8L259.763 289.857L261.38 290.001L275.248 291.213L286.052 242.786C286.823 239.306 286.262 235.664 284.481 232.577C282.7 229.49 279.828 227.184 276.431 226.114L210.883 205.31L208.254 204.618L205.881 203.994L190.447 200.521L189.71 204L186.972 216.862L183.771 232.024Z" fill="#64A393"/>
<path d="M227.346 238.529L264.604 245.939L259.762 289.869L261.38 290.012L265.57 254.67C265.791 252.835 266.668 251.142 268.04 249.904C268.858 249.122 269.72 248.389 270.623 247.707C270.743 247.707 272.618 244.411 274.282 241.413C275.003 239.975 275.385 238.391 275.398 236.782C275.41 235.173 275.054 233.582 274.356 232.133C273.152 229.743 271.12 227.874 268.64 226.875L205.395 206.185L201.451 205.756C200.148 215.185 198.84 224.618 197.53 234.055L227.346 238.529Z" fill="#5A9687"/>
<path d="M170.789 217.64C170.792 221.486 171.292 225.314 172.276 229.032L184 234.21L194.632 238.907L224.928 240.051L235.823 242.655L241.625 244.045L216.319 277.23L217.194 277.997L227.157 286.722L264.313 248.765L267.857 245.167C269.133 243.863 270.06 242.257 270.55 240.499C271.04 238.741 271.078 236.888 270.66 235.111C270.243 233.334 269.383 231.692 268.162 230.337C266.94 228.982 265.396 227.958 263.673 227.361L204.144 206.706L201.486 205.785C197.613 204.937 193.689 204.341 189.739 204C182.056 203.353 173.162 203.84 171.801 209.178C171.409 210.709 171.135 212.268 170.984 213.841C170.855 215.103 170.79 216.371 170.789 217.64Z" fill="#64A393"/>
<path d="M173.099 221.045C174.098 221.982 175.194 222.811 176.368 223.516C176.368 223.516 178.226 224.746 179.798 225.547C181.244 226.297 183.028 226.463 184.994 226.366C188.23 226.217 191.974 225.364 195.552 225.256C196.632 225.211 197.713 225.267 198.782 225.422C202.949 226.051 203.664 228.208 209.997 228.311C218.389 228.443 220.018 224.701 226.397 225.765C231.456 226.612 237.784 230.188 238.664 234.845C239.013 236.687 238.493 238.61 237.372 240.521C237.241 240.738 237.109 240.95 236.961 241.167L247.93 243.713L242.786 244.589L217.194 278.043L216.319 277.276L241.625 244.091L235.823 242.701L224.928 240.097L194.632 238.953L184 234.256L172.276 229.078C171.292 225.36 170.792 221.531 170.789 217.686C171.357 218.932 172.139 220.069 173.099 221.045Z" fill="#5A9687"/>
<path d="M170.978 213.83C172.384 214.184 173.653 213.721 175.957 214.007C179.386 214.442 179.849 215.895 182.816 216.627C184.18 216.954 185.592 217.029 186.983 216.851C188.825 216.595 190.618 216.061 192.299 215.266C196.535 213.4 196.935 211.221 201.097 208.446C201.617 208.097 202.194 207.742 202.846 207.376C203.309 207.118 203.732 206.895 204.126 206.695C204.521 206.495 204.892 206.329 205.224 206.186C207.179 205.339 208.048 205.27 208.271 204.606L205.898 203.983L190.464 200.51L189.727 203.988C182.044 203.342 173.15 203.828 171.789 209.167C171.399 210.697 171.127 212.257 170.978 213.83Z" fill="#5A9687"/>
<path d="M291.231 170.134L293.58 174.5C293.639 174.62 293.666 174.752 293.66 174.886C293.654 175.019 293.614 175.149 293.544 175.263C293.475 175.377 293.378 175.472 293.262 175.538C293.147 175.605 293.016 175.641 292.883 175.644H289.944C289.826 175.644 289.708 175.618 289.601 175.566C289.495 175.515 289.401 175.44 289.327 175.346L288.755 174.626C288.687 174.543 288.602 174.475 288.507 174.427C288.411 174.378 288.307 174.349 288.2 174.342C288.093 174.335 287.986 174.35 287.884 174.386C287.783 174.422 287.691 174.478 287.612 174.551L286.726 175.421C286.65 175.494 286.561 175.551 286.463 175.589C286.364 175.628 286.26 175.646 286.155 175.644H284.228C284.114 175.644 284 175.619 283.897 175.571C283.793 175.522 283.701 175.452 283.628 175.364L283.056 174.683C282.98 174.593 282.884 174.522 282.777 174.474C282.669 174.426 282.553 174.403 282.435 174.406C282.317 174.409 282.202 174.437 282.097 174.49C281.992 174.543 281.9 174.619 281.827 174.711C281.701 174.874 281.516 174.98 281.313 175.009C281.109 175.038 280.902 174.986 280.736 174.866L279.215 173.722C279.116 173.649 279.035 173.554 278.979 173.444C278.924 173.334 278.895 173.212 278.895 173.089C278.895 172.966 278.924 172.845 278.979 172.735C279.035 172.625 279.116 172.53 279.215 172.457L283.268 169.396C283.418 169.281 283.605 169.224 283.794 169.236L290.613 169.676C290.747 169.693 290.874 169.743 290.982 169.824C291.091 169.904 291.176 170.011 291.231 170.134Z" fill="#BE8F71"/>
<path d="M230.307 179.386L218.932 142.848C218.403 141.157 217.372 139.668 215.976 138.579L213.433 136.594C212.283 135.701 210.928 135.111 209.492 134.879C208.056 134.647 206.584 134.78 205.213 135.267L201.783 136.48C200.246 137.025 198.895 137.994 197.884 139.275C196.872 140.555 196.243 142.095 196.067 143.717C195.89 145.331 196.169 146.963 196.873 148.426L216.411 189.049C217.433 191.171 219.195 192.846 221.364 193.759C223.534 194.671 225.962 194.758 228.192 194.004L256.139 184.558L252.263 173.647L230.307 179.386Z" fill="#39B9CE"/>
<path opacity="0.12" d="M198.747 138.333C198.001 139.477 197.533 140.78 197.381 142.138C197.209 143.751 197.49 145.38 198.193 146.841L217.731 187.465C218.751 189.587 220.511 191.263 222.68 192.177C224.849 193.09 227.277 193.179 229.507 192.425L255.773 183.505L256.133 184.518L228.186 193.964C225.96 194.719 223.535 194.634 221.367 193.726C219.199 192.818 217.437 191.149 216.411 189.032L196.872 148.409C196.169 146.946 195.89 145.315 196.066 143.7C196.294 141.649 197.245 139.747 198.747 138.333Z" fill="black"/>
<path d="M250.937 175.215L228.986 180.971L217.605 144.427C217.078 142.738 216.049 141.249 214.656 140.159L212.106 138.179C210.958 137.283 209.604 136.692 208.167 136.459C206.73 136.226 205.258 136.359 203.886 136.846L200.457 138.059C199.325 138.46 198.289 139.093 197.415 139.918C198.451 138.324 199.985 137.117 201.777 136.485L205.207 135.273C206.578 134.784 208.05 134.648 209.488 134.878C210.925 135.108 212.282 135.696 213.432 136.588L215.976 138.574C217.372 139.663 218.403 141.152 218.931 142.842L230.307 179.38L252.257 173.624L256.133 184.535L254.447 185.107L250.937 175.215Z" fill="#4CCAD8"/>
<path d="M250.091 176.096L252.475 174.236L269.732 169.848L286.532 167.64C286.622 167.62 286.716 167.62 286.806 167.64L296.673 169.819C296.788 169.842 296.897 169.891 296.991 169.961C297.086 170.031 297.163 170.122 297.218 170.226C297.273 170.331 297.303 170.446 297.308 170.563C297.313 170.681 297.291 170.798 297.244 170.907L296.895 171.719C296.828 171.875 296.712 172.005 296.564 172.089C296.417 172.174 296.247 172.208 296.078 172.188L285.217 170.935C285.038 170.912 284.855 170.952 284.703 171.05L279.724 174.185C279.627 174.245 279.544 174.326 279.481 174.422C279.418 174.518 279.377 174.626 279.36 174.739C279.344 174.852 279.351 174.968 279.384 175.078C279.416 175.187 279.471 175.289 279.547 175.375L280.541 176.519C280.613 176.601 280.7 176.668 280.799 176.714C280.897 176.76 281.004 176.786 281.113 176.788H284.926C285.044 176.789 285.161 176.816 285.268 176.867C285.375 176.919 285.469 176.993 285.543 177.086L286.469 178.23C286.556 178.339 286.613 178.469 286.634 178.607C286.654 178.746 286.638 178.887 286.586 179.016C286.534 179.146 286.449 179.26 286.339 179.346C286.229 179.432 286.099 179.487 285.96 179.506L280.919 180.204C279.602 180.387 278.261 180.268 276.997 179.855L270.498 177.738L255.213 183.689L250.091 176.096Z" fill="#EABBB8"/>
<path d="M284.691 171.061L279.712 174.197C279.665 174.223 279.622 174.258 279.587 174.3L279.535 174.242C279.46 174.156 279.404 174.055 279.372 173.945C279.34 173.835 279.332 173.719 279.349 173.606C279.366 173.493 279.407 173.385 279.47 173.289C279.533 173.194 279.615 173.113 279.712 173.052L284.691 169.917C284.844 169.819 285.026 169.779 285.206 169.802L296.067 171.055C296.235 171.076 296.406 171.041 296.553 170.956C296.7 170.872 296.816 170.742 296.884 170.586L297.101 170.083C297.201 170.194 297.267 170.333 297.29 170.481C297.314 170.629 297.294 170.781 297.233 170.918L296.884 171.731C296.816 171.886 296.7 172.016 296.553 172.101C296.406 172.185 296.235 172.22 296.067 172.2L285.206 170.947C285.026 170.923 284.844 170.964 284.691 171.061Z" fill="#FF8189"/>
<path d="M255.224 182.567L270.509 176.64L277.003 178.734C278.267 179.146 279.608 179.265 280.924 179.083L285.966 178.385C286.132 178.361 286.287 178.285 286.406 178.167L286.475 178.253C286.562 178.362 286.619 178.492 286.639 178.63C286.66 178.768 286.643 178.91 286.592 179.039C286.54 179.169 286.455 179.283 286.345 179.369C286.235 179.455 286.104 179.51 285.966 179.529L280.924 180.227C279.608 180.41 278.267 180.29 277.003 179.878L270.504 177.761L255.218 183.711L250.074 176.096L250.577 175.701L255.224 182.567Z" fill="#BE8F71"/>
<path d="M170.549 209.87C170.904 210.042 171.258 210.213 171.612 210.374C180.758 214.533 186.646 213.984 190.476 212.485C193.82 211.175 197.038 208.56 203.458 206.729C203.795 206.626 204.149 206.534 204.504 206.443C205.887 206.088 207.173 205.836 208.294 205.665C209.311 205.487 210.191 205.384 210.917 205.31C211.775 200.332 212.632 195.372 213.478 190.394C214.218 186.107 214.951 181.819 215.679 177.532C215.805 176.857 215.919 176.193 216.033 175.518C216.091 175.175 216.148 174.843 216.205 174.494L217.171 161.408C217.404 158.308 217.36 155.192 217.039 152.099C216.154 143.345 213.101 134.95 208.156 127.674C207.482 126.661 206.756 125.677 206.001 124.716L204.858 123.268L187.967 117.387C186.52 119.414 184.7 121.146 182.605 122.49C179.518 124.447 177.374 124.487 175.048 127.068C174.037 128.134 173.259 129.398 172.761 130.781C171.561 134.786 172.11 140.044 172.144 140.834V140.897C172.144 141.629 172.43 177.423 172.43 178.298C172.43 178.916 171.481 194.479 170.932 203.525C170.681 207.244 170.549 209.87 170.549 209.87Z" fill="#39B9CE"/>
<path d="M189.327 212.485C192.671 211.175 195.89 208.56 202.315 206.729C202.646 206.626 203.001 206.534 203.355 206.443C204.744 206.088 206.024 205.836 207.151 205.665C208.168 205.487 209.048 205.384 209.769 205.31C210.632 200.332 211.483 195.372 212.335 190.394C213.067 186.106 213.8 181.819 214.536 177.532C214.662 176.857 214.776 176.193 214.89 175.518C214.948 175.174 215.005 174.843 215.062 174.494L216.022 161.408C216.917 149.46 213.741 137.561 207.013 127.651C206.331 126.637 205.613 125.651 204.858 124.693L203.715 123.246L187.71 117.678C187.795 117.57 187.875 117.472 187.955 117.364L204.847 123.246L205.99 124.693C206.745 125.654 207.471 126.638 208.145 127.651C213.09 134.927 216.143 143.322 217.028 152.077C217.349 155.169 217.393 158.285 217.16 161.385L216.194 174.471C216.137 174.82 216.079 175.152 216.022 175.495C215.908 176.17 215.794 176.834 215.668 177.509C214.936 181.8 214.203 186.087 213.467 190.371C212.61 195.349 211.752 200.309 210.906 205.287C210.18 205.361 209.3 205.464 208.282 205.642C207.139 205.813 205.876 206.065 204.493 206.42C204.138 206.511 203.784 206.603 203.446 206.706C197.027 208.537 193.809 211.152 190.465 212.462C188.328 213.275 186.049 213.647 183.765 213.555C185.667 213.522 187.549 213.16 189.327 212.485Z" fill="#4CCAD8"/>
<path d="M190.585 125.912L198.016 130.569C198.873 131.104 199.864 131.382 200.874 131.37H201.726C201.857 131.37 204.63 131.525 206.167 129.242C206.99 128.035 207.385 126.227 206.739 124.934C206.379 124.247 205.893 124.041 204.91 122.565C204.618 122.119 204.389 121.735 204.229 121.421C204.193 121.368 204.161 121.312 204.132 121.255L202.926 113.245L189.276 103.323L188.578 102.82L187.435 119.653C187.35 120.883 187.598 122.113 188.152 123.215C188.706 124.316 189.547 125.248 190.585 125.912Z" fill="#EABBB8"/>
<path d="M195.426 111.883C197.713 115.539 198.233 117.679 201.04 119.67C202.002 120.416 203.074 121.009 204.218 121.426C204.182 121.373 204.149 121.318 204.121 121.26L202.914 113.25L189.264 103.329C188.664 104.834 191.613 105.858 195.426 111.883Z" fill="#BE8F71"/>
<path d="M218.251 89.0995L215.965 101.527V107.7C215.967 108.137 215.88 108.57 215.708 108.972C215.537 109.374 215.284 109.737 214.967 110.037C214.65 110.337 214.274 110.569 213.864 110.719C213.453 110.868 213.017 110.931 212.581 110.904C212.581 110.904 213.473 116.368 211.666 118.709C209.86 121.049 203.269 122.176 198.244 114.372C193.22 106.567 185.6 105.034 183.885 96.4688C182.17 87.9037 182.039 77.8451 187.835 73.7142C193.631 69.5832 205.247 67.8439 208.86 71.0765C212.472 74.3092 218.343 76.2145 218.251 89.0995Z" fill="#EABBB8"/>
<path d="M214.222 110.401V104.221L216.479 91.794C216.571 78.9148 210.763 77.0095 207.139 73.7768C203.515 70.5442 191.911 72.2778 186.115 76.4088C185.573 76.8053 185.075 77.2579 184.628 77.759C185.354 76.1477 186.485 74.7521 187.91 73.7082C193.706 69.5772 205.321 67.8436 208.934 71.0763C212.547 74.3089 218.366 76.2257 218.274 89.0992L215.988 101.526V107.7C215.985 108.299 215.813 108.885 215.493 109.391C215.172 109.897 214.716 110.303 214.176 110.561C214.21 110.521 214.222 110.463 214.222 110.401Z" fill="#BE8F71"/>
<path d="M210.832 113.605C211.544 113.644 212.249 113.443 212.833 113.033C212.913 114.829 212.793 117.312 211.718 118.703C211.445 119.044 211.114 119.335 210.74 119.561C211.381 116.986 210.832 113.605 210.832 113.605Z" fill="#BE8F71"/>
<path d="M220.629 58.9812C225.202 61.1267 225.443 67.6493 225.494 68.8623C225.797 76.2088 220.721 85.9354 212.478 86.5991C206.567 87.0912 202.097 82.6856 201.103 81.6614C200.827 83.8995 199.768 85.9673 198.113 87.4974C196.963 88.5251 195.573 89.2472 194.072 89.5972C194.072 89.4485 193.895 87.383 192.574 86.828C191.254 86.273 189.579 87.5832 188.836 88.6246C186.28 92.1834 189.51 99.3983 191.602 99.4097C191.83 99.3863 192.05 99.3139 192.248 99.1973C192.445 99.0808 192.615 98.9229 192.746 98.7346C192.625 99.3525 192.523 100.005 192.448 100.68C192.144 103.379 192.27 106.11 192.82 108.77C189.953 107.687 187.296 106.115 184.966 104.124C181.32 101 178.603 96.9325 177.112 92.3665C176.403 90.1751 173.167 80.1166 178.684 73.8687C179.945 72.4638 181.508 71.3643 183.257 70.6531C186.076 67.0536 190.032 64.518 194.478 63.4611C204.127 61.2869 211.535 67.5349 212.358 68.2558C210.643 65.7212 210.586 62.5686 212.135 60.4688C214.17 57.6652 218.263 57.8655 220.629 58.9812Z" fill="#5B1C10"/>
<path d="M223.91 168.95L226.917 166.135L252.24 156.9C254.055 156.236 256.045 156.236 257.859 156.9L260.214 157.758C261.264 158.144 262.223 158.742 263.034 159.513C263.844 160.284 264.487 161.214 264.925 162.244C265.352 163.256 265.572 164.344 265.571 165.442V167.76C265.579 168.025 265.525 168.288 265.414 168.529C265.303 168.771 265.138 168.983 264.931 169.149C264.725 169.315 264.482 169.431 264.223 169.488C263.964 169.545 263.696 169.541 263.438 169.476C263.069 169.393 262.737 169.189 262.495 168.897C262.253 168.606 262.114 168.242 262.101 167.863L261.946 164.43L258.025 161.74L260.637 164.573L260.483 168.978C260.467 169.546 260.282 170.097 259.952 170.56C259.623 171.022 259.163 171.376 258.631 171.576L256.127 172.537C255.703 172.699 255.246 172.758 254.795 172.71C254.343 172.662 253.909 172.508 253.528 172.261C253.147 172.013 252.83 171.679 252.602 171.286C252.374 170.892 252.242 170.451 252.217 169.997L252.143 168.641L249.456 166.535L245.564 168.057L230.701 175.323L223.91 168.95Z" fill="#EABBB8"/>
<path d="M260.637 163.445L258.025 160.619L261.941 163.308L262.101 166.741C262.111 167.201 262.304 167.639 262.637 167.957C262.97 168.275 263.415 168.448 263.875 168.437C264.336 168.427 264.773 168.233 265.09 167.9C265.408 167.567 265.581 167.121 265.57 166.661V167.805C265.581 168.265 265.408 168.711 265.09 169.045C264.773 169.378 264.336 169.571 263.875 169.581C263.415 169.592 262.97 169.419 262.637 169.101C262.304 168.783 262.111 168.346 262.101 167.885L261.941 164.452L260.632 163.554L260.637 163.445Z" fill="#BE8F71"/>
<path d="M230.661 174.202L245.564 166.913L249.479 165.385L252.166 167.491L252.24 168.847C252.265 169.301 252.397 169.742 252.625 170.136C252.852 170.529 253.17 170.863 253.551 171.11C253.932 171.358 254.366 171.512 254.817 171.56C255.269 171.608 255.726 171.549 256.15 171.387L258.654 170.426C259.185 170.226 259.645 169.872 259.975 169.409C260.305 168.947 260.49 168.396 260.506 167.828L260.62 164.527L260.66 164.567L260.506 168.973C260.49 169.541 260.305 170.091 259.975 170.554C259.645 171.016 259.185 171.37 258.654 171.57L256.15 172.531C255.726 172.693 255.269 172.752 254.817 172.704C254.366 172.656 253.932 172.502 253.551 172.255C253.17 172.007 252.852 171.673 252.625 171.28C252.397 170.886 252.265 170.445 252.24 169.991L252.166 168.635L249.479 166.529L245.564 168.057L230.701 175.323L223.95 168.927L224.556 168.355L230.661 174.202Z" fill="#BE8F71"/>
<path d="M205.47 173.721L190.202 138.631C189.496 137.007 188.311 135.637 186.806 134.706L184.062 132.989C182.823 132.225 181.412 131.786 179.959 131.711C178.505 131.636 177.056 131.928 175.745 132.56L172.476 134.134C171.005 134.842 169.763 135.953 168.895 137.336C168.026 138.72 167.565 140.321 167.565 141.955C167.563 143.574 168.019 145.161 168.88 146.532L192.694 184.781C193.94 186.78 195.872 188.255 198.129 188.927C200.385 189.6 202.809 189.423 204.944 188.431L231.702 176.067L226.666 165.642L205.47 173.721Z" fill="#39B9CE"/>
<path opacity="0.12" d="M169.651 136.331C169.032 137.549 168.709 138.896 168.708 140.262C168.706 141.881 169.162 143.468 170.023 144.839L193.837 183.088C195.082 185.087 197.015 186.562 199.271 187.234C201.528 187.906 203.952 187.73 206.087 186.738L231.238 175.066L231.707 176.033L204.949 188.454C202.814 189.446 200.39 189.623 198.134 188.951C195.878 188.278 193.945 186.804 192.699 184.804L168.885 146.555C168.025 145.184 167.569 143.598 167.571 141.978C167.57 139.908 168.308 137.905 169.651 136.331Z" fill="black"/>
<path d="M225.522 167.336L204.327 175.438L189.058 140.347C188.353 138.723 187.168 137.354 185.663 136.422L182.919 134.706C181.68 133.942 180.269 133.502 178.815 133.427C177.362 133.352 175.913 133.644 174.602 134.277L171.332 135.85C170.251 136.372 169.29 137.113 168.509 138.024C169.368 136.326 170.762 134.959 172.476 134.134L175.745 132.583C177.056 131.951 178.505 131.659 179.959 131.734C181.412 131.809 182.823 132.248 184.062 133.012L186.806 134.729C188.311 135.66 189.496 137.029 190.202 138.654L205.47 173.721L226.666 165.619L231.702 176.067L230.09 176.817L225.522 167.336Z" fill="#4CCAD8"/>
<path d="M197.204 195.166H200.72V232.019H197.204V195.166Z" fill="white"/>
<path d="M199.611 200.727H197.204V195.166H200.72V232.019H199.611V200.727Z" fill="#EDF3F4"/>
<path d="M190.521 192.059H214.507C216.316 192.059 217.782 193.527 217.782 195.338C217.782 197.148 216.316 198.616 214.507 198.616H190.521C188.713 198.616 187.246 197.148 187.246 195.338C187.246 193.527 188.713 192.059 190.521 192.059Z" fill="#B6A68E"/>
<path d="M220.395 328.741C216.42 328.741 213.198 325.516 213.198 321.538C213.198 317.56 216.42 314.334 220.395 314.334C224.369 314.334 227.591 317.56 227.591 321.538C227.591 325.516 224.369 328.741 220.395 328.741Z" fill="#004F80"/>
<path d="M179.187 328.741C175.212 328.741 171.99 325.516 171.99 321.538C171.99 317.56 175.212 314.334 179.187 314.334C183.161 314.334 186.383 317.56 186.383 321.538C186.383 325.516 183.161 328.741 179.187 328.741Z" fill="#004F80"/>
<path d="M219.841 312.813L221.675 320.68C221.72 320.852 221.724 321.032 221.687 321.206C221.649 321.38 221.572 321.543 221.461 321.681C221.35 321.82 221.209 321.931 221.047 322.006C220.886 322.08 220.71 322.116 220.532 322.11C220.332 322.11 220.135 322.057 219.961 321.957C219.788 321.856 219.644 321.712 219.543 321.538L214.862 313.986C214.752 313.82 214.687 313.628 214.673 313.429C214.66 313.23 214.699 313.031 214.786 312.852C214.874 312.672 215.006 312.519 215.171 312.407C215.335 312.295 215.526 312.228 215.725 312.212L218.583 311.897C218.869 311.863 219.158 311.938 219.391 312.108C219.624 312.278 219.785 312.529 219.841 312.813Z" fill="#01496D"/>
<path d="M179.867 312.813L178.038 320.68C177.993 320.852 177.989 321.032 178.027 321.206C178.064 321.38 178.141 321.542 178.252 321.681C178.363 321.82 178.504 321.931 178.666 322.006C178.827 322.08 179.003 322.116 179.181 322.11C179.382 322.108 179.579 322.054 179.753 321.954C179.927 321.854 180.073 321.711 180.176 321.538L184.851 313.986C184.961 313.82 185.026 313.628 185.04 313.43C185.053 313.231 185.015 313.033 184.928 312.854C184.842 312.675 184.71 312.521 184.546 312.409C184.382 312.296 184.192 312.228 183.994 312.212L181.136 311.897C180.848 311.86 180.556 311.934 180.32 312.104C180.085 312.274 179.923 312.527 179.867 312.813Z" fill="#01496D"/>
<path d="M195.363 244.588H202.989V308.412H195.363V244.588Z" fill="white"/>
<path d="M200.765 249.034H195.358V244.588H202.989V308.407H200.765V249.034Z" fill="#EDF3F4"/>
<path d="M177.077 307.537H221.264C222.811 307.537 224.065 308.792 224.065 310.341C224.065 311.889 222.811 313.144 221.264 313.144H177.077C175.53 313.144 174.276 311.889 174.276 310.341C174.276 308.792 175.53 307.537 177.077 307.537Z" fill="white"/>
<path d="M220.732 312.566C220.732 311.823 220.437 311.11 219.912 310.584C219.387 310.058 218.674 309.763 217.931 309.763H174.345C174.476 309.133 174.82 308.568 175.319 308.163C175.818 307.758 176.441 307.537 177.083 307.537H221.264C221.632 307.537 221.996 307.61 222.336 307.751C222.676 307.891 222.984 308.098 223.245 308.358C223.505 308.619 223.711 308.928 223.852 309.268C223.992 309.608 224.065 309.972 224.065 310.341C224.065 310.709 223.992 311.073 223.852 311.414C223.711 311.754 223.505 312.063 223.245 312.323C222.984 312.583 222.676 312.79 222.336 312.931C221.996 313.072 221.632 313.144 221.264 313.144H220.692C220.726 312.954 220.74 312.76 220.732 312.566Z" fill="#EDF3F4"/>
<path d="M166.839 170.98C166.033 170.98 165.259 171.301 164.689 171.872C164.119 172.443 163.798 173.217 163.798 174.024V228.087C163.798 228.347 163.849 228.603 163.948 228.843C164.048 229.082 164.193 229.3 164.376 229.483C164.559 229.666 164.776 229.812 165.016 229.911C165.255 230.01 165.511 230.061 165.77 230.061H167.908C168.167 230.061 168.424 230.01 168.663 229.911C168.902 229.812 169.12 229.666 169.303 229.483C169.486 229.3 169.631 229.082 169.73 228.843C169.829 228.603 169.88 228.347 169.88 228.087V174.024C169.88 173.625 169.802 173.229 169.649 172.86C169.496 172.49 169.272 172.155 168.99 171.872C168.707 171.589 168.372 171.365 168.003 171.212C167.634 171.059 167.239 170.98 166.839 170.98Z" fill="#514846"/>
<path d="M167.662 228.082V174.024C167.662 173.413 167.477 172.817 167.132 172.313C166.788 171.808 166.299 171.42 165.73 171.198C166.083 171.056 166.459 170.982 166.839 170.98C167.239 170.98 167.634 171.059 168.003 171.212C168.372 171.365 168.707 171.589 168.99 171.872C169.272 172.155 169.496 172.49 169.649 172.86C169.802 173.229 169.88 173.625 169.88 174.024V228.082C169.881 228.341 169.831 228.598 169.732 228.838C169.633 229.078 169.488 229.296 169.304 229.479C169.121 229.663 168.903 229.808 168.664 229.907C168.424 230.006 168.168 230.056 167.908 230.056H165.73C166.247 230.045 166.738 229.833 167.099 229.463C167.46 229.094 167.663 228.598 167.662 228.082Z" fill="#514846"/>
<path d="M166.84 130.123C165.09 130.123 163.412 130.819 162.175 132.057C160.938 133.295 160.243 134.975 160.243 136.726V173C160.243 174.136 160.693 175.224 161.495 176.027C162.297 176.829 163.385 177.28 164.519 177.28H169.16C170.294 177.28 171.382 176.829 172.184 176.027C172.986 175.224 173.436 174.136 173.436 173V136.726C173.436 135.859 173.265 135 172.934 134.199C172.602 133.398 172.116 132.67 171.504 132.057C170.891 131.444 170.164 130.957 169.364 130.626C168.564 130.294 167.706 130.123 166.84 130.123Z" fill="#B6A68E"/>
<path d="M170.109 175.226V138.957C170.113 137.933 169.878 136.922 169.422 136.005C168.967 135.088 168.305 134.289 167.487 133.673C166.67 133.057 165.72 132.64 164.714 132.456C163.707 132.272 162.672 132.325 161.689 132.612C162.542 131.542 163.707 130.764 165.021 130.385C166.335 130.006 167.735 130.046 169.026 130.499C170.316 130.951 171.435 131.794 172.226 132.91C173.017 134.027 173.442 135.362 173.442 136.731V173.006C173.438 174.066 173.042 175.086 172.329 175.87C171.616 176.653 170.637 177.144 169.583 177.246C169.924 176.627 170.105 175.932 170.109 175.226Z" fill="#B6A68E"/>
<path d="M171.716 227.561C176.747 226.721 181.852 226.405 186.949 226.617C194.586 226.943 195.958 228.208 202.383 228.877C218.715 230.594 223.756 223.854 232.474 228.5C233.211 228.894 240.316 232.802 240.185 238.478C240.133 240.721 238.944 243.908 236.052 245.447C234.542 246.213 232.828 246.475 231.159 246.197H172.093C170.695 245.638 169.51 244.65 168.709 243.376C167.371 241.116 167.92 238.633 168.709 235.28C169.347 232.579 170.359 229.981 171.716 227.561Z" fill="#B6A68E"/>
<path d="M236.846 240.721C236.978 235.039 229.872 231.137 229.135 230.743C220.418 226.097 215.376 232.831 199.045 231.12C192.625 230.445 191.253 229.181 183.611 228.86C179.317 228.674 175.015 228.865 170.755 229.432C171.041 228.826 171.327 228.202 171.71 227.561C176.741 226.721 181.847 226.405 186.943 226.617C194.58 226.943 195.952 228.208 202.377 228.877C218.709 230.594 223.75 223.854 232.468 228.5C233.205 228.894 240.31 232.802 240.179 238.478C240.127 240.721 238.938 243.908 236.046 245.447C235.652 245.649 235.241 245.816 234.817 245.945C236.05 244.475 236.764 242.639 236.846 240.721Z" fill="#B6A68E"/>
<path d="M169.881 238.009C165.492 238.009 161.935 234.448 161.935 230.056C161.935 225.664 165.492 222.103 169.881 222.103C174.269 222.103 177.826 225.664 177.826 230.056C177.826 234.448 174.269 238.009 169.881 238.009Z" fill="white"/>
<path d="M169.88 234.21C167.588 234.21 165.73 232.35 165.73 230.056C165.73 227.762 167.588 225.902 169.88 225.902C172.172 225.902 174.03 227.762 174.03 230.056C174.03 232.35 172.172 234.21 169.88 234.21Z" fill="#EDF3F4"/>
<path d="M133.588 67.02C134.349 67.02 135.093 67.2458 135.725 67.669C136.358 68.0921 136.851 68.6935 137.142 69.3971C137.433 70.1007 137.51 70.8749 137.361 71.6218C137.213 72.3688 136.846 73.0549 136.308 73.5934C135.77 74.1319 135.085 74.4987 134.339 74.6472C133.592 74.7958 132.819 74.7196 132.116 74.4281C131.413 74.1367 130.812 73.6431 130.389 73.0099C129.967 72.3767 129.741 71.6322 129.741 70.8706C129.741 69.8494 130.146 68.87 130.868 68.1478C131.589 67.4257 132.568 67.02 133.588 67.02Z" fill="white"/>
<path d="M149.331 67.02C150.092 67.02 150.835 67.2458 151.468 67.669C152.101 68.0921 152.594 68.6935 152.885 69.3971C153.176 70.1007 153.252 70.8749 153.104 71.6218C152.955 72.3688 152.589 73.0549 152.051 73.5934C151.513 74.1319 150.827 74.4987 150.081 74.6472C149.335 74.7958 148.561 74.7196 147.858 74.4281C147.156 74.1367 146.555 73.6431 146.132 73.0099C145.709 72.3767 145.484 71.6322 145.484 70.8706C145.484 69.8494 145.889 68.87 146.61 68.1478C147.332 67.4257 148.31 67.02 149.331 67.02Z" fill="white"/>
<path d="M119.154 67.02C119.915 67.02 120.659 67.2458 121.292 67.669C121.924 68.0921 122.417 68.6935 122.709 69.3971C123 70.1007 123.076 70.8749 122.928 71.6218C122.779 72.3688 122.413 73.0549 121.875 73.5934C121.337 74.1319 120.651 74.4987 119.905 74.6472C119.159 74.7958 118.385 74.7196 117.682 74.4281C116.979 74.1367 116.378 73.6431 115.956 73.0099C115.533 72.3767 115.307 71.6322 115.307 70.8706C115.307 69.8494 115.713 68.87 116.434 68.1478C117.156 67.4257 118.134 67.02 119.154 67.02Z" fill="white"/>
<path d="M130.809 269.431L130.808 269.432L130.745 269.552C130.575 269.876 130.37 270.201 130.131 270.45C129.892 270.7 129.642 270.85 129.383 270.881C129.063 270.914 128.691 270.762 128.269 270.388C127.851 270.018 127.43 269.469 127.027 268.816C126.223 267.514 125.534 265.868 125.111 264.618C123.733 260.533 124.009 257.139 124.208 254.686C124.245 254.235 124.279 253.816 124.3 253.43M130.809 269.431L123.956 253.411M130.809 269.431C136.615 258.456 136.391 250.982 135.057 246.174L135.056 246.171C134.591 244.44 134.004 243.113 133.365 241.669C133.212 241.323 133.056 240.97 132.898 240.604C132.081 238.709 131.231 236.485 130.513 232.993M130.809 269.431L135.389 246.082C134.915 244.323 134.316 242.968 133.676 241.521C132.731 239.387 131.698 237.052 130.85 232.922M124.3 253.43L123.956 253.411M124.3 253.43C124.3 253.43 124.3 253.43 124.3 253.43L123.956 253.411M124.3 253.43C124.557 248.659 122.908 245.833 120.519 242.335C120.292 242.002 120.058 241.663 119.818 241.316C117.542 238.021 114.728 233.944 112.136 227.113L112.136 227.113C110.633 223.149 108.333 217.08 108.197 212.201L108.197 212.2C108.124 209.647 108.647 207.498 110.1 206.139L110.101 206.139C111.361 204.961 113.18 204.499 115.094 204.515C117.003 204.531 118.958 205.024 120.429 205.697L120.43 205.698C124.489 207.547 126.541 211.518 127.785 215.288L127.786 215.289C128.154 216.394 128.454 217.476 128.733 218.478C128.797 218.71 128.86 218.938 128.923 219.161M123.956 253.411C124.232 248.313 122.292 245.504 119.534 241.511C117.257 238.213 114.421 234.106 111.815 227.235L111.81 227.222C110.312 223.274 107.991 217.154 107.853 212.21C107.779 209.618 108.305 207.347 109.866 205.888C112.564 203.365 117.548 204 120.572 205.385C124.768 207.296 126.86 211.386 128.112 215.18C128.483 216.295 128.787 217.387 129.065 218.389C129.129 218.621 129.193 218.849 129.255 219.07M128.923 219.161C128.923 219.16 128.923 219.159 128.922 219.157L129.255 219.07M128.923 219.161C128.923 219.162 128.924 219.163 128.924 219.164L129.255 219.07M128.923 219.161C129.541 221.525 129.82 223.965 129.752 226.407L129.751 226.416L129.751 226.424C129.796 228.633 130.051 230.833 130.513 232.993M129.255 219.07C129.881 221.467 130.164 223.941 130.095 226.417C130.139 228.605 130.392 230.783 130.85 232.922M130.513 232.993C130.513 232.993 130.513 232.992 130.513 232.992L130.85 232.922M130.513 232.993C130.513 232.994 130.513 232.994 130.514 232.994L130.85 232.922" fill="#38A98E" stroke="#38A98E" stroke-width="0.687961"/>
<path d="M121.063 221.84C121.015 221.739 120.997 221.625 121.012 221.514C121.02 221.384 121.073 221.261 121.161 221.165C121.194 221.124 121.237 221.093 121.286 221.075C121.335 221.057 121.388 221.052 121.439 221.061C121.491 221.071 121.539 221.094 121.578 221.128C121.618 221.162 121.647 221.207 121.664 221.256C122.384 222.761 124.853 228.402 126.894 238.57C127.34 240.778 127.732 243.052 128.072 245.39C128.163 246.036 128.255 246.694 128.346 247.352C128.809 250.917 129.163 254.613 129.398 258.412C130.114 255.06 130.601 251.663 130.855 248.245V248.211C130.855 247.959 131.038 247.764 131.221 247.758C131.404 247.753 131.581 247.97 131.564 248.251C131.229 252.612 130.547 256.94 129.524 261.193C129.951 271.653 129.613 282.13 128.512 292.541C128.512 292.81 128.306 293.016 128.112 292.993C127.917 292.993 127.786 292.736 127.814 292.473C128.813 282.943 129.18 273.357 128.912 263.779C128.883 262.932 128.855 262.097 128.815 261.261V261.118C128.569 255.837 128.094 250.751 127.403 245.928C124.402 241.402 121.807 238.558 120.486 237.38C120.431 237.319 120.39 237.247 120.366 237.169C120.341 237.091 120.333 237.009 120.343 236.928C120.35 236.856 120.369 236.786 120.4 236.722C120.515 236.476 120.743 236.401 120.903 236.544C123.24 238.788 125.322 241.282 127.111 243.982C126.837 242.266 126.54 240.595 126.214 238.964C124.459 230.182 122.184 224.168 121.063 221.84Z" fill="#666B6F"/>
<path d="M118.246 267.158L118.246 267.158C119.429 268.933 120.524 270.766 121.524 272.651C121.981 272.21 122.399 271.731 122.775 271.22C124.654 268.646 125.194 265.531 125.137 262.516C125.08 259.5 124.427 256.62 123.952 254.535L123.952 254.534C122.831 249.569 121.095 246.217 119.09 242.391C116.921 238.263 115.137 234.866 113.274 232.368C111.414 229.876 109.51 228.326 107.12 227.829L106.929 227.79C105.289 227.485 103.431 227.671 101.869 228.255C100.298 228.842 99.088 229.805 98.6418 231.003C98.189 232.287 98.4762 233.907 99.2016 235.466C99.8257 236.798 100.705 237.995 101.789 238.989C103.803 240.766 104.337 241.95 104.538 243.068C104.591 243.361 104.62 243.632 104.649 243.896C104.729 244.63 104.803 245.311 105.35 246.253L105.351 246.254C106.419 248.118 106.487 249.418 106.476 250.795C106.476 250.905 106.474 251.016 106.473 251.127C106.458 252.378 106.442 253.728 107.094 255.736C107.812 257.939 109.209 258.887 111.133 260.193C111.175 260.222 111.217 260.25 111.26 260.279C113.253 261.633 115.706 263.351 118.246 267.158Z" fill="#38A98E" stroke="#38A98E" stroke-width="0.687961"/>
<path d="M107.196 227.487C105.539 227.578 102.755 227.618 100.817 229.598C99.0506 231.406 98.9134 233.895 98.8677 235.611C98.1246 234.015 97.7988 232.293 98.2961 230.885C99.285 228.225 103.561 226.817 106.973 227.452L107.196 227.487Z" fill="#347474"/>
<path d="M105.596 233.117C105.528 233.035 105.489 232.932 105.487 232.825C105.489 232.734 105.518 232.646 105.57 232.572C105.623 232.498 105.697 232.441 105.782 232.41C105.867 232.378 105.96 232.373 106.048 232.395C106.136 232.417 106.216 232.465 106.276 232.533C107.373 233.826 111.209 238.684 115.09 247.673C115.933 249.622 116.718 251.636 117.445 253.715C117.651 254.287 117.851 254.859 118.017 255.431C119.069 258.605 119.989 261.9 120.778 265.318C121.235 262.233 121.403 259.113 121.281 255.997C121.279 255.888 121.319 255.781 121.392 255.7C121.465 255.618 121.566 255.567 121.675 255.557C121.735 255.551 121.796 255.556 121.853 255.574C121.911 255.591 121.964 255.62 122.011 255.658C122.057 255.697 122.095 255.744 122.123 255.797C122.151 255.85 122.168 255.909 122.173 255.969C122.326 259.938 122.039 263.912 121.315 267.818C123.218 277.165 124.172 286.681 124.162 296.22C124.162 296.279 124.15 296.338 124.128 296.392C124.105 296.447 124.071 296.496 124.029 296.538C123.987 296.579 123.938 296.612 123.883 296.634C123.828 296.656 123.769 296.667 123.71 296.666C123.65 296.67 123.588 296.662 123.531 296.641C123.474 296.62 123.421 296.588 123.377 296.546C123.332 296.504 123.297 296.454 123.272 296.398C123.248 296.342 123.236 296.281 123.236 296.22C123.248 287.5 122.459 278.797 120.881 270.221C120.738 269.46 120.589 268.705 120.429 267.933V267.807C119.474 263.205 118.224 258.67 116.685 254.229C113.693 251.524 110.413 249.154 106.905 247.163C106.833 247.125 106.773 247.068 106.73 246.999C106.688 246.93 106.665 246.85 106.665 246.769C106.665 246.703 106.681 246.638 106.71 246.58C106.736 246.525 106.772 246.476 106.817 246.436C106.862 246.396 106.915 246.365 106.972 246.346C107.029 246.326 107.09 246.319 107.15 246.324C107.21 246.329 107.269 246.346 107.322 246.374C110.44 248.112 113.369 250.17 116.062 252.513C115.49 250.997 114.919 249.509 114.29 248.067C110.94 240.303 107.299 235.097 105.596 233.117Z" fill="#666B6F"/>
<path d="M130.929 268.396L130.93 268.398C131.374 268.926 131.864 269.412 132.395 269.851C133.321 267.751 134.355 265.7 135.49 263.706C137.909 259.456 140.392 257.439 142.415 255.844C142.458 255.81 142.502 255.775 142.545 255.741C144.497 254.203 145.921 253.08 146.522 250.668C147.062 248.48 146.945 247.039 146.837 245.71C146.827 245.585 146.817 245.461 146.808 245.337C146.696 243.869 146.678 242.482 147.69 240.415C148.202 239.365 148.229 238.627 148.258 237.836C148.269 237.553 148.279 237.263 148.313 236.949C148.44 235.747 148.915 234.446 150.924 232.397C152.012 231.253 152.863 229.904 153.428 228.428C154.083 226.709 154.267 224.951 153.654 223.614L153.653 223.613C153.083 222.359 151.71 221.419 149.985 220.91C148.269 220.403 146.269 220.344 144.538 220.793L144.337 220.849C144.337 220.849 144.336 220.849 144.336 220.849C141.816 221.564 139.896 223.37 138.1 226.174C136.299 228.985 134.653 232.748 132.657 237.317C130.806 241.554 129.211 245.289 128.389 250.654L128.377 250.734C128.034 252.991 127.565 256.084 127.729 259.273C127.896 262.5 128.71 265.789 130.929 268.396Z" fill="#38A98E" stroke="#38A98E" stroke-width="0.687961"/>
<path d="M146.381 226.417C146.449 226.325 146.481 226.211 146.472 226.097C146.468 226.031 146.45 225.967 146.42 225.909C146.389 225.851 146.347 225.8 146.295 225.759C146.245 225.719 146.188 225.689 146.126 225.671C146.065 225.653 146 225.649 145.936 225.657C145.873 225.665 145.812 225.685 145.756 225.718C145.701 225.75 145.653 225.793 145.615 225.845C144.54 227.31 140.819 232.785 137.36 242.672C136.598 244.82 135.912 247.03 135.302 249.303C135.131 249.933 134.965 250.573 134.799 251.214C133.919 254.647 133.188 258.275 132.61 261.971C131.883 258.716 131.466 255.4 131.364 252.067C131.367 252.056 131.367 252.044 131.364 252.032C131.359 251.907 131.304 251.788 131.211 251.703C131.118 251.617 130.995 251.572 130.87 251.578C130.744 251.583 130.625 251.638 130.54 251.731C130.455 251.824 130.41 251.947 130.415 252.073C130.415 253.509 130.604 257.931 132.227 264.66C130.921 274.775 130.639 284.996 131.387 295.167C131.39 295.231 131.407 295.293 131.435 295.35C131.463 295.407 131.502 295.458 131.55 295.499C131.598 295.541 131.654 295.572 131.714 295.592C131.774 295.612 131.838 295.619 131.901 295.614C131.964 295.61 132.025 295.594 132.082 295.566C132.138 295.538 132.188 295.5 132.229 295.452C132.27 295.405 132.301 295.349 132.32 295.29C132.34 295.23 132.347 295.167 132.341 295.104C131.666 285.801 131.844 276.454 132.873 267.183C132.968 266.359 133.071 265.541 133.182 264.729V264.591C133.854 259.607 134.845 254.67 136.149 249.813C139.134 246.697 142.453 243.919 146.043 241.528C146.118 241.483 146.179 241.417 146.22 241.34C146.26 241.262 146.278 241.175 146.272 241.087C146.265 241.017 146.244 240.949 146.209 240.887C146.177 240.829 146.134 240.779 146.082 240.738C146.03 240.698 145.97 240.67 145.906 240.654C145.842 240.638 145.775 240.636 145.71 240.648C145.645 240.659 145.584 240.684 145.529 240.721C142.336 242.815 139.367 245.233 136.669 247.936C137.149 246.277 137.669 244.646 138.224 243.055C141.23 234.484 144.711 228.648 146.381 226.417Z" fill="#666B6F"/>
<path d="M145.101 286.493V318.362C145.101 319.571 144.864 320.767 144.402 321.884C143.941 323.001 143.264 324.015 142.41 324.87C141.556 325.724 140.543 326.402 139.427 326.864C138.312 327.326 137.116 327.563 135.909 327.563H122.03C119.653 327.564 117.369 326.643 115.657 324.994C113.945 323.344 112.938 321.094 112.849 318.717C112.849 318.597 112.849 318.482 112.849 318.362V286.493H145.101Z" fill="#11493E"/>
<path d="M112.872 286.493V318.362C112.871 319.571 113.109 320.767 113.57 321.884C114.032 323.001 114.709 324.015 115.563 324.87C116.416 325.724 117.43 326.402 118.545 326.864C119.661 327.326 120.856 327.563 122.064 327.563H135.943C137.739 327.565 139.496 327.039 140.997 326.052C142.497 325.064 143.676 323.658 144.386 322.007C142.692 321.679 140.963 321.571 139.241 321.687C131.416 321.933 130.524 323.151 126.288 322.596C123.91 322.287 121.195 321.927 118.994 320.039C116.096 317.561 115.484 313.619 115.341 306.53C115.113 295.207 116.348 289.262 116.17 286.505L112.872 286.493Z" fill="#177260"/>
<path d="M345.644 38.7152V81.8043H346.787V38.6694H346.376C346.118 38.6923 345.878 38.698 345.644 38.7152Z" fill="#004F80"/>
<path d="M339.648 84.5736V87.0854H352.795V84.5736C352.794 82.9197 352.171 81.3268 351.049 80.1125C349.927 78.8983 348.389 78.152 346.741 78.0225C346.564 78.0225 346.387 78.0225 346.204 78.0225C344.468 78.024 342.803 78.7143 341.574 79.9422C340.345 81.1702 339.652 82.8356 339.648 84.5736Z" fill="white"/>
<path d="M346.209 105.566C342.86 105.566 340.145 102.848 340.145 99.4954C340.145 96.1427 342.86 93.4248 346.209 93.4248C349.559 93.4248 352.274 96.1427 352.274 99.4954C352.274 102.848 349.559 105.566 346.209 105.566Z" fill="#F4C584"/>
<path d="M332.01 98.9004V99.4725H360.409V98.9004C360.409 95.3427 359.076 91.9143 356.674 89.2925C354.271 86.6706 350.974 85.046 347.433 84.7395C347.027 84.7052 346.621 84.688 346.21 84.688C342.444 84.688 338.832 86.1854 336.169 88.8507C333.506 91.516 332.01 95.131 332.01 98.9004Z" fill="white"/>
<path d="M347.433 84.7397C348.576 84.9743 350.291 85.4092 351.234 86.8853C351.931 87.9667 351.525 88.5103 352.377 90.3812C353.332 92.4295 354.092 92.3609 354.704 93.8141C355.761 96.303 354.132 97.9337 354.647 99.4957H360.363V98.9235C360.363 95.3659 359.03 91.9375 356.628 89.3156C354.226 86.6938 350.928 85.0691 347.387 84.7626L347.433 84.7397Z" fill="#EDF3F4"/>
<path d="M352.772 84.5508V86.8909C351.981 86.5647 351.247 86.1126 350.6 85.552C350.863 84.3982 350.812 83.1947 350.451 82.0676C350.138 81.1819 349.65 80.3679 349.018 79.6732C348.386 78.9786 347.622 78.4174 346.77 78.0225C348.407 78.1575 349.933 78.904 351.045 80.1135C352.157 81.323 352.773 82.907 352.772 84.5508Z" fill="#EDF3F4"/>
<path d="M346.358 38.6809C346.404 51.7451 346.45 64.8074 346.495 77.8679L346.587 77.9079H346.741V38.6694L346.358 38.6809Z" fill="#01496D"/>
<path d="M377.037 42.6802V59.7419H378.181V43.0349L377.861 42.9319L377.037 42.6802Z" fill="#004F80"/>
<path d="M371.035 62.5058V65.0233H384.183V62.5058C384.183 60.8564 383.563 59.2673 382.447 58.0538C381.331 56.8403 379.8 56.091 378.158 55.9547C377.98 55.9547 377.803 55.9547 377.62 55.9547C376.758 55.9509 375.903 56.1175 375.105 56.4449C374.307 56.7723 373.581 57.2541 372.97 57.8626C372.358 58.4712 371.872 59.1946 371.54 59.9913C371.208 60.7881 371.037 61.6426 371.035 62.5058Z" fill="white"/>
<path d="M377.598 83.4981C374.248 83.4981 371.533 80.7802 371.533 77.4275C371.533 74.0748 374.248 71.3569 377.598 71.3569C380.947 71.3569 383.663 74.0748 383.663 77.4275C383.663 80.7802 380.947 83.4981 377.598 83.4981Z" fill="#F4C584"/>
<path d="M363.398 76.8325V77.4046H391.791V76.8325C391.793 73.276 390.461 69.8483 388.059 67.2273C385.658 64.6062 382.361 62.9825 378.821 62.6773C378.415 62.6373 378.009 62.6201 377.598 62.6201C373.832 62.6201 370.22 64.1175 367.557 66.7828C364.894 69.4482 363.398 73.0631 363.398 76.8325Z" fill="white"/>
<path d="M378.821 62.6772C379.964 62.9118 381.679 63.3467 382.622 64.8171C383.32 65.8985 382.914 66.442 383.765 68.313C384.72 70.367 385.48 70.2984 386.092 71.7459C387.149 74.2348 385.52 75.8654 386.035 77.4274H391.751V76.8553C391.753 73.2988 390.421 69.8711 388.019 67.2501C385.618 64.629 382.321 63.0053 378.781 62.7001L378.821 62.6772Z" fill="#EDF3F4"/>
<path d="M384.16 62.4825V64.8284C383.369 64.4982 382.636 64.0443 381.987 63.4838C382.251 62.33 382.2 61.1265 381.839 59.9994C381.526 59.1138 381.04 58.3001 380.407 57.6062C379.775 56.9124 379.01 56.3526 378.158 55.96C379.794 56.0937 381.32 56.8389 382.432 58.0475C383.544 59.2561 384.161 60.8394 384.16 62.4825Z" fill="#EDF3F4"/>
<path d="M377.838 42.9321C377.838 47.2233 377.853 51.5126 377.883 55.7999L377.975 55.84H378.181V43.0351L377.838 42.9321Z" fill="#01496D"/>
<path d="M350.342 199.68L372.67 328.741H365.124L335.56 199.68H350.342Z" fill="white"/>
<path d="M259.14 199.68L236.812 328.741H244.357L273.922 199.68H259.14Z" fill="white"/>
<path d="M346.633 199.68L368.96 328.741H372.676L350.342 199.68H346.633Z" fill="#EDF3F4"/>
<path d="M240.648 328.741H244.363L273.928 199.68H270.212L240.648 328.741Z" fill="#EDF3F4"/>
<path d="M252.64 186.772H356.842C361.299 186.772 364.913 190.389 364.913 194.851C364.913 199.313 361.299 202.93 356.842 202.93H252.64C248.183 202.93 244.569 199.313 244.569 194.851C244.569 190.389 248.183 186.772 252.64 186.772Z" fill="white"/>
<path d="M361.198 197.334C361.198 195.192 360.347 193.137 358.834 191.622C357.32 190.107 355.267 189.255 353.126 189.255H248.925C248.099 189.256 247.278 189.381 246.49 189.627C247.245 188.731 248.187 188.011 249.249 187.517C250.312 187.023 251.469 186.767 252.64 186.767H356.842C358.772 186.763 360.639 187.452 362.105 188.708C363.571 189.964 364.539 191.704 364.833 193.613C365.128 195.521 364.729 197.473 363.71 199.113C362.691 200.753 361.118 201.973 359.277 202.552C360.515 201.096 361.196 199.247 361.198 197.334Z" fill="#EDF3F4"/>
<path d="M333.171 161.151C333.171 160.453 337.435 159.887 342.694 159.887C347.953 159.887 352.217 160.459 352.217 161.151C352.217 161.843 347.953 162.416 342.694 162.416C337.435 162.416 333.171 161.849 333.171 161.151Z" fill="white"/>
<path d="M327.129 176.519C327.123 179.125 327.548 181.713 328.386 184.18C328.69 185.067 329.053 185.933 329.473 186.772H355.887C357.451 183.582 358.253 180.072 358.231 176.519C358.231 170.271 355.864 164.704 352.189 161.151L350.886 161.277C348.268 161.494 345.512 161.614 342.666 161.614C339.485 161.619 336.307 161.464 333.142 161.151C329.495 164.704 327.129 170.271 327.129 176.519Z" fill="#11493E"/>
<path d="M328.386 184.18C328.69 185.067 329.053 185.933 329.473 186.772H355.887C357.451 183.582 358.253 180.072 358.231 176.519C358.231 170.271 355.864 164.704 352.189 161.151L350.886 161.277C351.908 162.546 352.734 163.962 353.338 165.476C353.91 166.855 355.624 171.169 354.127 175.775C353.228 178.611 351.362 181.041 348.856 182.641C342.889 186.228 332.011 184.741 328.386 184.18Z" fill="#177260"/>
<path d="M344.1 157.777C344.894 158.619 346.261 158.922 347.901 158.853H348.198C349.552 158.718 350.881 158.398 352.148 157.903L352.451 157.789C353.766 157.269 355.026 156.619 356.213 155.849L356.493 155.666C357.675 154.878 358.766 153.961 359.745 152.931C359.848 152.828 359.945 152.72 360.043 152.611C360.14 152.502 360.185 152.451 360.254 152.365C361.061 151.426 361.763 150.402 362.346 149.31L362.483 149.041C362.936 148.151 363.319 147.227 363.627 146.277C363.655 146.18 363.684 146.083 363.718 145.985C364.042 144.929 364.281 143.848 364.433 142.753C362.819 142.444 361.176 142.317 359.534 142.375H359.174C357.909 142.452 356.654 142.644 355.424 142.947L355.269 142.987L354.955 143.067C353.442 143.439 351.969 143.96 350.559 144.624L350.291 144.761C349.039 145.38 347.883 146.178 346.861 147.13L346.661 147.313C345.703 148.251 344.928 149.358 344.374 150.58C344.374 150.637 344.323 150.694 344.3 150.757C344.277 150.82 344.26 150.849 344.237 150.9C343.98 151.358 342.202 155.769 344.1 157.777Z" fill="#38A98E"/>
<path d="M355.973 147.866C354.417 148.366 352.922 149.038 351.514 149.868C350.81 150.289 350.129 150.748 349.473 151.241C349.153 151.499 348.827 151.751 348.524 152.02C348.221 152.288 347.901 152.563 347.621 152.861C345.247 155.203 343.551 158.145 342.711 161.374L343.517 161.569C344.195 158.416 345.716 155.507 347.918 153.152C348.181 152.843 348.49 152.58 348.764 152.288C349.039 151.997 349.336 151.751 349.668 151.482C350.292 150.967 350.945 150.488 351.623 150.046C352.989 149.162 354.448 148.431 355.973 147.866Z" fill="#4D5B63"/>
<path d="M320.212 138.084C320.212 138.21 320.24 138.33 320.263 138.456C320.437 139.674 320.71 140.876 321.081 142.049C321.115 142.169 321.155 142.289 321.195 142.415C321.672 143.863 322.311 145.253 323.099 146.558C323.16 146.672 323.228 146.786 323.304 146.901C323.396 147.05 323.499 147.204 323.596 147.353C324.194 148.247 324.855 149.098 325.574 149.899C326.025 150.402 326.494 150.889 326.986 151.352C327.083 151.449 327.18 151.547 327.283 151.633C328.564 152.817 329.96 153.871 331.45 154.779L331.793 154.98C333.232 155.842 334.779 156.508 336.395 156.959L336.749 157.045C338.464 157.451 340.019 157.406 341.145 156.811C341.303 156.729 341.454 156.636 341.596 156.53C344.317 154.493 343.043 148.777 342.894 148.131C342.894 148.068 342.865 148.005 342.854 147.948C342.839 147.871 342.82 147.794 342.797 147.719C342.374 146.119 341.656 144.611 340.682 143.273C340.619 143.182 340.55 143.096 340.482 143.01C339.428 141.639 338.183 140.427 336.783 139.411L336.48 139.188C334.903 138.088 333.222 137.145 331.461 136.373C331.33 136.322 331.21 136.264 331.096 136.213L330.918 136.139C329.489 135.513 328.004 135.022 326.483 134.674L326.042 134.577C324.06 134.16 322.037 133.968 320.012 134.004C319.97 135.367 320.037 136.732 320.212 138.084Z" fill="#38A98E"/>
<path d="M325.573 149.899C326.025 150.402 326.494 150.889 326.985 151.352C327.083 151.449 327.18 151.547 327.283 151.632C328.564 152.817 329.96 153.871 331.45 154.779L331.793 154.98C333.232 155.842 334.779 156.508 336.394 156.959L336.749 157.045C338.464 157.451 340.018 157.406 341.145 156.81C341.305 153.91 338.978 150.408 335.823 148.8C334.185 147.997 332.353 147.674 330.54 147.868C328.726 148.062 327.004 148.766 325.573 149.899Z" fill="#347474"/>
<path d="M330.307 142.087C332.094 143.021 333.772 144.151 335.309 145.457C336.08 146.11 336.813 146.807 337.504 147.545C337.835 147.923 338.184 148.295 338.499 148.69C338.813 149.084 339.139 149.473 339.419 149.897C341.822 153.235 343.27 157.165 343.609 161.266L342.591 161.334C342.502 159.363 342.155 157.413 341.557 155.533C340.939 153.648 340.08 151.852 339.002 150.189C338.744 149.76 338.43 149.37 338.144 148.964C337.858 148.558 337.527 148.18 337.218 147.82C336.569 147.061 335.876 146.341 335.143 145.663C333.667 144.297 332.046 143.097 330.307 142.087Z" fill="#4D5B63"/>
<path d="M341.431 159.065C341.002 159.74 340.122 160.14 338.996 160.295H338.79C337.853 160.378 336.909 160.336 335.983 160.169L335.766 160.129C334.806 159.949 333.866 159.675 332.959 159.311L332.748 159.219C331.839 158.844 330.976 158.366 330.176 157.795L329.935 157.617L329.758 157.474C329.086 156.946 328.476 156.343 327.94 155.678C327.895 155.626 327.855 155.569 327.809 155.512C327.382 154.972 326.999 154.398 326.666 153.795L326.563 153.612C326.203 152.936 325.899 152.232 325.654 151.507C326.709 151.086 327.808 150.785 328.929 150.608L329.175 150.574C330.042 150.455 330.919 150.419 331.793 150.465H331.902H332.125C333.201 150.518 334.27 150.679 335.314 150.946L335.514 151.003C336.449 151.256 337.342 151.641 338.167 152.147L338.327 152.25C339.103 152.756 339.776 153.404 340.31 154.161L340.39 154.27L340.448 154.356C340.659 154.711 342.46 157.451 341.431 159.065Z" fill="#38A98E"/>
<path d="M332.862 153.867C333.982 154.007 335.084 154.268 336.149 154.645C336.682 154.836 337.203 155.057 337.709 155.309C337.961 155.441 338.218 155.566 338.458 155.71C338.698 155.853 338.95 155.996 339.184 156.162C340.134 156.809 340.995 157.579 341.745 158.45C342.497 159.316 343.132 160.278 343.631 161.311L343.105 161.551C342.673 160.527 342.106 159.565 341.419 158.69C340.722 157.826 339.915 157.056 339.018 156.402C338.801 156.23 338.561 156.087 338.332 155.933C338.104 155.778 337.852 155.647 337.612 155.504C337.121 155.235 336.616 154.994 336.097 154.783C335.055 154.361 333.97 154.054 332.862 153.867Z" fill="#4D5B63"/>
<path d="M295.569 186.772H307.574C309.671 186.773 311.73 186.218 313.544 185.165C315.358 184.112 316.861 182.597 317.901 180.774C318.941 178.952 319.481 176.887 319.467 174.788C319.452 172.689 318.883 170.631 317.817 168.824L304.178 145.68C304.013 145.4 303.794 145.155 303.534 144.959C303.273 144.764 302.977 144.621 302.662 144.54C302.347 144.459 302.019 144.441 301.697 144.487C301.375 144.533 301.066 144.642 300.786 144.807C300.506 144.973 300.261 145.192 300.066 145.453C299.87 145.713 299.728 146.009 299.647 146.325C299.566 146.64 299.548 146.968 299.594 147.29C299.64 147.613 299.748 147.923 299.914 148.203L313.587 171.341C314.207 172.397 314.538 173.597 314.546 174.822C314.554 176.046 314.238 177.251 313.631 178.314C313.024 179.377 312.148 180.261 311.09 180.876C310.032 181.491 308.831 181.816 307.608 181.817H295.604C294.947 181.817 294.318 182.078 293.854 182.543C293.389 183.008 293.129 183.638 293.129 184.295C293.129 184.952 293.389 185.582 293.854 186.047C294.318 186.511 294.947 186.772 295.604 186.772H295.569Z" fill="#004F80"/>
<path d="M288.493 177.784C288.99 177.778 289.474 177.623 289.882 177.338C290.29 177.054 290.602 176.653 290.779 176.187L323.305 90.5814C323.538 89.9668 323.518 89.2846 323.249 88.6848C322.98 88.085 322.484 87.6167 321.87 87.3831C321.256 87.1494 320.574 87.1694 319.975 87.4387C319.376 87.708 318.908 88.2046 318.674 88.8192L286.149 174.402C286.033 174.707 285.978 175.031 285.988 175.356C285.997 175.682 286.071 176.002 286.204 176.299C286.337 176.596 286.528 176.864 286.764 177.087C287.001 177.311 287.28 177.485 287.584 177.601C287.873 177.718 288.181 177.78 288.493 177.784Z" fill="#004F80"/>
<path d="M256.584 183.711H278.472C279.318 183.711 280.004 184.397 280.004 185.242C280.004 186.087 279.318 186.772 278.472 186.772H256.584C255.738 186.772 255.052 186.087 255.052 185.242C255.052 184.397 255.738 183.711 256.584 183.711Z" fill="#004F80"/>
<path d="M74.2018 329.56H463.798C464.177 329.56 464.541 329.409 464.809 329.141C465.077 328.872 465.228 328.508 465.228 328.129C465.228 327.75 465.077 327.386 464.809 327.118C464.541 326.849 464.177 326.699 463.798 326.699H74.2018C73.8228 326.699 73.4593 326.849 73.1913 327.118C72.9233 327.386 72.7727 327.75 72.7727 328.129C72.7727 328.508 72.9233 328.872 73.1913 329.141C73.4593 329.409 73.8228 329.56 74.2018 329.56Z" fill="#39B9CE"/>
</svg>
