<svg width="26" height="18" viewBox="0 0 26 18" fill="none" xmlns="http://www.w3.org/2000/svg">
<path d="M12.8925 9.37704C12.2464 9.43089 11.6541 9.16166 11.0079 8.94627C7.61561 7.8155 4.16946 6.68473 0.777148 5.55396C0.561764 5.44627 0.400225 5.39243 0.238687 5.23089C0.0233023 5.06935 0.0233023 4.85396 0.238687 4.69243C0.400225 4.58473 0.61561 4.4232 0.830995 4.36935C4.49253 3.29243 8.10023 2.2155 11.7618 1.08474C12.5695 0.815505 13.431 0.815505 14.2925 1.08474C17.9002 2.16166 21.5079 3.23858 25.1156 4.3155C25.331 4.4232 25.5464 4.47704 25.7618 4.63858C26.031 4.80012 26.031 5.06935 25.7618 5.23089C25.6002 5.33858 25.4387 5.44627 25.2233 5.50012C21.6156 6.68473 18.0079 7.92319 14.3464 9.10781C13.8618 9.32319 13.431 9.37704 12.8925 9.37704Z" fill="#347474"/>
<path d="M5.73111 9.53835C5.19265 9.43065 5.08496 9.75373 5.08496 10.023C5.08496 11.423 5.08496 12.7691 5.08496 14.1153C5.08496 14.5999 5.2465 14.8691 5.56958 15.1922C5.67727 15.2999 5.83881 15.4076 5.9465 15.5153C6.80804 16.1076 7.83111 16.4845 8.85419 16.7537C10.9003 17.2922 12.9465 17.3999 15.0465 17.1307C16.3927 16.9691 17.7388 16.5922 18.9773 16.0537C19.5157 15.7845 20.0542 15.5153 20.4311 15.0845C20.7003 14.8153 20.808 14.546 20.7542 14.1691C20.808 12.8768 20.808 11.5307 20.808 10.1845C20.808 9.43065 20.2696 9.53835 20.0542 9.59219C18.1696 10.2383 16.1773 10.8307 14.2927 11.4768C13.3234 11.7999 12.408 11.7999 11.4927 11.4768L5.73111 9.53835Z" fill="#347474"/>
<path d="M23.7154 8.30023C23.5538 8.35408 23.5 8.40792 23.5 8.62331C23.5 9.86177 23.5 11.0464 23.5 12.2848C23.5 12.3925 23.4461 12.5541 23.3923 12.6618C23.1231 13.3079 22.8538 13.9541 22.6385 14.6002C22.4231 15.1925 22.5308 15.8387 22.9615 16.2695C23.0692 16.431 23.2846 16.5925 23.4461 16.7002C23.6077 16.8618 23.8769 16.9156 24.0923 16.9695C24.4692 17.0233 24.7923 16.8079 25.0615 16.5925C25.1692 16.4848 25.3308 16.3772 25.4385 16.2156C25.7615 15.7848 25.8154 15.2464 25.7077 14.7618C25.5461 14.0079 25.2231 13.3618 24.9 12.7156C24.7923 12.6079 24.7923 12.3925 24.7923 12.2848C24.7923 10.9387 24.7923 9.64638 24.7923 8.30023C24.7923 8.031 24.5769 8.08485 24.4692 8.13869L23.7154 8.30023Z" fill="#347474"/>
</svg>
