<svg width="153" height="103" viewBox="0 0 153 103" fill="none" xmlns="http://www.w3.org/2000/svg">
<rect width="153" height="103" fill="white"/>
<path d="M23.3 82.3916C21.9572 79.6978 20.4031 75.5167 21.1542 70.8021C22.3588 63.2165 28.2972 61.9673 31.5582 54.9611C36.5749 44.1793 27.4145 36.6133 30.8966 26.2797C34.0405 16.9556 44.6103 11.3086 52.6946 10.0939C58.2705 9.25832 60.0716 10.9967 67.0602 11.1051C79.1792 11.2922 80.9105 4.70298 90.344 5.10188C97.1229 5.38259 106.456 8.756 108.675 15.1154C110.177 19.4147 107.667 22.9342 110.49 28.1215C111.596 30.1538 112.929 31.3603 115.279 33.2908C123.955 40.4168 128.402 39.7323 130.471 44.4551C131.812 47.5199 131.217 50.9622 130.552 54.7969C129.754 59.4097 128.406 60.3782 128.736 63.6351C129.118 67.4107 131.136 68.1888 132.04 71.8889C132.605 74.2117 132.731 77.6786 130.533 82.4786L23.3 82.3916Z" fill="#E9F1F1"/>
<path d="M66.5646 52.2936C66.7955 49.5817 67.3075 48.5721 67.9415 45.7897C69.7704 37.7674 67.7042 36.5773 69.3721 30.8367C69.9996 28.683 71.396 23.8781 75.8746 20.554C79.6346 17.7633 83.5882 17.4842 85.3422 17.3858C86.1469 17.3414 94.8716 16.8506 96.7362 20.943C97.7116 23.077 96.2274 25.1585 97.9473 27.3911C98.6723 28.3317 99.134 28.2201 100.314 29.5038C100.477 29.6679 102.128 31.5081 102.792 33.7275C103.842 37.2437 101.477 38.685 102.021 42.065C102.509 45.0888 104.503 44.7046 106.149 48.2356C108.862 54.055 105.315 59.1192 108.46 61.8606C109.64 62.8866 110.99 62.9112 111.323 64.1391C111.707 65.5475 110.427 67.2236 109.397 68.0788C106.958 70.1111 103.639 69.4939 96.7362 68.3004C92.2788 67.5306 87.8132 66.8132 83.3606 66.022C71.5748 63.9273 69.1851 64.0275 67.6115 61.575C65.9908 59.0667 66.2883 55.5521 66.5646 52.2936Z" fill="#5B1C10"/>
<path d="M68.4243 61.9032C66.7987 59.3948 67.1011 55.8803 67.3774 52.6218C67.6083 49.9099 68.1203 48.9003 68.7543 46.1179C70.5832 38.0956 68.517 36.9054 70.1849 31.1649C70.8124 29.0112 72.2088 24.2063 76.6874 20.8821C80.4475 18.0915 84.401 17.8124 86.155 17.7139C86.7029 17.6827 90.9132 17.448 94.1385 18.5872C90.858 17.077 85.9372 17.3528 85.3422 17.3856C83.5882 17.4841 79.6346 17.7599 75.8746 20.5538C71.4025 23.878 70.0061 28.6828 69.3721 30.8366C67.7042 36.582 69.7704 37.7673 67.9415 45.7896C67.3075 48.5802 66.7955 49.5816 66.5646 52.2934C66.2883 55.5519 65.9908 59.0665 67.6115 61.5748C68.2179 62.5155 68.9445 63.0802 70.2775 63.5447C69.512 63.1956 68.8668 62.6241 68.4243 61.9032Z" fill="#5A3E39"/>
<path d="M74.4093 35.5348C74.8271 40.6926 75.0351 43.2715 76.2251 45.6222C76.6575 46.4758 79.7836 52.6596 85.2246 52.7926C89.1261 52.8894 91.8896 49.8181 92.6553 48.9579C95.6855 45.5828 95.9228 41.3968 96.1244 37.8691C96.3064 34.6435 96.404 32.9444 95.4628 31.032C93.1869 26.4127 86.6665 24.3673 81.5913 25.6953C80.8468 25.8906 75.9747 27.2466 74.5735 31.1995C74.3329 31.8774 74.1768 32.6818 74.4093 35.5348Z" fill="#EABBB8"/>
<path d="M77.3632 45.9505C76.1733 43.5997 75.9652 41.0258 75.5474 35.8631C75.3149 33.01 75.471 32.2057 75.71 31.5277C77.1113 27.5748 81.9833 26.2189 82.7278 26.0235C84.8701 25.4933 87.1075 25.4933 89.2498 26.0235C86.7805 25.2027 84.0202 25.0616 81.5899 25.6952C80.8453 25.8906 75.9733 27.2465 74.572 31.1994C74.3314 31.8773 74.1754 32.6768 74.4095 35.5347C74.8273 40.6925 75.0353 43.2714 76.2253 45.6222C76.6219 46.4068 79.2945 51.6828 83.9421 52.6431C79.9951 51.1526 77.7257 46.6678 77.3632 45.9505Z" fill="#FABEBA"/>
<path d="M73.3906 35.4513C75.0058 35.2606 76.5635 34.7305 77.9635 33.8951C79.9415 32.6937 81.5291 30.9353 82.5315 28.8358C83.6153 29.844 84.9148 30.5861 86.329 31.0043C89.0746 31.7857 90.6125 30.7466 92.7144 31.4492C93.9499 31.8612 95.6194 32.9561 97.063 36.1736C97.4547 34.9966 98.0253 32.7066 97.3393 30.1146C95.8324 24.4364 89.668 22.4747 88.5301 22.1103C87.5092 21.782 81.0652 19.735 76.3655 23.7223C75.8892 24.1261 72.5729 27.0334 72.5664 31.5608C72.5701 32.9014 72.8508 34.2265 73.3906 35.4513Z" fill="#5B1C10"/>
<path d="M94.5439 32.5093C95.3779 33.2332 96.2541 34.3675 97.062 36.1667C97.1124 36.0157 97.1661 35.8384 97.2246 35.6578C96.3321 34.0212 95.3941 33.0723 94.5439 32.5093Z" fill="#2CA8B5"/>
<path d="M73.215 32.0533C73.215 27.5258 76.5378 24.6186 77.0141 24.2148C81.7138 20.2274 88.1578 22.2777 89.1787 22.6028C90.8191 23.1108 92.3736 23.8674 93.7889 24.8468C91.6187 23.0936 89.1998 22.3319 88.53 22.1103C87.5092 21.782 81.0652 19.735 76.3655 23.7223C75.8892 24.1261 72.5729 27.0334 72.5664 31.5608C72.5706 32.9015 72.8519 34.2266 73.3922 35.4513C73.5255 35.4349 73.6686 35.4152 73.8214 35.3922C73.4231 34.3248 73.2177 33.1939 73.215 32.0533Z" fill="#5A3E39"/>
<path d="M83.6117 29.704C83.4492 29.5727 83.3078 29.4463 83.1777 29.3281L83.1582 29.3692C83.3002 29.4797 83.4513 29.5913 83.6117 29.704Z" fill="#2CA8B5"/>
<path d="M100.799 34.5763C100.195 33.9312 99.4143 33.6127 98.3901 33.2877C97.9398 31.2144 96.5418 26.9004 92.442 24.2591C89.8968 22.6483 86.8854 21.9578 83.9009 22.3007C80.9659 22.6058 78.2063 23.8578 76.0313 25.8711C73.4303 28.3334 72.3899 31.3687 71.9819 33.4748C71.2178 33.7473 70.6066 34.0559 70.114 34.5829C68.3502 36.4657 68.5599 40.6337 71.065 42.4197C72.9312 43.751 75.2136 43.1436 75.6168 43.0304C74.8511 38.1057 74.5942 35.4119 74.6983 34.2907C74.7178 34.092 74.7991 33.3862 74.4105 33.0808C74.1049 32.8428 73.6432 32.9512 73.2125 33.0808L73.0499 33.1301C73.4953 31.2078 74.4869 28.6667 76.6929 26.5901C78.716 24.7219 81.281 23.5609 84.0082 23.2791C86.7719 22.9592 89.5613 23.5958 91.9201 25.0848C95.4087 27.337 96.7889 30.9091 97.3156 32.9758C97.0132 32.9134 96.7222 32.9085 96.5028 33.0759C96.1126 33.3813 96.1939 34.0871 96.2134 34.2858C96.3175 35.4069 96.0622 38.1007 95.2949 43.0254C95.6965 43.1387 97.9788 43.7461 99.8467 42.4148C102.347 40.6271 102.563 36.4592 100.799 34.5763Z" fill="#004F80"/>
<path d="M133.444 92.4463H19.5558C19.448 92.4463 19.3447 92.403 19.2684 92.3261C19.1922 92.2491 19.1494 92.1447 19.1494 92.0359C19.1494 91.927 19.1922 91.8227 19.2684 91.7457C19.3447 91.6687 19.448 91.6255 19.5558 91.6255H133.444C133.552 91.6255 133.655 91.6687 133.731 91.7457C133.807 91.8227 133.85 91.927 133.85 92.0359C133.85 92.1447 133.807 92.2491 133.731 92.3261C133.655 92.403 133.552 92.4463 133.444 92.4463Z" fill="#11493E"/>
<path d="M133.444 83.0102H19.5558C19.448 83.0102 19.3447 82.967 19.2684 82.89C19.1922 82.8131 19.1494 82.7087 19.1494 82.5998C19.1494 82.491 19.1922 82.3866 19.2684 82.3097C19.3447 82.2327 19.448 82.1895 19.5558 82.1895H133.444C133.552 82.1895 133.655 82.2327 133.731 82.3097C133.807 82.3866 133.85 82.491 133.85 82.5998C133.85 82.7087 133.807 82.8131 133.731 82.89C133.655 82.967 133.552 83.0102 133.444 83.0102Z" fill="#11493E"/>
<path d="M49.8869 85.3941C48.5011 85.6742 47.0835 85.7582 45.6749 85.6436C42.0741 85.2709 39.4731 83.4669 38.1612 82.3916C38.1111 83.4707 38.3696 84.5414 38.9058 85.4761C40.1656 87.579 42.6236 88.0928 44.189 88.3948C47.7833 89.0892 48.9928 87.9697 52.1546 87.9992C57.1355 88.0452 62.7862 90.8999 62.9309 93.7316C63.0333 95.7605 60.3299 98.2541 58.0036 98.0669C56.8039 97.9701 55.9309 97.1756 55.4449 96.7323C53.4015 94.8724 54.0891 93.1669 52.8292 91.8963C50.7273 89.777 47.0989 92.7992 40.7996 91.6468C38.5758 91.2397 36.5291 90.7784 34.8547 89.145C30.6151 85.0149 33.8793 76.2079 34.367 74.8881C35.5814 71.5229 36.2788 72.0974 38.2474 67.5503C40.7232 61.836 40.0518 59.9318 42.1277 56.629C43.3031 54.7592 45.4245 52.3363 49.5601 50.3746C48.9715 49.5904 48.507 48.7188 48.1832 47.7908C46.9022 44.1005 48.31 40.7107 48.7896 39.6749C48.1653 38.2911 46.9819 35.113 48.349 32.3387C48.4625 32.1076 48.5912 31.8844 48.7343 31.6706C49.5292 31.536 51.8604 31.2504 53.9087 32.672C54.3596 32.9857 54.7664 33.3595 55.1181 33.7833C57.7355 33.0987 60.4825 33.0987 63.0999 33.7833C63.6071 33.3286 64.9987 32.2058 67.0014 32.1155C67.6349 32.0901 68.2683 32.1677 68.8774 32.3453C69.1349 32.985 69.2991 33.6591 69.3651 34.3464C69.5992 36.725 68.5637 38.5685 68.1004 39.2924C68.4734 40.1242 68.7326 41.0034 68.8709 41.9058C69.448 45.7076 67.6566 48.7675 66.9429 49.8542C61.554 70.1751 54.554 84.3829 49.8869 85.3941Z" fill="#F08175"/>
<path d="M49.8864 85.3938C50.2683 85.3023 50.6335 85.1511 50.9691 84.9457C49.6523 85.1898 48.3095 85.2588 46.975 85.1508C43.3742 84.7782 40.7732 82.9741 39.4613 81.8989C39.4447 82.4171 39.4911 82.9353 39.5995 83.442C41.4247 84.6484 43.5061 85.4026 45.6745 85.6433C47.0831 85.7579 48.5007 85.674 49.8864 85.3938Z" fill="#01496D"/>
<path d="M63.8916 33.1662C64.0655 33.2056 64.2362 33.245 64.3972 33.2877C64.8405 32.8916 65.3321 32.5546 65.8602 32.2847C65.159 32.463 64.4932 32.7611 63.8916 33.1662Z" fill="#01496D"/>
<path d="M59.3061 97.5743C58.1064 97.4775 57.2334 96.6829 56.7473 96.2397C54.7039 94.3798 55.3916 92.6743 54.1317 91.4037C52.0298 89.2844 48.4014 92.3065 42.1021 91.1542C39.8782 90.7471 37.8316 90.2858 36.1572 88.6524C31.9175 84.5223 35.1818 75.7153 35.6695 74.3955C36.8838 71.0303 37.5812 71.6048 39.5498 67.0577C42.0257 61.3434 41.3543 59.4392 43.4302 56.1364C44.6055 54.2666 46.727 51.8437 50.8626 49.882C50.274 49.0979 49.8095 48.2262 49.4857 47.2982C48.2047 43.608 49.6125 40.2181 50.092 39.1823C49.4678 37.7985 48.2843 34.6204 49.6515 31.8462C49.697 31.751 49.749 31.6558 49.8027 31.5605C49.4453 31.5747 49.0891 31.6115 48.7363 31.6705C48.5931 31.8843 48.4644 32.1075 48.351 32.3386C46.9838 35.1129 48.1673 38.2909 48.7915 39.6748C48.3038 40.7106 46.9042 44.107 48.1852 47.7907C48.509 48.7187 48.9735 49.5903 49.5621 50.3745C45.4265 52.3362 43.305 54.7591 42.1297 56.6288C40.0538 59.9317 40.7252 61.8359 38.2493 67.5502C36.2807 72.0973 35.5833 71.5227 34.369 74.8879C33.8927 76.2012 30.63 85.0147 34.8567 89.1449C36.5311 90.7865 38.5777 91.2395 40.8016 91.6466C47.0976 92.7957 50.726 89.7769 52.8312 91.8962C54.0911 93.1667 53.4034 94.8723 55.4468 96.7322C55.9345 97.1754 56.8059 97.9699 58.0056 98.0668C58.8018 98.1021 59.5915 97.9067 60.2814 97.5037C59.9613 97.5737 59.6329 97.5975 59.3061 97.5743Z" fill="#F15E4E"/>
<path d="M52.2778 50.0411C52.0892 49.7423 51.3284 48.5407 51.6991 47.2504C51.8208 46.8517 52.0231 46.4827 52.2931 46.1669C52.5631 45.851 52.8949 45.595 53.2678 45.4151C54.3732 44.898 54.9568 45.5645 56.1581 45.0409C56.9336 44.7027 57.3725 44.1331 57.7269 43.6652C58.8307 42.2042 58.2503 40.3082 58.8827 39.8716C59.4192 40.392 58.9038 42.0746 59.6256 43.4978C59.9881 44.2119 60.2238 44.6649 60.7408 44.9982C62.0413 45.8403 63.2182 44.573 64.7447 45.2904C65.1925 45.5125 65.5804 45.8409 65.8751 46.2474C66.1698 46.6539 66.3626 47.1265 66.437 47.6247C66.5995 48.823 65.8664 49.7883 65.6112 50.1264C63.0557 53.5212 54.4545 53.4801 52.2778 50.0411Z" fill="white"/>
<path d="M58.5354 47.4985C57.4706 47.162 56.9471 46.2953 57.1162 45.7437C57.2853 45.1921 58.1631 44.9656 58.7825 45.0395C59.2311 45.092 59.9675 45.3497 60.083 45.8734C60.2065 46.4266 59.6213 47.2244 58.5354 47.4985Z" fill="#F15E4E"/>
<path d="M50.5189 39.0922C49.0249 37.0632 49.1176 34.8471 50.0507 34.1166C50.9838 33.3861 52.9411 34.0624 54.0416 35.0621C54.4386 35.4245 54.7654 35.8581 55.0056 36.3409C54.5698 37.1628 53.9236 37.8516 53.1345 38.3355C52.3453 38.8194 51.4421 39.0807 50.5189 39.0922Z" fill="#F15E4E"/>
<path d="M66.8115 38.9819C68.2437 37.0367 68.1543 34.9142 67.2602 34.2132C66.3661 33.5123 64.4966 34.1607 63.4351 35.1193C63.0548 35.4663 62.7417 35.8815 62.5117 36.344C62.9288 37.1322 63.5479 37.7928 64.3043 38.2568C65.0606 38.7209 65.9265 38.9713 66.8115 38.9819Z" fill="#F15E4E"/>
<path d="M54.8399 43.1435C54.5908 43.1435 54.3472 43.0689 54.14 42.9291C53.9328 42.7893 53.7713 42.5906 53.676 42.3582C53.5806 42.1257 53.5557 41.8699 53.6043 41.6231C53.6529 41.3763 53.7729 41.1497 53.9491 40.9717C54.1253 40.7938 54.3498 40.6727 54.5941 40.6236C54.8385 40.5745 55.0919 40.5997 55.3221 40.696C55.5523 40.7923 55.749 40.9553 55.8875 41.1645C56.0259 41.3737 56.0998 41.6197 56.0998 41.8713C56.0994 42.2086 55.9665 42.5319 55.7303 42.7704C55.4941 43.0089 55.1739 43.1431 54.8399 43.1435ZM54.8399 41.4199C54.7515 41.4199 54.6651 41.4464 54.5916 41.496C54.5181 41.5456 54.4608 41.6161 54.4269 41.6986C54.3931 41.7811 54.3842 41.8718 54.4015 41.9594C54.4187 42.047 54.4613 42.1274 54.5238 42.1905C54.5863 42.2537 54.666 42.2967 54.7527 42.3141C54.8394 42.3315 54.9293 42.3226 55.011 42.2884C55.0927 42.2542 55.1625 42.1964 55.2116 42.1221C55.2608 42.0479 55.287 41.9606 55.287 41.8713C55.287 41.7516 55.2399 41.6368 55.156 41.5521C55.0722 41.4675 54.9585 41.4199 54.8399 41.4199Z" fill="white"/>
<path d="M62.9044 43.1435C62.6552 43.1435 62.4116 43.0689 62.2044 42.9291C61.9973 42.7893 61.8358 42.5906 61.7404 42.3582C61.6451 42.1257 61.6201 41.8699 61.6687 41.6231C61.7174 41.3763 61.8373 41.1497 62.0135 40.9717C62.1897 40.7938 62.4142 40.6727 62.6586 40.6236C62.903 40.5745 63.1563 40.5997 63.3865 40.696C63.6167 40.7923 63.8135 40.9553 63.9519 41.1645C64.0904 41.3737 64.1642 41.6197 64.1642 41.8713C64.1638 42.2086 64.0309 42.5319 63.7948 42.7704C63.5586 43.0089 63.2384 43.1431 62.9044 43.1435ZM62.9044 41.4199C62.816 41.4199 62.7295 41.4464 62.656 41.496C62.5825 41.5456 62.5252 41.6161 62.4914 41.6986C62.4575 41.7811 62.4487 41.8718 62.4659 41.9594C62.4832 42.047 62.5258 42.1274 62.5883 42.1905C62.6508 42.2537 62.7305 42.2967 62.8172 42.3141C62.9039 42.3315 62.9938 42.3226 63.0755 42.2884C63.1572 42.2542 63.227 42.1964 63.2761 42.1221C63.3252 42.0479 63.3514 41.9606 63.3514 41.8713C63.3514 41.7516 63.3043 41.6368 63.2205 41.5521C63.1367 41.4675 63.0229 41.4199 62.9044 41.4199Z" fill="white"/>
<path d="M77.4343 48.958H51.7901C51.2599 48.9578 50.7355 49.0702 50.2511 49.2879C49.7668 49.5057 49.3332 49.824 48.9785 50.222C48.6239 50.62 48.3562 51.089 48.1928 51.5983C48.0294 52.1077 47.9739 52.6461 48.03 53.1785L51.3772 85.0248C51.4587 85.8012 51.8218 86.5197 52.3965 87.0419C52.9713 87.5641 53.7171 87.8531 54.4902 87.8532H100.242C101.015 87.8531 101.761 87.5642 102.336 87.042C102.911 86.5198 103.275 85.8013 103.357 85.0248L106.702 53.1785C106.758 52.6461 106.703 52.1077 106.539 51.5983C106.376 51.089 106.108 50.62 105.754 50.222C105.399 49.824 104.965 49.5057 104.481 49.2879C103.997 49.0702 103.472 48.9578 102.942 48.958H77.4343Z" fill="#E1E1E1"/>
<path d="M52.3525 86.0097L49.0054 54.1634C48.9493 53.631 49.0047 53.0926 49.1682 52.5833C49.3316 52.0739 49.5993 51.605 49.9539 51.2069C50.3085 50.8089 50.7421 50.4906 51.2265 50.2729C51.7109 50.0551 52.2352 49.9427 52.7654 49.9429H103.917C104.682 49.9414 105.428 50.1757 106.057 50.6143C105.71 50.1032 105.245 49.6852 104.703 49.3965C104.16 49.1079 103.555 48.9574 102.942 48.958H51.7901C51.2599 48.9578 50.7355 49.0702 50.2511 49.2879C49.7668 49.5057 49.3332 49.824 48.9785 50.222C48.6239 50.62 48.3562 51.089 48.1928 51.5983C48.0294 52.1077 47.9739 52.6461 48.03 53.1785L51.3772 85.0248C51.4269 85.4989 51.5824 85.9555 51.8318 86.3604C52.0813 86.7652 52.4182 87.1078 52.8175 87.3624C52.5616 86.9535 52.4025 86.4907 52.3525 86.0097Z" fill="#BFD5DD"/>
<path d="M77.3661 72.3024C79.4975 72.3024 81.2253 70.5577 81.2253 68.4054C81.2253 66.2531 79.4975 64.5083 77.3661 64.5083C75.2347 64.5083 73.5068 66.2531 73.5068 68.4054C73.5068 70.5577 75.2347 72.3024 77.3661 72.3024Z" fill="white"/>
<path d="M119.55 71.1532C119.713 71.0793 119.924 70.989 120.16 70.8758C120.208 70.7559 120.262 70.6164 120.322 70.4605C120.345 70.3964 120.371 70.3308 120.394 70.2618C120.465 70.0616 120.538 69.8334 120.615 69.5839C120.631 69.5215 120.652 69.4558 120.672 69.3918C120.764 69.0635 120.857 68.7122 120.938 68.3297C120.955 68.2526 120.973 68.1754 120.986 68.0966C120.999 68.0178 121.02 67.9325 121.034 67.8586C121.049 67.7847 121.062 67.6944 121.077 67.614C121.091 67.5336 121.096 67.4958 121.107 67.4351C121.119 67.3743 121.127 67.3054 121.135 67.2364C121.143 67.1675 121.158 67.0838 121.169 67.0066C121.182 66.8786 121.2 66.7489 121.213 66.6176C121.223 66.5322 121.231 66.4534 121.236 66.3599C121.25 66.2088 121.262 66.0562 121.267 65.9002C121.267 65.8263 121.267 65.7492 121.278 65.6737C121.278 65.5095 121.286 65.3454 121.286 65.1812C121.286 64.9744 121.286 64.7659 121.273 64.5558C121.266 64.4004 121.254 64.2444 121.239 64.0879C121.239 64.0026 121.224 63.9238 121.216 63.8335C121.208 63.7432 121.197 63.6693 121.185 63.5856C121.174 63.5019 121.166 63.4444 121.158 63.3706C121.15 63.2967 121.132 63.2064 121.116 63.1227C121.099 63.039 121.093 62.9815 121.078 62.9077C121.059 62.8059 121.036 62.7008 121.015 62.5958C120.994 62.4907 120.977 62.4316 120.958 62.343C120.938 62.2543 120.907 62.1476 120.88 62.0475C120.852 61.9473 120.812 61.8095 120.776 61.6896C120.74 61.5698 120.699 61.4483 120.657 61.3301C120.615 61.2119 120.573 61.0904 120.525 60.9723C120.386 60.6157 120.228 60.2671 120.051 59.9282C118.945 61.5846 118.12 63.5823 117.976 65.6885C117.873 67.4952 118.228 69.2986 119.007 70.9283L119.55 71.1532Z" fill="#39B9CE"/>
<path d="M118.237 68.9205C118.237 68.5369 120.581 68.2256 123.471 68.2256C126.361 68.2256 128.704 68.54 128.704 68.9205C128.704 69.3009 126.361 69.6153 123.471 69.6153C120.581 69.6153 118.237 69.304 118.237 68.9205Z" fill="white"/>
<path d="M114.917 77.3657C114.914 78.7976 115.147 80.2202 115.608 81.5758C115.775 82.0634 115.974 82.5392 116.205 83.0001H130.721C131.58 81.247 132.021 79.3183 132.009 77.3657C132.009 73.9323 130.708 70.873 128.688 68.9204L127.972 68.9896C126.533 69.1091 125.019 69.1751 123.455 69.1751C121.707 69.1777 119.961 69.0927 118.222 68.9204C116.217 70.873 114.917 73.9323 114.917 77.3657Z" fill="#11493E"/>
<path d="M115.608 81.5758C115.775 82.0634 115.974 82.5392 116.205 83.0001H130.721C131.58 81.247 132.021 79.3183 132.009 77.3657C132.009 73.9323 130.708 70.873 128.688 68.9204L127.972 68.9896C128.534 69.6872 128.988 70.4651 129.32 71.2974C129.634 72.0552 130.576 74.4259 129.753 76.957C129.259 78.5153 128.234 79.8506 126.857 80.73C123.577 82.7014 117.6 81.8839 115.608 81.5758Z" fill="#177260"/>
<path d="M124.243 67.0664C124.68 67.5286 125.431 67.6953 126.332 67.6575H126.496C127.24 67.5831 127.97 67.4075 128.666 67.1356L128.833 67.0727C129.555 66.7868 130.248 66.4298 130.9 66.0068L131.054 65.9062C131.703 65.4731 132.303 64.969 132.841 64.4033C132.898 64.3467 132.951 64.287 133.004 64.2272C133.058 64.1675 133.083 64.1392 133.121 64.092C133.564 63.5762 133.95 63.0131 134.27 62.413L134.346 62.2652C134.595 61.7763 134.805 61.2685 134.974 60.7466C134.99 60.6931 135.005 60.6397 135.024 60.5862C135.202 60.0055 135.334 59.4115 135.417 58.8098C134.53 58.64 133.627 58.5703 132.725 58.6023H132.527C131.832 58.6446 131.142 58.7498 130.466 58.9167L130.382 58.9387L130.209 58.9827C129.377 59.1867 128.568 59.4732 127.793 59.8379L127.645 59.9134C126.958 60.2536 126.323 60.692 125.761 61.2151L125.651 61.3157C125.125 61.8311 124.698 62.4399 124.394 63.111C124.394 63.1425 124.366 63.1739 124.353 63.2085C124.341 63.2431 124.331 63.2588 124.319 63.2871C124.178 63.5386 123.201 65.9628 124.243 67.0664Z" fill="#38A98E"/>
<path d="M130.768 61.6196C129.913 61.8948 129.091 62.2638 128.317 62.7201C127.93 62.9516 127.556 63.2034 127.196 63.4747C127.02 63.6162 126.841 63.7545 126.675 63.9023C126.508 64.0501 126.332 64.201 126.178 64.3645C124.874 65.652 123.941 67.2685 123.48 69.0431L123.923 69.15C124.295 67.4173 125.131 65.8186 126.342 64.5249C126.486 64.3551 126.656 64.2104 126.806 64.0501C126.957 63.8897 127.121 63.7545 127.303 63.6068C127.646 63.3241 128.005 63.0607 128.377 62.8176C129.128 62.3322 129.929 61.9305 130.768 61.6196Z" fill="#4D5B63"/>
<path d="M111.116 56.2442C111.116 56.3134 111.132 56.3794 111.144 56.4486C111.239 57.118 111.39 57.7785 111.594 58.4232C111.612 58.4892 111.634 58.5552 111.656 58.6244C111.919 59.4201 112.269 60.1837 112.702 60.9008C112.736 60.9637 112.774 61.0265 112.815 61.0894C112.866 61.1712 112.922 61.2561 112.976 61.3378C113.304 61.8294 113.668 62.297 114.063 62.737C114.311 63.0137 114.568 63.2809 114.838 63.5356C114.892 63.5891 114.945 63.6425 115.002 63.6897C115.706 64.3407 116.473 64.92 117.292 65.419L117.48 65.529C118.271 66.0028 119.121 66.3687 120.009 66.6169L120.204 66.6641C121.146 66.8873 122.001 66.8622 122.619 66.5352C122.706 66.4906 122.789 66.439 122.868 66.3811C124.363 65.2618 123.662 62.1207 123.581 61.7654C123.581 61.7308 123.565 61.6963 123.559 61.6648C123.55 61.6224 123.54 61.5804 123.527 61.5391C123.295 60.6595 122.901 59.8311 122.365 59.096C122.33 59.0457 122.293 58.9985 122.255 58.9514C121.676 58.1978 120.992 57.5317 120.223 56.9737L120.056 56.8511C119.189 56.2466 118.266 55.7284 117.298 55.3041C117.226 55.2758 117.16 55.2444 117.097 55.2161L117 55.1752C116.214 54.8312 115.398 54.5617 114.562 54.3703L114.32 54.3168C113.231 54.0877 112.119 53.9823 111.006 54.0024C110.983 54.7514 111.02 55.5011 111.116 56.2442Z" fill="#38A98E"/>
<path d="M114.063 62.7371C114.311 63.0137 114.569 63.281 114.839 63.5357C114.892 63.5891 114.946 63.6426 115.002 63.6897C115.706 64.3408 116.473 64.9201 117.292 65.4191L117.481 65.5291C118.271 66.0029 119.122 66.3688 120.009 66.617L120.204 66.6642C121.146 66.8874 122.001 66.8622 122.62 66.5352C122.708 64.9411 121.429 63.0169 119.695 62.1334C118.795 61.6918 117.789 61.5142 116.792 61.621C115.795 61.7279 114.849 62.1148 114.063 62.7371Z" fill="#347474"/>
<path d="M116.664 58.4438C117.646 58.9571 118.568 59.5782 119.413 60.2958C119.836 60.6546 120.239 61.0378 120.619 61.4434C120.801 61.6509 120.993 61.8553 121.165 62.0722C121.338 62.2892 121.517 62.503 121.671 62.7357C122.992 64.57 123.788 66.7299 123.974 68.9832L123.414 69.0209C123.366 67.9378 123.174 66.8658 122.846 65.8327C122.507 64.7972 122.035 63.8101 121.442 62.896C121.3 62.6602 121.128 62.4464 120.971 62.2232C120.814 61.9999 120.631 61.7924 120.462 61.5943C120.105 61.1772 119.724 60.7814 119.321 60.409C118.51 59.6581 117.619 58.9991 116.664 58.4438Z" fill="#4D5B63"/>
<path d="M122.777 67.774C122.541 68.145 122.058 68.3651 121.439 68.45H121.326C120.811 68.4958 120.292 68.4725 119.783 68.3809L119.664 68.3588C119.136 68.2601 118.62 68.1095 118.122 67.9092L118.005 67.8589C117.506 67.6525 117.032 67.3898 116.592 67.076L116.46 66.9786L116.362 66.8999C115.993 66.6098 115.658 66.2786 115.364 65.9127C115.338 65.8844 115.316 65.8529 115.291 65.8215C115.056 65.5248 114.846 65.2093 114.663 64.8782L114.606 64.7776C114.409 64.4062 114.242 64.0192 114.107 63.6206C114.687 63.3897 115.291 63.2241 115.907 63.1269L116.042 63.1081C116.519 63.0428 117 63.0228 117.481 63.0483H117.54H117.663C118.255 63.077 118.842 63.1655 119.416 63.3124L119.526 63.3439C120.039 63.4826 120.53 63.6944 120.983 63.9727L121.071 64.0293C121.498 64.3069 121.868 64.6633 122.161 65.0795L122.205 65.1392L122.237 65.1864C122.353 65.3813 123.342 66.8874 122.777 67.774Z" fill="#38A98E"/>
<path d="M118.068 64.9175C118.684 64.9942 119.29 65.1376 119.874 65.3451C120.167 65.4496 120.454 65.5714 120.732 65.7098C120.87 65.7821 121.012 65.8513 121.143 65.9299C121.275 66.0085 121.414 66.0871 121.542 66.1783C122.064 66.5344 122.537 66.9572 122.95 67.436C123.363 67.9118 123.712 68.4405 123.986 69.0081L123.697 69.1401C123.46 68.5771 123.148 68.0484 122.771 67.568C122.388 67.0929 121.944 66.6701 121.451 66.3104C121.332 66.216 121.2 66.1374 121.074 66.0525C120.949 65.9676 120.81 65.8953 120.679 65.8167C120.409 65.6689 120.131 65.5366 119.846 65.4205C119.274 65.1887 118.677 65.02 118.068 64.9175Z" fill="#4D5B63"/>
</svg>
