<svg width="21" height="21" viewBox="0 0 21 21" fill="none" xmlns="http://www.w3.org/2000/svg">
<path d="M10.0001 13.4042C9.34198 13.4042 8.80859 12.8265 8.80859 12.1134V5.29079C8.80859 4.57796 9.3421 4 10.0001 4C10.658 4 11.1916 4.57796 11.1916 5.29079V12.1134C11.1917 12.8265 10.6582 13.4042 10.0001 13.4042Z" fill="#D6453D"/>
<path d="M9.92363 16.9999C10.4877 16.9999 10.9449 16.5045 10.9449 15.8935C10.9449 15.2825 10.4877 14.7871 9.92363 14.7871C9.35959 14.7871 8.90234 15.2825 8.90234 15.8935C8.90234 16.5045 9.35959 16.9999 9.92363 16.9999Z" fill="#D6453D"/>
<path fill-rule="evenodd" clip-rule="evenodd" d="M16 1H6.003C2.928 1 1 3.177 1 6.259V14.573C1 17.655 2.919 19.832 6.003 19.832H14.827C17.912 19.832 19.831 17.655 19.831 14.573V6.259" stroke="#D6453D" stroke-width="1.5" stroke-linecap="round" stroke-linejoin="round"/>
</svg>
