<svg width="115" height="41" viewBox="0 0 115 41" fill="none" xmlns="http://www.w3.org/2000/svg">
<rect x="18.9521" width="14" height="14" transform="rotate(43.5208 18.9521 0)" fill="#D6453D"/>
<rect y="9" width="115" height="32" rx="4" fill="#D6453D"/>
<path d="M43.316 21.096V20.2H36.596V30H37.632V25.842H42.7V24.946H37.632V21.096H43.316ZM47.7706 22.58C46.6086 22.58 45.5166 22.944 44.7746 23.574L45.2226 24.316C45.8246 23.784 46.7206 23.448 47.6726 23.448C49.0446 23.448 49.7586 24.134 49.7586 25.394V25.842H47.4206C45.3066 25.842 44.5786 26.794 44.5786 27.928C44.5786 29.202 45.6006 30.07 47.2666 30.07C48.4846 30.07 49.3526 29.608 49.8006 28.852V30H50.7526V25.436C50.7526 23.532 49.6746 22.58 47.7706 22.58ZM47.4206 29.286C46.2446 29.286 45.5586 28.754 45.5586 27.9C45.5586 27.144 46.0206 26.584 47.4486 26.584H49.7586V27.788C49.3666 28.754 48.5406 29.286 47.4206 29.286ZM54.2064 21.026C54.6264 21.026 54.9344 20.704 54.9344 20.298C54.9344 19.92 54.6124 19.612 54.2064 19.612C53.8004 19.612 53.4784 19.934 53.4784 20.312C53.4784 20.704 53.8004 21.026 54.2064 21.026ZM53.7024 30H54.6964V22.636H53.7024V30ZM57.7122 30H58.7062V19.612H57.7122V30ZM68.1479 26.318C68.1479 24.106 66.6499 22.58 64.5779 22.58C62.5059 22.58 60.9799 24.134 60.9799 26.318C60.9799 28.502 62.5479 30.07 64.8439 30.07C66.0059 30.07 67.0279 29.65 67.6859 28.866L67.1259 28.222C66.5659 28.866 65.7679 29.188 64.8719 29.188C63.2619 29.188 62.0859 28.166 61.9739 26.626H68.1339C68.1339 26.514 68.1479 26.402 68.1479 26.318ZM64.5779 23.434C66.0199 23.434 67.0699 24.442 67.1959 25.884H61.9739C62.0999 24.442 63.1499 23.434 64.5779 23.434ZM76.1472 19.612V24.036C75.5312 23.084 74.5232 22.58 73.3472 22.58C71.2472 22.58 69.6792 24.092 69.6792 26.318C69.6792 28.544 71.2472 30.07 73.3472 30.07C74.5652 30.07 75.5872 29.538 76.1892 28.544V30H77.1412V19.612H76.1472ZM73.4312 29.188C71.8632 29.188 70.6872 28.04 70.6872 26.318C70.6872 24.596 71.8632 23.448 73.4312 23.448C74.9852 23.448 76.1612 24.596 76.1612 26.318C76.1612 28.04 74.9852 29.188 73.4312 29.188Z" fill="#F7F7F7"/>
</svg>
