<svg width="20" height="21" viewBox="0 0 20 21" fill="none" xmlns="http://www.w3.org/2000/svg">
    <g clip-path="url(#clip0_6906_16445)">
        <path d="M15.0709 8.39724H8.71762L8.25462 5.24374C8.14713 4.51162 7.45375 3.9126 6.71378 3.9126H1.16398C0.424003 3.9126 -0.0934855 4.51162 0.0140125 5.24374L1.78062 17.2769H18.2618L16.6901 9.71448C16.5395 8.98998 15.8109 8.39724 15.0709 8.39724Z" fill="#347474"/>
        <path d="M18.8516 5.25806H9.6167L9.88004 7.05189H15.0711C15.7373 7.05189 16.4048 7.29648 16.9507 7.7406C17.4967 8.18472 17.8719 8.78854 18.0075 9.44079L18.8618 13.5514L19.9831 6.58638C20.1007 5.85582 19.5915 5.25806 18.8516 5.25806Z" fill="#347474"/>
    </g>
    <defs>
        <clipPath id="clip0_6906_16445">
            <rect width="20" height="20" fill="white" transform="translate(0 0.594727)"/>
        </clipPath>
    </defs>
</svg>
