<svg width="134" height="134" viewBox="0 0 134 134" fill="none" xmlns="http://www.w3.org/2000/svg">
<path d="M104.266 109.016C111.884 100.137 116.063 88.8197 116.043 77.1207C116.043 50.0302 94.0823 28.0693 66.9918 28.0693C39.9013 28.0693 17.9483 50.0328 17.9483 77.1233C17.9287 88.8223 22.1078 100.14 29.7257 109.019L104.266 109.016Z" fill="#E9F1F1"/>
<path d="M111.189 109.278H14.5332C14.4638 109.278 14.3972 109.251 14.3481 109.202C14.2991 109.153 14.2715 109.086 14.2715 109.017C14.2715 108.947 14.2991 108.881 14.3481 108.832C14.3972 108.782 14.4638 108.755 14.5332 108.755H111.189C111.258 108.755 111.325 108.782 111.374 108.832C111.423 108.881 111.45 108.947 111.45 109.017C111.45 109.086 111.423 109.153 111.374 109.202C111.325 109.251 111.258 109.278 111.189 109.278Z" fill="black"/>
<path d="M113.585 109.278H112.633C112.563 109.278 112.497 109.251 112.448 109.202C112.399 109.153 112.371 109.086 112.371 109.017C112.371 108.947 112.399 108.881 112.448 108.832C112.497 108.782 112.563 108.755 112.633 108.755H113.585C113.655 108.755 113.721 108.782 113.771 108.832C113.82 108.881 113.847 108.947 113.847 109.017C113.847 109.086 113.82 109.153 113.771 109.202C113.721 109.251 113.655 109.278 113.585 109.278Z" fill="black"/>
<path d="M35.7793 77.958H38.9357L31.7175 109.016H29.9482L35.7793 77.958Z" fill="#FBBF9A"/>
<path d="M35.4626 79.6382C35.6884 79.6382 35.9113 79.6888 36.115 79.7861C36.3187 79.8835 36.498 80.0252 36.6398 80.2009C36.7816 80.3765 36.8823 80.5817 36.9345 80.8014C36.9866 81.021 36.989 81.2496 36.9413 81.4703L33.7614 96.1789C33.7473 96.2419 33.7475 96.3073 33.7621 96.3702C33.7767 96.4331 33.8053 96.4919 33.8459 96.5422C33.8864 96.5925 33.9377 96.6331 33.996 96.6608C34.0544 96.6885 34.1182 96.7027 34.1828 96.7023C34.2799 96.7024 34.3742 96.6696 34.4503 96.6093C34.5263 96.5489 34.5797 96.4645 34.6016 96.3699L38.9225 77.958H35.7793L35.4626 79.6382Z" fill="#E0AA8C"/>
<path d="M31.7178 109.278H29.9486C29.9099 109.279 29.8715 109.271 29.8363 109.255C29.801 109.239 29.7697 109.215 29.7447 109.186C29.7196 109.156 29.7015 109.121 29.6915 109.084C29.6815 109.047 29.6799 109.007 29.6869 108.969L35.518 77.9086C35.5291 77.8476 35.5616 77.7926 35.6095 77.7533C35.6574 77.714 35.7177 77.6929 35.7797 77.6939H38.936C38.9761 77.6929 39.0159 77.701 39.0523 77.7177C39.0888 77.7345 39.1209 77.7594 39.1461 77.7905C39.1714 77.8216 39.1892 77.8581 39.1982 77.8972C39.2071 77.9362 39.207 77.9768 39.1978 78.0159L31.9717 109.077C31.9582 109.134 31.9258 109.185 31.8797 109.221C31.8337 109.258 31.7766 109.278 31.7178 109.278ZM30.2627 108.755H31.5085L38.6063 78.2174H35.9891L30.2627 108.755Z" fill="black"/>
<path d="M67.4376 77.958H64.2812L71.4994 109.016H73.2687L67.4376 77.958Z" fill="#FBBF9A"/>
<path d="M67.7543 79.6386C67.5285 79.6385 67.3056 79.6891 67.1019 79.7864C66.8982 79.8838 66.7189 80.0255 66.5771 80.2012C66.4353 80.3768 66.3346 80.582 66.2824 80.8017C66.2302 81.0214 66.2279 81.2499 66.2755 81.4706L69.4423 96.1818C69.4565 96.2448 69.4563 96.3102 69.4417 96.3731C69.4271 96.436 69.3984 96.4949 69.3579 96.5452C69.3174 96.5955 69.2661 96.636 69.2078 96.6637C69.1494 96.6914 69.0856 96.7056 69.021 96.7052C68.9239 96.7054 68.8296 96.6726 68.7535 96.6122C68.6775 96.5518 68.6241 96.4675 68.6022 96.3729L64.2812 77.9609H67.4376L67.7543 79.6386Z" fill="#E0AA8C"/>
<path d="M73.281 109.278H71.5117C71.4516 109.28 71.3927 109.261 71.3451 109.224C71.2974 109.187 71.2638 109.135 71.25 109.077L64.0266 78.0159C64.0173 77.9768 64.0172 77.9362 64.0261 77.8972C64.0351 77.8581 64.0529 77.8216 64.0782 77.7905C64.1035 77.7594 64.1356 77.7345 64.172 77.7177C64.2084 77.701 64.2482 77.6929 64.2883 77.6939H67.4446C67.5066 77.6929 67.5669 77.714 67.6148 77.7533C67.6628 77.7926 67.6952 77.8476 67.7063 77.9086L73.5374 108.969C73.5444 109.007 73.5428 109.047 73.5329 109.084C73.5229 109.121 73.5047 109.156 73.4797 109.186C73.4546 109.215 73.4233 109.239 73.3881 109.255C73.3528 109.271 73.3144 109.279 73.2757 109.278H73.281ZM71.7106 108.755H72.9564L67.2195 78.22H64.6024L71.7106 108.755Z" fill="black"/>
<path d="M70.3606 74.4121H21.8274C21.4357 74.4121 21.1182 74.7297 21.1182 75.1214V77.3303C21.1182 77.722 21.4357 78.0395 21.8274 78.0395H70.3606C70.7523 78.0395 71.0698 77.722 71.0698 77.3303V75.1214C71.0698 74.7297 70.7523 74.4121 70.3606 74.4121Z" fill="#FBBF9A"/>
<path d="M70.3577 74.4121H68.5571C68.5571 74.9799 68.3315 75.5244 67.93 75.9259C67.5285 76.3274 66.984 76.553 66.4162 76.553H25.5724C25.3753 76.553 25.1862 76.6313 25.0468 76.7707C24.9074 76.9101 24.8291 77.0991 24.8291 77.2962C24.8291 77.4934 24.9074 77.6824 25.0468 77.8218C25.1862 77.9612 25.3753 78.0395 25.5724 78.0395H70.3577C70.5458 78.0395 70.7262 77.9648 70.8592 77.8318C70.9922 77.6988 71.067 77.5184 71.067 77.3303V75.1135C71.0649 74.9268 70.9892 74.7484 70.8565 74.6171C70.7237 74.4857 70.5444 74.4121 70.3577 74.4121Z" fill="#E0AA8C"/>
<path d="M70.3579 78.3013H21.8274C21.5701 78.3006 21.3235 78.1981 21.1416 78.0161C20.9597 77.8342 20.8571 77.5876 20.8564 77.3303V75.1136C20.8571 74.8562 20.9597 74.6097 21.1416 74.4277C21.3235 74.2458 21.5701 74.1433 21.8274 74.1426H70.3579C70.6152 74.1433 70.8618 74.2458 71.0437 74.4277C71.2257 74.6097 71.3282 74.8562 71.3289 75.1136V77.3225C71.3296 77.4505 71.305 77.5775 71.2565 77.696C71.2081 77.8146 71.1367 77.9224 71.0465 78.0134C70.9563 78.1043 70.8491 78.1765 70.7309 78.2259C70.6128 78.2753 70.486 78.3009 70.3579 78.3013ZM21.8274 74.6739C21.7103 74.6745 21.598 74.7208 21.5144 74.8029C21.4309 74.885 21.3826 74.9964 21.3799 75.1136V77.3225C21.3806 77.4409 21.4279 77.5544 21.5117 77.6382C21.5955 77.7219 21.7089 77.7693 21.8274 77.77H70.3579C70.4764 77.7693 70.5898 77.7219 70.6736 77.6382C70.7574 77.5544 70.8048 77.4409 70.8055 77.3225V75.1136C70.8048 74.9951 70.7574 74.8816 70.6736 74.7979C70.5898 74.7141 70.4764 74.6667 70.3579 74.666L21.8274 74.6739Z" fill="black"/>
<path d="M66.9449 74.4119V73.6111C66.9449 73.4174 66.868 73.2317 66.731 73.0947C66.5941 72.9578 66.4084 72.8809 66.2147 72.8809H56.3113C56.1176 72.8809 55.9319 72.9578 55.7949 73.0947C55.658 73.2317 55.5811 73.4174 55.5811 73.6111V74.4119" fill="#D9DDDD"/>
<path d="M66.215 72.8809H66.1443C66.1624 72.943 66.1721 73.0072 66.1731 73.0719C66.1731 73.2843 66.0887 73.488 65.9386 73.6382C65.7884 73.7884 65.5847 73.8728 65.3723 73.8728H55.584V74.4119H66.9452V73.6111C66.9452 73.4174 66.8683 73.2317 66.7313 73.0947C66.5944 72.9578 66.4087 72.8809 66.215 72.8809Z" fill="#C9C9C9"/>
<path d="M66.9452 74.6736H55.584C55.5146 74.6736 55.448 74.6461 55.3989 74.597C55.3498 74.5479 55.3223 74.4813 55.3223 74.4119V73.6111C55.3223 73.348 55.4268 73.0957 55.6128 72.9097C55.7988 72.7236 56.0511 72.6191 56.3142 72.6191H66.215C66.3453 72.6191 66.4742 72.6448 66.5946 72.6946C66.7149 72.7445 66.8243 72.8176 66.9164 72.9097C67.0085 73.0018 67.0816 73.1111 67.1314 73.2315C67.1813 73.3518 67.2069 73.4808 67.2069 73.6111V74.4119C67.2069 74.4463 67.2001 74.4803 67.187 74.5121C67.1738 74.5438 67.1546 74.5727 67.1303 74.597C67.106 74.6213 67.0771 74.6406 67.0453 74.6537C67.0136 74.6669 66.9796 74.6736 66.9452 74.6736ZM55.8457 74.1502H66.6835V73.6111C66.6835 73.4868 66.6341 73.3677 66.5463 73.2798C66.4584 73.1919 66.3392 73.1426 66.215 73.1426H56.3142C56.1899 73.1426 56.0708 73.1919 55.9829 73.2798C55.8951 73.3677 55.8457 73.4868 55.8457 73.6111V74.1502Z" fill="black"/>
<path d="M45.4371 74.4121H41.4145C41.0881 74.4125 40.7672 74.3284 40.4829 74.1681C40.1985 74.0078 39.9605 73.7767 39.7919 73.4972C39.6234 73.2177 39.5299 72.8994 39.5207 72.5731C39.5116 72.2469 39.5869 71.9238 39.7395 71.6353L43.7412 64.0454H38.4126L34.4109 71.6353C34.2583 71.9238 34.183 72.2469 34.1922 72.5731C34.2013 72.8994 34.2948 73.2177 34.4634 73.4972C34.6319 73.7767 34.87 74.0078 35.1543 74.1681C35.4386 74.3284 35.7595 74.4125 36.0859 74.4121H45.4371Z" fill="#C9C9C9"/>
<path d="M45.437 74.6736H36.0858C35.7146 74.6737 35.3498 74.5778 35.0266 74.3953C34.7034 74.2129 34.4328 73.95 34.2412 73.6322C34.0495 73.3143 33.9432 72.9524 33.9325 72.5814C33.9219 72.2104 34.0073 71.843 34.1805 71.5147L38.1822 63.9248C38.2044 63.8831 38.2376 63.8481 38.2781 63.8237C38.3187 63.7992 38.3651 63.7863 38.4125 63.7861H43.7411C43.7862 63.7863 43.8305 63.798 43.8697 63.8203C43.909 63.8426 43.9417 63.8747 43.9649 63.9134C43.9881 63.9521 44.0009 63.9962 44.002 64.0413C44.0031 64.0864 43.9926 64.131 43.9714 64.1709L39.9697 71.7607C39.8384 72.0092 39.7736 72.2874 39.7815 72.5684C39.7895 72.8493 39.8699 73.1234 40.015 73.3641C40.1601 73.6048 40.365 73.8039 40.6097 73.9421C40.8544 74.0803 41.1307 74.1529 41.4118 74.1528H45.4344C45.5038 74.1528 45.5704 74.1804 45.6194 74.2295C45.6685 74.2786 45.6961 74.3451 45.6961 74.4145C45.6961 74.4839 45.6685 74.5505 45.6194 74.5996C45.5704 74.6487 45.5038 74.6763 45.4344 74.6763L45.437 74.6736ZM38.5721 64.3148L34.6463 71.7581C34.5151 72.0066 34.4502 72.2848 34.4582 72.5658C34.4661 72.8467 34.5465 73.1208 34.6916 73.3615C34.8367 73.6022 35.0416 73.8013 35.2863 73.9395C35.5311 74.0777 35.8074 74.1503 36.0884 74.1502H40.0142C39.8428 73.9996 39.6962 73.823 39.5797 73.6268C39.3867 73.3095 39.2796 72.9474 39.269 72.5761C39.2585 72.2048 39.3448 71.8372 39.5195 71.5095L43.3171 64.3122L38.5721 64.3148Z" fill="black"/>
<path d="M43.3511 71.6807C42.8328 71.8661 42.2621 71.8381 41.7645 71.6028C41.2669 71.3675 40.8832 70.9441 40.6977 70.4259L33.7923 51.1291C33.6068 50.6108 33.6348 50.0401 33.8701 49.5425C34.1055 49.0449 34.5288 48.6612 35.0471 48.4757C35.2288 48.4107 35.4288 48.4205 35.6033 48.503C35.7777 48.5855 35.9122 48.7339 35.9773 48.9156L43.791 70.7505C43.856 70.9322 43.8462 71.1323 43.7637 71.3067C43.6812 71.4811 43.5328 71.6157 43.3511 71.6807Z" fill="#D9DDDD"/>
<path d="M34.1303 50.9826C34.0372 51.0226 33.963 51.0966 33.9226 51.1895C33.8822 51.2824 33.8788 51.3872 33.9131 51.4825L40.6942 70.4283C40.787 70.6879 40.9305 70.9265 41.1165 71.13C41.3025 71.3335 41.5271 71.4979 41.7774 71.6137C42.0276 71.7294 42.2984 71.7941 42.5739 71.804C42.8494 71.814 43.1241 71.7689 43.382 71.6715C43.5565 71.6019 43.6969 71.4669 43.7731 71.2952C43.8494 71.1236 43.8556 70.9289 43.7903 70.7528L43.7013 70.4911C43.0338 70.3938 42.4053 70.1169 41.883 69.69C41.3607 69.2632 40.9643 68.7024 40.7361 68.0676L34.6668 51.2024C34.6474 51.1517 34.6178 51.1055 34.5798 51.0666C34.5419 51.0278 34.4964 50.9971 34.4461 50.9765C34.3958 50.9559 34.3419 50.9458 34.2876 50.9469C34.2332 50.9479 34.1797 50.9601 34.1303 50.9826Z" fill="#C9C9C9"/>
<path d="M42.6601 72.0667C42.179 72.0635 41.7104 71.913 41.3174 71.6356C40.9244 71.3581 40.6257 70.967 40.4616 70.5147L33.5549 51.2182C33.4513 50.9292 33.4058 50.6225 33.4208 50.3159C33.4358 50.0092 33.511 49.7085 33.6423 49.431C33.7735 49.1534 33.9582 48.9044 34.1857 48.6983C34.4132 48.4921 34.6791 48.3328 34.9682 48.2294C35.2153 48.1412 35.4873 48.1549 35.7243 48.2673C35.9614 48.3797 36.1441 48.5816 36.2323 48.8287L44.0341 70.6639C44.1224 70.9107 44.1091 71.1824 43.9972 71.4194C43.8853 71.6564 43.684 71.8393 43.4374 71.928C43.188 72.018 42.9252 72.0649 42.6601 72.0667ZM35.3005 48.6952C35.2471 48.6949 35.194 48.7037 35.1435 48.7214C34.9177 48.7993 34.7096 48.9211 34.531 49.0797C34.3524 49.2382 34.2069 49.4305 34.1028 49.6455C33.9987 49.8605 33.9381 50.0939 33.9245 50.3323C33.9109 50.5708 33.9445 50.8096 34.0234 51.035L40.9301 70.3315C41.0104 70.5558 41.134 70.762 41.294 70.9385C41.4539 71.115 41.6471 71.2582 41.8624 71.3601C42.0777 71.4619 42.311 71.5203 42.5489 71.532C42.7868 71.5437 43.0247 71.5084 43.2489 71.4281C43.3068 71.4076 43.36 71.3759 43.4055 71.3348C43.451 71.2936 43.488 71.2439 43.5142 71.1885C43.5405 71.133 43.5556 71.0729 43.5585 71.0117C43.5615 70.9504 43.5524 70.8891 43.5316 70.8314L35.7167 48.9962C35.6844 48.906 35.6251 48.828 35.5469 48.7728C35.4687 48.7175 35.3754 48.6877 35.2796 48.6874L35.3005 48.6952Z" fill="black"/>
<path d="M59.0042 74.4119V73.6111C59.0042 73.4174 58.9273 73.2317 58.7904 73.0947C58.6534 72.9578 58.4677 72.8809 58.274 72.8809H52.6052C52.4115 72.8809 52.2258 72.9578 52.0889 73.0947C51.9519 73.2317 51.875 73.4174 51.875 73.6111V74.4119" fill="#D9DDDD"/>
<path d="M58.2747 72.8809H58.2041C58.2222 72.943 58.2318 73.0072 58.2328 73.0719C58.2328 73.2843 58.1485 73.488 57.9983 73.6382C57.8481 73.7884 57.6444 73.8728 57.432 73.8728H51.8652V74.4119H59.0049V73.6111C59.0049 73.4174 58.928 73.2317 58.791 73.0947C58.6541 72.9578 58.4684 72.8809 58.2747 72.8809Z" fill="#C9C9C9"/>
<path d="M59.0049 74.6736H51.8652C51.7958 74.6736 51.7293 74.6461 51.6802 74.597C51.6311 74.5479 51.6035 74.4813 51.6035 74.4119V73.6111C51.6035 73.348 51.708 73.0957 51.894 72.9097C52.0801 72.7236 52.3324 72.6191 52.5954 72.6191H58.2773C58.5404 72.6191 58.7927 72.7236 58.9787 72.9097C59.1648 73.0957 59.2693 73.348 59.2693 73.6111V74.4119C59.2693 74.4465 59.2624 74.4808 59.2491 74.5127C59.2358 74.5446 59.2163 74.5736 59.1917 74.5979C59.1671 74.6222 59.1379 74.6415 59.1059 74.6545C59.0738 74.6675 59.0395 74.674 59.0049 74.6736ZM52.127 74.1502H58.7432V73.6111C58.7432 73.4868 58.6938 73.3677 58.606 73.2798C58.5181 73.1919 58.399 73.1426 58.2747 73.1426H52.6059C52.4817 73.1426 52.3625 73.1919 52.2746 73.2798C52.1868 73.3677 52.1374 73.4868 52.1374 73.6111L52.127 74.1502Z" fill="black"/>
<path d="M56.4478 71.805H43.3462L35.2041 48.4414H48.8554C49.1729 48.4412 49.4826 48.5395 49.7418 48.7228C50.0011 48.9061 50.197 49.1653 50.3027 49.4647L57.547 70.2531C57.609 70.4288 57.6279 70.6168 57.6022 70.8013C57.5764 70.9858 57.5068 71.1615 57.3991 71.3135C57.2914 71.4656 57.1488 71.5896 56.9833 71.6751C56.8178 71.7606 56.6341 71.8052 56.4478 71.805Z" fill="#3C4068"/>
<path d="M43.3459 71.8052H56.4475C56.6332 71.805 56.8162 71.7604 56.9812 71.6752C57.1461 71.59 57.2883 71.4665 57.3959 71.3152C57.5035 71.1638 57.5733 70.9889 57.5995 70.8051C57.6258 70.6213 57.6077 70.4338 57.5468 70.2584L56.4109 67H41.6709L43.3459 71.8052Z" fill="#D9DDDD"/>
<path d="M56.4477 72.0667H43.3461C43.292 72.0665 43.2393 72.0496 43.1952 72.0182C43.1512 71.9868 43.1179 71.9425 43.1001 71.8914L34.958 48.5278C34.9443 48.4884 34.9401 48.4463 34.9459 48.405C34.9517 48.3637 34.9673 48.3244 34.9914 48.2904C35.0154 48.2563 35.0473 48.2285 35.0843 48.2092C35.1213 48.19 35.1623 48.1799 35.204 48.1797H48.8553C49.228 48.1795 49.5914 48.2953 49.8953 48.5111C50.1992 48.7268 50.4285 49.0317 50.5512 49.3836L57.7956 70.1719C57.8703 70.3867 57.8925 70.6162 57.8605 70.8413C57.8285 71.0665 57.7431 71.2807 57.6114 71.4661C57.4798 71.6515 57.3057 71.8028 57.1038 71.9073C56.9018 72.0117 56.6778 72.0664 56.4504 72.0667H56.4477ZM43.5319 71.5433H56.4477C56.5915 71.5429 56.7331 71.5082 56.8608 71.442C56.9884 71.3759 57.0984 71.2802 57.1816 71.1629C57.2648 71.0457 57.3188 70.9103 57.3391 70.7679C57.3594 70.6256 57.3454 70.4805 57.2983 70.3446L50.054 49.5563C49.967 49.307 49.8047 49.0909 49.5894 48.9381C49.3742 48.7852 49.1167 48.7031 48.8527 48.7031H35.5731L43.5319 71.5433Z" fill="black"/>
<path d="M56.4475 72.0669H43.3458C43.2917 72.0666 43.239 72.0497 43.195 72.0183C43.1509 71.9869 43.1177 71.9426 43.0998 71.8915L41.4248 67.0864C41.4111 67.047 41.4069 67.0049 41.4127 66.9636C41.4185 66.9223 41.4341 66.883 41.4581 66.8489C41.4822 66.8149 41.5141 66.7871 41.5511 66.7678C41.5881 66.7486 41.6291 66.7384 41.6708 66.7383H56.4108C56.4649 66.7385 56.5176 66.7555 56.5617 66.7869C56.6058 66.8183 56.639 66.8626 56.6568 66.9136L57.7927 70.172C57.8674 70.3868 57.8896 70.6163 57.8576 70.8415C57.8256 71.0666 57.7402 71.2808 57.6085 71.4662C57.4769 71.6516 57.3028 71.8029 57.1009 71.9074C56.8989 72.0119 56.6749 72.0665 56.4475 72.0669ZM43.5317 71.5434H56.4475C56.5912 71.543 56.7328 71.5083 56.8605 71.4421C56.9881 71.376 57.0981 71.2803 57.1813 71.163C57.2645 71.0458 57.3185 70.9104 57.3388 70.768C57.3591 70.6257 57.3451 70.4806 57.2981 70.3448L56.225 67.2617H42.0399L43.5317 71.5434Z" fill="black"/>
<path d="M51.2316 69.2323C51.4253 69.7558 51.3049 70.1902 50.9699 70.1902C50.6349 70.1902 50.2005 69.761 50.0068 69.2323C49.8131 68.7036 49.9335 68.2744 50.2685 68.2744C50.6035 68.2744 51.0353 68.7036 51.2316 69.2323Z" fill="white"/>
<path d="M28.3155 68.1856L28.3521 68.1673C28.6082 68.039 28.8111 67.8249 28.9255 67.5623C29.0398 67.2997 29.0582 67.0053 28.9776 66.7305C28.4149 64.7466 28.8023 62.3441 29.31 60.1639C29.3839 59.8463 29.3857 59.5162 29.3154 59.1977C29.245 58.8793 29.1043 58.5806 28.9036 58.3236C28.7028 58.0666 28.447 57.8578 28.1551 57.7125C27.8631 57.5673 27.5423 57.4891 27.2163 57.4839C26.6523 57.4713 26.1053 57.6773 25.6897 58.0588C25.2741 58.4402 25.0221 58.9676 24.9864 59.5306C24.8268 62.2211 25.5282 64.9979 26.6614 67.5915C26.7277 67.742 26.8238 67.8774 26.9441 67.9896C27.0643 68.1017 27.2061 68.1882 27.3609 68.2438C27.5156 68.2993 27.68 68.3228 27.8442 68.3129C28.0083 68.3029 28.1686 68.2596 28.3155 68.1856Z" fill="#38A98E"/>
<path d="M27.7734 68.5703C27.6002 68.5706 27.4284 68.5405 27.2656 68.4813C27.0799 68.4144 26.9099 68.3102 26.7659 68.1752C26.6219 68.0402 26.5069 67.8772 26.4281 67.6962C25.1536 64.7728 24.583 62.0273 24.7322 59.5148C24.769 58.893 25.0426 58.3088 25.4967 57.8824C25.9509 57.456 26.5511 57.2198 27.174 57.2222H27.2264C27.5916 57.2276 27.951 57.3147 28.2781 57.4771C28.6053 57.6395 28.892 57.8731 29.1171 58.1607C29.3422 58.4483 29.5001 58.7827 29.5792 59.1393C29.6582 59.4959 29.6565 59.8657 29.574 60.2215C29.1212 62.1713 28.6737 64.6707 29.239 66.6571C29.3365 66.9906 29.314 67.3477 29.1753 67.6662C29.0366 67.9847 28.7905 68.2444 28.48 68.4002L28.4434 68.4185C28.235 68.5208 28.0055 68.5728 27.7734 68.5703ZM27.174 57.7404C26.6842 57.7375 26.2119 57.9227 25.8545 58.2577C25.4971 58.5927 25.2818 59.052 25.253 59.541C25.1091 61.9645 25.6665 64.6367 26.9071 67.4816C26.9578 67.5981 27.0317 67.703 27.1244 67.7898C27.2172 67.8767 27.3267 67.9437 27.4462 67.9867C27.5675 68.0318 27.6967 68.0515 27.8258 68.0448C27.955 68.038 28.0815 68.0049 28.1974 67.9474L28.234 67.9291C28.4348 67.8275 28.5937 67.6588 28.6831 67.4523C28.7725 67.2457 28.7868 67.0144 28.7234 66.7985C28.1241 64.689 28.5847 62.1111 29.0506 60.1011C29.1148 59.8226 29.1162 59.5333 29.0546 59.2543C28.993 58.9752 28.87 58.7134 28.6946 58.4878C28.5191 58.2622 28.2956 58.0786 28.0403 57.9502C27.7849 57.8218 27.5042 57.7519 27.2185 57.7456L27.174 57.7404Z" fill="black"/>
<path d="M28.5741 68.1566H28.6108C28.8733 68.1984 29.1422 68.1466 29.3704 68.0103C29.5986 67.8739 29.7716 67.6617 29.8592 67.4107C30.5082 65.6101 32.0995 64.0083 33.6619 62.6395C33.8876 62.4405 34.0661 62.1938 34.1846 61.9173C34.3031 61.6407 34.3586 61.3413 34.3471 61.0407C34.3356 60.74 34.2573 60.4457 34.118 60.179C33.9787 59.9124 33.7818 59.6801 33.5415 59.4989C33.1233 59.1842 32.5995 59.0436 32.0799 59.1065C31.5603 59.1694 31.0852 59.4311 30.7542 59.8365C29.1839 61.7785 28.2051 64.2517 27.6555 66.8192C27.6245 66.9676 27.624 67.1208 27.6538 67.2694C27.6836 67.4181 27.7433 67.5591 27.8291 67.6841C27.915 67.8091 28.0252 67.9154 28.1533 67.9966C28.2813 68.0778 28.4245 68.1322 28.5741 68.1566Z" fill="#38A98E"/>
<path d="M33.7617 62.1035C33.7902 62.1317 33.8129 62.1653 33.8284 62.2024C33.8439 62.2395 33.8519 62.2792 33.8519 62.3194C33.8519 62.3596 33.8439 62.3993 33.8284 62.4364C33.8129 62.4735 33.7902 62.5071 33.7617 62.5353C33.725 62.5737 33.6858 62.6104 33.6439 62.6452C32.0736 64.0193 30.4823 65.6236 29.8359 67.4321C29.7469 67.6801 29.5738 67.889 29.3466 68.0224C29.1194 68.1558 28.8526 68.2053 28.5927 68.1623H28.5561C28.4062 68.1379 28.2628 68.0834 28.1345 68.0021C28.0063 67.9207 27.8959 67.8141 27.81 67.6889C27.7241 67.5636 27.6646 67.4222 27.6349 67.2733C27.6052 67.1243 27.6061 66.9709 27.6375 66.8223C27.7282 66.3965 27.832 65.9743 27.9489 65.5556C28.134 65.7066 28.3478 65.8185 28.5774 65.8846C28.807 65.9506 29.0476 65.9694 29.2847 65.9398C29.5217 65.9102 29.7503 65.8328 29.9567 65.7123C30.163 65.5919 30.3427 65.4308 30.485 65.2389C31.3201 64.0908 32.2785 63.0377 33.3429 62.0983C33.4 62.0452 33.4754 62.0161 33.5533 62.0171C33.6313 62.0181 33.7059 62.049 33.7617 62.1035Z" fill="#548383"/>
<path d="M28.7893 68.4392C28.7139 68.4394 28.6386 68.4332 28.5642 68.4209H28.5276C28.3419 68.39 28.1643 68.322 28.0055 68.2208C27.8468 68.1196 27.7101 67.9874 27.6037 67.832C27.4981 67.6786 27.425 67.5052 27.389 67.3224C27.353 67.1397 27.3548 66.9515 27.3943 66.7695C28.0146 63.8749 29.0746 61.488 30.535 59.6769C30.736 59.4334 30.9852 59.2341 31.2669 59.0915C31.5486 58.9489 31.8567 58.8661 32.172 58.8484C32.4872 58.8306 32.8027 58.8782 33.0987 58.9882C33.3947 59.0981 33.6647 59.2681 33.8918 59.4875C34.1189 59.7068 34.2983 59.9708 34.4185 60.2627C34.5387 60.5547 34.5973 60.8683 34.5905 61.184C34.5837 61.4997 34.5117 61.8105 34.379 62.097C34.2464 62.3836 34.0559 62.6395 33.8195 62.8489C32.4534 64.0659 30.7574 65.6912 30.0979 67.5075C30.0014 67.7781 29.8242 68.0126 29.5902 68.1792C29.3561 68.3459 29.0766 68.4366 28.7893 68.4392ZM28.6139 67.8975H28.6506C28.8528 67.9296 29.0599 67.8896 29.2356 67.7843C29.4112 67.679 29.5441 67.5152 29.6111 67.3217C30.302 65.4033 32.0477 63.7074 33.4871 62.4433C33.6679 62.2814 33.8134 62.0839 33.9145 61.8633C34.0156 61.6427 34.0702 61.4037 34.0748 61.161C34.0794 60.9184 34.034 60.6774 33.9414 60.4531C33.8488 60.2288 33.711 60.026 33.5365 59.8573C33.3621 59.6886 33.1547 59.5577 32.9275 59.4727C32.7002 59.3876 32.4578 59.3504 32.2155 59.3632C31.9731 59.3759 31.736 59.4385 31.5189 59.547C31.3019 59.6554 31.1094 59.8075 30.9537 59.9936C29.5352 61.7392 28.5093 64.0528 27.9073 66.8663C27.8831 66.9789 27.8822 67.0953 27.9047 67.2083C27.9272 67.3213 27.9726 67.4285 28.0382 67.5232C28.1034 67.6225 28.1884 67.7073 28.2879 67.7722C28.3875 67.837 28.4994 67.8806 28.6166 67.9001L28.6139 67.8975Z" fill="black"/>
<path d="M26.8316 68.3324H26.8002C26.5808 68.3701 26.3551 68.3288 26.1634 68.2156C25.9717 68.1025 25.8264 67.925 25.7533 67.7147C25.2142 66.2229 23.8977 64.896 22.6127 63.7628C22.4229 63.598 22.2726 63.3927 22.1727 63.1622C22.0728 62.9316 22.0258 62.6815 22.0354 62.4304C22.0449 62.1792 22.1107 61.9334 22.2278 61.7111C22.3449 61.4887 22.5104 61.2955 22.7121 61.1456C23.0585 60.885 23.4924 60.7686 23.9227 60.8208C24.353 60.873 24.7465 61.0898 25.0205 61.4256C26.3291 63.0352 27.1326 65.0897 27.588 67.2122C27.6153 67.3357 27.6171 67.4634 27.5935 67.5877C27.5698 67.7119 27.5212 67.83 27.4504 67.9348C27.3796 68.0396 27.2883 68.1289 27.1819 68.1972C27.0755 68.2656 26.9563 68.3116 26.8316 68.3324Z" fill="#38A98E"/>
<path d="M22.5261 63.3151C22.4805 63.3637 22.4551 63.4278 22.4551 63.4944C22.4551 63.561 22.4805 63.6251 22.5261 63.6737L22.623 63.7653C23.9316 64.9038 25.2401 66.2333 25.7793 67.7303C25.8529 67.9355 25.9962 68.1084 26.1841 68.2188C26.372 68.3293 26.5928 68.3704 26.8078 68.3349H26.8393C26.9634 68.3146 27.0821 68.2694 27.1882 68.2019C27.2944 68.1345 27.3858 68.0463 27.457 67.9426C27.5281 67.839 27.5775 67.7219 27.6023 67.5986C27.627 67.4753 27.6265 67.3483 27.6009 67.2252C27.5258 66.8762 27.4386 66.5273 27.3391 66.1783C27.186 66.3024 27.0095 66.3943 26.82 66.4484C26.6305 66.5026 26.432 66.5179 26.2365 66.4934C26.041 66.469 25.8524 66.4053 25.6821 66.3062C25.5118 66.2071 25.3632 66.0746 25.2454 65.9166C24.5582 64.9608 23.7683 64.0831 22.8899 63.2994C22.8391 63.2543 22.7727 63.2307 22.7048 63.2336C22.6369 63.2366 22.5729 63.2658 22.5261 63.3151Z" fill="#548383"/>
<path d="M26.6484 68.6096C26.4001 68.6082 26.1584 68.5303 25.956 68.3866C25.7537 68.2428 25.6007 68.0401 25.5177 67.8061C24.9943 66.3195 23.5915 64.9717 22.4399 63.9615C22.2394 63.784 22.0778 63.5669 21.9652 63.324C21.8526 63.081 21.7915 62.8174 21.7856 62.5497C21.7798 62.282 21.8294 62.016 21.9313 61.7684C22.0332 61.5207 22.1852 61.2969 22.3778 61.1108C22.5703 60.9247 22.7993 60.7805 23.0503 60.6872C23.3013 60.5939 23.5689 60.5535 23.8362 60.5685C24.1036 60.5835 24.3649 60.6537 24.6038 60.7746C24.8428 60.8955 25.0541 61.0645 25.2246 61.271C26.4468 62.7759 27.3184 64.7597 27.8418 67.1649C27.876 67.3218 27.8777 67.4841 27.8466 67.6417C27.8156 67.7992 27.7524 67.9487 27.6612 68.0809C27.5709 68.2137 27.4549 68.3271 27.3201 68.4143C27.1852 68.5015 27.0342 68.5608 26.8761 68.5887H26.8447C26.7799 68.6011 26.7143 68.6081 26.6484 68.6096ZM23.7276 61.0799C23.4385 61.0796 23.1562 61.1674 22.9183 61.3316C22.6804 61.4958 22.4983 61.7287 22.3962 61.9992C22.2941 62.2696 22.2769 62.5648 22.3469 62.8452C22.4169 63.1257 22.5708 63.3781 22.788 63.5689C23.9867 64.6158 25.4366 66.0317 26.0124 67.6308C26.0649 67.7807 26.1683 67.9075 26.3045 67.9893C26.4407 68.071 26.6013 68.1025 26.7583 68.0783H26.7897C26.8798 68.0639 26.9661 68.0311 27.043 67.9821C27.12 67.933 27.1861 67.8687 27.2372 67.793C27.2894 67.7176 27.3253 67.632 27.3424 67.5418C27.3595 67.4517 27.3576 67.3589 27.3367 67.2696C26.8394 64.9455 25.9914 63.035 24.8216 61.5955C24.6891 61.4336 24.5221 61.3032 24.3329 61.214C24.1436 61.1248 23.9368 61.079 23.7276 61.0799Z" fill="black"/>
<path d="M23.2461 71.159C23.246 71.7736 23.3761 72.3813 23.6278 72.942C23.8795 73.5027 24.2472 74.0037 24.7065 74.4121H30.5245C31.0076 73.9822 31.3888 73.45 31.6406 72.8544C31.8923 72.2587 32.0083 71.6144 31.9799 70.9683C31.9516 70.3222 31.7798 69.6906 31.4769 69.1192C31.174 68.5478 30.7476 68.0511 30.2288 67.665H24.9944C24.4512 68.0712 24.0102 68.5985 23.7067 69.2051C23.4032 69.8117 23.2455 70.4807 23.2461 71.159Z" fill="white"/>
<path d="M30.6765 68.0469C31.0563 68.7032 31.2567 69.4478 31.2576 70.2061C31.2576 70.2061 31.2576 70.2322 31.2576 70.2453C31.237 71.1094 30.8774 71.9307 30.2566 72.532C29.6357 73.1333 28.8033 73.4663 27.939 73.4592H26.8136C26.7254 73.4596 26.639 73.4846 26.5643 73.5313C26.4895 73.5781 26.4293 73.6449 26.3904 73.724C26.3515 73.8032 26.3354 73.8916 26.3441 73.9794C26.3527 74.0672 26.3857 74.1508 26.4393 74.2208C26.4833 74.2784 26.54 74.325 26.6049 74.3572C26.6697 74.3894 26.7411 74.4064 26.8136 74.4066H30.5247C30.9708 74.0102 31.3305 73.5262 31.5814 72.9847C31.8322 72.4432 31.9689 71.8558 31.9829 71.2592C31.9969 70.6626 31.8879 70.0695 31.6627 69.5168C31.4375 68.9642 31.1009 68.4638 30.6739 68.0469H30.6765Z" fill="#E7F2F2"/>
<path d="M30.524 74.6734H24.706C24.6414 74.6739 24.579 74.6506 24.5306 74.608C24.0185 74.1521 23.6143 73.588 23.3475 72.9564C23.0806 72.3249 22.9578 71.6419 22.9878 70.9569C23.0179 70.272 23.2002 69.6024 23.5213 68.9966C23.8425 68.3909 24.2946 67.8644 24.8447 67.4552C24.89 67.4212 24.9451 67.4028 25.0017 67.4028H30.2361C30.2927 67.4028 30.3478 67.4212 30.3931 67.4552C30.9432 67.8644 31.3953 68.3909 31.7164 68.9966C32.0376 69.6024 32.2199 70.272 32.2499 70.9569C32.28 71.6419 32.1572 72.3249 31.8903 72.9564C31.6234 73.588 31.2193 74.1521 30.7072 74.608C30.6568 74.6525 30.5912 74.6759 30.524 74.6734ZM24.808 74.1499H30.4219C30.8548 73.7456 31.1947 73.2522 31.4183 72.7036C31.6419 72.1551 31.7438 71.5646 31.7169 70.9729C31.69 70.3811 31.5351 69.8023 31.2627 69.2763C30.9903 68.7503 30.607 68.2897 30.1392 67.9263H25.0907C24.6229 68.2897 24.2396 68.7503 23.9673 69.2763C23.6949 69.8023 23.5399 70.3811 23.513 70.9729C23.4861 71.5646 23.588 72.1551 23.8116 72.7036C24.0352 73.2522 24.3751 73.7456 24.808 74.1499Z" fill="black"/>
<path d="M73.4408 77.9506C73.4408 77.9506 57.9994 83.6691 57.3922 84.4438C56.785 85.2185 60.0094 98.1762 60.5328 99.2283C61.0563 100.28 60.5538 101.081 60.7474 101.893C60.9022 102.424 61.2143 102.895 61.6425 103.246L65.4715 102.377L63.2207 89.1077C63.2207 89.1077 81.2374 85.5404 82.6716 84.8678C84.8491 83.8471 83.5693 80.0234 83.5693 80.0234L74.8881 77.2832L73.4408 77.9506Z" fill="#3C4068"/>
<path d="M61.6508 103.507C61.593 103.507 61.5368 103.487 61.4912 103.452C61.0154 103.065 60.67 102.542 60.5019 101.952C60.4346 101.598 60.4293 101.235 60.4862 100.879C60.5885 100.361 60.5253 99.8235 60.3056 99.343C60.0282 98.7856 59.0833 95.255 58.2877 91.7898C56.7017 84.8988 57.0524 84.4617 57.1859 84.2811C57.8035 83.496 70.7298 78.6725 73.3418 77.7067L74.7917 77.042C74.8523 77.0186 74.9195 77.0186 74.9801 77.042L83.6613 79.7822C83.701 79.7946 83.737 79.8163 83.7666 79.8454C83.7962 79.8745 83.8184 79.9103 83.8315 79.9497C83.8864 80.1145 85.1584 84.0063 82.7846 85.1134C81.4158 85.7546 65.7912 88.8717 63.5221 89.3218L65.7389 102.332C65.7499 102.398 65.7355 102.465 65.6985 102.52C65.6616 102.576 65.6049 102.615 65.5399 102.63L61.711 103.499L61.6508 103.507ZM74.9173 77.5628L73.5433 78.1883H73.525C67.6442 80.3658 58.1176 84.0299 57.5889 84.6004C57.4633 84.8804 57.7015 86.9559 58.8242 91.8055C59.6617 95.4277 60.5411 98.6469 60.7688 99.1023C61.0357 99.6737 61.1171 100.314 61.0017 100.934C60.9516 101.231 60.9516 101.533 61.0017 101.829C61.1279 102.266 61.3746 102.658 61.7136 102.96L65.1735 102.175L62.9646 89.1491C62.9531 89.0819 62.9682 89.0128 63.0069 88.9566C63.0455 88.9004 63.1045 88.8614 63.1714 88.8481C69.3924 87.6154 81.4524 85.15 82.5621 84.6292C84.2973 83.8152 83.5488 80.8761 83.363 80.2297L74.9173 77.5628Z" fill="black"/>
<path d="M71.6876 49.8495C71.3656 51.8987 72.4727 56.5704 72.9962 57.141C73.5196 57.7115 75.048 57.0153 75.048 57.0153L75.6369 60.4569L78.6153 59.4912L77.3067 49.8757C77.3067 49.8757 72.0016 47.8395 71.6876 49.8495Z" fill="#FBBF9A"/>
<path d="M75.6368 60.7187C75.5744 60.7196 75.5138 60.6982 75.4658 60.6584C75.4179 60.6185 75.3857 60.5629 75.3751 60.5014L74.8307 57.3608C74.3073 57.5571 73.2892 57.8397 72.7867 57.298C72.1559 56.6175 71.096 51.8412 71.4179 49.7893C71.4427 49.6137 71.5079 49.4463 71.6082 49.3C71.7086 49.1538 71.8414 49.0329 71.9963 48.9465C73.4148 48.1274 76.9873 49.47 77.3903 49.6218C77.434 49.6387 77.4724 49.6671 77.5014 49.7039C77.5304 49.7407 77.549 49.7847 77.5552 49.8312L78.8638 59.4467C78.8724 59.5076 78.8592 59.5695 78.8267 59.6217C78.7941 59.6739 78.7443 59.7129 78.6858 59.732L75.7258 60.7187C75.6963 60.7237 75.6662 60.7237 75.6368 60.7187ZM75.0348 56.7405C75.0972 56.7396 75.1578 56.761 75.2058 56.8008C75.2538 56.8407 75.286 56.8963 75.2966 56.9578L75.8462 60.1141L78.3299 59.308L77.0658 50.0641C75.9325 49.6453 73.2421 48.8445 72.2659 49.4072C72.1781 49.4535 72.1028 49.5202 72.0463 49.6017C71.9898 49.6833 71.9538 49.7772 71.9413 49.8756C71.6116 51.9694 72.7605 56.4971 73.1766 56.9421C73.4881 57.2797 74.4852 56.963 74.9249 56.7562C74.9633 56.7456 75.0036 56.7438 75.0427 56.751L75.0348 56.7405Z" fill="black"/>
<path d="M76.0844 57.3817C72.0723 59.7372 72.0723 78.5626 72.0723 78.5626C72.0723 78.5626 75.26 77.7539 78.5943 80.3423C81.693 82.7501 85.4749 82.2947 85.4749 82.2947C85.4749 82.2947 83.2738 53.1785 76.0844 57.3817Z" fill="#E0AA8C"/>
<path d="M84.6846 82.5933C83.376 82.5933 80.7405 82.3316 78.4321 80.5493C75.2496 78.0761 72.1666 78.8115 72.1352 78.8167C72.096 78.8264 72.0551 78.8269 72.0157 78.8182C71.9763 78.8095 71.9394 78.7918 71.908 78.7664C71.8765 78.7411 71.8514 78.7088 71.8345 78.6721C71.8176 78.6354 71.8095 78.5954 71.8107 78.555C71.8107 77.7699 71.8578 59.5411 75.9511 57.149C76.8906 56.5994 77.804 56.5523 78.6677 57.0051C83.9753 59.7898 85.6634 81.3449 85.7341 82.2662C85.7393 82.3336 85.7182 82.4004 85.6753 82.4525C85.6324 82.5047 85.5709 82.5383 85.5038 82.5462C85.2318 82.5771 84.9583 82.5928 84.6846 82.5933ZM73.3339 78.1755C75.3101 78.2001 77.2204 78.8898 78.7567 80.1332C81.2849 82.0987 84.313 82.0987 85.195 82.0516C84.983 79.5522 83.1823 59.9677 78.4295 57.4736C77.7255 57.1045 77.0032 57.149 76.2206 57.607L76.0898 57.382L76.2206 57.607C74.6503 58.5231 73.4857 62.4201 72.8392 68.8767C72.4178 73.0642 72.3524 77.1077 72.3419 78.2462C72.6704 78.1983 73.0019 78.1747 73.3339 78.1755Z" fill="black"/>
<path d="M76.0845 57.3818C73.9907 58.2141 70.3555 63.828 70.3555 63.828L75.5139 67.5418C75.5139 67.5418 76.2991 65.5318 76.956 63.2862" fill="#FBBF9A"/>
<path d="M75.5141 67.8034C75.4596 67.803 75.4065 67.7856 75.3623 67.7536L70.2038 64.0398C70.1495 64.0008 70.1121 63.9425 70.0994 63.8767C70.0868 63.811 70.0998 63.743 70.1358 63.6865C70.285 63.4536 73.8312 57.9915 75.9904 57.1436C76.0224 57.1308 76.0565 57.1245 76.0909 57.125C76.1253 57.1255 76.1593 57.1328 76.1909 57.1464C76.2225 57.16 76.2511 57.1797 76.2751 57.2043C76.2991 57.229 76.3179 57.2582 76.3307 57.2901C76.3434 57.3221 76.3497 57.3562 76.3492 57.3906C76.3487 57.425 76.3415 57.459 76.3278 57.4906C76.3142 57.5222 76.2945 57.5508 76.2699 57.5748C76.2452 57.5987 76.2161 57.6176 76.1841 57.6304C74.4044 58.3344 71.3894 62.7522 70.7142 63.7677L75.3937 67.136C75.6397 66.4843 76.2207 64.9114 76.7023 63.2102C76.7241 63.1468 76.7694 63.0942 76.8289 63.0633C76.8883 63.0323 76.9574 63.0254 77.0218 63.0438C77.0863 63.0623 77.1412 63.1048 77.1752 63.1625C77.2092 63.2202 77.2198 63.2888 77.2048 63.3541C76.5636 65.5866 75.7627 67.6149 75.7549 67.6359C75.7401 67.6728 75.7171 67.706 75.6877 67.7327C75.6582 67.7595 75.623 67.7792 75.5848 67.7903C75.5619 67.7979 75.5381 67.8023 75.5141 67.8034Z" fill="black"/>
<path d="M71.1453 64.396L68.5046 67.8716L58.2687 72.949C58.2687 72.949 56.3765 72.3575 56.12 72.3706C55.8636 72.3837 53.6494 73.4855 53.6494 73.4855L53.6834 74.1764H58.9178C58.9178 74.1764 69.7137 71.7582 70.3445 71.1562C71.8048 69.7691 74.3959 66.7462 74.3959 66.7462L71.1453 64.396Z" fill="#FBBF9A"/>
<path d="M58.929 74.4352H53.6946C53.6252 74.4352 53.5586 74.4077 53.5095 74.3586C53.4604 74.3095 53.4329 74.2429 53.4329 74.1735L53.3989 73.4826C53.396 73.4316 53.4081 73.3809 53.4337 73.3367C53.4592 73.2926 53.4972 73.2568 53.5428 73.2339C54.3881 72.8126 55.8485 72.1059 56.1181 72.0928H56.1312C56.4165 72.0928 57.6387 72.4619 58.2563 72.6529L68.343 67.6489L70.9262 64.2387C70.9673 64.1842 71.0281 64.148 71.0956 64.1377C71.163 64.1275 71.2318 64.144 71.2873 64.1837L74.5483 66.5392C74.5776 66.5605 74.602 66.5875 74.6203 66.6187C74.6385 66.65 74.6501 66.6846 74.6543 66.7205C74.6584 66.7564 74.6551 66.7928 74.6446 66.8273C74.634 66.8619 74.6164 66.8939 74.5928 66.9213C74.5667 66.9527 71.9756 69.9677 70.5231 71.3496C69.8714 71.9698 60.7872 74.0296 58.9735 74.4352H58.929ZM53.9354 73.9118H58.908C63.0222 72.9879 69.6987 71.3784 70.1855 70.9622C71.392 69.8133 73.4099 67.5049 74.0301 66.7878L71.1879 64.7569L68.7015 68.0284C68.6772 68.0604 68.6459 68.0863 68.6099 68.1043L58.3741 73.1816C58.314 73.2115 58.2446 73.2171 58.1805 73.1973C57.5038 72.9708 56.8153 72.7812 56.1181 72.6294C55.9585 72.6608 54.8933 73.1528 53.9092 73.6396L53.9354 73.9118Z" fill="black"/>
<path d="M78.1045 55.7096C77.9187 53.7389 78.8897 52.4407 79.1148 51.2892C79.2237 50.8612 79.238 50.4146 79.1567 49.9806C79.1067 49.7567 79.0004 49.5494 78.8479 49.3781C78.6954 49.2068 78.5017 49.0773 78.2851 49.0017C78.73 48.0203 77.8611 47.1174 76.9765 46.8635C76.0396 46.6018 75.1576 46.7902 74.218 46.9473C73.2237 47.0985 72.2434 47.3305 71.2868 47.6408C70.9356 47.7452 70.6033 47.9051 70.3027 48.1145C69.9998 48.3276 69.7922 48.6507 69.7243 49.0148C69.5987 49.9125 70.4519 50.5171 71.2004 50.7998C71.9489 51.0824 74.0139 51.0379 74.0139 51.0379L74.2285 52.3256C74.252 52.4721 74.3253 53.3881 74.4902 53.341C74.6551 53.2939 74.7755 52.3962 74.8304 52.2183C74.8849 52.0444 74.9838 51.8877 75.1174 51.7638C75.251 51.6399 75.4146 51.5529 75.592 51.5116C75.7608 51.4837 75.9341 51.5043 76.0916 51.571C76.2492 51.6377 76.3845 51.7478 76.4819 51.8885C76.5757 52.0315 76.6325 52.1956 76.6471 52.366C76.6617 52.5364 76.6337 52.7078 76.5656 52.8647C76.4952 53.0202 76.3925 53.159 76.2644 53.2718C76.1362 53.3846 75.9856 53.4689 75.8224 53.519L78.1045 55.7096Z" fill="black"/>
<path d="M78.1044 55.9713C78.0361 55.9717 77.9704 55.9454 77.9212 55.898L75.6547 53.7022C75.6223 53.6705 75.5987 53.631 75.5861 53.5875C75.5736 53.544 75.5725 53.498 75.583 53.4539C75.5936 53.4099 75.6154 53.3693 75.6463 53.3362C75.6772 53.3031 75.7162 53.2786 75.7594 53.2651C75.8868 53.2266 76.0044 53.1614 76.1046 53.0738C76.2048 52.9863 76.2852 52.8784 76.3404 52.7574C76.3908 52.6413 76.4116 52.5147 76.4011 52.3886C76.3906 52.2626 76.3491 52.1411 76.2802 52.035C76.2109 51.938 76.1159 51.8621 76.0059 51.8159C75.8959 51.7697 75.7752 51.7549 75.6574 51.7733C75.527 51.8054 75.4071 51.8704 75.3091 51.962C75.211 52.0537 75.1381 52.1689 75.0973 52.2967C75.0973 52.3386 75.0685 52.4224 75.0502 52.527C74.9219 53.1997 74.8329 53.5242 74.5791 53.5949C74.5351 53.6079 74.4888 53.611 74.4435 53.6037C74.3982 53.5965 74.3551 53.5791 74.3174 53.553C74.1525 53.4431 74.0792 53.2049 73.9954 52.4904C73.9954 52.4354 73.9954 52.3936 73.9797 52.37L73.8044 51.297C73.2365 51.297 71.7525 51.2786 71.1218 51.0353C70.2319 50.7029 69.3342 49.9884 69.4782 48.9703C69.553 48.5369 69.7968 48.151 70.156 47.8972C70.4749 47.6681 70.8283 47.4914 71.2029 47.3738C72.172 47.0576 73.1655 46.8221 74.1734 46.6698L74.4351 46.6227C75.3093 46.4735 76.1337 46.3295 77.0366 46.5913C77.3494 46.6791 77.6405 46.8308 77.8919 47.0366C78.1432 47.2424 78.3492 47.498 78.497 47.7873C78.653 48.1136 78.6873 48.4848 78.5938 48.8342C78.7888 48.9509 78.9586 49.1051 79.0934 49.288C79.2281 49.4708 79.3252 49.6787 79.379 49.8994C79.4717 50.3728 79.4583 50.8608 79.3397 51.3284C79.2395 51.7474 79.1038 52.1572 78.9341 52.5532C78.5965 53.4195 78.2117 54.401 78.3321 55.6703C78.3354 55.7066 78.3311 55.7432 78.3194 55.7777C78.3077 55.8122 78.289 55.8439 78.2643 55.8708C78.2397 55.8976 78.2097 55.919 78.1763 55.9336C78.1429 55.9482 78.1068 55.9557 78.0704 55.9556L78.1044 55.9713ZM76.2907 53.587L77.8218 55.071C77.8766 54.1399 78.1001 53.2265 78.4813 52.3753C78.6392 52.0069 78.7661 51.6261 78.8608 51.2368C78.9623 50.8443 78.9774 50.4344 78.9053 50.0355C78.8658 49.8581 78.7826 49.6934 78.6634 49.5562C78.5441 49.4191 78.3924 49.314 78.2222 49.2503C78.1853 49.2407 78.1509 49.2232 78.1215 49.199C78.0921 49.1747 78.0683 49.1443 78.0518 49.1099C78.0354 49.0755 78.0266 49.0379 78.0262 48.9998C78.0258 48.9617 78.0338 48.9239 78.0495 48.8892C78.1144 48.754 78.1482 48.606 78.1482 48.456C78.1482 48.3061 78.1144 48.158 78.0495 48.0229C77.9333 47.8023 77.7734 47.6078 77.5794 47.4511C77.3854 47.2945 77.1616 47.1792 76.9215 47.1121C76.1363 46.8844 75.3669 47.0152 74.566 47.1566L74.3043 47.2037C73.3275 47.3519 72.3646 47.5804 71.4254 47.8868C71.1007 47.9826 70.7933 48.1292 70.5146 48.3212C70.2674 48.4928 70.0966 48.7537 70.0382 49.0488C69.9388 49.7581 70.6481 50.2894 71.3468 50.5511C71.9122 50.7631 73.4982 50.7814 74.0635 50.7709C74.1258 50.77 74.1865 50.7914 74.2345 50.8312C74.2824 50.871 74.3146 50.9267 74.3252 50.9881L74.5398 52.2758C74.5398 52.302 74.5398 52.3543 74.5581 52.4224V52.4695V52.4197C74.5817 52.2915 74.6026 52.1868 74.6183 52.1371C74.6866 51.918 74.8112 51.7206 74.9798 51.5649C75.1484 51.4092 75.355 51.3005 75.5788 51.2499C75.7974 51.2114 76.0224 51.2365 76.2271 51.3224C76.4317 51.4082 76.6074 51.5511 76.733 51.734C76.8527 51.913 76.9255 52.1193 76.9447 52.3337C76.9639 52.5482 76.9289 52.7641 76.8429 52.9615C76.7251 53.2202 76.5328 53.438 76.2907 53.587Z" fill="black"/>
<path d="M65.4798 102.374L66.9663 108.888H59.9941C59.9941 108.888 60.1041 107.561 62.7422 107.355L61.6508 103.243L65.4798 102.374Z" fill="black"/>
<path d="M62.7422 107.464C62.7615 107.464 62.7805 107.458 62.7971 107.448C62.8136 107.438 62.8273 107.424 62.8366 107.407C62.8459 107.39 62.8505 107.371 62.85 107.351C62.8495 107.332 62.8439 107.313 62.8338 107.297C62.6663 107.035 61.8052 105.726 61.3446 105.695C61.3042 105.694 61.264 105.702 61.2272 105.718C61.1904 105.735 61.158 105.76 61.1326 105.792C61.107 105.825 61.089 105.864 61.08 105.905C61.0709 105.946 61.071 105.989 61.0802 106.03C61.1745 106.538 62.5328 107.359 62.6872 107.451C62.7041 107.46 62.723 107.465 62.7422 107.464ZM61.3315 105.912C61.5304 105.912 61.9779 106.454 62.3522 106.98C61.8602 106.645 61.3341 106.224 61.2896 105.988C61.2846 105.978 61.2819 105.968 61.2819 105.957C61.2819 105.946 61.2846 105.935 61.2896 105.925C61.2912 105.921 61.2937 105.917 61.297 105.914C61.3003 105.911 61.3042 105.909 61.3086 105.907C61.3129 105.906 61.3175 105.906 61.3219 105.907C61.3263 105.908 61.3305 105.909 61.3341 105.912H61.3315Z" fill="black"/>
<path d="M75.5507 88.8745H72.4834V104.177H75.5507V88.8745Z" fill="#D9DDDD"/>
<path d="M74.5898 91.7351C74.6193 91.8781 74.6342 92.0236 74.6343 92.1696V100C74.6343 100.122 74.6826 100.238 74.7685 100.324C74.8544 100.41 74.9709 100.458 75.0923 100.458C75.2138 100.458 75.3303 100.41 75.4162 100.324C75.5021 100.238 75.5503 100.122 75.5503 100V88.8745H72.4961V90.0182C72.9912 90.0183 73.4711 90.1891 73.855 90.5018C74.2388 90.8146 74.5029 91.2502 74.6029 91.7351" fill="#C9C9C9"/>
<path d="M90.3177 62.3359C90.4035 61.5208 89.8123 60.7905 88.9973 60.7047C88.1822 60.6189 87.4519 61.2101 87.3661 62.0251L85.1999 82.6002C85.1141 83.4153 85.7053 84.1456 86.5204 84.2314C87.3354 84.3172 88.0657 83.726 88.1515 82.911L90.3177 62.3359Z" fill="#3C4068"/>
<path d="M89 60.7004C88.6906 60.6681 88.3788 60.7338 88.1087 60.8883C87.8387 61.0428 87.624 61.2783 87.4951 61.5615C87.7795 61.4536 88.0903 61.4363 88.385 61.5118C88.7352 61.6098 89.0389 61.8299 89.241 62.1323C89.443 62.4347 89.5303 62.7995 89.4868 63.1606L87.8563 78.6596C87.8488 78.7347 87.8645 78.8103 87.901 78.8763C87.9376 78.9423 87.9934 78.9957 88.061 79.0292C88.1287 79.0627 88.2049 79.0749 88.2796 79.064C88.3543 79.0531 88.4239 79.0198 88.4792 78.9684C88.5443 78.9071 88.5852 78.8244 88.5943 78.7355L90.3217 62.3309C90.342 62.1371 90.3239 61.9411 90.2685 61.7543C90.213 61.5674 90.1213 61.3933 89.9986 61.2419C89.8759 61.0905 89.7245 60.9647 89.5532 60.8718C89.3818 60.7789 89.1939 60.7207 89 60.7004Z" fill="#363B5B"/>
<path d="M86.6817 84.496C86.6206 84.4992 86.5595 84.4992 86.4985 84.496C86.0382 84.4471 85.616 84.2178 85.3246 83.8581C85.0331 83.4985 84.8962 83.038 84.9439 82.5776L87.1083 62.0039C87.1569 61.5433 87.3864 61.1209 87.7464 60.8296C88.1064 60.5383 88.5674 60.402 89.028 60.4506C89.4885 60.4991 89.9109 60.7287 90.2022 61.0887C90.4935 61.4487 90.6299 61.9097 90.5813 62.3703L88.4169 82.944C88.3687 83.3706 88.1652 83.7646 87.8451 84.0508C87.5251 84.337 87.111 84.4955 86.6817 84.496ZM86.5534 83.9725C86.8757 84.0055 87.1979 83.9095 87.4496 83.7054C87.7012 83.5014 87.8617 83.2059 87.896 82.8838L90.0605 62.3101C90.0776 62.1504 90.0632 61.989 90.018 61.8349C89.9728 61.6808 89.8977 61.5372 89.7969 61.4121C89.6962 61.2871 89.5718 61.1831 89.4309 61.1061C89.29 61.0292 89.1353 60.9807 88.9756 60.9635C88.816 60.9463 88.6545 60.9608 88.5004 61.006C88.3464 61.0512 88.2027 61.1263 88.0777 61.2271C87.9527 61.3278 87.8487 61.4522 87.7717 61.5931C87.6947 61.734 87.6463 61.8887 87.6291 62.0484L85.4647 82.6221C85.4317 82.9443 85.5278 83.2666 85.7318 83.5182C85.9359 83.7698 86.2313 83.9304 86.5534 83.9647V83.9725Z" fill="black"/>
<path d="M71.8315 83.5957H85.1242C85.8238 83.5957 86.4949 83.8736 86.9896 84.3684C87.4843 84.8631 87.7623 85.5342 87.7623 86.2338C87.7623 86.9335 87.4843 87.6045 86.9896 88.0993C86.4949 88.594 85.8238 88.872 85.1242 88.872H70.9129C70.3353 88.872 69.7815 88.6425 69.3731 88.2342C68.9648 87.8258 68.7354 87.272 68.7354 86.6945C68.7354 85.8731 69.0615 85.0853 69.642 84.5042C70.2226 83.9232 71.0101 83.5964 71.8315 83.5957Z" fill="#3C4068"/>
<path d="M85.7781 83.6821C86.1705 84.1862 86.3651 84.8164 86.3251 85.454C86.2726 86.1347 85.9633 86.7701 85.4599 87.2313C84.9564 87.6925 84.2964 87.945 83.6137 87.9377H74.5242C74.4229 87.9374 74.3241 87.9698 74.2427 88.03C74.1612 88.0903 74.1014 88.1752 74.072 88.2722C74.0426 88.3691 74.0453 88.473 74.0796 88.5683C74.1139 88.6636 74.178 88.7454 74.2624 88.8014C74.34 88.8528 74.4311 88.8801 74.5242 88.8799H85.1238C85.8235 88.8799 86.4945 88.6019 86.9892 88.1072C87.484 87.6124 87.7619 86.9414 87.7619 86.2417C87.7628 85.6553 87.5682 85.0853 87.2089 84.6217C86.8497 84.1582 86.3462 83.8276 85.7781 83.6821Z" fill="#363B5B"/>
<path d="M85.1242 89.1361H70.9129C70.2661 89.1354 69.6461 88.8782 69.1888 88.4209C68.7315 87.9636 68.4743 87.3436 68.4736 86.6969C68.4743 85.8059 68.8286 84.9515 69.4587 84.3214C70.0887 83.6914 70.9431 83.3371 71.8341 83.3364H85.1268C85.8959 83.3364 86.6335 83.6419 87.1773 84.1858C87.7211 84.7296 88.0266 85.4672 88.0266 86.2363C88.0266 87.0054 87.7211 87.7429 87.1773 88.2868C86.6335 88.8306 85.8959 89.1361 85.1268 89.1361H85.1242ZM71.8315 83.8599C71.0793 83.8606 70.3581 84.1597 69.8262 84.6916C69.2943 85.2235 68.9951 85.9447 68.9945 86.6969C68.9951 87.2048 69.1972 87.6917 69.5563 88.0508C69.9155 88.4099 70.4023 88.612 70.9102 88.6127H85.1216C85.7518 88.6127 86.3563 88.3623 86.8019 87.9166C87.2476 87.471 87.498 86.8665 87.498 86.2363C87.498 85.606 87.2476 85.0016 86.8019 84.5559C86.3563 84.1102 85.7518 83.8599 85.1216 83.8599H71.8315Z" fill="black"/>
<path d="M86.4924 86.7832C87.7109 86.7832 88.6987 85.7954 88.6987 84.5769C88.6987 83.3584 87.7109 82.3706 86.4924 82.3706C85.2739 82.3706 84.2861 83.3584 84.2861 84.5769C84.2861 85.7954 85.2739 86.7832 86.4924 86.7832Z" fill="#D9DDDD"/>
<path d="M86.4924 87.0449C86.0043 87.0449 85.5271 86.9002 85.1213 86.629C84.7154 86.3578 84.3991 85.9723 84.2123 85.5214C84.0255 85.0704 83.9766 84.5742 84.0718 84.0954C84.1671 83.6167 84.4021 83.1769 84.7473 82.8317C85.0924 82.4866 85.5322 82.2515 86.0109 82.1563C86.4897 82.0611 86.9859 82.11 87.4369 82.2968C87.8879 82.4836 88.2733 82.7999 88.5445 83.2057C88.8157 83.6116 88.9604 84.0888 88.9604 84.5769C88.9597 85.2312 88.6995 85.8586 88.2368 86.3213C87.7741 86.784 87.1468 87.0442 86.4924 87.0449ZM86.4924 82.6297C86.1078 82.6297 85.7319 82.7438 85.4121 82.9574C85.0923 83.1711 84.8431 83.4748 84.6959 83.8301C84.5487 84.1855 84.5102 84.5764 84.5852 84.9536C84.6603 85.3309 84.8454 85.6773 85.1174 85.9493C85.3894 86.2213 85.7358 86.4065 86.1131 86.4815C86.4903 86.5565 86.8813 86.518 87.2366 86.3708C87.5919 86.2237 87.8956 85.9744 88.1093 85.6546C88.3229 85.3348 88.437 84.9589 88.437 84.5743C88.4356 84.0592 88.2302 83.5657 87.8658 83.2017C87.5013 82.8378 87.0075 82.633 86.4924 82.6323V82.6297Z" fill="black"/>
<path d="M86.4933 85.7131C87.1206 85.7131 87.6291 85.2046 87.6291 84.5773C87.6291 83.9499 87.1206 83.4414 86.4933 83.4414C85.866 83.4414 85.3574 83.9499 85.3574 84.5773C85.3574 85.2046 85.866 85.7131 86.4933 85.7131Z" fill="#C9C9C9"/>
<path d="M68.8318 108.888C69.926 108.888 70.813 108.001 70.813 106.907C70.813 105.813 69.926 104.926 68.8318 104.926C67.7376 104.926 66.8506 105.813 66.8506 106.907C66.8506 108.001 67.7376 108.888 68.8318 108.888Z" fill="#3C4068"/>
<path d="M68.8318 109.15C68.3882 109.15 67.9545 109.018 67.5857 108.772C67.2168 108.525 66.9294 108.175 66.7596 107.765C66.5898 107.355 66.5454 106.904 66.632 106.469C66.7185 106.034 66.9321 105.635 67.2458 105.321C67.5595 105.007 67.9591 104.794 68.3942 104.707C68.8293 104.621 69.2803 104.665 69.6901 104.835C70.1 105.005 70.4503 105.292 70.6967 105.661C70.9432 106.03 71.0747 106.463 71.0747 106.907C71.074 107.502 70.8375 108.072 70.417 108.492C69.9965 108.913 69.4264 109.149 68.8318 109.15ZM68.8318 105.187C68.4917 105.187 68.1593 105.288 67.8765 105.477C67.5937 105.666 67.3733 105.935 67.2432 106.249C67.1131 106.563 67.079 106.909 67.1453 107.242C67.2117 107.576 67.3755 107.882 67.6159 108.123C67.8564 108.363 68.1628 108.527 68.4963 108.593C68.8299 108.66 69.1756 108.626 69.4898 108.496C69.804 108.365 70.0726 108.145 70.2615 107.862C70.4504 107.58 70.5513 107.247 70.5513 106.907C70.5499 106.452 70.3682 106.015 70.046 105.694C69.7237 105.372 69.2872 105.191 68.8318 105.19V105.187Z" fill="black"/>
<path d="M68.8318 107.637C69.235 107.637 69.562 107.31 69.562 106.907C69.562 106.504 69.235 106.177 68.8318 106.177C68.4285 106.177 68.1016 106.504 68.1016 106.907C68.1016 107.31 68.4285 107.637 68.8318 107.637Z" fill="#C9C9C9"/>
<path d="M68.8318 107.899C68.6356 107.899 68.4438 107.841 68.2807 107.732C68.1176 107.623 67.9904 107.468 67.9153 107.287C67.8403 107.105 67.8206 106.906 67.8589 106.713C67.8972 106.521 67.9916 106.344 68.1304 106.206C68.2691 106.067 68.4458 105.972 68.6382 105.934C68.8307 105.896 69.0301 105.915 69.2113 105.991C69.3926 106.066 69.5475 106.193 69.6565 106.356C69.7655 106.519 69.8237 106.711 69.8237 106.907C69.8237 107.17 69.7192 107.422 69.5331 107.608C69.3471 107.794 69.0948 107.899 68.8318 107.899ZM68.8318 106.441C68.7391 106.441 68.6485 106.469 68.5715 106.52C68.4944 106.572 68.4344 106.645 68.3989 106.73C68.3635 106.816 68.3542 106.91 68.3723 107.001C68.3904 107.092 68.435 107.175 68.5005 107.241C68.566 107.306 68.6495 107.351 68.7404 107.369C68.8312 107.387 68.9254 107.378 69.011 107.342C69.0966 107.307 69.1698 107.247 69.2213 107.17C69.2728 107.093 69.3002 107.002 69.3002 106.91C69.3002 106.785 69.2509 106.666 69.163 106.578C69.0752 106.49 68.956 106.441 68.8318 106.441Z" fill="black"/>
<path d="M78.3904 108.888C79.4846 108.888 80.3716 108.001 80.3716 106.907C80.3716 105.813 79.4846 104.926 78.3904 104.926C77.2962 104.926 76.4092 105.813 76.4092 106.907C76.4092 108.001 77.2962 108.888 78.3904 108.888Z" fill="#3C4068"/>
<path d="M78.3904 109.15C77.9468 109.15 77.5131 109.018 77.1443 108.772C76.7754 108.525 76.488 108.175 76.3182 107.765C76.1484 107.355 76.104 106.904 76.1906 106.469C76.2771 106.034 76.4907 105.635 76.8044 105.321C77.1181 105.007 77.5177 104.794 77.9528 104.707C78.3879 104.621 78.8389 104.665 79.2487 104.835C79.6586 105.005 80.0089 105.292 80.2553 105.661C80.5018 106.03 80.6333 106.463 80.6333 106.907C80.6326 107.502 80.3961 108.072 79.9756 108.492C79.5551 108.913 78.985 109.149 78.3904 109.15ZM78.3904 105.187C78.0503 105.187 77.7179 105.288 77.4351 105.477C77.1523 105.666 76.9319 105.935 76.8018 106.249C76.6716 106.563 76.6376 106.909 76.7039 107.242C76.7703 107.576 76.934 107.882 77.1745 108.123C77.415 108.363 77.7214 108.527 78.0549 108.593C78.3885 108.66 78.7342 108.626 79.0484 108.496C79.3626 108.365 79.6312 108.145 79.8201 107.862C80.009 107.58 80.1099 107.247 80.1099 106.907C80.1085 106.452 79.9268 106.015 79.6046 105.694C79.2823 105.372 78.8458 105.191 78.3904 105.19V105.187Z" fill="black"/>
<path d="M78.3904 107.637C78.7936 107.637 79.1206 107.31 79.1206 106.907C79.1206 106.504 78.7936 106.177 78.3904 106.177C77.9871 106.177 77.6602 106.504 77.6602 106.907C77.6602 107.31 77.9871 107.637 78.3904 107.637Z" fill="#C9C9C9"/>
<path d="M78.3903 107.899C78.1942 107.899 78.0024 107.841 77.8393 107.732C77.6762 107.623 77.549 107.468 77.4739 107.287C77.3989 107.105 77.3792 106.906 77.4175 106.713C77.4558 106.521 77.5502 106.344 77.689 106.206C77.8277 106.067 78.0044 105.972 78.1968 105.934C78.3892 105.896 78.5887 105.915 78.7699 105.991C78.9512 106.066 79.1061 106.193 79.2151 106.356C79.3241 106.519 79.3823 106.711 79.3823 106.907C79.3823 107.037 79.3566 107.166 79.3068 107.287C79.2569 107.407 79.1838 107.516 79.0917 107.608C78.9996 107.7 78.8903 107.774 78.7699 107.823C78.6496 107.873 78.5206 107.899 78.3903 107.899ZM78.3903 106.441C78.2977 106.441 78.2071 106.469 78.1301 106.52C78.053 106.572 77.993 106.645 77.9575 106.73C77.9221 106.816 77.9128 106.91 77.9309 107.001C77.949 107.092 77.9936 107.175 78.0591 107.241C78.1246 107.306 78.2081 107.351 78.2989 107.369C78.3898 107.387 78.484 107.378 78.5696 107.342C78.6552 107.307 78.7284 107.247 78.7799 107.17C78.8313 107.093 78.8588 107.002 78.8588 106.91C78.8588 106.785 78.8095 106.666 78.7216 106.578C78.6338 106.49 78.5146 106.441 78.3903 106.441Z" fill="black"/>
<path d="M75.5503 104.426H72.4961C72.4267 104.426 72.3601 104.398 72.311 104.349C72.262 104.3 72.2344 104.234 72.2344 104.164V88.8745C72.2344 88.8051 72.262 88.7385 72.311 88.6895C72.3601 88.6404 72.4267 88.6128 72.4961 88.6128H75.5634C75.6328 88.6128 75.6994 88.6404 75.7485 88.6895C75.7976 88.7385 75.8251 88.8051 75.8251 88.8745V104.164C75.8252 104.2 75.818 104.235 75.8041 104.267C75.7901 104.3 75.7696 104.329 75.7439 104.354C75.7182 104.378 75.6878 104.397 75.6545 104.41C75.6212 104.422 75.5858 104.428 75.5503 104.426ZM72.7578 103.902H75.3017V89.1362H72.7578V103.902Z" fill="black"/>
<path d="M78.39 105.19C78.3206 105.19 78.254 105.162 78.2049 105.113C78.1559 105.064 78.1283 104.998 78.1283 104.928V104.426H69.0938V104.915C69.0938 104.985 69.0662 105.051 69.0171 105.1C68.968 105.149 68.9014 105.177 68.832 105.177C68.7626 105.177 68.6961 105.149 68.647 105.1C68.5979 105.051 68.5703 104.985 68.5703 104.915V104.164C68.5703 104.095 68.5979 104.028 68.647 103.979C68.6961 103.93 68.7626 103.902 68.832 103.902H78.39C78.4594 103.902 78.526 103.93 78.5751 103.979C78.6241 104.028 78.6517 104.095 78.6517 104.164V104.915C78.6535 104.951 78.648 104.986 78.6357 105.019C78.6233 105.053 78.6043 105.083 78.5799 105.109C78.5554 105.134 78.5259 105.155 78.4933 105.169C78.4606 105.183 78.4255 105.19 78.39 105.19Z" fill="black"/>
<path d="M77.0867 75.5293H71.0175C70.4523 75.5293 69.9941 75.9875 69.9941 76.5526C69.9941 77.1178 70.4523 77.5759 71.0175 77.5759H77.0867C77.6519 77.5759 78.11 77.1178 78.11 76.5526C78.11 75.9875 77.6519 75.5293 77.0867 75.5293Z" fill="#3C4068"/>
<path d="M77.0867 77.8377H71.0175C70.8487 77.8377 70.6816 77.8044 70.5257 77.7398C70.3698 77.6753 70.2281 77.5806 70.1088 77.4613C69.9895 77.3419 69.8948 77.2003 69.8302 77.0444C69.7657 76.8885 69.7324 76.7214 69.7324 76.5526C69.7324 76.3839 69.7657 76.2168 69.8302 76.0609C69.8948 75.9049 69.9895 75.7633 70.1088 75.644C70.2281 75.5246 70.3698 75.43 70.5257 75.3654C70.6816 75.3008 70.8487 75.2676 71.0175 75.2676H77.0867C77.2555 75.2676 77.4226 75.3008 77.5785 75.3654C77.7344 75.43 77.876 75.5246 77.9954 75.644C78.1147 75.7633 78.2094 75.9049 78.2739 76.0609C78.3385 76.2168 78.3717 76.3839 78.3717 76.5526C78.3717 76.7214 78.3385 76.8885 78.2739 77.0444C78.2094 77.2003 78.1147 77.3419 77.9954 77.4613C77.876 77.5806 77.7344 77.6753 77.5785 77.7398C77.4226 77.8044 77.2555 77.8377 77.0867 77.8377ZM71.0175 75.791C70.8155 75.791 70.6218 75.8713 70.4789 76.0141C70.3361 76.1569 70.2559 76.3506 70.2559 76.5526C70.2559 76.7546 70.3361 76.9483 70.4789 77.0911C70.6218 77.234 70.8155 77.3142 71.0175 77.3142H77.0867C77.2887 77.3142 77.4824 77.234 77.6252 77.0911C77.7681 76.9483 77.8483 76.7546 77.8483 76.5526C77.8483 76.3506 77.7681 76.1569 77.6252 76.0141C77.4824 75.8713 77.2887 75.791 77.0867 75.791H71.0175Z" fill="black"/>
<path d="M74.0166 83.8574C73.9472 83.8574 73.8806 83.8299 73.8315 83.7808C73.7825 83.7317 73.7549 83.6651 73.7549 83.5957V80.5859C73.7549 80.5165 73.7825 80.45 73.8315 80.4009C73.8806 80.3518 73.9472 80.3242 74.0166 80.3242C74.086 80.3242 74.1526 80.3518 74.2017 80.4009C74.2507 80.45 74.2783 80.5165 74.2783 80.5859V83.5957C74.2783 83.6651 74.2507 83.7317 74.2017 83.7808C74.1526 83.8299 74.086 83.8574 74.0166 83.8574Z" fill="black"/>
<path d="M74.0166 80.8476C73.9472 80.8476 73.8806 80.8201 73.8315 80.771C73.7825 80.7219 73.7549 80.6553 73.7549 80.5859V77.5762C73.7549 77.5068 73.7825 77.4402 73.8315 77.3911C73.8806 77.342 73.9472 77.3145 74.0166 77.3145C74.086 77.3145 74.1526 77.342 74.2017 77.3911C74.2507 77.4402 74.2783 77.5068 74.2783 77.5762V80.5859C74.2783 80.6553 74.2507 80.7219 74.2017 80.771C74.1526 80.8201 74.086 80.8476 74.0166 80.8476Z" fill="black"/>
<path d="M25.3789 77.958H28.5353L21.3171 109.016H19.5479L25.3789 77.958Z" fill="#FBBF9A"/>
<path d="M25.0618 79.6382C25.2876 79.6382 25.5105 79.6888 25.7142 79.7861C25.9179 79.8835 26.0972 80.0252 26.239 80.2009C26.3808 80.3765 26.4815 80.5817 26.5337 80.8014C26.5859 81.021 26.5882 81.2496 26.5406 81.4703L23.3738 96.1815C23.3596 96.2445 23.3598 96.3099 23.3744 96.3728C23.389 96.4357 23.4177 96.4945 23.4582 96.5449C23.4987 96.5952 23.55 96.6357 23.6083 96.6634C23.6667 96.6911 23.7305 96.7053 23.7951 96.7049C23.8922 96.7051 23.9865 96.6723 24.0626 96.6119C24.1386 96.5515 24.192 96.4671 24.2139 96.3725L28.527 77.958H25.3864L25.0618 79.6382Z" fill="#E0AA8C"/>
<path d="M21.3174 109.278H19.5482C19.5095 109.279 19.4711 109.271 19.4359 109.255C19.4006 109.239 19.3693 109.215 19.3443 109.186C19.3192 109.156 19.3011 109.121 19.2911 109.084C19.2811 109.047 19.2795 109.007 19.2865 108.969L25.1255 77.9086C25.1366 77.8476 25.169 77.7926 25.217 77.7533C25.2649 77.714 25.3252 77.6929 25.3872 77.6939H28.5278C28.5679 77.6929 28.6077 77.701 28.6441 77.7177C28.6805 77.7345 28.7126 77.7594 28.7379 77.7905C28.7632 77.8216 28.781 77.8581 28.79 77.8972C28.7989 77.9362 28.7988 77.9768 28.7895 78.0159L21.5713 109.077C21.5578 109.134 21.5254 109.185 21.4793 109.221C21.4333 109.258 21.3762 109.278 21.3174 109.278ZM19.8623 108.755H21.1081L28.2059 78.2174H25.5887L19.8623 108.755Z" fill="black"/>
<path d="M57.0362 77.958H53.8799L61.0981 109.016H62.8673L57.0362 77.958Z" fill="#FBBF9A"/>
<path d="M57.3529 79.6386C57.1271 79.6385 56.9042 79.6891 56.7005 79.7864C56.4968 79.8838 56.3175 80.0255 56.1757 80.2012C56.0339 80.3768 55.9332 80.582 55.8811 80.8017C55.8289 81.0214 55.8265 81.2499 55.8742 81.4706L59.041 96.1818C59.0552 96.2448 59.0549 96.3102 59.0403 96.3731C59.0257 96.436 58.9971 96.4949 58.9566 96.5452C58.9161 96.5955 58.8647 96.636 58.8064 96.6637C58.7481 96.6914 58.6842 96.7056 58.6196 96.7052C58.5225 96.7054 58.4282 96.6726 58.3522 96.6122C58.2761 96.5518 58.2228 96.4675 58.2009 96.3729L53.8799 77.9609H57.0362L57.3529 79.6386Z" fill="#E0AA8C"/>
<path d="M62.8675 109.278H61.0982C61.0381 109.28 60.9792 109.261 60.9316 109.224C60.8839 109.187 60.8503 109.135 60.8365 109.077L53.6262 78.0159C53.6169 77.9768 53.6168 77.9362 53.6257 77.8972C53.6347 77.8581 53.6525 77.8216 53.6778 77.7905C53.7031 77.7594 53.7352 77.7345 53.7716 77.7177C53.808 77.701 53.8478 77.6929 53.8879 77.6939H57.0442C57.1062 77.6929 57.1665 77.714 57.2144 77.7533C57.2624 77.7926 57.2948 77.8476 57.3059 77.9086L63.1266 108.969C63.1335 109.007 63.132 109.047 63.122 109.084C63.112 109.121 63.0938 109.156 63.0688 109.186C63.0438 109.215 63.0125 109.239 62.9772 109.255C62.9419 109.271 62.9036 109.279 62.8648 109.278H62.8675ZM61.2972 108.755H62.5508L56.8191 78.22H54.202L61.2972 108.755Z" fill="black"/>
<path d="M108.09 90.4999H108.174C108.768 90.4767 109.336 90.245 109.777 89.8455C110.218 89.446 110.505 88.9041 110.587 88.3145C111.22 84.0773 114.013 79.8663 116.839 76.176C117.25 75.6396 117.536 75.0182 117.676 74.3573C117.816 73.6963 117.807 73.0124 117.649 72.3554C117.491 71.6984 117.189 71.0849 116.764 70.5596C116.339 70.0343 115.802 69.6105 115.193 69.319C114.137 68.8119 112.926 68.7331 111.813 69.099C110.7 69.4649 109.772 70.2471 109.223 71.2819C106.606 76.2362 105.559 82.0882 105.488 87.9665C105.486 88.3057 105.552 88.6419 105.682 88.955C105.813 89.2681 106.006 89.5515 106.249 89.7881C106.492 90.0248 106.78 90.2099 107.097 90.3322C107.413 90.4545 107.751 90.5116 108.09 90.4999Z" fill="#38A98E"/>
<path d="M116.834 74.9353C116.91 74.9833 116.976 75.0458 117.027 75.1193C117.079 75.1928 117.116 75.2759 117.136 75.3637C117.156 75.4515 117.158 75.5423 117.142 75.6309C117.127 75.7195 117.094 75.8042 117.046 75.8801C116.981 75.9796 116.912 76.0773 116.839 76.1732C114.004 79.874 111.207 84.0981 110.581 88.3458C110.495 88.9295 110.207 89.4645 109.767 89.8572C109.327 90.25 108.763 90.4756 108.173 90.4945H108.09C107.75 90.5065 107.412 90.4497 107.095 90.3274C106.778 90.205 106.489 90.0198 106.246 89.7828C106.002 89.5458 105.81 89.262 105.679 88.9484C105.548 88.6349 105.482 88.2981 105.485 87.9584C105.499 86.9848 105.541 86.0139 105.611 85.0455C106.083 85.2959 106.602 85.4479 107.134 85.4922C107.667 85.5366 108.203 85.4724 108.71 85.3036C109.217 85.1348 109.685 84.8648 110.085 84.5101C110.485 84.1553 110.809 83.7231 111.037 83.2397C112.369 80.352 114.013 77.619 115.941 75.0897C116.045 74.959 116.193 74.871 116.358 74.8425C116.523 74.814 116.692 74.8471 116.834 74.9353Z" fill="#548383"/>
<path d="M108.003 90.7641C107.273 90.7666 106.571 90.4796 106.051 89.9659C105.784 89.7063 105.573 89.3947 105.43 89.0504C105.288 88.7061 105.218 88.3363 105.224 87.9638C105.316 81.3894 106.582 75.7363 108.99 71.1614C109.303 70.5766 109.733 70.0629 110.254 69.6526C110.775 69.2422 111.375 68.9442 112.017 68.7773C112.658 68.6103 113.328 68.5781 113.982 68.6825C114.637 68.787 115.263 69.0259 115.821 69.3843C116.379 69.7426 116.857 70.2126 117.224 70.7646C117.591 71.3167 117.84 71.9388 117.955 72.5918C118.07 73.2448 118.049 73.9146 117.892 74.5589C117.736 75.2032 117.448 75.8082 117.046 76.3356C114.499 79.6621 111.492 84.0327 110.846 88.3537C110.754 89.003 110.437 89.5996 109.951 90.0395C109.464 90.4795 108.839 90.7349 108.184 90.7615H108.003V90.7641ZM113.217 69.1305C112.442 69.1296 111.681 69.341 111.017 69.742C110.354 70.143 109.813 70.7181 109.453 71.4048C107.085 75.9064 105.836 81.481 105.747 87.9716C105.742 88.2735 105.799 88.5732 105.915 88.8523C106.03 89.1313 106.201 89.3839 106.417 89.5943C106.635 89.8103 106.895 89.9793 107.181 90.0909C107.467 90.2026 107.773 90.2544 108.079 90.2433H108.163C108.696 90.2209 109.205 90.0121 109.6 89.6535C109.995 89.2948 110.251 88.8089 110.325 88.2804C110.99 83.8312 114.041 79.3977 116.627 76.0215C117.015 75.5161 117.284 74.9306 117.417 74.3076C117.549 73.6846 117.54 73.0399 117.392 72.4206C117.243 71.8013 116.958 71.2231 116.557 70.7281C116.156 70.2332 115.65 69.834 115.075 69.5597C114.496 69.2799 113.862 69.1332 113.22 69.1305H113.217Z" fill="black"/>
<path d="M107.362 96.7629C107.293 96.7629 107.226 96.7353 107.177 96.6862C107.128 96.6372 107.101 96.5706 107.101 96.5012C107.119 86.692 109.024 78.419 112.764 71.8996C112.8 71.8427 112.857 71.8019 112.923 71.7858C112.988 71.7698 113.058 71.7797 113.116 71.8135C113.174 71.8472 113.218 71.9023 113.236 71.9671C113.255 72.0319 113.248 72.1015 113.217 72.1614C109.521 78.5918 107.64 86.7783 107.621 96.5012C107.621 96.5702 107.594 96.6363 107.546 96.6853C107.497 96.7343 107.431 96.7622 107.362 96.7629Z" fill="black"/>
<path d="M103.64 89.3586H103.538C102.831 89.3326 102.155 89.0589 101.629 88.5853C101.102 88.1118 100.759 87.4684 100.659 86.7676C99.874 81.7243 96.5398 76.7228 93.1584 72.339C92.6666 71.7021 92.3233 70.9635 92.1533 70.177C91.9833 69.3905 91.991 68.576 92.1758 67.7928C92.3606 67.0097 92.7179 66.2777 93.2216 65.6502C93.7252 65.0226 94.3626 64.5154 95.0872 64.1656C96.342 63.5586 97.7829 63.4601 99.1086 63.8908C100.434 64.3215 101.542 65.248 102.201 66.4765C105.341 72.3652 106.603 79.3295 106.728 86.3305C106.733 86.7346 106.656 87.1355 106.502 87.509C106.348 87.8825 106.119 88.221 105.831 88.5039C105.542 88.7868 105.199 89.0084 104.823 89.1553C104.446 89.3022 104.044 89.3714 103.64 89.3586Z" fill="#38A98E"/>
<path d="M93.1539 70.8601C93.0623 70.9163 92.9827 70.9901 92.9198 71.0773C92.857 71.1645 92.812 71.2634 92.7877 71.3681C92.7633 71.4728 92.76 71.5813 92.778 71.6873C92.7959 71.7933 92.8348 71.8947 92.8922 71.9855C92.969 72.1042 93.0562 72.2202 93.1539 72.3336C96.5563 76.7279 99.8984 81.7555 100.663 86.804C100.767 87.4991 101.113 88.1353 101.639 88.6012C102.166 89.0672 102.839 89.3334 103.542 89.3532H103.641C104.045 89.3656 104.448 89.296 104.825 89.1486C105.201 89.0013 105.544 88.7792 105.833 88.4958C106.121 88.2124 106.349 87.8735 106.504 87.4995C106.658 87.1256 106.734 86.7243 106.729 86.3198C106.708 85.1613 106.654 84.0045 106.567 82.8495C106.005 83.1491 105.389 83.3319 104.755 83.3867C104.121 83.4415 103.482 83.3672 102.877 83.1684C102.273 82.9695 101.715 82.6502 101.237 82.2297C100.759 81.8091 100.371 81.2962 100.097 80.7217C98.5017 77.2894 96.5349 74.0421 94.2322 71.0381C94.107 70.8794 93.927 70.7732 93.7275 70.7403C93.5281 70.7074 93.3235 70.7501 93.1539 70.8601Z" fill="#548383"/>
<path d="M103.73 89.6206H103.531C102.761 89.5938 102.025 89.2978 101.451 88.7842C100.877 88.2705 100.502 87.5718 100.39 86.8098C99.605 81.6539 95.9933 76.4535 92.939 72.5016C92.4592 71.8809 92.1135 71.1673 91.9236 70.4062C91.7336 69.645 91.7037 68.8526 91.8357 68.0793C91.9677 67.306 92.2586 66.5684 92.6902 65.9133C93.1218 65.2581 93.6846 64.6996 94.3431 64.2731C95.0015 63.8466 95.7413 63.5614 96.5157 63.4354C97.29 63.3094 98.0821 63.3455 98.8418 63.5413C99.6015 63.7371 100.312 64.0884 100.929 64.5729C101.546 65.0575 102.056 65.6648 102.426 66.3564C105.305 71.7871 106.847 78.508 106.983 86.3282C106.992 86.7656 106.912 87.2003 106.747 87.6054C106.581 88.0106 106.335 88.3775 106.022 88.6837C105.412 89.287 104.588 89.6239 103.73 89.6206ZM103.646 89.0972C104.017 89.1112 104.388 89.0488 104.734 88.9137C105.08 88.7786 105.395 88.5738 105.659 88.312C105.92 88.0559 106.127 87.749 106.265 87.41C106.404 87.0711 106.472 86.7074 106.465 86.3413C106.329 78.6022 104.816 71.9624 101.968 66.6051C101.632 65.9774 101.169 65.4262 100.609 64.9866C100.049 64.5469 99.4036 64.2282 98.714 64.0506C98.0244 63.8731 97.3055 63.8405 96.6027 63.955C95.8998 64.0695 95.2284 64.3286 94.6308 64.7158C94.0332 65.1031 93.5225 65.6101 93.1309 66.2048C92.7392 66.7996 92.4753 67.4691 92.3556 68.1711C92.236 68.873 92.2632 69.5922 92.4357 70.2831C92.6082 70.974 92.9222 71.6216 93.3578 72.1849C96.4486 76.1892 100.1 81.4602 100.911 86.7339C101.006 87.3716 101.321 87.9562 101.801 88.3864C102.281 88.8165 102.897 89.0652 103.541 89.0893L103.646 89.0972Z" fill="black"/>
<path d="M104.533 96.7627C104.463 96.7627 104.397 96.7352 104.348 96.6861C104.298 96.637 104.271 96.5704 104.271 96.501C104.205 84.92 101.915 75.1683 97.4898 67.5183C97.4585 67.4585 97.4515 67.3889 97.4703 67.3241C97.4891 67.2592 97.5323 67.2042 97.5907 67.1704C97.6491 67.1366 97.7184 67.1267 97.7839 67.1428C97.8495 67.1588 97.9063 67.1996 97.9425 67.2566C102.423 74.9877 104.729 84.8257 104.794 96.4984C104.794 96.5678 104.767 96.6344 104.718 96.6835C104.669 96.7325 104.602 96.7601 104.533 96.7601V96.7627Z" fill="black"/>
<path d="M101.508 91.7325H101.435C100.927 91.8133 100.407 91.7132 99.9662 91.4495C99.5251 91.1859 99.1907 90.7756 99.0215 90.2904C97.7652 86.8095 94.6874 83.7134 91.6672 81.0648C91.2284 80.6797 90.881 80.2015 90.6504 79.6651C90.4197 79.1288 90.3116 78.5477 90.3339 77.9643C90.3562 77.3808 90.5084 76.8097 90.7793 76.2925C91.0503 75.7754 91.4332 75.3251 91.9001 74.9746C92.7096 74.3675 93.7222 74.0964 94.7267 74.2178C95.7312 74.3393 96.65 74.8438 97.2915 75.6263C100.341 79.382 102.22 84.1636 103.285 89.131C103.347 89.4191 103.35 89.7169 103.293 90.0061C103.236 90.2953 103.121 90.57 102.955 90.8133C102.789 91.0567 102.575 91.2637 102.326 91.4217C102.077 91.5797 101.799 91.6855 101.508 91.7325Z" fill="#38A98E"/>
<path d="M91.46 80.0258C91.4032 80.0791 91.3576 80.1433 91.3258 80.2144C91.2939 80.2855 91.2765 80.3623 91.2746 80.4402C91.2727 80.5181 91.2862 80.5956 91.3144 80.6682C91.3427 80.7408 91.385 80.8071 91.4391 80.8633C91.5106 80.9366 91.5856 81.0081 91.6641 81.0779C94.6922 83.7343 97.7805 86.8357 99.0289 90.3323C99.2005 90.8119 99.535 91.2161 99.974 91.4744C100.413 91.7327 100.929 91.8286 101.431 91.7455H101.505C101.795 91.6984 102.072 91.593 102.32 91.4356C102.568 91.2783 102.781 91.0723 102.947 90.8301C103.114 90.5879 103.229 90.3146 103.286 90.0266C103.344 89.7386 103.342 89.4419 103.282 89.1545C103.107 88.3327 102.908 87.517 102.682 86.7075C102.325 87.0015 101.912 87.2196 101.468 87.3485C101.023 87.4774 100.557 87.5143 100.098 87.4569C99.6393 87.3996 99.1968 87.2493 98.7978 87.0151C98.3988 86.781 98.0518 86.4679 97.7779 86.095C96.163 83.8727 94.3094 81.8339 92.2504 80.0153C92.1408 79.9187 91.9992 79.8663 91.8532 79.8682C91.7071 79.8702 91.567 79.9263 91.46 80.0258Z" fill="#548383"/>
<path d="M101.083 92.036C100.576 92.0323 100.083 91.8725 99.6696 91.5785C99.2566 91.2844 98.9441 90.8703 98.7748 90.3924C97.4976 86.8487 94.213 83.6583 91.4938 81.2741C91.0559 80.8932 90.702 80.4254 90.4546 79.9005C90.2071 79.3756 90.0714 78.805 90.0561 78.2248C90.0409 77.6447 90.1464 77.0677 90.3659 76.5305C90.5855 75.9933 90.9143 75.5076 91.3315 75.1042C91.7487 74.7009 92.2452 74.3886 92.7895 74.1873C93.3338 73.986 93.914 73.9 94.4933 73.9348C95.0726 73.9696 95.6383 74.1244 96.1546 74.3895C96.6709 74.6545 97.1264 75.024 97.4924 75.4744C100.311 78.9474 102.347 83.5275 103.538 89.0838C103.608 89.4033 103.611 89.7338 103.548 90.0547C103.485 90.3757 103.357 90.6803 103.172 90.9498C102.986 91.2248 102.746 91.4594 102.467 91.6393C102.189 91.8192 101.876 91.9408 101.549 91.9967H101.476C101.346 92.0205 101.215 92.0337 101.083 92.036ZM94.2628 74.4563C93.5179 74.4557 92.7906 74.6821 92.1777 75.1054C91.5648 75.5286 91.0955 76.1286 90.8322 76.8254C90.569 77.5222 90.5243 78.2826 90.7043 79.0054C90.8842 79.7282 91.2801 80.379 91.8392 80.871C94.6056 83.2972 97.9504 86.5503 99.2668 90.2065C99.4163 90.6337 99.7108 90.9949 100.099 91.2273C100.487 91.4597 100.945 91.5486 101.392 91.4785H101.465C101.722 91.4365 101.968 91.3425 102.187 91.202C102.406 91.0616 102.594 90.8778 102.74 90.6619C102.885 90.4511 102.985 90.2127 103.035 89.9616C103.085 89.7104 103.082 89.4517 103.028 89.2015C101.853 83.7211 99.8557 79.217 97.0867 75.8068C96.7467 75.3851 96.3166 75.0449 95.8279 74.8113C95.3392 74.5776 94.8044 74.4563 94.2628 74.4563Z" fill="black"/>
<path d="M103.14 96.9564C103.079 96.9576 103.02 96.9373 102.972 96.8991C102.924 96.8608 102.891 96.807 102.879 96.747C101.219 88.5238 98.2385 81.9102 94.0222 77.0919C93.9977 77.0665 93.9787 77.0363 93.9661 77.0032C93.9536 76.9702 93.948 76.935 93.9494 76.8997C93.9509 76.8644 93.9595 76.8297 93.9748 76.7979C93.99 76.766 94.0115 76.7375 94.038 76.7142C94.0646 76.6908 94.0955 76.6731 94.1291 76.662C94.1627 76.651 94.1981 76.6469 94.2333 76.6499C94.2685 76.6529 94.3027 76.663 94.3339 76.6796C94.3651 76.6962 94.3926 76.719 94.4148 76.7465C98.6913 81.6354 101.711 88.3275 103.392 96.6371C103.399 96.6708 103.399 96.7055 103.392 96.7392C103.386 96.773 103.373 96.8051 103.354 96.8338C103.335 96.8625 103.31 96.8871 103.282 96.9064C103.253 96.9256 103.221 96.9391 103.188 96.9459L103.14 96.9564Z" fill="black"/>
<path d="M108.807 108.933H101.157C100.684 108.933 100.23 108.745 99.8962 108.411C99.562 108.076 99.3742 107.623 99.3742 107.15V96.9433C99.3742 96.7524 99.45 96.5693 99.585 96.4344C99.72 96.2994 99.9031 96.2235 100.094 96.2235H109.869C110.06 96.2235 110.243 96.2994 110.378 96.4344C110.513 96.5693 110.589 96.7524 110.589 96.9433V107.15C110.589 107.623 110.401 108.076 110.067 108.411C109.733 108.745 109.279 108.933 108.807 108.933Z" fill="white"/>
<path d="M110.589 96.9432V107.15C110.589 107.623 110.401 108.076 110.067 108.41C109.732 108.745 109.279 108.933 108.806 108.933H103.221C103.047 108.933 102.878 108.868 102.749 108.749C102.621 108.631 102.542 108.468 102.528 108.294C102.52 108.198 102.532 108.102 102.563 108.011C102.594 107.92 102.644 107.836 102.709 107.766C102.775 107.695 102.854 107.639 102.942 107.601C103.03 107.562 103.125 107.542 103.221 107.543H104.334C104.964 107.544 105.588 107.421 106.17 107.181C106.753 106.941 107.282 106.589 107.728 106.144C108.174 105.699 108.528 105.171 108.77 104.589C109.011 104.007 109.136 103.383 109.136 102.753V96.2261H109.879C110.068 96.2288 110.248 96.3055 110.381 96.4396C110.513 96.5737 110.588 96.7546 110.589 96.9432Z" fill="#E7F2F2"/>
<path d="M108.807 109.197H101.157C100.615 109.196 100.096 108.981 99.7127 108.597C99.3295 108.214 99.114 107.695 99.1133 107.153V96.9458C99.1133 96.6855 99.2167 96.4359 99.4007 96.2518C99.5848 96.0678 99.8344 95.9644 100.095 95.9644H109.87C110.13 95.9644 110.38 96.0678 110.564 96.2518C110.748 96.4359 110.851 96.6855 110.851 96.9458V107.153C110.851 107.695 110.635 108.214 110.252 108.597C109.869 108.981 109.349 109.196 108.807 109.197ZM100.095 96.4878C99.9733 96.4878 99.8568 96.536 99.7709 96.6219C99.685 96.7078 99.6367 96.8243 99.6367 96.9458V107.153C99.6374 107.556 99.7978 107.942 100.083 108.227C100.368 108.512 100.754 108.673 101.157 108.673H108.807C109.21 108.673 109.597 108.512 109.882 108.227C110.167 107.942 110.327 107.556 110.328 107.153V96.9458C110.328 96.8243 110.28 96.7078 110.194 96.6219C110.108 96.536 109.991 96.4878 109.87 96.4878H100.095Z" fill="black"/>
</svg>
