<svg width="132" height="132" viewBox="0 0 132 132" fill="none" xmlns="http://www.w3.org/2000/svg">
<path d="M102.609 102.063C110.113 93.3166 114.23 82.1679 114.211 70.6434C114.211 43.9573 92.5776 22.3242 65.8914 22.3242C39.2053 22.3242 17.5928 43.9598 17.5928 70.6409C17.5736 82.1653 21.6902 93.3141 29.1944 102.06L102.609 102.063Z" fill="#E9F1F1"/>
<path d="M28.6168 88.275H28.6787C29.1157 88.2575 29.5327 88.0871 29.8568 87.7935C30.181 87.5 30.3918 87.1019 30.4525 86.6688C30.9191 83.5519 32.9713 80.4529 35.0518 77.7382C35.3522 77.3428 35.5609 76.8856 35.6629 76.3996C35.765 75.9137 35.7577 75.4111 35.6418 74.9283C35.5258 74.4455 35.304 73.9945 34.9925 73.6078C34.6809 73.2212 34.2873 72.9087 33.8401 72.6928C33.0643 72.3223 32.1754 72.2657 31.3588 72.5347C30.5423 72.8037 29.8611 73.3775 29.4573 74.1365C27.5392 77.782 26.7683 82.0875 26.709 86.411C26.7072 86.66 26.7556 86.9068 26.8514 87.1367C26.9472 87.3666 27.0883 87.5748 27.2665 87.7488C27.4446 87.9228 27.656 88.0591 27.888 88.1495C28.12 88.2399 28.3679 88.2826 28.6168 88.275Z" fill="#38A98E"/>
<path d="M35.0621 76.8283C35.173 76.9016 35.2513 77.015 35.2806 77.1447C35.3099 77.2744 35.288 77.4105 35.2194 77.5244C35.1713 77.5983 35.1205 77.6705 35.0673 77.7409C32.9816 80.4634 30.9242 83.5727 30.4627 86.6973C30.3995 87.1266 30.1875 87.52 29.8638 87.8088C29.5401 88.0977 29.1252 88.2636 28.6916 88.2777H28.6168C28.367 88.2864 28.1181 88.2445 27.885 88.1544C27.6519 88.0643 27.4394 87.9279 27.2604 87.7535C27.0814 87.5791 26.9396 87.3703 26.8435 87.1396C26.7474 86.9089 26.699 86.6611 26.7012 86.4112C26.7116 85.6945 26.7425 84.9795 26.7941 84.2662C27.1416 84.4501 27.5229 84.5617 27.9148 84.5941C28.3067 84.6265 28.7011 84.5791 29.0741 84.4548C29.4472 84.3304 29.7911 84.1317 30.0852 83.8706C30.3793 83.6096 30.6173 83.2916 30.785 82.9359C31.7652 80.8102 32.9756 78.7984 34.3944 76.9366C34.4739 76.8411 34.5853 76.7775 34.708 76.7576C34.8307 76.7377 34.9564 76.7628 35.0621 76.8283Z" fill="#337B6A"/>
<path d="M28.5656 88.5328C28.0105 88.5321 27.4777 88.3147 27.0806 87.927C26.8769 87.7302 26.716 87.4936 26.6077 87.2319C26.4995 86.9702 26.4463 86.689 26.4515 86.4059C26.5185 81.559 27.4518 77.3824 29.2307 74.0128C29.4532 73.5539 29.7703 73.1472 30.1614 72.8198C30.5524 72.4923 31.0083 72.2514 31.4992 72.113C31.9901 71.9746 32.5048 71.9418 33.0093 72.0167C33.5138 72.0917 33.9966 72.2727 34.4261 72.5479C34.8555 72.823 35.2217 73.1861 35.5007 73.6131C35.7796 74.0401 35.9648 74.5214 36.0442 75.0252C36.1236 75.529 36.0953 76.0439 35.9612 76.536C35.827 77.0281 35.5902 77.4862 35.2661 77.88C33.397 80.3215 31.1901 83.5287 30.7157 86.6921C30.6456 87.1847 30.4049 87.6371 30.0356 87.9706C29.6663 88.3041 29.1917 88.4976 28.6945 88.5174H28.563L28.5656 88.5328ZM32.3993 72.6155C31.841 72.6144 31.2932 72.7662 30.8151 73.0543C30.337 73.3424 29.9469 73.756 29.6871 74.25C27.9494 77.5526 27.0342 81.6441 26.9671 86.4085C26.964 86.6215 27.0044 86.833 27.086 87.0298C27.1676 87.2267 27.2886 87.4048 27.4415 87.5531C27.5961 87.7057 27.7799 87.8255 27.9819 87.9053C28.184 87.985 28.4 88.0231 28.6171 88.0172H28.679C29.0559 88.0015 29.4153 87.8541 29.6947 87.6006C29.9741 87.3472 30.1557 87.0038 30.2078 86.6302C30.7003 83.3482 32.951 80.0714 34.8485 77.581C35.1255 77.216 35.3179 76.794 35.412 76.3455C35.506 75.8971 35.4992 75.4333 35.3922 74.9878C35.2851 74.5423 35.0804 74.1261 34.7929 73.7694C34.5054 73.4126 34.1422 73.1241 33.7296 72.9249C33.3145 72.7248 32.86 72.62 32.3993 72.6181V72.6155Z" fill="black"/>
<path d="M28.1016 92.9465C28.0332 92.9465 27.9676 92.9193 27.9193 92.871C27.8709 92.8226 27.8438 92.7571 27.8438 92.6887C27.8566 85.4699 29.2617 79.3624 32.0203 74.5619C32.056 74.5058 32.112 74.4656 32.1765 74.4498C32.2411 74.434 32.3093 74.4437 32.3669 74.477C32.4245 74.5103 32.467 74.5645 32.4855 74.6284C32.504 74.6922 32.4971 74.7608 32.4663 74.8197C29.7412 79.5402 28.3594 85.5524 28.3594 92.6913C28.3587 92.7592 28.3312 92.8241 28.283 92.8719C28.2347 92.9197 28.1695 92.9465 28.1016 92.9465Z" fill="black"/>
<path d="M25.3502 87.4347H25.2652C24.7442 87.4164 24.2462 87.2155 23.8584 86.8672C23.4705 86.519 23.2174 86.0454 23.1434 85.5294C22.5736 81.8195 20.1141 78.1379 17.6236 74.9127C17.2616 74.444 17.0088 73.9004 16.8837 73.3215C16.7586 72.7427 16.7643 72.1432 16.9005 71.5668C17.0366 70.9904 17.2997 70.4517 17.6705 69.99C18.0414 69.5283 18.5107 69.1552 19.0441 68.8979C19.9678 68.451 21.0286 68.3785 22.0045 68.6956C22.9804 69.0127 23.7958 69.6949 24.2803 70.5995C26.5826 74.9308 27.521 80.0561 27.6113 85.2072C27.6145 85.5034 27.5579 85.7973 27.445 86.0712C27.3321 86.3451 27.1651 86.5934 26.9541 86.8014C26.743 87.0093 26.4922 87.1725 26.2167 87.2813C25.9411 87.3902 25.6464 87.4423 25.3502 87.4347Z" fill="#38A98E"/>
<path d="M17.634 73.8248C17.5675 73.867 17.51 73.9219 17.4648 73.9864C17.4196 74.0509 17.3876 74.1236 17.3706 74.2005C17.3536 74.2774 17.3519 74.3569 17.3657 74.4345C17.3795 74.512 17.4084 74.586 17.4509 74.6523C17.5076 74.74 17.5687 74.8259 17.634 74.9102C20.1296 78.1431 22.5969 81.8376 23.1589 85.5578C23.2357 86.0671 23.4884 86.5334 23.8732 86.8758C24.258 87.2181 24.7505 87.415 25.2652 87.4321H25.34C25.6377 87.4415 25.9342 87.3905 26.2116 87.2822C26.489 87.1739 26.7416 87.0104 26.9541 86.8018C27.1667 86.5931 27.3347 86.3436 27.4481 86.0682C27.5615 85.7928 27.6179 85.4972 27.6139 85.1994C27.5984 84.3401 27.5589 83.4893 27.4953 82.6471C27.0822 82.8684 26.6285 83.0035 26.1616 83.0443C25.6948 83.0851 25.2245 83.0307 24.7793 82.8844C24.3341 82.7381 23.9232 82.5029 23.5715 82.1931C23.2199 81.8833 22.9348 81.5054 22.7335 81.0822C21.5596 78.5555 20.1124 76.1651 18.4177 73.9537C18.3255 73.84 18.1948 73.7641 18.0503 73.7404C17.9059 73.7166 17.7578 73.7466 17.634 73.8248Z" fill="#337B6A"/>
<path d="M25.4179 87.6923H25.2658C24.6848 87.6713 24.1295 87.4472 23.6966 87.059C23.2637 86.6709 22.9806 86.1433 22.8965 85.5679C22.3164 81.791 19.6687 77.9728 17.4283 75.0698C17.0691 74.606 16.8102 74.0726 16.6678 73.5035C16.5254 72.9344 16.5027 72.342 16.6011 71.7636C16.6995 71.1853 16.9169 70.6337 17.2396 70.1437C17.5622 69.6538 17.9831 69.2361 18.4755 68.9172C18.9679 68.5983 19.5211 68.3851 20.1002 68.2911C20.6792 68.1971 21.2715 68.2243 21.8395 68.371C22.4075 68.5178 22.9389 68.7808 23.4 69.1435C23.861 69.5062 24.2418 69.9607 24.5182 70.4782C26.6451 74.482 27.7769 79.4372 27.8697 85.2018C27.8765 85.5323 27.8155 85.8606 27.6905 86.1666C27.5655 86.4726 27.379 86.7497 27.1427 86.9807C26.684 87.436 26.0642 87.6917 25.4179 87.6923ZM20.7979 68.7534C19.9573 68.7537 19.1414 69.0373 18.4818 69.5584C17.8222 70.0795 17.3576 70.8077 17.1628 71.6254C17.0345 72.164 17.0286 72.7246 17.1455 73.2657C17.2624 73.8069 17.4991 74.315 17.8382 74.7527C20.1096 77.7047 22.8114 81.5925 23.4096 85.488C23.4756 85.9439 23.6992 86.3622 24.0416 86.6702C24.3841 86.9783 24.8236 87.1566 25.2839 87.1741H25.3586C25.6212 87.1828 25.8829 87.1382 26.1278 87.043C26.3727 86.9478 26.5957 86.8039 26.7834 86.62C26.9712 86.4361 27.1197 86.2161 27.22 85.9733C27.3203 85.7304 27.3703 85.4697 27.367 85.207C27.2664 79.5351 26.1553 74.6367 24.067 70.7154C23.7522 70.1218 23.2814 69.6255 22.7053 69.2797C22.1293 68.934 21.4698 68.752 20.7979 68.7534Z" fill="black"/>
<path d="M26.0084 92.9468C25.94 92.9468 25.8744 92.9196 25.8261 92.8713C25.7777 92.8229 25.7505 92.7573 25.7505 92.689C25.7016 84.1811 24.0258 77.0165 20.7696 71.3988C20.7388 71.3399 20.7319 71.2713 20.7504 71.2075C20.769 71.1436 20.8115 71.0894 20.869 71.0561C20.9266 71.0228 20.9948 71.0131 21.0594 71.0289C21.124 71.0447 21.1799 71.0849 21.2156 71.141C24.5182 76.8386 26.2172 84.0883 26.2662 92.689C26.2662 92.7573 26.239 92.8229 26.1907 92.8713C26.1423 92.9196 26.0767 92.9468 26.0084 92.9468Z" fill="black"/>
<path d="M23.7837 89.1824L23.7192 89.2031C23.3455 89.2628 22.9627 89.1891 22.638 88.9949C22.3132 88.8007 22.0671 88.4983 21.9429 88.1409C21.0199 85.5782 18.7537 83.3017 16.5288 81.3527C16.2059 81.0693 15.9503 80.7174 15.7806 80.3227C15.6109 79.928 15.5315 79.5004 15.548 79.0711C15.5646 78.6418 15.6767 78.2216 15.8763 77.8412C16.0758 77.4607 16.3578 77.1296 16.7015 76.8719C17.2964 76.4194 18.0438 76.2157 18.7859 76.3038C19.5281 76.3918 20.2071 76.7646 20.6796 77.3437C22.9226 80.1074 24.307 83.624 25.0882 87.2798C25.1321 87.4908 25.1329 87.7084 25.0905 87.9197C25.0481 88.131 24.9634 88.3315 24.8416 88.5092C24.7197 88.687 24.5632 88.8382 24.3814 88.9539C24.1996 89.0696 23.9963 89.1473 23.7837 89.1824Z" fill="#38A98E"/>
<path d="M16.3915 80.5688C16.3497 80.608 16.3161 80.6552 16.2927 80.7075C16.2693 80.7599 16.2565 80.8163 16.255 80.8736C16.2536 80.931 16.2635 80.988 16.2843 81.0414C16.3051 81.0949 16.3363 81.1437 16.376 81.185C16.4293 81.2382 16.4843 81.2907 16.541 81.3422C18.7685 83.2964 21.0399 85.5807 21.9551 88.1511C22.0787 88.5056 22.3231 88.8053 22.6456 88.9976C22.968 89.1899 23.3479 89.2626 23.7185 89.2029H23.7727C23.9858 89.1682 24.1896 89.0906 24.3719 88.9748C24.5542 88.8591 24.7112 88.7077 24.8334 88.5296C24.9555 88.3516 25.0403 88.1506 25.0827 87.9389C25.125 87.7272 25.124 87.509 25.0798 87.2977C24.9509 86.6927 24.8039 86.0911 24.6389 85.493C24.3755 85.708 24.0712 85.8674 23.7444 85.9614C23.4176 86.0554 23.0751 86.0821 22.7377 86.0399C22.4003 85.9977 22.0749 85.8875 21.7813 85.716C21.4877 85.5444 21.232 85.3151 21.0295 85.0418C19.8409 83.4067 18.4767 81.9067 16.9613 80.5688C16.8824 80.4999 16.7811 80.4619 16.6764 80.4619C16.5716 80.4619 16.4704 80.4999 16.3915 80.5688Z" fill="#337B6A"/>
<path d="M23.4609 89.4609C23.0742 89.4582 22.6978 89.3365 22.3827 89.1124C22.0676 88.8882 21.8293 88.5724 21.7 88.2079C20.7642 85.6143 18.3485 83.276 16.3607 81.5254C16.0376 81.2369 15.7776 80.8847 15.597 80.4909C15.4163 80.0971 15.319 79.6703 15.3111 79.2371C15.3031 78.804 15.3848 78.3739 15.5508 77.9737C15.7169 77.5736 15.9638 77.2121 16.2762 76.9119C16.5885 76.6117 16.9595 76.3792 17.3659 76.2291C17.7722 76.079 18.2052 76.0144 18.6377 76.0394C19.0702 76.0645 19.4929 76.1786 19.8792 76.3747C20.2655 76.5707 20.6072 76.8444 20.8828 77.1787C22.9633 79.7414 24.4664 83.1084 25.3455 87.2334C25.3984 87.4772 25.4008 87.7293 25.3524 87.9741C25.3041 88.2189 25.2061 88.4511 25.0645 88.6565C24.9221 88.865 24.7392 89.0426 24.5265 89.1786C24.3139 89.3146 24.0759 89.4062 23.827 89.448H23.7728C23.6694 89.4613 23.5651 89.4656 23.4609 89.4609ZM18.4413 76.5393C17.906 76.5388 17.3832 76.7014 16.9427 77.0056C16.5022 77.3098 16.1649 77.7411 15.9758 78.2419C15.7868 78.7428 15.7549 79.2893 15.8845 79.8087C16.014 80.3281 16.2989 80.7957 16.7011 81.149C18.7532 82.9383 21.2205 85.3359 22.195 88.0429C22.298 88.3449 22.5041 88.6009 22.7771 88.7659C23.0501 88.931 23.3726 88.9945 23.6878 88.9453H23.7419C23.9221 88.9158 24.0945 88.8499 24.2483 88.7515C24.4021 88.653 24.5342 88.5242 24.6365 88.3729C24.7391 88.2241 24.8099 88.0557 24.8445 87.8783C24.8791 87.7008 24.8768 87.5182 24.8376 87.3417C23.9765 83.3198 22.5173 80.0147 20.4806 77.5139C20.2371 77.2095 19.9284 76.9637 19.5772 76.7946C19.226 76.6255 18.8414 76.5374 18.4516 76.5368L18.4413 76.5393Z" fill="black"/>
<path d="M24.985 93.0909C24.9247 93.0921 24.8659 93.0721 24.8188 93.0344C24.7717 92.9968 24.7393 92.9437 24.7272 92.8846C23.5078 86.8441 21.3215 81.9895 18.2252 78.4471C18.2011 78.422 18.1823 78.3923 18.17 78.3598C18.1577 78.3272 18.1521 78.2925 18.1535 78.2577C18.155 78.223 18.1635 78.1889 18.1785 78.1575C18.1935 78.126 18.2147 78.098 18.2408 78.075C18.2669 78.052 18.2975 78.0346 18.3305 78.0237C18.3636 78.0128 18.3985 78.0087 18.4332 78.0117C18.4678 78.0147 18.5015 78.0246 18.5323 78.041C18.563 78.0573 18.5901 78.0797 18.6119 78.1068C21.7675 81.7162 23.9925 86.6482 25.23 92.7764C25.2367 92.8095 25.2369 92.8437 25.2305 92.877C25.224 92.9102 25.2111 92.9419 25.1924 92.9701C25.1738 92.9984 25.1497 93.0227 25.1216 93.0416C25.0936 93.0606 25.0621 93.0738 25.0289 93.0806L24.985 93.0909Z" fill="black"/>
<path d="M29.1506 101.838H23.5226C23.1745 101.838 22.8408 101.7 22.5947 101.454C22.3486 101.208 22.2103 100.874 22.2103 100.526V93.0057C22.2103 92.8656 22.266 92.7311 22.3651 92.632C22.4642 92.5329 22.5987 92.4772 22.7388 92.4772H29.9344C30.0745 92.4772 30.209 92.5329 30.3081 92.632C30.4072 92.7311 30.4629 92.8656 30.4629 93.0057V100.529C30.4622 100.876 30.3237 101.209 30.0776 101.455C29.8316 101.7 29.4982 101.838 29.1506 101.838Z" fill="white"/>
<path d="M30.4635 93.0163V100.526C30.4635 100.874 30.3252 101.208 30.0791 101.454C29.833 101.7 29.4992 101.839 29.1512 101.839H25.0442C24.9152 101.839 24.7906 101.791 24.6951 101.704C24.5996 101.618 24.5402 101.498 24.5286 101.369C24.5236 101.299 24.5333 101.228 24.557 101.161C24.5807 101.094 24.6179 101.033 24.6663 100.981C24.7146 100.929 24.7732 100.888 24.8382 100.86C24.9032 100.832 24.9734 100.818 25.0442 100.818H25.8615C26.3249 100.818 26.7838 100.727 27.212 100.55C27.6402 100.373 28.0293 100.113 28.357 99.7856C28.6848 99.4581 28.9448 99.0692 29.1222 98.6411C29.2996 98.213 29.391 97.7542 29.391 97.2908V92.4878H29.9375C30.0772 92.4885 30.211 92.5445 30.3096 92.6435C30.4081 92.7425 30.4635 92.8766 30.4635 93.0163Z" fill="#E7F2F2"/>
<path d="M29.1536 102.094H23.5255C23.11 102.093 22.7117 101.928 22.4179 101.634C22.1241 101.34 21.9587 100.942 21.958 100.526V93.0163C21.958 92.8078 22.0409 92.6078 22.1883 92.4603C22.3358 92.3128 22.5358 92.23 22.7443 92.23H29.9373C30.1459 92.23 30.3459 92.3128 30.4933 92.4603C30.6408 92.6078 30.7236 92.8078 30.7236 93.0163V100.526C30.723 100.942 30.5572 101.341 30.2629 101.635C29.9685 101.929 29.5695 102.094 29.1536 102.094ZM22.7418 92.7456C22.67 92.7456 22.6011 92.7741 22.5503 92.8249C22.4996 92.8757 22.4711 92.9445 22.4711 93.0163V100.526C22.4717 100.806 22.5831 101.073 22.7808 101.27C22.9785 101.468 23.2463 101.578 23.5255 101.578H29.1536C29.4328 101.578 29.7006 101.468 29.8983 101.27C30.0959 101.073 30.2073 100.806 30.208 100.526V93.0163C30.208 92.9445 30.1795 92.8757 30.1287 92.8249C30.078 92.7741 30.0091 92.7456 29.9373 92.7456H22.7418Z" fill="black"/>
<path d="M65.9996 61.875C66.403 61.875 66.7899 62.0353 67.0752 62.3205C67.3604 62.6058 67.5207 62.9927 67.5207 63.3961V77.8336C67.5207 78.0873 67.4199 78.3306 67.2405 78.5099C67.0612 78.6893 66.8179 78.7901 66.5642 78.7901H65.435C65.1813 78.7901 64.938 78.6893 64.7587 78.5099C64.5793 78.3306 64.4785 78.0873 64.4785 77.8336V63.3961C64.4785 62.9927 64.6388 62.6058 64.924 62.3205C65.2093 62.0353 65.5962 61.875 65.9996 61.875Z" fill="#D9DDDD"/>
<path d="M66.5801 74.2089C66.6092 74.0672 66.6239 73.923 66.6239 73.7783V66.0001C66.6239 65.8798 66.6717 65.7644 66.7568 65.6793C66.8419 65.5942 66.9573 65.5464 67.0777 65.5464C67.198 65.5464 67.3134 65.5942 67.3985 65.6793C67.4836 65.7644 67.5314 65.8798 67.5314 66.0001V77.8286C67.5314 78.0823 67.4307 78.3255 67.2513 78.5049C67.0719 78.6843 66.8286 78.7851 66.575 78.7851H65.4457C65.1921 78.7851 64.9488 78.6843 64.7694 78.5049C64.59 78.3255 64.4893 78.0823 64.4893 77.8286V75.9053C64.9807 75.9053 65.457 75.7358 65.8379 75.4253C66.2189 75.1148 66.481 74.6825 66.5801 74.2012" fill="#C9C9C9"/>
<path d="M66.5779 79.0533H65.4487C65.1268 79.0526 64.8184 78.9244 64.5908 78.6968C64.3632 78.4693 64.2351 78.1608 64.2344 77.839V63.4015C64.2344 62.9297 64.4218 62.4772 64.7554 62.1436C65.089 61.81 65.5415 61.6226 66.0133 61.6226C66.4851 61.6226 66.9376 61.81 67.2712 62.1436C67.6048 62.4772 67.7922 62.9297 67.7922 63.4015V77.839C67.7915 78.1608 67.6634 78.4693 67.4358 78.6968C67.2082 78.9244 66.8997 79.0526 66.5779 79.0533ZM66.0004 62.133C65.6656 62.1337 65.3446 62.267 65.1079 62.5038C64.8711 62.7405 64.7378 63.0615 64.7371 63.3963V77.8338C64.7371 78.0191 64.8107 78.1968 64.9417 78.3278C65.0728 78.4589 65.2505 78.5325 65.4358 78.5325H66.565C66.7503 78.5325 66.928 78.4589 67.059 78.3278C67.1901 78.1968 67.2637 78.0191 67.2637 77.8338V63.3963C67.263 63.0615 67.1297 62.7405 66.8929 62.5038C66.6562 62.267 66.3352 62.1337 66.0004 62.133Z" fill="black"/>
<path d="M67.5314 82.2832H64.4893V97.4658H67.5314V82.2832Z" fill="#D9DDDD"/>
<path d="M66.5801 85.1243C66.6092 85.266 66.6239 85.4102 66.6239 85.5548V93.3279C66.6239 93.4482 66.6717 93.5636 66.7568 93.6487C66.8419 93.7338 66.9573 93.7816 67.0777 93.7816C67.198 93.7816 67.3134 93.7338 67.3985 93.6487C67.4836 93.5636 67.5314 93.4482 67.5314 93.3279V82.2832H64.4893V83.4176C64.9807 83.4176 65.457 83.5871 65.8379 83.8976C66.2189 84.208 66.481 84.6404 66.5801 85.1217" fill="#C9C9C9"/>
<path d="M76.6525 77.0498H55.3727C53.9274 77.0498 52.7559 78.2214 52.7559 79.6666V79.6692C52.7559 81.1144 53.9274 82.286 55.3727 82.286H76.6525C78.0977 82.286 79.2693 81.1144 79.2693 79.6692V79.6666C79.2693 78.2214 78.0977 77.0498 76.6525 77.0498Z" fill="#3C4068"/>
<path d="M77.3001 77.1348C77.6888 77.6344 77.8822 78.2586 77.8441 78.8905C77.7906 79.5652 77.4829 80.1944 76.9833 80.6509C76.4836 81.1075 75.8293 81.3573 75.1525 81.35H58.5004C58.3993 81.349 58.3007 81.3809 58.2192 81.4409C58.1378 81.5008 58.0781 81.5856 58.049 81.6824C58.0199 81.7792 58.0231 81.8829 58.058 81.9778C58.0929 82.0727 58.1577 82.1536 58.2426 82.2085C58.3191 82.2591 58.4088 82.286 58.5004 82.2859H76.6504C76.9947 82.2862 77.3357 82.2186 77.6538 82.0869C77.9719 81.9552 78.261 81.7621 78.5043 81.5185C78.7476 81.2749 78.9405 80.9857 79.0719 80.6675C79.2032 80.3492 79.2705 80.0082 79.2698 79.6639C79.2684 79.0836 79.0741 78.5202 78.7176 78.0624C78.361 77.6046 77.8624 77.2783 77.3001 77.1348Z" fill="#363B5B"/>
<path d="M76.6502 82.5438H55.373C54.6102 82.5438 53.8787 82.2408 53.3394 81.7015C52.8001 81.1621 52.4971 80.4306 52.4971 79.6679C52.4971 78.9052 52.8001 78.1737 53.3394 77.6343C53.8787 77.095 54.6102 76.792 55.373 76.792H76.6502C77.413 76.792 78.1445 77.095 78.6838 77.6343C79.2231 78.1737 79.5261 78.9052 79.5261 79.6679C79.5261 80.4306 79.2231 81.1621 78.6838 81.7015C78.1445 82.2408 77.413 82.5438 76.6502 82.5438ZM55.373 77.3076C54.747 77.3076 54.1466 77.5563 53.704 77.9989C53.2614 78.4416 53.0127 79.0419 53.0127 79.6679C53.0127 80.2939 53.2614 80.8942 53.704 81.3369C54.1466 81.7795 54.747 82.0282 55.373 82.0282H76.6502C77.2762 82.0282 77.8766 81.7795 78.3192 81.3369C78.7618 80.8942 79.0105 80.2939 79.0105 79.6679C79.0105 79.0419 78.7618 78.4416 78.3192 77.9989C77.8766 77.5563 77.2762 77.3076 76.6502 77.3076H55.373Z" fill="black"/>
<path d="M58.1208 102.14C59.2058 102.14 60.0853 101.26 60.0853 100.175C60.0853 99.0905 59.2058 98.2109 58.1208 98.2109C57.0358 98.2109 56.1562 99.0905 56.1562 100.175C56.1562 101.26 57.0358 102.14 58.1208 102.14Z" fill="#3C4068"/>
<path d="M58.1208 102.401C57.6812 102.401 57.2516 102.27 56.8861 102.026C56.5207 101.782 56.2358 101.435 56.0676 101.029C55.8994 100.623 55.8554 100.176 55.9411 99.7448C56.0269 99.3138 56.2385 98.9178 56.5493 98.607C56.8601 98.2962 57.2561 98.0845 57.6872 97.9988C58.1183 97.913 58.5652 97.957 58.9712 98.1252C59.3773 98.2934 59.7244 98.5783 59.9686 98.9437C60.2128 99.3092 60.3431 99.7389 60.3431 100.178C60.3424 100.768 60.1081 101.332 59.6915 101.749C59.2748 102.166 58.71 102.4 58.1208 102.401ZM58.1208 98.4691C57.7832 98.4691 57.4533 98.5692 57.1726 98.7567C56.8919 98.9443 56.6732 99.2108 56.544 99.5227C56.4148 99.8346 56.381 100.178 56.4469 100.509C56.5127 100.84 56.6753 101.144 56.914 101.383C57.1526 101.621 57.4567 101.784 57.7878 101.85C58.1189 101.916 58.4621 101.882 58.7739 101.753C59.0858 101.623 59.3523 101.405 59.5399 101.124C59.7274 100.843 59.8275 100.513 59.8275 100.176C59.8268 99.7234 59.6468 99.2897 59.3269 98.9697C59.0069 98.6498 58.5732 98.4698 58.1208 98.4691Z" fill="black"/>
<path d="M58.1209 100.9C58.521 100.9 58.8454 100.576 58.8454 100.176C58.8454 99.7755 58.521 99.4512 58.1209 99.4512C57.7208 99.4512 57.3965 99.7755 57.3965 100.176C57.3965 100.576 57.7208 100.9 58.1209 100.9Z" fill="#C9C9C9"/>
<path d="M58.1209 101.158C57.9267 101.158 57.7368 101.1 57.5752 100.992C57.4137 100.884 57.2878 100.731 57.2134 100.552C57.1391 100.372 57.1196 100.175 57.1575 99.984C57.1954 99.7935 57.289 99.6184 57.4264 99.4811C57.5637 99.3437 57.7388 99.2501 57.9293 99.2122C58.1198 99.1743 58.3173 99.1938 58.4968 99.2681C58.6763 99.3425 58.8297 99.4684 58.9377 99.6299C59.0456 99.7914 59.1032 99.9814 59.1032 100.176C59.1032 100.436 58.9997 100.686 58.8155 100.87C58.6313 101.054 58.3814 101.158 58.1209 101.158ZM58.1209 99.7116C58.0286 99.7116 57.9384 99.7389 57.8617 99.7902C57.7849 99.8415 57.7251 99.9144 57.6898 99.9996C57.6545 100.085 57.6453 100.179 57.6633 100.269C57.6813 100.36 57.7257 100.443 57.791 100.508C57.8562 100.573 57.9394 100.618 58.0299 100.636C58.1204 100.654 58.2142 100.645 58.2995 100.609C58.3848 100.574 58.4577 100.514 58.5089 100.437C58.5602 100.361 58.5876 100.271 58.5876 100.178C58.5876 100.117 58.5755 100.056 58.5521 99.9996C58.5286 99.943 58.4942 99.8916 58.4509 99.8482C58.4076 99.8049 58.3561 99.7705 58.2995 99.7471C58.2429 99.7236 58.1822 99.7116 58.1209 99.7116Z" fill="black"/>
<path d="M73.902 102.14C74.987 102.14 75.8666 101.26 75.8666 100.175C75.8666 99.0905 74.987 98.2109 73.902 98.2109C72.817 98.2109 71.9375 99.0905 71.9375 100.175C71.9375 101.26 72.817 102.14 73.902 102.14Z" fill="#3C4068"/>
<path d="M73.902 102.401C73.4625 102.401 73.0328 102.27 72.6674 102.026C72.3019 101.782 72.0171 101.435 71.8489 101.029C71.6807 100.623 71.6366 100.176 71.7224 99.7448C71.8081 99.3138 72.0198 98.9178 72.3306 98.607C72.6414 98.2962 73.0374 98.0845 73.4685 97.9988C73.8996 97.913 74.3464 97.957 74.7525 98.1252C75.1586 98.2934 75.5056 98.5783 75.7498 98.9437C75.994 99.3092 76.1244 99.7389 76.1244 100.178C76.1237 100.768 75.8893 101.332 75.4727 101.749C75.0561 102.166 74.4912 102.4 73.902 102.401ZM73.902 98.4691C73.5645 98.4691 73.2345 98.5692 72.9538 98.7567C72.6732 98.9443 72.4544 99.2108 72.3252 99.5227C72.1961 99.8346 72.1623 100.178 72.2281 100.509C72.294 100.84 72.4565 101.144 72.6952 101.383C72.9339 101.621 73.238 101.784 73.5691 101.85C73.9001 101.916 74.2433 101.882 74.5552 101.753C74.867 101.623 75.1336 101.405 75.3211 101.124C75.5086 100.843 75.6087 100.513 75.6087 100.176C75.6081 99.7234 75.428 99.2897 75.1081 98.9697C74.7882 98.6498 74.3545 98.4698 73.902 98.4691Z" fill="black"/>
<path d="M73.9022 100.9C74.3023 100.9 74.6266 100.576 74.6266 100.176C74.6266 99.7755 74.3023 99.4512 73.9022 99.4512C73.5021 99.4512 73.1777 99.7755 73.1777 100.176C73.1777 100.576 73.5021 100.9 73.9022 100.9Z" fill="#C9C9C9"/>
<path d="M73.9022 101.158C73.7079 101.158 73.518 101.1 73.3565 100.992C73.1949 100.884 73.069 100.731 72.9947 100.552C72.9203 100.372 72.9009 100.175 72.9388 99.984C72.9767 99.7935 73.0703 99.6184 73.2076 99.4811C73.345 99.3437 73.52 99.2501 73.7106 99.2122C73.9011 99.1743 74.0986 99.1938 74.2781 99.2681C74.4576 99.3425 74.611 99.4684 74.7189 99.6299C74.8268 99.7914 74.8845 99.9814 74.8845 100.176C74.8845 100.436 74.781 100.686 74.5968 100.87C74.4125 101.054 74.1627 101.158 73.9022 101.158ZM73.9022 99.7116C73.8099 99.7116 73.7197 99.7389 73.6429 99.7902C73.5662 99.8415 73.5064 99.9144 73.4711 99.9996C73.4358 100.085 73.4265 100.179 73.4445 100.269C73.4625 100.36 73.507 100.443 73.5722 100.508C73.6375 100.573 73.7206 100.618 73.8111 100.636C73.9017 100.654 73.9955 100.645 74.0808 100.609C74.166 100.574 74.2389 100.514 74.2902 100.437C74.3415 100.361 74.3688 100.271 74.3688 100.178C74.3688 100.054 74.3197 99.9358 74.2322 99.8482C74.1446 99.7607 74.0259 99.7116 73.9022 99.7116Z" fill="black"/>
<path d="M66.0124 102.14C67.0974 102.14 67.9769 101.26 67.9769 100.175C67.9769 99.0905 67.0974 98.2109 66.0124 98.2109C64.9274 98.2109 64.0479 99.0905 64.0479 100.175C64.0479 101.26 64.9274 102.14 66.0124 102.14Z" fill="#3C4068"/>
<path d="M65.9997 102.401C65.5602 102.401 65.1305 102.27 64.765 102.026C64.3996 101.782 64.1147 101.435 63.9465 101.029C63.7783 100.623 63.7343 100.176 63.82 99.7448C63.9058 99.3138 64.1175 98.9178 64.4283 98.607C64.7391 98.2962 65.135 98.0845 65.5661 97.9988C65.9972 97.913 66.4441 97.957 66.8501 98.1252C67.2562 98.2934 67.6033 98.5783 67.8475 98.9437C68.0917 99.3092 68.222 99.7389 68.222 100.178C68.2214 100.768 67.987 101.332 67.5704 101.749C67.1538 102.166 66.5889 102.4 65.9997 102.401ZM65.9997 98.4691C65.6621 98.4691 65.3322 98.5692 65.0515 98.7567C64.7708 98.9443 64.5521 99.2108 64.4229 99.5227C64.2937 99.8346 64.2599 100.178 64.3258 100.509C64.3916 100.84 64.5542 101.144 64.7929 101.383C65.0315 101.621 65.3357 101.784 65.6667 101.85C65.9978 101.916 66.341 101.882 66.6528 101.753C66.9647 101.623 67.2312 101.405 67.4188 101.124C67.6063 100.843 67.7064 100.513 67.7064 100.176C67.7057 99.7234 67.5257 99.2897 67.2058 98.9697C66.8859 98.6498 66.4521 98.4698 65.9997 98.4691Z" fill="black"/>
<path d="M66.0125 100.9C66.4126 100.9 66.737 100.576 66.737 100.176C66.737 99.7755 66.4126 99.4512 66.0125 99.4512C65.6124 99.4512 65.2881 99.7755 65.2881 100.176C65.2881 100.576 65.6124 100.9 66.0125 100.9Z" fill="#C9C9C9"/>
<path d="M65.9998 101.158C65.8056 101.158 65.6157 101.1 65.4541 100.992C65.2926 100.884 65.1667 100.731 65.0923 100.552C65.018 100.372 64.9986 100.175 65.0365 99.984C65.0744 99.7935 65.1679 99.6184 65.3053 99.4811C65.4426 99.3437 65.6177 99.2501 65.8082 99.2122C65.9987 99.1743 66.1963 99.1938 66.3757 99.2681C66.5552 99.3425 66.7086 99.4684 66.8166 99.6299C66.9245 99.7914 66.9821 99.9814 66.9821 100.176C66.9821 100.436 66.8786 100.686 66.6944 100.87C66.5102 101.054 66.2604 101.158 65.9998 101.158ZM65.9998 99.7116C65.9075 99.7116 65.8173 99.7389 65.7406 99.7902C65.6638 99.8415 65.604 99.9144 65.5687 99.9996C65.5334 100.085 65.5242 100.179 65.5422 100.269C65.5602 100.36 65.6046 100.443 65.6699 100.508C65.7351 100.573 65.8183 100.618 65.9088 100.636C65.9993 100.654 66.0931 100.645 66.1784 100.609C66.2637 100.574 66.3366 100.514 66.3878 100.437C66.4391 100.361 66.4665 100.271 66.4665 100.178C66.4665 100.054 66.4173 99.9358 66.3298 99.8482C66.2423 99.7607 66.1236 99.7116 65.9998 99.7116Z" fill="black"/>
<path d="M67.5344 97.7239H64.4922C64.4238 97.7239 64.3582 97.6968 64.3099 97.6484C64.2615 97.6001 64.2344 97.5345 64.2344 97.4661V82.2861C64.2344 82.2178 64.2615 82.1522 64.3099 82.1038C64.3582 82.0555 64.4238 82.0283 64.4922 82.0283H67.5344C67.6028 82.0283 67.6683 82.0555 67.7167 82.1038C67.765 82.1522 67.7922 82.2178 67.7922 82.2861V97.4687C67.7915 97.5366 67.764 97.6015 67.7158 97.6493C67.6675 97.6971 67.6023 97.7239 67.5344 97.7239ZM64.75 97.2083H67.2766V82.5439H64.75V97.2083Z" fill="black"/>
<path d="M73.9018 98.4687C73.8334 98.4687 73.7678 98.4415 73.7195 98.3932C73.6711 98.3448 73.644 98.2793 73.644 98.2109V97.7236H58.3789V98.2109C58.3789 98.2793 58.3517 98.3448 58.3034 98.3932C58.255 98.4415 58.1895 98.4687 58.1211 98.4687C58.0527 98.4687 57.9871 98.4415 57.9388 98.3932C57.8904 98.3448 57.8633 98.2793 57.8633 98.2109V97.4658C57.8633 97.3974 57.8904 97.3319 57.9388 97.2835C57.9871 97.2352 58.0527 97.208 58.1211 97.208H73.9018C73.9702 97.208 74.0358 97.2352 74.0841 97.2835C74.1324 97.3319 74.1596 97.3974 74.1596 97.4658V98.2109C74.1596 98.2793 74.1324 98.3448 74.0841 98.3932C74.0358 98.4415 73.9702 98.4687 73.9018 98.4687Z" fill="black"/>
<path d="M52.0366 67.0259H49.0821C48.5681 67.0259 48.1514 67.4426 48.1514 67.9566V69.0368C48.1514 69.5508 48.5681 69.9675 49.0821 69.9675H52.0366C52.5506 69.9675 52.9673 69.5508 52.9673 69.0368V67.9566C52.9673 67.4426 52.5506 67.0259 52.0366 67.0259Z" fill="#363B5B"/>
<path d="M52.0366 70.2279H49.0821C48.7669 70.2279 48.4646 70.1027 48.2417 69.8798C48.0188 69.6569 47.8936 69.3546 47.8936 69.0394V67.9566C47.8936 67.6414 48.0188 67.3391 48.2417 67.1162C48.4646 66.8933 48.7669 66.7681 49.0821 66.7681H52.0366C52.3518 66.7681 52.6541 66.8933 52.877 67.1162C53.0999 67.3391 53.2251 67.6414 53.2251 67.9566V69.0394C53.2251 69.3546 53.0999 69.6569 52.877 69.8798C52.6541 70.1027 52.3518 70.2279 52.0366 70.2279ZM49.0821 67.2888C48.9937 67.2888 48.9062 67.3062 48.8246 67.3401C48.7429 67.3739 48.6687 67.4234 48.6063 67.4859C48.5438 67.5484 48.4942 67.6226 48.4604 67.7042C48.4266 67.7859 48.4092 67.8734 48.4092 67.9617V69.0445C48.4092 69.1329 48.4266 69.2204 48.4604 69.3021C48.4942 69.3837 48.5438 69.4579 48.6063 69.5204C48.6687 69.5828 48.7429 69.6324 48.8246 69.6662C48.9062 69.7 48.9937 69.7174 49.0821 69.7174H52.0366C52.125 69.7174 52.2125 69.7 52.2941 69.6662C52.3757 69.6324 52.4499 69.5828 52.5124 69.5204C52.5749 69.4579 52.6245 69.3837 52.6583 69.3021C52.6921 69.2204 52.7095 69.1329 52.7095 69.0445V67.9617C52.7095 67.8734 52.6921 67.7859 52.6583 67.7042C52.6245 67.6226 52.5749 67.5484 52.5124 67.4859C52.4499 67.4234 52.3757 67.3739 52.2941 67.3401C52.2125 67.3062 52.125 67.2888 52.0366 67.2888H49.0821Z" fill="black"/>
<path d="M52.7565 79.9218H52.1377C51.6513 79.9211 51.1851 79.7274 50.8414 79.3832C50.4977 79.039 50.3047 78.5725 50.3047 78.0861V69.9702C50.3047 69.9018 50.3318 69.8363 50.3802 69.7879C50.4285 69.7396 50.4941 69.7124 50.5625 69.7124C50.6309 69.7124 50.6965 69.7396 50.7448 69.7879C50.7931 69.8363 50.8203 69.9018 50.8203 69.9702V78.0913C50.8203 78.4409 50.959 78.7763 51.206 79.0238C51.453 79.2712 51.7881 79.4106 52.1377 79.4113H52.7565C52.8249 79.4113 52.8904 79.4385 52.9388 79.4868C52.9871 79.5352 53.0143 79.6007 53.0143 79.6691C53.0143 79.7375 52.9871 79.8031 52.9388 79.8514C52.8904 79.8998 52.8249 79.9269 52.7565 79.9269V79.9218Z" fill="black"/>
<path d="M79.9634 69.9702H82.9179C83.4319 69.9702 83.8486 69.5535 83.8486 69.0395V67.9593C83.8486 67.4453 83.4319 67.0286 82.9179 67.0286H79.9634C79.4494 67.0286 79.0327 67.4453 79.0327 67.9593V69.0395C79.0327 69.5535 79.4494 69.9702 79.9634 69.9702Z" fill="#363B5B"/>
<path d="M82.9175 70.2279H79.9629C79.6477 70.2279 79.3454 70.1027 79.1225 69.8798C78.8996 69.6569 78.7744 69.3546 78.7744 69.0394V67.9566C78.7744 67.6414 78.8996 67.3391 79.1225 67.1162C79.3454 66.8933 79.6477 66.7681 79.9629 66.7681H82.9175C83.2327 66.7681 83.535 66.8933 83.7579 67.1162C83.9808 67.3391 84.106 67.6414 84.106 67.9566V69.0394C84.106 69.3546 83.9808 69.6569 83.7579 69.8798C83.535 70.1027 83.2327 70.2279 82.9175 70.2279ZM79.9629 67.2888C79.8746 67.2888 79.7871 67.3062 79.7054 67.3401C79.6238 67.3739 79.5496 67.4234 79.4871 67.4859C79.4246 67.5484 79.3751 67.6226 79.3413 67.7042C79.3075 67.7859 79.29 67.8734 79.29 67.9617V69.0445C79.29 69.1329 79.3075 69.2204 79.3413 69.3021C79.3751 69.3837 79.4246 69.4579 79.4871 69.5204C79.5496 69.5828 79.6238 69.6324 79.7054 69.6662C79.7871 69.7 79.8746 69.7174 79.9629 69.7174H82.9175C83.0058 69.7174 83.0933 69.7 83.175 69.6662C83.2566 69.6324 83.3308 69.5828 83.3933 69.5204C83.4558 69.4579 83.5053 69.3837 83.5391 69.3021C83.5729 69.2204 83.5904 69.1329 83.5904 69.0445V67.9617C83.5904 67.8734 83.5729 67.7859 83.5391 67.7042C83.5053 67.6226 83.4558 67.5484 83.3933 67.4859C83.3308 67.4234 83.2566 67.3739 83.175 67.3401C83.0933 67.3062 83.0058 67.2888 82.9175 67.2888H79.9629Z" fill="black"/>
<path d="M79.8629 79.9218H79.2441C79.1758 79.9218 79.1102 79.8946 79.0618 79.8463C79.0135 79.7979 78.9863 79.7323 78.9863 79.664C78.9863 79.5956 79.0135 79.53 79.0618 79.4817C79.1102 79.4333 79.1758 79.4061 79.2441 79.4061H79.8629C80.213 79.4061 80.5487 79.2671 80.7963 79.0195C81.0438 78.772 81.1829 78.4362 81.1829 78.0861V69.9702C81.1829 69.9018 81.21 69.8363 81.2584 69.7879C81.3067 69.7396 81.3723 69.7124 81.4407 69.7124C81.5091 69.7124 81.5746 69.7396 81.623 69.7879C81.6713 69.8363 81.6985 69.9018 81.6985 69.9702V78.0913C81.6971 78.5772 81.5031 79.0428 81.159 79.3859C80.8149 79.7291 80.3488 79.9218 79.8629 79.9218Z" fill="black"/>
<path d="M64.6695 49.2964H67.3559C69.459 49.2998 71.4747 50.1376 72.9606 51.6259C74.4465 53.1142 75.281 55.1314 75.281 57.2344V72.4866C75.281 73.0035 75.0757 73.4993 74.7102 73.8648C74.3447 74.2303 73.8489 74.4357 73.332 74.4357H58.6805C58.1636 74.4357 57.6678 74.2303 57.3023 73.8648C56.9368 73.4993 56.7314 73.0035 56.7314 72.4866V57.2344C56.7314 55.1291 57.5678 53.1101 59.0564 51.6214C60.5451 50.1327 62.5642 49.2964 64.6695 49.2964Z" fill="#3C4068"/>
<path d="M72.2315 50.9722C73.2369 52.3328 73.7791 53.9802 73.7783 55.6721V70.9243C73.7783 71.4412 73.573 71.937 73.2075 72.3025C72.8419 72.668 72.3462 72.8733 71.8293 72.8733H57.1597C57.0263 72.8731 56.8933 72.8593 56.7627 72.8321C56.8437 73.2818 57.0802 73.6888 57.4308 73.982C57.7814 74.2751 58.2238 74.4357 58.6808 74.4357H73.3426C73.8595 74.4357 74.3553 74.2303 74.7208 73.8648C75.0863 73.4993 75.2917 73.0035 75.2917 72.4866V57.2344C75.2928 56.0264 75.0176 54.8341 74.4872 53.7487C73.9568 52.6633 73.1852 51.7136 72.2315 50.9722Z" fill="#363B5B"/>
<path d="M73.3423 74.6961H58.6805C58.0954 74.6954 57.5345 74.4627 57.1208 74.0489C56.707 73.6352 56.4743 73.0743 56.4736 72.4892V57.2344C56.4764 55.0616 57.3407 52.9785 58.8772 51.4421C60.4136 49.9057 62.4967 49.0413 64.6695 49.0386H67.3559C69.5265 49.0447 71.6063 49.9106 73.1399 51.4466C74.6736 52.9827 75.5362 55.0638 75.5389 57.2344V72.4866C75.5389 73.0704 75.3079 73.6304 74.8963 74.0444C74.4847 74.4584 73.9261 74.6927 73.3423 74.6961ZM64.6695 49.5568C62.6316 49.5561 60.6768 50.3643 59.2343 51.8038C57.7919 53.2434 56.9798 55.1966 56.9764 57.2344V72.4866C56.977 72.935 57.1555 73.3647 57.4725 73.6818C57.7895 73.9988 58.2193 74.1772 58.6676 74.1779H73.3294C73.7778 74.1772 74.2075 73.9988 74.5246 73.6818C74.8416 73.3647 75.02 72.935 75.0207 72.4866V57.2344C75.0179 55.1983 74.2079 53.2464 72.7682 51.8067C71.3284 50.367 69.3765 49.5569 67.3404 49.5542L64.6695 49.5568Z" fill="black"/>
<path d="M74.3636 69.3076H57.6367V75.4101H74.3636V69.3076Z" fill="#F2994A"/>
<path d="M74.3636 75.6679H57.6367C57.5683 75.6679 57.5028 75.6407 57.4544 75.5923C57.4061 75.544 57.3789 75.4784 57.3789 75.41V69.3076C57.3789 69.2392 57.4061 69.1737 57.4544 69.1253C57.5028 69.077 57.5683 69.0498 57.6367 69.0498H74.3636C74.432 69.0498 74.4976 69.077 74.5459 69.1253C74.5943 69.1737 74.6214 69.2392 74.6214 69.3076V75.41C74.6214 75.4784 74.5943 75.544 74.5459 75.5923C74.4976 75.6407 74.432 75.6679 74.3636 75.6679ZM57.8945 75.1522H74.1058V69.5654H57.8945V75.1522Z" fill="black"/>
<path d="M75.7429 74.8174H56.2549V77.0861H75.7429V74.8174Z" fill="#3C4068"/>
<path d="M75.7455 77.3439H56.2549C56.1865 77.3439 56.1209 77.3168 56.0726 77.2684C56.0242 77.2201 55.9971 77.1545 55.9971 77.0861V74.8174C55.9971 74.749 56.0242 74.6834 56.0726 74.6351C56.1209 74.5867 56.1865 74.5596 56.2549 74.5596H75.7455C75.8139 74.5596 75.8795 74.5867 75.9278 74.6351C75.9762 74.6834 76.0033 74.749 76.0033 74.8174V77.0861C76.0033 77.1545 75.9762 77.2201 75.9278 77.2684C75.8795 77.3168 75.8139 77.3439 75.7455 77.3439ZM56.5153 76.8283H75.4877V75.0752H56.5127L56.5153 76.8283Z" fill="black"/>
<path d="M35.1425 71.5454H38.2517L31.1413 102.143H29.3984L35.1425 71.5454Z" fill="#FBBF9A"/>
<path d="M34.8304 73.2009C35.0528 73.2009 35.2724 73.2507 35.4731 73.3466C35.6737 73.4425 35.8504 73.5821 35.9901 73.7551C36.1297 73.9282 36.2289 74.1303 36.2803 74.3467C36.3317 74.5631 36.334 74.7882 36.2871 75.0056L33.1675 89.4972C33.1536 89.5593 33.1538 89.6237 33.1682 89.6857C33.1826 89.7477 33.2108 89.8056 33.2507 89.8552C33.2906 89.9047 33.3412 89.9447 33.3986 89.972C33.4561 89.9993 33.519 90.0132 33.5826 90.0129C33.6783 90.013 33.7712 89.9807 33.8461 89.9212C33.921 89.8617 33.9735 89.7786 33.9951 89.6854L38.2516 71.5483H35.1424L34.8304 73.2009Z" fill="#E0AA8C"/>
<path d="M31.1415 102.401H29.3909C29.3528 102.401 29.315 102.393 29.2802 102.378C29.2455 102.362 29.2147 102.339 29.19 102.309C29.1654 102.28 29.1475 102.246 29.1376 102.209C29.1278 102.172 29.1263 102.134 29.1331 102.096L34.8772 71.4991C34.8882 71.439 34.9201 71.3848 34.9673 71.3461C35.0145 71.3074 35.074 71.2867 35.135 71.2877H38.2442C38.2837 71.2866 38.3229 71.2947 38.3588 71.3111C38.3947 71.3276 38.4263 71.3521 38.4512 71.3828C38.4761 71.4134 38.4936 71.4494 38.5025 71.4879C38.5113 71.5264 38.5111 71.5664 38.502 71.6048L31.3916 102.199C31.3787 102.256 31.347 102.307 31.3016 102.344C31.2562 102.38 31.1998 102.4 31.1415 102.401ZM29.708 101.885H30.9378L37.9297 71.8033H35.3516L29.708 101.885Z" fill="black"/>
<path d="M96.8573 71.5454H93.748L100.859 102.143H102.601L96.8573 71.5454Z" fill="#FBBF9A"/>
<path d="M97.1692 73.2009C96.9468 73.2009 96.7272 73.2507 96.5266 73.3466C96.3259 73.4425 96.1493 73.5821 96.0096 73.7551C95.8699 73.9282 95.7707 74.1303 95.7193 74.3467C95.6679 74.5631 95.6656 74.7882 95.7126 75.0056L98.8321 89.4972C98.8461 89.5593 98.8458 89.6237 98.8314 89.6857C98.8171 89.7477 98.7889 89.8056 98.749 89.8552C98.7091 89.9047 98.6585 89.9447 98.601 89.972C98.5435 89.9993 98.4806 90.0132 98.417 90.0129C98.3214 90.013 98.2285 89.9807 98.1536 89.9212C98.0786 89.8617 98.0261 89.7786 98.0045 89.6854L93.748 71.5483H96.8573L97.1692 73.2009Z" fill="#E0AA8C"/>
<path d="M102.609 102.401H100.866C100.807 102.402 100.749 102.383 100.702 102.347C100.655 102.311 100.622 102.26 100.609 102.202L93.4981 71.6024C93.489 71.5639 93.4889 71.5239 93.4977 71.4854C93.5065 71.4469 93.5241 71.411 93.549 71.3803C93.5739 71.3497 93.6055 71.3252 93.6414 71.3087C93.6773 71.2922 93.7165 71.2842 93.756 71.2852H96.8652C96.9262 71.2843 96.9856 71.305 97.0329 71.3437C97.0801 71.3824 97.112 71.4366 97.123 71.4967L102.867 102.094C102.874 102.131 102.872 102.17 102.863 102.207C102.853 102.244 102.835 102.278 102.81 102.307C102.785 102.336 102.755 102.359 102.72 102.375C102.685 102.391 102.647 102.399 102.609 102.398V102.401ZM101.062 101.885H102.29L96.6435 71.8035H94.0653L101.062 101.885Z" fill="black"/>
<path d="M43.4283 71.5454H46.5375L39.427 102.143H37.6816L43.4283 71.5454Z" fill="#FBBF9A"/>
<path d="M43.1166 73.2009C43.339 73.2009 43.5585 73.2507 43.7592 73.3466C43.9599 73.4425 44.1365 73.5821 44.2762 73.7551C44.4159 73.9282 44.515 74.1303 44.5664 74.3467C44.6178 74.5631 44.6201 74.7882 44.5732 75.0056L41.4537 89.4972C41.4397 89.5593 41.4399 89.6237 41.4543 89.6857C41.4687 89.7477 41.4969 89.8056 41.5368 89.8552C41.5767 89.9047 41.6273 89.9447 41.6848 89.972C41.7422 89.9993 41.8051 90.0132 41.8687 90.0129C41.9644 90.013 42.0573 89.9807 42.1322 89.9212C42.2071 89.8617 42.2597 89.7786 42.2813 89.6854L46.5377 71.5483H43.4285L43.1166 73.2009Z" fill="#E0AA8C"/>
<path d="M39.4277 102.401H37.6849C37.6467 102.401 37.6089 102.393 37.5742 102.378C37.5395 102.362 37.5086 102.339 37.484 102.309C37.4593 102.28 37.4414 102.246 37.4316 102.209C37.4217 102.172 37.4202 102.134 37.4271 102.096L43.1711 71.4991C43.1821 71.439 43.214 71.3848 43.2613 71.3461C43.3085 71.3074 43.3679 71.2867 43.4289 71.2877H46.5382C46.5776 71.2866 46.6168 71.2947 46.6527 71.3111C46.6886 71.3276 46.7202 71.3521 46.7451 71.3828C46.77 71.4134 46.7876 71.4494 46.7964 71.4879C46.8052 71.5264 46.8051 71.5664 46.796 71.6048L39.6778 102.199C39.6649 102.256 39.6332 102.307 39.5878 102.344C39.5424 102.38 39.486 102.4 39.4277 102.401ZM37.9943 101.885H39.2214L46.2133 71.8033H43.6352L37.9943 101.885Z" fill="black"/>
<path d="M88.5711 71.5454H85.4619L92.5724 102.143H94.3152L88.5711 71.5454Z" fill="#FBBF9A"/>
<path d="M88.8831 73.2009C88.6607 73.2009 88.4411 73.2507 88.2405 73.3466C88.0398 73.4425 87.8632 73.5821 87.7235 73.7551C87.5838 73.9282 87.4846 74.1303 87.4332 74.3467C87.3818 74.5631 87.3795 74.7882 87.4264 75.0056L90.546 89.4972C90.5599 89.5593 90.5597 89.6237 90.5453 89.6857C90.5309 89.7477 90.5027 89.8056 90.4628 89.8552C90.4229 89.9047 90.3724 89.9447 90.3149 89.972C90.2574 89.9993 90.1945 90.0132 90.1309 90.0129C90.0353 90.013 89.9424 89.9807 89.8675 89.9212C89.7925 89.8617 89.74 89.7786 89.7184 89.6854L85.4619 71.5483H88.5711L88.8831 73.2009Z" fill="#E0AA8C"/>
<path d="M94.3154 102.401H92.5725C92.5133 102.402 92.4553 102.383 92.4084 102.347C92.3614 102.311 92.3283 102.26 92.3147 102.202L85.212 71.6024C85.2029 71.5639 85.2028 71.5239 85.2116 71.4854C85.2204 71.4469 85.2379 71.411 85.2629 71.3803C85.2878 71.3497 85.3194 71.3252 85.3553 71.3087C85.3912 71.2922 85.4303 71.2842 85.4698 71.2852H88.579C88.6401 71.2843 88.6995 71.305 88.7467 71.3437C88.7939 71.3824 88.8259 71.4366 88.8368 71.4967L94.5706 102.094C94.5775 102.131 94.5759 102.17 94.5661 102.207C94.5562 102.244 94.5383 102.278 94.5137 102.307C94.489 102.336 94.4582 102.359 94.4235 102.375C94.3887 102.391 94.3509 102.399 94.3128 102.398L94.3154 102.401ZM92.7685 101.885H93.9957L88.3573 71.8035H85.7792L92.7685 101.885Z" fill="black"/>
<path d="M101.888 68.0522H30.1127C29.7269 68.0522 29.4141 68.3651 29.4141 68.7509V70.9269C29.4141 71.3127 29.7269 71.6255 30.1127 71.6255H101.888C102.274 71.6255 102.586 71.3127 102.586 70.9269V68.7509C102.586 68.3651 102.274 68.0522 101.888 68.0522Z" fill="#FBBF9A"/>
<path d="M101.887 68.0625H100.114C100.114 68.6218 99.8914 69.1582 99.4959 69.5537C99.1004 69.9492 98.564 70.1714 98.0046 70.1714H33.8093C33.6151 70.1714 33.4289 70.2485 33.2916 70.3859C33.1543 70.5232 33.0771 70.7094 33.0771 70.9036C33.0771 71.0978 33.1543 71.284 33.2916 71.4213C33.4289 71.5586 33.6151 71.6358 33.8093 71.6358H101.887C102.073 71.6358 102.25 71.5622 102.381 71.4311C102.512 71.3001 102.586 71.1224 102.586 70.9371V68.7612C102.586 68.5759 102.512 68.3982 102.381 68.2671C102.25 68.1361 102.073 68.0625 101.887 68.0625Z" fill="#E0AA8C"/>
<path d="M101.888 71.8859H30.1127C29.8593 71.8852 29.6164 71.7842 29.4372 71.605C29.2579 71.4257 29.1569 71.1828 29.1562 70.9294V68.7534C29.159 68.5013 29.2608 68.2604 29.4399 68.0828C29.6189 67.9053 29.8606 67.8054 30.1127 67.8047H101.888C102.141 67.8054 102.384 67.9064 102.563 68.0856C102.743 68.2648 102.844 68.5077 102.844 68.7612V70.9371C102.842 71.1892 102.74 71.4301 102.561 71.6077C102.382 71.7853 102.14 71.8852 101.888 71.8859ZM30.1127 68.3203C29.996 68.321 29.8843 68.3677 29.8017 68.4502C29.7192 68.5327 29.6726 68.6445 29.6719 68.7612V70.9371C29.6726 71.0538 29.7192 71.1656 29.8017 71.2481C29.8843 71.3306 29.996 71.3773 30.1127 71.378H101.888C102.004 71.3773 102.116 71.3306 102.199 71.2481C102.281 71.1656 102.328 71.0538 102.329 70.9371V68.7612C102.328 68.6445 102.281 68.5327 102.199 68.4502C102.116 68.3677 102.004 68.321 101.888 68.3203H30.1127Z" fill="black"/>
<path d="M42.8896 68.0625H31.9867C31.8335 68.0625 31.6866 68.0016 31.5783 67.8933C31.47 67.785 31.4092 67.6381 31.4092 67.485V66.0721C31.4092 65.919 31.47 65.7721 31.5783 65.6638C31.6866 65.5555 31.8335 65.4946 31.9867 65.4946H42.8896" fill="#EA3F3F"/>
<path d="M42.8896 68.0625H31.9867C31.8335 68.0625 31.6866 68.0016 31.5783 67.8933C31.47 67.785 31.4092 67.6381 31.4092 67.485V66.0721C31.4092 65.919 31.47 65.7721 31.5783 65.6638C31.6866 65.5555 31.8335 65.4946 31.9867 65.4946H42.8896" fill="#FBBF9A"/>
<path d="M42.3765 68.3203H31.9867C31.7651 68.3203 31.5527 68.2323 31.396 68.0756C31.2394 67.919 31.1514 67.7065 31.1514 67.485V66.0721C31.1514 65.8506 31.2394 65.6381 31.396 65.4815C31.5527 65.3248 31.7651 65.2368 31.9867 65.2368H42.3765C42.5816 65.2368 42.7784 65.3183 42.9234 65.4634C43.0685 65.6084 43.15 65.8051 43.15 66.0103V67.5571C43.1472 67.7605 43.0646 67.9546 42.9198 68.0974C42.7751 68.2402 42.5799 68.3203 42.3765 68.3203ZM31.9867 65.7421C31.9019 65.7421 31.8206 65.7758 31.7606 65.8358C31.7007 65.8957 31.667 65.977 31.667 66.0618V67.4746C31.667 67.5166 31.6753 67.5582 31.6913 67.597C31.7074 67.6358 31.7309 67.671 31.7606 67.7007C31.7903 67.7304 31.8256 67.7539 31.8643 67.77C31.9031 67.7861 31.9447 67.7943 31.9867 67.7943H42.3765C42.4449 67.7943 42.5105 67.7672 42.5588 67.7188C42.6072 67.6705 42.6343 67.6049 42.6343 67.5365V65.9896C42.6343 65.9213 42.6072 65.8557 42.5588 65.8073C42.5105 65.759 42.4449 65.7318 42.3765 65.7318L31.9867 65.7421Z" fill="black"/>
<path d="M32.4092 66.5621V66.9771C32.4092 67.1338 32.5361 67.2607 32.6928 67.2607H41.6053C41.762 67.2607 41.8889 67.1338 41.8889 66.9771V66.5621C41.8889 66.4054 41.762 66.2785 41.6053 66.2785H32.6928C32.5361 66.2785 32.4092 66.4054 32.4092 66.5621Z" fill="white"/>
<path d="M43.8821 62.9863H32.6957C32.5425 62.9863 32.3956 62.9254 32.2873 62.8171C32.179 62.7088 32.1182 62.5619 32.1182 62.4088V60.996C32.1182 60.8428 32.179 60.6959 32.2873 60.5876C32.3956 60.4793 32.5425 60.4185 32.6957 60.4185H43.8821" fill="#EA3F3F"/>
<path d="M43.8821 62.9863H32.6957C32.5425 62.9863 32.3956 62.9254 32.2873 62.8171C32.179 62.7088 32.1182 62.5619 32.1182 62.4088V60.996C32.1182 60.8428 32.179 60.6959 32.2873 60.5876C32.3956 60.4793 32.5425 60.4185 32.6957 60.4185H43.8821" fill="#FBBF9A"/>
<path d="M43.3691 63.2441H32.6957C32.4741 63.2441 32.2617 63.1561 32.105 62.9994C31.9484 62.8428 31.8604 62.6303 31.8604 62.4088V60.996C31.8604 60.8863 31.882 60.7776 31.9239 60.6763C31.9659 60.575 32.0274 60.4829 32.105 60.4053C32.1826 60.3277 32.2747 60.2662 32.376 60.2242C32.4773 60.1822 32.586 60.1606 32.6957 60.1606H43.3691C43.5742 60.1606 43.771 60.2421 43.916 60.3872C44.0611 60.5322 44.1425 60.729 44.1425 60.9341V62.481C44.1398 62.6843 44.0571 62.8784 43.9124 63.0212C43.7676 63.164 43.5725 63.2441 43.3691 63.2441ZM32.6957 60.666C32.6109 60.666 32.5296 60.6996 32.4696 60.7596C32.4097 60.8195 32.376 60.9009 32.376 60.9856V62.3985C32.376 62.4832 32.4097 62.5646 32.4696 62.6245C32.5296 62.6845 32.6109 62.7182 32.6957 62.7182H43.3691C43.4375 62.7182 43.5031 62.691 43.5514 62.6426C43.5998 62.5943 43.6269 62.5287 43.6269 62.4603V60.9135C43.6269 60.8451 43.5998 60.7795 43.5514 60.7312C43.5031 60.6828 43.4375 60.6556 43.3691 60.6556L32.6957 60.666Z" fill="black"/>
<path d="M33.1182 61.4962V61.9112C33.1182 62.0679 33.2451 62.1948 33.4018 62.1948H42.5979C42.7546 62.1948 42.8815 62.0679 42.8815 61.9112V61.4962C42.8815 61.3395 42.7546 61.2126 42.5979 61.2126H33.4018C33.2451 61.2126 33.1182 61.3395 33.1182 61.4962Z" fill="#38A98E"/>
<path d="M29.3955 65.1314V63.3422C29.3955 63.2478 29.433 63.1573 29.4997 63.0906C29.5664 63.0239 29.6569 62.9864 29.7513 62.9864H41.6364C41.7732 62.9864 41.9043 63.0407 42.001 63.1374C42.0977 63.2341 42.1521 63.3653 42.1521 63.502V64.9741C42.1521 65.1109 42.0977 65.242 42.001 65.3387C41.9043 65.4354 41.7732 65.4897 41.6364 65.4897H29.7513C29.6569 65.4897 29.5664 65.4523 29.4997 65.3855C29.433 65.3188 29.3955 65.2283 29.3955 65.134V65.1314Z" fill="#FF9748"/>
<path d="M30.1846 63.2953C30.1846 63.336 30.1926 63.3762 30.2081 63.4137C30.2237 63.4513 30.2465 63.4854 30.2752 63.5141C30.3039 63.5428 30.338 63.5656 30.3756 63.5812C30.4131 63.5967 30.4533 63.6047 30.494 63.6047H40.0124C40.4432 63.6047 40.8563 63.7758 41.1609 64.0804C41.4655 64.385 41.6366 64.7982 41.6366 65.2289V65.4867C41.7734 65.4867 41.9045 65.4324 42.0012 65.3357C42.0979 65.239 42.1522 65.1079 42.1522 64.9711V63.499C42.1522 63.3623 42.0979 63.2311 42.0012 63.1344C41.9045 63.0377 41.7734 62.9834 41.6366 62.9834H30.4914C30.4507 62.9837 30.4106 62.9921 30.3732 63.0079C30.3358 63.0238 30.3019 63.0469 30.2734 63.0758C30.2449 63.1048 30.2224 63.1391 30.2071 63.1768C30.1919 63.2144 30.1842 63.2547 30.1846 63.2953Z" fill="#F28840"/>
<path d="M41.6394 65.742H29.7542C29.5915 65.742 29.4354 65.6774 29.3203 65.5623C29.2053 65.4472 29.1406 65.2911 29.1406 65.1284V63.3392C29.1406 63.1764 29.2053 63.0204 29.3203 62.9053C29.4354 62.7902 29.5915 62.7256 29.7542 62.7256H41.6394C41.8445 62.7256 42.0412 62.8071 42.1863 62.9521C42.3313 63.0972 42.4128 63.2939 42.4128 63.499V64.9686C42.4128 65.1737 42.3313 65.3704 42.1863 65.5155C42.0412 65.6605 41.8445 65.742 41.6394 65.742ZM29.7542 63.2412C29.7282 63.2412 29.7033 63.2515 29.6849 63.2699C29.6666 63.2883 29.6562 63.3132 29.6562 63.3392V65.1284C29.6562 65.1544 29.6666 65.1793 29.6849 65.1977C29.7033 65.2161 29.7282 65.2264 29.7542 65.2264H41.6394C41.7078 65.2264 41.7733 65.1992 41.8217 65.1509C41.87 65.1025 41.8972 65.0369 41.8972 64.9686V63.499C41.8972 63.4306 41.87 63.3651 41.8217 63.3167C41.7733 63.2684 41.7078 63.2412 41.6394 63.2412H29.7542Z" fill="black"/>
<path d="M89.0654 49.8979L91.8287 52.3965L91.7976 52.4309C91.4665 52.7971 91.0035 53.0168 90.5104 53.0416C90.0174 53.0664 89.5347 52.8943 89.1685 52.5632C88.9872 52.3993 88.8399 52.2012 88.7351 51.9804C88.6304 51.7595 88.5701 51.5202 88.5578 51.276C88.5456 51.0319 88.5815 50.7877 88.6636 50.5575C88.7456 50.3272 88.8723 50.1154 89.0362 49.9341L89.0673 49.8997L89.0654 49.8979Z" fill="#F7C90D"/>
<path d="M89.703 50.7683C89.6697 50.808 89.6527 50.8589 89.6556 50.9106C89.6585 50.9623 89.6809 51.011 89.7185 51.0468L90.2805 51.5624C90.3912 51.661 90.4726 51.7882 90.5158 51.9301C90.559 52.0719 90.5622 52.2229 90.5252 52.3665C90.4881 52.5101 90.4123 52.6407 90.3059 52.744C90.1995 52.8473 90.0667 52.9192 89.9221 52.952H89.8422C90.1819 53.0618 90.5461 53.0715 90.8912 52.9801C91.2363 52.8887 91.5479 52.6999 91.7887 52.4364L91.8196 52.4029L89.9917 50.7503C89.9716 50.7324 89.9482 50.7187 89.9228 50.7099C89.8974 50.7011 89.8704 50.6974 89.8436 50.6991C89.8167 50.7008 89.7905 50.7078 89.7664 50.7197C89.7422 50.7315 89.7207 50.7481 89.703 50.7683Z" fill="#E2BA13"/>
<path d="M95.129 45.9661C95.4804 46.2839 95.6913 46.7283 95.7151 47.2015C95.7389 47.6748 95.5737 48.1381 95.2559 48.4896L94.4969 49.3291L91.8483 46.9343L92.6074 46.0948C92.9252 45.7433 93.3696 45.5325 93.8428 45.5086C94.3161 45.4848 94.7794 45.65 95.1309 45.9678L95.129 45.9661Z" fill="white"/>
<path d="M95.695 46.981C95.6674 47.3775 95.5076 47.7533 95.2412 48.0483C95.1593 48.1391 95.0603 48.2128 94.9499 48.2653C94.8395 48.3178 94.7198 48.348 94.5977 48.3542C94.4756 48.3605 94.3535 48.3426 94.2383 48.3016C94.1231 48.2606 94.0171 48.1973 93.9264 48.1153L92.8616 47.1537C92.8111 47.1088 92.745 47.0855 92.6774 47.0889C92.6099 47.0923 92.5465 47.122 92.5007 47.1717C92.4558 47.2223 92.4325 47.2884 92.4359 47.3559C92.4392 47.4234 92.469 47.4869 92.5187 47.5327L94.5039 49.3374L95.2618 48.4995C95.4459 48.2967 95.5807 48.0542 95.6558 47.7908C95.731 47.5275 95.7443 47.2503 95.695 46.981Z" fill="#E7F2F2"/>
<path d="M94.5036 49.5827C94.4397 49.5826 94.3781 49.5587 94.3308 49.5157L91.6831 47.1206C91.6326 47.0747 91.6023 47.0107 91.599 46.9426C91.5956 46.8744 91.6193 46.8077 91.665 46.7571L92.423 45.9192C92.7871 45.5178 93.2956 45.2772 93.8369 45.2501C94.3782 45.2231 94.9081 45.4117 95.3105 45.7748C95.7119 46.139 95.9525 46.6474 95.9796 47.1887C96.0067 47.73 95.818 48.26 95.4549 48.6623L94.6943 49.5002C94.67 49.5265 94.6405 49.5474 94.6076 49.5616C94.5748 49.5758 94.5393 49.583 94.5036 49.5827ZM92.2167 46.9221L94.4829 48.9717L95.0682 48.3246C95.3397 48.024 95.4808 47.6278 95.4605 47.2233C95.4402 46.8187 95.2601 46.4387 94.9599 46.1667C94.6592 45.8952 94.2631 45.7541 93.8585 45.7744C93.4539 45.7947 93.0739 45.9747 92.802 46.275L92.2167 46.9221Z" fill="black"/>
<path d="M91.8798 46.9576L94.4729 49.3022C94.9461 49.7301 95.2299 50.3284 95.262 50.9655C95.294 51.6027 95.0717 52.2265 94.6438 52.6997L93.5285 53.9331L87.3633 48.3584L88.4734 47.1307C88.6852 46.895 88.9415 46.7034 89.2276 46.567C89.5138 46.4306 89.824 46.3521 90.1406 46.336C90.4571 46.3199 90.7737 46.3665 91.0722 46.4732C91.3707 46.5799 91.6452 46.7445 91.8798 46.9576Z" fill="white"/>
<path d="M95.1328 50.3045C95.1185 50.8776 94.8989 51.4265 94.514 51.8514L94.2562 52.1376C94.0273 52.3862 93.7099 52.5349 93.3723 52.5518C93.0348 52.5687 92.7041 52.4523 92.4515 52.2278L89.2933 49.3712C89.2679 49.3457 89.2375 49.3259 89.2039 49.3128C89.1704 49.2998 89.1345 49.294 89.0985 49.2957C89.0626 49.2974 89.0274 49.3066 88.9952 49.3227C88.9631 49.3388 88.9346 49.3615 88.9117 49.3893C88.8863 49.4147 88.8664 49.4451 88.8534 49.4787C88.8404 49.5122 88.8345 49.5481 88.8362 49.584C88.8379 49.62 88.8471 49.6552 88.8632 49.6873C88.8794 49.7195 88.902 49.748 88.9298 49.7708L93.5292 53.9294L94.6455 52.6944C94.9326 52.3758 95.1292 51.9862 95.2149 51.5659C95.3006 51.1456 95.2722 50.7101 95.1328 50.3045Z" fill="#E7F2F2"/>
<path d="M93.5292 54.1869C93.4653 54.1868 93.4038 54.1629 93.3565 54.1199L87.1948 48.5486C87.1443 48.5027 87.1141 48.4387 87.1107 48.3706C87.1073 48.3024 87.1311 48.2357 87.1768 48.1851L88.2931 46.9501C88.7669 46.4264 89.4294 46.1124 90.1348 46.0771C90.8402 46.0418 91.5308 46.2881 92.0546 46.7619L94.6481 49.1055C95.1719 49.5793 95.4859 50.2418 95.5212 50.9472C95.5565 51.6526 95.3102 52.3432 94.8364 52.8669L93.72 54.1019C93.6743 54.1527 93.6104 54.1833 93.5421 54.1869H93.5292ZM87.7336 48.3423L93.5112 53.5656L94.4548 52.5344C94.8364 52.112 95.0348 51.5554 95.0062 50.9869C94.9777 50.4184 94.7247 49.8845 94.3027 49.5025L91.7091 47.159C91.2867 46.7774 90.7302 46.579 90.1617 46.6075C89.5932 46.6361 89.0592 46.8891 88.6772 47.3111L87.7336 48.3423Z" fill="black"/>
<path d="M90.4178 53.3C89.8928 53.3007 89.3863 53.1058 88.9972 52.7534C88.581 52.3755 88.3315 51.8479 88.3034 51.2864C88.2754 50.7249 88.4711 50.1751 88.8477 49.7576L88.8786 49.7241C88.9245 49.6736 88.9885 49.6433 89.0567 49.64C89.1248 49.6366 89.1915 49.6603 89.2422 49.706L92.0059 52.2043C92.0564 52.2501 92.0866 52.3141 92.09 52.3823C92.0934 52.4504 92.0697 52.5171 92.024 52.5678L91.993 52.6013C91.7942 52.8218 91.5512 52.998 91.2798 53.1184C91.0084 53.2388 90.7147 53.3006 90.4178 53.3ZM89.3427 52.3718C89.6313 52.6324 90.0047 52.7793 90.3934 52.7855C90.7822 52.7917 91.16 52.6566 91.4568 52.4053L89.0978 50.2732C88.8787 50.5952 88.7841 50.9858 88.8316 51.3723C88.879 51.7588 89.0652 52.1149 89.3556 52.3744L89.3427 52.3718Z" fill="black"/>
<path d="M96.9784 64.2416C96.91 64.2416 96.8444 64.2145 96.7961 64.1661C96.7477 64.1178 96.7206 64.0522 96.7206 63.9838V55.0558C96.7195 54.6419 96.8005 54.2319 96.959 53.8496C97.1174 53.4672 97.3501 53.1201 97.6435 52.8283L99.8195 50.6523C100.313 50.1575 100.59 49.4872 100.59 48.7884C100.59 48.0895 100.313 47.4192 99.8195 46.9244L99.046 46.1509C98.5512 45.6575 97.8809 45.3805 97.1821 45.3805C96.4833 45.3805 95.813 45.6575 95.3181 46.1509C95.2688 46.1932 95.2053 46.2152 95.1404 46.2127C95.0756 46.2102 95.014 46.1833 94.9681 46.1374C94.9222 46.0915 94.8953 46.0299 94.8928 45.9651C94.8903 45.9002 94.9123 45.8367 94.9546 45.7874C95.5462 45.1972 96.3477 44.8657 97.1834 44.8657C98.019 44.8657 98.8206 45.1972 99.4121 45.7874L100.186 46.5609C100.776 47.1524 101.107 47.954 101.107 48.7896C101.107 49.6253 100.776 50.4268 100.186 51.0184L98.0096 53.1944C97.7639 53.4385 97.569 53.7289 97.4362 54.0489C97.3034 54.3688 97.2355 54.7119 97.2362 55.0583V63.9864C97.2355 64.0543 97.2081 64.1192 97.1598 64.167C97.1115 64.2148 97.0463 64.2416 96.9784 64.2416Z" fill="black"/>
<path d="M95.3644 63.9839H98.8603C99.4982 63.9839 100.11 64.2373 100.561 64.6884C101.012 65.1395 101.266 65.7513 101.266 66.3893V68.0625H92.959V66.3996C92.959 65.7616 93.2124 65.1498 93.6635 64.6987C94.1146 64.2476 94.7264 63.9942 95.3644 63.9942V63.9839Z" fill="white"/>
<path d="M100.031 64.2856C100.405 64.7201 100.611 65.2745 100.611 65.848V66.2347C100.611 66.5766 100.475 66.9045 100.233 67.1462C99.9917 67.388 99.6638 67.5238 99.3219 67.5238H95.0654C94.9971 67.5238 94.9315 67.5509 94.8831 67.5993C94.8348 67.6476 94.8076 67.7132 94.8076 67.7816C94.8076 67.85 94.8348 67.9155 94.8831 67.9639C94.9315 68.0122 94.9971 68.0394 95.0654 68.0394H101.253V66.3765C101.253 65.951 101.139 65.5332 100.925 65.1659C100.71 64.7985 100.401 64.4947 100.031 64.2856Z" fill="#E7F2F2"/>
<path d="M101.263 68.3202H92.959C92.8906 68.3202 92.825 68.2931 92.7767 68.2447C92.7283 68.1964 92.7012 68.1308 92.7012 68.0624V66.3995C92.7019 65.6934 92.9827 65.0164 93.482 64.5171C93.9813 64.0178 94.6583 63.737 95.3644 63.7363H98.8603C99.5664 63.737 100.243 64.0178 100.743 64.5171C101.242 65.0164 101.523 65.6934 101.524 66.3995V68.0624C101.524 68.0965 101.517 68.1302 101.504 68.1617C101.491 68.1931 101.471 68.2217 101.447 68.2456C101.423 68.2696 101.394 68.2885 101.363 68.3014C101.331 68.3142 101.297 68.3206 101.263 68.3202ZM93.2168 67.8046H101.005V66.3995C101.005 65.8302 100.778 65.2843 100.376 64.8817C99.9729 64.4791 99.4271 64.2526 98.8577 64.252H95.3644C94.795 64.2526 94.2492 64.4791 93.8466 64.8817C93.444 65.2843 93.2175 65.8302 93.2168 66.3995V67.8046Z" fill="black"/>
<path d="M106.361 102.4H21.4736C21.4053 102.4 21.3397 102.373 21.2913 102.325C21.243 102.277 21.2158 102.211 21.2158 102.143C21.2158 102.074 21.243 102.009 21.2913 101.96C21.3397 101.912 21.4053 101.885 21.4736 101.885H106.361C106.429 101.885 106.495 101.912 106.543 101.96C106.592 102.009 106.619 102.074 106.619 102.143C106.619 102.211 106.592 102.277 106.543 102.325C106.495 102.373 106.429 102.4 106.361 102.4Z" fill="black"/>
<path d="M110.527 102.4H108.946C108.878 102.4 108.812 102.373 108.764 102.325C108.716 102.277 108.688 102.211 108.688 102.143C108.688 102.074 108.716 102.009 108.764 101.96C108.812 101.912 108.878 101.885 108.946 101.885H110.527C110.595 101.885 110.661 101.912 110.709 101.96C110.757 102.009 110.785 102.074 110.785 102.143C110.785 102.211 110.757 102.277 110.709 102.325C110.661 102.373 110.595 102.4 110.527 102.4Z" fill="black"/>
<path d="M63.1824 38.8135C60.7744 40.1773 58.632 41.884 60.7022 44.0187C62.7725 46.1534 59.2585 48.0715 59.4132 50.7064C59.5679 53.3412 63.4737 54.8314 65.4512 53.0267C67.4286 51.222 63.1824 38.8135 63.1824 38.8135Z" fill="black"/>
<path d="M63.2644 54.0712C62.6786 54.0687 62.0989 53.9522 61.5577 53.7284C60.1526 53.1534 59.2373 52.001 59.1548 50.7223C59.0852 49.5441 59.6988 48.5025 60.2402 47.5847C60.9905 46.3085 61.5834 45.303 60.5135 44.1996C59.82 43.4855 59.5209 42.7507 59.6266 42.0185C59.8329 40.5825 61.5654 39.4404 63.053 38.5896C63.086 38.5709 63.1228 38.5597 63.1606 38.5569C63.1985 38.554 63.2365 38.5596 63.272 38.5731C63.3074 38.5867 63.3395 38.6079 63.3658 38.6352C63.3921 38.6626 63.4121 38.6954 63.4242 38.7314C63.8651 40.0205 67.6704 51.3642 65.6259 53.223C64.971 53.7885 64.1294 54.0907 63.2644 54.0712ZM63.0375 39.1877C61.8026 39.907 60.3047 40.9409 60.1397 42.0855C60.0572 42.6579 60.3021 43.2302 60.8873 43.8335C62.2305 45.218 61.4468 46.5509 60.6862 47.8399C60.1706 48.7371 59.6112 49.6652 59.673 50.6759C59.7375 51.7561 60.5367 52.7384 61.7562 53.2359C63.0452 53.7516 64.4245 53.5994 65.2805 52.826C65.7007 52.447 66.1957 50.9646 64.8087 45.3005C64.1487 42.6192 63.3185 40.0463 63.0375 39.1877Z" fill="black"/>
<path d="M69.1919 56.4609C69.2865 56.4316 69.3801 56.3981 69.4729 56.3603C70.1989 56.0578 70.8374 55.5781 71.3301 54.9651C71.8228 54.3521 72.154 53.6255 72.2934 52.8515C72.6079 51.0648 71.9041 49.2679 71.8474 47.4864C71.8062 46.12 72.0665 44.7355 71.8268 43.3898C71.4117 41.0695 69.5451 39.2287 67.4259 38.2077C66.7944 37.8804 66.1086 37.6708 65.4021 37.589C64.2471 37.491 62.8807 37.9963 62.7131 39.2905C62.6728 39.7564 62.7272 40.2256 62.873 40.6698C63.3447 42.3276 64.2755 43.7971 64.889 45.4007C65.1262 46.0195 65.4769 46.8135 65.5258 47.4632C65.5826 48.2212 65.0566 49.041 64.6493 49.6366C64.1337 50.41 63.5226 51.1577 63.3602 52.0677C63.237 52.871 63.3994 53.6921 63.8191 54.388C64.3573 55.2812 65.1775 55.9697 66.1504 56.345C67.1232 56.7203 68.1934 56.7611 69.1919 56.4609Z" fill="black"/>
<path d="M67.8407 56.9326C66.9825 56.9363 66.1383 56.7152 65.392 56.2914C64.6457 55.8676 64.0233 55.2558 63.5868 54.5169C63.1393 53.7717 62.9669 52.8933 63.0995 52.0342C63.2542 51.1937 63.7441 50.4873 64.2159 49.8196L64.435 49.505C64.7444 49.0538 65.3193 48.216 65.2652 47.4967C65.1761 46.9136 65.0079 46.3455 64.765 45.808L64.6464 45.5012C64.3886 44.8541 64.0921 44.2121 63.793 43.5908C63.3232 42.6804 62.9316 41.7317 62.6226 40.7549C62.4677 40.277 62.4107 39.7728 62.455 39.2724C62.6355 37.8571 64.0844 37.2306 65.4198 37.3466C66.1581 37.4282 66.8749 37.6459 67.5339 37.9885C69.9909 39.1719 71.6873 41.1777 72.0791 43.3588C72.2006 44.2222 72.2222 45.0968 72.1436 45.9653C72.1178 46.4809 72.0895 46.9965 72.1049 47.4941C72.1435 48.1824 72.2297 48.8672 72.3627 49.5437C72.5509 50.642 72.7469 51.7764 72.5458 52.9133C72.3986 53.7305 72.0489 54.4977 71.5287 55.1449C71.0085 55.7921 70.3344 56.2986 69.568 56.6181C69.4684 56.6576 69.3687 56.6928 69.269 56.7238C68.8064 56.866 68.3247 56.9364 67.8407 56.9326ZM65.1363 37.8545C64.2648 37.8545 63.1098 38.2283 62.968 39.3421C62.9337 39.7733 62.9854 40.2071 63.1202 40.6182C63.4205 41.569 63.8009 42.4927 64.2571 43.3794C64.5588 44.0085 64.8733 44.6685 65.1285 45.3285L65.2445 45.6301C65.5091 46.2154 65.6896 46.8351 65.7808 47.4709C65.8401 48.2572 65.3734 49.059 64.8604 49.8092L64.6387 50.1289C64.1978 50.7606 63.7415 51.418 63.6074 52.1424C63.4976 52.8824 63.6499 53.6376 64.038 54.2771C64.5497 55.1177 65.3249 55.7656 66.243 56.12C67.1611 56.4743 68.1705 56.5153 69.1143 56.2365C69.2045 56.2081 69.2922 56.1772 69.3721 56.1437C70.0571 55.8577 70.6594 55.4047 71.1242 54.826C71.589 54.2473 71.9013 53.5613 72.0327 52.8308C72.2158 51.7841 72.0327 50.7425 71.8471 49.6391C71.7124 48.9395 71.6262 48.2314 71.5893 47.5199C71.5738 47.0042 71.5893 46.4628 71.628 45.9498C71.7047 45.1211 71.6857 44.2863 71.5712 43.4619C71.2103 41.4458 69.617 39.5767 67.3122 38.4681C66.7096 38.1533 66.0541 37.9523 65.3786 37.8751C65.3013 37.8493 65.2265 37.8442 65.1363 37.8442V37.8545Z" fill="black"/>
<path d="M52.2969 64.1568L55.1998 59.4053L59.5079 59.9879L58.8685 65.5799L52.2969 64.1568Z" fill="#FBBF9A"/>
<path d="M58.8692 65.8374H58.8151L52.246 64.4169C52.2058 64.4082 52.1682 64.3899 52.1365 64.3637C52.1048 64.3375 52.0798 64.304 52.0637 64.2661C52.0475 64.2283 52.0406 64.1871 52.0437 64.1461C52.0467 64.105 52.0595 64.0653 52.081 64.0302L54.9814 59.2787C55.0077 59.2354 55.0462 59.2008 55.0921 59.1793C55.1379 59.1577 55.1891 59.1502 55.2392 59.1575L59.5473 59.7402C59.6139 59.7492 59.6744 59.7839 59.7158 59.8369C59.7572 59.8899 59.7763 59.9569 59.769 60.0238L59.1296 65.6157C59.1226 65.6791 59.0924 65.7376 59.0448 65.78C58.9971 65.8223 58.9355 65.8456 58.8718 65.8452L58.8692 65.8374ZM52.7075 63.9838L58.6372 65.2728L59.2147 60.2146L55.3243 59.6989L52.7075 63.9838Z" fill="black"/>
<path d="M79.6507 64.0999L75.9975 58.4692L72.4912 59.9878L73.1306 65.5797L79.6507 64.0999Z" fill="#FBBF9A"/>
<path d="M73.1315 65.8376C73.0677 65.838 73.0061 65.8148 72.9585 65.7724C72.9109 65.73 72.8807 65.6715 72.8736 65.6081L72.2343 60.0162C72.2298 59.9624 72.2424 59.9087 72.2701 59.8624C72.2979 59.8162 72.3394 59.7798 72.389 59.7584L75.8952 58.2425C75.9512 58.2179 76.014 58.214 76.0726 58.2315C76.1311 58.2489 76.1816 58.2866 76.2149 58.3378L79.8681 63.9685C79.8907 64.0033 79.9046 64.0432 79.9085 64.0846C79.9124 64.1259 79.9062 64.1677 79.8905 64.2062C79.8748 64.2446 79.8501 64.2788 79.8183 64.3056C79.7866 64.3325 79.7488 64.3512 79.7083 64.3603L73.1882 65.8402L73.1315 65.8376ZM72.7705 60.1477L73.3558 65.2653L79.2339 63.9375L75.9004 58.7813L72.7705 60.1477Z" fill="black"/>
<path d="M65.6078 51.0703C65.6078 51.0703 60.9543 51.0703 57.5254 54.4399V63.8836C57.5254 63.8836 73.9248 64.1414 73.9248 63.8836C73.9248 63.6258 74.3399 54.1795 74.3399 54.1795C74.3399 54.1795 70.5733 51.0703 65.6078 51.0703Z" fill="#F2994A"/>
<path d="M69.1766 64.2574C66.7325 64.2574 63.0561 64.2265 57.5234 64.1414C57.4551 64.1414 57.3895 64.1142 57.3411 64.0659C57.2928 64.0176 57.2656 63.952 57.2656 63.8836V54.4399C57.2658 54.4058 57.2727 54.3721 57.286 54.3406C57.2992 54.3092 57.3186 54.2808 57.343 54.2569C60.8054 50.8512 65.4099 50.8125 65.593 50.8125C70.5945 50.8125 74.3328 53.8521 74.4875 53.981C74.518 54.0064 74.5422 54.0384 74.5583 54.0746C74.5744 54.1108 74.5819 54.1502 74.5803 54.1898C74.4385 57.4538 74.1678 63.6799 74.1652 63.881C74.1637 63.9517 74.1351 64.019 74.0853 64.0692C74.0338 64.1414 73.9177 64.2574 69.1766 64.2574ZM57.7838 63.6258C63.7135 63.7134 72.3296 63.7934 73.6728 63.6696C73.7218 62.3522 74.026 55.3913 74.075 54.2956C73.4537 53.8186 69.9809 51.323 65.6059 51.323C65.5517 51.323 61.0787 51.3694 57.7813 54.543L57.7838 63.6258Z" fill="black"/>
<path d="M58.219 53.8159C58.219 53.8159 55.6898 55.8578 53.0215 60.3566C53.0215 60.3566 53.5964 62.9579 58.5645 63.3576L58.3917 58.588" fill="#F2994A"/>
<path d="M58.5643 63.6125H58.5437C53.4442 63.2026 52.7945 60.5187 52.7687 60.4105C52.7546 60.3461 52.7656 60.2787 52.7996 60.2223C55.4603 55.7363 57.9559 53.697 58.0564 53.6145C58.0828 53.5932 58.1132 53.5773 58.1457 53.5677C58.1783 53.5581 58.2124 53.555 58.2462 53.5586C58.2799 53.5622 58.3127 53.5724 58.3425 53.5886C58.3723 53.6048 58.3986 53.6268 58.4199 53.6532C58.4413 53.6796 58.4572 53.71 58.4668 53.7425C58.4764 53.7751 58.4795 53.8092 58.4759 53.843C58.4723 53.8767 58.4621 53.9094 58.4459 53.9393C58.4296 53.9691 58.4077 53.9954 58.3813 54.0167C58.3555 54.0373 55.8908 56.0586 53.3024 60.3898C53.4622 60.8178 54.3697 62.6766 58.2962 63.0737L58.1338 58.5955C58.1338 58.5271 58.1609 58.4615 58.2093 58.4132C58.2576 58.3648 58.3232 58.3377 58.3916 58.3377C58.46 58.3377 58.5255 58.3648 58.5739 58.4132C58.6222 58.4615 58.6494 58.5271 58.6494 58.5955L58.8221 63.365C58.8221 63.4334 58.795 63.4989 58.7466 63.5473C58.6983 63.5956 58.6327 63.6228 58.5643 63.6228V63.6125Z" fill="black"/>
<path d="M73.9275 53.8159C73.9275 53.8159 76.4566 55.8578 79.125 60.3566C79.125 60.3566 78.5501 62.9579 73.582 63.3576L73.7548 58.588" fill="#F2994A"/>
<path d="M73.582 63.6126C73.5137 63.6126 73.4481 63.5854 73.3997 63.537C73.3514 63.4887 73.3242 63.4231 73.3242 63.3547L73.4969 58.5852C73.4969 58.5168 73.5241 58.4513 73.5725 58.4029C73.6208 58.3546 73.6864 58.3274 73.7548 58.3274C73.8231 58.3274 73.8887 58.3546 73.9371 58.4029C73.9854 58.4513 74.0126 58.5168 74.0126 58.5852L73.8502 63.0634C77.7741 62.6664 78.6841 60.8101 78.844 60.377C76.253 56.038 73.7909 54.0245 73.7651 54.0065C73.7387 53.9851 73.7167 53.9588 73.7005 53.929C73.6843 53.8992 73.674 53.8665 73.6705 53.8327C73.6669 53.799 73.67 53.7648 73.6796 53.7323C73.6892 53.6997 73.7051 53.6694 73.7264 53.643C73.7477 53.6165 73.7741 53.5946 73.8039 53.5784C73.8337 53.5621 73.8664 53.5519 73.9002 53.5483C73.9339 53.5447 73.968 53.5478 74.0006 53.5574C74.0332 53.567 74.0635 53.5829 74.0899 53.6043C74.1956 53.6894 76.6861 55.7287 79.3467 60.212C79.3807 60.2685 79.3918 60.3358 79.3777 60.4002C79.3519 60.5137 78.7022 63.1923 73.6027 63.6022L73.582 63.6126Z" fill="black"/>
<path d="M67.2895 51.1421V49.0796H64.0771V51.1937C63.0425 51.3669 62.0341 51.671 61.0762 52.0986C61.0762 52.0986 61.0221 54.3132 65.459 54.3132C69.896 54.3132 70.2827 51.8846 70.2827 51.8846C69.3083 51.551 68.3068 51.3026 67.2895 51.1421Z" fill="#FBBF9A"/>
<path d="M65.4509 54.5712C63.5431 54.5712 62.1844 54.1716 61.4161 53.3853C61.0592 53.0476 60.8444 52.5867 60.8154 52.0962C60.8167 52.0472 60.832 51.9996 60.8594 51.959C60.8868 51.9183 60.9252 51.8863 60.9701 51.8668C61.8776 51.4621 62.8294 51.1653 63.8061 50.9825V49.085C63.8061 49.0166 63.8332 48.951 63.8816 48.9027C63.9299 48.8543 63.9955 48.8271 64.0639 48.8271H67.2891C67.3575 48.8271 67.4231 48.8543 67.4714 48.9027C67.5198 48.951 67.5469 49.0166 67.5469 49.085V50.9257C68.5014 51.0909 69.4411 51.3323 70.3571 51.6476C70.4137 51.6679 70.4615 51.7074 70.4921 51.7592C70.5227 51.8109 70.5342 51.8718 70.5247 51.9312C70.5143 52.0343 70.0477 54.5712 65.4509 54.5712ZM61.3517 52.2509C61.4239 52.5464 61.5796 52.8149 61.8003 53.0243C62.2618 53.4858 63.2698 54.0375 65.4509 54.0375C68.8643 54.0375 69.7461 52.5886 69.9575 52.0343C69.0757 51.7445 68.1722 51.5255 67.2556 51.3795C67.1936 51.3707 67.137 51.3397 67.0962 51.2923C67.0554 51.2449 67.0333 51.1842 67.0339 51.1217V49.317H64.3346V51.1732C64.3354 51.235 64.3139 51.2951 64.2742 51.3424C64.2344 51.3897 64.179 51.4212 64.118 51.4311C63.1687 51.5957 62.2426 51.8735 61.3594 52.2586L61.3517 52.2509Z" fill="black"/>
<path d="M70.545 45.357C70.3772 45.2796 70.1877 45.2631 70.0089 45.3101C69.8302 45.3571 69.6734 45.4648 69.5654 45.6148C69.6092 45.076 69.6221 44.5835 69.6221 44.2329C69.6221 44.2329 69.7432 40.5591 65.6879 40.5591C61.8387 40.5591 61.8387 44.2535 61.8387 44.2535C61.8387 44.2535 61.8387 44.8181 61.898 45.5813C61.7855 45.4446 61.6307 45.3492 61.4581 45.31C61.2854 45.2708 61.1046 45.2901 60.9441 45.3647C60.279 45.6225 60.5806 47.2313 61.5758 47.4272C61.7813 47.4606 61.9918 47.4135 62.1636 47.2957C62.2613 47.7421 62.4128 48.1749 62.6147 48.5848C63.4294 50.1497 64.4452 50.6473 65.8116 50.6086C66.4435 50.6092 67.0628 50.4311 67.5979 50.0949C68.1329 49.7588 68.5621 49.2781 68.8357 48.7085C69.0556 48.261 69.2168 47.787 69.3153 47.2983C69.4869 47.4164 69.6975 47.4635 69.9031 47.4298C70.8983 47.2235 71.2102 45.6096 70.545 45.357Z" fill="#FBBF9A"/>
<path d="M65.6722 50.8614C64.182 50.8614 63.1637 50.1885 62.3851 48.6958C62.2188 48.3664 62.0866 48.0208 61.9906 47.6645C61.8384 47.7052 61.6792 47.7122 61.524 47.6852C60.8124 47.5382 60.387 46.8138 60.3355 46.1718C60.2942 45.6562 60.4927 45.2566 60.8511 45.1199C61.0897 45.0197 61.3557 45.0051 61.6039 45.0787C61.5781 44.5888 61.5807 44.264 61.5807 44.2459C61.5807 44.2279 61.6271 40.2988 65.6876 40.2988C67.0231 40.2988 68.0724 40.683 68.8072 41.4409C69.4939 42.2094 69.8714 43.2051 69.8668 44.2356C69.8668 44.4058 69.8668 44.7074 69.8462 45.0838C70.0999 45.0035 70.3738 45.0154 70.6196 45.1173C70.978 45.254 71.1765 45.6562 71.1352 46.1692C71.0837 46.8112 70.6608 47.5356 69.9467 47.6826C69.7932 47.7094 69.6357 47.7024 69.4852 47.662C69.3866 48.0652 69.2431 48.4561 69.0572 48.8273C68.7605 49.4378 68.2975 49.9524 67.7216 50.3117C67.1456 50.6711 66.48 50.8607 65.8011 50.8588L65.6722 50.8614ZM62.1633 47.0406C62.2226 47.039 62.2806 47.0579 62.3275 47.0941C62.3745 47.1302 62.4075 47.1815 62.4212 47.2391C62.5143 47.6614 62.6579 48.0708 62.8491 48.4586C63.5684 49.8379 64.4244 50.3896 65.8088 50.3458C66.396 50.3523 66.9729 50.1907 67.4713 49.8801C67.9696 49.5694 68.3688 49.1227 68.6216 48.5927C68.8314 48.1648 68.9847 47.7116 69.0779 47.2443C69.0873 47.2028 69.1069 47.1642 69.1348 47.1321C69.1628 47.1 69.1983 47.0753 69.2381 47.0602C69.2779 47.0451 69.3209 47.0402 69.3631 47.0457C69.4053 47.0513 69.4455 47.0673 69.4801 47.0922C69.5938 47.1679 69.7315 47.1991 69.8668 47.1798C70.3231 47.0845 70.6067 46.5688 70.6402 46.1305C70.6557 45.9243 70.617 45.6639 70.4546 45.602C70.3413 45.5433 70.2109 45.5269 70.0866 45.5557C69.9623 45.5845 69.8524 45.6567 69.7765 45.7593C69.7443 45.8061 69.6975 45.8409 69.6434 45.8584C69.5894 45.8758 69.5311 45.8749 69.4776 45.8558C69.424 45.8367 69.3784 45.8004 69.3476 45.7527C69.3168 45.7049 69.3026 45.6483 69.3073 45.5917C69.3563 44.9859 69.364 44.4805 69.364 44.2305C69.364 44.2073 69.395 42.7841 68.4333 41.7941C67.8017 41.1445 66.8865 40.8145 65.6876 40.8145C62.1479 40.8145 62.0963 44.1093 62.0963 44.2511C62.0963 44.2511 62.0963 44.8157 62.153 45.5556C62.1578 45.6105 62.1449 45.6655 62.1161 45.7124C62.0874 45.7594 62.0443 45.796 61.9933 45.8167C61.9423 45.8375 61.886 45.8414 61.8326 45.8278C61.7792 45.8142 61.7316 45.7839 61.6967 45.7413C61.6185 45.6462 61.5103 45.5806 61.3899 45.5553C61.2694 45.53 61.1439 45.5465 61.0341 45.602C60.8717 45.6639 60.833 45.9243 60.8485 46.1177C60.8846 46.5559 61.1682 47.0716 61.6219 47.167C61.7564 47.1858 61.8931 47.1546 62.0061 47.0793C62.053 47.0498 62.1081 47.0363 62.1633 47.0406Z" fill="black"/>
<path d="M58.6832 63.355H54.0065C53.4171 63.355 52.8519 63.5891 52.4351 64.0059C52.0183 64.4227 51.7842 64.9879 51.7842 65.5773C51.7842 65.8692 51.8417 66.1581 51.9533 66.4278C52.065 66.6974 52.2287 66.9424 52.4351 67.1488C52.6415 67.3551 52.8864 67.5188 53.1561 67.6305C53.4257 67.7422 53.7147 67.7997 54.0065 67.7997H59.5057L58.6832 63.355Z" fill="#FBBF9A"/>
<path d="M59.5082 68.0624H54.0065C53.3487 68.0624 52.7179 67.8011 52.2528 67.336C51.7877 66.8709 51.5264 66.24 51.5264 65.5822C51.5264 64.9245 51.7877 64.2936 52.2528 63.8285C52.7179 63.3634 53.3487 63.1021 54.0065 63.1021H58.6832C58.7443 63.1011 58.8037 63.1218 58.8509 63.1605C58.8981 63.1992 58.9301 63.2534 58.9411 63.3135L59.7661 67.7582C59.7729 67.7957 59.7714 67.8343 59.7615 67.8711C59.7517 67.908 59.7338 67.9422 59.7091 67.9713C59.6845 68.0004 59.6537 68.0237 59.6189 68.0394C59.5842 68.0552 59.5464 68.063 59.5082 68.0624ZM54.0091 63.6177C53.4881 63.6177 52.9884 63.8247 52.62 64.1931C52.2515 64.5615 52.0446 65.0612 52.0446 65.5822C52.0446 66.1033 52.2515 66.603 52.62 66.9714C52.9884 67.3398 53.4881 67.5468 54.0091 67.5468H59.1989L58.4693 63.6177H54.0091Z" fill="black"/>
<path d="M73.3162 63.355H77.9929C78.5823 63.355 79.1476 63.5891 79.5644 64.0059C79.9811 64.4227 80.2153 64.9879 80.2153 65.5773C80.2153 65.8692 80.1578 66.1581 80.0461 66.4278C79.9344 66.6974 79.7707 66.9424 79.5644 67.1488C79.358 67.3551 79.113 67.5188 78.8434 67.6305C78.5737 67.7422 78.2848 67.7997 77.9929 67.7997H72.4912L73.3162 63.355Z" fill="#FBBF9A"/>
<path d="M77.9932 68.0624H72.4915C72.4534 68.063 72.4156 68.0552 72.3808 68.0394C72.3461 68.0237 72.3153 68.0004 72.2906 67.9713C72.266 67.9422 72.2481 67.908 72.2382 67.8711C72.2284 67.8343 72.2268 67.7957 72.2337 67.7582L73.0587 63.3135C73.0697 63.2534 73.1016 63.1992 73.1488 63.1605C73.1961 63.1218 73.2555 63.1011 73.3165 63.1021H77.9932C78.651 63.1021 79.2819 63.3634 79.747 63.8285C80.2121 64.2936 80.4734 64.9245 80.4734 65.5822C80.4734 66.24 80.2121 66.8709 79.747 67.336C79.2819 67.8011 78.651 68.0624 77.9932 68.0624ZM72.8035 67.5468H77.9932C78.5143 67.5468 79.014 67.3398 79.3824 66.9714C79.7508 66.603 79.9578 66.1033 79.9578 65.5822C79.9578 65.0612 79.7508 64.5615 79.3824 64.1931C79.014 63.8247 78.5143 63.6177 77.9932 63.6177H73.5331L72.8035 67.5468Z" fill="black"/>
<path d="M67.8305 40.9048C67.7371 41.6315 67.8894 42.3685 68.2631 42.9987C68.6369 43.6289 69.2105 44.116 69.893 44.3827C69.893 44.3827 69.7873 41.5854 67.8305 40.9048Z" fill="black"/>
<path d="M69.8904 44.643C69.855 44.6433 69.8199 44.6362 69.7873 44.6223C69.0555 44.3278 68.4419 43.7993 68.0422 43.1193C67.6425 42.4393 67.4792 41.646 67.5778 40.8634C67.5844 40.8268 67.5988 40.792 67.62 40.7614C67.6413 40.7309 67.6689 40.7053 67.701 40.6864C67.7331 40.6676 67.7689 40.6559 67.8059 40.6522C67.843 40.6485 67.8804 40.6528 67.9156 40.6649C70.0142 41.3945 70.1431 44.2563 70.1482 44.3774C70.1482 44.4458 70.1211 44.5114 70.0727 44.5597C70.0244 44.6081 69.9588 44.6352 69.8904 44.6352V44.643ZM68.0599 41.2914C68.0479 41.8302 68.1833 42.362 68.4513 42.8295C68.7194 43.297 69.11 43.6825 69.581 43.9443C69.4702 43.225 69.1247 41.8612 68.0625 41.2862L68.0599 41.2914Z" fill="black"/>
<path d="M68.3872 41.2034C68.3872 41.2034 68.016 43.5908 64.7778 43.0571C62.2513 42.642 61.4804 44.573 61.4804 44.573C61.4804 44.573 61.0318 40.9843 65.1104 40.2495C65.1053 40.2521 67.191 40.2418 68.3872 41.2034Z" fill="black"/>
<path d="M61.4783 44.8336H61.4448C61.3883 44.826 61.3358 44.7999 61.2957 44.7593C61.2555 44.7187 61.23 44.6659 61.2231 44.6093C61.0581 43.2841 61.6459 40.6158 65.0619 40.0022C65.0791 39.9999 65.0964 39.9999 65.1135 40.0022C65.2811 40.0022 67.323 40.0228 68.5501 41.0102C68.5852 41.0386 68.6123 41.0756 68.6286 41.1177C68.6449 41.1598 68.6498 41.2054 68.643 41.25C68.5089 41.8886 68.1411 42.4541 67.6117 42.8355C66.8976 43.3512 65.9256 43.5136 64.7242 43.3176C62.4426 42.9438 61.7387 44.6067 61.7078 44.6763C61.6886 44.7217 61.6568 44.7607 61.6161 44.7885C61.5754 44.8164 61.5276 44.832 61.4783 44.8336ZM65.129 40.5126C62.507 40.9947 61.8805 42.6937 61.749 43.7276C62.2647 43.1681 63.2237 42.5468 64.8144 42.8072C65.874 42.9799 66.7171 42.8484 67.3152 42.4153C67.6857 42.1409 67.9571 41.7537 68.0887 41.3119C67.0316 40.559 65.3378 40.5126 65.129 40.5101V40.5126Z" fill="black"/>
<path d="M73.3609 68.0624H58.6398C58.4428 68.0627 58.2527 67.9899 58.1064 67.8579C57.9601 67.7259 57.8681 67.5443 57.8483 67.3482L56.7603 56.7186C56.7481 56.5992 56.761 56.4785 56.7983 56.3643C56.8356 56.2502 56.8964 56.1452 56.9768 56.056C57.0573 55.9668 57.1555 55.8955 57.2652 55.8467C57.3749 55.7978 57.4936 55.7726 57.6137 55.7725H74.3844C74.5045 55.7726 74.6232 55.7978 74.7329 55.8467C74.8426 55.8955 74.9409 55.9668 75.0213 56.056C75.1017 56.1452 75.1625 56.2502 75.1998 56.3643C75.2371 56.4785 75.25 56.5992 75.2378 56.7186L74.1498 67.3508C74.1294 67.5459 74.0375 67.7266 73.8919 67.858C73.7462 67.9894 73.5571 68.0622 73.3609 68.0624Z" fill="#D9DDDD"/>
<path d="M74.1521 67.3408L74.9823 59.2248C74.9881 59.1685 74.982 59.1116 74.9644 59.0578C74.9468 59.004 74.9181 58.9545 74.8802 58.9125C74.8423 58.8705 74.7961 58.8369 74.7444 58.8138C74.6927 58.7908 74.6367 58.7789 74.5801 58.7788C74.4804 58.7789 74.3842 58.8157 74.31 58.8823C74.2357 58.9489 74.1887 59.0406 74.1779 59.1397L73.6133 64.3192C73.5388 65.0264 73.2053 65.6811 72.6769 66.1571C72.1486 66.6331 71.4628 66.8968 70.7516 66.8973H61.986C61.8314 66.8973 61.6832 66.9587 61.574 67.068C61.4647 67.1772 61.4033 67.3254 61.4033 67.48C61.4033 67.6345 61.4647 67.7827 61.574 67.892C61.6832 68.0012 61.8314 68.0626 61.986 68.0626H73.3658C73.5632 68.0615 73.753 67.987 73.8984 67.8535C74.0437 67.7201 74.1342 67.5373 74.1521 67.3408Z" fill="#C9C9C9"/>
<path d="M73.3606 68.3203H58.6395C58.3786 68.3209 58.1269 68.2244 57.9334 68.0494C57.7398 67.8745 57.6184 67.6338 57.5928 67.3741L56.5048 56.742C56.4889 56.5868 56.5058 56.43 56.5543 56.2817C56.6027 56.1334 56.6817 55.9969 56.7862 55.8811C56.8907 55.7652 57.0182 55.6725 57.1607 55.609C57.3032 55.5454 57.4574 55.5125 57.6134 55.5122H74.3841C74.5401 55.5125 74.6943 55.5454 74.8368 55.609C74.9793 55.6725 75.1068 55.7652 75.2113 55.8811C75.3157 55.9969 75.3948 56.1334 75.4432 56.2817C75.4917 56.43 75.5085 56.5868 75.4927 56.742L74.4047 67.3741C74.3791 67.6333 74.2581 67.8737 74.0651 68.0486C73.8721 68.2234 73.621 68.3203 73.3606 68.3203ZM57.6134 56.0304C57.5295 56.0304 57.4465 56.0479 57.3698 56.0819C57.293 56.1159 57.2243 56.1655 57.1679 56.2277C57.1116 56.2899 57.0689 56.3632 57.0426 56.4429C57.0163 56.5226 57.007 56.6069 57.0153 56.6904L58.1032 67.3226C58.1167 67.4548 58.1787 67.5773 58.2773 67.6664C58.3759 67.7554 58.504 67.8047 58.6369 67.8047H73.358C73.491 67.8053 73.6195 67.7562 73.7182 67.667C73.817 67.5779 73.8788 67.455 73.8917 67.3226L74.9796 56.6904C74.9879 56.6071 74.9787 56.523 74.9525 56.4435C74.9264 56.364 74.8839 56.2908 74.8279 56.2287C74.7718 56.1665 74.7033 56.1168 74.6269 56.0827C74.5505 56.0485 74.4678 56.0307 74.3841 56.0304H57.6134Z" fill="black"/>
<path d="M65.9999 63.177C66.7004 63.177 67.2683 62.6091 67.2683 61.9086C67.2683 61.208 66.7004 60.6401 65.9999 60.6401C65.2993 60.6401 64.7314 61.208 64.7314 61.9086C64.7314 62.6091 65.2993 63.177 65.9999 63.177Z" fill="white"/>
<path d="M65.8251 99.817H61.8058L55.1362 78.1324C55.0238 77.6413 55.0236 77.1311 55.1356 76.6399C55.2476 76.1487 55.4688 75.689 55.783 75.2951C56.0971 74.9012 56.496 74.5832 56.95 74.3647C57.404 74.1462 57.9014 74.0329 58.4053 74.0332C59.2046 74.0335 59.9774 74.3195 60.5844 74.8395C61.1914 75.3595 61.5926 76.0794 61.7156 76.8691L65.8251 99.817Z" fill="#3C4068"/>
<path d="M65.8247 100.075H61.8054C61.7482 100.078 61.6919 100.061 61.6452 100.028C61.5985 99.9946 61.5642 99.9468 61.5476 99.892L54.8883 78.21C54.782 77.739 54.7713 77.2514 54.8569 76.7762C54.9424 76.3009 55.1224 75.8477 55.3863 75.4433C55.6501 75.0389 55.9925 74.6915 56.393 74.4218C56.7935 74.1521 57.244 73.9654 57.7179 73.873C58.1919 73.7805 58.6795 73.784 59.1521 73.8834C59.6246 73.9828 60.0724 74.176 60.4689 74.4516C60.8654 74.7271 61.2026 75.0794 61.4606 75.4876C61.7185 75.8959 61.8918 76.3517 61.9704 76.8281L66.0774 99.7734C66.0843 99.811 66.0827 99.8495 66.0729 99.8864C66.063 99.9233 66.0451 99.9575 66.0205 99.9866C65.9958 100.016 65.965 100.039 65.9303 100.055C65.8955 100.07 65.8577 100.078 65.8196 100.078L65.8247 100.075ZM61.9962 99.5595H65.5179L61.4625 76.908C61.394 76.5014 61.2449 76.1126 61.0239 75.7644C60.8029 75.4163 60.5146 75.1158 60.1758 74.8807C59.837 74.6455 59.4547 74.4805 59.0512 74.3953C58.6478 74.3101 58.2313 74.3064 57.8264 74.3844C57.4215 74.4624 57.0363 74.6206 56.6934 74.8497C56.3505 75.0787 56.0568 75.374 55.8297 75.7182C55.6026 76.0623 55.4465 76.4484 55.3708 76.8538C55.295 77.2591 55.301 77.6755 55.3885 78.0785L61.9962 99.5595Z" fill="black"/>
<path d="M64.1435 98.4224C64.9907 98.4224 65.8032 98.7589 66.4022 99.358C67.0013 99.957 67.3378 100.769 67.3378 101.617V102.132H60.9492V101.617C60.9492 100.769 61.2858 99.957 61.8848 99.358C62.4839 98.7589 63.2963 98.4224 64.1435 98.4224Z" fill="black"/>
<path d="M61.7384 100.284L60.2715 96.445L65.4174 94.9136L66.1934 100.444" fill="black"/>
<path d="M66.1748 99.817H70.1941L76.8637 78.1324C76.9761 77.6413 76.9763 77.1311 76.8644 76.6399C76.7524 76.1487 76.5311 75.689 76.217 75.2951C75.9028 74.9012 75.5039 74.5832 75.0499 74.3647C74.5959 74.1462 74.0985 74.0329 73.5947 74.0332C72.7954 74.0335 72.0225 74.3195 71.4155 74.8395C70.8085 75.3595 70.4073 76.0794 70.2843 76.8691L66.1748 99.817Z" fill="#3C4068"/>
<path d="M70.1944 100.075H66.1751C66.137 100.076 66.0992 100.068 66.0644 100.052C66.0297 100.036 65.9989 100.013 65.9742 99.9841C65.9496 99.955 65.9317 99.9208 65.9218 99.8839C65.912 99.847 65.9104 99.8085 65.9173 99.7709L70.0268 76.8256C70.1072 76.3512 70.2817 75.8977 70.5399 75.4916C70.7982 75.0856 71.135 74.7353 71.5306 74.4614C71.9262 74.1874 72.3726 73.9953 72.8435 73.8964C73.3144 73.7975 73.8004 73.7937 74.2727 73.8854C74.7451 73.977 75.1944 74.1622 75.5942 74.43C75.994 74.6978 76.3362 75.0428 76.6007 75.4448C76.8652 75.8467 77.0466 76.2976 77.1344 76.7707C77.2221 77.2438 77.2143 77.7297 77.1115 78.1998L70.4368 99.9024C70.4192 99.9527 70.3864 99.9964 70.343 100.027C70.2996 100.058 70.2477 100.075 70.1944 100.075ZM66.4845 99.5595H70.0062L76.6191 78.058C76.7723 77.2518 76.5989 76.4179 76.1372 75.7395C75.6754 75.0612 74.9631 74.594 74.157 74.4409C73.3508 74.2877 72.5169 74.4611 71.8385 74.9228C71.1602 75.3845 70.693 76.0968 70.5399 76.903L66.4845 99.5595Z" fill="black"/>
<path d="M71.0508 102.143H64.6596V101.627C64.6596 100.78 64.9962 99.9673 65.5952 99.3682C66.1942 98.7692 67.0067 98.4327 67.8539 98.4327C68.7011 98.4327 69.5136 98.7692 70.1126 99.3682C70.7117 99.9673 71.0482 100.78 71.0482 101.627V102.143H71.0508Z" fill="black"/>
<path d="M70.2591 100.284L71.7286 96.445L66.5827 94.9136L65.8066 100.444" fill="black"/>
</svg>
