<svg width="18" height="20" viewBox="0 0 18 20" fill="none" xmlns="http://www.w3.org/2000/svg">
<path d="M15.134 9.1665H3.44864C2.52669 9.1665 1.7793 9.9127 1.7793 10.8332V16.6665C1.7793 17.587 2.52669 18.3332 3.44864 18.3332H15.134C16.056 18.3332 16.8034 17.587 16.8034 16.6665V10.8332C16.8034 9.9127 16.056 9.1665 15.134 9.1665Z" stroke="#11493E" stroke-linecap="round" stroke-linejoin="round"/>
<path d="M5.11914 9.1665V5.83317C5.11914 4.7281 5.55883 3.66829 6.34149 2.88689C7.12414 2.10549 8.18565 1.6665 9.2925 1.6665C10.3993 1.6665 11.4608 2.10549 12.2435 2.88689C13.0262 3.66829 13.4659 4.7281 13.4659 5.83317V9.1665" stroke="#11493E" stroke-linecap="round" stroke-linejoin="round"/>
</svg>
