<svg width="6" height="16" viewBox="0 0 6 16" fill="none" xmlns="http://www.w3.org/2000/svg">
<path d="M2.99954 4.26667C4.17581 4.26667 5.13288 3.3096 5.13288 2.13333C5.13288 0.957067 4.17581 0 2.99954 0C1.82328 0 0.866211 0.957067 0.866211 2.13333C0.866211 3.3096 1.82328 4.26667 2.99954 4.26667Z" fill="#347474"/>
<path d="M2.99954 11.7334C1.82328 11.7334 0.866211 12.6905 0.866211 13.8667C0.866211 15.043 1.82328 16.0001 2.99954 16.0001C4.17581 16.0001 5.13288 15.043 5.13288 13.8667C5.13288 12.6905 4.17581 11.7334 2.99954 11.7334Z" fill="#347474"/>
<path d="M2.99954 5.86621C1.82328 5.86621 0.866211 6.82328 0.866211 7.99954C0.866211 9.17581 1.82328 10.1329 2.99954 10.1329C4.17581 10.1329 5.13288 9.17581 5.13288 7.99954C5.13288 6.82328 4.17581 5.86621 2.99954 5.86621Z" fill="#347474"/>
</svg>
