<svg width="16" height="16" viewBox="0 0 16 16" fill="none" xmlns="http://www.w3.org/2000/svg">
<path fill-rule="evenodd" clip-rule="evenodd" d="M10.5287 0.666992C10.8047 0.666992 11.0287 0.890992 11.0287 1.16699L11.029 1.7322C12.0024 1.79894 12.8108 2.13236 13.383 2.70573C14.0077 3.33306 14.3363 4.23506 14.333 5.31706V11.3991C14.333 13.6204 12.9223 15.0004 10.6523 15.0004H5.01367C2.74367 15.0004 1.33301 13.6011 1.33301 11.3484V5.31573C1.33301 3.22052 2.59104 1.87562 4.6428 1.73243L4.64321 1.16699C4.64321 0.890992 4.86721 0.666992 5.14321 0.666992C5.41921 0.666992 5.64321 0.890992 5.64321 1.16699L5.64301 1.71966H10.0283L10.0287 1.16699C10.0287 0.890992 10.2527 0.666992 10.5287 0.666992ZM13.333 6.60299H2.33301V11.3484C2.33301 13.0591 3.28501 14.0004 5.01367 14.0004H10.6523C12.381 14.0004 13.333 13.0764 13.333 11.3991L13.333 6.60299ZM10.8005 10.7979C11.0765 10.7979 11.3005 11.0219 11.3005 11.2979C11.3005 11.5739 11.0765 11.7979 10.8005 11.7979C10.5245 11.7979 10.2978 11.5739 10.2978 11.2979C10.2978 11.0219 10.5185 10.7979 10.7945 10.7979H10.8005ZM7.84214 10.7979C8.11814 10.7979 8.34214 11.0219 8.34214 11.2979C8.34214 11.5739 8.11814 11.7979 7.84214 11.7979C7.56614 11.7979 7.33947 11.5739 7.33947 11.2979C7.33947 11.0219 7.56014 10.7979 7.83614 10.7979H7.84214ZM4.87761 10.7979C5.15361 10.7979 5.37761 11.0219 5.37761 11.2979C5.37761 11.5739 5.15361 11.7979 4.87761 11.7979C4.60161 11.7979 4.37427 11.5739 4.37427 11.2979C4.37427 11.0219 4.59561 10.7979 4.87161 10.7979H4.87761ZM10.8005 8.20673C11.0765 8.20673 11.3005 8.43073 11.3005 8.70673C11.3005 8.98273 11.0765 9.20673 10.8005 9.20673C10.5245 9.20673 10.2978 8.98273 10.2978 8.70673C10.2978 8.43073 10.5185 8.20673 10.7945 8.20673H10.8005ZM7.84214 8.20673C8.11814 8.20673 8.34214 8.43073 8.34214 8.70673C8.34214 8.98273 8.11814 9.20673 7.84214 9.20673C7.56614 9.20673 7.33947 8.98273 7.33947 8.70673C7.33947 8.43073 7.56014 8.20673 7.83614 8.20673H7.84214ZM4.87761 8.20673C5.15361 8.20673 5.37761 8.43073 5.37761 8.70673C5.37761 8.98273 5.15361 9.20673 4.87761 9.20673C4.60161 9.20673 4.37427 8.98273 4.37427 8.70673C4.37427 8.43073 4.59561 8.20673 4.87161 8.20673H4.87761ZM10.0283 2.71966H5.64301L5.64321 3.36099C5.64321 3.63699 5.41921 3.86099 5.14321 3.86099C4.86721 3.86099 4.64321 3.63699 4.64321 3.36099L4.64285 2.73479C3.14937 2.86025 2.33301 3.76556 2.33301 5.31573V5.60299H13.333L13.333 5.31573C13.3357 4.49239 13.1143 3.85239 12.675 3.41239C12.2894 3.0256 11.7256 2.79459 11.0292 2.73511L11.0287 3.36099C11.0287 3.63699 10.8047 3.86099 10.5287 3.86099C10.2527 3.86099 10.0287 3.63699 10.0287 3.36099L10.0283 2.71966Z" fill="#347474"/>
</svg>
