<svg width="10" height="14" viewBox="0 0 10 14" fill="none" xmlns="http://www.w3.org/2000/svg">
<g clip-path="url(#clip0_1647_4527)">
<path d="M8.81973 6.49717L8.8196 6.49712L8.82465 6.48662C9.09593 5.92277 9.2334 5.31927 9.2334 4.68885C9.2334 2.38404 7.33816 0.5 4.99947 0.5C2.66077 0.5 0.765546 2.38404 0.765655 4.68882V4.68885C0.765655 5.32128 0.903934 5.92661 1.17702 6.49208L1.17712 6.49203L1.1816 6.50182C1.18429 6.50772 1.18612 6.5114 1.18729 6.51365L1.18756 6.51415L4.76331 13.3716L4.76335 13.3717C4.80761 13.4566 4.89789 13.5127 4.99953 13.5127C5.10098 13.5127 5.19137 13.4566 5.23574 13.3716C5.23575 13.3716 5.23576 13.3716 5.23577 13.3716L8.81155 6.51406C8.81167 6.51382 8.81179 6.51359 8.81191 6.51335C8.81469 6.50793 8.81726 6.50262 8.81973 6.49717Z" stroke="#347474"/>
<circle cx="5" cy="5" r="1.5" stroke="#347474"/>
</g>
<defs>
<clipPath id="clip0_1647_4527">
<rect width="10" height="14" fill="white" transform="matrix(-1 0 0 1 10 0)"/>
</clipPath>
</defs>
</svg>
