<svg width="355" height="417" viewBox="0 0 355 417" fill="none" xmlns="http://www.w3.org/2000/svg">
<circle cx="177.5" cy="201.544" r="177.5" fill="url(#paint0_linear_1760_11314)"/>
<path fill-rule="evenodd" clip-rule="evenodd" d="M26.4704 401.574C26.4704 409.595 93.5446 416.098 176.286 416.098C259.028 416.098 326.103 409.595 326.103 401.574C326.103 393.554 259.028 387.052 176.286 387.052C93.5446 387.052 26.4704 393.554 26.4704 401.574Z" fill="#4B5D61" fill-opacity="0.1"/>
<path fill-rule="evenodd" clip-rule="evenodd" d="M178.314 364.889H168.707V353.836H188.389L178.314 364.889Z" fill="#F3F2EF"/>
<path fill-rule="evenodd" clip-rule="evenodd" d="M134.477 399.269H157.816L179.021 332.531C183.125 319.618 194.974 310.948 208.518 310.948H224.914C238.444 310.948 250.305 319.618 254.396 332.531L275.614 399.269H298.939L277.329 331.257C272.678 316.592 259.219 306.746 243.841 306.746H189.591C174.212 306.746 160.753 316.592 156.089 331.257L134.477 399.269Z" fill="#426AA5"/>
<path d="M134.477 399.269L150.351 349.314L134.477 399.269ZM138.889 399.269H157.816L167.742 368.031L161.791 349.314H154.762L138.889 399.269ZM280.013 399.269H298.939L296.71 392.25L293.845 389.821L293.84 389.826L289.083 385.788L286.244 390.106C286.244 390.106 281.417 386.626 274.356 381.469L280.013 399.269ZM287.823 364.286L283.066 349.314H271.929C278.019 354.775 283.528 360.051 287.823 364.286ZM259.689 335.308H278.615L277.329 331.257C272.678 316.592 259.219 306.746 243.841 306.746H236.799C239.835 308.223 242.661 310.454 245.282 313.214C251.344 317.521 256.024 323.759 258.402 331.257L259.689 335.308Z" fill="url(#paint1_linear_1760_11314)"/>
<path d="M134.477 399.269L150.351 349.314L134.477 399.269ZM138.889 399.269H157.816L167.742 368.031L161.791 349.314H154.762L138.889 399.269ZM280.013 399.269H298.939L296.71 392.25L293.845 389.821L293.84 389.826L289.083 385.788L286.244 390.106C286.244 390.106 281.417 386.626 274.356 381.469L280.013 399.269ZM287.823 364.286L283.066 349.314H271.929C278.019 354.775 283.528 360.051 287.823 364.286ZM259.689 335.308H278.615L277.329 331.257C272.678 316.592 259.219 306.746 243.841 306.746H236.799C239.835 308.223 242.661 310.454 245.282 313.214C251.344 317.521 256.024 323.759 258.402 331.257L259.689 335.308Z" fill="#807563"/>
<path fill-rule="evenodd" clip-rule="evenodd" d="M134.477 399.269H138.889L160.094 332.531C164.198 319.618 176.047 310.948 189.591 310.948H224.914C238.444 310.948 250.305 319.618 254.396 332.531L275.614 399.269H280.013L258.402 331.257C253.752 316.592 240.293 306.746 224.914 306.746H189.591C174.212 306.746 160.753 316.592 156.089 331.257L134.477 399.269Z" fill="#514846"/>
<path fill-rule="evenodd" clip-rule="evenodd" d="M29.9073 215.751C31.1948 213.738 33.4179 212.522 35.8067 212.522H129.973C132.704 212.522 135.185 214.11 136.33 216.588L191.098 335.307H279.983C283.852 335.307 286.986 338.442 286.986 342.31C286.986 346.177 283.852 349.313 279.983 349.313H92.452C89.7203 349.313 87.2395 347.725 86.095 345.246L29.4497 222.462C28.4472 220.293 28.6198 217.763 29.9073 215.751Z" fill="#B6A68E"/>
<path fill-rule="evenodd" clip-rule="evenodd" d="M92.4522 349.313H161.791L158.173 337.933C148.478 337.647 139.932 337.02 132.801 335.307H96.9347L89.5024 319.197C85.6887 322.745 82.7458 327.288 81.0802 332.53L80.7328 333.623L86.094 345.244C87.226 347.698 89.6693 349.28 92.3681 349.312C92.3954 349.312 92.4238 349.313 92.4522 349.313Z" fill="#514846"/>
<path fill-rule="evenodd" clip-rule="evenodd" d="M185.124 349.312H197.771C201.638 349.312 204.774 346.176 204.774 342.309C204.774 341.167 204.501 340.089 204.016 339.137C196.225 338.652 188.737 338.441 181.632 338.317L185.124 349.312Z" fill="#30181C" stroke="#232021" stroke-width="0.6024" stroke-linecap="round" stroke-linejoin="round"/>
<path fill-rule="evenodd" clip-rule="evenodd" d="M54.3936 276.529L29.4504 222.461C29.019 221.529 28.8055 220.531 28.8044 219.536C28.8032 218.894 28.8906 218.254 29.0643 217.633C28.6295 219.18 28.7226 220.884 29.4481 222.458L54.3936 276.529ZM29.3879 216.725C29.5333 216.391 29.707 216.065 29.9079 215.751C31.1955 213.738 33.4186 212.522 35.8074 212.522H35.9834C35.9232 212.52 35.863 212.52 35.8028 212.52C34.8207 212.52 33.8239 212.727 32.8736 213.165C31.25 213.914 30.0487 215.206 29.3879 216.725Z" fill="#8CAACE"/>
<path d="M71.3083 313.193C75.1141 310.497 79.4638 308.559 84.1279 307.548L42.1654 216.591C41.0107 214.088 38.5651 212.589 35.9832 212.522H35.8073C33.4184 212.522 31.1953 213.738 29.9078 215.751C29.7068 216.065 29.5331 216.391 29.3878 216.726C29.3867 216.728 29.3855 216.729 29.3855 216.73C29.3844 216.734 29.3833 216.736 29.3821 216.738C29.2584 217.023 29.1539 217.317 29.0687 217.616C29.0676 217.619 29.0665 217.624 29.0654 217.627C29.0654 217.629 29.0642 217.632 29.0642 217.633C28.8905 218.254 28.8031 218.894 28.8042 219.536C28.8054 220.531 29.0188 221.529 29.4503 222.462L71.3083 313.193Z" fill="url(#paint2_linear_1760_11314)"/>
<path d="M71.3083 313.193C75.1141 310.497 79.4638 308.559 84.1279 307.548L42.1654 216.591C41.0107 214.088 38.5651 212.589 35.9832 212.522H35.8073C33.4184 212.522 31.1953 213.738 29.9078 215.751C29.7068 216.065 29.5331 216.391 29.3878 216.726C29.3867 216.728 29.3855 216.729 29.3855 216.73C29.3844 216.734 29.3833 216.736 29.3821 216.738C29.2584 217.023 29.1539 217.317 29.0687 217.616C29.0676 217.619 29.0665 217.624 29.0654 217.627C29.0654 217.629 29.0642 217.632 29.0642 217.633C28.8905 218.254 28.8031 218.894 28.8042 219.536C28.8054 220.531 29.0188 221.529 29.4503 222.462L71.3083 313.193Z" fill="#514846"/>
<path fill-rule="evenodd" clip-rule="evenodd" d="M130.797 231.762L132.152 232.244C133.052 232.559 133.953 232.826 134.853 233.11C136.658 233.652 138.476 234.133 140.327 234.553C144.025 235.384 147.821 236.031 151.813 236.259C155.802 236.489 159.996 236.403 164.509 235.292L165.353 235.08L165.774 234.972L165.984 234.918C166.048 234.902 166.109 234.887 166.295 234.826C167.524 234.451 168.714 233.848 169.773 233.083C171.894 231.536 173.429 229.318 174.119 226.887C174.841 224.468 174.721 221.786 173.839 219.467C173.706 219.098 173.682 219.082 173.625 218.953L173.469 218.62L173.155 217.954L172.526 216.624C170.811 213.142 168.877 209.923 166.802 206.903C164.759 203.848 162.535 200.988 160.266 198.207C157.977 195.436 155.607 192.77 153.136 190.206C150.647 187.636 148.162 185.18 145.386 182.79L139.228 188.31C142.877 193.95 146.627 199.7 149.987 205.45C150.851 206.881 151.659 208.326 152.482 209.763C153.246 211.219 154.073 212.652 154.796 214.096C155.756 215.908 156.621 217.734 157.407 219.541C157.87 220.604 158.52 220.01 157.091 220.001C155.822 219.993 154.484 219.913 153.126 219.771C150.23 219.445 147.2 218.896 144.172 218.157C142.653 217.813 141.141 217.37 139.626 216.957L137.379 216.28L136.277 215.939L135.297 215.616L129.339 231.214L130.797 231.762Z" fill="url(#paint3_linear_1760_11314)"/>
<path fill-rule="evenodd" clip-rule="evenodd" d="M156.948 220.675C157.498 224.075 157.498 230.178 156.948 238.984C156.948 238.984 104.383 238.935 113.982 220.675C116.401 212.04 156.124 215.574 156.948 220.675Z" fill="url(#paint4_linear_1760_11314)"/>
<path fill-rule="evenodd" clip-rule="evenodd" d="M149.619 240.512C149.618 240.509 149.617 240.508 149.617 240.506C149.038 240.474 148.249 240.425 147.293 240.352V240.353C148.251 240.426 149.041 240.478 149.619 240.512Z" fill="#C9C8C3"/>
<path fill-rule="evenodd" clip-rule="evenodd" d="M147.293 240.352V240.351C147.17 240.342 147.044 240.332 146.916 240.322C147.044 240.333 147.17 240.342 147.293 240.352Z" fill="#718FBC"/>
<path fill-rule="evenodd" clip-rule="evenodd" d="M259.625 397.69L271.154 393.207L264.717 364.511L253.187 368.996L259.625 397.69Z" fill="#F1BFBB"/>
<path fill-rule="evenodd" clip-rule="evenodd" d="M269.2 388.05L257.929 388.259C257.446 388.266 257.045 388.645 256.964 389.171L255.163 400.882C254.976 402.097 255.885 403.23 256.999 403.193C261.63 403.037 263.757 402.686 269.595 402.602C273.186 402.55 284.036 402.808 288.996 402.736C293.848 402.666 294.355 397.202 292.301 396.738C283.095 394.656 274.202 391.701 271.154 388.83C270.604 388.312 269.906 388.04 269.2 388.05Z" fill="#FBBF9A"/>
<path fill-rule="evenodd" clip-rule="evenodd" d="M169.051 297.674C169.051 297.674 194.589 297.541 232.045 305.115C257.994 310.362 270.615 371.274 270.615 371.274L252.077 377.887C252.077 377.887 239.623 336.498 227.666 327.474C212.692 327.402 199.522 328.418 188.049 329.435C151.859 332.643 132.543 335.85 126.69 304.853C136.98 300.704 169.051 297.674 169.051 297.674Z" fill="#64A393"/>
<path fill-rule="evenodd" clip-rule="evenodd" d="M274.443 374.755L249.494 379.97L247.504 371.733L273.527 365.766L274.443 374.755Z" fill="#71B6A4"/>
<path fill-rule="evenodd" clip-rule="evenodd" d="M140.982 177.584L136.031 175.299C131.703 174.497 125.648 172.165 124.25 173.537C123.751 174.027 124.487 175.944 126.457 179.29L130.746 184.349C130.746 184.349 137.049 192.32 144.299 189.828L146.815 184.006L140.982 177.584Z" fill="url(#paint5_linear_1760_11314)"/>
<path fill-rule="evenodd" clip-rule="evenodd" d="M129.297 195.813L139.62 187.493C140.074 187.127 140.115 186.486 139.711 186.063L121.872 167.348C121.468 166.924 120.773 166.877 120.319 167.244L109.997 175.563C109.542 175.929 109.502 176.57 109.905 176.994L127.744 195.709C128.148 196.132 128.843 196.18 129.297 195.813Z" fill="#1A282B"/>
<path fill-rule="evenodd" clip-rule="evenodd" d="M109.305 307.799C109.305 307.799 90.4631 280.05 81.2961 235.334C79.1366 224.801 86.965 214.875 97.7023 214.311C106.751 213.835 116.376 213.715 124.159 213.746C131.973 213.777 138.831 218.96 140.976 226.474C145.713 243.076 153.863 267.647 169.051 297.674L109.305 307.799Z" fill="url(#paint6_linear_1760_11314)"/>
<path fill-rule="evenodd" clip-rule="evenodd" d="M91.1169 269.98C91.118 269.978 91.1191 269.977 91.1191 269.976C89.969 266.831 88.8291 263.511 87.7244 260.027C88.828 263.512 89.9656 266.833 91.1169 269.98Z" fill="#718FBC"/>
<path fill-rule="evenodd" clip-rule="evenodd" d="M131.338 215.029C131.854 212.62 123.284 204.848 113.301 206.597C112.159 206.798 111.395 207.887 111.596 209.029C111.794 210.172 112.868 210.937 114.026 210.737C121.244 209.473 126.594 217.446 126.649 217.528C127.203 218.359 130.822 217.437 131.338 215.029Z" fill="#514846"/>
<path fill-rule="evenodd" clip-rule="evenodd" d="M97.5347 185.842C100.491 193.871 104.27 208.401 99.693 214.213C104.741 218.311 110.707 221.481 120.131 221.171C129.555 220.86 127.635 217.09 124.554 213.754C115.384 212.197 114.44 204.481 114.878 198.052L97.5347 185.842Z" fill="url(#paint7_linear_1760_11314)"/>
<path fill-rule="evenodd" clip-rule="evenodd" d="M136.139 219.177C136.139 223.253 132.835 226.558 128.759 226.558C124.683 226.558 121.379 223.253 121.379 219.177C121.379 215.102 124.683 211.798 128.759 211.798C132.835 211.798 136.139 215.102 136.139 219.177Z" fill="#514846"/>
<path fill-rule="evenodd" clip-rule="evenodd" d="M127.753 225.748C131.155 225.748 133.913 222.587 133.913 218.687C133.913 214.788 131.155 211.626 127.753 211.626C124.349 211.626 121.591 214.788 121.591 218.687C121.591 219.551 121.726 220.379 121.973 221.144C122.844 223.833 125.103 225.748 127.753 225.748Z" fill="#1A282B"/>
<path fill-rule="evenodd" clip-rule="evenodd" d="M114.891 202.587C114.859 202.283 114.835 201.978 114.818 201.671C114.832 201.977 114.851 202.281 114.877 202.585C114.882 202.585 114.886 202.585 114.891 202.587Z" fill="#C9C8C3"/>
<path fill-rule="evenodd" clip-rule="evenodd" d="M114.191 197.569L112.351 196.274L114.191 197.569Z" fill="#C4C3BF"/>
<path fill-rule="evenodd" clip-rule="evenodd" d="M114.795 197.996V197.995L114.191 197.57L114.795 197.996Z" fill="#BCBBB7"/>
<path fill-rule="evenodd" clip-rule="evenodd" d="M94.2538 174.676C96.889 185.324 97.887 191.661 104.368 196.45C114.115 203.652 126.579 196.972 127.197 185.914C127.752 175.961 123.349 160.22 111.966 157.347C100.749 154.517 91.6175 164.027 94.2538 174.676Z" fill="url(#paint8_linear_1760_11314)"/>
<path d="M104.588 183.21C104.588 183.21 108.114 185.8 110.452 187.792C112.79 189.783 117.855 183.21 117.855 183.21H125.866C127.205 185.499 127.784 188.154 127.518 190.793C126.999 195.003 123.664 201.315 123.664 201.315C120.378 203.563 116.36 204.479 112.425 203.876C106.144 202.733 103.018 199.434 98.3652 194.02C96.3129 191.632 95.127 185.891 95.8232 183.958C96.7065 181.509 101.002 175.189 101.002 173.455C102.795 180.029 104.588 183.21 104.588 183.21Z" fill="#5B1C10"/>
<path d="M117.191 187.792C119.247 189.157 121.92 189.157 123.976 187.792" stroke="#79554B" stroke-width="0.831558" stroke-linecap="round"/>
<path fill-rule="evenodd" clip-rule="evenodd" d="M99.1343 166.547C103.077 162.229 121.807 169.201 123.966 159.629C126.126 150.059 115.387 147.841 111.186 152.335C108.799 154.888 102.817 149.848 100.156 153.736C95.7213 160.213 89.2542 156.711 87.3956 162.801C85.848 167.869 93.9274 172.251 99.1343 166.547Z" fill="#5B1C10"/>
<path fill-rule="evenodd" clip-rule="evenodd" d="M91.0713 167.703C91.0713 167.703 87.2587 165.135 83.8151 170.815C86.7137 168.675 91.0713 167.703 91.0713 167.703Z" fill="#190C1A"/>
<path fill-rule="evenodd" clip-rule="evenodd" d="M90.6431 166.224L95.3118 164.298C101.848 166.691 101.673 171.359 101.673 175.737C101.673 181.203 105.175 184.349 105.175 184.349L99.1051 186.3C99.1051 186.3 77.5714 177.195 90.6431 166.224Z" fill="#5B1C10"/>
<path fill-rule="evenodd" clip-rule="evenodd" d="M94.6437 187.81C96.7998 189.426 99.4906 189.957 101.664 189.685C104.932 189.276 105.169 186.133 103.089 183.786C101.216 181.673 97.2596 179.34 94.5415 180.934C91.8642 182.506 92.1776 185.962 94.6437 187.81Z" fill="url(#paint9_linear_1760_11314)"/>
<path fill-rule="evenodd" clip-rule="evenodd" d="M305.921 400.066L312.423 389.541L289.998 370.515L283.496 381.038L305.921 400.066Z" fill="#F1BFBB"/>
<path fill-rule="evenodd" clip-rule="evenodd" d="M308.61 385.895L298.189 393.883C297.839 394.151 297.777 394.67 298.037 395.131L303.838 405.397C304.441 406.461 305.796 406.867 306.59 406.231C309.886 403.594 312.139 401.487 316.363 398.25C318.961 396.257 327.063 390.57 330.652 387.821C334.16 385.13 331.21 380.522 329.424 381.269C321.416 384.616 314.494 386.074 310.517 385.453C309.799 385.34 309.123 385.504 308.61 385.895Z" fill="#FBBF9A"/>
<path fill-rule="evenodd" clip-rule="evenodd" d="M293.84 389.826L293.845 389.82L289.086 385.782L289.083 385.787L293.84 389.826Z" fill="#263664"/>
<path fill-rule="evenodd" clip-rule="evenodd" d="M153.034 300.39C153.034 300.39 191.642 307.184 228.001 318.942C253.191 327.087 297.059 373.66 297.059 373.66L286.244 390.106C286.244 390.106 231.984 350.98 221.123 340.663C159.351 333.332 112.349 349.235 109.305 307.801C119.997 304.842 153.034 300.39 153.034 300.39Z" fill="#5A9687"/>
<path fill-rule="evenodd" clip-rule="evenodd" d="M256.433 304.08H135.904C134.384 304.08 133.139 305.324 133.139 306.845H259.197C259.197 305.324 257.953 304.08 256.433 304.08Z" fill="#426AA5"/>
<path fill-rule="evenodd" clip-rule="evenodd" d="M133.139 306.845C133.139 305.324 134.384 304.08 135.904 304.08H171.074C172.595 304.08 173.839 305.324 173.839 306.845H259.197C259.197 305.324 257.953 304.08 256.433 304.08H135.904C134.384 304.08 133.139 305.324 133.139 306.845Z" fill="url(#paint10_linear_1760_11314)"/>
<path fill-rule="evenodd" clip-rule="evenodd" d="M133.139 306.845H173.839C173.839 305.324 172.594 304.08 171.073 304.08H135.904C134.383 304.08 133.139 305.324 133.139 306.845Z" fill="#A1A7C4"/>
<path fill-rule="evenodd" clip-rule="evenodd" d="M270.965 242.453H186.596C183.9 242.453 181.195 244.659 180.584 247.356L168.851 299.177C168.24 301.873 169.946 304.079 172.643 304.079H257.012C259.707 304.079 262.413 301.873 263.024 299.177L274.757 247.356C275.368 244.659 273.661 242.453 270.965 242.453Z" fill="#A1A7C4"/>
<path fill-rule="evenodd" clip-rule="evenodd" d="M172.643 304.079H257.012C259.708 304.079 262.413 301.873 263.024 299.177L274.757 247.356C274.841 246.987 274.881 246.628 274.881 246.282C274.883 244.097 273.292 242.453 270.965 242.453H186.596C184.423 242.453 182.244 243.887 181.161 245.855C181.385 245.449 181.655 245.068 181.962 244.716C182.195 244.45 182.489 244.334 182.78 244.334C183.44 244.334 184.076 244.934 183.898 245.718L171.221 301.751C171.091 302.319 170.595 302.633 170.101 302.633C169.715 302.633 169.331 302.441 169.128 302.032C169.102 301.979 169.077 301.926 169.053 301.871C169.631 303.199 170.94 304.079 172.643 304.079ZM168.728 300.168C168.735 299.849 168.776 299.52 168.854 299.182L174.538 274.059L168.851 299.177C168.774 299.516 168.734 299.848 168.728 300.168Z" fill="white"/>
<path d="M225.488 281.768C223.606 280.637 223.521 277.324 225.297 274.368C227.074 271.412 230.039 269.932 231.92 271.062C233.801 272.193 233.886 275.505 232.11 278.462C230.334 281.418 227.369 282.898 225.488 281.768Z" fill="#D6D6D6"/>
<path fill-rule="evenodd" clip-rule="evenodd" d="M302.21 374.13L285.436 393.321L278.886 387.946L296.063 367.507L302.21 374.13Z" fill="#71B6A4"/>
<path fill-rule="evenodd" clip-rule="evenodd" d="M83.942 229.592C82.0141 237.97 80.5313 246.196 79.4652 254.727C78.9474 258.986 78.5228 263.284 78.3729 267.747C78.2946 269.981 78.2707 272.257 78.3945 274.667C78.4672 275.875 78.5739 277.118 78.7692 278.455C78.9735 279.798 79.2358 281.221 79.8217 282.951C80.1384 283.832 80.5563 284.842 81.2386 285.937C81.7336 286.692 82.2593 287.399 82.8032 288.019C83.8897 289.272 85.024 290.28 86.1503 291.145C88.4222 292.85 90.6646 294.031 92.8706 295.042C97.2725 297.035 101.607 298.212 105.895 299.22C110.195 300.161 114.461 300.839 118.729 301.301C123.016 301.756 127.207 302.049 131.593 302.049L132.479 293.825C124.703 291.878 116.751 289.754 109.43 287.051C105.767 285.731 102.237 284.175 99.2197 282.457C97.7334 281.592 96.3891 280.648 95.4388 279.74C94.9586 279.298 94.585 278.87 94.3534 278.524C94.2297 278.35 94.1638 278.204 94.1048 278.084C94.2524 278.289 94.2762 278.335 94.2592 278.237C94.2194 277.988 94.1207 277.361 94.0787 276.649C94.031 275.927 94.0173 275.098 94.0332 274.235C94.0503 272.502 94.1615 270.631 94.3387 268.729C94.7065 264.917 95.2458 260.975 95.8726 257.025C97.1362 249.141 98.6679 241.053 100.239 233.227L83.942 229.592Z" fill="#F1BFBB"/>
<path fill-rule="evenodd" clip-rule="evenodd" d="M99.693 214.214C92.5765 211.709 76.7747 216.726 75.7393 255.958L93.797 261.478C96.1148 265.846 106.81 216.718 99.693 214.214Z" fill="url(#paint11_linear_1760_11314)"/>
<path fill-rule="evenodd" clip-rule="evenodd" d="M102.045 220.333C102.045 224.78 105.65 228.385 110.097 228.385C114.544 228.385 118.15 224.78 118.15 220.333C118.15 215.886 114.544 212.28 110.097 212.28C105.65 212.28 102.045 215.886 102.045 220.333Z" fill="#1A282B"/>
<path fill-rule="evenodd" clip-rule="evenodd" d="M112.508 223.272C112.88 222.176 112.295 220.983 111.198 220.61C111.071 220.566 102.238 217.407 101.675 210.105C101.628 209.499 101.692 208.288 101.776 206.892C98.8092 207.075 95.8032 211.326 98.5454 215.796C101.288 220.265 109.365 224.425 109.846 224.588C110.068 224.663 110.295 224.7 110.519 224.7C111.395 224.7 112.213 224.148 112.508 223.272Z" fill="#514846"/>
<path fill-rule="evenodd" clip-rule="evenodd" d="M101.306 220.333C101.306 224.233 104.063 227.394 107.466 227.394C110.869 227.394 113.628 224.233 113.628 220.333C113.628 216.433 110.869 213.272 107.466 213.272C104.063 213.272 101.306 216.433 101.306 220.333Z" fill="#1A282B"/>
<path fill-rule="evenodd" clip-rule="evenodd" d="M107.466 227.394C110.869 227.394 113.628 224.233 113.628 220.333C113.628 216.433 110.869 213.272 107.466 213.272C104.063 213.272 101.306 216.433 101.306 220.333C101.306 223.1 102.694 225.496 104.716 226.653C105.544 227.128 106.478 227.394 107.466 227.394Z" fill="#514846"/>
<path fill-rule="evenodd" clip-rule="evenodd" d="M132.318 306.858L141.073 310.516L147.078 301.065C142.392 298.095 138.995 296.152 136.885 295.237C134.775 294.322 131.572 293.864 127.276 293.864C126.033 293.687 124.802 294.262 124.139 295.328L121.878 298.966C121.827 304.188 132.318 306.858 132.318 306.858Z" fill="url(#paint12_linear_1760_11314)"/>
<path fill-rule="evenodd" clip-rule="evenodd" d="M151.637 300.58H151.638C151.624 300.441 151.617 300.298 151.617 300.152C151.617 300.125 151.617 300.098 151.618 300.069C151.614 300.243 151.621 300.413 151.637 300.58Z" fill="#1D4282"/>
<path fill-rule="evenodd" clip-rule="evenodd" d="M151.943 301.772C151.783 301.405 151.68 301.004 151.638 300.58H151.637C151.678 301.004 151.782 301.405 151.943 301.772Z" fill="#0F1516"/>
<path fill-rule="evenodd" clip-rule="evenodd" d="M157.605 273.178L159.195 266.154L159.194 266.151L157.605 273.177V273.178Z" fill="#556A8B"/>
<path fill-rule="evenodd" clip-rule="evenodd" d="M157.427 273.96L157.604 273.178V273.177L157.427 273.96Z" fill="#1D4282"/>
<path fill-rule="evenodd" clip-rule="evenodd" d="M164.047 245.761C164.049 245.76 164.049 245.758 164.051 245.756C164.049 245.758 164.049 245.76 164.047 245.761Z" fill="#92938F"/>
<path fill-rule="evenodd" clip-rule="evenodd" d="M36.537 399.269H59.8748L81.0803 332.531C85.1835 319.618 97.0324 310.948 110.576 310.948H126.973C140.503 310.948 152.365 319.618 156.455 332.531L177.674 399.269H200.998L179.387 331.257C174.737 316.592 161.278 306.746 145.899 306.746H91.6495C76.2708 306.746 62.812 316.592 58.1478 331.257L36.537 399.269Z" fill="#426AA5"/>
<path d="M36.537 399.269H59.8748L81.0803 332.531C82.7459 327.289 85.6888 322.746 89.5025 319.198C94.8661 314.21 101.952 311.19 109.636 310.962C109.948 310.953 110.262 310.948 110.576 310.948H126.973C140.503 310.948 152.365 319.618 156.455 332.531L177.674 399.269H200.998L179.387 331.257C174.737 316.592 161.278 306.746 145.899 306.746H91.6495C76.2708 306.746 62.812 316.592 58.1478 331.257L36.537 399.269Z" fill="url(#paint13_linear_1760_11314)"/>
<path d="M36.537 399.269H59.8747L81.0803 332.531C82.7459 327.289 85.6888 322.746 89.5025 319.198C94.8661 314.21 101.952 311.19 109.636 310.962C109.948 310.953 110.262 310.948 110.576 310.948H126.973C140.503 310.948 152.365 319.618 156.455 332.531L177.674 399.269H200.998L179.387 331.257C174.737 316.592 161.278 306.746 145.899 306.746H91.6495C76.2708 306.746 62.812 316.592 58.1478 331.257L36.537 399.269Z" fill="#B6A68E"/>
<path fill-rule="evenodd" clip-rule="evenodd" d="M36.5369 399.269H40.9478L62.1533 332.531C66.2566 319.618 78.1055 310.948 91.6494 310.948H126.973C140.503 310.948 152.365 319.618 156.455 332.531L177.674 399.269H182.072L160.461 331.257C155.811 316.592 142.351 306.746 126.973 306.746H91.6494C76.2707 306.746 62.8119 316.592 58.1477 331.257L36.5369 399.269Z" fill="#514846"/>
<path fill-rule="evenodd" clip-rule="evenodd" d="M201.805 61.5042C203.452 63.5558 205.497 65.2741 204.496 68.1518C203.495 71.0296 199.184 69.2168 198.479 71.0641C197.774 72.9114 201.744 74.7176 200.841 77.7288C199.938 80.74 196.138 79.8329 195.433 81.2201C194.729 82.6072 196.821 85.0398 196.385 86.4996C195.95 87.9594 194.83 88.842 193.714 86.9821C192.598 85.1223 191.275 83.0596 192.44 79.9229C193.605 76.7862 196.992 78.8143 197.565 76.6133C198.138 74.4123 194.068 72.6225 195.107 69.6789C196.147 66.7354 200.367 68.4968 201.026 66.8149C201.684 65.133 198.405 62.0316 198.587 60.7917C198.769 59.5518 200.157 59.4526 201.805 61.5042Z" fill="#DCF6E6"/>
<path fill-rule="evenodd" clip-rule="evenodd" d="M312.797 127.143C312.877 129.773 313.477 132.376 310.945 134.072C308.414 135.767 306.062 131.725 304.387 132.776C302.712 133.827 304.796 137.659 302.263 139.521C299.73 141.382 297.241 138.371 295.843 139.054C294.445 139.738 294.652 142.94 293.426 143.844C292.2 144.747 290.774 144.778 291.002 142.621C291.23 140.465 291.415 138.021 294.233 136.217C297.051 134.413 298.535 138.071 300.318 136.658C302.1 135.245 299.926 131.366 302.528 129.641C305.13 127.916 307.44 131.862 308.978 130.916C310.516 129.969 309.764 125.518 310.655 124.637C311.547 123.757 312.716 124.513 312.797 127.143Z" fill="#DCF6E6"/>
<mask id="path-69-inside-1_1760_11314" fill="white">
<path fill-rule="evenodd" clip-rule="evenodd" d="M262.029 31.0399C262.029 31.568 261.98 32.0848 261.887 32.5859C269.994 35.2087 276.265 42.146 277.769 50.9261L284.99 93.0824L299.303 99.6097C305.17 102.285 303.262 111.069 296.813 111.069H215.023C208.704 111.069 206.678 102.56 212.319 99.7125L225.454 93.0824L231.487 51.5166C232.696 43.1841 238.198 36.4078 245.555 33.296C245.355 32.5781 245.248 31.8215 245.248 31.0399C245.248 26.406 249.004 22.6494 253.638 22.6494C258.272 22.6494 262.029 26.406 262.029 31.0399ZM266.414 114.653C266.414 121.461 260.55 126.979 253.317 126.979C246.084 126.979 240.221 121.461 240.221 114.653H266.414Z"/>
</mask>
<path fill-rule="evenodd" clip-rule="evenodd" d="M262.029 31.0399C262.029 31.568 261.98 32.0848 261.887 32.5859C269.994 35.2087 276.265 42.146 277.769 50.9261L284.99 93.0824L299.303 99.6097C305.17 102.285 303.262 111.069 296.813 111.069H215.023C208.704 111.069 206.678 102.56 212.319 99.7125L225.454 93.0824L231.487 51.5166C232.696 43.1841 238.198 36.4078 245.555 33.296C245.355 32.5781 245.248 31.8215 245.248 31.0399C245.248 26.406 249.004 22.6494 253.638 22.6494C258.272 22.6494 262.029 26.406 262.029 31.0399ZM266.414 114.653C266.414 121.461 260.55 126.979 253.317 126.979C246.084 126.979 240.221 121.461 240.221 114.653H266.414Z" fill="white"/>
<path d="M261.887 32.5859L259.921 32.2197L259.599 33.9477L261.271 34.4888L261.887 32.5859ZM277.769 50.9261L279.74 50.5885V50.5885L277.769 50.9261ZM284.99 93.0824L283.019 93.4201L283.198 94.463L284.16 94.9021L284.99 93.0824ZM299.303 99.6097L300.133 97.79L299.303 99.6097ZM212.319 99.7125L211.418 97.927H211.418L212.319 99.7125ZM225.454 93.0824L226.355 94.8678L227.284 94.3991L227.433 93.3697L225.454 93.0824ZM231.487 51.5166L229.508 51.2293V51.2293L231.487 51.5166ZM245.555 33.296L246.334 35.138L247.953 34.4531L247.481 32.7594L245.555 33.296ZM266.414 114.653H268.414V112.653H266.414V114.653ZM240.221 114.653V112.653H238.221V114.653H240.221ZM263.853 32.9521C263.969 32.3308 264.029 31.6915 264.029 31.0399H260.029C260.029 31.4446 259.991 31.8388 259.921 32.2197L263.853 32.9521ZM279.74 50.5885C278.107 41.0572 271.3 33.5292 262.502 30.683L261.271 34.4888C268.688 36.8883 274.422 43.2348 275.798 51.2638L279.74 50.5885ZM286.962 92.7447L279.74 50.5885L275.798 51.2638L283.019 93.4201L286.962 92.7447ZM300.133 97.79L285.82 91.2627L284.16 94.9021L298.473 101.429L300.133 97.79ZM296.813 113.069C305.411 113.069 307.956 101.358 300.133 97.79L298.473 101.429C302.384 103.213 301.112 109.069 296.813 109.069V113.069ZM215.023 113.069H296.813V109.069H215.023V113.069ZM211.418 97.927C203.896 101.724 206.597 113.069 215.023 113.069V109.069C210.81 109.069 209.46 103.396 213.22 101.498L211.418 97.927ZM224.553 91.297L211.418 97.927L213.22 101.498L226.355 94.8678L224.553 91.297ZM229.508 51.2293L223.475 92.7951L227.433 93.3697L233.466 51.8039L229.508 51.2293ZM244.776 31.454C236.794 34.8302 230.821 42.1838 229.508 51.2293L233.466 51.8039C234.572 44.1845 239.602 37.9854 246.334 35.138L244.776 31.454ZM243.248 31.0399C243.248 32.0046 243.38 32.9417 243.628 33.8326L247.481 32.7594C247.33 32.2146 247.248 31.6384 247.248 31.0399H243.248ZM253.638 20.6494C247.9 20.6494 243.248 25.3014 243.248 31.0399H247.248C247.248 27.5105 250.109 24.6494 253.638 24.6494V20.6494ZM264.029 31.0399C264.029 25.3014 259.377 20.6494 253.638 20.6494V24.6494C257.168 24.6494 260.029 27.5105 260.029 31.0399H264.029ZM253.317 128.979C261.539 128.979 268.414 122.678 268.414 114.653H264.414C264.414 120.244 259.562 124.979 253.317 124.979V128.979ZM238.221 114.653C238.221 122.678 245.095 128.979 253.317 128.979V124.979C247.073 124.979 242.221 120.244 242.221 114.653H238.221ZM266.414 112.653H240.221V116.653H266.414V112.653Z" fill="#347474" mask="url(#path-69-inside-1_1760_11314)"/>
<path d="M284.57 52.6804C286.808 41.2356 279.344 30.1436 267.899 27.9058" stroke="#347474" stroke-width="2" stroke-linecap="round"/>
<path d="M293.86 46.4289C296.098 34.9842 288.634 23.8922 277.189 21.6543" stroke="#347474" stroke-width="2" stroke-linecap="round"/>
<path d="M188.721 110.399C189.909 100.864 179.331 70.4815 158.856 55.2038C138.381 39.9261 121.469 59.5455 123.917 64.8457C126.365 70.146 152.352 62.8855 144.643 39.4192C140.763 27.6079 127.374 12.7384 118.167 11.3222" stroke="#347474" stroke-linecap="square" stroke-linejoin="round"/>
<defs>
<linearGradient id="paint0_linear_1760_11314" x1="177.5" y1="24.0444" x2="177.5" y2="379.044" gradientUnits="userSpaceOnUse">
<stop stop-color="white"/>
<stop offset="1" stop-color="white" stop-opacity="0"/>
</linearGradient>
<linearGradient id="paint1_linear_1760_11314" x1="195.978" y1="346.982" x2="341.295" y2="358.887" gradientUnits="userSpaceOnUse">
<stop stop-color="#075983"/>
<stop offset="1" stop-color="#1292B9"/>
</linearGradient>
<linearGradient id="paint2_linear_1760_11314" x1="54.36" y1="242.143" x2="71.4395" y2="246.669" gradientUnits="userSpaceOnUse">
<stop stop-color="#075983"/>
<stop offset="1" stop-color="#1292B9"/>
</linearGradient>
<linearGradient id="paint3_linear_1760_11314" x1="181.366" y1="225.946" x2="143.299" y2="187.089" gradientUnits="userSpaceOnUse">
<stop stop-color="#B3826E"/>
<stop offset="1" stop-color="#E0B2B0"/>
</linearGradient>
<linearGradient id="paint4_linear_1760_11314" x1="131.362" y1="216.498" x2="153.807" y2="247.12" gradientUnits="userSpaceOnUse">
<stop stop-color="#FBBF9A"/>
<stop offset="1" stop-color="#653623"/>
</linearGradient>
<linearGradient id="paint5_linear_1760_11314" x1="150.217" y1="186.967" x2="139.22" y2="169.411" gradientUnits="userSpaceOnUse">
<stop stop-color="#F1BFBB"/>
<stop offset="1" stop-color="#A8827F"/>
</linearGradient>
<linearGradient id="paint6_linear_1760_11314" x1="156.495" y1="261.078" x2="62.0428" y2="261.078" gradientUnits="userSpaceOnUse">
<stop stop-color="#EE9087"/>
<stop offset="1" stop-color="#653623"/>
</linearGradient>
<linearGradient id="paint7_linear_1760_11314" x1="131.505" y1="214.319" x2="106.381" y2="188.944" gradientUnits="userSpaceOnUse">
<stop stop-color="#B3826E"/>
<stop offset="1" stop-color="#E0B2B0"/>
</linearGradient>
<linearGradient id="paint8_linear_1760_11314" x1="127.282" y1="177.239" x2="63.9711" y2="171.205" gradientUnits="userSpaceOnUse">
<stop stop-color="#F5C3C0"/>
<stop offset="1" stop-color="#BF9997"/>
</linearGradient>
<linearGradient id="paint9_linear_1760_11314" x1="106.193" y1="187.936" x2="100.097" y2="178.657" gradientUnits="userSpaceOnUse">
<stop stop-color="#E8B9B6"/>
<stop offset="1" stop-color="#BB8B7A"/>
</linearGradient>
<linearGradient id="paint10_linear_1760_11314" x1="196.168" y1="303.772" x2="196.168" y2="304.797" gradientUnits="userSpaceOnUse">
<stop stop-color="#E9EEF4"/>
<stop offset="1" stop-color="#CFD7E5"/>
</linearGradient>
<linearGradient id="paint11_linear_1760_11314" x1="86.717" y1="215.834" x2="119.585" y2="228.828" gradientUnits="userSpaceOnUse">
<stop stop-color="#FBBF9A"/>
<stop offset="1" stop-color="#653623"/>
</linearGradient>
<linearGradient id="paint12_linear_1760_11314" x1="150.852" y1="307.272" x2="157.463" y2="243.341" gradientUnits="userSpaceOnUse">
<stop stop-color="#F5C3C0"/>
<stop offset="1" stop-color="#BB8B79"/>
</linearGradient>
<linearGradient id="paint13_linear_1760_11314" x1="98.037" y1="346.982" x2="243.353" y2="358.887" gradientUnits="userSpaceOnUse">
<stop stop-color="#075983"/>
<stop offset="1" stop-color="#1292B9"/>
</linearGradient>
</defs>
</svg>
