<svg width="14" height="16" viewBox="0 0 14 16" fill="none" xmlns="http://www.w3.org/2000/svg">
<mask id="mask0_2190_339" style="mask-type:alpha" maskUnits="userSpaceOnUse" x="0" y="0" width="14" height="16">
<path fill-rule="evenodd" clip-rule="evenodd" d="M0.25 0.508789H13.0391V15.3989H0.25V0.508789Z" fill="white"/>
</mask>
<g mask="url(#mask0_2190_339)">
<path fill-rule="evenodd" clip-rule="evenodd" d="M3.6798 1.63379C2.43705 1.63379 1.40505 2.64029 1.3758 3.88154V11.9208C1.3488 13.1965 2.3538 14.2465 3.61755 14.2743H9.6798C10.9316 14.2293 11.9223 13.1965 11.9141 11.9245V5.25479L8.43855 1.63379H3.6888H3.6798ZM3.6888 15.3993H3.5943C1.7103 15.3588 0.210301 13.7928 0.250801 11.9088V3.86804C0.295051 2.00729 1.83105 0.508789 3.67755 0.508789H3.69105H8.6778C8.8308 0.508789 8.97705 0.571039 9.08355 0.681289L12.8831 4.63904C12.9828 4.74329 13.0391 4.88354 13.0391 5.02829V11.9208C13.0511 13.8025 11.5841 15.3318 9.6993 15.3993H3.6888Z" fill="#11493E"/>
</g>
<path fill-rule="evenodd" clip-rule="evenodd" d="M12.4729 5.738H10.4074C9.03419 5.73425 7.91895 4.61525 7.91895 3.24425V1.0625C7.91895 0.752 8.17095 0.5 8.48145 0.5C8.79194 0.5 9.04394 0.752 9.04394 1.0625V3.24425C9.04394 3.99725 9.65594 4.61075 10.4089 4.613H12.4729C12.7834 4.613 13.0354 4.865 13.0354 5.1755C13.0354 5.486 12.7834 5.738 12.4729 5.738" fill="#11493E"/>
<path fill-rule="evenodd" clip-rule="evenodd" d="M6.35645 11.5249C6.04595 11.5249 5.79395 11.2729 5.79395 10.9624V6.43164C5.79395 6.12114 6.04595 5.86914 6.35645 5.86914C6.66695 5.86914 6.91895 6.12114 6.91895 6.43164V10.9624C6.91895 11.2729 6.66695 11.5249 6.35645 11.5249" fill="#11493E"/>
<path fill-rule="evenodd" clip-rule="evenodd" d="M6.35594 11.5239C6.20669 11.5239 6.06269 11.4646 5.95769 11.3581L4.19894 9.59263C3.97994 9.37213 3.98069 9.01588 4.20044 8.79688C4.42094 8.57788 4.77719 8.57788 4.99619 8.79838L6.35594 10.1649L7.71569 8.79838C7.93469 8.57788 8.29094 8.57788 8.51144 8.79688C8.73119 9.01588 8.73194 9.37213 8.51294 9.59263L6.75419 11.3581C6.64919 11.4646 6.50519 11.5239 6.35594 11.5239" fill="#11493E"/>
</svg>
