<svg width="26" height="32" viewBox="0 0 26 32" fill="none" xmlns="http://www.w3.org/2000/svg">
<path d="M25.1101 6.72386L24.6847 6.29848L19.115 0.728828L18.6897 0.303448C18.4971 0.110897 18.2301 0 17.957 0H1.94483C1.29049 0 0.585938 0.505379 0.585938 1.61434V21.5172V30.6411V30.8966C0.585938 31.3583 1.05049 31.8086 1.60001 31.9503C1.62759 31.9575 1.65408 31.968 1.68277 31.9735C1.76883 31.9906 1.85656 32 1.94483 32H24.0546C24.1429 32 24.2306 31.9906 24.3167 31.9735C24.3454 31.968 24.3719 31.9575 24.3995 31.9503C24.949 31.8086 25.4135 31.3583 25.4135 30.8966V30.6411V21.5172V7.712C25.4135 7.28883 25.3628 6.97655 25.1101 6.72386ZM23.4466 6.62069H18.7928V1.9669L23.4466 6.62069ZM1.94483 30.8966C1.90566 30.8966 1.87035 30.8822 1.83559 30.8695C1.74952 30.8287 1.68939 30.7426 1.68939 30.6411V22.6207H24.3101V30.6411C24.3101 30.7426 24.2499 30.8281 24.1639 30.8695C24.1291 30.8822 24.0938 30.8966 24.0546 30.8966H1.94483ZM1.68939 21.5172V1.61434C1.68939 1.49462 1.70759 1.10345 1.94483 1.10345H17.7214C17.7032 1.17297 17.6894 1.24469 17.6894 1.31917V7.72414H24.0944C24.1688 7.72414 24.24 7.71034 24.3095 7.69214C24.3095 7.70041 24.3101 7.70372 24.3101 7.712V21.5172H1.68939Z" fill="#828282"/>
<path d="M9.16076 24.6863C8.97704 24.5357 8.76959 24.422 8.53842 24.347C8.30725 24.2714 8.07332 24.2339 7.83718 24.2339H6.23828V29.7931H7.14366V27.7864H7.81511C8.10642 27.7864 8.37345 27.744 8.61456 27.6584C8.85566 27.5729 9.06201 27.4521 9.23304 27.2965C9.40407 27.1409 9.53704 26.9484 9.63304 26.7194C9.72849 26.4904 9.77649 26.2355 9.77649 25.9536C9.77649 25.6871 9.71966 25.4471 9.60656 25.2331C9.49345 25.019 9.34449 24.8375 9.16076 24.6863ZM8.81759 26.523C8.76187 26.6764 8.68959 26.7955 8.59911 26.8811C8.50863 26.9666 8.40931 27.0284 8.30118 27.0659C8.19304 27.1034 8.08325 27.1227 7.9729 27.1227H7.14311V24.9202H7.82173C8.0529 24.9202 8.23883 24.9566 8.38007 25.0295C8.52076 25.1023 8.63 25.1928 8.70835 25.3009C8.78614 25.4091 8.83745 25.5222 8.86283 25.6402C8.88766 25.7583 8.90035 25.8626 8.90035 25.9531C8.90035 26.1798 8.87276 26.3696 8.81759 26.523Z" fill="#828282"/>
<path d="M14.6292 25.0482C14.3953 24.8022 14.1012 24.6041 13.7465 24.4562C13.3917 24.3084 12.9807 24.2339 12.5134 24.2339H10.8389V29.7931H12.9431C13.0132 29.7931 13.1214 29.7842 13.2676 29.7666C13.4132 29.7489 13.5743 29.7092 13.7503 29.6457C13.9263 29.5829 14.1084 29.4885 14.2971 29.3627C14.4858 29.2369 14.6551 29.0648 14.8063 28.8457C14.9575 28.6267 15.0816 28.3553 15.1798 28.0309C15.278 27.7064 15.3271 27.3153 15.3271 26.8579C15.3271 26.5257 15.2692 26.2024 15.1539 25.8885C15.0375 25.5751 14.8631 25.2949 14.6292 25.0482ZM13.9694 28.5406C13.6979 28.9329 13.2554 29.1288 12.6419 29.1288H11.7442V24.9197H12.2722C12.7048 24.9197 13.0568 24.9765 13.3282 25.0896C13.5997 25.2027 13.8149 25.3511 13.9732 25.5349C14.1316 25.7186 14.238 25.9233 14.2938 26.1495C14.3489 26.3757 14.3765 26.6046 14.3765 26.8358C14.3765 27.5801 14.2408 28.1489 13.9694 28.5406Z" fill="#828282"/>
<path d="M16.6406 29.7931H17.5609V27.2888H19.8842V26.6703H17.5609V24.9202H20.1176V24.2339H16.6406V29.7931Z" fill="#828282"/>
<path d="M18.202 12.668C17.6949 12.668 17.0726 12.7342 16.3493 12.8655C15.3396 11.7941 14.2858 10.2294 13.5421 8.6934C14.2798 5.58775 13.9107 5.14802 13.7479 4.94057C13.5747 4.71989 13.3303 4.36182 13.0522 4.36182C12.9358 4.36182 12.618 4.41478 12.4916 4.45671C12.1738 4.56264 12.0028 4.80761 11.866 5.12706C11.4759 6.03906 12.0111 7.59382 12.5617 8.79216C12.0911 10.6642 11.3016 12.9047 10.4718 14.7232C8.38074 15.681 7.27012 16.6217 7.16971 17.5193C7.13329 17.846 7.21054 18.3254 7.78488 18.7563C7.94212 18.8738 8.1264 18.9362 8.3184 18.9362C8.80116 18.9362 9.28888 18.5665 9.85329 17.7737C10.2649 17.1955 10.7068 16.4071 11.1681 15.4283C12.6456 14.7822 14.4734 14.1985 16.0387 13.8713C16.9104 14.7083 17.6911 15.132 18.362 15.132C18.8563 15.132 19.2801 14.9047 19.5868 14.4749C19.9063 14.0275 19.9791 13.6269 19.802 13.2832C19.5896 12.87 19.066 12.668 18.202 12.668ZM8.33053 18.0049C8.07233 17.8068 8.08722 17.6733 8.09274 17.6231C8.12695 17.3163 8.6075 16.7717 9.78653 16.1091C8.89274 17.7599 8.41274 17.9789 8.33053 18.0049ZM12.8547 5.35823C12.8784 5.35051 13.4312 5.96568 12.9076 7.13258C12.1209 6.32761 12.8006 5.37644 12.8547 5.35823ZM11.7143 14.2002C12.2743 12.8655 12.7951 11.3919 13.1896 10.0269C13.8092 11.1403 14.5534 12.2206 15.2983 13.0857C14.1209 13.3621 12.8674 13.7522 11.7143 14.2002ZM18.8321 13.9359C18.6621 14.1737 18.2936 14.1792 18.1645 14.1792C17.8704 14.1792 17.7606 14.0043 17.3109 13.6584C17.6817 13.6109 18.0315 13.5988 18.3101 13.5988C18.8006 13.5988 18.8905 13.6711 18.9584 13.7075C18.9463 13.7466 18.9143 13.8206 18.8321 13.9359Z" fill="#347474"/>
</svg>
