<svg width="414" height="276" viewBox="0 0 414 276" fill="none" xmlns="http://www.w3.org/2000/svg">
    <rect width="412.776" height="275.184" transform="translate(0.267578 0.407715)" fill="transparent"/>
    <path d="M366.282 188.444C366.067 195.124 370.642 197.106 370.014 204.426C369.629 208.864 367.58 212.465 365.576 215.057C365.269 215.458 364.966 215.83 364.668 216.175L301.807 215.798L277.037 215.649H276.914L229.324 215.364H229.197L181.607 215.083H178.274L104.497 214.645H102.212L67.9065 214.439C67.1478 214.083 66.4197 213.728 65.7136 213.373C65.2751 213.14 64.8365 212.908 64.3979 212.671C63.9593 212.434 63.5865 212.233 63.2006 211.983C55.6922 207.461 53.109 202.829 52.1836 199.246C49.5521 188.984 59.6394 182.905 61.2051 165.502C62.1612 154.827 58.6307 154.192 58.8675 143.78C59.2008 129.561 66.1917 112.018 78.5902 103.352C95.6639 91.427 108.08 106.764 134.057 99.3433C163.775 90.8525 161.722 66.7309 188.19 60.5821C214.785 54.4069 219.719 78.0987 254.367 75.2831C272.971 73.77 283.133 65.9678 301.733 62.8495L301.904 62.8188L302.176 62.7749C305.661 62.2123 309.175 61.8448 312.702 61.6741C312.802 61.6741 312.899 61.6741 313 61.6741H313.465C315.89 61.5689 318.451 61.5469 321.17 61.6171C331.209 61.8715 336.959 62.0908 343.538 65.6257C366.944 78.1645 370.291 115.939 370.602 120.088C371.514 132.03 369.343 137.837 372.944 150.828C375.282 159.266 377.69 162.2 376.619 168.204C374.865 178.116 366.567 179.532 366.282 188.444Z" fill="#EEF9FE"/>
    <path d="M229.205 175.721H181.615V215.825H229.205V175.721Z" fill="#EDF3F4"/>
    <path d="M276.922 175.721H229.332V215.825H276.922V175.721Z" fill="#DCE1E2"/>
    <path d="M324.639 175.721H277.049V215.825H324.639V175.721Z" fill="#EDF3F4"/>
    <path d="M324.857 131.145H305.924V143.394H324.857V131.145Z" fill="#EDF3F4"/>
    <path d="M305.688 130.925V143.618H325.059V130.925H305.688ZM324.638 143.179H306.126V131.364H324.621L324.638 143.179Z" fill="#DCE1E2"/>
    <path d="M306.138 131.145H287.205V143.394H306.138V131.145Z" fill="#EDF3F4"/>
    <path d="M287.64 143.179V143.618H305.687V143.179H287.64ZM286.986 130.93V143.618H306.358V130.925L286.986 130.93ZM305.92 143.179H287.425V131.364H305.92V143.179ZM287.64 143.179V143.618H305.687V143.179H287.64Z" fill="#DCE1E2"/>
    <path d="M287.42 131.145H268.486V143.394H287.42V131.145Z" fill="#EDF3F4"/>
    <path d="M268.706 143.179V143.398H268.268V143.618H286.986V143.179H268.706ZM268.268 130.93V143.618H287.639V130.925L268.268 130.93ZM287.201 143.179H268.706V131.364H287.201V143.179ZM268.706 143.179V143.398H268.268V143.618H286.986V143.179H268.706Z" fill="#DCE1E2"/>
    <path d="M268.707 131.145H249.773V143.394H268.707V131.145Z" fill="#EDF3F4"/>
    <path d="M249.987 143.179V143.398H249.549V143.618H268.267V143.179H249.987ZM249.549 130.93V143.618H268.925V130.925L249.549 130.93ZM249.987 143.179V131.364H268.487V143.179H249.987ZM249.987 143.179V143.398H249.549V143.618H268.267V143.179H249.987Z" fill="#DCE1E2"/>
    <path d="M249.988 131.145H231.055V143.394H249.988V131.145Z" fill="#EDF3F4"/>
    <path d="M231.489 143.179V143.618H249.55V143.179H231.489ZM230.836 130.93V143.618H250.208V130.925L230.836 130.93ZM231.275 131.368H249.769V143.179H231.275V131.368ZM231.489 143.179V143.618H249.55V143.179H231.489Z" fill="#DCE1E2"/>
    <path d="M231.269 131.145H212.336V143.394H231.269V131.145Z" fill="#EDF3F4"/>
    <path d="M212.117 130.925V143.618H231.489V130.925H212.117ZM212.556 131.364H231.05V143.179H212.556V131.364Z" fill="#DCE1E2"/>
    <path d="M212.556 131.145H193.623V143.394H212.556V131.145Z" fill="#EDF3F4"/>
    <path d="M193.618 134.197V142.776C193.691 142.771 193.764 142.762 193.837 142.749V134.215L193.618 134.197ZM193.398 130.925V143.618H212.775V130.925H193.398ZM212.336 143.179H193.85V131.364H212.349L212.336 143.179ZM193.618 134.201V142.78C193.691 142.776 193.764 142.767 193.837 142.754V134.215L193.618 134.201Z" fill="#DCE1E2"/>
    <path d="M193.838 131.145H174.904V143.394H193.838V131.145Z" fill="#EDF3F4"/>
    <path d="M193.851 143.394V142.741C193.779 142.754 193.706 142.762 193.632 142.767V143.179H188.172L188.259 143.341L188.29 143.398H188.966L189.053 143.561L189.084 143.618H194.057V143.398L193.851 143.394ZM174.686 130.925V143.618H194.057V130.925H174.686ZM193.619 143.179H175.124V131.364H193.619V143.179ZM193.838 143.398V142.741C193.766 142.754 193.692 142.762 193.619 142.767V143.179H188.172L188.259 143.341L188.29 143.398H188.966L189.053 143.561L189.084 143.618H194.057V143.398H193.838Z" fill="#DCE1E2"/>
    <path d="M324.857 143.556H305.924V155.806H324.857V143.556Z" fill="#EDF3F4"/>
    <path d="M306.126 155.586V143.775H315.968C315.965 143.765 315.965 143.755 315.968 143.745C315.955 143.709 315.945 143.672 315.937 143.635C315.934 143.628 315.934 143.62 315.937 143.613C315.935 143.594 315.935 143.575 315.937 143.556H305.92V143.618H305.688V155.687H305.902V155.81H306.341V155.898H314.235L314.209 155.801H317.529V155.582L306.126 155.586ZM305.688 143.337V156.025H325.059V143.337H305.688ZM324.621 155.586H306.126V143.775H324.621V155.586ZM306.126 155.586V143.775H315.968C315.965 143.765 315.965 143.755 315.968 143.745C315.955 143.709 315.945 143.672 315.937 143.635C315.934 143.628 315.934 143.62 315.937 143.613C315.935 143.594 315.935 143.575 315.937 143.556H305.92V143.618H305.688V155.687H305.902V155.81H306.341V155.898H314.235L314.209 155.801H317.529V155.582L306.126 155.586Z" fill="#DCE1E2"/>
    <path d="M306.138 143.556H287.205V155.806H306.138V143.556Z" fill="#EDF3F4"/>
    <path d="M286.986 143.337V156.025H306.358V143.337H286.986ZM305.92 155.586H287.425V143.775H305.92V155.586Z" fill="#DCE1E2"/>
    <path d="M287.42 143.556H268.486V155.806H287.42V143.556Z" fill="#EDF3F4"/>
    <path d="M268.268 143.337V156.025H287.639V143.337H268.268ZM287.201 155.586H268.706V143.775H287.201V155.586Z" fill="#DCE1E2"/>
    <path d="M268.707 143.556H249.773V155.806H268.707V143.556Z" fill="#EDF3F4"/>
    <path d="M249.987 155.586V153.332L249.768 153.889V155.586H249.549V155.683H268.267V155.586H249.987ZM249.549 143.337V156.025H268.925V143.337H249.549ZM249.987 143.775H268.487V155.586H249.987V143.775ZM249.987 155.586V153.332L249.768 153.889V155.586H249.549V155.683H268.267V155.586H249.987Z" fill="#DCE1E2"/>
    <path d="M249.988 143.556H231.055V155.806H249.988V143.556Z" fill="#EDF3F4"/>
    <path d="M230.836 143.337V156.025H250.208V143.337H230.836ZM249.769 155.586H231.275V143.775H249.769V155.586ZM231.489 155.586V155.898H248.975L249.015 155.801H249.55V155.582L231.489 155.586Z" fill="#DCE1E2"/>
    <path d="M231.269 143.556H212.336V155.806H231.269V143.556Z" fill="#EDF3F4"/>
    <path d="M212.117 143.337V156.025H231.489V143.337H212.117ZM212.556 143.775H231.05V155.586H212.556V143.775Z" fill="#DCE1E2"/>
    <path d="M212.556 143.556H193.623V155.806H212.556V143.556Z" fill="#EDF3F4"/>
    <path d="M204.841 155.586C204.838 155.596 204.838 155.607 204.841 155.617L204.981 155.683H206.043L206.35 155.586H204.841ZM193.618 152.31C193.697 152.451 193.771 152.569 193.837 152.674V146.117C193.762 146.293 193.688 146.473 193.618 146.648V152.31ZM193.398 143.337V156.025H212.775V143.337H193.398ZM212.336 155.586H193.85V143.775H212.349L212.336 155.586Z" fill="#DCE1E2"/>
    <path d="M193.838 143.556H174.904V155.806H193.838V143.556Z" fill="#EDF3F4"/>
    <path d="M174.686 143.337V156.025H194.057V143.337H174.686ZM193.619 155.586H175.124V143.775H193.619V155.586Z" fill="#DCE1E2"/>
    <path d="M324.857 155.902H305.924V168.151H324.857V155.902Z" fill="#EDF3F4"/>
    <path d="M315.775 155.898L315.801 156.02V156.117H317.529V155.898H315.775ZM305.688 155.678V168.366H325.059V155.683L305.688 155.678ZM324.621 167.928H306.126V156.121H324.621V167.928ZM315.775 155.898L315.801 156.02V156.117H317.529V155.898H315.775Z" fill="#DCE1E2"/>
    <path d="M306.138 155.902H287.205V168.151H306.138V155.902Z" fill="#EDF3F4"/>
    <path d="M300.021 155.683V156.121H305.722V155.683H300.021ZM286.986 155.683V168.371H306.358V155.683H286.986ZM287.425 156.121H305.92V167.932H287.425V156.121ZM300.021 155.683V156.121H305.722V155.683H300.021Z" fill="#DCE1E2"/>
    <path d="M287.42 155.902H268.486V168.151H287.42V155.902Z" fill="#EDF3F4"/>
    <path d="M268.268 155.683V168.371H287.639V155.683H268.268ZM287.201 167.932H268.706V156.121H287.201V167.932Z" fill="#DCE1E2"/>
    <path d="M268.707 155.902H249.773V168.151H268.707V155.902Z" fill="#EDF3F4"/>
    <path d="M249.549 155.683V156.121H249.768V164.41H249.987V156.121H268.267V155.683H249.549ZM249.549 155.683V168.371H268.925V155.683H249.549ZM268.487 167.932H249.987V156.121H268.487V167.932ZM249.549 155.683V156.121H249.768V164.41H249.987V156.121H268.267V155.683H249.549Z" fill="#DCE1E2"/>
    <path d="M249.988 155.902H231.055V168.151H249.988V155.902Z" fill="#EDF3F4"/>
    <path d="M249.015 155.805L248.975 155.902H247.002L246.954 156.025L246.914 156.121H249.546V155.805H249.015ZM230.836 155.683V168.371H250.208V155.683H230.836ZM249.769 167.932H231.275V156.121H249.769V167.932ZM249.015 155.805L248.975 155.902L248.927 156.025L248.888 156.121H249.55V155.805H249.015Z" fill="#DCE1E2"/>
    <path d="M231.269 155.902H212.336V168.151H231.269V155.902Z" fill="#EDF3F4"/>
    <path d="M230.836 155.805V155.683H212.775V156.121H231.05V164.41H231.27V162.73H231.485V155.805H230.836ZM212.117 155.683V168.371H231.489V155.683H212.117ZM231.05 167.932H212.556V156.121H231.05V167.932ZM230.836 155.805V155.683H212.775V156.121H231.05V164.41H231.27V162.73H231.485V155.805H230.836Z" fill="#DCE1E2"/>
    <path d="M212.556 155.902H193.623V168.151H212.556V155.902Z" fill="#EDF3F4"/>
    <path d="M193.412 155.683V156.617C193.456 156.845 193.5 157.077 193.548 157.323L193.614 157.652C193.612 157.678 193.612 157.704 193.614 157.731V160.722H193.833V156.121H212.113V155.683H193.412ZM193.412 155.683V168.371H212.788V155.683H193.412ZM193.851 167.932V156.121H212.35V167.932H193.851ZM193.412 155.683V156.617C193.456 156.845 193.5 157.077 193.548 157.323L193.614 157.652C193.612 157.678 193.612 157.704 193.614 157.731V160.722H193.833V156.121H212.113V155.683H193.412Z" fill="#DCE1E2"/>
    <path d="M193.838 155.902H174.904V168.151H193.838V155.902Z" fill="#EDF3F4"/>
    <path d="M174.686 155.683V168.371H194.057V155.683H174.686ZM193.619 167.932H175.124V156.121H193.619V167.932Z" fill="#DCE1E2"/>
    <path d="M324.638 168.371H175.123V176.493H324.638V168.371Z" fill="#EDF3F4"/>
    <path d="M231.721 162.713H281.21C282.49 162.713 283.717 163.221 284.621 164.126C285.526 165.031 286.034 166.258 286.034 167.537V168.379H226.91V167.537C226.91 166.26 227.417 165.035 228.319 164.131C229.22 163.226 230.444 162.716 231.721 162.713Z" fill="#DCE1E2"/>
    <path d="M238.647 86.5239H189.982V125.934H238.647V86.5239Z" fill="white"/>
    <path d="M238.648 82.3706H186.295V86.5239H238.648V82.3706Z" fill="#EDF3F4"/>
    <path d="M238.648 125.938H186.295V130.092H238.648V125.938Z" fill="#EDF3F4"/>
    <path d="M210.995 91.1509H193.482V121.312H210.995V91.1509Z" fill="#EDF3F4"/>
    <path d="M235.147 91.1509H217.635V121.312H235.147V91.1509Z" fill="#EDF3F4"/>
    <path d="M238.541 125.938H287.205V86.5281H238.541V125.938Z" fill="white"/>
    <path d="M238.542 86.5283H290.895V82.375H238.542V86.5283Z" fill="#EDF3F4"/>
    <path d="M238.542 130.092H290.895V125.938H238.542V130.092Z" fill="#EDF3F4"/>
    <path d="M240.66 86.5239H238.646V125.939H240.66V86.5239Z" fill="#EDF3F4"/>
    <path d="M287.206 105.387H240.66V107.08H287.206V105.387Z" fill="#EDF3F4"/>
    <path d="M243.08 96.146H249.615V98.4441C249.615 99.3107 249.271 100.142 248.658 100.755C248.045 101.367 247.214 101.712 246.347 101.712V101.712C245.481 101.712 244.65 101.367 244.037 100.755C243.424 100.142 243.08 99.3107 243.08 98.4441V96.146Z" fill="#EDF3F4"/>
    <path d="M246.633 101.286H246.062V104.847H246.633V101.286Z" fill="#EDF3F4"/>
    <path d="M248.23 104.681H244.462C244.268 104.681 244.111 104.838 244.111 105.032V105.036C244.111 105.23 244.268 105.387 244.462 105.387H248.23C248.423 105.387 248.58 105.23 248.58 105.036V105.032C248.58 104.838 248.423 104.681 248.23 104.681Z" fill="#EDF3F4"/>
    <path d="M250.865 96.146H257.4V98.4441C257.4 99.3107 257.056 100.142 256.443 100.755C255.83 101.367 254.999 101.712 254.133 101.712V101.712C253.266 101.712 252.435 101.367 251.822 100.755C251.209 100.142 250.865 99.3107 250.865 98.4441V96.146Z" fill="#EDF3F4"/>
    <path d="M254.428 101.286H253.857V104.847H254.428V101.286Z" fill="#EDF3F4"/>
    <path d="M256.028 104.681H252.261C252.067 104.681 251.91 104.838 251.91 105.032V105.036C251.91 105.23 252.067 105.387 252.261 105.387H256.028C256.222 105.387 256.379 105.23 256.379 105.036V105.032C256.379 104.838 256.222 104.681 256.028 104.681Z" fill="#EDF3F4"/>
    <path d="M258.672 96.146H265.207V98.4441C265.207 99.3107 264.862 100.142 264.25 100.755C263.637 101.367 262.806 101.712 261.939 101.712C261.51 101.712 261.085 101.627 260.689 101.463C260.292 101.299 259.932 101.058 259.629 100.755C259.325 100.451 259.085 100.091 258.921 99.6945C258.756 99.2981 258.672 98.8732 258.672 98.4441V96.146Z" fill="#EDF3F4"/>
    <path d="M262.224 101.286H261.654V104.847H262.224V101.286Z" fill="#EDF3F4"/>
    <path d="M263.825 104.681H260.058C259.864 104.681 259.707 104.838 259.707 105.032V105.036C259.707 105.23 259.864 105.387 260.058 105.387H263.825C264.019 105.387 264.176 105.23 264.176 105.036V105.032C264.176 104.838 264.019 104.681 263.825 104.681Z" fill="#EDF3F4"/>
    <path d="M249.893 125.938C254.076 125.938 257.467 122.547 257.467 118.364C257.467 114.181 254.076 110.79 249.893 110.79C245.709 110.79 242.318 114.181 242.318 118.364C242.318 122.547 245.709 125.938 249.893 125.938Z" fill="#EDF3F4"/>
    <path d="M249.892 122.614C252.239 122.614 254.142 120.712 254.142 118.365C254.142 116.017 252.239 114.115 249.892 114.115C247.545 114.115 245.643 116.017 245.643 118.365C245.643 120.712 247.545 122.614 249.892 122.614Z" fill="white"/>
    <path d="M280.251 116.943C280.18 117.079 280.106 117.215 280.027 117.347C278.948 119.156 277.209 120.476 275.175 121.027C273.142 121.578 270.974 121.318 269.129 120.301C267.284 119.284 265.907 117.59 265.287 115.576C264.667 113.563 264.854 111.388 265.808 109.509L280.251 116.943Z" fill="#EDF3F4"/>
    <path d="M280.031 117.347C279.312 118.564 278.289 119.573 277.061 120.275C275.834 120.976 274.445 121.344 273.031 121.344C271.617 121.344 270.228 120.976 269 120.275C267.773 119.573 266.75 118.564 266.031 117.347H280.031Z" fill="#DCE1E2"/>
    <path d="M271.527 125.916C273.681 125.916 275.747 125.061 277.271 123.537C278.794 122.014 279.65 119.948 279.65 117.794H263.4C263.402 119.949 264.258 122.015 265.782 123.538C267.306 125.061 269.373 125.916 271.527 125.916Z" fill="#EDF3F4"/>
    <path d="M214.592 171.248L217.043 171.081C217.543 171.303 217.942 171.703 218.162 172.204C218.53 173.046 215.855 182.291 214.89 183.168L214.289 182.87L213.32 182.098L211.737 176.783L211.127 172.774L214.592 171.248Z" fill="#003E63"/>
    <path d="M243.41 209.553L242.095 209.478L234.428 209.04C230.671 200.803 226.92 192.552 223.175 184.287L211.127 177.357L213.114 171.765L213.324 171.169C213.548 171.169 216.6 171.765 216.6 171.765L227.731 175.033L237.902 205.623L242.191 208.693L242.713 209.066L243.41 209.553Z" fill="#FF8A9F"/>
    <path d="M243.196 208.746L242.718 209.062L242.086 209.478L234.42 209.04C230.668 200.803 226.92 192.552 223.175 184.286L211.127 177.357L213.114 171.765L224.99 176.511L228.06 191.742L234.073 206.294L238.696 208.487L242.204 208.689L243.196 208.746Z" fill="#FF8189"/>
    <path d="M211.587 171.761L221.455 175.37C222.308 175.683 223.021 176.291 223.463 177.085C223.906 177.878 224.049 178.804 223.867 179.695L216.986 207.79L223.564 210.781C221.551 211.686 219.3 211.919 217.143 211.447C215.662 211.106 214.278 210.432 213.095 209.478C213.157 208.873 213.244 207.939 213.345 206.803C213.784 201.746 213.964 198.031 214.021 196.931C214.179 193.939 214.573 189.308 215.639 182.287L213.214 181.212L209.758 174.879L211.587 171.761Z" fill="#FF8A9F"/>
    <path d="M218.034 211.447C216.553 211.106 215.169 210.432 213.986 209.478C214.048 208.873 214.135 207.939 214.236 206.803C214.675 201.746 214.855 198.031 214.912 196.931C215.069 193.939 215.464 189.308 216.53 182.287L214.105 181.212L210.649 174.879L212.311 172.024L211.587 171.761L209.771 174.879L213.227 181.212L215.653 182.287C214.587 189.304 214.192 193.939 214.034 196.931C213.977 198.027 213.806 201.755 213.359 206.803C213.258 207.939 213.17 208.873 213.109 209.478C214.292 210.432 215.676 211.106 217.157 211.447C218.02 211.645 218.905 211.723 219.789 211.68C219.198 211.657 218.61 211.579 218.034 211.447Z" fill="#FF8189"/>
    <path d="M222.89 210.557L229.815 213.478C229.901 213.514 229.974 213.576 230.026 213.654C230.077 213.732 230.105 213.823 230.104 213.917V213.917C230.104 213.979 230.091 214.041 230.066 214.099C230.042 214.157 230.006 214.209 229.961 214.253C229.916 214.297 229.863 214.332 229.805 214.356C229.747 214.379 229.685 214.391 229.622 214.39L222.359 214.25C221.218 214.224 220.092 213.986 219.039 213.548L215.342 212.004L215.228 213.728C215.212 213.94 215.118 214.139 214.962 214.284C214.807 214.43 214.603 214.512 214.39 214.513H213.105C212.986 214.513 212.869 214.488 212.761 214.44C212.652 214.391 212.556 214.32 212.477 214.232C212.398 214.143 212.339 214.038 212.304 213.925C212.268 213.812 212.257 213.692 212.272 213.575L213.017 207.18C213.017 207.18 215.429 209.851 216.302 210.092C217.175 210.334 220.868 211.32 222.89 210.557Z" fill="#004F80"/>
    <path d="M242.313 208.465L248.918 210.566C249 210.592 249.071 210.641 249.125 210.707C249.179 210.773 249.212 210.854 249.221 210.939V210.939C249.226 210.997 249.22 211.055 249.203 211.111C249.185 211.166 249.157 211.218 249.119 211.262C249.082 211.307 249.036 211.343 248.984 211.37C248.932 211.396 248.875 211.412 248.817 211.417L242.134 211.899C241.085 211.974 240.031 211.851 239.028 211.535L235.52 210.43L235.559 212.022C235.564 212.218 235.494 212.408 235.363 212.555C235.233 212.701 235.053 212.793 234.858 212.811L233.682 212.917C233.574 212.927 233.464 212.915 233.361 212.88C233.258 212.845 233.164 212.789 233.084 212.714C233.004 212.64 232.941 212.55 232.899 212.449C232.857 212.349 232.837 212.241 232.84 212.132L232.985 206.198C232.985 206.198 235.423 208.448 236.243 208.597C237.064 208.746 240.524 209.334 242.313 208.465Z" fill="#004F80"/>
    <path d="M215.209 147.85H217.582C217.714 147.85 217.842 147.902 217.935 147.996C218.029 148.09 218.082 148.217 218.082 148.35C218.082 148.44 218.058 148.528 218.012 148.606C217.965 148.683 217.899 148.746 217.819 148.788L214.797 150.393L215.209 147.85Z" fill="#FF8189"/>
    <path d="M204.904 152.753L210.215 152.065L213.697 146.911C214.106 146.307 214.625 145.784 215.228 145.372L217.508 143.824L217.662 144.166C217.689 144.228 217.703 144.295 217.703 144.363C217.703 144.431 217.689 144.498 217.662 144.561L214.982 151.073L212.996 154.319L211.325 154.915L205.404 156.775L203.211 155.718L204.904 152.753Z" fill="#FF8A9F"/>
    <path d="M217.561 143.942L214.982 150.196L212.995 153.441L211.324 154.038L205.403 155.897L203.61 155.02L203.215 155.709L205.408 156.766L211.328 154.911L212.999 154.314L214.986 151.069L217.67 144.565C217.697 144.502 217.711 144.435 217.711 144.367C217.711 144.299 217.697 144.232 217.67 144.17L217.561 143.942Z" fill="#FF8189"/>
    <path d="M213.258 108.203L214.806 109.589C215.067 109.818 215.247 110.126 215.319 110.466L215.78 112.72L214.815 116.062C214.815 116.062 213.499 114.023 213.477 113.799C213.455 113.575 213.258 108.203 213.258 108.203Z" fill="#FF8189"/>
    <path d="M211.064 123.535L212.402 117.667V106.777C212.403 106.685 212.427 106.594 212.472 106.513C212.517 106.432 212.581 106.364 212.66 106.315C212.738 106.266 212.827 106.238 212.92 106.233C213.012 106.228 213.104 106.246 213.187 106.286C213.275 106.329 213.35 106.395 213.404 106.476C213.458 106.558 213.489 106.653 213.494 106.751L213.814 113L214.63 114L215.209 112.737L215.012 111.123C214.999 111.013 215.023 110.902 215.081 110.807C215.14 110.712 215.228 110.64 215.332 110.601V110.601C215.451 110.557 215.583 110.561 215.7 110.612C215.817 110.662 215.909 110.756 215.959 110.873L216.639 112.522C216.709 112.69 216.745 112.871 216.744 113.053V114.184C216.745 114.54 216.678 114.893 216.547 115.224L215.52 117.79L214.902 124.627L211.064 123.535Z" fill="#FF8A9F"/>
    <path d="M213.056 106.304L213.376 112.553L214.192 113.553L214.223 113.492L213.815 112.992L213.495 106.742C213.49 106.644 213.459 106.55 213.405 106.468C213.351 106.386 213.276 106.32 213.188 106.277C213.141 106.257 213.093 106.242 213.043 106.233C213.05 106.256 213.054 106.28 213.056 106.304V106.304Z" fill="#FF8189"/>
    <path d="M216.657 112.514L215.977 110.865C215.944 110.788 215.893 110.721 215.827 110.67C215.76 110.62 215.682 110.587 215.6 110.575L216.218 112.075C216.288 112.243 216.324 112.424 216.323 112.606V113.737C216.325 114.093 216.258 114.446 216.126 114.777L215.1 117.342L214.464 124.189L211.144 123.241L211.078 123.535L214.902 124.627L215.534 117.781L216.56 115.215C216.692 114.885 216.759 114.532 216.758 114.176V113.044C216.76 112.863 216.725 112.682 216.657 112.514V112.514Z" fill="#FF8189"/>
    <path d="M215.21 123.619C215.019 128.223 214.275 132.788 212.995 137.214C209.144 139.046 205.114 140.476 200.969 141.482C198.371 142.111 195.733 142.569 193.075 142.855L188.689 140.534L188.422 139.473C188.935 138.555 189.12 137.489 188.948 136.451C188.689 135.232 187.816 134.438 187.352 133.921C187.137 133.675 187.005 133.482 187.08 133.351C187.395 132.741 190.79 133.982 190.79 133.982C192.842 134.193 195.066 134.333 197.434 134.355C201.029 134.386 204.62 134.15 208.179 133.649C208.684 132.14 209.171 130.517 209.614 128.785C210.179 126.592 210.596 124.491 210.907 122.553C210.912 122.535 213.745 123.829 215.21 123.619Z" fill="#EE9087"/>
    <path opacity="0.12" d="M212.995 137.197C209.144 139.029 205.114 140.459 200.969 141.464C198.371 142.093 195.734 142.552 193.075 142.837L188.689 140.517L188.422 139.456C188.935 138.537 189.121 137.472 188.948 136.434C188.689 135.215 187.816 134.421 187.352 133.903L188.36 133.859L192.286 136.491C193.214 136.765 194.048 137.294 194.693 138.017C195.338 138.74 195.768 139.629 195.934 140.583V141.754C195.934 141.754 203.548 141.504 212.995 137.197Z" fill="black"/>
    <path d="M195.395 141.885C195.395 141.977 195.395 142.069 195.395 142.161C195.322 142.883 195.098 143.581 194.737 144.209C194.496 144.648 194.298 145.139 194.075 145.613C193.724 146.424 193.404 147.249 193.018 148.047C192.741 148.617 192.193 150.003 193.377 156.38C193.9 159.191 194.569 161.972 195.382 164.713C194.892 164.688 194.402 164.688 193.912 164.713C193.632 164.713 193.329 164.744 193.005 164.779C189.795 165.082 186.767 166.401 184.36 168.546V168.546C183.705 169.125 183.103 169.762 182.562 170.449L182.395 170.66C182.094 169.13 181.917 167.578 181.865 166.02C181.801 163.666 182.002 161.312 182.466 159.003C182.496 158.253 182.518 157.077 182.466 155.647C182.172 149.534 180.619 147.727 180.404 142.293C180.404 141.806 180.36 141.047 180.404 140.183C180.466 138.135 180.843 135.513 182.295 134.627C182.584 134.456 183.61 133.912 184.579 133.46C185.457 133.021 186.198 132.71 186.702 132.491L192.206 136.802L192.518 136.933C193.453 137.357 194.232 138.062 194.748 138.949C195.264 139.837 195.49 140.863 195.395 141.885V141.885Z" fill="#EE9087"/>
    <path d="M213.684 182.414L213.609 182.378L213.486 182.321L213.28 182.225L213.065 182.128C212.767 181.997 212.442 181.861 212.096 181.729C211.837 181.629 211.565 181.532 211.289 181.444L210.824 181.295L210.285 181.142L210.061 181.085C209.89 181.041 209.715 181.001 209.543 180.966C208.324 180.712 207.078 180.612 205.833 180.668C193.189 181.107 186.865 181.308 184.299 178.589C182.44 176.62 181.834 173.203 182.545 170.436C182.741 169.609 183.086 168.824 183.562 168.12C183.714 167.907 183.88 167.703 184.058 167.511C184.106 167.455 184.157 167.402 184.211 167.353C184.338 167.224 184.471 167.103 184.611 166.989C184.821 166.813 185.023 166.664 185.216 166.528L185.268 166.493C186.049 165.932 188.303 164.524 192.987 164.765C193.351 164.765 193.728 164.814 194.123 164.853C194.79 164.919 195.5 165.02 196.259 165.156C201.14 166.033 202.127 167.449 207.618 169.164C208.175 169.34 208.723 169.498 209.254 169.642C211.807 170.343 214.414 170.829 217.048 171.094C216.002 171.223 215.02 171.663 214.227 172.357C213.378 173.084 212.801 174.078 212.592 175.177C212.236 177.414 214.039 178.072 213.877 180.418C213.877 180.501 213.877 180.585 213.877 180.672C213.772 181.184 213.709 181.703 213.688 182.225C213.686 182.26 213.686 182.295 213.688 182.33L213.684 182.414Z" fill="#004F80"/>
    <path d="M214.903 183.16C214.903 183.16 214.903 183.16 214.903 183.186C214.873 183.269 214.281 183.239 213.938 182.888C213.813 182.756 213.729 182.589 213.697 182.41C214.058 182.577 214.404 182.774 214.732 182.997L214.811 183.063C214.849 183.088 214.881 183.121 214.903 183.16V183.16Z" fill="#39B9CE"/>
    <path d="M213.851 180.673C213.878 180.444 213.887 180.214 213.877 179.984C213.038 179.662 212.176 179.403 211.298 179.212C210.079 178.957 208.832 178.858 207.588 178.919C194.944 179.357 188.619 179.554 186.054 176.84C183.663 174.309 183.352 169.384 185.212 166.524C184.569 166.952 184.008 167.493 183.558 168.121C181.58 170.958 181.865 176.015 184.299 178.594C186.865 181.309 193.189 181.098 205.833 180.673C207.078 180.612 208.325 180.711 209.544 180.967C210.977 181.283 212.367 181.77 213.684 182.418C213.659 181.832 213.716 181.244 213.851 180.673V180.673Z" fill="#004671"/>
    <path d="M213.684 182.418C213.716 182.598 213.8 182.764 213.925 182.897C214.267 183.247 214.859 183.278 214.89 183.195C214.92 183.111 214.464 182.796 213.684 182.418Z" fill="#2CA8B5"/>
    <path opacity="0.12" d="M195.36 164.704C194.871 164.679 194.38 164.679 193.891 164.704C191.571 163.086 190.045 160.994 189.088 159.683C188.431 158.784 188.61 158.898 186.804 156.231C186.282 155.459 185.957 154.999 183.852 151.942L182.738 150.328C183.089 152.521 183.317 154.398 183.462 155.841C183.751 158.665 183.9 160.077 183.852 161.354C183.764 163.889 183.356 164.485 183.742 166.257C183.839 166.695 183.944 167.134 184.049 167.52C184.155 167.906 184.251 168.257 184.339 168.533C183.684 169.112 183.082 169.75 182.541 170.436L182.374 170.647C182.073 169.117 181.895 167.565 181.843 166.007C181.779 163.653 181.981 161.299 182.444 158.99C182.475 158.24 182.497 157.064 182.444 155.635C182.15 149.521 180.598 147.714 180.383 142.28C180.383 141.793 180.339 141.034 180.383 140.17L180.585 140.205C183.333 140.693 186.014 141.499 188.575 142.609C189.891 144.99 191.303 147.661 192.062 149.262C192.281 149.724 192.483 150.136 192.667 150.499C192.749 152.479 192.991 154.448 193.391 156.389C193.615 157.582 193.9 158.981 194.268 160.555C194.553 161.832 194.922 163.218 195.36 164.704Z" fill="black"/>
    <path opacity="0.12" d="M209.25 169.638C208.638 169.831 207.996 169.909 207.355 169.866C205.062 169.813 203.899 168.642 201.654 167.528C198.316 165.853 198.123 167.09 195.308 165.577C194.892 165.357 194.49 165.114 194.102 164.849C194.768 164.914 195.479 165.015 196.237 165.151C201.119 166.028 202.106 167.445 207.597 169.16C208.171 169.335 208.719 169.493 209.25 169.638Z" fill="black"/>
    <path d="M185.855 129.066C186.219 129.974 185.693 130.662 186.228 131.811C186.481 132.344 186.864 132.804 187.342 133.149C188.513 134.026 188.846 134.026 189.421 134.785C189.886 135.386 190.399 136.495 189.969 137.079C189.539 137.662 188.469 137.539 187.75 137.289C186.193 136.745 186.14 135.333 184.798 134.785C184.228 134.552 183.272 134.412 181.728 135.144C181.808 133.5 181.758 131.852 181.579 130.215C181.395 128.561 181.185 127.842 181.632 127.434C182.483 126.649 185.233 127.504 185.855 129.066Z" fill="#FF8A9F"/>
    <path d="M188.627 136.85C187.071 136.306 187.018 134.894 185.676 134.346C185.106 134.113 184.15 133.973 182.606 134.706C182.686 133.061 182.636 131.413 182.457 129.776C182.294 128.316 182.115 127.583 182.382 127.145C182.108 127.153 181.844 127.251 181.632 127.425C181.194 127.833 181.395 128.552 181.58 130.206C181.759 131.843 181.808 133.491 181.729 135.135C183.281 134.403 184.237 134.543 184.799 134.776C186.141 135.324 186.193 136.736 187.75 137.28C188.47 137.53 189.566 137.618 189.97 137.069C189.97 137.069 189.97 137.039 189.996 137.021C189.533 137.058 189.067 137 188.627 136.85V136.85Z" fill="#FF8189"/>
    <path d="M188.79 116.702C188.79 116.702 190.237 123.013 190.351 123.053C190.576 123.594 190.757 124.153 190.891 124.724C190.952 124.946 190.95 125.182 190.885 125.403C190.82 125.625 190.694 125.824 190.522 125.978L189.943 126.504C189.911 127.153 189.973 127.803 190.127 128.434C190.399 129.544 190.816 129.978 190.61 130.456C190.347 131.057 189.342 131.158 188.715 131.219C187.361 131.388 185.989 131.101 184.816 130.403C183.663 129.613 182.69 128.588 181.961 127.395V127.395L178.939 122.272L181.571 117.886L184.54 116.514L186.044 113.794L188.79 116.702Z" fill="#FF8A9F"/>
    <path d="M185.435 115.641L186.295 114.071L186.045 113.808L184.904 115.886L185.435 115.641Z" fill="#FF8189"/>
    <path d="M189.592 130.342C188.238 130.511 186.866 130.224 185.694 129.526C184.54 128.736 183.567 127.711 182.838 126.517L179.817 121.395L182.071 117.667L181.588 117.891L178.957 122.276L181.961 127.39C182.69 128.583 183.663 129.609 184.816 130.399C185.989 131.096 187.361 131.383 188.715 131.215C189.342 131.153 190.347 131.052 190.61 130.451C190.647 130.36 190.664 130.261 190.658 130.162C190.309 130.255 189.952 130.315 189.592 130.342Z" fill="#FF8189"/>
    <path d="M175.822 123.706C175.383 126.566 171.436 126.575 170.524 129.561C169.686 132.302 171.616 136.925 175.348 137.508C176.763 137.682 178.194 137.361 179.4 136.6C180.605 135.839 181.51 134.685 181.962 133.333C182.316 132.001 182.187 130.587 181.598 129.342C182.181 130.557 182.567 130.772 182.813 130.741C183.453 130.662 184.08 128.789 183.69 127.189C183.303 125.899 182.57 124.74 181.571 123.838C181.142 123.518 180.793 123.102 180.554 122.623C180.282 121.969 180.168 120.891 180.734 120.465C181.3 120.04 182.44 120.268 183.26 121.259C183.596 121.308 183.939 121.292 184.269 121.211C186.124 120.728 186.712 118.167 186.773 117.891C187.022 116.621 186.816 115.304 186.19 114.172C187.366 115.414 188.013 117.066 187.992 118.777C188.472 118.636 188.884 118.324 189.15 117.899C189.948 116.549 188.624 114.185 186.957 113.075C186.211 112.583 185.356 112.281 184.466 112.198C183.47 111.823 182.41 111.65 181.347 111.689C180.284 111.727 179.239 111.976 178.273 112.422C176.12 113.457 174.177 115.654 174.054 118.071C173.892 120.812 176.155 121.491 175.822 123.706Z" fill="#5B1C10"/>
    <path d="M185.136 120.772C184.806 120.853 184.464 120.869 184.127 120.82C183.307 119.829 182.149 119.614 181.601 120.026C181.516 120.094 181.445 120.178 181.391 120.272C181.754 120.292 182.108 120.391 182.429 120.561C182.75 120.732 183.03 120.97 183.25 121.259C183.586 121.308 183.929 121.292 184.259 121.211C184.578 121.125 184.876 120.976 185.136 120.772V120.772Z" fill="#5B1C10"/>
    <path d="M176.208 137.07C172.493 136.486 170.563 131.864 171.383 129.123C172.291 126.136 176.247 126.123 176.681 123.268C177.015 121.053 174.752 120.355 174.892 117.641C175.006 115.448 176.646 113.413 178.558 112.29C178.449 112.334 178.343 112.378 178.234 112.43C176.08 113.465 174.138 115.663 174.015 118.079C173.874 120.794 176.137 121.491 175.804 123.706C175.366 126.561 171.418 126.574 170.506 129.561C169.668 132.302 171.598 136.925 175.33 137.508C176.689 137.692 178.07 137.401 179.238 136.684C178.281 137.083 177.234 137.216 176.208 137.07Z" fill="#5B1C10"/>
    <path d="M188.443 115.956C188.133 115.131 187.662 114.375 187.057 113.733C187.587 114.698 187.82 115.798 187.728 116.895C187.901 117.507 187.986 118.141 187.982 118.777C188.307 118.669 188.606 118.494 188.859 118.263C188.858 117.476 188.717 116.695 188.443 115.956V115.956Z" fill="#5B1C10"/>
    <path d="M182.447 128.903C182.702 129.461 182.876 130.051 182.965 130.658C183.13 130.54 183.262 130.381 183.346 130.197C182.947 129.844 182.639 129.4 182.447 128.903V128.903Z" fill="#2CA8B5"/>
    <path d="M205.757 156.814C205.757 156.814 198.508 159.752 194.245 160.555C193.517 160.72 192.77 160.779 192.026 160.73C192.026 160.73 181.456 149.327 181.355 146.293C181.226 144.247 180.956 142.213 180.548 140.205C180.351 139.183 180.197 138.495 180.197 138.495L181.074 137.85C181.504 137.537 181.995 137.319 182.515 137.209C183.035 137.1 183.572 137.103 184.091 137.217C184.61 137.331 185.099 137.554 185.526 137.871C185.952 138.188 186.307 138.592 186.565 139.056C187.083 139.981 187.785 141.249 188.53 142.609C189.846 144.99 191.258 147.661 192.017 149.262C192.236 149.724 192.438 150.136 192.622 150.498C193.811 152.845 194.311 153.349 194.311 153.349C194.311 153.349 202.332 152.012 205.152 152.419C205.161 152.419 205.012 155.529 205.757 156.814Z" fill="#EE9087"/>
    <path d="M180.646 138.289C181.075 137.976 181.566 137.758 182.086 137.649C182.606 137.539 183.144 137.542 183.663 137.656C184.182 137.77 184.671 137.993 185.097 138.31C185.524 138.627 185.878 139.031 186.137 139.495C186.654 140.421 187.356 141.688 188.101 143.048C189.417 145.429 190.829 148.1 191.588 149.701C191.807 150.163 192.009 150.575 192.193 150.938C193.382 153.284 193.882 153.788 193.882 153.788C193.882 153.788 201.903 152.451 204.723 152.859C204.723 152.859 204.592 155.648 205.21 157.034L205.758 156.814C205.013 155.529 205.162 152.429 205.162 152.429C202.342 152.021 194.32 153.358 194.32 153.358C194.32 153.358 193.82 152.854 192.632 150.508C192.448 150.145 192.246 149.733 192.027 149.271C191.268 147.67 189.834 144.999 188.54 142.618C187.794 141.258 187.093 139.986 186.575 139.065C186.316 138.601 185.962 138.197 185.536 137.88C185.109 137.563 184.62 137.34 184.101 137.226C183.582 137.112 183.045 137.11 182.525 137.219C182.005 137.328 181.514 137.546 181.084 137.859L180.207 138.504L180.229 138.609L180.646 138.289Z" fill="#F08175"/>
    <path d="M224.511 168.976L216.604 214.64H219.274L229.743 168.976H224.511Z" fill="white"/>
    <path d="M256.808 168.976L264.716 214.64H262.045L251.576 168.976H256.808Z" fill="white"/>
    <path d="M225.827 168.976L217.919 214.64H216.604L224.511 168.976H225.827Z" fill="#EDF3F4"/>
    <path d="M263.361 214.64H262.045L251.576 168.976H252.892L263.361 214.64Z" fill="#EDF3F4"/>
    <path d="M259.111 164.41H222.209C220.63 164.41 219.35 165.69 219.35 167.27C219.35 168.849 220.63 170.129 222.209 170.129H259.111C260.69 170.129 261.97 168.849 261.97 167.27C261.97 165.69 260.69 164.41 259.111 164.41Z" fill="white"/>
    <path d="M220.665 168.147C220.665 167.388 220.967 166.661 221.503 166.125C222.039 165.589 222.767 165.287 223.525 165.287H260.427C260.724 165.287 261.02 165.331 261.304 165.419C261.034 165.101 260.698 164.845 260.319 164.671C259.94 164.497 259.528 164.408 259.111 164.41H222.209C221.527 164.409 220.866 164.652 220.347 165.095C219.828 165.538 219.484 166.152 219.378 166.826C219.272 167.5 219.411 168.19 219.769 168.771C220.128 169.352 220.682 169.785 221.332 169.993C220.899 169.476 220.663 168.822 220.665 168.147V168.147Z" fill="#EDF3F4"/>
    <path d="M245.028 162.516H227.989C227.481 162.516 227.068 162.927 227.068 163.434C227.068 163.942 227.481 164.353 227.989 164.353H245.028C245.537 164.353 245.949 163.942 245.949 163.434C245.949 162.927 245.537 162.516 245.028 162.516Z" fill="#004F80"/>
    <path d="M250.428 147.264L244.178 163.114C243.991 163.588 244.223 164.122 244.695 164.308C245.167 164.494 245.701 164.262 245.887 163.788L252.137 147.938C252.324 147.464 252.093 146.93 251.621 146.744C251.148 146.558 250.615 146.79 250.428 147.264Z" fill="#004F80"/>
    <path d="M95.6096 203.785C95.6096 203.785 94.4123 208.926 94.443 209.009C94.2174 209.388 93.9622 209.749 93.6799 210.088C93.5485 210.259 93.3641 210.382 93.1554 210.438C92.9468 210.493 92.7256 210.478 92.5265 210.395L79.6543 205.132C79.426 205.04 79.241 204.865 79.1361 204.642C79.0313 204.419 79.0143 204.165 79.0885 203.93L79.3517 203.084C79.4477 202.772 79.6425 202.5 79.9067 202.308C80.171 202.117 80.4903 202.016 80.8165 202.022L90.4388 202.163C90.6026 202.164 90.7642 202.125 90.909 202.049C91.0538 201.972 91.1771 201.861 91.2677 201.724L95.4079 203.654L95.6096 203.785Z" fill="#004F80"/>
    <path d="M95.3955 203.641L94.5183 203.242C94.185 204.68 93.5096 207.627 93.5316 207.693C93.3059 208.072 93.0508 208.433 92.7684 208.772C92.637 208.943 92.4526 209.066 92.244 209.122C92.0353 209.178 91.8142 209.162 91.615 209.079L79.0761 203.93C79.0046 204.163 79.023 204.415 79.1277 204.635C79.2325 204.855 79.4159 205.027 79.6419 205.119L92.5141 210.382C92.7132 210.465 92.9344 210.48 93.143 210.425C93.3517 210.369 93.5361 210.246 93.6675 210.075C93.9498 209.736 94.205 209.375 94.4306 208.996C94.3999 208.912 95.5972 203.772 95.5972 203.772L95.3955 203.641Z" fill="#01496D"/>
    <path d="M97.317 200.031L95.2644 203.54L95.396 203.632L91.2559 201.702C91.2932 201.654 91.3242 201.601 91.348 201.544L92.9619 197.746C93.0016 197.66 93.0516 197.579 93.111 197.505C93.2554 197.331 93.4559 197.212 93.6782 197.168C93.9006 197.125 94.1311 197.16 94.3303 197.268L96.931 198.663C97.0485 198.725 97.1521 198.811 97.2356 198.914C97.3192 199.017 97.3808 199.137 97.4169 199.265C97.453 199.392 97.4627 199.526 97.4456 199.658C97.4284 199.79 97.3846 199.917 97.317 200.031V200.031Z" fill="#FF8A9F"/>
    <path d="M96.9257 198.672H96.8994C96.9729 198.818 97.009 198.979 97.0044 199.142C96.9998 199.305 96.9547 199.465 96.8731 199.606L94.8205 203.115L94.9521 203.207L91.3558 201.531V201.558C91.332 201.614 91.301 201.667 91.2637 201.716L95.4038 203.645L95.2723 203.553L97.3248 200.045C97.3927 199.929 97.4363 199.801 97.4529 199.668C97.4695 199.535 97.4588 199.401 97.4214 199.272C97.3841 199.144 97.3208 199.024 97.2356 198.921C97.1503 198.818 97.0449 198.733 96.9257 198.672V198.672Z" fill="#FF8189"/>
    <path d="M115.982 205.457C115.982 205.457 117.627 210.474 117.692 210.526C117.699 210.967 117.668 211.407 117.6 211.842C117.581 212.06 117.489 212.264 117.34 212.423C117.19 212.583 116.992 212.687 116.776 212.719L103.035 214.912C102.792 214.952 102.543 214.899 102.337 214.764C102.131 214.628 101.984 214.419 101.926 214.18L101.711 213.303C101.632 212.986 101.658 212.653 101.784 212.353C101.911 212.052 102.131 211.801 102.412 211.636L110.71 206.759C110.852 206.677 110.97 206.56 111.054 206.42C111.139 206.279 111.186 206.12 111.193 205.957L115.732 205.457H115.982Z" fill="#004F80"/>
    <path d="M117.693 210.518C117.627 210.465 115.983 205.448 115.983 205.448H115.733L114.974 205.531C115.456 206.987 116.329 209.619 116.377 209.658C116.384 210.098 116.353 210.539 116.285 210.974C116.266 211.191 116.174 211.396 116.025 211.555C115.875 211.714 115.676 211.818 115.461 211.851L101.887 213.996L101.926 214.167C101.985 214.406 102.132 214.615 102.337 214.75C102.543 214.886 102.793 214.939 103.036 214.899L116.776 212.706C116.992 212.674 117.191 212.569 117.34 212.41C117.49 212.251 117.582 212.047 117.601 211.829C117.668 211.395 117.699 210.957 117.693 210.518V210.518Z" fill="#01496D"/>
    <path d="M115.499 201.347L115.573 205.422H115.731L111.192 205.922C111.201 205.861 111.201 205.799 111.192 205.738L110.6 201.654C110.589 201.56 110.589 201.464 110.6 201.369C110.631 201.145 110.74 200.939 110.908 200.787C111.075 200.635 111.291 200.546 111.517 200.536L114.464 200.378C114.596 200.37 114.729 200.39 114.854 200.435C114.978 200.48 115.093 200.55 115.189 200.641C115.286 200.731 115.364 200.841 115.417 200.962C115.47 201.084 115.498 201.215 115.499 201.347Z" fill="#FF8A9F"/>
    <path d="M115.573 205.421L115.499 201.347C115.497 201.215 115.468 201.085 115.414 200.964C115.36 200.844 115.283 200.736 115.186 200.646C115.089 200.556 114.976 200.487 114.851 200.442C114.727 200.398 114.595 200.379 114.464 200.386L113.876 200.417C114.085 200.469 114.271 200.588 114.406 200.756C114.541 200.924 114.616 201.132 114.622 201.347L114.696 205.421H114.854L111.188 205.825C111.192 205.857 111.192 205.889 111.188 205.921L115.727 205.421H115.573Z" fill="#FF8189"/>
    <path d="M134.476 173.094L125.043 175.247L108.136 183.326L97.0527 200.79L96.0308 200.404L91.9258 198.878L99.75 180.116C100.393 178.574 101.365 177.192 102.6 176.067C103.834 174.941 105.3 174.1 106.894 173.603L131.691 165.875L131.906 166.432L134.476 173.094Z" fill="#004F80"/>
    <path d="M134.477 173.094L125.043 175.247L108.136 183.326L97.0531 200.79L96.0312 200.404L104.627 186.76L104.86 179.366C104.9 178.12 105.325 176.917 106.078 175.923C106.83 174.93 107.873 174.194 109.061 173.818L131.354 166.748L131.907 166.415L134.477 173.094Z" fill="#01496D"/>
    <path d="M146.047 173.397C145.907 175.664 145.608 177.401 145.608 177.401L123.087 180.519L116.004 181.809C115.533 181.895 115.111 182.152 114.818 182.531C114.525 182.91 114.382 183.384 114.417 183.861L115.921 203.983H110.882L106.058 181.844C105.709 180.245 105.952 178.573 106.743 177.14C107.533 175.706 108.817 174.609 110.356 174.05L131.885 166.253L132.455 166.046L136.442 164.603L136.968 164.41C136.968 164.41 143.034 161.634 145.029 164.932C145.134 165.096 145.222 165.269 145.293 165.45C145.612 166.289 145.828 167.164 145.933 168.055C145.981 168.384 146.016 168.717 146.042 169.059C146.145 170.503 146.146 171.953 146.047 173.397Z" fill="#004F80"/>
    <path d="M145.909 168.055C145.958 168.384 145.993 168.717 146.019 169.059C145.459 169.542 144.786 169.876 144.063 170.033C142.975 170.34 142.69 170.077 140.274 170.059C137.857 170.042 137.713 170.3 137.015 169.976C135.805 169.419 135.967 168.502 134.511 167.248C134.26 167.032 133.993 166.835 133.713 166.66C133.309 166.41 132.88 166.204 132.432 166.046C131.941 165.862 131.638 165.783 131.643 165.577C131.643 165.037 133.783 164.726 136.419 164.603C138.248 164.515 140.326 164.52 142.12 164.603C143.093 164.621 144.063 164.731 145.015 164.932C145.431 165.018 145.826 165.187 146.177 165.428L146.326 167.862L145.909 168.055Z" fill="#01496D"/>
    <path d="M146.045 173.396C145.905 175.664 145.607 177.401 145.607 177.401L123.086 180.519L116.003 181.808C115.532 181.895 115.109 182.152 114.816 182.531C114.523 182.91 114.381 183.383 114.415 183.861L115.92 203.983H115.38C114.775 196.659 114.578 192.992 114.547 191.027C114.512 189.146 114.578 186.084 114.065 184.751C113.825 184.243 113.734 183.677 113.801 183.12C113.801 183.12 113.801 183.089 113.845 182.931C113.889 182.773 113.964 182.493 114.1 182.006L112.652 182.08C113.464 181.804 114.284 181.532 115.104 181.265C125.23 177.951 135.567 175.323 146.045 173.396V173.396Z" fill="#01496D"/>
    <path d="M97.3906 156.757L100.465 156.915L102.807 154.731L100.224 153.262L97.9081 154.963L97.3906 156.757Z" fill="#FF8189"/>
    <path d="M113.447 153.858C113.412 153.819 105.399 152.779 105.399 152.779L99.5181 152.222L96.6191 154.34L96.6674 158.568L97.4437 158.608L98.3515 155.406L100.044 154.253L101.68 154.968L100.606 156.38L99.0795 156.472L98.641 157.529L101.522 157.862L104.272 155.709L113.228 157.937L113.447 153.858Z" fill="#FF8A9F"/>
    <path d="M130.468 137.039L131.385 136.6C131.913 136.353 132.499 136.257 133.078 136.323C133.657 136.389 134.207 136.614 134.666 136.973L135.736 137.811C136.167 138.148 136.504 138.592 136.711 139.099C136.919 139.605 136.991 140.158 136.92 140.701C136.868 141.128 136.726 141.539 136.503 141.907L126.828 158.209C126.399 158.932 125.756 159.503 124.987 159.845C124.219 160.187 123.363 160.282 122.539 160.117L110.32 157.687L110.882 153.336L121.78 154.744L128.916 138.609C129.227 137.915 129.779 137.358 130.468 137.039V137.039Z" fill="#83B7AD"/>
    <path d="M111.32 153.779L122.219 155.187L129.354 139.052C129.665 138.354 130.216 137.792 130.907 137.469L131.824 137.03C132.352 136.783 132.938 136.687 133.517 136.753C134.096 136.818 134.645 137.043 135.104 137.403L136.174 138.24L136.218 138.28C136.075 138.103 135.914 137.943 135.736 137.802L134.666 136.964C134.207 136.605 133.657 136.38 133.078 136.314C132.499 136.248 131.913 136.344 131.385 136.591L130.468 137.03C129.777 137.354 129.226 137.916 128.916 138.613L121.78 154.748L110.882 153.341L110.32 157.691L110.807 157.788L111.32 153.779Z" fill="#5A9687"/>
    <path opacity="0.12" d="M135.736 137.815L134.666 136.977C134.369 136.748 134.033 136.574 133.674 136.464L133.788 136.539L134.859 137.377C135.29 137.714 135.627 138.158 135.834 138.665C136.042 139.171 136.114 139.724 136.043 140.267C135.991 140.694 135.849 141.105 135.626 141.473L125.951 157.775C125.522 158.498 124.878 159.069 124.11 159.411C123.342 159.753 122.486 159.848 121.662 159.683L110.355 157.433L110.32 157.691L122.539 160.121C123.363 160.286 124.219 160.191 124.987 159.85C125.756 159.508 126.399 158.936 126.828 158.213L136.503 141.911C136.726 141.543 136.868 141.132 136.92 140.705C136.991 140.162 136.919 139.61 136.711 139.103C136.504 138.596 136.167 138.152 135.736 137.815V137.815Z" fill="black"/>
    <path d="M146.319 167.862L145.911 168.055C142.402 169.647 140.152 169.436 138.687 168.862C137.407 168.362 136.174 167.362 133.714 166.669C133.587 166.629 133.451 166.594 133.315 166.559C132.784 166.423 132.293 166.327 131.863 166.261C131.433 166.195 131.135 166.156 130.859 166.125C130.531 164.222 130.204 162.321 129.877 160.424L129.034 155.503C128.986 155.244 128.942 154.99 128.898 154.731L128.833 154.341L128.464 149.319C128.124 144.75 129.34 140.201 131.916 136.412C132.175 136.026 132.451 135.648 132.74 135.28L133.179 134.727L139.648 132.478C140.202 133.252 140.899 133.915 141.7 134.429C142.885 135.179 143.705 135.192 144.595 136.183C144.984 136.59 145.283 137.074 145.472 137.604C145.911 139.131 145.722 141.148 145.709 141.451C145.709 141.731 145.599 155.428 145.599 155.761C145.599 155.998 145.963 161.954 146.174 165.41L146.319 167.862Z" fill="#83B7AD"/>
    <path d="M139.126 168.862C137.846 168.362 136.613 167.362 134.153 166.669C134.026 166.629 133.89 166.594 133.754 166.559C133.223 166.423 132.732 166.327 132.302 166.261C131.872 166.195 131.574 166.156 131.298 166.125C130.97 164.222 130.643 162.321 130.315 160.424L129.473 155.503C129.425 155.244 129.381 154.99 129.337 154.731L129.272 154.34L128.903 149.319C128.563 144.75 129.779 140.201 132.355 136.412C132.613 136.026 132.89 135.648 133.179 135.28L133.618 134.727L139.758 132.596L139.666 132.478L133.197 134.727L132.758 135.28C132.469 135.648 132.192 136.026 131.934 136.412C129.352 140.198 128.129 144.748 128.465 149.319L128.833 154.327L128.899 154.718C128.943 154.976 128.986 155.231 129.035 155.49L129.877 160.41C130.207 162.314 130.535 164.214 130.859 166.112C131.135 166.143 131.473 166.182 131.863 166.248C132.254 166.314 132.784 166.41 133.315 166.546C133.451 166.581 133.587 166.616 133.714 166.656C136.175 167.357 137.407 168.357 138.688 168.849C139.505 169.166 140.377 169.315 141.253 169.287C140.525 169.27 139.805 169.126 139.126 168.862Z" fill="#5A9687"/>
    <path opacity="0.12" d="M123.451 170.463C120.591 171.292 118.811 172.217 118.881 172.467C118.929 172.634 119.758 172.357 120.477 172.875C120.973 173.221 120.947 173.581 121.223 173.8C122.069 174.476 124.267 172.625 127.196 171.055C130.025 169.542 131.442 168.783 133.336 168.529C134.499 168.375 135.968 168.366 137.235 167.305C137.711 166.918 138.102 166.437 138.384 165.893C139.108 164.485 138.612 163.432 138.683 161.998C138.792 159.805 140.086 159.805 141.314 156.538C142.261 154.034 141.481 154.086 142.503 151.275C143.143 149.521 143.612 149.038 144.656 146.188C145.038 145.257 145.311 144.286 145.472 143.293C145.643 142.097 145.618 140.881 145.397 139.692C143.937 140.573 142.644 141.704 141.577 143.034C137.604 148.012 139.564 152.626 135.56 155.99C134.468 156.906 133.139 157.564 133.108 158.775C133.078 159.985 134.52 160.411 134.863 162.525C134.946 163.033 134.836 162.862 134.937 164.976C134.985 165.928 135.016 166.217 134.827 166.533C134.428 167.2 133.512 167.217 132.6 167.388C130.784 167.726 130.845 168.318 128.442 169.244C126.433 170.011 126.363 169.616 123.451 170.463Z" fill="black"/>
    <path d="M116.135 155.898L112.929 157.305L112.596 157.45C111.372 157.735 109.85 158.09 109.785 158.09C109.719 158.09 108.03 158.968 106.947 159.542C106.867 159.581 106.8 159.642 106.753 159.717C106.707 159.792 106.682 159.879 106.682 159.968C106.682 160.056 106.707 160.143 106.753 160.218C106.8 160.293 106.867 160.354 106.947 160.393C107.042 160.44 107.15 160.454 107.254 160.432L108.57 160.143L107.105 161.349C107.035 161.407 106.984 161.484 106.956 161.57C106.928 161.656 106.925 161.748 106.947 161.836C106.969 161.924 107.015 162.004 107.08 162.067C107.145 162.129 107.227 162.173 107.315 162.191L110.657 162.875C110.717 162.89 110.779 162.891 110.84 162.88C110.9 162.868 110.958 162.844 111.008 162.81L114.912 160.318L116.618 158.968L124.073 159.639V155.722L116.135 155.898Z" fill="#FF8A9F"/>
    <path d="M139.336 136.806L140.214 136.267C140.706 135.954 141.275 135.784 141.858 135.776C142.441 135.767 143.015 135.92 143.516 136.219L144.683 136.912C145.154 137.19 145.545 137.588 145.817 138.064C146.088 138.54 146.231 139.078 146.231 139.626V139.626C146.231 140.056 146.143 140.482 145.972 140.876L138.459 158.279C138.126 159.051 137.561 159.701 136.844 160.139C136.126 160.577 135.29 160.782 134.451 160.726L122.021 159.875V155.49H133.012L138.021 138.578C138.233 137.849 138.7 137.22 139.336 136.806V136.806Z" fill="#83B7AD"/>
    <path d="M139.335 136.807C138.657 137.282 138.186 137.999 138.02 138.811L137.362 141.214C136.923 142.806 136.485 144.412 136.011 146.004L134.625 150.78L133.191 155.547L133.147 155.687H133.002C131.169 155.687 129.34 155.657 127.507 155.626C125.674 155.595 123.845 155.551 122.012 155.49C123.845 155.433 125.678 155.38 127.507 155.358C129.336 155.336 131.169 155.297 133.002 155.297L132.814 155.437L134.208 150.657L135.647 145.894C136.121 144.306 136.629 142.727 137.121 141.14L137.879 138.771C138.089 137.951 138.612 137.246 139.335 136.807Z" fill="#83B7AD"/>
    <path d="M138.831 134.521L136.397 136.828C136.116 137.092 135.766 137.27 135.388 137.341L135.068 137.403C134.748 137.481 134.414 137.48 134.095 137.399C133.776 137.318 133.482 137.16 133.239 136.938C133.026 136.74 132.866 136.493 132.773 136.218C132.68 135.943 132.656 135.65 132.704 135.363C132.787 135.078 132.954 134.964 133.213 134.337C133.287 134.149 133.344 133.986 133.384 133.864C133.385 133.84 133.385 133.817 133.384 133.793L133.235 130.697L137.62 125.947L137.844 125.706L139.546 131.934C139.67 132.39 139.669 132.87 139.543 133.326C139.417 133.781 139.171 134.194 138.831 134.521V134.521Z" fill="#FF8A9F"/>
    <path d="M135.959 129.623C135.367 131.166 135.34 132.008 134.437 132.964C134.131 133.317 133.773 133.62 133.376 133.864C133.377 133.84 133.377 133.817 133.376 133.793L133.227 130.697L137.612 125.947C137.968 126.469 136.937 127.074 135.959 129.623Z" fill="#FF8189"/>
    <path d="M125.674 122.789L127.459 127.285L127.897 129.605C127.93 129.769 127.996 129.924 128.091 130.062C128.186 130.199 128.308 130.316 128.45 130.405C128.591 130.493 128.749 130.552 128.915 130.578C129.08 130.603 129.248 130.594 129.41 130.552C129.41 130.552 129.485 132.666 130.34 133.407C131.195 134.149 133.757 134.078 135.055 130.776C136.353 127.473 139.103 126.324 139.103 122.982C139.103 119.641 138.397 115.851 135.91 114.737C133.423 113.623 128.928 113.86 127.814 115.334C126.7 116.807 124.674 117.965 125.674 122.789Z" fill="#FF8A9F"/>
    <path d="M128.789 130.482L128.35 128.162L126.565 123.667C125.565 118.842 127.605 117.693 128.719 116.211C129.833 114.729 134.328 114.505 136.815 115.614C137.047 115.724 137.268 115.858 137.472 116.014C137.08 115.463 136.551 115.023 135.937 114.737C133.451 113.628 128.955 113.86 127.841 115.334C126.727 116.807 124.688 117.965 125.688 122.79L127.473 127.285L127.912 129.605C127.956 129.828 128.062 130.034 128.217 130.201C128.371 130.367 128.57 130.487 128.789 130.548C128.806 130.526 128.793 130.504 128.789 130.482Z" fill="#FF8189"/>
    <path d="M130.301 131.43C130.038 131.496 129.761 131.474 129.512 131.368C129.617 132.044 129.845 132.969 130.354 133.408C130.484 133.516 130.632 133.601 130.792 133.658C130.503 132.948 130.337 132.195 130.301 131.43V131.43Z" fill="#FF8189"/>
    <path d="M142.866 118.356C142.863 117.977 142.765 117.604 142.581 117.273C142.834 117.069 143.04 116.814 143.185 116.524C143.33 116.233 143.411 115.916 143.422 115.591C143.433 115.267 143.375 114.944 143.25 114.645C143.125 114.346 142.937 114.076 142.7 113.856C142.82 113.559 142.876 113.241 142.864 112.921C142.852 112.601 142.772 112.287 142.63 112C142.488 111.713 142.287 111.46 142.039 111.257C141.792 111.053 141.504 110.905 141.195 110.821C141.391 110.391 141.448 109.911 141.358 109.448C141.268 108.984 141.036 108.56 140.694 108.234C140.352 107.908 139.917 107.697 139.45 107.631C138.982 107.564 138.505 107.644 138.086 107.861C138.101 107.777 138.11 107.692 138.112 107.606C138.11 107.118 137.953 106.643 137.662 106.252C137.371 105.86 136.962 105.571 136.495 105.429C136.028 105.286 135.528 105.296 135.068 105.459C134.607 105.621 134.211 105.926 133.937 106.33C133.823 105.867 133.567 105.451 133.203 105.141C132.84 104.831 132.389 104.643 131.913 104.604C131.438 104.565 130.962 104.676 130.553 104.922C130.144 105.168 129.823 105.536 129.634 105.975C129.424 105.632 129.127 105.352 128.773 105.162C128.418 104.972 128.02 104.88 127.619 104.895C127.217 104.909 126.826 105.03 126.487 105.246C126.148 105.461 125.872 105.763 125.687 106.12C125.353 105.929 124.975 105.827 124.591 105.826C124.291 105.825 123.994 105.884 123.717 105.998C123.439 106.112 123.188 106.28 122.975 106.492C122.763 106.704 122.595 106.956 122.48 107.233C122.365 107.51 122.306 107.806 122.306 108.106C122.308 108.231 122.321 108.356 122.345 108.479C122.222 108.459 122.097 108.447 121.972 108.444C121.559 108.443 121.153 108.555 120.799 108.767C120.444 108.979 120.154 109.284 119.959 109.648C119.764 110.013 119.671 110.423 119.691 110.836C119.712 111.249 119.844 111.648 120.073 111.992C119.811 112.194 119.596 112.451 119.444 112.744C119.291 113.038 119.205 113.361 119.191 113.692C119.176 114.022 119.235 114.352 119.361 114.658C119.488 114.963 119.68 115.238 119.924 115.461C119.692 115.672 119.507 115.93 119.38 116.217C119.253 116.504 119.188 116.814 119.188 117.128C119.188 117.734 119.428 118.315 119.857 118.744C120.285 119.172 120.866 119.413 121.472 119.413H121.543C121.661 119.908 121.941 120.349 122.338 120.667C122.735 120.984 123.227 121.16 123.736 121.167C123.917 121.164 124.098 121.14 124.275 121.097C124.466 121.499 124.771 121.836 125.152 122.066C125.533 122.297 125.973 122.41 126.418 122.392C126.862 122.374 127.292 122.226 127.653 121.966C128.015 121.707 128.292 121.346 128.45 120.93C128.76 121.083 129.1 121.164 129.446 121.167C129.768 121.163 130.085 121.09 130.376 120.953C130.667 120.816 130.926 120.618 131.134 120.373C131.338 120.705 131.623 120.978 131.962 121.169C132.302 121.359 132.684 121.46 133.073 121.461C133.341 121.459 133.607 121.408 133.858 121.312C134.002 121.774 134.29 122.178 134.679 122.465C135.069 122.753 135.54 122.908 136.024 122.908H136.086C136.045 123.073 136.025 123.243 136.024 123.413C136.011 123.721 136.06 124.029 136.169 124.317C136.277 124.606 136.443 124.87 136.656 125.093C136.87 125.315 137.126 125.493 137.41 125.614C137.693 125.735 137.999 125.798 138.307 125.798C138.616 125.798 138.921 125.735 139.205 125.614C139.488 125.493 139.745 125.315 139.958 125.093C140.171 124.87 140.337 124.606 140.446 124.317C140.554 124.029 140.603 123.721 140.59 123.413C140.59 123.377 140.59 123.342 140.59 123.307C141.061 123.167 141.474 122.877 141.767 122.482C142.06 122.086 142.216 121.606 142.213 121.114C142.213 120.774 142.135 120.438 141.985 120.132C142.257 119.922 142.477 119.653 142.63 119.345C142.783 119.038 142.863 118.699 142.866 118.356Z" fill="#5B1C10"/>
    <path d="M70.6731 168.976L62.7656 214.64H65.4409L75.9097 168.976H70.6731Z" fill="white"/>
    <path d="M102.973 168.976L110.88 214.64H108.209L97.7363 168.976H102.973Z" fill="white"/>
    <path d="M71.9889 168.976L64.0813 214.64H62.7656L70.6731 168.976H71.9889Z" fill="#EDF3F4"/>
    <path d="M109.521 214.64H108.205L97.7363 168.976H99.0521L109.521 214.64Z" fill="#EDF3F4"/>
    <path d="M105.277 164.41H68.3751C66.7959 164.41 65.5156 165.69 65.5156 167.27C65.5156 168.849 66.7959 170.129 68.3751 170.129H105.277C106.856 170.129 108.136 168.849 108.136 167.27C108.136 165.69 106.856 164.41 105.277 164.41Z" fill="white"/>
    <path d="M66.8314 168.147C66.8308 167.771 66.9044 167.399 67.0479 167.052C67.1914 166.705 67.402 166.389 67.6677 166.124C67.9333 165.858 68.2488 165.647 68.596 165.504C68.9432 165.36 69.3153 165.287 69.6909 165.287H106.575C106.872 165.287 107.168 165.332 107.452 165.419C107.183 165.101 106.847 164.845 106.468 164.671C106.089 164.497 105.676 164.408 105.259 164.41H68.3752C67.6927 164.409 67.0322 164.652 66.5131 165.095C65.9939 165.538 65.6503 166.152 65.5444 166.826C65.4385 167.5 65.5772 168.19 65.9355 168.771C66.2938 169.352 66.848 169.785 67.4981 169.993C67.0633 169.477 66.8269 168.822 66.8314 168.147Z" fill="#EDF3F4"/>
    <path d="M76.7511 155.345C76.7511 155.099 75.2424 154.906 73.3785 154.906C71.5146 154.906 70.0059 155.108 70.0059 155.345C70.0059 155.582 71.5146 155.783 73.3785 155.783C75.2424 155.783 76.7511 155.59 76.7511 155.345Z" fill="white"/>
    <path d="M78.8967 160.784C78.9005 161.705 78.7523 162.621 78.4582 163.494C78.3499 163.807 78.2225 164.113 78.0766 164.411H68.6999C68.147 163.282 67.8632 162.04 67.8709 160.784C67.849 159.78 68.0269 158.783 68.3944 157.849C68.7618 156.916 69.3114 156.064 70.0112 155.345L70.4717 155.389C71.3971 155.468 72.3751 155.507 73.3838 155.507C74.5592 155.507 75.6951 155.45 76.7565 155.345C77.4562 156.064 78.0058 156.916 78.3733 157.849C78.7407 158.783 78.9187 159.78 78.8967 160.784Z" fill="#11493E"/>
    <path d="M78.4494 163.494C78.3412 163.807 78.2137 164.113 78.0678 164.411H68.6999C68.147 163.282 67.8632 162.04 67.8709 160.784C67.849 159.78 68.0269 158.783 68.3944 157.849C68.7618 156.916 69.3114 156.064 70.0112 155.345L70.4717 155.389C70.1065 155.838 69.8108 156.339 69.5945 156.876C69.0776 158.022 68.9783 159.313 69.3139 160.525C69.6359 161.525 70.2967 162.381 71.1822 162.946C73.3137 164.231 77.1644 163.691 78.4494 163.494Z" fill="#5A9687"/>
    <path d="M74.0488 154.187C74.2326 154.344 74.448 154.459 74.6803 154.525C74.9127 154.591 75.1565 154.606 75.3952 154.569H75.5004C75.98 154.52 76.4507 154.407 76.8995 154.231L77.0048 154.192C77.464 154.006 77.9045 153.777 78.3205 153.508L78.417 153.442C78.8362 153.162 79.2231 152.837 79.5704 152.473L79.6757 152.358L79.7502 152.275C80.036 151.942 80.2845 151.579 80.4914 151.192C80.4914 151.161 80.5221 151.13 80.5397 151.095C80.7017 150.782 80.8381 150.457 80.9475 150.122C80.9475 150.087 80.9475 150.052 80.9782 150.016C81.0933 149.642 81.1784 149.26 81.2326 148.872C80.6549 148.76 80.0662 148.716 79.4783 148.74H79.3818C78.9383 148.767 78.4979 148.833 78.0661 148.938H78.0091L77.8995 148.968C77.3632 149.1 76.8415 149.285 76.3425 149.521L76.246 149.569C75.7993 149.787 75.387 150.069 75.0224 150.407L74.9522 150.473C74.6014 150.802 74.3183 151.197 74.1189 151.635V151.635L74.0882 151.696C74.0882 151.696 74.0882 151.731 74.0882 151.749C74.0137 151.924 73.3734 153.477 74.0488 154.187Z" fill="#80BDAE"/>
    <path d="M78.0662 150.635C77.2382 150.903 76.4602 151.306 75.7637 151.828C75.6541 151.92 75.5357 152.008 75.426 152.104C75.3164 152.2 75.2067 152.297 75.1059 152.402C74.2573 153.228 73.6506 154.27 73.3516 155.415L73.6366 155.481C73.7595 154.929 73.9526 154.396 74.2112 153.893C74.4782 153.39 74.8083 152.923 75.1936 152.503C75.2901 152.398 75.3953 152.301 75.4962 152.2C75.5971 152.1 75.7111 152.008 75.8164 151.915C76.037 151.732 76.2684 151.562 76.5093 151.407C76.9973 151.091 77.5197 150.832 78.0662 150.635V150.635Z" fill="#004F80"/>
    <path d="M65.5888 147.218C65.5888 147.262 65.5888 147.306 65.5888 147.35C65.6506 147.781 65.7475 148.206 65.8782 148.622L65.9177 148.753C66.0867 149.266 66.3133 149.757 66.5931 150.218L66.6633 150.337L66.7685 150.499C66.9782 150.818 67.2129 151.12 67.4703 151.402C67.6281 151.578 67.7948 151.749 67.9658 151.915L68.0755 152.012C68.5279 152.432 69.0216 152.805 69.5491 153.126L69.6719 153.196C70.1806 153.501 70.7278 153.737 71.299 153.898L71.4262 153.929C71.9387 154.086 72.4904 154.057 72.9831 153.845C73.0398 153.818 73.0929 153.784 73.141 153.744C74.1059 153.025 73.6542 151.003 73.5796 150.775V150.709C73.5796 150.683 73.5796 150.652 73.5796 150.626C73.4311 150.061 73.1782 149.528 72.834 149.056L72.7639 148.959C72.3873 148.476 71.9444 148.048 71.4481 147.688L71.3385 147.609C70.7807 147.219 70.1857 146.886 69.5623 146.613L69.4351 146.556L69.3693 146.53C68.8634 146.308 68.3377 146.135 67.7992 146.012L67.6457 145.977C66.9435 145.83 66.2271 145.763 65.5098 145.775C65.4951 146.258 65.5215 146.74 65.5888 147.218V147.218Z" fill="#80BDAE"/>
    <path d="M67.4883 151.402C67.6462 151.578 67.8128 151.749 67.9839 151.915L68.0935 152.012C68.546 152.432 69.0397 152.805 69.5671 153.126L69.6899 153.196C70.1986 153.501 70.7458 153.737 71.317 153.898L71.4442 153.928C71.9567 154.086 72.5084 154.056 73.0012 153.845C73.0582 152.819 72.2337 151.582 71.1153 151.021C70.5366 150.735 69.8886 150.619 69.2465 150.686C68.6045 150.754 67.9948 151.002 67.4883 151.402V151.402Z" fill="#347474"/>
    <path d="M68.9922 148.6C69.6188 148.93 70.2071 149.329 70.7465 149.788C71.02 150.019 71.2792 150.267 71.5228 150.529C71.6412 150.665 71.764 150.797 71.878 150.937C71.992 151.078 72.1017 151.214 72.2026 151.376C72.6299 151.958 72.9794 152.593 73.242 153.266C73.4927 153.946 73.6505 154.657 73.7113 155.38L73.3516 155.406C73.3195 154.709 73.1956 154.019 72.9832 153.354C72.7657 152.687 72.4619 152.052 72.0798 151.464C71.9877 151.31 71.878 151.174 71.7771 151.025C71.6763 150.876 71.5579 150.749 71.4482 150.613C71.2185 150.343 70.9724 150.089 70.7114 149.85C70.1872 149.37 69.6105 148.95 68.9922 148.6V148.6Z" fill="#004F80"/>
    <path d="M73.1031 154.643C72.9971 154.775 72.8638 154.883 72.7124 154.958C72.561 155.034 72.3951 155.076 72.2259 155.082H72.1557C71.8234 155.112 71.4885 155.097 71.1602 155.038H71.0856C70.7445 154.975 70.4109 154.876 70.0901 154.744L70.0155 154.713C69.693 154.581 69.3868 154.412 69.1033 154.209L69.0331 154.143L68.9717 154.095C68.7336 153.908 68.5173 153.695 68.327 153.459L68.2787 153.398C68.1282 153.206 67.9932 153.002 67.8753 152.788L67.8402 152.722C67.7118 152.485 67.6032 152.237 67.5156 151.981C67.8895 151.83 68.2795 151.723 68.6778 151.661H68.7656C69.0724 151.623 69.3819 151.609 69.691 151.621H69.8094C70.1901 151.638 70.568 151.695 70.9365 151.793H71.0111C71.3422 151.882 71.6584 152.019 71.9496 152.2L72.0066 152.235C72.2796 152.416 72.5174 152.645 72.7084 152.911V152.911L72.7347 152.946V152.977C72.8312 153.104 73.4671 154.073 73.1031 154.643Z" fill="#80BDAE"/>
    <path d="M69.9004 152.766C70.2969 152.814 70.6868 152.907 71.0626 153.042C71.2512 153.109 71.4358 153.187 71.6152 153.275C71.7073 153.323 71.795 153.367 71.8828 153.42C71.9705 153.472 72.0582 153.52 72.1371 153.577C72.4733 153.803 72.7785 154.071 73.045 154.376C73.3115 154.684 73.5357 155.026 73.7116 155.393L73.5274 155.477C73.3724 155.118 73.172 154.78 72.9309 154.472C72.6827 154.167 72.3968 153.894 72.0801 153.661C72.0012 153.599 71.9178 153.551 71.8345 153.494L71.5801 153.345C71.4093 153.248 71.232 153.163 71.0495 153.091C70.6801 152.939 70.2945 152.83 69.9004 152.766V152.766Z" fill="#004F80"/>
    <path d="M90.0717 164.41H85.8131C85.0705 164.41 84.3411 164.214 83.6987 163.841C83.0564 163.469 82.5241 162.933 82.1558 162.288C81.7875 161.643 81.5964 160.912 81.6017 160.17C81.607 159.427 81.8086 158.699 82.1861 158.06L87.0104 149.871C87.0628 149.762 87.1371 149.665 87.2287 149.586C87.3203 149.507 87.4273 149.448 87.5429 149.412C87.6585 149.377 87.7802 149.365 87.9004 149.379C88.0205 149.393 88.1366 149.431 88.2412 149.492C88.3459 149.552 88.4369 149.634 88.5084 149.732C88.58 149.829 88.6306 149.94 88.6572 150.058C88.6837 150.176 88.6855 150.299 88.6625 150.417C88.6395 150.536 88.5922 150.649 88.5235 150.748L83.6948 158.967C83.4756 159.341 83.3588 159.766 83.3563 160.199C83.3538 160.632 83.4657 161.058 83.6806 161.434C83.8955 161.81 84.2059 162.123 84.5803 162.34C84.9548 162.558 85.38 162.673 85.8131 162.673H90.0717C90.3043 162.673 90.5274 162.766 90.6919 162.93C90.8564 163.095 90.9489 163.318 90.9489 163.551C90.9489 163.783 90.8564 164.006 90.6919 164.171C90.5274 164.335 90.3043 164.428 90.0717 164.428V164.41Z" fill="#004F80"/>
    <path d="M92.5792 161.222C92.4012 161.222 92.2275 161.168 92.081 161.067C91.9345 160.966 91.8222 160.822 91.7591 160.656L80.2596 130.372C80.2095 130.263 80.1824 130.145 80.1799 130.025C80.1774 129.905 80.1995 129.786 80.245 129.674C80.2905 129.563 80.3583 129.463 80.4443 129.379C80.5302 129.295 80.6325 129.23 80.7448 129.187C80.857 129.144 80.9768 129.125 81.0968 129.13C81.2168 129.136 81.3343 129.166 81.4422 129.219C81.5501 129.271 81.646 129.346 81.724 129.437C81.802 129.528 81.8604 129.635 81.8955 129.75L93.4169 160.033C93.4567 160.142 93.4746 160.257 93.4697 160.373C93.4647 160.488 93.437 160.601 93.3881 160.706C93.3392 160.811 93.2701 160.905 93.1847 160.983C93.0993 161.061 92.9994 161.121 92.8906 161.16C92.7908 161.197 92.6856 161.218 92.5792 161.222V161.222Z" fill="#004F80"/>
    <path d="M103.877 163.327H96.1278C95.8275 163.327 95.584 163.57 95.584 163.869C95.584 164.168 95.8275 164.41 96.1278 164.41H103.877C104.178 164.41 104.421 164.168 104.421 163.869C104.421 163.57 104.178 163.327 103.877 163.327Z" fill="#004F80"/>
    <path d="M136.218 161.958H134.832V176.493H136.218V161.958Z" fill="white"/>
    <path d="M135.271 164.151H136.218V161.958H134.832V176.493H135.271V164.151Z" fill="#EDF3F4"/>
    <path d="M138.858 160.735H129.389C128.675 160.735 128.096 161.313 128.096 162.026C128.096 162.74 128.675 163.318 129.389 163.318H138.858C139.573 163.318 140.152 162.74 140.152 162.026C140.152 161.313 139.573 160.735 138.858 160.735Z" fill="#F19B51"/>
    <path d="M127.065 214.645C128.634 214.645 129.907 213.373 129.907 211.803C129.907 210.233 128.634 208.961 127.065 208.961C125.495 208.961 124.223 210.233 124.223 211.803C124.223 213.373 125.495 214.645 127.065 214.645Z" fill="#004F80"/>
    <path d="M143.332 214.645C144.902 214.645 146.174 213.373 146.174 211.803C146.174 210.233 144.902 208.961 143.332 208.961C141.763 208.961 140.49 210.233 140.49 211.803C140.49 213.373 141.763 214.645 143.332 214.645Z" fill="#004F80"/>
    <path d="M127.292 208.355L126.568 211.461C126.549 211.527 126.546 211.598 126.559 211.666C126.572 211.735 126.601 211.799 126.644 211.854C126.687 211.909 126.742 211.952 126.805 211.982C126.868 212.011 126.937 212.025 127.007 212.022C127.085 212.024 127.163 212.006 127.231 211.968C127.3 211.93 127.357 211.874 127.397 211.807L129.244 208.829C129.292 208.765 129.322 208.689 129.329 208.609C129.337 208.529 129.323 208.448 129.288 208.376C129.253 208.303 129.199 208.242 129.132 208.198C129.064 208.154 128.986 208.13 128.906 208.127L127.779 208.005C127.668 207.99 127.557 208.019 127.466 208.084C127.376 208.149 127.313 208.246 127.292 208.355V208.355Z" fill="#01496D"/>
    <path d="M143.063 208.356L143.787 211.461C143.806 211.527 143.81 211.598 143.796 211.666C143.783 211.735 143.754 211.799 143.711 211.854C143.668 211.909 143.613 211.953 143.55 211.982C143.487 212.011 143.418 212.025 143.348 212.022C143.269 212.022 143.192 212.003 143.123 211.965C143.054 211.928 142.996 211.873 142.953 211.807L141.107 208.829C141.066 208.763 141.042 208.687 141.038 208.609C141.034 208.531 141.049 208.454 141.084 208.384C141.118 208.313 141.169 208.253 141.233 208.208C141.297 208.164 141.371 208.136 141.449 208.128L142.572 208.005C142.683 207.989 142.796 208.017 142.887 208.082C142.979 208.147 143.042 208.245 143.063 208.356V208.356Z" fill="#01496D"/>
    <path d="M136.951 181.449H133.938V206.619H136.951V181.449Z" fill="white"/>
    <path d="M134.815 183.203H136.946V181.449H133.938V206.623H134.815V183.203Z" fill="#EDF3F4"/>
    <path d="M144.161 206.277H126.718C126.108 206.277 125.613 206.772 125.613 207.382C125.613 207.992 126.108 208.487 126.718 208.487H144.161C144.771 208.487 145.266 207.992 145.266 207.382C145.266 206.772 144.771 206.277 144.161 206.277Z" fill="white"/>
    <path d="M126.929 208.264C126.929 207.969 127.046 207.687 127.254 207.479C127.463 207.271 127.745 207.154 128.039 207.154H145.244C145.192 206.906 145.056 206.684 144.86 206.524C144.664 206.365 144.419 206.277 144.165 206.277H126.723C126.565 206.252 126.403 206.262 126.249 206.306C126.095 206.35 125.953 206.426 125.831 206.531C125.709 206.635 125.612 206.764 125.545 206.909C125.478 207.055 125.443 207.213 125.443 207.373C125.443 207.533 125.478 207.692 125.545 207.837C125.612 207.983 125.709 208.112 125.831 208.216C125.953 208.32 126.095 208.397 126.249 208.441C126.403 208.484 126.565 208.494 126.723 208.47H126.956C126.94 208.402 126.931 208.333 126.929 208.264V208.264Z" fill="#EDF3F4"/>
    <path d="M148.203 152.42C148.522 152.42 148.828 152.547 149.053 152.772C149.278 152.997 149.405 153.303 149.405 153.622V174.945C149.405 175.047 149.385 175.148 149.346 175.242C149.307 175.336 149.25 175.422 149.178 175.494C149.105 175.566 149.02 175.623 148.926 175.662C148.832 175.701 148.731 175.721 148.629 175.721H147.8C147.594 175.721 147.396 175.64 147.251 175.494C147.105 175.348 147.023 175.151 147.023 174.945V153.622C147.023 153.303 147.15 152.997 147.375 152.772C147.601 152.547 147.906 152.42 148.225 152.42H148.203Z" fill="#F19B51"/>
    <path d="M147.883 174.941V153.622C147.883 153.381 147.955 153.146 148.091 152.948C148.226 152.749 148.418 152.596 148.642 152.508C148.503 152.449 148.354 152.419 148.203 152.42C147.885 152.421 147.581 152.548 147.356 152.773C147.132 152.999 147.006 153.304 147.006 153.622V174.941C147.006 175.044 147.026 175.147 147.067 175.243C147.107 175.338 147.165 175.425 147.239 175.497C147.313 175.57 147.401 175.627 147.497 175.666C147.593 175.704 147.696 175.723 147.8 175.721H148.677C148.573 175.724 148.47 175.705 148.373 175.667C148.277 175.629 148.189 175.572 148.115 175.499C148.041 175.426 147.982 175.339 147.942 175.243C147.903 175.147 147.882 175.045 147.883 174.941V174.941Z" fill="#F19B51"/>
    <path d="M148.203 136.306C148.894 136.306 149.556 136.581 150.045 137.069C150.533 137.558 150.808 138.22 150.808 138.911V153.218C150.808 153.439 150.764 153.659 150.679 153.864C150.595 154.069 150.47 154.255 150.313 154.412C150.157 154.568 149.97 154.693 149.766 154.778C149.561 154.862 149.341 154.906 149.119 154.906H147.286C147.064 154.906 146.845 154.862 146.64 154.778C146.435 154.693 146.249 154.568 146.092 154.412C145.935 154.255 145.811 154.069 145.726 153.864C145.641 153.659 145.598 153.439 145.598 153.218V138.911C145.598 138.22 145.872 137.558 146.361 137.069C146.849 136.581 147.512 136.306 148.203 136.306V136.306Z" fill="#F19B51"/>
    <path d="M146.923 154.095V139.789C146.921 139.384 147.013 138.985 147.193 138.623C147.373 138.261 147.634 137.946 147.957 137.703C148.28 137.461 148.656 137.297 149.053 137.225C149.451 137.153 149.86 137.174 150.248 137.289C149.911 136.867 149.451 136.561 148.933 136.412C148.414 136.262 147.862 136.278 147.353 136.456C146.843 136.634 146.402 136.966 146.089 137.406C145.777 137.846 145.608 138.372 145.607 138.911V153.218C145.608 153.636 145.765 154.04 146.047 154.349C146.329 154.658 146.717 154.85 147.134 154.889C146.997 154.646 146.924 154.373 146.923 154.095V154.095Z" fill="#F19B51"/>
    <path d="M146.282 174.73C144.294 174.4 142.278 174.275 140.265 174.357C137.252 174.489 136.712 174.985 134.177 175.235C127.73 175.91 125.739 173.252 122.296 175.085C122.007 175.239 119.2 176.778 119.253 179.033C119.267 179.592 119.425 180.138 119.711 180.62C119.996 181.101 120.4 181.501 120.884 181.782C121.481 182.085 122.159 182.188 122.818 182.076H146.133C146.678 181.852 147.138 181.463 147.449 180.962C147.979 180.085 147.76 179.094 147.449 177.77C147.203 176.707 146.811 175.684 146.282 174.73V174.73Z" fill="#F19B51"/>
    <path d="M120.568 179.914C120.516 177.673 123.323 176.134 123.612 175.967C127.055 174.134 129.046 176.792 135.493 176.116C138.028 175.849 138.563 175.353 141.581 175.239C143.277 175.17 144.976 175.248 146.659 175.471C146.545 175.235 146.422 174.989 146.282 174.735C144.294 174.405 142.278 174.28 140.265 174.362C137.252 174.493 136.712 174.989 134.177 175.239C127.73 175.914 125.739 173.257 122.296 175.09C122.007 175.243 119.2 176.783 119.253 179.037C119.267 179.597 119.425 180.143 119.711 180.624C119.996 181.106 120.4 181.506 120.884 181.787C121.042 181.864 121.204 181.93 121.371 181.984C120.881 181.402 120.599 180.674 120.568 179.914V179.914Z" fill="#F19B51"/>
    <path d="M147.007 178.857C148.739 178.857 150.143 177.453 150.143 175.721C150.143 173.989 148.739 172.585 147.007 172.585C145.275 172.585 143.871 173.989 143.871 175.721C143.871 177.453 145.275 178.857 147.007 178.857Z" fill="white"/>
    <path d="M147.007 177.362C147.913 177.362 148.648 176.627 148.648 175.721C148.648 174.815 147.913 174.081 147.007 174.081C146.102 174.081 145.367 174.815 145.367 175.721C145.367 176.627 146.102 177.362 147.007 177.362Z" fill="#EDF3F4"/>
    <path d="M190.645 176.493H192.031V161.959H190.645V176.493Z" fill="white"/>
    <path d="M191.592 164.151H190.641V161.958H192.031V176.493H191.592V164.151Z" fill="#EDF3F4"/>
    <path d="M188.005 163.318H197.474C198.188 163.318 198.768 162.74 198.768 162.027C198.768 161.313 198.188 160.735 197.474 160.735H188.005C187.29 160.735 186.711 161.313 186.711 162.027C186.711 162.74 187.29 163.318 188.005 163.318Z" fill="#F19B51"/>
    <path d="M199.793 214.645C201.363 214.645 202.635 213.373 202.635 211.803C202.635 210.233 201.363 208.961 199.793 208.961C198.224 208.961 196.951 210.233 196.951 211.803C196.951 213.373 198.224 214.645 199.793 214.645Z" fill="#004F80"/>
    <path d="M183.528 214.645C185.097 214.645 186.369 213.373 186.369 211.803C186.369 210.233 185.097 208.961 183.528 208.961C181.958 208.961 180.686 210.233 180.686 211.803C180.686 213.373 181.958 214.645 183.528 214.645Z" fill="#004F80"/>
    <path d="M199.552 208.356L200.271 211.461C200.29 211.527 200.294 211.598 200.281 211.666C200.268 211.735 200.238 211.799 200.195 211.854C200.153 211.909 200.097 211.953 200.034 211.982C199.971 212.011 199.902 212.025 199.832 212.022C199.754 212.024 199.676 212.006 199.608 211.968C199.539 211.93 199.482 211.875 199.442 211.807L197.596 208.829C197.554 208.763 197.53 208.688 197.526 208.61C197.522 208.533 197.537 208.455 197.571 208.385C197.605 208.315 197.656 208.255 197.719 208.21C197.782 208.165 197.856 208.136 197.933 208.128L199.06 208.005C199.172 207.989 199.285 208.017 199.376 208.082C199.467 208.147 199.53 208.245 199.552 208.356V208.356Z" fill="#01496D"/>
    <path d="M183.794 208.356L183.074 211.461C183.055 211.527 183.051 211.598 183.064 211.666C183.078 211.735 183.107 211.799 183.15 211.854C183.192 211.909 183.248 211.953 183.311 211.982C183.374 212.011 183.443 212.025 183.513 212.022C183.591 212.024 183.669 212.006 183.737 211.968C183.806 211.93 183.863 211.875 183.903 211.807L185.75 208.829C185.791 208.763 185.815 208.688 185.819 208.61C185.823 208.533 185.808 208.455 185.774 208.385C185.74 208.315 185.69 208.255 185.626 208.21C185.563 208.165 185.489 208.136 185.412 208.128L184.285 208.005C184.174 207.989 184.061 208.017 183.969 208.082C183.878 208.147 183.815 208.245 183.794 208.356V208.356Z" fill="#01496D"/>
    <path d="M189.913 206.623H192.926V181.453H189.913V206.623Z" fill="white"/>
    <path d="M192.044 183.203H189.912V181.449H192.921V206.623H192.044V183.203Z" fill="#EDF3F4"/>
    <path d="M182.699 208.492H200.141C200.751 208.492 201.246 207.997 201.246 207.386C201.246 206.776 200.751 206.281 200.141 206.281H182.699C182.088 206.281 181.594 206.776 181.594 207.386C181.594 207.997 182.088 208.492 182.699 208.492Z" fill="white"/>
    <path d="M199.93 208.264C199.931 208.118 199.903 207.974 199.847 207.839C199.792 207.705 199.711 207.582 199.608 207.479C199.505 207.376 199.383 207.294 199.249 207.239C199.115 207.183 198.97 207.154 198.825 207.154H181.615C181.668 206.906 181.804 206.683 182.001 206.523C182.198 206.363 182.445 206.276 182.699 206.277H200.141C200.402 206.318 200.641 206.45 200.813 206.651C200.985 206.852 201.08 207.109 201.08 207.373C201.08 207.638 200.985 207.894 200.813 208.095C200.641 208.296 200.402 208.429 200.141 208.47H199.904C199.92 208.402 199.928 208.333 199.93 208.264V208.264Z" fill="#EDF3F4"/>
    <path d="M179.074 175.721H178.232C178.026 175.721 177.829 175.639 177.683 175.494C177.538 175.348 177.456 175.151 177.456 174.945V153.621C177.456 153.303 177.583 152.997 177.808 152.772C178.033 152.546 178.339 152.42 178.658 152.42V152.42C178.815 152.42 178.972 152.451 179.118 152.511C179.263 152.572 179.396 152.66 179.507 152.772C179.619 152.883 179.708 153.016 179.768 153.162C179.828 153.307 179.859 153.464 179.859 153.621V174.945C179.859 175.048 179.839 175.149 179.799 175.244C179.76 175.339 179.702 175.425 179.629 175.497C179.556 175.569 179.469 175.626 179.374 175.665C179.279 175.703 179.177 175.722 179.074 175.721Z" fill="#F19B51"/>
    <path d="M178.978 174.941V153.622C178.978 153.381 178.905 153.145 178.769 152.946C178.633 152.747 178.44 152.594 178.215 152.508C178.354 152.45 178.503 152.42 178.653 152.42C178.811 152.42 178.967 152.451 179.113 152.511C179.259 152.572 179.392 152.66 179.503 152.772C179.615 152.883 179.703 153.016 179.764 153.162C179.824 153.308 179.855 153.464 179.855 153.622V174.941C179.855 175.148 179.773 175.346 179.626 175.493C179.48 175.639 179.281 175.721 179.074 175.721H178.197C178.3 175.722 178.402 175.702 178.497 175.663C178.592 175.624 178.678 175.567 178.751 175.494C178.823 175.421 178.881 175.335 178.92 175.24C178.959 175.145 178.979 175.043 178.978 174.941V174.941Z" fill="#F19B51"/>
    <path d="M179.571 154.907H177.738C177.516 154.907 177.297 154.863 177.092 154.778C176.887 154.693 176.701 154.569 176.544 154.412C176.387 154.255 176.263 154.069 176.178 153.864C176.093 153.66 176.049 153.44 176.049 153.218V138.912C176.049 138.221 176.324 137.558 176.813 137.07C177.301 136.581 177.964 136.307 178.655 136.307V136.307C179.346 136.307 180.008 136.581 180.497 137.07C180.985 137.558 181.26 138.221 181.26 138.912V153.218C181.26 153.666 181.082 154.096 180.765 154.412C180.449 154.729 180.019 154.907 179.571 154.907V154.907Z" fill="#F19B51"/>
    <path d="M179.944 154.095V139.789C179.946 139.384 179.853 138.985 179.674 138.623C179.494 138.261 179.232 137.946 178.909 137.703C178.586 137.461 178.211 137.297 177.813 137.225C177.416 137.153 177.007 137.174 176.619 137.289C176.956 136.867 177.416 136.561 177.934 136.412C178.453 136.262 179.005 136.278 179.514 136.456C180.023 136.634 180.465 136.966 180.778 137.406C181.09 137.846 181.258 138.372 181.259 138.911V153.218C181.259 153.636 181.103 154.038 180.821 154.347C180.54 154.656 180.153 154.849 179.737 154.889C179.871 154.645 179.942 154.372 179.944 154.095V154.095Z" fill="#F19B51"/>
    <path d="M180.58 174.73C182.566 174.4 184.581 174.275 186.593 174.357C189.61 174.489 190.15 174.984 192.68 175.234C199.132 175.91 201.123 173.252 204.561 175.085C204.851 175.239 207.658 176.778 207.605 179.032C207.591 179.592 207.434 180.139 207.148 180.62C206.862 181.102 206.458 181.502 205.973 181.782C205.378 182.085 204.702 182.188 204.044 182.076H180.729C180.176 181.857 179.707 181.466 179.391 180.962C178.865 180.085 179.08 179.094 179.391 177.769C179.644 176.706 180.044 175.683 180.58 174.73Z" fill="#F19B51"/>
    <path d="M206.29 179.914C206.342 177.673 203.535 176.133 203.246 175.967C199.807 174.133 197.816 176.791 191.365 176.116C188.834 175.848 188.295 175.353 185.277 175.239C183.582 175.17 181.885 175.248 180.203 175.471C180.313 175.234 180.44 174.989 180.58 174.734C182.566 174.404 184.581 174.279 186.593 174.361C189.611 174.493 190.15 174.989 192.681 175.239C199.132 175.914 201.123 173.256 204.562 175.089C204.851 175.243 207.658 176.782 207.605 179.037C207.591 179.596 207.434 180.143 207.148 180.624C206.863 181.106 206.458 181.506 205.974 181.786C205.817 181.865 205.654 181.931 205.487 181.984C205.977 181.402 206.259 180.674 206.29 179.914V179.914Z" fill="#F19B51"/>
    <path d="M179.857 178.857C181.588 178.857 182.992 177.453 182.992 175.721C182.992 173.989 181.588 172.585 179.857 172.585C178.125 172.585 176.721 173.989 176.721 175.721C176.721 177.453 178.125 178.857 179.857 178.857Z" fill="white"/>
    <path d="M179.855 177.362C180.761 177.362 181.495 176.627 181.495 175.721C181.495 174.815 180.761 174.081 179.855 174.081C178.949 174.081 178.215 174.815 178.215 175.721C178.215 176.627 178.949 177.362 179.855 177.362Z" fill="#EDF3F4"/>
    <path d="M360.29 113.338H330.173C327.969 113.338 326.182 115.125 326.182 117.329V159.683C326.182 161.887 327.969 163.674 330.173 163.674H360.29C362.494 163.674 364.281 161.887 364.281 159.683V117.329C364.281 115.125 362.494 113.338 360.29 113.338Z" fill="#EDF3F4"/>
    <path d="M360.29 164.744H330.173C327.969 164.744 326.182 166.53 326.182 168.735V211.088C326.182 213.292 327.969 215.079 330.173 215.079H360.29C362.494 215.079 364.281 213.292 364.281 211.088V168.735C364.281 166.53 362.494 164.744 360.29 164.744Z" fill="#EDF3F4"/>
    <path d="M332.16 133.184H330.906C330.543 133.184 330.248 133.479 330.248 133.842V152.854C330.248 153.218 330.543 153.512 330.906 153.512H332.16C332.524 153.512 332.818 153.218 332.818 152.854V133.842C332.818 133.479 332.524 133.184 332.16 133.184Z" fill="white"/>
    <path d="M332.16 179.748H330.906C330.543 179.748 330.248 180.042 330.248 180.405V199.418C330.248 199.781 330.543 200.075 330.906 200.075H332.16C332.524 200.075 332.818 199.781 332.818 199.418V180.405C332.818 180.042 332.524 179.748 332.16 179.748Z" fill="white"/>
    <path d="M358.136 104.273C358.136 104.027 356.627 103.834 354.763 103.834C352.899 103.834 351.391 104.036 351.391 104.273C351.391 104.51 352.904 104.712 354.763 104.712C356.623 104.712 358.136 104.523 358.136 104.273Z" fill="#EDF3F4"/>
    <path d="M360.277 109.711C360.284 110.633 360.135 111.549 359.839 112.422C359.734 112.736 359.606 113.042 359.457 113.338H350.085C349.53 112.21 349.245 110.968 349.252 109.711C349.231 108.708 349.41 107.711 349.777 106.778C350.144 105.844 350.693 104.993 351.392 104.273L351.857 104.317C352.782 104.396 353.76 104.44 354.764 104.44C355.891 104.442 357.016 104.386 358.137 104.273C358.836 104.992 359.386 105.844 359.753 106.777C360.121 107.711 360.299 108.708 360.277 109.711Z" fill="#EDF3F4"/>
    <path d="M359.83 112.422C359.725 112.736 359.598 113.042 359.448 113.338H350.085C349.53 112.21 349.245 110.968 349.252 109.711C349.231 108.708 349.41 107.711 349.777 106.778C350.144 105.844 350.693 104.993 351.392 104.273L351.857 104.317C351.492 104.766 351.197 105.267 350.98 105.804C350.466 106.952 350.369 108.244 350.703 109.457C351.022 110.456 351.682 111.311 352.567 111.873C354.694 113.145 358.549 112.623 359.83 112.422Z" fill="#DCE1E2"/>
    <path d="M354.096 103.115C353.913 103.272 353.699 103.387 353.467 103.453C353.236 103.518 352.992 103.533 352.754 103.497H352.645C352.166 103.446 351.695 103.332 351.246 103.159L351.14 103.119C350.68 102.935 350.239 102.704 349.825 102.431L349.724 102.365C349.305 102.087 348.918 101.764 348.57 101.4L348.465 101.286L348.391 101.198C348.105 100.867 347.856 100.505 347.649 100.12C347.649 100.084 347.619 100.054 347.601 100.023C347.439 99.7086 347.303 99.3815 347.193 99.0451C347.193 99.01 347.171 98.9749 347.163 98.9442C347.047 98.5685 346.962 98.1843 346.908 97.7951C347.486 97.686 348.075 97.6419 348.663 97.6635H348.79C349.233 97.6884 349.674 97.7545 350.105 97.8609H350.158L350.268 97.8872C350.803 98.0205 351.325 98.2055 351.825 98.4398L351.921 98.4881C352.368 98.7063 352.78 98.9885 353.145 99.3257L353.215 99.3915C353.556 99.7221 353.833 100.113 354.031 100.545L354.057 100.606V100.655C354.132 100.852 354.772 102.391 354.096 103.115Z" fill="#EDF3F4"/>
    <path d="M350.062 99.5713C350.613 99.7502 351.142 99.9884 351.641 100.282C351.892 100.429 352.134 100.592 352.365 100.769C352.479 100.856 352.593 100.948 352.703 101.045C352.812 101.141 352.922 101.233 353.023 101.339C353.436 101.754 353.796 102.22 354.093 102.725C354.387 103.235 354.611 103.782 354.76 104.352L354.475 104.422C354.235 103.307 353.697 102.277 352.918 101.444C352.821 101.334 352.716 101.238 352.615 101.137C352.514 101.036 352.404 100.948 352.295 100.852C352.074 100.669 351.843 100.499 351.602 100.343C351.118 100.031 350.602 99.7717 350.062 99.5713Z" fill="#DCE1E2"/>
    <path d="M362.561 96.1506C362.561 96.1944 362.561 96.2383 362.561 96.2822C362.497 96.7179 362.397 97.1476 362.263 97.5672C362.246 97.6086 362.231 97.6511 362.219 97.6944C362.049 98.2069 361.824 98.6995 361.548 99.1636L361.474 99.282L361.368 99.4443C361.158 99.7602 360.925 100.061 360.671 100.343C360.51 100.522 360.343 100.693 360.171 100.856C360.137 100.892 360.1 100.926 360.061 100.957C359.608 101.376 359.114 101.749 358.588 102.071L358.469 102.141C357.959 102.446 357.41 102.682 356.838 102.843L356.711 102.874C356.198 103.029 355.647 103 355.154 102.791C355.099 102.761 355.046 102.727 354.996 102.69C354.031 101.97 354.483 99.9486 354.557 99.7162V99.6548C354.557 99.6241 354.557 99.5978 354.579 99.5715C354.728 99.0048 354.98 98.4709 355.325 97.997L355.399 97.9049C355.773 97.4175 356.217 96.9875 356.715 96.6286L356.825 96.5541C357.383 96.1633 357.977 95.8284 358.601 95.5541L358.732 95.4971L358.794 95.4708C359.3 95.251 359.826 95.0778 360.364 94.9533L360.522 94.9182C361.224 94.771 361.94 94.7033 362.658 94.7164C362.662 95.1962 362.629 95.6756 362.561 96.1506V96.1506Z" fill="#EDF3F4"/>
    <path d="M360.663 100.33C360.502 100.508 360.335 100.679 360.163 100.843C360.128 100.879 360.092 100.913 360.053 100.944C359.599 101.363 359.106 101.736 358.579 102.058L358.461 102.128C357.95 102.433 357.402 102.669 356.829 102.83L356.702 102.86C356.19 103.016 355.639 102.986 355.145 102.777C355.088 101.746 355.913 100.51 357.031 99.9483C357.611 99.664 358.26 99.549 358.902 99.6165C359.544 99.684 360.154 99.9312 360.663 100.33V100.33Z" fill="#DCE1E2"/>
    <path d="M359.154 97.5278C358.527 97.8598 357.939 98.2598 357.399 98.7208C357.128 98.9527 356.869 99.1986 356.623 99.4576C356.505 99.5935 356.382 99.7251 356.272 99.8654C356.163 100.006 356.044 100.146 355.943 100.304C355.526 100.893 355.186 101.533 354.93 102.207C354.682 102.89 354.524 103.602 354.461 104.326L354.821 104.348C354.881 102.941 355.321 101.578 356.092 100.4C356.185 100.251 356.294 100.111 356.395 99.9619C356.496 99.8128 356.614 99.6856 356.724 99.5497C356.955 99.2815 357.201 99.0267 357.461 98.7865C357.977 98.3064 358.545 97.8843 359.154 97.5278Z" fill="#DCE1E2"/>
    <path d="M355.045 103.571C355.151 103.703 355.284 103.81 355.436 103.886C355.587 103.962 355.753 104.004 355.922 104.01H355.992C356.325 104.042 356.66 104.027 356.988 103.966H357.062C357.403 103.902 357.736 103.805 358.058 103.676L358.132 103.646C358.454 103.512 358.76 103.342 359.045 103.141L359.128 103.075L359.194 103.027C359.431 102.84 359.645 102.627 359.834 102.391L359.882 102.334C360.032 102.141 360.167 101.938 360.286 101.725C360.299 101.704 360.311 101.682 360.321 101.659C360.449 101.419 360.557 101.17 360.646 100.913C360.271 100.765 359.881 100.659 359.483 100.597H359.396C359.089 100.555 358.779 100.542 358.47 100.558H358.352C357.971 100.579 357.594 100.636 357.225 100.729L357.15 100.751C356.819 100.84 356.503 100.978 356.212 101.159L356.155 101.194C355.881 101.373 355.643 101.603 355.453 101.869V101.869L355.426 101.909V101.94C355.317 102.032 354.681 103.001 355.045 103.571Z" fill="#EDF3F4"/>
    <path d="M358.251 101.698C357.853 101.745 357.462 101.836 357.085 101.97C356.896 102.038 356.711 102.117 356.532 102.207L356.264 102.347C356.181 102.4 356.093 102.448 356.01 102.51C355.674 102.735 355.369 103.003 355.102 103.308C354.835 103.615 354.61 103.957 354.436 104.325L354.62 104.409C354.774 104.048 354.976 103.71 355.221 103.404C355.466 103.098 355.751 102.825 356.067 102.593C356.146 102.532 356.229 102.479 356.313 102.426C356.396 102.374 356.479 102.325 356.567 102.273C356.742 102.181 356.918 102.093 357.102 102.018C357.472 101.87 357.858 101.763 358.251 101.698Z" fill="#DCE1E2"/>
    <path d="M317.95 141.911H285.986V143.775H317.95V141.911Z" fill="white"/>
    <path d="M284.092 145.955C285.812 145.955 287.206 144.561 287.206 142.841C287.206 141.122 285.812 139.728 284.092 139.728C282.373 139.728 280.979 141.122 280.979 142.841C280.979 144.561 282.373 145.955 284.092 145.955Z" fill="white"/>
    <path d="M318.954 145.955C320.673 145.955 322.068 144.561 322.068 142.841C322.068 141.122 320.673 139.728 318.954 139.728C317.234 139.728 315.84 141.122 315.84 142.841C315.84 144.561 317.234 145.955 318.954 145.955Z" fill="white"/>
    <path d="M291.46 139.67H297.793C298.389 139.67 298.96 139.907 299.381 140.328C299.802 140.749 300.039 141.32 300.039 141.916V157.06H289.215V141.916C289.215 141.32 289.451 140.749 289.873 140.328C290.294 139.907 290.865 139.67 291.46 139.67Z" fill="#DCE1E2"/>
    <path d="M314.573 157.06L313.35 152.389L311.99 151.95C311.632 151.84 311.309 151.641 311.05 151.37C310.792 151.1 310.606 150.768 310.512 150.406L310.214 149.27C310.129 148.947 310.174 148.604 310.337 148.313C310.501 148.021 310.771 147.805 311.091 147.709L313.262 147.069C313.554 146.983 313.868 147.004 314.146 147.128C314.425 147.252 314.651 147.47 314.784 147.744L315.336 148.88C315.496 149.209 315.571 149.573 315.554 149.938C315.537 150.304 315.429 150.659 315.24 150.972L314.845 151.621L316.034 157.081L314.573 157.06Z" fill="#DCE1E2"/>
    <path d="M317.529 156.538V152.639C317.529 152.639 315.6 151.156 316.043 149.227C316.486 147.297 319.683 147.332 319.757 148.928C319.832 150.525 318.977 152.753 318.977 152.753L318.538 156.354L317.529 156.538Z" fill="#DCE1E2"/>
    <path d="M319.723 156.538V154.091C319.723 154.091 320.302 151.56 322.051 152.043C323.801 152.525 323.986 155.113 322.929 155.314C321.872 155.516 320.775 154.683 320.775 154.683L320.438 157.06L319.723 156.538Z" fill="#DCE1E2"/>
    <path d="M315.06 156.121H320.354C320.808 156.121 321.245 156.302 321.566 156.623C321.888 156.945 322.068 157.381 322.068 157.836V168.362H313.35V157.836C313.35 157.382 313.53 156.946 313.85 156.625C314.171 156.303 314.606 156.122 315.06 156.121V156.121Z" fill="white"/>
    <path d="M313.477 61.6655V96.7515H312.705V61.6655C312.806 61.6655 312.902 61.6655 313.003 61.6655H313.477Z" fill="white"/>
    <path d="M317.581 98.6546V100.374H308.607V98.6546C308.607 97.5281 309.03 96.4427 309.793 95.6139C310.556 94.7851 311.603 94.2737 312.726 94.1812H313.094C314.282 94.18 315.422 94.6505 316.263 95.4893C317.104 96.3281 317.578 97.4666 317.581 98.6546Z" fill="white"/>
    <path d="M313.096 112.992C315.385 112.992 317.24 111.136 317.24 108.847C317.24 106.558 315.385 104.703 313.096 104.703C310.807 104.703 308.951 106.558 308.951 108.847C308.951 111.136 310.807 112.992 313.096 112.992Z" fill="#EDF3F4"/>
    <path d="M322.791 108.44V108.847H303.389V108.44C303.389 106.009 304.301 103.667 305.944 101.876C307.588 100.085 309.844 98.9766 312.265 98.769C312.537 98.747 312.818 98.7339 313.099 98.7339C315.671 98.7374 318.136 99.7615 319.953 101.581C321.77 103.401 322.791 105.868 322.791 108.44V108.44Z" fill="white"/>
    <path d="M312.265 98.769C311.467 98.9313 310.318 99.2295 309.665 100.234C309.187 100.975 309.463 101.343 308.871 102.62C308.217 104.023 307.7 103.975 307.279 104.966C306.555 106.668 307.66 107.782 307.318 108.847H303.371V108.44C303.371 106.006 304.286 103.662 305.933 101.871C307.58 100.079 309.84 98.9725 312.265 98.769Z" fill="#EDF3F4"/>
    <path d="M308.607 98.6371V100.238C309.15 100.016 309.652 99.706 310.094 99.3213C309.913 98.5345 309.947 97.7137 310.191 96.9442C310.406 96.3389 310.74 95.7828 311.173 95.3083C311.606 94.8338 312.129 94.4506 312.713 94.1812C311.594 94.2736 310.551 94.783 309.791 95.6084C309.03 96.4338 308.608 97.5148 308.607 98.6371V98.6371Z" fill="#EDF3F4"/>
    <path d="M313.012 61.6831C312.974 72.475 312.936 83.2712 312.898 94.0719L312.837 94.0982H312.705V61.6963C312.815 61.6963 312.911 61.6875 313.012 61.6831Z" fill="#EDF3F4"/>
    <path d="M302.179 62.7969V83.116H301.74V62.8714L301.911 62.8407L302.179 62.7969Z" fill="white"/>
    <path d="M304.564 84.2124V85.208H299.371V84.2124C299.37 83.5607 299.615 82.9325 300.056 82.4529C300.497 81.9734 301.103 81.6777 301.753 81.6248C301.824 81.6205 301.896 81.6205 301.967 81.6248C302.655 81.6248 303.314 81.8971 303.8 82.3822C304.287 82.8672 304.562 83.5253 304.564 84.2124V84.2124Z" fill="white"/>
    <path d="M301.967 92.5104C303.292 92.5104 304.366 91.4363 304.366 90.1114C304.366 88.7865 303.292 87.7124 301.967 87.7124C300.642 87.7124 299.568 88.7865 299.568 90.1114C299.568 91.4363 300.642 92.5104 301.967 92.5104Z" fill="#EDF3F4"/>
    <path d="M307.586 89.8745V90.1113H296.35V89.8745C296.351 88.4685 296.879 87.114 297.83 86.0781C298.78 85.0422 300.085 84.4 301.485 84.2783C301.643 84.2783 301.805 84.2563 301.968 84.2563C303.458 84.2563 304.887 84.8483 305.94 85.9019C306.994 86.9555 307.586 88.3845 307.586 89.8745V89.8745Z" fill="white"/>
    <path d="M301.485 84.2783C301.19 84.3108 300.904 84.403 300.646 84.5493C300.387 84.6955 300.161 84.8928 299.981 85.1292C299.705 85.5677 299.863 85.7695 299.542 86.5063C299.165 87.3176 298.867 87.2913 298.621 87.8659C298.183 88.8483 298.841 89.493 298.621 90.1114H296.35V89.8745C296.351 88.4685 296.879 87.114 297.83 86.0781C298.78 85.0422 300.085 84.4001 301.485 84.2783V84.2783Z" fill="#EDF3F4"/>
    <path d="M299.371 84.2038V85.1292C299.69 85.001 299.987 84.8218 300.248 84.5985C300.145 84.1426 300.164 83.6672 300.305 83.2214C300.428 82.8712 300.621 82.5493 300.871 82.275C301.121 82.0007 301.424 81.7796 301.761 81.625C301.111 81.6737 300.503 81.9666 300.06 82.445C299.616 82.9233 299.37 83.5516 299.371 84.2038V84.2038Z" fill="#EDF3F4"/>
    <path d="M301.916 62.8408C301.898 69.0774 301.878 75.3168 301.854 81.5592H301.819H301.74V62.8715L301.916 62.8408Z" fill="#EDF3F4"/>
    <path d="M380.684 216.175H50.8972C50.6064 216.175 50.3275 216.06 50.1219 215.854C49.9163 215.649 49.8008 215.37 49.8008 215.079C49.8008 214.788 49.9163 214.509 50.1219 214.304C50.3275 214.098 50.6064 213.982 50.8972 213.982H380.684C380.974 213.982 381.253 214.098 381.459 214.304C381.665 214.509 381.78 214.788 381.78 215.079C381.78 215.37 381.665 215.649 381.459 215.854C381.253 216.06 380.974 216.175 380.684 216.175V216.175Z" fill="#39B9CE"/>
</svg>
