<svg width="12" height="12" viewBox="0 0 12 12" fill="none" xmlns="http://www.w3.org/2000/svg">
<path fill-rule="evenodd" clip-rule="evenodd" d="M5.92225 10.8309C4.07636 10.8309 2.5 10.5437 2.5 9.39326C2.5 8.24291 4.06636 7.18091 5.92225 7.18091C7.7682 7.18091 9.34455 8.23261 9.34455 9.38301C9.34455 10.5329 7.7782 10.8309 5.92225 10.8309Z" stroke="#347474" stroke-linecap="round" stroke-linejoin="round"/>
<path fill-rule="evenodd" clip-rule="evenodd" d="M5.9186 5.58675C7.13 5.58675 8.1118 4.60495 8.1118 3.39359C8.1118 2.18223 7.13 1.19995 5.9186 1.19995C4.70726 1.19995 3.72499 2.18223 3.72499 3.39359C3.7209 4.60086 4.6959 5.5827 5.90315 5.58675C5.9086 5.58675 5.9136 5.58675 5.9186 5.58675Z" stroke="#347474" stroke-linecap="round" stroke-linejoin="round"/>
</svg>
