<svg width="397" height="378" viewBox="0 0 397 378" fill="none" xmlns="http://www.w3.org/2000/svg">
<path opacity="0.150019" fill-rule="evenodd" clip-rule="evenodd" d="M262.532 131.395L320.457 73.659C322.955 71.1686 327 71.1686 329.498 73.659L387.423 131.395C389.926 133.89 389.931 137.94 387.434 140.44C387.431 140.444 387.427 140.448 387.423 140.451L329.498 198.188C327 200.678 322.955 200.678 320.457 198.188L262.532 140.452C260.029 137.957 260.024 133.907 262.521 131.406C262.524 131.403 262.528 131.399 262.532 131.395Z" fill="#80BDAE"/>
<g opacity="0.0375744" filter="url(#filter0_f_1543_8219)">
<path fill-rule="evenodd" clip-rule="evenodd" d="M138.241 45.4084L170.516 13.2386C173.014 10.7483 177.059 10.7483 179.557 13.2386L211.832 45.4084C214.335 47.9031 214.34 51.9527 211.843 54.4536C211.839 54.4573 211.836 54.461 211.832 54.4647L179.557 86.6344C177.059 89.1248 173.014 89.1248 170.516 86.6344L138.241 54.4647C135.738 51.97 135.733 47.9203 138.23 45.4195C138.233 45.4158 138.237 45.4121 138.241 45.4084Z" fill="#EE9087"/>
</g>
<path opacity="0.0895647" d="M82.1811 159.891C84.8991 157.175 89.3003 157.169 92.0116 159.879L168.595 236.4C171.306 239.109 171.301 243.507 168.583 246.222L91.811 322.932C89.0931 325.648 84.6919 325.653 81.9806 322.944L5.39747 246.423C2.6862 243.714 2.6916 239.316 5.40954 236.6L82.1811 159.891ZM87.0539 194.263L39.8099 241.469L86.938 288.559L134.182 241.353L87.0539 194.263Z" fill="#EE9087"/>
<path fill-rule="evenodd" clip-rule="evenodd" d="M128.849 227.695L128.849 319.648L128.943 319.557L128.921 324.118L181.838 376.689H174.784L128.849 331.032L128.849 376.664H123.278L123.277 332.773L79.1224 376.689H71.3721L123.277 325.11L123.278 227.695H128.849Z" fill="url(#paint0_linear_1543_8219)"/>
<path fill-rule="evenodd" clip-rule="evenodd" d="M136.096 317.494H116.727C114.96 317.494 113.527 318.925 113.527 320.692V325.434C113.527 327.2 114.96 328.632 116.727 328.632H136.096C137.863 328.632 139.296 327.2 139.296 325.434V320.692C139.296 318.925 137.863 317.494 136.096 317.494Z" fill="#E9F1F1"/>
<path fill-rule="evenodd" clip-rule="evenodd" d="M82.7337 97.8574H180.383C182.21 97.8574 183.69 99.3311 183.69 101.149V263.896C183.69 265.664 182.291 267.106 180.535 267.184L180.37 267.188L82.7208 266.81C80.8995 266.803 79.4268 265.331 79.4268 263.518V101.149C79.4268 99.3311 80.9073 97.8574 82.7337 97.8574Z" fill="#B6A68E"/>
<path fill-rule="evenodd" clip-rule="evenodd" d="M77.951 97.8574H175.6C177.427 97.8574 178.907 99.3311 178.907 101.149V263.896C178.907 265.664 177.508 267.106 175.752 267.184L175.588 267.188L77.9381 266.81C76.1168 266.803 74.644 265.331 74.644 263.518V101.149C74.644 99.3311 76.1246 97.8574 77.951 97.8574Z" fill="#514846"/>
<path fill-rule="evenodd" clip-rule="evenodd" d="M82.664 101.258H170.752C172.842 101.258 174.535 102.944 174.535 105.023V258.674C174.535 260.754 172.842 262.44 170.752 262.44H82.664C80.5746 262.44 78.8809 260.754 78.8809 258.674V105.023C78.8809 102.944 80.5746 101.258 82.664 101.258Z" fill="white"/>
<path fill-rule="evenodd" clip-rule="evenodd" d="M110.31 257.679H136.957C138.466 257.679 139.69 258.897 139.69 260.4V269.241H110.31C108.801 269.241 107.577 268.023 107.577 266.52V260.4C107.577 258.897 108.801 257.679 110.31 257.679Z" fill="#80BDAE"/>
<path fill-rule="evenodd" clip-rule="evenodd" d="M139.007 266.521H141.74V269.241H139.007V266.521Z" fill="#80BDAE"/>
<path fill-rule="evenodd" clip-rule="evenodd" d="M108.944 257.679H135.591C137.1 257.679 138.324 258.897 138.324 260.4V266.52C138.324 268.023 137.1 269.241 135.591 269.241H108.944C107.435 269.241 106.211 268.023 106.211 266.52V260.4C106.211 258.897 107.435 257.679 108.944 257.679Z" fill="#E9F1F1"/>
<g filter="url(#filter1_dd_1543_8219)">
<path d="M69.7004 206.588H163.215C165.12 206.588 166.665 208.131 166.665 210.035V240.423C166.665 242.326 165.12 243.869 163.215 243.869H69.7004C67.7953 243.869 66.251 242.326 66.251 240.423V210.035C66.251 208.131 67.7953 206.588 69.7004 206.588Z" fill="black"/>
</g>
<path d="M69.7004 206.588H163.215C165.12 206.588 166.665 208.131 166.665 210.035V240.423C166.665 242.326 165.12 243.869 163.215 243.869H69.7004C67.7953 243.869 66.251 242.326 66.251 240.423V210.035C66.251 208.131 67.7953 206.588 69.7004 206.588Z" fill="white"/>
<path opacity="0.465472" d="M100.1 227.3H118.9C119.524 227.3 120.03 227.806 120.03 228.43C120.03 229.053 119.524 229.559 118.9 229.559H100.1C99.4759 229.559 98.9697 229.053 98.9697 228.43C98.9697 227.806 99.4759 227.3 100.1 227.3Z" fill="#FBBF9A"/>
<path d="M100.1 220.898H111.378C112.002 220.898 112.509 221.404 112.509 222.028C112.509 222.652 112.002 223.158 111.378 223.158H100.1C99.4759 223.158 98.9697 222.652 98.9697 222.028C98.9697 221.404 99.4759 220.898 100.1 220.898Z" fill="#FBBF9A"/>
<path d="M135.922 221.001C136.245 220.292 137.081 219.978 137.79 220.302C138.024 220.409 138.225 220.578 138.369 220.79L138.421 220.871L141.187 225.581C141.213 225.626 141.271 225.641 141.315 225.614L141.328 225.606L141.338 225.595L142.81 223.929C143.326 223.345 144.217 223.291 144.801 223.807C144.839 223.841 144.875 223.877 144.91 223.915L144.96 223.973L147.118 226.627C147.151 226.668 147.21 226.674 147.25 226.641L147.262 226.63L147.271 226.617L150.68 221.101C151.09 220.438 151.959 220.233 152.621 220.644C152.724 220.707 152.818 220.783 152.901 220.871L152.961 220.938L154.549 222.839C154.782 223.118 154.745 223.534 154.467 223.767C154.203 223.988 153.818 223.967 153.58 223.729L153.539 223.685L151.951 221.784C151.945 221.776 151.937 221.77 151.929 221.764C151.892 221.741 151.845 221.747 151.815 221.775L151.799 221.795L148.39 227.311C148.308 227.445 148.203 227.564 148.081 227.663C147.498 228.138 146.65 228.07 146.15 227.52L146.097 227.459L143.939 224.806C143.936 224.802 143.932 224.798 143.929 224.794C143.896 224.766 143.85 224.764 143.815 224.786L143.796 224.803L142.324 226.469C142.226 226.58 142.111 226.675 141.983 226.75C141.334 227.133 140.504 226.935 140.093 226.315L140.052 226.249L137.286 221.539C137.277 221.522 137.262 221.509 137.244 221.501C137.205 221.483 137.16 221.495 137.133 221.526L137.12 221.548L134.425 227.469C134.325 227.69 134.169 227.88 133.975 228.023L133.9 228.074L130.705 230.114C130.398 230.31 129.992 230.219 129.796 229.912C129.612 229.623 129.682 229.243 129.948 229.037L129.997 229.002L133.192 226.963C133.202 226.956 133.211 226.948 133.218 226.938L133.227 226.922L135.922 221.001Z" fill="#FBBF9A"/>
<path d="M84.8669 233.325C89.1248 233.325 92.5765 229.869 92.5765 225.606C92.5765 221.342 89.1248 217.886 84.8669 217.886C80.609 217.886 77.1572 221.342 77.1572 225.606C77.1572 229.869 80.609 233.325 84.8669 233.325Z" fill="#FBBF9A"/>
<mask id="mask0_1543_8219" style="mask-type:alpha" maskUnits="userSpaceOnUse" x="66" y="110" width="101" height="85">
<path d="M71.3719 110.01H161.292C164.121 110.01 166.413 112.301 166.413 115.127V189.457C166.413 192.283 164.121 194.574 161.292 194.574H71.3719C68.5437 194.574 66.251 192.283 66.251 189.457V115.127C66.251 112.301 68.5437 110.01 71.3719 110.01Z" fill="white"/>
</mask>
<g mask="url(#mask0_1543_8219)">
<g filter="url(#filter2_dd_1543_8219)">
<path d="M71.3719 110.01H161.292C164.121 110.01 166.413 112.301 166.413 115.127V189.457C166.413 192.283 164.121 194.574 161.292 194.574H71.3719C68.5437 194.574 66.251 192.283 66.251 189.457V115.127C66.251 112.301 68.5437 110.01 71.3719 110.01Z" fill="black"/>
</g>
<path d="M71.3719 110.01H161.292C164.121 110.01 166.413 112.301 166.413 115.127V189.457C166.413 192.283 164.121 194.574 161.292 194.574H71.3719C68.5437 194.574 66.251 192.283 66.251 189.457V115.127C66.251 112.301 68.5437 110.01 71.3719 110.01Z" fill="white"/>
<path opacity="0.414737" fill-rule="evenodd" clip-rule="evenodd" d="M79.6504 173.997C87.571 171.734 93.2776 168.293 96.77 163.674C102.009 156.747 103.775 150.031 112.785 150.031C121.795 150.031 122.95 160.316 132.69 160.316C142.43 160.316 142.962 147.2 146.199 141.993C148.358 138.521 151.299 136.785 155.023 136.785V181.399C155.023 182.021 154.519 182.525 153.897 182.525H80.777C80.1548 182.525 79.6504 182.021 79.6504 181.399V173.997Z" fill="#FFE3B5"/>
<g filter="url(#filter3_f_1543_8219)">
<path d="M79.6504 174.716C87.571 172.443 93.2776 168.987 96.77 164.349C102.009 157.391 103.775 150.647 112.785 150.647C121.795 150.647 122.95 160.976 132.69 160.976C142.43 160.976 142.962 147.803 146.199 142.573C148.358 139.086 151.299 137.342 155.023 137.342" fill="#D3D3D3"/>
</g>
<path d="M79.6504 174.716C87.571 172.443 93.2776 168.987 96.77 164.349C102.009 157.391 103.775 150.647 112.785 150.647C121.795 150.647 122.95 160.976 132.69 160.976C142.43 160.976 142.962 147.803 146.199 142.573C148.358 139.086 151.299 137.342 155.023 137.342" stroke="#FBBF9A" stroke-width="2.64" stroke-linecap="round"/>
<path d="M105.333 118.377H74.0674V121.724H105.333V118.377Z" fill="#FBBF9A"/>
<path opacity="0.465472" d="M75.7422 126.744H86.9089C87.8338 126.744 88.5836 127.493 88.5836 128.418C88.5836 129.342 87.8338 130.091 86.9089 130.091H75.7422C74.8172 130.091 74.0674 129.342 74.0674 128.418C74.0674 127.493 74.8172 126.744 75.7422 126.744Z" fill="#FBBF9A"/>
<path fill-rule="evenodd" clip-rule="evenodd" d="M146.928 122.282C148.007 122.282 148.882 121.408 148.882 120.329C148.882 119.251 148.007 118.377 146.928 118.377C145.849 118.377 144.974 119.251 144.974 120.329C144.974 121.408 145.849 122.282 146.928 122.282Z" fill="white"/>
<path fill-rule="evenodd" clip-rule="evenodd" d="M152.511 122.282C153.59 122.282 154.465 121.408 154.465 120.329C154.465 119.251 153.59 118.377 152.511 118.377C151.432 118.377 150.557 119.251 150.557 120.329C150.557 121.408 151.432 122.282 152.511 122.282Z" fill="white"/>
<path fill-rule="evenodd" clip-rule="evenodd" d="M158.094 122.282C159.173 122.282 160.048 121.408 160.048 120.329C160.048 119.251 159.173 118.377 158.094 118.377C157.015 118.377 156.14 119.251 156.14 120.329C156.14 121.408 157.015 122.282 158.094 122.282Z" fill="white"/>
</g>
<path fill-rule="evenodd" clip-rule="evenodd" d="M299.878 367.322L274.257 365.916H266.401L240.676 367.322C240.106 367.353 239.66 367.825 239.66 368.395V370.302H300.895V368.395C300.895 367.824 300.448 367.353 299.878 367.322Z" fill="#514846"/>
<path fill-rule="evenodd" clip-rule="evenodd" d="M273.193 322.352H267.361V366.208H273.193V322.352Z" fill="#514846"/>
<path d="M265.904 360.069H274.651V370.302H265.904V360.069Z" fill="#B6A68E"/>
<path fill-rule="evenodd" clip-rule="evenodd" d="M277.03 319.136H263.525C263.228 319.136 262.988 319.377 262.988 319.673V324.328C262.988 324.548 263.121 324.745 263.325 324.827L266.536 326.115C266.6 326.14 266.668 326.153 266.736 326.153H273.819C273.887 326.153 273.955 326.14 274.019 326.115L277.23 324.827C277.434 324.745 277.567 324.548 277.567 324.328V319.673C277.567 319.377 277.327 319.136 277.03 319.136Z" fill="#B6A68E"/>
<path d="M296.521 370.302H302.353V376.149H296.521V370.302Z" fill="#B6A68E"/>
<path d="M238.202 370.302H244.034V376.149H238.202V370.302Z" fill="#B6A68E"/>
<path d="M267.361 370.302H273.193V376.149H267.361V370.302Z" fill="#B6A68E"/>
<path fill-rule="evenodd" clip-rule="evenodd" d="M272.594 310.95H235.886C233.3 310.95 231.204 313.044 231.204 315.628C231.204 318.211 233.3 320.306 235.886 320.306H272.594C275.18 320.306 277.276 318.211 277.276 315.628C277.276 313.044 275.18 310.95 272.594 310.95Z" fill="#514846"/>
<path fill-rule="evenodd" clip-rule="evenodd" d="M300.02 267.678H291.855C291.855 275.475 291.855 283.272 291.855 291.068C291.855 298.865 287.481 306.662 278.734 314.458H289.523C296.521 307.819 300.02 300.022 300.02 291.068C300.02 283.272 300.02 275.475 300.02 267.678Z" fill="#B6A68E"/>
<path fill-rule="evenodd" clip-rule="evenodd" d="M296.521 267.678H288.356C288.356 275.475 288.356 283.272 288.356 291.068C288.356 298.865 283.982 306.662 275.235 314.458H284.857C292.633 308.001 296.521 300.204 296.521 291.068C296.521 283.272 296.521 275.475 296.521 267.678Z" fill="#514846"/>
<path fill-rule="evenodd" clip-rule="evenodd" d="M315.055 250.72H273.01C270.04 250.72 267.633 253.126 267.633 256.093V279.767C267.633 282.735 270.04 285.14 273.01 285.14H315.055C318.024 285.14 320.432 282.735 320.432 279.767V256.093C320.432 253.126 318.024 250.72 315.055 250.72Z" fill="#514846"/>
<path fill-rule="evenodd" clip-rule="evenodd" d="M316.903 250.72C314.815 250.72 313.122 252.412 313.122 254.498V281.362C313.122 283.449 314.815 285.14 316.903 285.14C318.991 285.14 320.684 283.449 320.684 281.362V254.498C320.684 252.412 318.991 250.72 316.903 250.72Z" fill="#B6A68E"/>
<path fill-rule="evenodd" clip-rule="evenodd" d="M301.17 310.95H265.628C263.043 310.95 260.946 313.044 260.946 315.628C260.946 318.211 263.043 320.306 265.628 320.306H301.17C303.756 320.306 305.852 318.211 305.852 315.628C305.852 313.044 303.756 310.95 301.17 310.95Z" fill="#B6A68E"/>
<path fill-rule="evenodd" clip-rule="evenodd" d="M241.711 347.564C241.711 347.564 245.069 354.341 242.316 356.476C239.559 358.612 232.277 362.615 232.277 362.615L251.57 361.403L247.281 346.624L241.711 347.564Z" fill="url(#paint1_linear_1543_8219)"/>
<path fill-rule="evenodd" clip-rule="evenodd" d="M249.659 353.696C249.052 353.986 250.05 356.709 247.914 356.517C245.778 356.327 244.437 353.512 242.863 353.695C241.287 353.877 240.288 356.712 237.289 358.686C234.291 360.66 229.845 363.015 230.143 365C230.441 366.985 237.437 367.516 240.981 366.859C244.525 366.203 246.179 364.779 248.479 364.893C250.778 365.006 252.223 364.725 252.944 363.25C253.664 361.774 250.359 353.362 249.659 353.696Z" fill="#EEDFE8"/>
<path fill-rule="evenodd" clip-rule="evenodd" d="M249.488 362.756L249.291 362.745C246.441 362.504 244.486 364.295 241.774 364.8C239.062 365.305 231.908 365.48 230.765 363.785C230.711 363.704 230.661 363.622 230.614 363.538C230.231 364.01 230.05 364.514 230.143 365.102C230.441 366.991 237.437 367.497 240.981 366.872C244.526 366.247 246.18 364.892 248.48 365L248.888 365.016C250.952 365.072 252.268 364.756 252.945 363.437C253.11 363.115 253.073 362.424 252.907 361.551C251.946 362.208 250.732 362.794 249.488 362.756Z" fill="#5A9687"/>
<path fill-rule="evenodd" clip-rule="evenodd" d="M270.773 287.837C264.933 288.097 232.424 295.282 226.518 296.502C220.612 297.723 215.619 304.327 220.123 311.975C225.181 320.56 238.233 344.941 241.401 350.437C242.97 353.157 250.882 351.632 249.024 347.066C245.559 338.555 243.95 317.173 235.116 309.377C235.116 309.377 264.824 314.543 277.656 308.625C286.982 304.323 284.872 287.207 270.773 287.837Z" fill="#004D78"/>
<path fill-rule="evenodd" clip-rule="evenodd" d="M230.029 251.407C230.029 251.407 230.095 247.938 228.432 245.456C226.77 242.975 226.704 240.339 225.446 240.425C224.188 240.511 225.434 246.638 225.434 246.638C225.434 246.638 223.837 246.029 222.69 245.258C221.544 244.487 218.066 240.687 217.254 241.361C215.876 242.508 218.095 248.98 219.304 250.274C220.516 251.568 226.501 255.185 226.501 255.185L244.126 272.927L246.762 263.508L230.029 251.407Z" fill="url(#paint2_linear_1543_8219)"/>
<path fill-rule="evenodd" clip-rule="evenodd" d="M265.282 249.841C262.565 256.138 257.591 267.705 255.54 271.156C252.969 275.478 248.917 277.382 244.171 274.175C243.509 273.728 242.228 272.722 240.327 271.158C240.749 267.05 242.285 263.617 244.932 260.857C246.131 261.847 246.73 262.343 246.73 262.343C246.73 262.343 251.829 249.283 255.931 241.717C259.483 235.171 269.418 240.268 265.282 249.841Z" fill="#EE9087"/>
<path fill-rule="evenodd" clip-rule="evenodd" d="M246.677 262.35C245.764 265.444 245.201 266.902 244.988 266.722C244.774 266.543 244.856 264.681 245.232 261.137L246.677 262.35Z" fill="black" fill-opacity="0.159856"/>
<path fill-rule="evenodd" clip-rule="evenodd" d="M277.025 225.4V230.971L281.12 227.677C281.12 227.677 282.379 222.339 283.402 218.374C284.044 215.888 285.608 207.473 279.312 207.868C274.154 198.783 259.133 204.406 259.014 215.504C258.87 228.853 258.987 234.05 258.987 234.05C267.481 234.538 272.262 233.31 277.025 225.4Z" fill="#5B1C10"/>
<path fill-rule="evenodd" clip-rule="evenodd" d="M281.208 236.008C281.208 236.008 277.399 235.115 277.267 228.878C277.135 222.641 277.228 220.513 277.228 220.513L268.837 220.361C268.837 220.361 268.746 227.312 268.744 229.826C268.741 235.939 264.242 236.44 264.242 236.44C264.242 236.44 265.011 241.483 272.614 241.91C278.55 242.244 281.208 236.008 281.208 236.008Z" fill="url(#paint3_linear_1543_8219)"/>
<path fill-rule="evenodd" clip-rule="evenodd" d="M279.184 217.398C282.927 217.254 282.316 222.729 278.428 222.721C278.428 222.721 276.17 230.499 268.329 230.499C261.961 230.499 261.547 221.434 261.489 219.625C261.427 217.697 261.419 211.363 261.419 211.363L279.329 211.354L279.184 217.398Z" fill="url(#paint4_linear_1543_8219)"/>
<path fill-rule="evenodd" clip-rule="evenodd" d="M279.473 217.362C277.922 217.618 278.11 218.644 277.689 218.555C275.547 218.1 266.877 218.7 265.761 213.936C264.372 216.912 264.032 217.644 260.974 218.443V209.722L280.319 207.868C280.319 207.868 280.019 217.272 279.473 217.362Z" fill="#5B1C10"/>
<path d="M269.84 225.274C269.84 225.274 267.973 226.854 265.81 225.374" stroke="#EE9087" stroke-width="1.5" stroke-linecap="round"/>
<path d="M268.608 227.104C268.027 227.372 267.467 227.391 266.968 227.124" stroke="#F49494" stroke-linecap="round"/>
<path d="M278.802 220.343C278.764 219.465 279.032 218.767 279.928 218.627" stroke="#EE9087" stroke-linecap="round"/>
<path fill-rule="evenodd" clip-rule="evenodd" d="M280.358 235.37C275.578 238.296 270.051 239.368 264.907 236.191C256.511 252.732 254.419 272.468 256.438 294.281C268.681 299.124 278.97 298.171 287.729 292.636L280.358 235.37Z" fill="#FFE4F4"/>
<path fill-rule="evenodd" clip-rule="evenodd" d="M220.784 347.836C220.784 347.836 220.885 355.813 214.307 358.795C207.734 361.776 203.05 361.597 203.647 363.902C204.243 366.207 221.353 366.114 222.951 364.311C224.312 362.778 227.274 348.496 228.089 349.588L220.784 347.836Z" fill="url(#paint5_linear_1543_8219)"/>
<path fill-rule="evenodd" clip-rule="evenodd" d="M225.561 359.101C224.553 358.376 223.706 362.555 220.968 361.393C218.23 360.231 220.389 356.39 218.666 355.681C216.942 354.973 213.615 358.782 209.196 359.708C204.776 360.633 201.188 361.443 200.169 363.162C199.29 364.639 200.169 365.111 200.169 365.111C200.169 365.111 204.423 367.234 207.067 367.701C210.907 368.38 222.006 368.832 223.222 367.594C223.969 366.835 226.065 359.464 225.561 359.101Z" fill="#EEDFE8"/>
<path fill-rule="evenodd" clip-rule="evenodd" d="M199.928 363.335C199.095 364.693 200.41 365.399 200.567 365.478L201.201 365.747C202.405 366.247 205.12 367.319 207.127 367.703C210.806 368.405 222.2 368.822 223.426 367.613C223.641 367.401 223.907 366.625 224.165 365.617L223.383 365.703C219.62 366.101 211.221 366.822 207.077 365.846C203.397 364.98 201.383 363.555 200.465 362.724C200.242 362.915 200.061 363.118 199.928 363.335Z" fill="#5A9687"/>
<path fill-rule="evenodd" clip-rule="evenodd" d="M289.075 285.371C294.736 297.317 293.588 305.341 285.633 309.442C274.093 315.393 239.545 308.355 239.545 308.355C239.545 308.355 240.162 313.321 239.545 317.751C237.932 329.319 230.264 348.593 228.642 351.014C226.398 354.363 219.564 351.838 219.435 349.049C219.306 346.261 224.587 310.646 225.39 303.854C226.189 297.062 228.711 296.076 236.078 294.219C237.771 293.793 257.785 288.823 259.618 288.968C270.121 289.797 279.94 288.599 289.075 285.371Z" fill="#004F80"/>
<path fill-rule="evenodd" clip-rule="evenodd" d="M279.766 307.593C268.341 308.872 238.093 306.235 236.878 307.434C235.718 308.577 235.911 328.479 233.31 339.998L233.705 338.91C236.152 332.119 238.693 323.86 239.545 317.751C240.162 313.321 239.545 308.355 239.545 308.355L240.938 308.624C247.505 309.857 275.477 314.679 285.633 309.442C291.136 306.605 293.381 301.892 292.369 295.302C290.627 302.75 286.426 306.847 279.766 307.593Z" fill="white" fill-opacity="0.056108"/>
<path fill-rule="evenodd" clip-rule="evenodd" d="M280.149 235.383C272.232 261.298 267.484 298.037 292.21 291.645C279.075 267.481 296.931 256.606 292.884 244.117C291.5 239.847 280.252 235.048 280.149 235.383Z" fill="#EE9087"/>
<path fill-rule="evenodd" clip-rule="evenodd" d="M289.078 246.144C280.13 247.493 287.506 263.104 284.553 265.456C281.599 267.808 276.458 268.061 275.903 269.498C274.789 272.386 280.175 279.675 292.061 291.367L292.21 291.645C280.768 270.596 292.842 259.63 293.47 248.898C292.144 246.82 290.68 245.903 289.078 246.144Z" fill="black" fill-opacity="0.159856"/>
<path fill-rule="evenodd" clip-rule="evenodd" d="M265.325 236.01C262.304 243.581 260.852 249.522 259.497 260.636C258.743 266.807 258.555 276.26 258.932 288.994L255.199 289.727C253.419 270.054 252.827 258.95 253.422 256.417C254.919 250.041 255.934 246.316 257.911 240.487C259.001 237.288 265.325 236.01 265.325 236.01Z" fill="#EE9087"/>
<path fill-rule="evenodd" clip-rule="evenodd" d="M278.486 264.803C278.486 264.803 273.611 259.925 271.923 259.359C270.234 258.793 260.987 258.114 261.049 259.392C261.12 260.763 267.071 260.684 267.621 261.358C268.172 262.032 268.937 267.278 271.017 267.796C273.093 268.313 277.396 269.844 277.396 269.844L296.551 279.733L294.51 269.845L278.486 264.803Z" fill="url(#paint6_linear_1543_8219)"/>
<path fill-rule="evenodd" clip-rule="evenodd" d="M293.158 244.153C298.968 252.346 303.929 264.827 305.833 269.693C307.737 274.559 305.816 281.899 297.443 280.458C296.779 280.344 295.906 280.076 294.825 279.656C291.746 275.439 291.206 271.819 292.355 268.595C293.077 268.9 293.438 269.052 293.438 269.052C293.438 269.052 285.116 254.313 283.084 250.362C279.69 243.763 288.04 236.933 293.158 244.153Z" fill="#EE9087"/>
<path fill-rule="evenodd" clip-rule="evenodd" d="M293.438 269.052C296.256 270.427 297.487 270.812 297.133 270.207C296.779 269.603 295.01 268.262 291.827 266.187L293.438 269.052Z" fill="black" fill-opacity="0.159856"/>
<path fill-rule="evenodd" clip-rule="evenodd" d="M184.759 282.415H192.441V376.806H184.759V282.415Z" fill="#DBDBDB"/>
<path fill-rule="evenodd" clip-rule="evenodd" d="M183.479 282.415H188.6V376.806H183.479V282.415Z" fill="#EFEFEF"/>
<path fill-rule="evenodd" clip-rule="evenodd" d="M135.366 282.415H143.048V376.806H135.366V282.415Z" fill="#DBDBDB"/>
<path fill-rule="evenodd" clip-rule="evenodd" d="M134.086 282.415H139.207V376.806H134.086V282.415Z" fill="#EFEFEF"/>
<path fill-rule="evenodd" clip-rule="evenodd" d="M315.659 282.415H323.34V376.806H315.659V282.415Z" fill="#DBDBDB"/>
<path fill-rule="evenodd" clip-rule="evenodd" d="M314.379 282.415H319.5V376.806H314.379V282.415Z" fill="#EFEFEF"/>
<path fill-rule="evenodd" clip-rule="evenodd" d="M263.065 282.415H270.747V376.806H263.065V282.415Z" fill="#DBDBDB"/>
<path fill-rule="evenodd" clip-rule="evenodd" d="M261.785 282.415H266.906V376.806H261.785V282.415Z" fill="#EFEFEF"/>
<path fill-rule="evenodd" clip-rule="evenodd" d="M188.158 279.502H324.504C325.098 279.502 325.579 279.983 325.579 280.576V290.58C325.579 291.173 325.098 291.654 324.504 291.654H188.158C187.564 291.654 187.083 291.173 187.083 290.58V280.576C187.083 279.983 187.564 279.502 188.158 279.502Z" fill="#DBDBDB"/>
<path fill-rule="evenodd" clip-rule="evenodd" d="M129.721 279.502H265.483C266.077 279.502 266.558 279.983 266.558 280.576V290.58C266.558 291.173 266.077 291.654 265.483 291.654H129.721C129.127 291.654 128.646 291.173 128.646 290.58V280.576C128.646 279.983 129.127 279.502 129.721 279.502Z" fill="#DBDBDB"/>
<path d="M333.177 279.502H116.819V285.745H333.177V279.502Z" fill="#EFEFEF"/>
<path fill-rule="evenodd" clip-rule="evenodd" d="M165.694 259.335V256.656L169.076 256.656L169.076 255.236C169.076 254.451 169.707 253.815 170.486 253.815C171.264 253.815 171.895 254.451 171.895 255.236V258.199C171.895 258.826 171.39 259.335 170.767 259.335H165.694Z" fill="#02B596"/>
<path fill-rule="evenodd" clip-rule="evenodd" d="M156.313 260.877V258.32C156.313 257.536 156.944 256.9 157.723 256.9C158.501 256.9 159.132 257.536 159.132 258.32L159.132 259.741H160.822L160.823 253.206C160.823 251.48 162.211 250.081 163.923 250.081C165.635 250.081 167.023 251.48 167.023 253.206V269.401H160.823L160.822 262.582L158.004 262.582C157.071 262.582 156.313 261.819 156.313 260.877Z" fill="#02D3AF"/>
<path fill-rule="evenodd" clip-rule="evenodd" d="M156.582 264.963H170.898L169.874 278.728C169.846 279.104 169.534 279.395 169.16 279.395H158.32C157.945 279.395 157.634 279.104 157.606 278.728L156.582 264.963Z" fill="url(#paint7_linear_1543_8219)"/>
<path fill-rule="evenodd" clip-rule="evenodd" d="M156.582 264.963H170.898C171.293 264.963 171.613 265.286 171.613 265.685V268.571C171.613 268.97 171.293 269.293 170.898 269.293H156.582C156.187 269.293 155.866 268.97 155.866 268.571V265.685C155.866 265.286 156.187 264.963 156.582 264.963Z" fill="#FFB3A4"/>
<path fill-rule="evenodd" clip-rule="evenodd" d="M203.99 277.916H271.366C271.899 277.916 272.331 278.348 272.331 278.88C272.331 279.413 271.899 279.844 271.366 279.844H203.99C203.457 279.844 203.025 279.413 203.025 278.88C203.025 278.348 203.457 277.916 203.99 277.916Z" fill="#DBDBDB"/>
<path fill-rule="evenodd" clip-rule="evenodd" d="M249.645 277.916H271.366C271.899 277.916 272.331 278.348 272.331 278.88C272.331 279.413 271.899 279.844 271.366 279.844H249.645C249.112 279.844 248.68 279.413 248.68 278.88C248.68 278.348 249.112 277.916 249.645 277.916Z" fill="#EE9087"/>
<path fill-rule="evenodd" clip-rule="evenodd" d="M202.012 248.802H244.431C245.59 248.802 246.569 249.663 246.716 250.812L249.863 275.405C250.024 276.666 249.131 277.819 247.869 277.98C247.772 277.993 247.675 277.999 247.577 277.999H205.158C203.998 277.999 203.019 277.138 202.872 275.988L199.726 251.396C199.565 250.135 200.457 248.982 201.719 248.82C201.816 248.808 201.914 248.802 202.012 248.802Z" fill="#EE9087"/>
<path fill-rule="evenodd" clip-rule="evenodd" d="M202.012 248.802H242.936C244.096 248.802 245.075 249.663 245.222 250.812L248.368 275.405C248.53 276.666 247.637 277.819 246.375 277.98C246.278 277.993 246.18 277.999 246.083 277.999H205.158C203.998 277.999 203.019 277.138 202.872 275.988L199.726 251.396C199.565 250.135 200.457 248.982 201.719 248.82C201.816 248.808 201.914 248.802 202.012 248.802Z" fill="#F0F0F0"/>
<path d="M225.235 266.457C226.547 265.469 226.736 263.508 225.656 262.076C224.576 260.644 222.637 260.285 221.325 261.273C220.012 262.261 219.824 264.223 220.903 265.654C221.983 267.086 223.922 267.446 225.235 266.457Z" fill="white"/>
<path fill-rule="evenodd" clip-rule="evenodd" d="M281.328 272.467H310.453C312.397 272.467 313.973 274.042 313.973 275.985C313.973 277.927 312.397 279.502 310.453 279.502H281.328C280.974 279.502 280.688 279.216 280.688 278.863V273.106C280.688 272.753 280.974 272.467 281.328 272.467Z" fill="#CABFC0"/>
<path d="M281.328 273.874H297.992C299.158 273.874 300.104 274.819 300.104 275.985C300.104 277.15 299.158 278.095 297.992 278.095H281.328C280.974 278.095 280.688 277.809 280.688 277.456V274.514C280.688 274.16 280.974 273.874 281.328 273.874Z" fill="#EAEFFF"/>
<path fill-rule="evenodd" clip-rule="evenodd" d="M73.0466 195.903C65.5423 194.167 65.0481 183.939 70.7534 180.391C64.8695 168.144 78.476 155.983 87.7963 163.483C93.9065 160.886 98.9842 171.02 93.2986 178.891C95.6824 192.406 90.8308 195.899 82.085 196.048L73.0466 195.903Z" fill="#5B1C10"/>
<path fill-rule="evenodd" clip-rule="evenodd" d="M73.1396 193.46C73.1396 193.46 76.7901 192.609 76.9168 186.669C77.0434 180.73 76.9545 178.702 76.9545 178.702L84.9955 178.558C84.9955 178.558 85.0831 185.178 85.0844 187.572C85.0877 194.003 89.6003 193.46 89.6003 193.46C89.6003 193.46 88.6622 198.674 81.3761 199.081C75.6873 199.399 73.1396 193.46 73.1396 193.46Z" fill="url(#paint8_linear_1543_8219)"/>
<path fill-rule="evenodd" clip-rule="evenodd" d="M75.0805 175.736C71.4934 175.599 72.0785 180.813 75.8048 180.806C75.8048 180.806 77.969 188.213 85.4831 188.213C91.5856 188.213 91.9825 179.58 92.0379 177.858C92.0974 176.021 92.105 169.988 92.105 169.988L74.9408 169.98L75.0805 175.736Z" fill="url(#paint9_linear_1543_8219)"/>
<path d="M84.0342 183.237C84.0342 183.237 85.8239 184.742 87.8968 183.333" stroke="#EE9087" stroke-width="1.5" stroke-linecap="round"/>
<path d="M85.2156 184.98C85.7724 185.235 86.3085 185.254 86.7871 184.999" stroke="#F49494" stroke-linecap="round"/>
<path d="M75.4464 178.54C75.4832 177.704 75.2263 177.04 74.3672 176.906" stroke="#EE9087" stroke-linecap="round"/>
<path fill-rule="evenodd" clip-rule="evenodd" d="M74.5126 175.092C74.5126 175.092 76.4788 177.712 76.877 177.726C77.2753 177.74 77.4147 174.319 77.4147 174.319C79.8266 174.136 85.9304 172.929 87.4266 170.117C88.473 172.598 90.4732 173.7 91.7874 173.488L92.0365 178.759L92.6499 168.163H74.0317L74.5126 175.092Z" fill="#5B1C10"/>
<path fill-rule="evenodd" clip-rule="evenodd" d="M121.334 196.565C121.334 196.565 120.263 190.591 120.648 189.381C120.977 188.336 124.087 186.828 124.087 186.828C124.087 186.828 129.496 178.278 130.68 179.148C131.643 179.854 127.863 186.158 127.863 186.158C127.863 186.158 131.31 189.776 131.262 191.394C131.213 193.011 125.636 198.075 125.636 198.075L121.334 196.565Z" fill="url(#paint10_linear_1543_8219)"/>
<path fill-rule="evenodd" clip-rule="evenodd" d="M124.203 186.742C124.203 186.742 126.599 186.416 126.98 187.162C127.305 187.798 125.315 189.6 125.315 190.107C125.315 190.614 125.343 194.45 125.503 194.485C125.663 194.52 127.903 188.225 127.425 186.894C127.032 185.801 124.203 186.742 124.203 186.742Z" fill="#F28585"/>
<path fill-rule="evenodd" clip-rule="evenodd" d="M92.848 195.859C89.2526 194.365 84.8989 198.653 87.5512 202.745C91.7886 209.29 107.431 226.472 114.642 226.498C121.118 226.52 127.068 200.78 126.932 198.729C126.795 196.677 121.539 194.11 119.629 195.559C117.715 197.008 111.659 213.988 111.659 213.988C111.659 213.988 96.4995 197.377 92.848 195.859Z" fill="#EE9087"/>
<path fill-rule="evenodd" clip-rule="evenodd" d="M111.659 213.988C113.023 216.334 113.768 217.332 113.894 216.981C114.02 216.631 113.523 214.943 112.402 211.918L111.659 213.988Z" fill="black" fill-opacity="0.302803"/>
<path fill-rule="evenodd" clip-rule="evenodd" d="M88.2364 359.905C88.2364 359.905 87.5195 365.793 90.1929 368.041C92.8664 370.29 82.5528 369.478 82.5528 369.478L82.4775 359.811L88.2364 359.905Z" fill="url(#paint11_linear_1543_8219)"/>
<path fill-rule="evenodd" clip-rule="evenodd" d="M82.4546 365.123C83.3735 365.173 83.227 367.932 84.4587 367.817C85.6905 367.701 87.7732 364.951 89.5595 365.876C91.4131 366.838 101.573 373.268 102.171 374.92C102.84 376.763 98.5073 376.9 95.41 376.766C92.3088 376.631 90.879 375.236 89.3739 375.271C87.8649 375.306 87.5084 376.245 86.3797 376.504C85.235 376.767 82.3714 376.728 82.1061 375.904C81.8288 375.049 81.5397 365.074 82.4546 365.123Z" fill="#EEC0A4"/>
<path fill-rule="evenodd" clip-rule="evenodd" d="M72.0122 239.847C72.0122 239.847 78.1766 299.15 78.6796 304.568C79.1826 309.987 78.1766 313.91 77.7641 319.507C77.3516 325.104 79.3371 360.303 79.3371 360.303C82.2561 362.065 85.7296 362.411 90.1458 360.356C90.1458 360.356 94.2015 316.506 94.1619 306.519C94.1381 300.561 94.756 240.516 94.756 240.516L72.0122 239.847Z" fill="#004F80"/>
<path fill-rule="evenodd" clip-rule="evenodd" d="M81.862 305.055C82.3683 308.807 81.0082 315.913 77.7816 326.373L77.7409 324.653C77.6948 322.379 77.6934 320.606 77.7561 319.621L77.764 319.507C78.1627 314.097 79.1161 310.25 78.7248 305.105L78.6402 304.155C78.4288 301.962 77.7719 295.529 76.9487 287.531L77.4004 288.838C79.9003 296.133 81.3874 301.539 81.862 305.055Z" fill="white" fill-opacity="0.0771689"/>
<path fill-rule="evenodd" clip-rule="evenodd" d="M90.6359 366.53L90.2215 367.162C90.0277 367.457 90.1103 367.854 90.406 368.047C90.4143 368.053 90.4228 368.058 90.4313 368.063L96.5547 371.677C96.7425 371.788 96.9738 371.796 97.1685 371.698L97.9859 371.286C95.6046 369.555 93.2191 368.006 90.6359 366.53Z" fill="white" fill-opacity="0.540975"/>
<path fill-rule="evenodd" clip-rule="evenodd" d="M62.0648 360.861L62.5825 369.834L55.9463 370.01L57.1936 360.861H62.0648Z" fill="url(#paint12_linear_1543_8219)"/>
<path fill-rule="evenodd" clip-rule="evenodd" d="M55.8839 366.722C60.587 370.266 62.3916 365.832 62.7925 366.271C63.5554 367.108 64.9994 375.435 64.2131 376.603C63.5203 377.637 54.0896 377.654 53.568 376.68C52.883 375.391 55.3608 366.328 55.8839 366.722Z" fill="#EEC0A4"/>
<path fill-rule="evenodd" clip-rule="evenodd" d="M58.6111 369.024H59.9389C60.2525 369.024 60.5199 369.251 60.5706 369.561L60.9649 371.968C61.022 372.316 60.7855 372.645 60.4366 372.702C60.4024 372.708 60.3679 372.711 60.3332 372.711H58.2168C57.8632 372.711 57.5767 372.424 57.5767 372.071C57.5767 372.036 57.5795 372.002 57.5851 371.968L57.9794 369.561C58.03 369.251 58.2975 369.024 58.6111 369.024Z" fill="white" fill-opacity="0.540975"/>
<path fill-rule="evenodd" clip-rule="evenodd" d="M68.23 237.929C68.23 237.929 61.6209 243.88 59.8858 252.43C56.9933 266.683 58.449 293.008 58.3634 298.78C58.2816 304.552 56.2043 308.035 55.09 316.197C53.9758 324.359 55.0784 360.834 55.0784 360.834C58.0325 362.615 61.2358 362.743 64.7582 360.727L85.4451 239.833L68.23 237.929Z" fill="#004F80"/>
<path fill-rule="evenodd" clip-rule="evenodd" d="M63.8272 243.24L66.4091 243.595C64.1407 247.931 62.9947 257.818 62.971 273.256L62.9707 273.746C62.9707 297.088 58.7534 305.311 57.0567 315.36L57.0061 315.665C55.9898 321.897 55.2286 331.883 54.7223 345.624L54.6709 342.217C54.53 331.837 54.5269 320.322 55.09 316.197C56.2043 308.035 58.2816 304.552 58.3634 298.78L58.3671 298.206C58.3656 291.439 57.0801 266.255 59.8858 252.43C60.6186 248.819 62.2207 245.672 63.8272 243.24Z" fill="white" fill-opacity="0.0771689"/>
<path fill-rule="evenodd" clip-rule="evenodd" d="M61.1304 198.084C61.1304 198.084 67.4596 219.276 67.6471 223.287C67.8345 227.299 62.4704 239.09 63.3837 242.07C65.4895 248.957 92.3738 251.923 95.2573 242.658C96.4896 238.702 94.1206 234.46 95.2692 229.369C96.4138 224.278 99.7772 216.712 97.1676 209.6C94.5581 202.487 95.2573 195.906 93.3908 194.663C91.5243 193.419 87.1613 192.098 87.1613 192.098C85.0395 195.22 77.8768 195.175 74.4589 191.878C74.4589 191.878 65.968 193.525 61.1304 198.084Z" fill="#EE9087"/>
<path fill-rule="evenodd" clip-rule="evenodd" d="M66.8019 201.516C71.0208 208.211 71.0081 219.868 73.274 221.395C75.5398 222.921 84.3588 221.423 84.3588 222.632C84.3588 223.841 72.1715 234.921 74.1722 240.217C75.2199 242.991 74.9357 245.472 73.3197 247.661L72.7923 247.546C67.9904 246.461 64.1299 244.512 63.3834 242.071C62.4701 239.09 67.8342 227.3 67.6468 223.288C67.4882 219.893 62.9324 204.199 61.5342 199.45C62.7698 197.216 64.5257 197.904 66.8019 201.516Z" fill="black" fill-opacity="0.0564904"/>
<path fill-rule="evenodd" clip-rule="evenodd" d="M80.1524 236.035C80.1524 236.035 84.2708 234.211 85.6037 234.216C86.9367 234.221 87.9562 234.264 87.9562 234.264L87.9602 236.109C87.9602 236.109 94.7273 236.724 95.4414 236.699C96.1594 236.676 92.8311 241.678 90.5897 242.584C88.1143 243.584 79.7002 240.617 79.7002 240.617L80.1524 236.035Z" fill="url(#paint13_linear_1543_8219)"/>
<path fill-rule="evenodd" clip-rule="evenodd" d="M61.4917 197.482C56.3028 201.264 43.0569 233.718 49.3486 238.27C54.712 242.151 77.4986 242.658 79.1846 241.419C80.5889 240.385 81.3784 237.239 80.0573 235.52C78.3039 233.229 58.5322 229.919 58.5322 229.919C58.5322 229.919 65.6412 212.926 67.1248 209.947C72.2145 199.723 68.8426 192.125 61.4917 197.482Z" fill="#EE9087"/>
<path fill-rule="evenodd" clip-rule="evenodd" d="M58.5602 229.898C57.0516 232.26 56.4525 233.47 56.7631 233.529C57.0737 233.587 58.2413 232.485 60.266 230.221L58.5602 229.898Z" fill="black" fill-opacity="0.302803"/>
<defs>
<filter id="filter0_f_1543_8219" x="130.36" y="5.37109" width="89.3521" height="89.1309" filterUnits="userSpaceOnUse" color-interpolation-filters="sRGB">
<feFlood flood-opacity="0" result="BackgroundImageFix"/>
<feBlend mode="normal" in="SourceGraphic" in2="BackgroundImageFix" result="shape"/>
<feGaussianBlur stdDeviation="3" result="effect1_foregroundBlur_1543_8219"/>
</filter>
<filter id="filter1_dd_1543_8219" x="48.251" y="189.588" width="150.414" height="87.2808" filterUnits="userSpaceOnUse" color-interpolation-filters="sRGB">
<feFlood flood-opacity="0" result="BackgroundImageFix"/>
<feColorMatrix in="SourceAlpha" type="matrix" values="0 0 0 0 0 0 0 0 0 0 0 0 0 0 0 0 0 0 127 0" result="hardAlpha"/>
<feOffset dx="7" dy="8"/>
<feGaussianBlur stdDeviation="12.5"/>
<feColorMatrix type="matrix" values="0 0 0 0 0.0755213 0 0 0 0 0.582569 0 0 0 0 0.878793 0 0 0 0.229458 0"/>
<feBlend mode="normal" in2="BackgroundImageFix" result="effect1_dropShadow_1543_8219"/>
<feColorMatrix in="SourceAlpha" type="matrix" values="0 0 0 0 0 0 0 0 0 0 0 0 0 0 0 0 0 0 127 0" result="hardAlpha"/>
<feOffset dy="2"/>
<feGaussianBlur stdDeviation="7"/>
<feColorMatrix type="matrix" values="0 0 0 0 0.503982 0 0 0 0 0.700178 0 0 0 0 1 0 0 0 0.233829 0"/>
<feBlend mode="normal" in2="effect1_dropShadow_1543_8219" result="effect2_dropShadow_1543_8219"/>
<feBlend mode="normal" in="SourceGraphic" in2="effect2_dropShadow_1543_8219" result="shape"/>
</filter>
<filter id="filter2_dd_1543_8219" x="46.251" y="91.0098" width="156.162" height="140.564" filterUnits="userSpaceOnUse" color-interpolation-filters="sRGB">
<feFlood flood-opacity="0" result="BackgroundImageFix"/>
<feColorMatrix in="SourceAlpha" type="matrix" values="0 0 0 0 0 0 0 0 0 0 0 0 0 0 0 0 0 0 127 0" result="hardAlpha"/>
<feOffset dx="8" dy="9"/>
<feGaussianBlur stdDeviation="14"/>
<feColorMatrix type="matrix" values="0 0 0 0 0.0755213 0 0 0 0 0.582569 0 0 0 0 0.878793 0 0 0 0.229458 0"/>
<feBlend mode="normal" in2="BackgroundImageFix" result="effect1_dropShadow_1543_8219"/>
<feColorMatrix in="SourceAlpha" type="matrix" values="0 0 0 0 0 0 0 0 0 0 0 0 0 0 0 0 0 0 127 0" result="hardAlpha"/>
<feOffset dy="2"/>
<feGaussianBlur stdDeviation="7.5"/>
<feColorMatrix type="matrix" values="0 0 0 0 0.503982 0 0 0 0 0.700178 0 0 0 0 1 0 0 0 0.233829 0"/>
<feBlend mode="normal" in2="effect1_dropShadow_1543_8219" result="effect2_dropShadow_1543_8219"/>
<feBlend mode="normal" in="SourceGraphic" in2="effect2_dropShadow_1543_8219" result="shape"/>
</filter>
<filter id="filter3_f_1543_8219" x="76.1504" y="133.842" width="82.373" height="44.373" filterUnits="userSpaceOnUse" color-interpolation-filters="sRGB">
<feFlood flood-opacity="0" result="BackgroundImageFix"/>
<feBlend mode="normal" in="SourceGraphic" in2="BackgroundImageFix" result="shape"/>
<feGaussianBlur stdDeviation="1.75" result="effect1_foregroundBlur_1543_8219"/>
</filter>
<linearGradient id="paint0_linear_1543_8219" x1="147.228" y1="106.429" x2="147.228" y2="376.689" gradientUnits="userSpaceOnUse">
<stop stop-color="#B6A68E"/>
<stop offset="1" stop-color="#B6A68E"/>
</linearGradient>
<linearGradient id="paint1_linear_1543_8219" x1="243.406" y1="346.016" x2="242.385" y2="359.172" gradientUnits="userSpaceOnUse">
<stop stop-color="#FDC6C6"/>
<stop offset="1" stop-color="#FAB2B2"/>
</linearGradient>
<linearGradient id="paint2_linear_1543_8219" x1="233.74" y1="231.261" x2="231.443" y2="269.997" gradientUnits="userSpaceOnUse">
<stop stop-color="#FDC6C6"/>
<stop offset="1" stop-color="#FAB2B2"/>
</linearGradient>
<linearGradient id="paint3_linear_1543_8219" x1="273.531" y1="214.284" x2="269.046" y2="246.333" gradientUnits="userSpaceOnUse">
<stop stop-color="#FFAFAF"/>
<stop offset="1" stop-color="#F07777"/>
</linearGradient>
<linearGradient id="paint4_linear_1543_8219" x1="275.262" y1="210.178" x2="271" y2="228.825" gradientUnits="userSpaceOnUse">
<stop stop-color="#FDC6C6"/>
<stop offset="1" stop-color="#FAB2B2"/>
</linearGradient>
<linearGradient id="paint5_linear_1543_8219" x1="217.725" y1="349.365" x2="216.722" y2="360.695" gradientUnits="userSpaceOnUse">
<stop stop-color="#FDC6C6"/>
<stop offset="1" stop-color="#FAB2B2"/>
</linearGradient>
<linearGradient id="paint6_linear_1543_8219" x1="281.529" y1="263.387" x2="280.547" y2="272.439" gradientUnits="userSpaceOnUse">
<stop stop-color="#FDC6C6"/>
<stop offset="1" stop-color="#FAB2B2"/>
</linearGradient>
<linearGradient id="paint7_linear_1543_8219" x1="172.022" y1="273.733" x2="158.563" y2="273.733" gradientUnits="userSpaceOnUse">
<stop stop-color="#F16B79"/>
<stop offset="1" stop-color="#F69D88"/>
</linearGradient>
<linearGradient id="paint8_linear_1543_8219" x1="80.5584" y1="172.77" x2="84.9109" y2="203.299" gradientUnits="userSpaceOnUse">
<stop stop-color="#FFAFAF"/>
<stop offset="1" stop-color="#F07777"/>
</linearGradient>
<linearGradient id="paint9_linear_1543_8219" x1="78.8391" y1="168.987" x2="82.8758" y2="186.54" gradientUnits="userSpaceOnUse">
<stop stop-color="#FDC6C6"/>
<stop offset="1" stop-color="#FAB2B2"/>
</linearGradient>
<linearGradient id="paint10_linear_1543_8219" x1="125.293" y1="176.646" x2="127.771" y2="197.022" gradientUnits="userSpaceOnUse">
<stop stop-color="#E6B7B4"/>
<stop offset="1" stop-color="#F1BFBB"/>
</linearGradient>
<linearGradient id="paint11_linear_1543_8219" x1="86.1236" y1="357.046" x2="86.749" y2="368.733" gradientUnits="userSpaceOnUse">
<stop stop-color="#FDC6C6"/>
<stop offset="1" stop-color="#FAB2B2"/>
</linearGradient>
<linearGradient id="paint12_linear_1543_8219" x1="58.9965" y1="358.282" x2="59.5052" y2="369.18" gradientUnits="userSpaceOnUse">
<stop stop-color="#FDC6C6"/>
<stop offset="1" stop-color="#FAB2B2"/>
</linearGradient>
<linearGradient id="paint13_linear_1543_8219" x1="84.7238" y1="236.922" x2="86.1712" y2="240.551" gradientUnits="userSpaceOnUse">
<stop stop-color="#FDC6C6"/>
<stop offset="1" stop-color="#FAB2B2"/>
</linearGradient>
</defs>
</svg>
