<svg width="392" height="373" viewBox="0 0 392 373" fill="none" xmlns="http://www.w3.org/2000/svg">
<path opacity="0.150019" fill-rule="evenodd" clip-rule="evenodd" d="M262.532 126.395L320.457 68.659C322.955 66.1686 327 66.1686 329.498 68.659L387.423 126.395C389.926 128.89 389.931 132.94 387.434 135.44C387.431 135.444 387.427 135.448 387.423 135.451L329.498 193.188C327 195.678 322.955 195.678 320.457 193.188L262.532 135.452C260.029 132.957 260.024 128.907 262.521 126.406C262.524 126.403 262.528 126.399 262.532 126.395Z" fill="#80BDAE"/>
<g opacity="0.0375744" filter="url(#filter0_f_1543_8221)">
<path fill-rule="evenodd" clip-rule="evenodd" d="M138.241 40.4084L170.516 8.23864C173.014 5.74828 177.059 5.74828 179.557 8.23864L211.832 40.4084C214.335 42.903 214.34 46.9527 211.843 49.4536C211.839 49.4573 211.836 49.461 211.832 49.4647L179.557 81.6344C177.059 84.1248 173.014 84.1248 170.516 81.6344L138.241 49.4647C135.738 46.97 135.733 42.9203 138.23 40.4195C138.233 40.4158 138.237 40.4121 138.241 40.4084Z" fill="#EE9087"/>
</g>
<path opacity="0.0895647" d="M82.1811 154.891C84.8991 152.175 89.3003 152.169 92.0116 154.879L168.595 231.4C171.306 234.109 171.301 238.507 168.583 241.222L91.811 317.932C89.0931 320.648 84.6919 320.653 81.9806 317.944L5.39747 241.423C2.6862 238.714 2.6916 234.316 5.40954 231.6L82.1811 154.891ZM87.0539 189.263L39.8099 236.469L86.938 283.559L134.182 236.353L87.0539 189.263Z" fill="#EE9087"/>
<path fill-rule="evenodd" clip-rule="evenodd" d="M128.849 222.695L128.849 314.648L128.943 314.557L128.921 319.118L181.838 371.689H174.784L128.849 326.032L128.849 371.664H123.278L123.277 327.773L79.1224 371.689H71.3721L123.277 320.11L123.278 222.695H128.849Z" fill="url(#paint0_linear_1543_8221)"/>
<path fill-rule="evenodd" clip-rule="evenodd" d="M136.096 312.494H116.727C114.96 312.494 113.527 313.925 113.527 315.692V320.434C113.527 322.2 114.96 323.632 116.727 323.632H136.096C137.863 323.632 139.296 322.2 139.296 320.434V315.692C139.296 313.925 137.863 312.494 136.096 312.494Z" fill="#E9F1F1"/>
<path fill-rule="evenodd" clip-rule="evenodd" d="M82.7337 92.8574H180.383C182.21 92.8574 183.69 94.3311 183.69 96.1491V258.896C183.69 260.664 182.291 262.106 180.535 262.184L180.37 262.188L82.7208 261.81C80.8995 261.803 79.4268 260.331 79.4268 258.518V96.1491C79.4268 94.3311 80.9073 92.8574 82.7337 92.8574Z" fill="#B6A68E"/>
<path fill-rule="evenodd" clip-rule="evenodd" d="M77.951 92.8574H175.6C177.427 92.8574 178.907 94.3311 178.907 96.1491V258.896C178.907 260.664 177.508 262.106 175.752 262.184L175.588 262.188L77.9381 261.81C76.1168 261.803 74.644 260.331 74.644 258.518V96.1491C74.644 94.3311 76.1246 92.8574 77.951 92.8574Z" fill="#514846"/>
<path fill-rule="evenodd" clip-rule="evenodd" d="M82.664 96.2578H170.752C172.842 96.2578 174.535 97.9438 174.535 100.023V253.674C174.535 255.754 172.842 257.44 170.752 257.44H82.664C80.5746 257.44 78.8809 255.754 78.8809 253.674V100.023C78.8809 97.9438 80.5746 96.2578 82.664 96.2578Z" fill="white"/>
<path fill-rule="evenodd" clip-rule="evenodd" d="M110.31 252.679H136.957C138.466 252.679 139.69 253.897 139.69 255.4V264.241H110.31C108.801 264.241 107.577 263.023 107.577 261.52V255.4C107.577 253.897 108.801 252.679 110.31 252.679Z" fill="#80BDAE"/>
<path fill-rule="evenodd" clip-rule="evenodd" d="M139.007 261.521H141.74V264.241H139.007V261.521Z" fill="#80BDAE"/>
<path fill-rule="evenodd" clip-rule="evenodd" d="M108.944 252.679H135.591C137.1 252.679 138.324 253.897 138.324 255.4V261.52C138.324 263.023 137.1 264.241 135.591 264.241H108.944C107.435 264.241 106.211 263.023 106.211 261.52V255.4C106.211 253.897 107.435 252.679 108.944 252.679Z" fill="#E9F1F1"/>
<g filter="url(#filter1_dd_1543_8221)">
<path d="M69.7004 201.588H163.215C165.12 201.588 166.665 203.131 166.665 205.035V235.423C166.665 237.326 165.12 238.869 163.215 238.869H69.7004C67.7953 238.869 66.251 237.326 66.251 235.423V205.035C66.251 203.131 67.7953 201.588 69.7004 201.588Z" fill="black"/>
</g>
<path d="M69.7004 201.588H163.215C165.12 201.588 166.665 203.131 166.665 205.035V235.423C166.665 237.326 165.12 238.869 163.215 238.869H69.7004C67.7953 238.869 66.251 237.326 66.251 235.423V205.035C66.251 203.131 67.7953 201.588 69.7004 201.588Z" fill="white"/>
<path opacity="0.465472" d="M100.1 222.3H118.9C119.524 222.3 120.03 222.806 120.03 223.43C120.03 224.053 119.524 224.559 118.9 224.559H100.1C99.4759 224.559 98.9697 224.053 98.9697 223.43C98.9697 222.806 99.4759 222.3 100.1 222.3Z" fill="#FBBF9A"/>
<path d="M100.1 215.898H111.378C112.002 215.898 112.509 216.404 112.509 217.028C112.509 217.652 112.002 218.158 111.378 218.158H100.1C99.4759 218.158 98.9697 217.652 98.9697 217.028C98.9697 216.404 99.4759 215.898 100.1 215.898Z" fill="#FBBF9A"/>
<path d="M135.922 216.001C136.245 215.292 137.081 214.978 137.79 215.302C138.024 215.409 138.225 215.578 138.369 215.79L138.421 215.871L141.187 220.581C141.213 220.626 141.271 220.641 141.315 220.614L141.328 220.606L141.338 220.595L142.81 218.929C143.326 218.345 144.217 218.291 144.801 218.807C144.839 218.841 144.875 218.877 144.91 218.915L144.96 218.973L147.118 221.627C147.151 221.668 147.21 221.674 147.25 221.641L147.262 221.63L147.271 221.617L150.68 216.101C151.09 215.438 151.959 215.233 152.621 215.644C152.724 215.707 152.818 215.783 152.901 215.871L152.961 215.938L154.549 217.839C154.782 218.118 154.745 218.534 154.467 218.767C154.203 218.988 153.818 218.967 153.58 218.729L153.539 218.685L151.951 216.784C151.945 216.776 151.937 216.77 151.929 216.764C151.892 216.741 151.845 216.747 151.815 216.775L151.799 216.795L148.39 222.311C148.308 222.445 148.203 222.564 148.081 222.663C147.498 223.138 146.65 223.07 146.15 222.52L146.097 222.459L143.939 219.806C143.936 219.802 143.932 219.798 143.929 219.794C143.896 219.766 143.85 219.764 143.815 219.786L143.796 219.803L142.324 221.469C142.226 221.58 142.111 221.675 141.983 221.75C141.334 222.133 140.504 221.935 140.093 221.315L140.052 221.249L137.286 216.539C137.277 216.522 137.262 216.509 137.244 216.501C137.205 216.483 137.16 216.495 137.133 216.526L137.12 216.548L134.425 222.469C134.325 222.69 134.169 222.88 133.975 223.023L133.9 223.074L130.705 225.114C130.398 225.31 129.992 225.219 129.796 224.912C129.612 224.623 129.682 224.243 129.948 224.037L129.997 224.002L133.192 221.963C133.202 221.956 133.211 221.948 133.218 221.938L133.227 221.922L135.922 216.001Z" fill="#FBBF9A"/>
<path d="M84.8669 228.325C89.1248 228.325 92.5765 224.869 92.5765 220.606C92.5765 216.342 89.1248 212.886 84.8669 212.886C80.609 212.886 77.1572 216.342 77.1572 220.606C77.1572 224.869 80.609 228.325 84.8669 228.325Z" fill="#FBBF9A"/>
<mask id="mask0_1543_8221" style="mask-type:alpha" maskUnits="userSpaceOnUse" x="66" y="105" width="101" height="85">
<path d="M71.3719 105.01H161.292C164.121 105.01 166.413 107.301 166.413 110.127V184.457C166.413 187.283 164.121 189.574 161.292 189.574H71.3719C68.5437 189.574 66.251 187.283 66.251 184.457V110.127C66.251 107.301 68.5437 105.01 71.3719 105.01Z" fill="white"/>
</mask>
<g mask="url(#mask0_1543_8221)">
<g filter="url(#filter2_dd_1543_8221)">
<path d="M71.3719 105.01H161.292C164.121 105.01 166.413 107.301 166.413 110.127V184.457C166.413 187.283 164.121 189.574 161.292 189.574H71.3719C68.5437 189.574 66.251 187.283 66.251 184.457V110.127C66.251 107.301 68.5437 105.01 71.3719 105.01Z" fill="black"/>
</g>
<path d="M71.3719 105.01H161.292C164.121 105.01 166.413 107.301 166.413 110.127V184.457C166.413 187.283 164.121 189.574 161.292 189.574H71.3719C68.5437 189.574 66.251 187.283 66.251 184.457V110.127C66.251 107.301 68.5437 105.01 71.3719 105.01Z" fill="white"/>
<path opacity="0.414737" fill-rule="evenodd" clip-rule="evenodd" d="M79.6504 168.997C87.571 166.734 93.2776 163.293 96.77 158.674C102.009 151.747 103.775 145.031 112.785 145.031C121.795 145.031 122.95 155.316 132.69 155.316C142.43 155.316 142.962 142.2 146.199 136.993C148.358 133.521 151.299 131.785 155.023 131.785V176.399C155.023 177.021 154.519 177.525 153.897 177.525H80.777C80.1548 177.525 79.6504 177.021 79.6504 176.399V168.997Z" fill="#FFE3B5"/>
<g filter="url(#filter3_f_1543_8221)">
<path d="M79.6504 169.716C87.571 167.443 93.2776 163.987 96.77 159.349C102.009 152.391 103.775 145.647 112.785 145.647C121.795 145.647 122.95 155.976 132.69 155.976C142.43 155.976 142.962 142.803 146.199 137.573C148.358 134.086 151.299 132.342 155.023 132.342" fill="#D3D3D3"/>
</g>
<path d="M79.6504 169.716C87.571 167.443 93.2776 163.987 96.77 159.349C102.009 152.391 103.775 145.647 112.785 145.647C121.795 145.647 122.95 155.976 132.69 155.976C142.43 155.976 142.962 142.803 146.199 137.573C148.358 134.086 151.299 132.342 155.023 132.342" stroke="#FBBF9A" stroke-width="2.64" stroke-linecap="round"/>
<path d="M105.333 113.377H74.0674V116.724H105.333V113.377Z" fill="#FBBF9A"/>
<path opacity="0.465472" d="M75.7422 121.744H86.9089C87.8338 121.744 88.5836 122.493 88.5836 123.418C88.5836 124.342 87.8338 125.091 86.9089 125.091H75.7422C74.8172 125.091 74.0674 124.342 74.0674 123.418C74.0674 122.493 74.8172 121.744 75.7422 121.744Z" fill="#FBBF9A"/>
<path fill-rule="evenodd" clip-rule="evenodd" d="M146.928 117.282C148.007 117.282 148.882 116.408 148.882 115.329C148.882 114.251 148.007 113.377 146.928 113.377C145.849 113.377 144.974 114.251 144.974 115.329C144.974 116.408 145.849 117.282 146.928 117.282Z" fill="white"/>
<path fill-rule="evenodd" clip-rule="evenodd" d="M152.511 117.282C153.59 117.282 154.465 116.408 154.465 115.329C154.465 114.251 153.59 113.377 152.511 113.377C151.432 113.377 150.557 114.251 150.557 115.329C150.557 116.408 151.432 117.282 152.511 117.282Z" fill="white"/>
<path fill-rule="evenodd" clip-rule="evenodd" d="M158.094 117.282C159.173 117.282 160.048 116.408 160.048 115.329C160.048 114.251 159.173 113.377 158.094 113.377C157.015 113.377 156.14 114.251 156.14 115.329C156.14 116.408 157.015 117.282 158.094 117.282Z" fill="white"/>
</g>
<path fill-rule="evenodd" clip-rule="evenodd" d="M299.878 362.322L274.257 360.916H266.401L240.676 362.322C240.106 362.353 239.66 362.825 239.66 363.395V365.302H300.895V363.395C300.895 362.824 300.448 362.353 299.878 362.322Z" fill="#514846"/>
<path fill-rule="evenodd" clip-rule="evenodd" d="M273.193 317.352H267.361V361.208H273.193V317.352Z" fill="#514846"/>
<path d="M265.904 355.069H274.651V365.302H265.904V355.069Z" fill="#B6A68E"/>
<path fill-rule="evenodd" clip-rule="evenodd" d="M277.03 314.136H263.525C263.228 314.136 262.988 314.377 262.988 314.673V319.328C262.988 319.548 263.121 319.745 263.325 319.827L266.536 321.115C266.6 321.14 266.668 321.153 266.736 321.153H273.819C273.887 321.153 273.955 321.14 274.019 321.115L277.23 319.827C277.434 319.745 277.567 319.548 277.567 319.328V314.673C277.567 314.377 277.327 314.136 277.03 314.136Z" fill="#B6A68E"/>
<path d="M296.521 365.302H302.353V371.149H296.521V365.302Z" fill="#B6A68E"/>
<path d="M238.202 365.302H244.034V371.149H238.202V365.302Z" fill="#B6A68E"/>
<path d="M267.361 365.302H273.193V371.149H267.361V365.302Z" fill="#B6A68E"/>
<path fill-rule="evenodd" clip-rule="evenodd" d="M272.594 305.95H235.886C233.3 305.95 231.204 308.044 231.204 310.628C231.204 313.211 233.3 315.306 235.886 315.306H272.594C275.18 315.306 277.276 313.211 277.276 310.628C277.276 308.044 275.18 305.95 272.594 305.95Z" fill="#514846"/>
<path fill-rule="evenodd" clip-rule="evenodd" d="M300.02 262.678H291.855C291.855 270.475 291.855 278.272 291.855 286.068C291.855 293.865 287.481 301.662 278.734 309.458H289.523C296.521 302.819 300.02 295.022 300.02 286.068C300.02 278.272 300.02 270.475 300.02 262.678Z" fill="#B6A68E"/>
<path fill-rule="evenodd" clip-rule="evenodd" d="M296.521 262.678H288.356C288.356 270.475 288.356 278.272 288.356 286.068C288.356 293.865 283.982 301.662 275.235 309.458H284.857C292.633 303.001 296.521 295.204 296.521 286.068C296.521 278.272 296.521 270.475 296.521 262.678Z" fill="#514846"/>
<path fill-rule="evenodd" clip-rule="evenodd" d="M315.055 245.72H273.01C270.04 245.72 267.633 248.126 267.633 251.093V274.767C267.633 277.735 270.04 280.14 273.01 280.14H315.055C318.024 280.14 320.432 277.735 320.432 274.767V251.093C320.432 248.126 318.024 245.72 315.055 245.72Z" fill="#514846"/>
<path fill-rule="evenodd" clip-rule="evenodd" d="M316.903 245.72C314.815 245.72 313.122 247.412 313.122 249.498V276.362C313.122 278.449 314.815 280.14 316.903 280.14C318.991 280.14 320.684 278.449 320.684 276.362V249.498C320.684 247.412 318.991 245.72 316.903 245.72Z" fill="#B6A68E"/>
<path fill-rule="evenodd" clip-rule="evenodd" d="M301.17 305.95H265.628C263.043 305.95 260.946 308.044 260.946 310.628C260.946 313.211 263.043 315.306 265.628 315.306H301.17C303.756 315.306 305.852 313.211 305.852 310.628C305.852 308.044 303.756 305.95 301.17 305.95Z" fill="#B6A68E"/>
<path fill-rule="evenodd" clip-rule="evenodd" d="M241.711 342.564C241.711 342.564 245.069 349.341 242.316 351.476C239.559 353.612 232.277 357.615 232.277 357.615L251.57 356.403L247.281 341.624L241.711 342.564Z" fill="url(#paint1_linear_1543_8221)"/>
<path fill-rule="evenodd" clip-rule="evenodd" d="M249.659 348.696C249.052 348.986 250.05 351.709 247.914 351.517C245.778 351.327 244.437 348.512 242.863 348.695C241.287 348.877 240.288 351.712 237.289 353.686C234.291 355.66 229.845 358.015 230.143 360C230.441 361.985 237.437 362.516 240.981 361.859C244.525 361.203 246.179 359.779 248.479 359.893C250.778 360.006 252.223 359.725 252.944 358.25C253.664 356.774 250.359 348.362 249.659 348.696Z" fill="#EEDFE8"/>
<path fill-rule="evenodd" clip-rule="evenodd" d="M249.488 357.756L249.291 357.745C246.441 357.504 244.486 359.295 241.774 359.8C239.062 360.305 231.908 360.48 230.765 358.785C230.711 358.704 230.661 358.622 230.614 358.538C230.231 359.01 230.05 359.514 230.143 360.102C230.441 361.991 237.437 362.497 240.981 361.872C244.526 361.247 246.18 359.892 248.48 360L248.888 360.016C250.952 360.072 252.268 359.756 252.945 358.437C253.11 358.115 253.073 357.424 252.907 356.551C251.946 357.208 250.732 357.794 249.488 357.756Z" fill="#5A9687"/>
<path fill-rule="evenodd" clip-rule="evenodd" d="M270.773 282.837C264.933 283.097 232.424 290.282 226.518 291.502C220.612 292.723 215.619 299.327 220.123 306.975C225.181 315.56 238.233 339.941 241.401 345.437C242.97 348.157 250.882 346.632 249.024 342.066C245.559 333.555 243.95 312.173 235.116 304.377C235.116 304.377 264.824 309.543 277.656 303.625C286.982 299.323 284.872 282.207 270.773 282.837Z" fill="#004D78"/>
<path fill-rule="evenodd" clip-rule="evenodd" d="M230.029 246.407C230.029 246.407 230.095 242.938 228.432 240.456C226.77 237.975 226.704 235.339 225.446 235.425C224.188 235.511 225.434 241.638 225.434 241.638C225.434 241.638 223.837 241.029 222.69 240.258C221.544 239.487 218.066 235.687 217.254 236.361C215.876 237.508 218.095 243.98 219.304 245.274C220.516 246.568 226.501 250.185 226.501 250.185L244.126 267.927L246.762 258.508L230.029 246.407Z" fill="url(#paint2_linear_1543_8221)"/>
<path fill-rule="evenodd" clip-rule="evenodd" d="M265.282 244.841C262.565 251.138 257.591 262.705 255.54 266.156C252.969 270.478 248.917 272.382 244.171 269.175C243.509 268.728 242.228 267.722 240.327 266.158C240.749 262.05 242.285 258.617 244.932 255.857C246.131 256.847 246.73 257.343 246.73 257.343C246.73 257.343 251.829 244.283 255.931 236.717C259.483 230.171 269.418 235.268 265.282 244.841Z" fill="#EE9087"/>
<path fill-rule="evenodd" clip-rule="evenodd" d="M246.677 257.35C245.764 260.444 245.201 261.902 244.988 261.722C244.774 261.543 244.856 259.681 245.232 256.137L246.677 257.35Z" fill="black" fill-opacity="0.159856"/>
<path fill-rule="evenodd" clip-rule="evenodd" d="M277.025 220.4V225.971L281.12 222.677C281.12 222.677 282.379 217.339 283.402 213.374C284.044 210.888 285.608 202.473 279.312 202.868C274.154 193.783 259.133 199.406 259.014 210.504C258.87 223.853 258.987 229.05 258.987 229.05C267.481 229.538 272.262 228.31 277.025 220.4Z" fill="#5B1C10"/>
<path fill-rule="evenodd" clip-rule="evenodd" d="M281.208 231.008C281.208 231.008 277.399 230.115 277.267 223.878C277.135 217.641 277.228 215.513 277.228 215.513L268.837 215.361C268.837 215.361 268.746 222.312 268.744 224.826C268.741 230.939 264.242 231.44 264.242 231.44C264.242 231.44 265.011 236.483 272.614 236.91C278.55 237.244 281.208 231.008 281.208 231.008Z" fill="url(#paint3_linear_1543_8221)"/>
<path fill-rule="evenodd" clip-rule="evenodd" d="M279.184 212.398C282.927 212.254 282.316 217.729 278.428 217.721C278.428 217.721 276.17 225.499 268.329 225.499C261.961 225.499 261.547 216.434 261.489 214.625C261.427 212.697 261.419 206.363 261.419 206.363L279.329 206.354L279.184 212.398Z" fill="url(#paint4_linear_1543_8221)"/>
<path fill-rule="evenodd" clip-rule="evenodd" d="M279.473 212.362C277.922 212.618 278.11 213.644 277.689 213.555C275.547 213.1 266.877 213.7 265.761 208.936C264.372 211.912 264.032 212.644 260.974 213.443V204.722L280.319 202.868C280.319 202.868 280.019 212.272 279.473 212.362Z" fill="#5B1C10"/>
<path d="M269.84 220.274C269.84 220.274 267.973 221.854 265.81 220.374" stroke="#EE9087" stroke-width="1.5" stroke-linecap="round"/>
<path d="M268.608 222.104C268.027 222.372 267.467 222.391 266.968 222.124" stroke="#F49494" stroke-linecap="round"/>
<path d="M278.802 215.343C278.764 214.465 279.032 213.767 279.928 213.627" stroke="#EE9087" stroke-linecap="round"/>
<path fill-rule="evenodd" clip-rule="evenodd" d="M280.358 230.37C275.578 233.296 270.051 234.368 264.907 231.191C256.511 247.732 254.419 267.468 256.438 289.281C268.681 294.124 278.97 293.171 287.729 287.636L280.358 230.37Z" fill="#FFE4F4"/>
<path fill-rule="evenodd" clip-rule="evenodd" d="M220.784 342.836C220.784 342.836 220.885 350.813 214.307 353.795C207.734 356.776 203.05 356.597 203.647 358.902C204.243 361.207 221.353 361.114 222.951 359.311C224.312 357.778 227.274 343.496 228.089 344.588L220.784 342.836Z" fill="url(#paint5_linear_1543_8221)"/>
<path fill-rule="evenodd" clip-rule="evenodd" d="M225.561 354.101C224.553 353.376 223.706 357.555 220.968 356.393C218.23 355.231 220.389 351.39 218.666 350.681C216.942 349.973 213.615 353.782 209.196 354.708C204.776 355.633 201.188 356.443 200.169 358.162C199.29 359.639 200.169 360.111 200.169 360.111C200.169 360.111 204.423 362.234 207.067 362.701C210.907 363.38 222.006 363.832 223.222 362.594C223.969 361.835 226.065 354.464 225.561 354.101Z" fill="#EEDFE8"/>
<path fill-rule="evenodd" clip-rule="evenodd" d="M199.928 358.335C199.095 359.693 200.41 360.399 200.567 360.478L201.201 360.747C202.405 361.247 205.12 362.319 207.127 362.703C210.806 363.405 222.2 363.822 223.426 362.613C223.641 362.401 223.907 361.625 224.165 360.617L223.383 360.703C219.62 361.101 211.221 361.822 207.077 360.846C203.397 359.98 201.383 358.555 200.465 357.724C200.242 357.915 200.061 358.118 199.928 358.335Z" fill="#5A9687"/>
<path fill-rule="evenodd" clip-rule="evenodd" d="M289.075 280.371C294.736 292.317 293.588 300.341 285.633 304.442C274.093 310.393 239.545 303.355 239.545 303.355C239.545 303.355 240.162 308.321 239.545 312.751C237.932 324.319 230.264 343.593 228.642 346.014C226.398 349.363 219.564 346.838 219.435 344.049C219.306 341.261 224.587 305.646 225.39 298.854C226.189 292.062 228.711 291.076 236.078 289.219C237.771 288.793 257.785 283.823 259.618 283.968C270.121 284.797 279.94 283.599 289.075 280.371Z" fill="#004F80"/>
<path fill-rule="evenodd" clip-rule="evenodd" d="M279.766 302.593C268.341 303.872 238.093 301.235 236.878 302.434C235.718 303.577 235.911 323.479 233.31 334.998L233.705 333.91C236.152 327.119 238.693 318.86 239.545 312.751C240.162 308.321 239.545 303.355 239.545 303.355L240.938 303.624C247.505 304.857 275.477 309.679 285.633 304.442C291.136 301.605 293.381 296.892 292.369 290.302C290.627 297.75 286.426 301.847 279.766 302.593Z" fill="white" fill-opacity="0.056108"/>
<path fill-rule="evenodd" clip-rule="evenodd" d="M280.149 230.383C272.232 256.298 267.484 293.037 292.21 286.645C279.075 262.481 296.931 251.606 292.884 239.117C291.5 234.847 280.252 230.048 280.149 230.383Z" fill="#EE9087"/>
<path fill-rule="evenodd" clip-rule="evenodd" d="M289.078 241.144C280.13 242.493 287.506 258.104 284.553 260.456C281.599 262.808 276.458 263.061 275.903 264.498C274.789 267.386 280.175 274.675 292.061 286.367L292.21 286.645C280.768 265.596 292.842 254.63 293.47 243.898C292.144 241.82 290.68 240.903 289.078 241.144Z" fill="black" fill-opacity="0.159856"/>
<path fill-rule="evenodd" clip-rule="evenodd" d="M265.325 231.01C262.304 238.581 260.852 244.522 259.497 255.636C258.743 261.807 258.555 271.26 258.932 283.994L255.199 284.727C253.419 265.054 252.827 253.95 253.422 251.417C254.919 245.041 255.934 241.316 257.911 235.487C259.001 232.288 265.325 231.01 265.325 231.01Z" fill="#EE9087"/>
<path fill-rule="evenodd" clip-rule="evenodd" d="M278.486 259.802C278.486 259.802 273.611 254.925 271.923 254.359C270.234 253.793 260.987 253.114 261.049 254.392C261.12 255.763 267.071 255.684 267.621 256.358C268.172 257.032 268.937 262.278 271.017 262.796C273.093 263.313 277.396 264.844 277.396 264.844L296.551 274.733L294.51 264.845L278.486 259.802Z" fill="url(#paint6_linear_1543_8221)"/>
<path fill-rule="evenodd" clip-rule="evenodd" d="M293.158 239.153C298.968 247.346 303.929 259.827 305.833 264.693C307.737 269.559 305.816 276.899 297.443 275.458C296.779 275.344 295.906 275.076 294.825 274.656C291.746 270.439 291.206 266.819 292.355 263.595C293.077 263.9 293.438 264.052 293.438 264.052C293.438 264.052 285.116 249.313 283.084 245.362C279.69 238.763 288.04 231.933 293.158 239.153Z" fill="#EE9087"/>
<path fill-rule="evenodd" clip-rule="evenodd" d="M293.438 264.052C296.256 265.427 297.487 265.812 297.133 265.207C296.779 264.603 295.01 263.262 291.827 261.187L293.438 264.052Z" fill="black" fill-opacity="0.159856"/>
<path fill-rule="evenodd" clip-rule="evenodd" d="M184.759 277.415H192.441V371.806H184.759V277.415Z" fill="#DBDBDB"/>
<path fill-rule="evenodd" clip-rule="evenodd" d="M183.479 277.415H188.6V371.806H183.479V277.415Z" fill="#EFEFEF"/>
<path fill-rule="evenodd" clip-rule="evenodd" d="M135.366 277.415H143.048V371.806H135.366V277.415Z" fill="#DBDBDB"/>
<path fill-rule="evenodd" clip-rule="evenodd" d="M134.086 277.415H139.207V371.806H134.086V277.415Z" fill="#EFEFEF"/>
<path fill-rule="evenodd" clip-rule="evenodd" d="M315.659 277.415H323.34V371.806H315.659V277.415Z" fill="#DBDBDB"/>
<path fill-rule="evenodd" clip-rule="evenodd" d="M314.379 277.415H319.5V371.806H314.379V277.415Z" fill="#EFEFEF"/>
<path fill-rule="evenodd" clip-rule="evenodd" d="M263.065 277.415H270.747V371.806H263.065V277.415Z" fill="#DBDBDB"/>
<path fill-rule="evenodd" clip-rule="evenodd" d="M261.785 277.415H266.906V371.806H261.785V277.415Z" fill="#EFEFEF"/>
<path fill-rule="evenodd" clip-rule="evenodd" d="M188.158 274.502H324.504C325.098 274.502 325.579 274.983 325.579 275.576V285.58C325.579 286.173 325.098 286.654 324.504 286.654H188.158C187.564 286.654 187.083 286.173 187.083 285.58V275.576C187.083 274.983 187.564 274.502 188.158 274.502Z" fill="#DBDBDB"/>
<path fill-rule="evenodd" clip-rule="evenodd" d="M129.721 274.502H265.483C266.077 274.502 266.558 274.983 266.558 275.576V285.58C266.558 286.173 266.077 286.654 265.483 286.654H129.721C129.127 286.654 128.646 286.173 128.646 285.58V275.576C128.646 274.983 129.127 274.502 129.721 274.502Z" fill="#DBDBDB"/>
<path d="M333.177 274.502H116.819V280.745H333.177V274.502Z" fill="#EFEFEF"/>
<path fill-rule="evenodd" clip-rule="evenodd" d="M165.694 254.335V251.656L169.076 251.656L169.076 250.236C169.076 249.451 169.707 248.815 170.486 248.815C171.264 248.815 171.895 249.451 171.895 250.236V253.199C171.895 253.826 171.39 254.335 170.767 254.335H165.694Z" fill="#02B596"/>
<path fill-rule="evenodd" clip-rule="evenodd" d="M156.313 255.877V253.32C156.313 252.536 156.944 251.9 157.723 251.9C158.501 251.9 159.132 252.536 159.132 253.32L159.132 254.741H160.822L160.823 248.206C160.823 246.48 162.211 245.081 163.923 245.081C165.635 245.081 167.023 246.48 167.023 248.206V264.401H160.823L160.822 257.582L158.004 257.582C157.071 257.582 156.313 256.819 156.313 255.877Z" fill="#02D3AF"/>
<path fill-rule="evenodd" clip-rule="evenodd" d="M156.582 259.963H170.898L169.874 273.728C169.846 274.104 169.534 274.395 169.16 274.395H158.32C157.945 274.395 157.634 274.104 157.606 273.728L156.582 259.963Z" fill="url(#paint7_linear_1543_8221)"/>
<path fill-rule="evenodd" clip-rule="evenodd" d="M156.582 259.963H170.898C171.293 259.963 171.613 260.286 171.613 260.685V263.571C171.613 263.97 171.293 264.293 170.898 264.293H156.582C156.187 264.293 155.866 263.97 155.866 263.571V260.685C155.866 260.286 156.187 259.963 156.582 259.963Z" fill="#FFB3A4"/>
<path fill-rule="evenodd" clip-rule="evenodd" d="M203.99 272.916H271.366C271.899 272.916 272.331 273.348 272.331 273.88C272.331 274.413 271.899 274.844 271.366 274.844H203.99C203.457 274.844 203.025 274.413 203.025 273.88C203.025 273.348 203.457 272.916 203.99 272.916Z" fill="#DBDBDB"/>
<path fill-rule="evenodd" clip-rule="evenodd" d="M249.645 272.916H271.366C271.899 272.916 272.331 273.348 272.331 273.88C272.331 274.413 271.899 274.844 271.366 274.844H249.645C249.112 274.844 248.68 274.413 248.68 273.88C248.68 273.348 249.112 272.916 249.645 272.916Z" fill="#EE9087"/>
<path fill-rule="evenodd" clip-rule="evenodd" d="M202.012 243.802H244.431C245.59 243.802 246.569 244.663 246.716 245.812L249.863 270.405C250.024 271.666 249.131 272.819 247.869 272.98C247.772 272.993 247.675 272.999 247.577 272.999H205.158C203.998 272.999 203.019 272.138 202.872 270.988L199.726 246.396C199.565 245.135 200.457 243.982 201.719 243.82C201.816 243.808 201.914 243.802 202.012 243.802Z" fill="#EE9087"/>
<path fill-rule="evenodd" clip-rule="evenodd" d="M202.012 243.802H242.936C244.096 243.802 245.075 244.663 245.222 245.812L248.368 270.405C248.53 271.666 247.637 272.819 246.375 272.98C246.278 272.993 246.18 272.999 246.083 272.999H205.158C203.998 272.999 203.019 272.138 202.872 270.988L199.726 246.396C199.565 245.135 200.457 243.982 201.719 243.82C201.816 243.808 201.914 243.802 202.012 243.802Z" fill="#F0F0F0"/>
<path d="M225.235 261.457C226.547 260.469 226.736 258.508 225.656 257.076C224.576 255.644 222.637 255.285 221.325 256.273C220.012 257.261 219.824 259.223 220.903 260.654C221.983 262.086 223.922 262.446 225.235 261.457Z" fill="white"/>
<path fill-rule="evenodd" clip-rule="evenodd" d="M281.328 267.467H310.453C312.397 267.467 313.973 269.042 313.973 270.985C313.973 272.927 312.397 274.502 310.453 274.502H281.328C280.974 274.502 280.688 274.216 280.688 273.863V268.106C280.688 267.753 280.974 267.467 281.328 267.467Z" fill="#CABFC0"/>
<path d="M281.328 268.874H297.992C299.158 268.874 300.104 269.819 300.104 270.985C300.104 272.15 299.158 273.095 297.992 273.095H281.328C280.974 273.095 280.688 272.809 280.688 272.456V269.514C280.688 269.16 280.974 268.874 281.328 268.874Z" fill="#EAEFFF"/>
<path fill-rule="evenodd" clip-rule="evenodd" d="M73.0466 190.903C65.5423 189.167 65.0481 178.939 70.7534 175.391C64.8695 163.144 78.476 150.983 87.7963 158.483C93.9065 155.886 98.9842 166.02 93.2986 173.891C95.6824 187.406 90.8308 190.899 82.085 191.048L73.0466 190.903Z" fill="#5B1C10"/>
<path fill-rule="evenodd" clip-rule="evenodd" d="M73.1396 188.46C73.1396 188.46 76.7901 187.609 76.9168 181.669C77.0434 175.73 76.9545 173.702 76.9545 173.702L84.9955 173.558C84.9955 173.558 85.0831 180.178 85.0844 182.572C85.0877 189.003 89.6003 188.46 89.6003 188.46C89.6003 188.46 88.6622 193.674 81.3761 194.081C75.6873 194.399 73.1396 188.46 73.1396 188.46Z" fill="url(#paint8_linear_1543_8221)"/>
<path fill-rule="evenodd" clip-rule="evenodd" d="M75.0805 170.736C71.4934 170.599 72.0785 175.813 75.8048 175.806C75.8048 175.806 77.969 183.213 85.4831 183.213C91.5856 183.213 91.9825 174.58 92.0379 172.858C92.0974 171.021 92.105 164.988 92.105 164.988L74.9408 164.98L75.0805 170.736Z" fill="url(#paint9_linear_1543_8221)"/>
<path d="M84.0342 178.237C84.0342 178.237 85.8239 179.742 87.8968 178.333" stroke="#EE9087" stroke-width="1.5" stroke-linecap="round"/>
<path d="M85.2156 179.98C85.7724 180.235 86.3085 180.254 86.7871 179.999" stroke="#F49494" stroke-linecap="round"/>
<path d="M75.4464 173.54C75.4832 172.704 75.2263 172.04 74.3672 171.906" stroke="#EE9087" stroke-linecap="round"/>
<path fill-rule="evenodd" clip-rule="evenodd" d="M74.5126 170.092C74.5126 170.092 76.4788 172.712 76.877 172.726C77.2753 172.74 77.4147 169.319 77.4147 169.319C79.8266 169.136 85.9304 167.929 87.4266 165.117C88.473 167.598 90.4732 168.7 91.7874 168.488L92.0365 173.759L92.6499 163.163H74.0317L74.5126 170.092Z" fill="#5B1C10"/>
<path fill-rule="evenodd" clip-rule="evenodd" d="M121.334 191.565C121.334 191.565 120.263 185.591 120.648 184.381C120.977 183.336 124.087 181.828 124.087 181.828C124.087 181.828 129.496 173.278 130.68 174.148C131.643 174.854 127.863 181.158 127.863 181.158C127.863 181.158 131.31 184.776 131.262 186.394C131.213 188.011 125.636 193.075 125.636 193.075L121.334 191.565Z" fill="url(#paint10_linear_1543_8221)"/>
<path fill-rule="evenodd" clip-rule="evenodd" d="M124.203 181.742C124.203 181.742 126.599 181.416 126.98 182.162C127.305 182.798 125.315 184.6 125.315 185.107C125.315 185.614 125.343 189.45 125.503 189.485C125.663 189.52 127.903 183.225 127.425 181.894C127.032 180.801 124.203 181.742 124.203 181.742Z" fill="#F28585"/>
<path fill-rule="evenodd" clip-rule="evenodd" d="M92.848 190.859C89.2526 189.365 84.8989 193.653 87.5512 197.745C91.7886 204.29 107.431 221.472 114.642 221.498C121.118 221.52 127.068 195.78 126.932 193.729C126.795 191.677 121.539 189.11 119.629 190.559C117.715 192.008 111.659 208.988 111.659 208.988C111.659 208.988 96.4995 192.377 92.848 190.859Z" fill="#EE9087"/>
<path fill-rule="evenodd" clip-rule="evenodd" d="M111.659 208.988C113.023 211.334 113.768 212.332 113.894 211.981C114.02 211.631 113.523 209.943 112.402 206.918L111.659 208.988Z" fill="black" fill-opacity="0.302803"/>
<path fill-rule="evenodd" clip-rule="evenodd" d="M88.2364 354.905C88.2364 354.905 87.5195 360.793 90.1929 363.041C92.8664 365.29 82.5528 364.478 82.5528 364.478L82.4775 354.811L88.2364 354.905Z" fill="url(#paint11_linear_1543_8221)"/>
<path fill-rule="evenodd" clip-rule="evenodd" d="M82.4546 360.123C83.3735 360.173 83.227 362.932 84.4587 362.817C85.6905 362.701 87.7732 359.951 89.5595 360.876C91.4131 361.838 101.573 368.268 102.171 369.92C102.84 371.763 98.5073 371.9 95.41 371.766C92.3088 371.631 90.879 370.236 89.3739 370.271C87.8649 370.306 87.5084 371.245 86.3797 371.504C85.235 371.767 82.3714 371.728 82.1061 370.904C81.8288 370.049 81.5397 360.074 82.4546 360.123Z" fill="#EEC0A4"/>
<path fill-rule="evenodd" clip-rule="evenodd" d="M72.0122 234.847C72.0122 234.847 78.1766 294.15 78.6796 299.568C79.1826 304.987 78.1766 308.91 77.7641 314.507C77.3516 320.104 79.3371 355.303 79.3371 355.303C82.2561 357.065 85.7296 357.411 90.1458 355.356C90.1458 355.356 94.2015 311.506 94.1619 301.519C94.1381 295.561 94.756 235.516 94.756 235.516L72.0122 234.847Z" fill="#004F80"/>
<path fill-rule="evenodd" clip-rule="evenodd" d="M81.862 300.055C82.3683 303.807 81.0082 310.913 77.7816 321.373L77.7409 319.653C77.6948 317.379 77.6934 315.606 77.7561 314.621L77.764 314.507C78.1627 309.097 79.1161 305.25 78.7248 300.105L78.6402 299.155C78.4288 296.962 77.7719 290.529 76.9487 282.531L77.4004 283.838C79.9003 291.133 81.3874 296.539 81.862 300.055Z" fill="white" fill-opacity="0.0771689"/>
<path fill-rule="evenodd" clip-rule="evenodd" d="M90.6359 361.53L90.2215 362.162C90.0277 362.457 90.1103 362.854 90.406 363.047C90.4143 363.053 90.4228 363.058 90.4313 363.063L96.5547 366.677C96.7425 366.788 96.9738 366.796 97.1685 366.698L97.9859 366.286C95.6046 364.555 93.2191 363.006 90.6359 361.53Z" fill="white" fill-opacity="0.540975"/>
<path fill-rule="evenodd" clip-rule="evenodd" d="M62.0648 355.861L62.5825 364.834L55.9463 365.01L57.1936 355.861H62.0648Z" fill="url(#paint12_linear_1543_8221)"/>
<path fill-rule="evenodd" clip-rule="evenodd" d="M55.8839 361.722C60.587 365.266 62.3916 360.832 62.7925 361.271C63.5554 362.108 64.9994 370.435 64.2131 371.603C63.5203 372.637 54.0896 372.654 53.568 371.68C52.883 370.391 55.3608 361.328 55.8839 361.722Z" fill="#EEC0A4"/>
<path fill-rule="evenodd" clip-rule="evenodd" d="M58.6111 364.024H59.9389C60.2525 364.024 60.5199 364.251 60.5706 364.561L60.9649 366.968C61.022 367.316 60.7855 367.645 60.4366 367.702C60.4024 367.708 60.3679 367.711 60.3332 367.711H58.2168C57.8632 367.711 57.5767 367.424 57.5767 367.071C57.5767 367.036 57.5795 367.002 57.5851 366.968L57.9794 364.561C58.03 364.251 58.2975 364.024 58.6111 364.024Z" fill="white" fill-opacity="0.540975"/>
<path fill-rule="evenodd" clip-rule="evenodd" d="M68.23 232.929C68.23 232.929 61.6209 238.88 59.8858 247.43C56.9933 261.683 58.449 288.008 58.3634 293.78C58.2816 299.552 56.2043 303.035 55.09 311.197C53.9758 319.359 55.0784 355.834 55.0784 355.834C58.0325 357.615 61.2358 357.743 64.7582 355.727L85.4451 234.833L68.23 232.929Z" fill="#004F80"/>
<path fill-rule="evenodd" clip-rule="evenodd" d="M63.8272 238.24L66.4091 238.595C64.1407 242.931 62.9947 252.818 62.971 268.256L62.9707 268.746C62.9707 292.088 58.7534 300.311 57.0567 310.36L57.0061 310.665C55.9898 316.897 55.2286 326.883 54.7223 340.624L54.6709 337.217C54.53 326.837 54.5269 315.322 55.09 311.197C56.2043 303.035 58.2816 299.552 58.3634 293.78L58.3671 293.206C58.3656 286.439 57.0801 261.255 59.8858 247.43C60.6186 243.819 62.2207 240.672 63.8272 238.24Z" fill="white" fill-opacity="0.0771689"/>
<path fill-rule="evenodd" clip-rule="evenodd" d="M61.1304 193.084C61.1304 193.084 67.4596 214.276 67.6471 218.287C67.8345 222.299 62.4704 234.09 63.3837 237.07C65.4895 243.957 92.3738 246.923 95.2573 237.658C96.4896 233.702 94.1206 229.46 95.2692 224.369C96.4138 219.278 99.7771 211.712 97.1676 204.6C94.5581 197.487 95.2573 190.906 93.3908 189.663C91.5243 188.419 87.1613 187.098 87.1613 187.098C85.0395 190.22 77.8768 190.175 74.4589 186.878C74.4589 186.878 65.968 188.525 61.1304 193.084Z" fill="#EE9087"/>
<path fill-rule="evenodd" clip-rule="evenodd" d="M66.8019 196.516C71.0208 203.211 71.0081 214.868 73.274 216.395C75.5398 217.921 84.3588 216.423 84.3588 217.632C84.3588 218.841 72.1715 229.921 74.1722 235.217C75.2199 237.991 74.9357 240.472 73.3197 242.661L72.7923 242.546C67.9904 241.461 64.1299 239.512 63.3834 237.071C62.4701 234.09 67.8342 222.3 67.6468 218.288C67.4882 214.893 62.9324 199.199 61.5342 194.45C62.7698 192.216 64.5257 192.904 66.8019 196.516Z" fill="black" fill-opacity="0.0564904"/>
<path fill-rule="evenodd" clip-rule="evenodd" d="M80.1524 231.035C80.1524 231.035 84.2708 229.211 85.6037 229.216C86.9367 229.221 87.9562 229.264 87.9562 229.264L87.9602 231.109C87.9602 231.109 94.7273 231.724 95.4414 231.699C96.1594 231.676 92.8311 236.678 90.5897 237.584C88.1143 238.584 79.7002 235.617 79.7002 235.617L80.1524 231.035Z" fill="url(#paint13_linear_1543_8221)"/>
<path fill-rule="evenodd" clip-rule="evenodd" d="M61.4917 192.482C56.3028 196.264 43.0569 228.718 49.3486 233.27C54.712 237.151 77.4986 237.658 79.1846 236.419C80.5889 235.385 81.3784 232.239 80.0573 230.52C78.3039 228.229 58.5323 224.919 58.5323 224.919C58.5323 224.919 65.6412 207.926 67.1248 204.947C72.2145 194.723 68.8426 187.125 61.4917 192.482Z" fill="#EE9087"/>
<path fill-rule="evenodd" clip-rule="evenodd" d="M58.5602 224.898C57.0516 227.26 56.4525 228.47 56.7631 228.529C57.0737 228.587 58.2413 227.485 60.266 225.221L58.5602 224.898Z" fill="black" fill-opacity="0.302803"/>
<defs>
<filter id="filter0_f_1543_8221" x="130.36" y="0.371094" width="89.3521" height="89.1309" filterUnits="userSpaceOnUse" color-interpolation-filters="sRGB">
<feFlood flood-opacity="0" result="BackgroundImageFix"/>
<feBlend mode="normal" in="SourceGraphic" in2="BackgroundImageFix" result="shape"/>
<feGaussianBlur stdDeviation="3" result="effect1_foregroundBlur_1543_8221"/>
</filter>
<filter id="filter1_dd_1543_8221" x="48.251" y="184.588" width="150.414" height="87.2808" filterUnits="userSpaceOnUse" color-interpolation-filters="sRGB">
<feFlood flood-opacity="0" result="BackgroundImageFix"/>
<feColorMatrix in="SourceAlpha" type="matrix" values="0 0 0 0 0 0 0 0 0 0 0 0 0 0 0 0 0 0 127 0" result="hardAlpha"/>
<feOffset dx="7" dy="8"/>
<feGaussianBlur stdDeviation="12.5"/>
<feColorMatrix type="matrix" values="0 0 0 0 0.0755213 0 0 0 0 0.582569 0 0 0 0 0.878793 0 0 0 0.229458 0"/>
<feBlend mode="normal" in2="BackgroundImageFix" result="effect1_dropShadow_1543_8221"/>
<feColorMatrix in="SourceAlpha" type="matrix" values="0 0 0 0 0 0 0 0 0 0 0 0 0 0 0 0 0 0 127 0" result="hardAlpha"/>
<feOffset dy="2"/>
<feGaussianBlur stdDeviation="7"/>
<feColorMatrix type="matrix" values="0 0 0 0 0.503982 0 0 0 0 0.700178 0 0 0 0 1 0 0 0 0.233829 0"/>
<feBlend mode="normal" in2="effect1_dropShadow_1543_8221" result="effect2_dropShadow_1543_8221"/>
<feBlend mode="normal" in="SourceGraphic" in2="effect2_dropShadow_1543_8221" result="shape"/>
</filter>
<filter id="filter2_dd_1543_8221" x="46.251" y="86.0098" width="156.162" height="140.564" filterUnits="userSpaceOnUse" color-interpolation-filters="sRGB">
<feFlood flood-opacity="0" result="BackgroundImageFix"/>
<feColorMatrix in="SourceAlpha" type="matrix" values="0 0 0 0 0 0 0 0 0 0 0 0 0 0 0 0 0 0 127 0" result="hardAlpha"/>
<feOffset dx="8" dy="9"/>
<feGaussianBlur stdDeviation="14"/>
<feColorMatrix type="matrix" values="0 0 0 0 0.0755213 0 0 0 0 0.582569 0 0 0 0 0.878793 0 0 0 0.229458 0"/>
<feBlend mode="normal" in2="BackgroundImageFix" result="effect1_dropShadow_1543_8221"/>
<feColorMatrix in="SourceAlpha" type="matrix" values="0 0 0 0 0 0 0 0 0 0 0 0 0 0 0 0 0 0 127 0" result="hardAlpha"/>
<feOffset dy="2"/>
<feGaussianBlur stdDeviation="7.5"/>
<feColorMatrix type="matrix" values="0 0 0 0 0.503982 0 0 0 0 0.700178 0 0 0 0 1 0 0 0 0.233829 0"/>
<feBlend mode="normal" in2="effect1_dropShadow_1543_8221" result="effect2_dropShadow_1543_8221"/>
<feBlend mode="normal" in="SourceGraphic" in2="effect2_dropShadow_1543_8221" result="shape"/>
</filter>
<filter id="filter3_f_1543_8221" x="76.1504" y="128.842" width="82.373" height="44.373" filterUnits="userSpaceOnUse" color-interpolation-filters="sRGB">
<feFlood flood-opacity="0" result="BackgroundImageFix"/>
<feBlend mode="normal" in="SourceGraphic" in2="BackgroundImageFix" result="shape"/>
<feGaussianBlur stdDeviation="1.75" result="effect1_foregroundBlur_1543_8221"/>
</filter>
<linearGradient id="paint0_linear_1543_8221" x1="147.228" y1="101.429" x2="147.228" y2="371.689" gradientUnits="userSpaceOnUse">
<stop stop-color="#B6A68E"/>
<stop offset="1" stop-color="#B6A68E"/>
</linearGradient>
<linearGradient id="paint1_linear_1543_8221" x1="243.406" y1="341.016" x2="242.385" y2="354.172" gradientUnits="userSpaceOnUse">
<stop stop-color="#FDC6C6"/>
<stop offset="1" stop-color="#FAB2B2"/>
</linearGradient>
<linearGradient id="paint2_linear_1543_8221" x1="233.74" y1="226.261" x2="231.443" y2="264.997" gradientUnits="userSpaceOnUse">
<stop stop-color="#FDC6C6"/>
<stop offset="1" stop-color="#FAB2B2"/>
</linearGradient>
<linearGradient id="paint3_linear_1543_8221" x1="273.531" y1="209.284" x2="269.046" y2="241.333" gradientUnits="userSpaceOnUse">
<stop stop-color="#FFAFAF"/>
<stop offset="1" stop-color="#F07777"/>
</linearGradient>
<linearGradient id="paint4_linear_1543_8221" x1="275.262" y1="205.178" x2="271" y2="223.825" gradientUnits="userSpaceOnUse">
<stop stop-color="#FDC6C6"/>
<stop offset="1" stop-color="#FAB2B2"/>
</linearGradient>
<linearGradient id="paint5_linear_1543_8221" x1="217.725" y1="344.365" x2="216.722" y2="355.695" gradientUnits="userSpaceOnUse">
<stop stop-color="#FDC6C6"/>
<stop offset="1" stop-color="#FAB2B2"/>
</linearGradient>
<linearGradient id="paint6_linear_1543_8221" x1="281.529" y1="258.387" x2="280.547" y2="267.439" gradientUnits="userSpaceOnUse">
<stop stop-color="#FDC6C6"/>
<stop offset="1" stop-color="#FAB2B2"/>
</linearGradient>
<linearGradient id="paint7_linear_1543_8221" x1="172.022" y1="268.733" x2="158.563" y2="268.733" gradientUnits="userSpaceOnUse">
<stop stop-color="#F16B79"/>
<stop offset="1" stop-color="#F69D88"/>
</linearGradient>
<linearGradient id="paint8_linear_1543_8221" x1="80.5584" y1="167.77" x2="84.9109" y2="198.299" gradientUnits="userSpaceOnUse">
<stop stop-color="#FFAFAF"/>
<stop offset="1" stop-color="#F07777"/>
</linearGradient>
<linearGradient id="paint9_linear_1543_8221" x1="78.8391" y1="163.987" x2="82.8758" y2="181.54" gradientUnits="userSpaceOnUse">
<stop stop-color="#FDC6C6"/>
<stop offset="1" stop-color="#FAB2B2"/>
</linearGradient>
<linearGradient id="paint10_linear_1543_8221" x1="125.293" y1="171.646" x2="127.771" y2="192.022" gradientUnits="userSpaceOnUse">
<stop stop-color="#E6B7B4"/>
<stop offset="1" stop-color="#F1BFBB"/>
</linearGradient>
<linearGradient id="paint11_linear_1543_8221" x1="86.1236" y1="352.046" x2="86.749" y2="363.733" gradientUnits="userSpaceOnUse">
<stop stop-color="#FDC6C6"/>
<stop offset="1" stop-color="#FAB2B2"/>
</linearGradient>
<linearGradient id="paint12_linear_1543_8221" x1="58.9965" y1="353.282" x2="59.5052" y2="364.18" gradientUnits="userSpaceOnUse">
<stop stop-color="#FDC6C6"/>
<stop offset="1" stop-color="#FAB2B2"/>
</linearGradient>
<linearGradient id="paint13_linear_1543_8221" x1="84.7238" y1="231.922" x2="86.1712" y2="235.551" gradientUnits="userSpaceOnUse">
<stop stop-color="#FDC6C6"/>
<stop offset="1" stop-color="#FAB2B2"/>
</linearGradient>
</defs>
</svg>
