<svg width="25" height="24" viewBox="0 0 25 24" fill="none" xmlns="http://www.w3.org/2000/svg">
<g clip-path="url(#clip0_4432_7346)">
<path d="M20.6754 18.5601C21.0114 18.5601 21.3344 18.644 21.6209 18.8015C23.1304 16.8664 23.959 14.4626 23.959 12C23.959 5.90002 18.9965 0.9375 12.8965 0.9375C12.1549 0.9375 11.4137 1.01129 10.6934 1.15686C10.4399 1.20813 10.1924 1.04407 10.1411 0.790283C10.0898 0.536499 10.2539 0.289307 10.5077 0.237854C11.289 0.0800171 12.0927 0 12.8965 0C16.1017 0 19.1153 1.24823 21.3818 3.51471C23.6483 5.78119 24.8965 8.79474 24.8965 12C24.8965 14.6962 23.981 17.3275 22.3141 19.4368C22.5287 19.7574 22.6441 20.1343 22.6441 20.5289C22.6441 21.0547 22.4392 21.5491 22.0673 21.9208C21.6956 22.2927 21.2012 22.4976 20.6754 22.4976C20.1495 22.4976 19.6551 22.2927 19.2832 21.9208C18.9113 21.5491 18.7066 21.0546 18.7066 20.5287C18.7066 20.003 18.9113 19.5084 19.2832 19.1367C19.6551 18.7648 20.1495 18.5601 20.6754 18.5601ZM19.9462 21.258C20.1409 21.4528 20.4 21.5601 20.6754 21.5601C20.9507 21.5601 21.2097 21.4528 21.4045 21.258C21.5993 21.0632 21.7066 20.8043 21.7066 20.5289C21.7066 20.2533 21.5993 19.9944 21.4045 19.7996C21.2098 19.6047 20.9507 19.4976 20.6754 19.4976C20.4 19.4976 20.1411 19.6049 19.9462 19.7996C19.7514 19.9944 19.6441 20.2533 19.6441 20.5289C19.6441 20.8043 19.7514 21.0632 19.9462 21.258Z" fill="#494949"/>
<path d="M3.47941 4.56268C2.96983 3.79822 3.05167 2.75305 3.72569 2.07904C4.09757 1.70734 4.59196 1.50244 5.11784 1.50244C5.64372 1.50244 6.1381 1.70734 6.50999 2.07904C6.88188 2.45093 7.08659 2.94531 7.08659 3.47119C7.08659 3.99707 6.88188 4.49146 6.50999 4.86334C6.1381 5.23523 5.64372 5.43994 5.11784 5.43994C4.78184 5.43994 4.45884 5.35608 4.17228 5.19861C2.66276 7.13385 1.83421 9.53748 1.83421 12.0001C1.83421 18.1 6.79673 23.0626 12.8967 23.0626C13.631 23.0626 14.3652 22.9902 15.0788 22.8474C15.3326 22.7967 15.5796 22.9613 15.6305 23.2151C15.6812 23.4691 15.5166 23.7159 15.2628 23.7668C14.4888 23.9215 13.6927 24.0001 12.8967 24.0001C9.69144 24.0001 6.6779 22.7518 4.41142 20.4854C2.14494 18.2189 0.896706 15.2053 0.896706 12.0001C0.896706 9.30365 1.81242 6.67224 3.47941 4.56268ZM5.84696 4.2005C6.04179 4.00568 6.14909 3.74677 6.14909 3.47119C6.14909 3.1958 6.04179 2.93689 5.84696 2.74207C5.65232 2.54724 5.39323 2.43994 5.11784 2.43994C4.84245 2.43994 4.58335 2.54724 4.38853 2.74207C3.98661 3.14417 3.98661 3.7984 4.38853 4.2005C4.58335 4.39514 4.84245 4.50244 5.11784 4.50244C5.39341 4.50244 5.65232 4.39514 5.84696 4.2005Z" fill="#494949"/>
<path d="M14.8311 20.0625C14.8311 20.3214 14.621 20.5312 14.3623 20.5312H11.4313C11.1724 20.5312 10.9626 20.3214 10.9626 20.0625V19.1537C10.3463 18.9879 9.75702 18.7436 9.20331 18.4246L8.56171 19.0662C8.47382 19.1541 8.35461 19.2036 8.2301 19.2036C8.10596 19.2036 7.98657 19.1541 7.89868 19.066L5.82703 16.9929C5.6441 16.8098 5.6441 16.513 5.82703 16.3301L6.4679 15.6892C6.14893 15.1355 5.90466 14.5463 5.73877 13.9299H4.8335C4.57458 13.9299 4.36475 13.7201 4.36475 13.4612V10.5302C4.36475 10.2713 4.57458 10.0615 4.8335 10.0615H5.73895C5.90485 9.44531 6.14893 8.85608 6.4679 8.30237L5.83051 7.66498C5.74261 7.57709 5.69318 7.4577 5.69318 7.33337C5.69336 7.20905 5.7428 7.08966 5.83069 7.00177L7.90399 4.93011C8.08691 4.74719 8.38373 4.74719 8.56683 4.9303L9.20331 5.56696C9.75702 5.24799 10.3463 5.00372 10.9626 4.83783V3.9375C10.9626 3.67859 11.1724 3.46875 11.4313 3.46875H14.3623C14.621 3.46875 14.8311 3.67859 14.8311 3.9375V4.83801C15.4472 5.00372 16.0364 5.24799 16.5901 5.56696L17.2268 4.9303C17.4097 4.74738 17.7065 4.74719 17.8896 4.93011L19.9628 7.00195C20.0508 7.08984 20.1003 7.20905 20.1003 7.33337C20.1003 7.4577 20.0508 7.57709 19.963 7.66498L19.3256 8.30237C19.6445 8.85608 19.8888 9.44513 20.0547 10.0615H20.9583C21.2172 10.0615 21.4271 10.2713 21.4271 10.53L21.4287 13.461C21.4289 13.5853 21.3795 13.7047 21.2916 13.7926C21.2037 13.8805 21.0845 13.9299 20.96 13.9299H20.0547C19.8888 14.5463 19.6445 15.1355 19.3256 15.6892L19.9664 16.3301C20.1494 16.513 20.1495 16.8098 19.9664 16.9929L17.8948 19.066C17.8069 19.1539 17.6877 19.2036 17.5634 19.2036H17.5632C17.4388 19.2036 17.3196 19.1541 17.2318 19.0662L16.5903 18.4246C16.0364 18.7436 15.4472 18.9879 14.8311 19.1537V20.0625ZM16.4065 17.4388C16.592 17.3188 16.8361 17.3448 16.9924 17.501L17.5632 18.0718L18.9722 16.6617L18.402 16.0913C18.2458 15.9351 18.2198 15.691 18.3397 15.5056C18.7647 14.8478 19.0635 14.127 19.2276 13.3627C19.2741 13.1468 19.4649 12.9924 19.6859 12.9924H20.491L20.4899 10.999H19.6859C19.4649 10.999 19.2741 10.8448 19.2276 10.6287C19.0635 9.86462 18.7647 9.14374 18.3397 8.48602C18.2198 8.30054 18.2458 8.05646 18.402 7.90027L18.9685 7.33356L17.5584 5.92456L16.9924 6.49072C16.8361 6.64691 16.5922 6.67273 16.4065 6.55298C15.749 6.12799 15.0281 5.82916 14.2638 5.6651C14.0479 5.61859 13.8936 5.42761 13.8936 5.20679V4.40625H11.9001V5.2066C11.9001 5.42761 11.7459 5.61859 11.5298 5.66492C10.7657 5.82916 10.0447 6.12781 9.38715 6.5528C9.20166 6.67273 8.95758 6.64691 8.80139 6.49054L8.23523 5.92456L6.82513 7.33356L7.39166 7.90009C7.54803 8.05646 7.57385 8.30054 7.45392 8.48602C7.02893 9.14374 6.73029 9.86462 6.56604 10.6287C6.51971 10.8448 6.32874 10.999 6.10773 10.999H5.30225V12.9924H6.10773C6.32874 12.9924 6.51953 13.1468 6.56604 13.3627C6.7301 14.1268 7.02893 14.8478 7.45392 15.5054C7.57385 15.691 7.54785 15.9351 7.39166 16.0913L6.82147 16.6615L8.23047 18.0716L8.80121 17.501C8.95758 17.3447 9.20166 17.3188 9.38715 17.4388C10.0449 17.8638 10.7657 18.1624 11.5298 18.3267C11.7459 18.3732 11.9001 18.564 11.9001 18.785V19.5938H13.8936V18.785C13.8936 18.5641 14.0479 18.3732 14.2638 18.3267C15.0279 18.1626 15.7488 17.8638 16.4065 17.4388Z" fill="#494949"/>
<path d="M9.02307 12.0002C9.02307 9.86444 10.7606 8.12695 12.8963 8.12695C15.032 8.12695 16.7695 9.86444 16.7695 12.0002C16.7695 14.1359 15.032 15.8734 12.8963 15.8734C10.7606 15.8734 9.02307 14.1359 9.02307 12.0002ZM15.832 12.0002C15.832 10.3813 14.5151 9.06445 12.8963 9.06445C11.2775 9.06445 9.96057 10.3815 9.96057 12.0002C9.96057 13.6188 11.2775 14.9359 12.8963 14.9359C14.5151 14.9359 15.832 13.619 15.832 12.0002Z" fill="#494949"/>
<path d="M8.58008 1.77301C8.45667 1.77301 8.33582 1.72284 8.24866 1.63568C8.1615 1.54797 8.11133 1.42712 8.11133 1.30371C8.11133 1.18103 8.16132 1.06 8.24866 0.97229C8.33582 0.885132 8.45667 0.834961 8.58008 0.834961C8.70386 0.834961 8.82416 0.885132 8.91132 0.97229C8.99866 1.06 9.04883 1.18048 9.04883 1.30371C9.04883 1.42749 8.99866 1.54797 8.91132 1.63568C8.82416 1.72284 8.70386 1.77301 8.58008 1.77301Z" fill="#494949"/>
<path d="M17.1924 22.2354C17.3156 22.2354 17.4366 22.2855 17.5238 22.3727C17.611 22.4598 17.6611 22.5809 17.6611 22.7041C17.6611 22.8279 17.611 22.9484 17.5238 23.0355C17.4366 23.1227 17.3156 23.1729 17.1924 23.1729C17.0692 23.1729 16.9481 23.1227 16.861 23.0355C16.7738 22.9484 16.7236 22.8273 16.7236 22.7041C16.7236 22.5809 16.7738 22.4598 16.861 22.3727C16.9481 22.2855 17.0692 22.2354 17.1924 22.2354Z" fill="#494949"/>
</g>
<defs>
<clipPath id="clip0_4432_7346">
<rect width="24" height="24" fill="white" transform="matrix(-1 0 0 1 24.8965 0)"/>
</clipPath>
</defs>
</svg>
