<svg width="20" height="21" viewBox="0 0 20 21" fill="none" xmlns="http://www.w3.org/2000/svg">
    <path d="M2.49996 14.7954H12.5C12.9602 14.7954 13.3333 15.1685 13.3333 15.6287C13.3333 16.0561 13.0116 16.4083 12.5971 16.4565L12.5 16.4621H2.49996C2.03972 16.4621 1.66663 16.089 1.66663 15.6287C1.66663 15.2014 1.98833 14.8492 2.40278 14.801L2.49996 14.7954H12.5H2.49996ZM2.49996 11.4621H17.5C17.9602 11.4621 18.3333 11.8352 18.3333 12.2954C18.3333 12.7228 18.0116 13.075 17.5971 13.1231L17.5 13.1287H2.49996C2.03972 13.1287 1.66663 12.7556 1.66663 12.2954C1.66663 11.868 1.98833 11.5158 2.40278 11.4677L2.49996 11.4621H17.5H2.49996ZM2.49996 8.12874H17.5C17.9602 8.12874 18.3333 8.50184 18.3333 8.96208C18.3333 9.38944 18.0116 9.74167 17.5971 9.7898L17.5 9.79541H2.49996C2.03972 9.79541 1.66663 9.42231 1.66663 8.96208C1.66663 8.53471 1.98833 8.18249 2.40278 8.13435L2.49996 8.12874H17.5H2.49996ZM2.49996 4.79541H17.5C17.9602 4.79541 18.3333 5.16851 18.3333 5.62874C18.3333 6.05611 18.0116 6.40833 17.5971 6.45647L17.5 6.46208H2.49996C2.03972 6.46208 1.66663 6.08898 1.66663 5.62874C1.66663 5.20138 1.98833 4.84915 2.40278 4.80102L2.49996 4.79541H17.5H2.49996Z" fill="#347474"/>
</svg>
