<svg width="115" height="42" viewBox="0 0 115 42" fill="none" xmlns="http://www.w3.org/2000/svg">
<rect y="9" width="115" height="33" rx="4" fill="#347474"/>
<path d="M38.596 31H42.586C45.722 31 47.836 28.984 47.836 26.1C47.836 23.216 45.722 21.2 42.586 21.2H38.596V31ZM39.632 30.104V22.096H42.53C45.134 22.096 46.814 23.748 46.814 26.1C46.814 28.452 45.134 30.104 42.53 30.104H39.632ZM53.2124 31.07C55.3684 31.07 56.9504 29.502 56.9504 27.318C56.9504 25.134 55.3684 23.58 53.2124 23.58C51.0564 23.58 49.4604 25.134 49.4604 27.318C49.4604 29.502 51.0564 31.07 53.2124 31.07ZM53.2124 30.188C51.6444 30.188 50.4684 29.04 50.4684 27.318C50.4684 25.596 51.6444 24.448 53.2124 24.448C54.7804 24.448 55.9424 25.596 55.9424 27.318C55.9424 29.04 54.7804 30.188 53.2124 30.188ZM62.9818 23.58C61.7078 23.58 60.7138 24.098 60.1818 24.994V23.636H59.2298V31H60.2238V27.136C60.2238 25.456 61.2178 24.476 62.7998 24.476C64.1998 24.476 65.0118 25.274 65.0118 26.828V31H66.0058V26.73C66.0058 24.616 64.7738 23.58 62.9818 23.58ZM75.4077 27.318C75.4077 25.106 73.9097 23.58 71.8377 23.58C69.7657 23.58 68.2397 25.134 68.2397 27.318C68.2397 29.502 69.8077 31.07 72.1037 31.07C73.2657 31.07 74.2877 30.65 74.9457 29.866L74.3857 29.222C73.8257 29.866 73.0277 30.188 72.1317 30.188C70.5217 30.188 69.3457 29.166 69.2337 27.626H75.3937C75.3937 27.514 75.4077 27.402 75.4077 27.318ZM71.8377 24.434C73.2797 24.434 74.3297 25.442 74.4557 26.884H69.2337C69.3597 25.442 70.4097 24.434 71.8377 24.434Z" fill="#F7F7F7"/>
<rect x="18.9521" width="14" height="14" transform="rotate(43.5208 18.9521 0)" fill="#347474"/>
</svg>
