<svg width="144" height="88" viewBox="0 0 144 88" fill="none" xmlns="http://www.w3.org/2000/svg">
<path d="M84.9514 6.15681C80.3784 8.26242 75.8984 10.6279 71.4109 12.7768C58.6919 18.8668 45.3755 21.4073 31.6075 23.8935C20.745 25.8551 8.76632 29.0164 2.7115 39.224C-3.7961 50.1948 2.40633 65.5538 10.7979 73.7034C23.9149 86.4408 43.3884 89.2019 60.814 87.5803C83.6527 85.4554 108.918 78.219 127.911 64.8618C141.602 55.2339 146.793 40.2682 141.334 24.1851C136.108 8.78978 122.127 -0.938332 106.018 0.0718079C98.5762 0.538017 91.6625 3.06781 84.9514 6.15681Z" fill="#E9F1F1"/>
<path d="M67.1351 55.4371V57.6246H55.1009C54.953 57.6421 54.803 57.626 54.6623 57.5772C54.5216 57.5285 54.3937 57.4484 54.2884 57.3431C54.1831 57.2378 54.103 57.11 54.0543 56.9693C54.0055 56.8286 53.9893 56.6787 54.0069 56.5308C54.0069 48.3278 57.5077 44.7185 59.5864 43.2966C58.128 41.4587 57.32 39.1894 57.2889 36.8436C57.2889 34.2329 58.3263 31.7292 60.1728 29.8831C62.0193 28.0371 64.5237 27 67.1351 27C69.7465 27 72.2509 28.0371 74.0974 29.8831C75.9439 31.7292 76.9813 34.2329 76.9813 36.8436C76.9885 37.5855 76.8777 38.3239 76.6531 39.0311H74.7932V36.8436C74.7932 34.8131 73.9864 32.8657 72.5502 31.4299C71.114 29.9941 69.1662 29.1875 67.1351 29.1875C65.104 29.1875 63.1562 29.9941 61.72 31.4299C60.2838 32.8657 59.477 34.8131 59.477 36.8436C59.4575 37.8649 59.6519 38.879 60.0475 39.8207C60.4432 40.7625 61.0314 41.6112 61.7744 42.3123C61.9775 42.3447 62.1674 42.4338 62.3222 42.5692C62.477 42.7046 62.5905 42.8809 62.6496 43.0779C62.7007 43.2066 62.724 43.3447 62.718 43.4831C62.712 43.6215 62.6769 43.757 62.615 43.8809C62.553 44.0047 62.4656 44.1142 62.3585 44.2019C62.2513 44.2897 62.1269 44.354 61.9932 44.3904C61.7744 44.4997 56.5231 46.4685 55.8667 55.4371H67.1351ZM61.7744 45.7029C60.7898 46.3591 58.383 48.2184 57.5077 53.0309C57.476 53.1747 57.4736 53.3235 57.5007 53.4683C57.5279 53.6131 57.584 53.7509 57.6657 53.8735C57.7475 53.996 57.8531 54.1009 57.9764 54.1816C58.0996 54.2624 58.2379 54.3174 58.383 54.3434H58.6018C58.8577 54.3485 59.1074 54.2638 59.3073 54.1039C59.5072 53.944 59.6446 53.7191 59.6958 53.4684C60.3522 49.4215 62.3214 47.9997 62.8684 47.6716C63.001 47.6031 63.1181 47.5082 63.2126 47.3928C63.3071 47.2774 63.377 47.1439 63.418 47.0004C63.459 46.857 63.4702 46.7067 63.4509 46.5588C63.4317 46.4109 63.3824 46.2685 63.306 46.1404C63.1479 45.8933 62.905 45.7126 62.623 45.632C62.341 45.5514 62.0392 45.5766 61.7744 45.7029ZM78.0753 45.5935C78.0753 45.3034 77.96 45.0252 77.7549 44.8201C77.5497 44.615 77.2714 44.4997 76.9813 44.4997C75.5305 44.4997 74.1392 45.0759 73.1133 46.1015C72.0875 47.1271 71.5112 48.518 71.5112 49.9684C71.4936 50.1163 71.5098 50.2662 71.5585 50.4069C71.6073 50.5476 71.6873 50.6754 71.7927 50.7807C71.898 50.886 72.0258 50.9661 72.1666 51.0148C72.3073 51.0636 72.4573 51.0797 72.6052 51.0622C72.8954 51.0622 73.1736 50.9469 73.3788 50.7418C73.584 50.5367 73.6992 50.2585 73.6992 49.9684C73.6839 49.5334 73.7584 49.0999 73.9179 48.6949C74.0774 48.2899 74.3186 47.9221 74.6265 47.6143C74.9344 47.3065 75.3023 47.0653 75.7074 46.9058C76.1125 46.7464 76.5462 46.6719 76.9813 46.6872C77.2714 46.6872 77.5497 46.572 77.7549 46.3669C77.96 46.1618 78.0753 45.8836 78.0753 45.5935ZM88.6873 60.1402C88.8877 60.3446 89 60.6195 89 60.9058C89 61.1921 88.8877 61.4669 88.6873 61.6714C88.4792 61.8684 88.2077 61.9848 87.9215 61.9995C87.7776 62.0041 87.6344 61.9771 87.5021 61.9204C87.3698 61.8637 87.2515 61.7787 87.1556 61.6714L82.342 56.8589C80.8153 58.0642 78.9266 58.7193 76.9813 58.7183C75.2503 58.7183 73.5581 58.2051 72.1188 57.2437C70.6796 56.2822 69.5578 54.9157 68.8953 53.3168C68.2329 51.718 68.0596 49.9587 68.3973 48.2614C68.735 46.5641 69.5686 45.005 70.7926 43.7813C72.0166 42.5576 73.5761 41.7243 75.2738 41.3867C76.9716 41.0491 78.7313 41.2223 80.3306 41.8846C81.9298 42.5468 83.2967 43.6683 84.2584 45.1072C85.2201 46.5462 85.7334 48.2379 85.7334 49.9684C85.6871 51.9049 85.0369 53.7786 83.8736 55.3277L88.6873 60.1402ZM83.5454 49.9684C83.5454 48.6705 83.1604 47.4017 82.4391 46.3225C81.7179 45.2434 80.6927 44.4022 79.4932 43.9056C78.2938 43.4089 76.974 43.2789 75.7007 43.5321C74.4274 43.7853 73.2578 44.4103 72.3397 45.3281C71.4217 46.2459 70.7966 47.4152 70.5433 48.6882C70.29 49.9611 70.42 51.2806 70.9168 52.4797C71.4137 53.6789 72.255 54.7038 73.3345 55.4249C74.4139 56.1459 75.683 56.5308 76.9813 56.5308C78.7222 56.5308 80.3918 55.8394 81.6228 54.6087C82.8538 53.3781 83.5454 51.7089 83.5454 49.9684ZM67.1351 30.2812C66.845 30.2812 66.5667 30.3964 66.3615 30.6015C66.1564 30.8067 66.0411 31.0849 66.0411 31.3749C66.0411 31.665 66.1564 31.9432 66.3615 32.1483C66.5667 32.3534 66.845 32.4687 67.1351 32.4687C68.2957 32.4687 69.4088 32.9296 70.2295 33.7501C71.0501 34.5705 71.5112 35.6833 71.5112 36.8436C71.4936 36.9915 71.5098 37.1414 71.5585 37.2821C71.6073 37.4228 71.6873 37.5506 71.7927 37.6559C71.898 37.7612 72.0258 37.8412 72.1666 37.89C72.3073 37.9387 72.4573 37.9549 72.6052 37.9373C72.8954 37.9373 73.1736 37.8221 73.3788 37.617C73.584 37.4119 73.6992 37.1337 73.6992 36.8436C73.6992 35.1032 73.0077 33.434 71.7766 32.2033C70.5456 30.9726 68.876 30.2812 67.1351 30.2812Z" fill="#3D6666"/>
</svg>
