<svg width="133" height="125" viewBox="0 0 133 125" fill="none" xmlns="http://www.w3.org/2000/svg">
<path d="M39.6373 37.9977V90.4239C39.6196 92.4129 40.3631 94.3335 41.7155 95.7921C43.0679 97.2508 44.9268 98.1371 46.9115 98.2696C47.9447 98.3189 48.9771 98.1578 49.9462 97.7961C50.9153 97.4343 51.8008 96.8795 52.549 96.1653C53.2972 95.4511 53.8925 94.5924 54.2989 93.6411C54.7053 92.6899 54.9143 91.6661 54.9131 90.6317H119.55V37.9977C119.55 37.35 119.292 36.7289 118.834 36.2709C118.376 35.813 117.755 35.5557 117.107 35.5557H42.0793C41.4316 35.5557 40.8105 35.813 40.3525 36.2709C39.8946 36.7289 39.6373 37.35 39.6373 37.9977Z" fill="#11493E"/>
<path d="M120.069 85.3334V33.4268L52.2632 33.4268V85.3334H120.069Z" fill="#11493E"/>
<path d="M46.4956 88.969H98.4022V27.2942L92.2711 21.1631H46.4956V88.969Z" fill="url(#paint0_linear_6064_13778)"/>
<path d="M92.2717 27.2942H98.4028L92.2717 21.1631V27.2942Z" fill="url(#paint1_linear_6064_13778)"/>
<path d="M75.0213 31.4521H52.3154V34.8918H75.0213V31.4521Z" fill="#D9DDE9"/>
<path d="M75.0213 39.0889H52.3154V40.5125H75.0213V39.0889Z" fill="#D9DDE9"/>
<path d="M75.0213 41.7393H52.3154V43.1629H75.0213V41.7393Z" fill="#D9DDE9"/>
<path d="M75.0213 44.4414H52.3154V45.8651H75.0213V44.4414Z" fill="#D9DDE9"/>
<path d="M75.0213 47.1426H52.3154V48.5662H75.0213V47.1426Z" fill="#D9DDE9"/>
<path d="M75.0213 49.8438H52.3154V51.2674H75.0213V49.8438Z" fill="#D9DDE9"/>
<path d="M75.0213 52.5469H52.3154V53.9705H75.0213V52.5469Z" fill="#D9DDE9"/>
<path d="M75.0213 55.248H52.3154V56.6717H75.0213V55.248Z" fill="#D9DDE9"/>
<path d="M75.0213 57.9502H52.3154V59.3739H75.0213V57.9502Z" fill="#D9DDE9"/>
<path d="M75.0213 60.6523H52.3154V62.076H75.0213V60.6523Z" fill="#D9DDE9"/>
<path d="M75.0213 63.3545H52.3154V64.7782H75.0213V63.3545Z" fill="#D9DDE9"/>
<path d="M75.0213 66.0557H52.3154V67.4793H75.0213V66.0557Z" fill="#D9DDE9"/>
<path d="M75.0213 68.7568H52.3154V70.1805H75.0213V68.7568Z" fill="#D9DDE9"/>
<path d="M75.0213 71.46H52.3154V72.8836H75.0213V71.46Z" fill="#D9DDE9"/>
<path d="M75.0213 74.1621H52.3154V75.5858H75.0213V74.1621Z" fill="#D9DDE9"/>
<path d="M75.0213 76.8633H52.3154V78.287H75.0213V76.8633Z" fill="#D9DDE9"/>
<path d="M75.0213 79.5645H52.3154V80.9881H75.0213V79.5645Z" fill="#D9DDE9"/>
<path d="M86.1402 43.5588C90.2724 43.5588 93.6223 40.209 93.6223 36.0768C93.6223 31.9446 90.2724 28.5947 86.1402 28.5947C82.008 28.5947 78.6582 31.9446 78.6582 36.0768C78.6582 40.209 82.008 43.5588 86.1402 43.5588Z" fill="#11493E"/>
<path d="M81.8276 38.7782L79.5934 34.8813C79.3093 34.3892 78.9001 33.981 78.4074 33.6981C77.9146 33.4153 77.3558 33.2677 76.7876 33.2705H60.8363C60.2759 33.2716 59.7258 33.4212 59.242 33.7042C58.7582 33.9871 58.3582 34.3933 58.0825 34.8813L55.3287 39.6615C55.058 40.1553 54.9151 40.709 54.9131 41.2722V90.6328C54.9131 91.6358 54.7155 92.629 54.3317 93.5557C53.9478 94.4824 53.3852 95.3244 52.676 96.0336C51.9667 96.7429 51.1247 97.3055 50.198 97.6893C49.2714 98.0732 48.2782 98.2707 47.2751 98.2707H124.745C125.393 98.2707 126.014 98.0134 126.472 97.5555C126.93 97.0975 127.187 96.4763 127.187 95.8287V42.8309C127.187 42.1833 126.93 41.5621 126.472 41.1041C126.014 40.6462 125.393 40.3889 124.745 40.3889H84.5814C84.021 40.3878 83.4708 40.2382 82.9871 39.9553C82.5033 39.6723 82.1032 39.2661 81.8276 38.7782Z" fill="#38A98E"/>
<path d="M111.34 104.713C110.707 105.288 109.966 105.733 109.16 106.02C108.354 106.308 107.499 106.434 106.645 106.391C105.79 106.347 104.952 106.135 104.18 105.767C103.408 105.399 102.716 104.882 102.144 104.245L73.5144 72.7585L83.1787 63.9775L111.808 95.5164C112.957 96.8021 113.552 98.489 113.464 100.211C113.377 101.933 112.613 103.551 111.34 104.713Z" fill="#11493E"/>
<path d="M83.1874 64.1186L73.5261 72.8789L79.7596 79.7534L89.4208 70.9931L83.1874 64.1186Z" fill="url(#paint2_linear_6064_13778)"/>
<path d="M67.955 15.8649C61.9263 13.9801 55.4741 13.9244 49.4137 15.7047C43.3533 17.485 37.9564 21.0215 33.9049 25.8675C29.8534 30.7134 27.3289 36.6515 26.6505 42.9314C25.972 49.2114 27.17 55.5516 30.093 61.151C33.016 66.7505 37.533 71.3581 43.0734 74.3917C48.6137 77.4253 54.9289 78.7489 61.2211 78.1952C67.5133 77.6416 73.5002 75.2355 78.4257 71.2809C83.3511 67.3264 86.994 62.0008 88.8943 55.9769C91.4337 47.881 90.6546 39.108 86.7281 31.5863C82.8017 24.0647 76.0492 18.4099 67.955 15.8649ZM49.4578 74.734C43.8494 72.9759 38.8883 69.5944 35.2015 65.017C31.5148 60.4396 29.268 54.8719 28.7453 49.0177C28.2226 43.1636 29.4473 37.2858 32.2648 32.1277C35.0822 26.9695 39.3657 22.7625 44.5739 20.0386C49.782 17.3147 55.6809 16.1962 61.5246 16.8244C67.3684 17.4526 72.8947 19.7995 77.4049 23.5682C81.915 27.3369 85.2065 32.3582 86.8631 37.9973C88.5197 43.6365 88.4672 49.6402 86.7121 55.2495C84.3456 62.7666 79.0952 69.0388 72.1118 72.6912C65.1285 76.3436 56.9819 77.0782 49.4578 74.734Z" fill="#347474"/>
<path d="M67.2793 18.0465C61.6699 16.2778 55.6618 16.2133 50.0157 17.8611C44.3695 19.5089 39.3393 22.795 35.5618 27.3032C31.7842 31.8115 29.4293 37.3392 28.7951 43.1866C28.1609 49.034 29.276 54.9381 31.9991 60.1514C34.7223 65.3647 38.9311 69.6527 44.0926 72.4727C49.2542 75.2927 55.1364 76.5178 60.9946 75.9929C66.8528 75.468 72.4236 73.2166 77.0015 69.5239C81.5795 65.8312 84.9589 60.8632 86.7118 55.2488C89.0567 47.7385 88.3279 39.6048 84.6852 32.631C81.0424 25.6572 74.783 20.4124 67.2793 18.0465ZM51.2761 68.9139C46.8184 67.5088 42.8773 64.814 39.9507 61.1698C37.024 57.5257 35.2432 53.0959 34.8333 48.4401C34.4233 43.7842 35.4026 39.1113 37.6473 35.0119C39.8921 30.9124 43.3017 27.5703 47.4452 25.4078C51.5887 23.2453 56.2802 22.3596 60.9269 22.8625C65.5736 23.3653 69.967 25.2343 73.5519 28.2331C77.1369 31.2319 79.7525 35.2261 81.0683 39.7109C82.384 44.1957 82.341 48.9699 80.9444 53.4303C80.0216 56.4006 78.5205 59.1591 76.5275 61.547C74.5344 63.9349 72.0888 65.9051 69.3314 67.3442C66.574 68.7832 63.5592 69.6628 60.4605 69.9322C57.3618 70.2016 54.2405 69.8555 51.2761 68.9139Z" fill="url(#paint3_linear_6064_13778)"/>
<path d="M67.2793 18.0465C61.6699 16.2778 55.6618 16.2133 50.0157 17.8611C44.3695 19.5089 39.3393 22.795 35.5618 27.3032C31.7842 31.8115 29.4293 37.3392 28.7951 43.1866C28.1609 49.034 29.276 54.9381 31.9991 60.1514C34.7223 65.3647 38.9311 69.6527 44.0926 72.4727C49.2542 75.2927 55.1364 76.5178 60.9946 75.9929C66.8528 75.468 72.4236 73.2166 77.0015 69.5239C81.5795 65.8312 84.9589 60.8632 86.7118 55.2488C89.0567 47.7385 88.3279 39.6048 84.6852 32.631C81.0424 25.6572 74.783 20.4124 67.2793 18.0465ZM51.2761 68.9139C46.8184 67.5088 42.8773 64.814 39.9507 61.1698C37.024 57.5257 35.2432 53.0959 34.8333 48.4401C34.4233 43.7842 35.4026 39.1113 37.6473 35.0119C39.8921 30.9124 43.3017 27.5703 47.4452 25.4078C51.5887 23.2453 56.2802 22.3596 60.9269 22.8625C65.5736 23.3653 69.967 25.2343 73.5519 28.2331C77.1369 31.2319 79.7525 35.2261 81.0683 39.7109C82.384 44.1957 82.341 48.9699 80.9444 53.4303C80.0216 56.4006 78.5205 59.1591 76.5275 61.547C74.5344 63.9349 72.0888 65.9051 69.3314 67.3442C66.574 68.7832 63.5592 69.6628 60.4605 69.9322C57.3618 70.2016 54.2405 69.8555 51.2761 68.9139Z" fill="#38A98E"/>
<path d="M67.4558 68.1776C79.5099 63.16 85.214 49.3207 80.1964 37.2667C75.1788 25.2127 61.3395 19.5085 49.2855 24.5261C37.2314 29.5438 31.5273 43.383 36.5449 55.4371C41.5625 67.4911 55.4018 73.1953 67.4558 68.1776Z" fill="url(#paint4_linear_6064_13778)"/>
<path d="M67.4558 68.1776C79.5099 63.16 85.214 49.3207 80.1964 37.2667C75.1788 25.2127 61.3395 19.5085 49.2855 24.5261C37.2314 29.5438 31.5273 43.383 36.5449 55.4371C41.5625 67.4911 55.4018 73.1953 67.4558 68.1776Z" stroke="#0B2F3D" stroke-miterlimit="10"/>
<g style="mix-blend-mode:color-dodge">
<g style="mix-blend-mode:color-dodge">
<path d="M63.7463 61.0152C66.1368 60.4306 68.3484 59.2713 70.1892 57.6379C72.1486 55.9819 73.6811 53.8792 74.6576 51.5068C74.0947 54.1237 72.9393 56.5766 71.2803 58.6771C69.5207 60.8574 67.2799 62.6003 64.7335 63.7691C64.5601 63.8572 64.3707 63.9096 64.1766 63.9233C63.9825 63.937 63.7877 63.9115 63.6036 63.8486C63.4195 63.7856 63.2499 63.6863 63.1049 63.5566C62.9598 63.427 62.8422 63.2695 62.7591 63.0936C62.6118 62.7331 62.6048 62.3305 62.7394 61.9651C62.874 61.5997 63.1406 61.2979 63.4865 61.1192L63.7463 61.0152Z" fill="#FEFFFF"/>
</g>
<g style="mix-blend-mode:color-dodge">
<path d="M52.835 64.0816C52.4654 63.9511 52.1586 63.686 51.9756 63.3394C51.7927 62.9927 51.747 62.5899 51.8478 62.2111C51.9064 62.025 52.0019 61.8526 52.1285 61.7041C52.2551 61.5557 52.4103 61.4342 52.5848 61.3469C52.7593 61.2597 52.9496 61.2084 53.1443 61.1962C53.3391 61.184 53.5343 61.2111 53.7183 61.2758C55.4675 61.8091 57.2954 62.0376 59.122 61.9513C59.5043 61.9504 59.8726 62.0948 60.1524 62.3553C60.4321 62.6158 60.6024 62.9728 60.6288 63.3542C60.6429 63.5495 60.6174 63.7456 60.5539 63.9309C60.4904 64.1161 60.3901 64.2866 60.2591 64.4321C60.1281 64.5777 59.9691 64.6953 59.7915 64.7779C59.614 64.8605 59.4216 64.9064 59.2259 64.9129C57.064 64.9984 54.9032 64.7173 52.835 64.0816Z" fill="#FEFFFF"/>
</g>
</g>
<path d="M5.13649 42.8294L4.56494 42.2578" stroke="#1D262D" stroke-width="0.5" stroke-miterlimit="10"/>
<path d="M40.8325 102.428C41.0797 102.455 41.3234 102.507 41.5599 102.584" stroke="#1D262D" stroke-width="0.5" stroke-miterlimit="10"/>
<path d="M98.4543 3.23793C99.0331 3.23793 99.5882 3.00801 99.9974 2.59875C100.407 2.1895 100.637 1.63444 100.637 1.05566C100.637 1.63444 100.867 2.1895 101.276 2.59875C101.685 3.00801 102.24 3.23793 102.819 3.23793C102.24 3.23793 101.685 3.46784 101.276 3.8771C100.867 4.28635 100.637 4.84142 100.637 5.42019C100.637 4.84142 100.407 4.28635 99.9974 3.8771C99.5882 3.46784 99.0331 3.23793 98.4543 3.23793Z" stroke="#38A98E" stroke-width="2" stroke-linecap="round" stroke-linejoin="round"/>
<path d="M51.7959 105.596C52.9672 105.596 54.0906 105.131 54.9188 104.303C55.7471 103.474 56.2124 102.351 56.2124 101.18C56.2124 102.351 56.6777 103.474 57.5059 104.303C58.3342 105.131 59.4575 105.596 60.6289 105.596C59.4575 105.596 58.3342 106.061 57.5059 106.89C56.6777 107.718 56.2124 108.841 56.2124 110.013C56.2124 108.841 55.7471 107.718 54.9188 106.89C54.0906 106.061 52.9672 105.596 51.7959 105.596Z" stroke="#11493E" stroke-width="2" stroke-linecap="round" stroke-linejoin="round"/>
<path d="M26.9075 121.287C27.5876 121.287 28.2406 121.021 28.7264 120.545C29.2121 120.069 29.4918 119.421 29.5054 118.741C29.5054 119.416 29.7736 120.064 30.2511 120.541C30.7286 121.019 31.3761 121.287 32.0514 121.287C31.3714 121.301 30.7239 121.58 30.2479 122.066C29.7718 122.552 29.5053 123.205 29.5054 123.885C29.4921 123.2 29.2141 122.547 28.7298 122.063C28.2454 121.578 27.5923 121.3 26.9075 121.287V121.287Z" stroke="#38A98E" stroke-width="2" stroke-linecap="round" stroke-linejoin="round"/>
<path d="M131.708 22.7218C131.708 23.1244 131.629 23.523 131.475 23.8949C131.321 24.2669 131.095 24.6048 130.81 24.8895C130.525 25.1741 130.188 25.4 129.816 25.554C129.444 25.7081 129.045 25.7874 128.642 25.7874C127.829 25.7874 127.05 25.4644 126.475 24.8895C125.9 24.3146 125.577 23.5348 125.577 22.7218C125.577 21.9088 125.9 21.129 126.475 20.5541C127.05 19.9792 127.829 19.6562 128.642 19.6562C129.455 19.6563 130.235 19.9792 130.81 20.5541C131.385 21.129 131.708 21.9088 131.708 22.7218V22.7218Z" stroke="#347474" stroke-width="2" stroke-linecap="round" stroke-linejoin="round"/>
<path d="M7.4231 104.193C7.4231 105.007 7.10012 105.786 6.52522 106.361C5.95032 106.936 5.17059 107.259 4.35755 107.259C3.75124 107.259 3.15854 107.079 2.65441 106.742C2.15028 106.406 1.75737 105.927 1.52534 105.367C1.29332 104.806 1.23261 104.19 1.3509 103.595C1.46918 103.001 1.76115 102.455 2.18987 102.026C2.6186 101.597 3.16483 101.305 3.75949 101.187C4.35415 101.069 4.97053 101.129 5.53069 101.361C6.09084 101.593 6.56962 101.986 6.90647 102.49C7.24331 102.994 7.4231 103.587 7.4231 104.193V104.193Z" stroke="#347474" stroke-width="2" stroke-linecap="round" stroke-linejoin="round"/>
<defs>
<linearGradient id="paint0_linear_6064_13778" x1="67.0608" y1="-2.49365" x2="74.4753" y2="80.9622" gradientUnits="userSpaceOnUse">
<stop stop-color="#FEFFFF"/>
<stop offset="0.15" stop-color="#F8F9FB"/>
<stop offset="1" stop-color="#D9DDE9"/>
</linearGradient>
<linearGradient id="paint1_linear_6064_13778" x1="94.5943" y1="18.9704" x2="95.2749" y2="26.6395" gradientUnits="userSpaceOnUse">
<stop stop-color="#FEFFFF"/>
<stop offset="0.15" stop-color="#F8F9FB"/>
<stop offset="1" stop-color="#D9DDE9"/>
</linearGradient>
<linearGradient id="paint2_linear_6064_13778" x1="66.4745" y1="85.5924" x2="98.145" y2="56.8753" gradientUnits="userSpaceOnUse">
<stop stop-color="#4A5185"/>
<stop offset="0.21" stop-color="#6B719C"/>
<stop offset="0.75" stop-color="#BABFD3"/>
<stop offset="1" stop-color="#D9DDE9"/>
</linearGradient>
<linearGradient id="paint3_linear_6064_13778" x1="69.2127" y1="11.5419" x2="46.8508" y2="82.8988" gradientUnits="userSpaceOnUse">
<stop stop-color="#5E9AFC"/>
<stop offset="0.07" stop-color="#5C94F3"/>
<stop offset="0.71" stop-color="#4F64A4"/>
<stop offset="1" stop-color="#4A5185"/>
</linearGradient>
<linearGradient id="paint4_linear_6064_13778" x1="36.2865" y1="79.9456" x2="75.7516" y2="20.1069" gradientUnits="userSpaceOnUse">
<stop offset="0.0520833" stop-color="#347474"/>
<stop offset="0.52" stop-color="#D7DCE9" stop-opacity="0.02"/>
<stop offset="0.56" stop-color="#D9DDE9" stop-opacity="0"/>
<stop offset="0.64" stop-color="#D9DDE9" stop-opacity="0.01"/>
<stop offset="0.7" stop-color="#D9DDE9" stop-opacity="0.06"/>
<stop offset="0.75" stop-color="#D9DDE9" stop-opacity="0.13"/>
<stop offset="0.8" stop-color="#D9DDE9" stop-opacity="0.23"/>
<stop offset="0.85" stop-color="#D9DDE9" stop-opacity="0.36"/>
<stop offset="0.9" stop-color="#D9DDE9" stop-opacity="0.52"/>
<stop offset="0.94" stop-color="#D9DDE9" stop-opacity="0.72"/>
<stop offset="0.99" stop-color="#D9DDE9" stop-opacity="0.93"/>
<stop offset="1" stop-color="#D9DDE9"/>
</linearGradient>
</defs>
</svg>
