<svg width="180" height="180" viewBox="0 0 180 180" fill="none" xmlns="http://www.w3.org/2000/svg">
<path d="M88.056 166.68C127.681 166.68 159.804 160.266 159.804 152.352C159.804 144.439 127.681 138.024 88.056 138.024C48.4307 138.024 16.308 144.439 16.308 152.352C16.308 160.266 48.4307 166.68 88.056 166.68Z" fill="#E9F1F1"/>
<path d="M141.696 102.204C142.275 100.752 142.936 99.3335 143.676 97.9563C143.856 97.6683 144.288 97.9563 144.144 98.2803C141.546 103.017 140.011 108.262 139.644 113.652C139.554 115.187 139.554 116.726 139.644 118.26C139.644 118.584 139.14 118.692 139.104 118.368C138.786 112.856 139.671 107.341 141.696 102.204Z" fill="#347474"/>
<path d="M140.544 106.776C144.468 107.28 149.328 105.984 151.416 102.312C151.961 101.398 152.247 100.353 152.244 99.2882C152.244 98.9642 152.784 99.0002 152.784 99.3242C152.748 103.788 148.428 106.56 144.468 107.208C143.161 107.441 141.826 107.478 140.508 107.316C140.148 107.244 140.184 106.74 140.544 106.776Z" fill="#347474"/>
<path d="M137.304 94.1045C137.448 93.7805 137.952 93.9605 137.808 94.2845C137.016 95.9765 137.232 97.8845 137.916 99.5765C138.6 101.268 139.608 102.78 141.372 103.032C141.732 103.104 141.696 103.644 141.336 103.572C139.428 103.284 138.204 101.628 137.484 99.9365C136.764 98.2445 136.44 95.9765 137.304 94.1045Z" fill="#347474"/>
<path d="M137.124 96.5167C138.128 96.7763 139.188 96.7104 140.152 96.3287C141.116 95.947 141.934 95.2691 142.488 94.3927C142.668 94.1047 143.1 94.3927 142.92 94.6807C142.297 95.6504 141.384 96.3986 140.311 96.8188C139.238 97.239 138.06 97.3097 136.944 97.0207C136.62 96.9487 136.8 96.4447 137.124 96.5167Z" fill="#347474"/>
<path d="M146.592 97.2724C146.664 96.9484 147.168 97.1284 147.096 97.4524C146.768 98.8084 146.882 100.234 147.42 101.52C147.888 102.636 148.716 103.932 150.012 104.112C150.336 104.148 150.3 104.688 149.976 104.616C148.536 104.436 147.528 103.14 146.988 101.88C146.355 100.429 146.216 98.8104 146.592 97.2724Z" fill="#347474"/>
<path d="M148.176 105.733C149.58 106.597 151.272 106.453 152.82 105.985C154.368 105.517 155.952 104.833 156.744 103.357C156.888 103.069 157.32 103.357 157.176 103.645C156.312 105.229 154.548 106.021 152.892 106.489C151.236 106.957 149.4 107.101 147.888 106.165C147.564 105.985 147.888 105.553 148.176 105.733Z" fill="#347474"/>
<path d="M155.484 102.996C155.546 103.302 155.697 103.583 155.919 103.803C156.14 104.023 156.421 104.174 156.728 104.234C157.034 104.295 157.351 104.264 157.64 104.145C157.929 104.026 158.176 103.824 158.35 103.565C158.525 103.306 158.619 103.001 158.62 102.689C158.622 102.377 158.531 102.071 158.359 101.81C158.188 101.549 157.943 101.345 157.655 101.223C157.368 101.101 157.051 101.066 156.744 101.124C156.538 101.163 156.341 101.242 156.166 101.357C155.99 101.473 155.839 101.622 155.722 101.796C155.605 101.97 155.524 102.166 155.483 102.372C155.442 102.578 155.442 102.79 155.484 102.996Z" fill="#347474"/>
<path d="M150.588 98.8924C150.65 99.1984 150.801 99.4793 151.023 99.6996C151.244 99.92 151.525 100.07 151.832 100.131C152.138 100.192 152.455 100.161 152.744 100.042C153.033 99.9225 153.28 99.7207 153.454 99.4616C153.629 99.2026 153.723 98.8977 153.724 98.5854C153.726 98.2731 153.635 97.9673 153.464 97.7065C153.292 97.4456 153.047 97.2413 152.759 97.1192C152.472 96.9971 152.155 96.9627 151.848 97.0204C151.642 97.0591 151.445 97.1385 151.27 97.2539C151.094 97.3694 150.943 97.5185 150.826 97.6927C150.709 97.8669 150.628 98.0627 150.587 98.2686C150.546 98.4746 150.546 98.6866 150.588 98.8924Z" fill="#347474"/>
<path d="M147.953 98.5447C148.81 98.3658 149.359 97.5266 149.18 96.6703C149.001 95.8139 148.162 95.2648 147.305 95.4437C146.449 95.6226 145.9 96.4618 146.079 97.3181C146.258 98.1744 147.097 98.7236 147.953 98.5447Z" fill="#347474"/>
<path d="M142.596 98.3888C142.635 98.5952 142.714 98.7918 142.83 98.9672C142.945 99.1426 143.094 99.2933 143.268 99.4106C143.443 99.5278 143.638 99.6093 143.844 99.6502C144.05 99.6911 144.262 99.6906 144.468 99.6488C144.674 99.6101 144.871 99.5307 145.046 99.4153C145.222 99.2998 145.373 99.1507 145.49 98.9765C145.607 98.8023 145.688 98.6065 145.729 98.4006C145.77 98.1946 145.77 97.9826 145.728 97.7768C145.641 97.3646 145.397 97.0025 145.047 96.7673C144.698 96.5321 144.271 96.4422 143.856 96.5168C143.65 96.5556 143.453 96.635 143.278 96.7504C143.102 96.8658 142.952 97.0149 142.834 97.1891C142.717 97.3633 142.636 97.5591 142.595 97.7651C142.554 97.971 142.554 98.183 142.596 98.3888Z" fill="#347474"/>
<path d="M141.804 94.3562C141.866 94.6623 142.017 94.9431 142.239 95.1635C142.46 95.3838 142.741 95.5339 143.048 95.5947C143.354 95.6555 143.672 95.6245 143.96 95.5054C144.249 95.3863 144.496 95.1846 144.67 94.9255C144.845 94.6664 144.939 94.3616 144.94 94.0493C144.942 93.737 144.851 93.4312 144.68 93.1703C144.508 92.9095 144.263 92.7051 143.976 92.5831C143.688 92.461 143.371 92.4266 143.064 92.4842C142.858 92.523 142.661 92.6024 142.486 92.7178C142.31 92.8332 142.16 92.9824 142.042 93.1566C141.925 93.3308 141.844 93.5265 141.803 93.7325C141.762 93.9384 141.762 94.1505 141.804 94.3562Z" fill="#347474"/>
<path d="M136.332 93.8879C136.371 94.0943 136.45 94.2909 136.566 94.4663C136.681 94.6417 136.83 94.7924 137.004 94.9097C137.179 95.0269 137.374 95.1084 137.58 95.1493C137.786 95.1902 137.998 95.1897 138.204 95.1479C138.616 95.061 138.978 94.8169 139.214 94.4674C139.449 94.1179 139.539 93.6906 139.464 93.276C139.383 92.8606 139.14 92.4945 138.789 92.2582C138.438 92.0219 138.007 91.9348 137.592 92.016C137.177 92.0971 136.811 92.3399 136.574 92.691C136.338 93.0421 136.251 93.4726 136.332 93.8879Z" fill="#347474"/>
<path d="M156.168 118.117C155.607 119.228 154.931 120.278 154.152 121.249C149.508 127.261 142.596 131.761 139.068 138.493L130.32 136.405C131.731 127.747 135.214 119.558 140.472 112.537C142.2 110.233 144.18 108.037 146.736 106.777C149.292 105.517 151.812 105.481 154.008 106.633L154.368 106.813L154.872 107.209C156.96 108.793 157.788 111.637 157.428 114.229C157.245 115.59 156.818 116.907 156.168 118.117Z" fill="#11493E"/>
<path d="M154.368 106.813C152.404 108.16 150.646 109.785 149.148 111.637C147.516 113.605 146.024 115.687 144.684 117.865C143.223 120.148 141.877 122.503 140.652 124.921C138.578 129.012 136.832 133.261 135.432 137.629L135.072 137.557C135.768 135.421 136.524 133.333 137.34 131.293C139.427 126.2 141.995 121.318 145.008 116.713C147.456 112.933 150.264 109.189 154.008 106.633L154.368 106.813Z" fill="#347474"/>
<path d="M157.608 132.264C157.572 134.388 156.276 136.332 154.62 137.664C152.964 138.996 150.984 139.824 148.968 140.58C146.952 141.336 144.972 142.02 143.172 143.208C140.7 144.823 138.857 147.237 137.952 150.048H130.284V149.976C129.852 145.512 131.292 140.58 133.416 136.62C135.618 132.629 138.932 129.365 142.956 127.224C143.713 126.836 144.494 126.499 145.296 126.216C146.45 125.774 147.663 125.507 148.896 125.424C150.979 125.244 153.06 125.777 154.8 126.936C155.626 127.539 156.314 128.313 156.816 129.204L156.996 129.528C157.41 130.38 157.62 131.317 157.608 132.264Z" fill="#347474"/>
<path d="M156.996 129.528C155.22 129.744 153.471 130.142 151.776 130.716C147.34 132.204 143.36 134.807 140.22 138.276C137.231 141.639 135.106 145.68 134.028 150.048H133.668C134.26 147.551 135.206 145.151 136.476 142.92C138.745 138.883 142.003 135.489 145.944 133.056C149.261 131.03 152.963 129.718 156.816 129.204L156.996 129.528Z" fill="#11493E"/>
<path d="M31.7519 113.401C30.8377 112.168 29.852 110.99 28.7999 109.873C28.5479 109.621 28.2239 110.017 28.4399 110.269C32.0868 114.136 34.8397 118.757 36.5039 123.805C36.9924 125.23 37.3892 126.685 37.6919 128.161C37.7279 128.485 38.2679 128.449 38.1959 128.125C37.1359 122.809 34.9375 117.786 31.7519 113.401Z" fill="#11493E"/>
<path d="M33.9839 117.468C30.3479 118.908 25.4159 118.908 22.4999 115.92C21.7731 115.178 21.2519 114.26 20.9879 113.256C20.9159 112.932 20.4119 113.076 20.4839 113.4C21.5999 117.648 26.4239 119.196 30.3479 118.872C31.6574 118.739 32.9418 118.424 34.1639 117.936C34.4519 117.828 34.2719 117.324 33.9839 117.468Z" fill="#11493E"/>
<path d="M33.912 104.581C33.696 104.329 33.264 104.617 33.48 104.869C34.632 106.309 34.92 108.181 34.668 109.981C34.416 111.781 33.876 113.437 32.256 114.121C31.932 114.265 32.112 114.733 32.4 114.625C34.164 113.869 34.92 111.961 35.172 110.197C35.424 108.433 35.208 106.165 33.912 104.581Z" fill="#11493E"/>
<path d="M34.704 106.848C33.8082 107.338 32.7818 107.535 31.7684 107.412C30.755 107.289 29.8052 106.853 29.052 106.164C28.8 105.948 28.476 106.344 28.692 106.56C29.5347 107.324 30.5959 107.805 31.7261 107.934C32.8564 108.063 33.9986 107.834 34.992 107.28C35.28 107.1 34.992 106.668 34.704 106.848Z" fill="#11493E"/>
<path d="M25.848 109.908C25.704 109.62 25.272 109.908 25.416 110.232C26.0656 111.444 26.3175 112.83 26.136 114.192C25.956 115.344 25.488 116.784 24.3 117.252C23.976 117.396 24.156 117.9 24.48 117.756C25.776 117.216 26.424 115.74 26.64 114.408C26.869 112.862 26.5911 111.284 25.848 109.908Z" fill="#11493E"/>
<path d="M26.46 118.368C25.344 119.52 23.652 119.808 22.104 119.736C20.556 119.664 18.828 119.412 17.712 118.224C17.496 117.972 17.136 118.368 17.352 118.62C18.576 119.916 20.448 120.204 22.14 120.276C23.832 120.348 25.632 119.988 26.856 118.692C27.072 118.476 26.676 118.116 26.46 118.368Z" fill="#11493E"/>
<path d="M18.828 117.577C18.8478 117.991 18.7042 118.396 18.4283 118.706C18.1523 119.016 17.7658 119.205 17.352 119.233C16.9377 119.252 16.5321 119.109 16.2225 118.833C15.9128 118.557 15.7238 118.17 15.696 117.757C15.6762 117.552 15.6983 117.346 15.7609 117.15C15.8235 116.955 15.9253 116.774 16.06 116.619C16.1947 116.464 16.3596 116.338 16.5446 116.249C16.7296 116.16 16.9308 116.109 17.136 116.101C17.3441 116.086 17.5531 116.113 17.7509 116.179C17.9487 116.245 18.1314 116.35 18.2887 116.487C18.4459 116.624 18.5745 116.791 18.667 116.978C18.7596 117.165 18.8143 117.368 18.828 117.577Z" fill="#11493E"/>
<path d="M22.464 112.464C22.4837 112.879 22.3402 113.284 22.0642 113.594C21.7883 113.903 21.4018 114.092 20.988 114.12C20.5736 114.14 20.1681 113.997 19.8584 113.721C19.5488 113.445 19.3598 113.058 19.332 112.644C19.3122 112.44 19.3343 112.234 19.3969 112.038C19.4595 111.842 19.5612 111.662 19.696 111.507C19.8307 111.352 19.9956 111.226 20.1806 111.137C20.3656 111.048 20.5668 110.997 20.772 110.988C20.9801 110.974 21.189 111 21.3869 111.067C21.5847 111.133 21.7674 111.238 21.9247 111.375C22.0819 111.512 22.2104 111.679 22.303 111.866C22.3955 112.053 22.4503 112.256 22.464 112.464Z" fill="#11493E"/>
<path d="M26.316 109.765C26.3358 110.179 26.1923 110.584 25.9163 110.894C25.6403 111.204 25.2538 111.393 24.84 111.421C24.6187 111.466 24.3902 111.464 24.1699 111.414C23.9495 111.364 23.7424 111.267 23.5625 111.131C23.3825 110.994 23.2339 110.821 23.1265 110.622C23.0192 110.423 22.9556 110.204 22.94 109.978C22.9245 109.753 22.9573 109.527 23.0364 109.315C23.1154 109.103 23.2389 108.911 23.3984 108.751C23.5579 108.591 23.7497 108.467 23.9611 108.387C24.1725 108.307 24.3985 108.274 24.624 108.289C25.0421 108.268 25.4518 108.411 25.7672 108.686C26.0826 108.961 26.2793 109.348 26.316 109.765Z" fill="#11493E"/>
<path d="M29.952 110.016C29.9718 110.43 29.8283 110.836 29.5523 111.146C29.2763 111.455 28.8899 111.644 28.476 111.672C28.0617 111.692 27.6561 111.548 27.3465 111.272C27.0368 110.996 26.8478 110.61 26.82 110.196C26.8002 109.992 26.8223 109.785 26.8849 109.59C26.9475 109.394 27.0493 109.213 27.184 109.059C27.3188 108.904 27.4837 108.778 27.6686 108.689C27.8536 108.599 28.0548 108.549 28.26 108.54C28.4681 108.525 28.6771 108.552 28.8749 108.618C29.0727 108.685 29.2555 108.789 29.4127 108.926C29.5699 109.064 29.6985 109.23 29.791 109.417C29.8836 109.604 29.9383 109.808 29.952 110.016Z" fill="#11493E"/>
<path d="M29.7 105.949C29.7198 106.363 29.5762 106.768 29.3002 107.078C29.0243 107.388 28.6378 107.577 28.224 107.605C28.0196 107.624 27.8133 107.602 27.6177 107.54C27.4222 107.477 27.2414 107.375 27.0864 107.241C26.9315 107.106 26.8056 106.941 26.7165 106.756C26.6273 106.571 26.5768 106.37 26.568 106.165C26.538 105.75 26.6722 105.34 26.9416 105.024C27.2109 104.707 27.594 104.509 28.008 104.473C28.426 104.452 28.8357 104.595 29.1511 104.87C29.4666 105.145 29.6632 105.532 29.7 105.949Z" fill="#11493E"/>
<path d="M34.812 104.149C34.8318 104.563 34.6883 104.969 34.4123 105.278C34.1363 105.588 33.7499 105.777 33.336 105.805C33.1316 105.825 32.9253 105.802 32.7298 105.74C32.5342 105.677 32.3534 105.575 32.1985 105.441C32.0435 105.306 31.9176 105.141 31.8285 104.956C31.7393 104.771 31.6888 104.57 31.68 104.365C31.6603 104.159 31.6822 103.95 31.7444 103.753C31.8066 103.555 31.9078 103.372 32.0421 103.214C32.1764 103.056 32.341 102.927 32.5262 102.834C32.7113 102.741 32.9132 102.686 33.12 102.673C33.5381 102.653 33.9478 102.795 34.2632 103.07C34.5786 103.345 34.7753 103.732 34.812 104.149Z" fill="#11493E"/>
<path d="M49.212 137.233L37.548 135.469C35.6757 130.157 34.5725 124.605 34.272 118.981C33.9353 112.462 34.94 105.943 37.224 99.8287C37.584 98.9287 38.016 97.9567 38.916 97.6687L39.276 97.5967H39.636C40.0638 97.6308 40.4743 97.78 40.824 98.0287C41.3595 98.4264 41.8223 98.9135 42.192 99.4687C46.044 104.797 48.42 111.133 49.464 117.613C50.508 124.093 50.184 130.717 49.212 137.233Z" fill="#347474"/>
<path d="M41.724 136.117C42.048 134.173 42.264 132.229 42.444 130.285C42.7084 127.425 42.8286 124.553 42.804 121.681C42.768 118.837 42.624 115.957 42.336 113.113C42.048 110.269 41.58 107.425 41.004 104.653C40.428 101.881 39.96 99.9367 39.276 97.5967H39.636C40.428 100.225 41.04 102.889 41.58 105.553C42.12 108.217 42.516 111.241 42.768 114.085C43.02 116.929 43.164 119.845 43.164 122.761C43.1696 125.623 43.0134 128.484 42.696 131.329C42.552 132.949 42.336 134.569 42.084 136.153L41.724 136.117Z" fill="#11493E"/>
<path d="M47.628 142.057L37.044 143.713C31.248 137.917 26.928 130.249 26.172 122.113C26.0755 121.527 26.0877 120.929 26.208 120.349C26.3017 119.89 26.5573 119.481 26.928 119.197L27.252 119.017C28.152 118.621 29.16 119.197 29.952 119.773C33.0181 122.043 35.8411 124.625 38.376 127.477C42.2277 131.805 45.3522 136.728 47.628 142.057Z" fill="#11493E"/>
<path d="M41.796 142.957L41.436 143.029C40.86 141.697 40.284 140.401 39.672 139.105C37.8903 135.355 35.8702 131.724 33.624 128.233C31.5704 125.092 29.3346 122.075 26.928 119.197L27.252 119.017C28.476 120.481 29.664 121.993 30.816 123.553C33.2654 126.893 35.4902 130.393 37.476 134.029C39.06 136.945 40.5 139.933 41.796 142.957Z" fill="#347474"/>
<path d="M147.708 62.1004C148.212 58.5004 150.012 55.1524 152.496 52.4884C155.042 49.7845 158.086 47.5966 161.46 46.0444C156.852 42.3004 153.432 36.7924 151.848 31.0684C146.771 32.2181 142.076 34.6576 138.217 38.1511C134.357 41.6447 131.464 46.0744 129.816 51.0124C131.534 54.2572 134.08 56.9897 137.196 58.9324C140.362 60.8914 143.987 61.9839 147.708 62.1004Z" fill="#38A98E"/>
<path d="M153.36 47.2327C149.122 44.636 145.626 40.9907 143.208 36.6487C143.16 36.5627 143.08 36.4993 142.986 36.4723C142.891 36.4453 142.79 36.4569 142.704 36.5047C142.618 36.5524 142.555 36.6323 142.528 36.7268C142.501 36.8213 142.512 36.9227 142.56 37.0087C145.047 41.4608 148.643 45.1938 153 47.8446C153.396 48.0966 153.756 47.4847 153.36 47.2327Z" fill="#38A98E"/>
<path d="M150.732 50.0045C146.429 47.2528 142.858 43.4972 140.328 39.0605C140.076 38.6645 139.464 39.0245 139.716 39.4205C142.313 43.9575 145.969 47.7988 150.372 50.6165C150.768 50.8685 151.128 50.2565 150.732 50.0045Z" fill="#38A98E"/>
<path d="M148.248 53.2082C143.732 50.3191 139.919 46.4569 137.088 41.9042C136.836 41.5082 136.188 41.8682 136.44 42.2642C139.368 46.9144 143.275 50.8703 147.888 53.8562C148.284 54.1082 148.644 53.4602 148.248 53.2082Z" fill="#38A98E"/>
<path d="M145.62 56.4846C140.919 54.0868 136.961 50.4524 134.172 45.9726C133.956 45.5766 133.308 45.9366 133.56 46.3326C136.411 50.9246 140.455 54.6571 145.26 57.1326C145.692 57.3126 146.052 56.7006 145.62 56.4846Z" fill="#38A98E"/>
<path d="M151.128 41.004C149.518 39.3235 148.214 37.3741 147.276 35.244C147.096 34.848 146.484 35.208 146.664 35.64C147.64 37.7989 148.966 39.7817 150.588 41.508C150.912 41.832 151.416 41.328 151.128 41.004Z" fill="#38A98E"/>
<path d="M25.668 94.3926C27.568 92.323 30.0768 90.911 32.832 90.3606C35.524 89.8055 38.3228 90.1207 40.824 91.2606C41.8951 86.8608 42.0646 82.2898 41.3222 77.8228C40.5797 73.3558 38.9408 69.0853 36.504 65.2686C32.8873 64.7838 29.2088 65.0756 25.7138 66.1247C22.2188 67.1738 18.9877 68.9561 16.236 71.3526C18.7841 73.3981 20.7463 76.0807 21.924 79.1286C24.0241 83.969 25.29 89.1298 25.668 94.3926Z" fill="#38A98E"/>
<path d="M37.98 71.8924C32.7552 71.7116 27.5424 72.5051 22.608 74.2324C22.14 74.4124 22.32 75.1684 22.788 74.9884C27.664 73.2767 32.815 72.4833 37.98 72.6484C38.448 72.6844 38.484 71.8924 37.98 71.8924Z" fill="#38A98E"/>
<path d="M38.268 75.7806C33.48 75.0606 28.728 76.3206 24.156 77.5806C23.688 77.7246 23.868 78.4806 24.336 78.3366C28.872 77.1126 33.516 75.8526 38.232 76.5726C38.736 76.6446 38.736 75.8526 38.268 75.7806Z" fill="#38A98E"/>
<path d="M39.024 79.6679C34.4408 79.3872 29.8462 79.986 25.488 81.4319C25.02 81.5759 25.2 82.3319 25.668 82.1879C29.9676 80.757 34.5004 80.1583 39.024 80.4239C39.528 80.4599 39.528 79.6679 39.024 79.6679Z" fill="#38A98E"/>
<path d="M38.484 83.4844C34.5258 83.5542 30.5933 84.135 26.784 85.2124C26.7005 85.2505 26.6328 85.3163 26.5925 85.3988C26.5522 85.4812 26.5418 85.5751 26.563 85.6644C26.5843 85.7537 26.6359 85.8328 26.709 85.8883C26.7821 85.9437 26.8723 85.972 26.964 85.9684C30.7129 84.9006 34.5863 84.3317 38.484 84.2764C38.952 84.2404 38.988 83.4844 38.484 83.4844Z" fill="#38A98E"/>
<path d="M31.0319 69.1201C27.7358 69.6877 24.4777 70.4571 21.2759 71.4241C21.2175 71.4264 21.1603 71.4416 21.1085 71.4687C21.0566 71.4957 21.0114 71.5339 20.9761 71.5805C20.9407 71.6271 20.9162 71.681 20.9041 71.7382C20.8921 71.7954 20.8929 71.8546 20.9064 71.9115C20.9199 71.9684 20.9459 72.0215 20.9825 72.0672C21.019 72.1128 21.0652 72.1498 21.1177 72.1755C21.1703 72.2012 21.2278 72.2149 21.2863 72.2157C21.3448 72.2165 21.4027 72.2043 21.4559 72.1801C24.6539 71.2081 27.9131 70.4504 31.2119 69.9121C31.7159 69.8041 31.5359 69.0481 31.0319 69.1201Z" fill="#38A98E"/>
<path d="M43.5959 46.5843C42.2237 45.812 40.7097 45.3247 39.1447 45.1515C37.5797 44.9783 35.9958 45.1228 34.4879 45.5763C34.7591 42.7677 35.7496 40.0764 37.3639 37.7621C38.9782 35.4479 41.1618 33.5888 43.7039 32.3643C45.4014 32.6636 47.0115 33.3353 48.4183 34.3313C49.825 35.3273 50.9936 36.6227 51.8399 38.1243C49.9319 38.6283 48.3479 39.9603 47.0879 41.5443C45.8279 43.1283 44.4959 44.7843 43.5959 46.5843Z" fill="#38A98E"/>
<path d="M168.408 93.42C167.256 95.832 165.168 97.776 162.828 99.072C160.488 100.368 157.824 100.944 155.16 101.412C154.845 98.4945 153.536 95.7741 151.452 93.708C153.874 93.5614 156.171 92.5873 157.96 90.949C159.749 89.3106 160.921 87.1073 161.28 84.708C164.772 86.256 167.472 89.712 168.408 93.42Z" fill="#38A98E"/>
<path d="M118.548 156.24C118.548 156.24 116.172 155.628 110.952 156.24L118.548 79.7761L130.032 78.9121L127.656 150.228L118.548 156.24Z" fill="#11493E"/>
<path d="M137.736 149.904C136.493 150.599 135.206 151.212 133.884 151.74C133.308 151.992 132.66 152.28 131.94 152.532L129.6 153.396L128.448 153.792L124.704 154.944C122.683 155.512 120.626 155.945 118.548 156.24C118.548 156.24 126.9 121.32 124.128 83.7001L131.328 78.9121L135.54 79.1281C135.54 79.1281 142.164 116.892 137.736 149.904Z" fill="#38A98E"/>
<path d="M115.452 158.796C71.208 163.548 36.864 143.568 36.864 143.568C40.5724 139.402 43.8081 134.839 46.512 129.96C60.66 104.616 60.228 75.2764 60.228 75.2764L105.66 79.7044L123.84 81.5044C125.82 125.244 115.452 158.796 115.452 158.796Z" fill="#38A98E"/>
<path d="M103.968 125.892V125.964C104.005 126.207 103.989 126.455 103.921 126.692C103.853 126.928 103.733 127.146 103.572 127.332C103.374 127.54 103.105 127.666 102.819 127.686C102.533 127.706 102.249 127.618 102.024 127.44C101.824 127.242 101.678 126.995 101.602 126.723C101.527 126.452 101.523 126.165 101.592 125.892C101.769 125.358 102.037 124.859 102.384 124.416C102.564 124.184 102.732 123.944 102.888 123.696C103.025 123.417 103.075 123.104 103.032 122.796L103.212 123.048C103.293 123.156 103.354 123.278 103.392 123.408C103.781 124.178 103.978 125.03 103.968 125.892Z" fill="#E9F1F1"/>
<path d="M106.164 128.304V128.376C106.232 128.562 106.261 128.761 106.248 128.959C106.236 129.158 106.183 129.351 106.092 129.528C105.96 129.719 105.765 129.857 105.54 129.917C105.315 129.976 105.077 129.953 104.868 129.852C104.673 129.731 104.514 129.561 104.406 129.358C104.299 129.156 104.247 128.929 104.256 128.7C104.316 128.238 104.45 127.788 104.652 127.368C104.767 127.165 104.852 126.947 104.904 126.72C104.958 126.471 104.958 126.213 104.904 125.964C104.904 126.036 105.048 126.108 105.084 126.144L105.3 126.396C105.731 126.957 106.026 127.61 106.164 128.304Z" fill="#E9F1F1"/>
<g style="mix-blend-mode:multiply">
<path d="M115.452 158.796C71.208 163.548 36.864 143.568 36.864 143.568C40.5724 139.402 43.8081 134.838 46.512 129.96C47.088 130.536 47.664 131.22 48.276 131.904C53.532 137.988 60.12 142.596 67.896 144.9C72.1698 146.211 76.6485 146.724 81.108 146.412C95.904 145.404 109.656 135.072 114.732 121.14C119.808 107.208 115.956 90.4321 105.3 80.1361L105.66 79.7041L123.84 81.5041C125.82 125.244 115.452 158.796 115.452 158.796Z" fill="#E9F1F1"/>
</g>
<path d="M122.076 66.2765C125.82 65.3045 130.248 63.8285 133.56 61.8125C135.492 67.5854 136.382 73.656 136.188 79.7405C132.264 81.1445 128.052 82.2965 124.128 83.7005C124.416 77.9045 123.12 72.0005 122.076 66.2765Z" fill="#131D21"/>
<path d="M59.004 60.9848C63.54 61.2008 69.516 60.6968 73.908 59.5088C73.908 59.5088 111.6 65.7008 133.56 61.8128C133.56 61.8128 130.968 64.8368 122.076 66.2768C122.076 66.2768 102.672 70.6688 84.852 67.2488C67.032 63.8288 59.004 60.9848 59.004 60.9848Z" fill="#347474"/>
<path d="M124.128 83.7004C102.204 85.7884 80.316 83.9524 59.364 77.2204C60.048 72.7564 59.904 64.6564 59.004 60.9844C79.56 65.8084 101.052 67.9684 122.076 66.2764C123.82 71.91 124.516 77.8158 124.128 83.7004Z" fill="#11493E"/>
<path d="M67.572 73.7642C68.7649 73.7642 69.732 72.4909 69.732 70.9202C69.732 69.3495 68.7649 68.0762 67.572 68.0762C66.3791 68.0762 65.412 69.3495 65.412 70.9202C65.412 72.4909 66.3791 73.7642 67.572 73.7642Z" fill="#347474"/>
<path d="M79.02 76.2847C80.2129 76.2847 81.18 75.0114 81.18 73.4407C81.18 71.87 80.2129 70.5967 79.02 70.5967C77.8271 70.5967 76.86 71.87 76.86 73.4407C76.86 75.0114 77.8271 76.2847 79.02 76.2847Z" fill="#347474"/>
<path d="M93.9239 78.1206C95.1169 78.1206 96.0839 76.8473 96.0839 75.2766C96.0839 73.7059 95.1169 72.4326 93.9239 72.4326C92.731 72.4326 91.7639 73.7059 91.7639 75.2766C91.7639 76.8473 92.731 78.1206 93.9239 78.1206Z" fill="#347474"/>
<path d="M111.132 78.5884C112.325 78.5884 113.292 77.3151 113.292 75.7444C113.292 74.1737 112.325 72.9004 111.132 72.9004C109.939 72.9004 108.972 74.1737 108.972 75.7444C108.972 77.3151 109.939 78.5884 111.132 78.5884Z" fill="#347474"/>
<g style="mix-blend-mode:multiply">
<path d="M133.884 151.74C133.308 151.992 132.66 152.28 131.94 152.532C132.986 149.337 133.627 146.023 133.848 142.668C133.848 145.692 133.884 148.716 133.884 151.74Z" fill="#38A98E"/>
</g>
<g style="mix-blend-mode:multiply">
<path d="M130.428 148.32C130.24 150.025 129.963 151.72 129.6 153.396L128.448 153.792C129.252 152.024 129.914 150.194 130.428 148.32Z" fill="#38A98E"/>
</g>
<path d="M124.02 62.8564L121.212 63.0004C121.025 61.8027 120.533 60.6732 119.782 59.7211C119.032 58.7689 118.049 58.0262 116.928 57.5644C113.832 56.3404 110.196 57.3124 107.928 59.6524C107.482 60.1065 107.095 60.6144 106.776 61.1644C106.9 61.7338 106.985 62.3112 107.028 62.8924L105.948 62.8204C105.55 63.9396 105.379 65.1265 105.444 66.3124C105.461 67.0077 105.57 67.6977 105.768 68.3644C106.132 69.7095 106.803 70.9521 107.727 71.9951C108.651 73.038 109.804 73.853 111.096 74.3764C112.788 75.0244 112.032 77.8324 110.34 77.1484C108.496 76.4112 106.857 75.2415 105.56 73.7378C104.263 72.2341 103.346 70.4405 102.888 68.5084C102.425 66.5888 102.45 64.584 102.96 62.6764C103.134 62.0341 103.363 61.4078 103.644 60.8044C103.207 59.731 102.5 58.7886 101.592 58.0684C100.132 56.9425 98.3183 56.3746 96.477 56.4669C94.6357 56.5593 92.8878 57.306 91.548 58.5724C91.884 59.6063 92.0423 60.6897 92.016 61.7764L89.244 61.4884V61.6324C88.3281 63.5791 88.149 65.7918 88.74 67.8604C89.1043 69.2055 89.7749 70.4481 90.6992 71.4911C91.6234 72.534 92.7764 73.349 94.068 73.8724C95.796 74.5564 95.04 77.3284 93.312 76.6444C91.3682 75.8738 89.6535 74.6194 88.3305 73.0002C87.0074 71.3811 86.1199 69.4508 85.752 67.3924C85.3613 65.3087 85.5353 63.1583 86.256 61.1644C86.6968 59.9994 87.3296 58.9165 88.128 57.9604C87.5946 57.1091 86.8821 56.3843 86.04 55.8364C85.6757 55.5973 85.2901 55.3924 84.888 55.2244C83.2492 54.6087 81.454 54.5454 79.776 55.0444C80.5323 56.7371 80.7944 58.6092 80.532 60.4444L77.724 60.0844C77.9291 58.7753 77.7412 57.4347 77.184 56.2324C75.9527 57.0677 74.9601 58.2091 74.304 59.5444C73.7574 60.6706 73.447 61.8967 73.3917 63.1473C73.3364 64.3979 73.5375 65.6465 73.9826 66.8165C74.4276 67.9866 75.1073 69.0532 75.9798 69.9508C76.8523 70.8485 77.8991 71.5583 79.056 72.0364C80.748 72.7204 80.028 75.4924 78.3 74.8084C76.1382 73.9401 74.2651 72.4796 72.896 70.5947C71.5269 68.7097 70.7172 66.4768 70.56 64.1524C70.4518 62.8051 70.5984 61.4495 70.992 60.1564C71.6141 57.9726 72.8814 56.0276 74.628 54.5764L75.492 53.9284C75.1266 53.6005 74.7285 53.311 74.304 53.0644C74.0298 52.9041 73.7404 52.7715 73.44 52.6684C70.38 51.4444 66.744 52.4164 64.476 54.7564C62.8484 56.4341 61.9436 58.6831 61.956 61.0204C61.956 61.3444 61.992 61.6324 61.992 61.9204C62.156 63.5715 62.7696 65.146 63.7661 66.4726C64.7627 67.7992 66.1039 68.8271 67.644 69.4444C69.336 70.1284 68.58 72.9364 66.852 72.2164C64.6013 71.3219 62.6655 69.7816 61.2883 67.7893C59.911 65.7971 59.1538 63.442 59.112 61.0204C59.0744 59.3081 59.424 57.6094 60.1346 56.051C60.8452 54.4927 61.8985 53.1149 63.216 52.0204C66.636 49.1044 71.784 48.3484 75.78 50.6164L76.68 51.1924C77.2138 51.6012 77.7079 52.0592 78.156 52.5604C79.6195 52.0162 81.182 51.7894 82.7398 51.8949C84.2976 52.0004 85.8152 52.4359 87.192 53.1724C88.3835 53.9024 89.4226 54.8559 90.252 55.9804C93.672 53.4604 98.46 52.8844 102.204 55.0084C103.524 55.7684 104.647 56.8291 105.48 58.1044C105.862 57.6934 106.271 57.3085 106.704 56.9524C110.124 54.0364 115.272 53.2804 119.268 55.5124C120.579 56.2801 121.692 57.3443 122.517 58.6197C123.342 59.8951 123.857 61.3461 124.02 62.8564Z" fill="#38A98E"/>
<g style="mix-blend-mode:multiply">
<path d="M78.1199 52.5242C77.2047 52.9386 76.3151 53.4074 75.4559 53.9282C75.0906 53.6003 74.6925 53.3108 74.2679 53.0642C74.8799 52.3082 76.0679 51.5522 76.6439 51.1562C77.1777 51.565 77.6719 52.023 78.1199 52.5242Z" fill="#E9F1F1"/>
</g>
<g style="mix-blend-mode:multiply">
<path d="M90.216 55.9446C89.496 56.4126 88.092 57.9606 88.092 57.9606C87.5587 57.1093 86.8461 56.3844 86.004 55.8366L88.236 53.8926C89.0102 54.4564 89.6802 55.1508 90.216 55.9446Z" fill="#E9F1F1"/>
</g>
<g style="mix-blend-mode:multiply">
<path d="M105.444 58.0679C104.688 58.8599 103.644 60.8039 103.644 60.8039C103.207 59.7305 102.5 58.7881 101.592 58.0679L103.428 55.8359C104.21 56.4725 104.89 57.2253 105.444 58.0679Z" fill="#E9F1F1"/>
</g>
<path d="M90.9 132.948C89.856 123.84 77.472 123.336 71.964 128.592C71.1 129.384 72.396 130.716 73.26 129.888C77.508 125.856 88.164 125.496 89.028 132.948C89.172 134.136 91.008 134.136 90.9 132.948Z" fill="#11493E"/>
<path d="M85.4639 119.16C86.6159 119.412 87.1199 117.612 85.9319 117.396C84.7439 117.18 84.5279 117.144 83.8799 117.468C83.5827 117.6 83.3168 117.793 83.0996 118.035C82.8825 118.277 82.719 118.563 82.6199 118.872C82.1879 120.384 83.2679 121.644 84.7439 121.86C84.9859 121.851 85.2148 121.748 85.3826 121.574C85.5504 121.399 85.6441 121.166 85.6439 120.924C85.6441 120.682 85.5504 120.449 85.3826 120.275C85.2148 120.1 84.9859 119.998 84.7439 119.988C84.6755 119.975 84.6113 119.946 84.5568 119.902C84.5022 119.859 84.459 119.803 84.4307 119.739C84.4024 119.676 84.3899 119.606 84.3943 119.537C84.3987 119.467 84.4198 119.4 84.4559 119.34C84.6359 118.98 85.1399 119.124 85.4639 119.16Z" fill="#11493E"/>
<path d="M74.4839 120.06C79.3551 120.06 83.3039 114.693 83.3039 108.072C83.3039 101.451 79.3551 96.084 74.4839 96.084C69.6128 96.084 65.6639 101.451 65.6639 108.072C65.6639 114.693 69.6128 120.06 74.4839 120.06Z" fill="#FCFCFC"/>
<path d="M72.936 114.48C75.7394 114.48 78.012 111.386 78.012 107.568C78.012 103.751 75.7394 100.656 72.936 100.656C70.1326 100.656 67.86 103.751 67.86 107.568C67.86 111.386 70.1326 114.48 72.936 114.48Z" fill="#11493E"/>
<path d="M75.924 113.4C76.9579 113.4 77.796 112.272 77.796 110.88C77.796 109.489 76.9579 108.36 75.924 108.36C74.8901 108.36 74.052 109.489 74.052 110.88C74.052 112.272 74.8901 113.4 75.924 113.4Z" fill="#FCFCFC"/>
<path d="M98.1719 122.869C103.043 122.869 106.992 117.501 106.992 110.881C106.992 104.26 103.043 98.8926 98.1719 98.8926C93.3008 98.8926 89.3519 104.26 89.3519 110.881C89.3519 117.501 93.3008 122.869 98.1719 122.869Z" fill="#FCFCFC"/>
<path d="M96.624 117.253C99.4274 117.253 101.7 114.158 101.7 110.341C101.7 106.523 99.4274 103.429 96.624 103.429C93.8206 103.429 91.548 106.523 91.548 110.341C91.548 114.158 93.8206 117.253 96.624 117.253Z" fill="#11493E"/>
<path d="M101.448 113.653C101.448 115.057 100.62 116.209 99.576 116.209C98.532 116.209 97.74 115.057 97.74 113.653C97.74 112.249 98.568 111.133 99.576 111.133C100.584 111.133 101.448 112.249 101.448 113.653Z" fill="#FCFCFC"/>
<path d="M105.336 96.1562C103.717 96.1457 102.124 95.7481 100.69 94.9966C99.2556 94.2451 98.0221 93.1615 97.092 91.8362C96.408 90.8282 94.716 91.8002 95.436 92.8082C96.5486 94.4119 98.0264 95.7281 99.7478 96.6482C101.469 97.5683 103.384 98.066 105.336 98.1002C106.56 98.1002 106.56 96.1922 105.336 96.1562Z" fill="#11493E"/>
<path d="M79.2719 89.4241C77.0399 92.1241 72.8639 92.5922 69.5879 92.3402C68.3639 92.2322 68.3639 94.1401 69.5879 94.2481C73.3319 94.5721 78.1199 93.8521 80.6039 90.7922C81.3959 89.8202 80.0639 88.4521 79.2719 89.4241Z" fill="#11493E"/>
<path d="M134.964 109.873C133.848 107.677 131.364 106.489 128.988 107.497C126.612 108.505 125.532 111.241 126.612 113.437C129.276 118.729 128.808 125.281 124.128 129.673C122.364 131.329 121.752 133.957 123.336 136.009C124.92 138.061 127.908 138.493 129.708 136.801C137.088 129.853 139.572 119.089 134.964 109.873Z" fill="#E9F1F1"/>
<path d="M128.196 144.361C126.124 146.149 123.441 147.065 120.708 146.917C117.989 146.778 115.393 145.74 113.328 143.965C111.672 142.597 110.34 140.725 109.944 138.601C109.548 136.477 110.052 135.037 111.168 133.777L111.348 133.597C112.86 132.085 115.524 131.509 117.288 132.625C117.112 132.464 116.983 132.259 116.913 132.031C116.843 131.803 116.836 131.56 116.892 131.329C117.04 130.818 117.342 130.366 117.756 130.033C118.337 129.501 119.019 129.09 119.76 128.825C120.502 128.559 121.289 128.443 122.076 128.485C122.529 128.513 122.976 128.598 123.408 128.737C124.668 132.373 127.908 135.757 131.436 137.233C131.436 138.583 131.146 139.918 130.587 141.147C130.029 142.377 129.213 143.472 128.196 144.361Z" fill="#347474"/>
<g style="mix-blend-mode:multiply">
<path d="M128.196 144.36C126.124 146.148 123.441 147.064 120.708 146.916C117.989 146.778 115.393 145.74 113.328 143.964C111.672 142.596 110.34 140.724 109.944 138.6C109.548 136.476 110.052 135.036 111.168 133.776C110.861 134.577 110.74 135.438 110.815 136.292C110.89 137.147 111.158 137.973 111.6 138.708C112.464 140.076 113.832 141.012 115.308 141.66C117.432 142.632 119.844 143.136 122.184 142.74C123.354 142.574 124.475 142.156 125.469 141.516C126.463 140.876 127.308 140.029 127.944 139.032C125.897 137.94 124.238 136.243 123.192 134.172C122.324 132.408 121.939 130.446 122.076 128.484C122.529 128.512 122.976 128.597 123.408 128.736C124.668 132.372 127.908 135.756 131.436 137.232C131.436 138.583 131.146 139.918 130.587 141.147C130.029 142.376 129.213 143.472 128.196 144.36Z" fill="#E9F1F1"/>
</g>
<path d="M131.976 135.432C129.168 134.208 125.1 131.652 124.812 128.268C124.632 126.468 121.86 126.9 122.04 128.7C122.4 133.092 127.224 136.44 130.932 138.06C132.588 138.78 133.596 136.188 131.976 135.432Z" fill="#347474"/>
<path d="M55.656 99.2161C53.9141 102.045 53.3458 105.442 54.072 108.684C54.2137 109.381 54.4062 110.067 54.648 110.736C53.5425 114.364 52.2201 117.923 50.688 121.392L50.508 121.212C44.064 114.048 43.2 103.968 47.376 95.6161L48.384 93.8161C49.644 91.7281 52.884 91.5481 54.72 92.8801C56.556 94.2121 56.916 97.1281 55.656 99.2161Z" fill="#E9F1F1"/>
<g style="mix-blend-mode:multiply">
<path d="M54.648 110.736C53.5446 114.376 52.2222 117.947 50.688 121.428L50.508 121.212C44.064 114.084 43.2 103.968 47.376 95.6519C47.7606 95.4877 48.1579 95.3552 48.564 95.2559C47.6699 96.8001 47.1865 98.5477 47.16 100.332C47.1409 102.119 47.4711 103.892 48.132 105.552C48.4356 106.441 48.9129 107.261 49.536 107.964C50.1266 108.704 50.9755 109.193 51.912 109.332C52.2946 109.378 52.6825 109.347 53.0533 109.242C53.424 109.137 53.7703 108.96 54.072 108.72C54.209 109.406 54.4016 110.081 54.648 110.736Z" fill="#E9F1F1"/>
</g>
<path d="M62.7119 94.8608C62.1464 96.0597 61.3398 97.1291 60.3426 98.0024C59.3454 98.8758 58.1789 99.5343 56.9159 99.9368C55.5479 98.4248 53.7839 97.2008 52.0919 96.0848C50.3999 94.9688 48.5279 93.9608 46.4759 93.9248C46.1501 93.3992 45.8729 92.8448 45.6479 92.2688C45.5063 91.9779 45.386 91.6771 45.2879 91.3688C45.002 90.6114 44.8912 89.7991 44.9639 88.9928C45.017 88.5866 45.1696 88.1999 45.4083 87.867C45.647 87.5341 45.9643 87.2654 46.3319 87.0848C46.7395 86.9651 47.1762 86.9934 47.5649 87.1647C47.9536 87.336 48.2692 87.6392 48.4559 88.0208C48.6359 85.6808 48.8519 83.2688 49.7879 81.1088C50.7239 78.9488 52.5599 77.0408 54.8639 76.6088C55.7763 76.434 56.7183 76.496 57.5999 76.7888C58.4513 77.0426 59.2458 77.4582 59.9399 78.0128C61.3327 79.1859 62.3577 80.7359 62.8919 82.4768C63.4324 84.2149 63.7233 86.0209 63.7559 87.8408C63.8639 90.2168 63.7199 92.6648 62.7119 94.8608Z" fill="#347474"/>
<g style="mix-blend-mode:multiply">
<path d="M62.7119 94.8601C62.1464 96.059 61.3398 97.1284 60.3426 98.0017C59.3454 98.8751 58.1789 99.5336 56.916 99.9361C55.548 98.4241 53.7839 97.2001 52.0919 96.0841C50.3999 94.9681 48.528 93.9601 46.476 93.9241C46.1501 93.3985 45.8729 92.8441 45.6479 92.2681C48.3543 91.907 51.1072 92.345 53.5679 93.5281C54.5399 93.9961 55.476 94.6081 56.556 94.6801C58.176 94.8241 59.6879 93.7801 60.5519 92.4121C61.4159 91.0441 61.6679 89.3881 61.8119 87.7681C62.0346 86.0191 61.9861 84.2462 61.6679 82.5121C61.366 80.7796 60.5362 79.1828 59.2919 77.9401C58.7903 77.4716 58.2197 77.0831 57.5999 76.7881C58.4514 77.0419 59.2459 77.4575 59.9399 78.0121C61.3328 79.1852 62.3577 80.7352 62.8919 82.4761C63.4324 84.2142 63.7233 86.0202 63.756 87.8401C63.864 90.2161 63.7199 92.6641 62.7119 94.8601Z" fill="#E9F1F1"/>
</g>
<path d="M46.584 95.7247C49.608 96.1927 54.18 97.5607 55.368 100.729C56.016 102.421 58.572 101.305 57.96 99.6127C56.376 95.4367 50.868 93.5287 46.872 92.9527C45.072 92.7007 44.784 95.4727 46.584 95.7247Z" fill="#347474"/>
<path d="M149.364 72.9003C149.302 72.77 149.195 72.6659 149.063 72.6066C148.931 72.5473 148.783 72.5366 148.644 72.5763L145.944 73.2603C145.512 73.3323 145.512 73.9083 145.8 74.1603L146.52 74.7723C145.83 75.0866 145.105 75.3162 144.36 75.4563C144.258 75.4776 144.164 75.5261 144.088 75.5965C144.011 75.6669 143.956 75.7567 143.926 75.8564C143.896 75.956 143.894 76.0617 143.92 76.1624C143.946 76.2631 143.998 76.355 144.072 76.4283L144.576 76.9323L142.848 78.0843C142.272 78.4443 142.884 79.3443 143.496 78.9483L145.728 77.4363C145.797 77.3888 145.854 77.3259 145.895 77.2525C145.936 77.179 145.959 77.0971 145.962 77.0133C145.966 76.9294 145.95 76.8459 145.915 76.7693C145.881 76.6928 145.829 76.6253 145.764 76.5723L145.476 76.2843C146.317 76.0606 147.127 75.7342 147.888 75.3123C147.952 75.2608 148.003 75.1964 148.04 75.1233C148.077 75.0502 148.098 74.9701 148.101 74.8884C148.105 74.8067 148.091 74.7251 148.06 74.6492C148.029 74.5733 147.983 74.5048 147.924 74.4483L147.312 74.0163L149.04 73.5843C149.173 73.5355 149.281 73.4365 149.342 73.3085C149.402 73.1806 149.41 73.034 149.364 72.9003Z" fill="#347474"/>
<path d="M49.536 68.6528C49.212 68.7248 49.14 69.0488 49.176 69.3368C49.32 70.2368 49.5 71.1728 49.644 72.0728C49.788 72.9728 50.292 72.5408 50.544 72.2888L51.228 71.6048C51.4796 72.3173 51.6605 73.0529 51.768 73.8008C51.7694 73.9088 51.8032 74.0138 51.8649 74.1024C51.9266 74.1909 52.0134 74.259 52.1141 74.2977C52.2149 74.3365 52.3249 74.3442 52.4301 74.3198C52.5352 74.2953 52.6306 74.24 52.704 74.1608L53.208 73.6928L54.252 75.4928C54.612 76.1048 55.512 75.5288 55.152 74.9168L53.82 72.5768C53.7741 72.5082 53.714 72.4502 53.6437 72.4068C53.5734 72.3635 53.4946 72.3357 53.4127 72.3255C53.3307 72.3153 53.2476 72.3228 53.1688 72.3475C53.09 72.3722 53.0174 72.4136 52.956 72.4688L52.668 72.7568C52.4847 71.9008 52.207 71.0677 51.84 70.2728C51.7941 70.2042 51.734 70.1462 51.6637 70.1028C51.5934 70.0595 51.5146 70.0317 51.4327 70.0215C51.3507 70.0113 51.2676 70.0188 51.1888 70.0435C51.11 70.0682 51.0374 70.1096 50.976 70.1648L50.508 70.7768C50.4 70.1648 50.292 69.5888 50.22 69.0128C50.1709 68.8787 50.0738 68.7676 49.9474 68.7011C49.821 68.6345 49.6744 68.6173 49.536 68.6528Z" fill="#347474"/>
<path d="M55.3319 61.7766C55.1932 61.7288 55.0415 61.7356 54.9077 61.7959C54.7739 61.8561 54.6681 61.9651 54.6119 62.1006L53.3879 64.5846C53.1719 64.9806 53.6399 65.3406 53.9999 65.3046L54.9359 65.1246C54.7231 65.8609 54.4335 66.5728 54.0719 67.2486C54.0146 67.3364 53.9841 67.4389 53.9841 67.5437C53.9841 67.6485 54.0146 67.751 54.0718 67.8388C54.129 67.9266 54.2106 67.9958 54.3065 68.038C54.4024 68.0802 54.5085 68.0937 54.6119 68.0766L55.3319 68.0046C55.2599 68.6886 55.1879 69.3726 55.0799 70.0566C54.9719 70.7406 56.0879 70.8486 56.1599 70.1286L56.4839 67.4646C56.4913 67.3807 56.479 67.2962 56.4479 67.2179C56.4167 67.1396 56.3677 67.0697 56.3048 67.0137C56.2418 66.9577 56.1666 66.9172 56.0852 66.8955C56.0038 66.8738 55.9184 66.8714 55.8359 66.8886H55.4399C55.7836 66.0913 56.0372 65.2582 56.1959 64.4046C56.21 64.3226 56.2036 64.2383 56.1772 64.1594C56.1508 64.0805 56.1052 64.0093 56.0446 63.9522C55.984 63.8952 55.9102 63.854 55.8298 63.8325C55.7494 63.8109 55.665 63.8096 55.5839 63.8286L54.8639 64.0086C55.1159 63.4686 55.3679 62.9286 55.6559 62.4246C55.6843 62.2958 55.6675 62.1612 55.6086 62.0433C55.5496 61.9254 55.4519 61.8312 55.3319 61.7766Z" fill="#347474"/>
<path d="M150.084 80.1005C150.067 79.957 150 79.824 149.895 79.7252C149.789 79.6264 149.652 79.568 149.508 79.5605L146.736 79.3445C146.304 79.3085 146.124 79.8485 146.304 80.1725C146.451 80.461 146.619 80.7378 146.808 81.0005C146.053 81.0784 145.292 81.0663 144.54 80.9645C144.434 80.9383 144.322 80.9449 144.22 80.9834C144.118 81.0219 144.03 81.0906 143.967 81.1803C143.905 81.2701 143.871 81.3766 143.87 81.4859C143.87 81.5952 143.902 81.7021 143.964 81.7925L144.288 82.4405L142.308 82.9805C141.624 83.1605 141.948 84.2045 142.632 84.0245L145.224 83.2685C145.305 83.2493 145.381 83.2101 145.443 83.1546C145.506 83.099 145.553 83.0288 145.582 82.9502C145.61 82.8717 145.619 82.7872 145.607 82.7045C145.595 82.6218 145.562 82.5435 145.512 82.4765C145.467 82.3498 145.406 82.2289 145.332 82.1165C146.202 82.1521 147.072 82.0795 147.924 81.9005C148.004 81.8786 148.077 81.8387 148.139 81.7839C148.201 81.729 148.25 81.6607 148.281 81.5842C148.312 81.5077 148.325 81.425 148.32 81.3425C148.314 81.26 148.29 81.18 148.248 81.1085C148.072 80.9203 147.916 80.7153 147.78 80.4965L149.544 80.6405C149.615 80.6405 149.685 80.6265 149.751 80.5994C149.816 80.5722 149.876 80.5325 149.926 80.4823C149.976 80.4322 150.016 80.3727 150.043 80.3071C150.07 80.2416 150.084 80.1714 150.084 80.1005Z" fill="#347474"/>
<path d="M157.068 83.0163C157.102 82.8828 157.084 82.7413 157.017 82.6208C156.95 82.5003 156.839 82.41 156.708 82.3683L154.188 81.1443C153.792 80.9643 153.432 81.4323 153.504 81.7923C153.547 82.1074 153.607 82.4199 153.684 82.7283C152.944 82.5438 152.23 82.2656 151.56 81.9003C151.47 81.8388 151.363 81.8062 151.253 81.8068C151.144 81.8073 151.038 81.8411 150.948 81.9035C150.858 81.9659 150.789 82.0541 150.751 82.1564C150.712 82.2586 150.706 82.3702 150.732 82.4763C150.774 82.7021 150.798 82.9308 150.804 83.1603L148.752 82.9803C148.609 82.9708 148.468 83.0185 148.36 83.113C148.252 83.2075 148.186 83.3411 148.176 83.4843C148.166 83.6275 148.214 83.7687 148.309 83.8767C148.403 83.9847 148.537 84.0508 148.68 84.0603L151.38 84.3123C151.464 84.3197 151.548 84.3073 151.627 84.2762C151.705 84.2451 151.775 84.1961 151.831 84.1331C151.887 84.0702 151.927 83.995 151.949 83.9136C151.971 83.8322 151.973 83.7468 151.956 83.6643V83.2323C152.747 83.5923 153.582 83.8465 154.44 83.9883C154.524 83.9957 154.608 83.9833 154.687 83.9522C154.765 83.9211 154.835 83.8721 154.891 83.8092C154.947 83.7462 154.987 83.671 155.009 83.5896C155.031 83.5082 155.033 83.4228 155.016 83.3403L154.8 82.6203L156.42 83.3763C156.636 83.5203 156.96 83.2683 157.068 83.0163Z" fill="#347474"/>
<path d="M44.4036 60.8453C45.8436 57.6561 44.4256 53.9033 41.2363 52.4633C38.0471 51.0233 34.2943 52.4414 32.8543 55.6306C31.4143 58.8199 32.8323 62.5726 36.0216 64.0126C39.2109 65.4526 42.9636 64.0346 44.4036 60.8453Z" fill="#38A98E"/>
<path d="M37.4759 58.3928C37.7999 59.1488 37.5839 59.9768 37.0439 60.1928C36.5039 60.4088 35.7839 60.0128 35.4599 59.2568C35.1359 58.5008 35.3159 57.7088 35.8919 57.4568C36.4679 57.2048 37.1519 57.6368 37.4759 58.3928Z" fill="#11493E"/>
<path d="M41.508 56.7008C41.832 57.4208 41.652 58.2488 41.076 58.4648C40.5 58.6808 39.816 58.2848 39.492 57.5288C39.168 56.7728 39.384 55.9808 39.924 55.7288C40.464 55.4768 41.184 55.9448 41.508 56.7008Z" fill="#11493E"/>
<path d="M41.832 59.9408C41.4677 59.7047 41.0524 59.5588 40.6204 59.5149C40.1885 59.4711 39.7524 59.5307 39.348 59.6888C38.942 59.8412 38.5775 60.0867 38.2836 60.4055C37.9897 60.7244 37.7748 61.1078 37.656 61.5248C37.6296 61.6065 37.6332 61.6948 37.6662 61.7741C37.6992 61.8533 37.7595 61.9181 37.836 61.9568C37.98 61.9928 38.196 61.9208 38.232 61.7768C38.3184 61.4486 38.4798 61.1448 38.7034 60.8894C38.927 60.634 39.2067 60.4339 39.5207 60.3048C39.8346 60.1758 40.1742 60.1212 40.5128 60.1455C40.8514 60.1698 41.1797 60.2722 41.472 60.4448C41.796 60.6608 42.192 60.1568 41.832 59.9408Z" fill="#11493E"/>
<path d="M40.5 54.5042C40.2057 54.5776 39.9033 54.6138 39.6 54.6122H38.772C38.6926 54.6085 38.6142 54.6313 38.5491 54.6769C38.484 54.7224 38.4358 54.7883 38.412 54.8642C38.407 54.9068 38.4105 54.9499 38.4223 54.9911C38.4341 55.0324 38.454 55.0708 38.4808 55.1043C38.5076 55.1378 38.5408 55.1657 38.5784 55.1862C38.616 55.2068 38.6573 55.2197 38.7 55.2242C39.3242 55.29 39.9547 55.2657 40.572 55.1522C40.6545 55.1353 40.7286 55.0901 40.7812 55.0243C40.8338 54.9585 40.8617 54.8764 40.86 54.7922C40.8555 54.7495 40.8426 54.7082 40.8221 54.6705C40.8015 54.6329 40.7737 54.5997 40.7402 54.573C40.7067 54.5462 40.6682 54.5263 40.627 54.5145C40.5858 54.5027 40.5426 54.4992 40.5 54.5042Z" fill="#11493E"/>
<path d="M36.3959 55.6924C36.361 55.665 36.3209 55.645 36.2779 55.6337C36.235 55.6224 36.1902 55.6201 36.1463 55.6268C36.1024 55.6336 36.0604 55.6493 36.0228 55.6729C35.9852 55.6966 35.9529 55.7278 35.9279 55.7644L35.3159 56.3764L34.5599 56.9524C34.5253 57.0104 34.5096 57.0778 34.5151 57.1451C34.5206 57.2124 34.5471 57.2764 34.5907 57.3279C34.6343 57.3795 34.693 57.4161 34.7585 57.4327C34.824 57.4493 34.893 57.445 34.9559 57.4204C35.5271 57.0879 36.0283 56.6478 36.4319 56.1244C36.4803 56.0607 36.5035 55.9813 36.4968 55.9015C36.4902 55.8218 36.4542 55.7473 36.3959 55.6924Z" fill="#11493E"/>
<path d="M168.239 71.0998C169.517 66.7297 167.011 62.1512 162.64 60.8733C158.27 59.5954 153.692 62.1021 152.414 66.4721C151.136 70.8422 153.643 75.4207 158.013 76.6986C162.383 77.9765 166.961 75.4698 168.239 71.0998Z" fill="#38A98E"/>
<path d="M162.144 72.6483C162.002 72.1007 161.742 71.5911 161.381 71.1556C161.02 70.72 160.568 70.3693 160.056 70.1283C159.536 69.9135 158.973 69.8213 158.411 69.8587C157.849 69.8962 157.303 70.0623 156.816 70.3443C156.716 70.3873 156.637 70.4683 156.596 70.5696C156.556 70.6709 156.557 70.7841 156.6 70.8843C156.643 70.9846 156.724 71.0637 156.825 71.1042C156.927 71.1447 157.04 71.1433 157.14 71.1003C157.512 70.8649 157.935 70.7216 158.374 70.6823C158.813 70.643 159.254 70.7087 159.662 70.8741C160.071 71.0395 160.434 71.2997 160.721 71.6333C161.009 71.9669 161.213 72.3642 161.316 72.7923C161.46 73.2963 162.252 73.1883 162.144 72.6483Z" fill="#11493E"/>
<path d="M164.484 69.3719L163.404 68.3999L164.88 68.3279C164.981 68.3024 165.07 68.2409 165.13 68.1548C165.19 68.0688 165.216 67.964 165.204 67.8599C165.195 67.8075 165.176 67.7574 165.148 67.7125C165.119 67.6677 165.082 67.629 165.039 67.5987C164.995 67.5685 164.946 67.5474 164.894 67.5366C164.842 67.5258 164.788 67.5256 164.736 67.5359L162.36 67.6439C162.274 67.6558 162.194 67.693 162.13 67.7507C162.066 67.8085 162.021 67.8841 162 67.9679C161.988 68.0407 161.995 68.1154 162.02 68.1847C162.046 68.254 162.088 68.3157 162.144 68.3639L163.98 70.0199C164.068 70.0816 164.175 70.1084 164.282 70.0951C164.388 70.0818 164.486 70.0293 164.556 69.9479C164.591 69.9062 164.617 69.8577 164.632 69.8054C164.648 69.7532 164.652 69.6983 164.646 69.6442C164.639 69.5902 164.621 69.5381 164.593 69.4912C164.565 69.4444 164.528 69.4038 164.484 69.3719Z" fill="#11493E"/>
<path d="M157.212 66.4924H158.652L157.644 65.4484C157.609 65.4067 157.583 65.3582 157.568 65.3059C157.552 65.2537 157.548 65.1988 157.554 65.1447C157.561 65.0907 157.579 65.0386 157.607 64.9917C157.635 64.9449 157.672 64.9043 157.716 64.8724C157.804 64.8108 157.911 64.784 158.018 64.7973C158.124 64.8106 158.222 64.863 158.292 64.9444L159.948 66.6724C159.998 66.7387 160.029 66.8181 160.035 66.9011C160.041 66.9842 160.024 67.0673 159.984 67.1404C159.952 67.2142 159.894 67.2735 159.821 67.3068C159.748 67.34 159.665 67.3449 159.588 67.3204H157.14C157.084 67.3163 157.03 67.3005 156.981 67.2741C156.932 67.2476 156.889 67.2111 156.855 67.167C156.821 67.1228 156.797 67.0719 156.784 67.0177C156.771 66.9635 156.77 66.9072 156.78 66.8524C156.797 66.7507 156.85 66.6586 156.929 66.5925C157.009 66.5265 157.109 66.491 157.212 66.4924Z" fill="#11493E"/>
</svg>
