<svg width="144" height="88" viewBox="0 0 144 88" fill="none" xmlns="http://www.w3.org/2000/svg">
<path d="M84.9514 6.15681C80.3784 8.26242 75.8984 10.6279 71.4109 12.7768C58.6919 18.8668 45.3755 21.4073 31.6075 23.8935C20.745 25.8551 8.76632 29.0164 2.7115 39.224C-3.7961 50.1948 2.40633 65.5538 10.7979 73.7034C23.9149 86.4408 43.3884 89.2019 60.814 87.5803C83.6527 85.4554 108.918 78.219 127.911 64.8618C141.602 55.2339 146.793 40.2682 141.334 24.1851C136.108 8.78978 122.127 -0.938324 106.018 0.0718079C98.5762 0.538025 91.6625 3.06781 84.9514 6.15681Z" fill="#E9F1F1"/>
<path d="M56.1268 57.7649C55.6175 57.7989 55.1065 57.7318 54.6231 57.5678C54.1397 57.4037 53.6935 57.1458 53.3101 56.8088C52.9267 56.4719 52.6136 56.0625 52.3887 55.6042C52.1639 55.1459 52.0318 54.6478 52 54.1383V32.1286C52.0325 31.1554 52.442 30.233 53.1421 29.5562C53.8422 28.8795 54.7779 28.5014 55.7517 28.502V26.8763C55.7839 26.1021 56.1144 25.3705 56.6738 24.8344C57.2332 24.2983 57.9782 23.9993 58.753 24H70.8834C71.3817 24.0036 71.8712 24.1313 72.3079 24.3714C72.7445 24.6116 73.1145 24.9567 73.3845 25.3756L75.2603 29.0022H85.2647C86.0395 29.0015 86.7845 29.3005 87.3439 29.8366C87.9033 30.3727 88.2337 31.1044 88.266 31.8785V40.2572H85.7649V31.8785C85.7366 31.7684 85.6716 31.6713 85.5807 31.6031C85.4897 31.5349 85.3783 31.4997 85.2647 31.5033H75.2603C74.7971 31.493 74.3449 31.3603 73.9495 31.1187C73.5542 30.8771 73.2298 30.5352 73.0093 30.1277L71.2585 26.6262H58.753C58.6394 26.6226 58.528 26.6578 58.437 26.7259C58.3461 26.7941 58.2811 26.8913 58.2528 27.0013V51.3871C58.2528 51.5122 58.5029 51.6372 58.753 51.6372H65.7561V54.1383H58.753C58.3752 54.1551 57.9978 54.0972 57.6424 53.968C57.287 53.8387 56.9605 53.6407 56.6818 53.3851C56.403 53.1296 56.1774 52.8216 56.0178 52.4787C55.8582 52.1359 55.7677 51.7649 55.7517 51.3871V31.0031C55.0013 31.1282 54.5011 31.5033 54.5011 32.1286V54.1383C54.5011 54.7636 55.2514 55.2638 56.1268 55.2638H67.0066V57.7649H56.1268ZM62.0044 43.3836C62.0044 43.0519 61.8727 42.7338 61.6381 42.4993C61.4036 42.2648 61.0855 42.133 60.7539 42.133C60.4222 42.133 60.1041 42.2648 59.8696 42.4993C59.6351 42.7338 59.5033 43.0519 59.5033 43.3836V49.0111C59.4832 49.1801 59.5017 49.3516 59.5575 49.5124C59.6132 49.6733 59.7047 49.8194 59.8251 49.9398C59.9455 50.0602 60.0916 50.1517 60.2525 50.2075C60.4134 50.2632 60.5848 50.2817 60.7539 50.2616H65.7561V47.7605H62.0044V43.3836ZM91.6425 61.8918C91.8717 62.1255 92 62.4398 92 62.7671C92 63.0945 91.8717 63.4088 91.6425 63.6425C91.4088 63.8717 91.0945 64 90.7671 64C90.4398 64 90.1255 63.8717 89.8918 63.6425L84.3893 58.1401C82.6442 59.5182 80.4852 60.2672 78.2616 60.266C76.2829 60.266 74.3487 59.6793 72.7034 58.58C71.0582 57.4807 69.7759 55.9182 69.0187 54.0901C68.2615 52.2621 68.0634 50.2505 68.4494 48.3098C68.8354 46.3692 69.7883 44.5866 71.1874 43.1874C72.5865 41.7883 74.3692 40.8354 76.3098 40.4494C78.2505 40.0634 80.2621 40.2615 82.0901 41.0187C83.9182 41.7759 85.4807 43.0582 86.58 44.7034C87.6793 46.3487 88.266 48.2829 88.266 50.2616C88.3087 52.492 87.5549 54.6646 86.1401 56.3893L91.6425 61.8918ZM85.7649 50.2616C85.7649 48.7776 85.3249 47.3269 84.5004 46.093C83.6759 44.8591 82.5041 43.8974 81.133 43.3295C79.7619 42.7615 78.2533 42.6129 76.7978 42.9025C75.3423 43.192 74.0053 43.9066 72.956 44.956C71.9066 46.0053 71.192 47.3423 70.9025 48.7978C70.613 50.2533 70.7615 51.7619 71.3295 53.133C71.8974 54.5041 72.8591 55.6759 74.093 56.5004C75.3269 57.3249 76.7776 57.7649 78.2616 57.7649C80.2516 57.7649 82.1601 56.9744 83.5673 55.5673C84.9744 54.1601 85.7649 52.2516 85.7649 50.2616ZM74.51 50.2616C74.51 49.2666 74.9052 48.3124 75.6088 47.6088C76.3124 46.9052 77.2666 46.51 78.2616 46.51C78.4307 46.5301 78.6021 46.5116 78.763 46.4558C78.9239 46.4001 79.07 46.3086 79.1904 46.1882C79.3108 46.0678 79.4023 45.9217 79.458 45.7608C79.5138 45.5999 79.5323 45.4285 79.5122 45.2594C79.5122 44.9277 79.3804 44.6096 79.1459 44.3751C78.9114 44.1406 78.5933 44.0088 78.2616 44.0088C76.6033 44.0088 75.0129 44.6676 73.8402 45.8402C72.6676 47.0129 72.0088 48.6033 72.0088 50.2616C72.0088 50.5933 72.1406 50.9114 72.3751 51.1459C72.6096 51.3804 72.9277 51.5122 73.2594 51.5122C73.5911 51.5122 73.9092 51.3804 74.1437 51.1459C74.3782 50.9114 74.51 50.5933 74.51 50.2616Z" fill="#3D6666"/>
</svg>
