<svg width="259" height="169" viewBox="0 0 259 169" fill="none" xmlns="http://www.w3.org/2000/svg">
<rect width="259" height="169" fill="white"/>
<path d="M234.467 151.451C234.4 158.377 229.394 163.945 225.454 167.398L39.0325 167.206C35.2395 163.256 31.0596 157.512 31.6768 151.045C32.2013 145.455 35.9431 143.177 39.3107 136.725C44.4277 126.948 43.6922 117.114 43.3724 112.808C42.0547 94.9876 29.969 92.6075 29.8891 79.4541C29.8123 66.6404 41.1848 54.6403 51.4956 49.1913C70.534 39.1293 82.7125 53.1507 99.8992 43.8223C116.024 35.0705 110.424 19.9503 127.352 8.514C133.201 4.56417 140.567 1.85085 148.328 0.816143L148.568 0.784107L149.016 0.729649C155.69 -0.118617 162.467 0.383562 168.944 2.20643L169.263 2.30254C169.455 2.3602 169.65 2.41786 169.842 2.48193C174.312 3.85339 178.51 5.99314 182.248 8.80552C195.869 19.127 201.353 37.6813 199.946 51.8053C198.708 64.257 192.549 68.87 196.048 75.0718C201.056 83.939 216.73 79.9443 225.611 93.293C226.789 94.9969 227.719 96.8596 228.374 98.8253C232.458 111.248 221.892 117.726 223.5 129.578C224.962 140.316 234.563 141.806 234.467 151.451Z" fill="#DAEAEF"/>
<path d="M143.237 149.658L143.694 150.539L141.83 159.105L137.454 159.839L136.792 158.557L137.307 149.764C137.307 149.764 139.226 148.803 139.329 148.832L143.237 149.658Z" fill="#FF8A9F"/>
<path d="M137.321 149.774C137.321 149.774 139.239 148.813 139.342 148.841L139.841 148.944C139.287 149.187 138.091 149.774 138.091 149.774L137.58 158.567L138.178 159.72L137.468 159.842L136.806 158.561L137.321 149.774Z" fill="#FF8189"/>
<path d="M136.524 158.633C136.524 158.633 135.497 164.72 135.424 164.81C135.498 165.322 135.611 165.827 135.763 166.322C135.828 166.566 135.972 166.782 136.172 166.936C136.372 167.09 136.617 167.173 136.869 167.174L153.148 167.286C153.436 167.289 153.715 167.183 153.929 166.99C154.142 166.796 154.276 166.529 154.302 166.242L154.398 165.207C154.436 164.827 154.349 164.444 154.15 164.118C153.952 163.791 153.653 163.538 153.298 163.397L142.843 159.2C142.666 159.128 142.51 159.012 142.388 158.864C142.266 158.716 142.183 158.54 142.146 158.352L136.805 158.566L136.524 158.633Z" fill="#38A98E"/>
<path d="M136.815 158.566L137.919 158.521C137.628 160.229 137.029 163.724 136.975 163.782C137.049 164.294 137.162 164.799 137.314 165.294C137.379 165.538 137.522 165.755 137.722 165.909C137.923 166.064 138.168 166.148 138.421 166.149L154.309 166.258C154.28 166.542 154.146 166.806 153.933 166.996C153.72 167.186 153.443 167.29 153.158 167.286L136.879 167.174C136.627 167.173 136.382 167.09 136.182 166.936C135.982 166.782 135.838 166.566 135.773 166.322C135.621 165.827 135.508 165.322 135.434 164.81C135.507 164.733 136.534 158.634 136.534 158.634L136.815 158.566Z" fill="#38A98E"/>
<path d="M150.66 147.387L151.52 147.88L154.555 156.103L151.274 159.076L150.033 158.362L145.738 150.673C145.738 150.673 146.857 148.831 146.937 148.796L150.66 147.387Z" fill="#FF8A9F"/>
<path d="M145.738 150.674C145.738 150.674 146.857 148.832 146.937 148.797L147.414 148.617C147.078 149.12 146.387 150.257 146.387 150.257L150.682 157.946L151.808 158.586L151.274 159.07L150.033 158.356L145.738 150.674Z" fill="#FF8189"/>
<path d="M149.828 158.567C149.828 158.567 152.243 164.263 152.227 164.365C152.562 164.758 152.929 165.124 153.324 165.458C153.51 165.628 153.747 165.732 153.999 165.754C154.25 165.776 154.502 165.715 154.715 165.579L168.476 156.898C168.721 156.746 168.9 156.506 168.977 156.228C169.053 155.949 169.022 155.652 168.889 155.396L168.416 154.473C168.242 154.129 167.96 153.851 167.613 153.682C167.267 153.514 166.874 153.464 166.497 153.541L155.431 155.642C155.245 155.674 155.054 155.659 154.875 155.599C154.695 155.538 154.534 155.434 154.405 155.296L150.02 158.362L149.828 158.567Z" fill="#38A98E"/>
<path d="M150.033 158.362L150.938 157.721C151.61 159.323 152.985 162.584 152.972 162.661C153.309 163.053 153.676 163.418 154.069 163.753C154.255 163.925 154.492 164.03 154.744 164.052C154.996 164.074 155.248 164.012 155.46 163.875L168.892 155.398C169.025 155.655 169.055 155.952 168.978 156.23C168.901 156.508 168.722 156.746 168.477 156.898L154.725 165.579C154.511 165.714 154.26 165.775 154.009 165.753C153.757 165.732 153.52 165.627 153.333 165.457C152.939 165.123 152.572 164.758 152.236 164.365C152.252 164.262 149.838 158.567 149.838 158.567L150.033 158.362Z" fill="#347474"/>
<path d="M148.552 127.932L147.369 133.833L146.876 136.306L144.35 148.995L142.93 156.122L142.479 156.094L141.897 156.058L137.739 155.799L136.972 155.748L136.437 155.716L138.068 139.907L138.251 138.148L139.444 126.58L134.896 125.504L129.712 124.274L101.738 117.656L103.711 110.65L104.351 108.382L105.013 106.03L107.143 108.253L111.108 109.605L111.799 109.839L138.068 118.777L144.551 120.984C145.945 121.46 147.12 122.426 147.856 123.705C148.592 124.983 148.839 126.485 148.552 127.932Z" fill="#11493E"/>
<path d="M147.369 133.833L142.93 156.122L141.897 156.058L142.444 152.057C142.706 150.151 142.371 148.21 141.484 146.502L138.069 139.919L139.444 126.593L129.703 124.283L129.453 123.819L107.93 113.18L108.991 109.884L138.958 120.519C140.094 120.923 141.131 121.565 142 122.401C142.87 123.238 143.551 124.251 143.998 125.372L147.369 133.833Z" fill="#347474"/>
<path d="M105.816 109.032L137.867 121.045C138.876 121.424 139.797 122.006 140.572 122.756C141.347 123.506 141.96 124.408 142.373 125.405L152.518 149.953L146.672 153.124L133.674 130.037L114.086 127.388L93.1862 124.7C93.1862 124.7 90.6277 116.409 94.4463 110.605C98.2648 104.8 105.816 109.032 105.816 109.032Z" fill="#11493E"/>
<path d="M151.082 85.8872L150.612 86.2076L150.989 87.143L153.765 86.4222L155.482 87.2615L155.62 88.088L151.207 88.4628L147.564 88.0688L139.108 92.0763L129.558 96.6027C128.537 97.087 127.401 97.2792 126.277 97.1583C125.153 97.0373 124.084 96.6078 123.188 95.9172L120.086 93.5274L119.379 92.986L118.774 92.5087L119.942 90.8461L121.656 88.4115L123.332 88.6902L124.378 88.8632L127.56 91.1793L137.65 87.7452L146.835 84.6155C146.835 84.6155 153.928 81.7964 157.283 82.3923L159.301 83.1098L158.981 84.4265L153.864 83.978L151.104 85.8776L151.082 85.8872Z" fill="#FF8A9F"/>
<path d="M155.62 88.0814L151.207 88.4626L147.564 88.0686L139.108 92.0761L129.558 96.6026C128.537 97.0868 127.401 97.2791 126.277 97.1581C125.153 97.0371 124.084 96.6077 123.188 95.917L120.086 93.5273L119.379 92.9859L118.774 92.5086L119.942 90.846L120.76 91.4867L121.464 92.0281L123.185 93.3543C124.081 94.0449 125.15 94.4744 126.274 94.5954C127.398 94.7163 128.533 94.5241 129.555 94.0398L138.414 89.8369L147.551 85.5059L151.069 85.8871L150.599 86.2074L150.976 87.1428L153.765 86.422L155.482 87.2613L155.62 88.0814Z" fill="#FF8189"/>
<path d="M124.742 88.4758L124.378 88.873L121.464 92.0284L120.083 93.5276L119.545 94.1107L110.84 88.0241L110.226 87.5949L106.83 85.2147L105.912 84.574L102.595 82.258L104.53 77.5489L104.69 77.1581L104.968 76.4822C104.974 76.4624 104.982 76.4431 104.991 76.4245L105.282 75.7197L105.426 75.3706C105.451 75.3065 105.48 75.2392 105.506 75.1719C105.71 74.6786 105.912 74.1821 106.116 73.6855L107.076 74.448L108.032 75.1784L108.265 75.3609L108.739 75.7358L109.462 76.3124L110.04 76.7737L111.201 77.6963L113.242 79.3172L115.221 80.8901L124.742 88.4758Z" fill="#39B9CE"/>
<path d="M124.742 88.4756L124.378 88.8728L121.464 92.0282L120.083 93.5274L119.545 94.1104L110.84 88.0239L110.226 87.5946L106.83 85.2145L105.912 84.5738L102.595 82.2577C102.675 82.0687 102.752 81.8765 102.832 81.6875L106.612 84.3367L107.527 84.9774L110.248 86.8835L110.888 87.3223L119.225 93.1494L119.379 92.9828L120.761 91.4836L123.319 88.6966L124.032 87.9214L124.742 88.4756Z" fill="#2CA8B5"/>
<path d="M111.965 110.605H108.767C106.583 110.605 104.955 110.624 103.724 110.647C102.074 110.679 101.137 110.724 100.526 110.778C100.186 110.804 99.8482 110.853 99.5152 110.926C97.0867 111.472 94.8222 112.587 92.9079 114.18C92.9302 114.068 92.9526 113.962 92.9782 113.86C92.9942 113.777 93.0102 113.697 93.0294 113.613C93.8709 109.65 94.2667 105.604 94.2095 101.552C94.0784 93.8417 93.3972 89.4049 93.3972 89.4049C93.2085 88.178 93.0102 87.1241 92.8631 86.179C92.7959 85.7402 92.7384 85.3269 92.6968 84.9297C92.6968 84.8656 92.6968 84.8016 92.6968 84.7375C92.5001 83.3487 92.7043 81.9326 93.2852 80.6563C93.5293 80.1568 93.8251 79.6843 94.1679 79.2468C94.4877 78.8304 94.8651 78.3691 95.332 77.8245C95.7382 77.3568 96.2051 76.825 96.7488 76.2228C97.8841 74.9414 98.6677 74.0765 99.3073 73.5927C99.5994 73.3591 99.9442 73.2007 100.312 73.1314H100.356L100.526 73.1122C101.783 73.0225 102.333 73.99 105.502 75.1624L105.736 75.2489C105.998 75.3418 106.231 75.4219 106.439 75.4892L106.852 75.6141C107.36 75.7615 107.699 75.8351 107.955 75.8992C108.28 75.9575 108.581 76.1088 108.822 76.3349C108.99 76.4844 109.14 76.6532 109.269 76.8378L109.413 77.2414C110.053 79.074 110.49 80.971 110.718 82.8987C110.753 83.2191 110.785 83.5234 110.808 83.8277C110.903 84.9859 110.926 86.1488 110.878 87.3098C110.878 87.5501 110.856 87.7872 110.84 88.0178C110.753 89.4177 110.584 90.603 110.45 91.5128C110.184 93.3227 110.085 93.1145 109.938 94.4375C109.688 96.7055 109.836 98.602 110.395 102.199C110.715 104.307 111.172 106.883 111.799 109.83C111.87 110.086 111.908 110.343 111.965 110.605Z" fill="#38A98E"/>
<path d="M111.966 110.605H111.326C111.253 110.265 111.179 109.929 111.109 109.599C110.507 106.751 110.072 104.256 109.756 102.202C109.196 98.5951 109.049 96.7051 109.311 94.4307C109.458 93.1109 109.558 93.3159 109.823 91.5059C109.97 90.5065 110.159 89.1674 110.239 87.5817C110.239 87.3479 110.261 87.1076 110.264 86.8642C110.291 85.9208 110.27 84.9767 110.2 84.0355C110.178 83.7312 110.149 83.4237 110.114 83.1065C110.114 83.036 110.114 82.9656 110.092 82.8951C109.898 81.2335 109.546 79.5944 109.039 78.0002C108.921 77.619 108.79 77.2314 108.646 76.831C108.517 76.6464 108.367 76.4776 108.198 76.328C108.026 76.1613 107.816 76.0374 107.587 75.9661C107.354 75.886 107.066 75.8347 106.602 75.713C106.443 75.6713 106.263 75.6201 106.059 75.5592C105.854 75.4984 105.669 75.4343 105.438 75.3542L105.119 75.2421C102.179 74.1882 101.383 73.2816 100.379 73.1246L100.548 73.1054C101.805 73.0157 102.355 73.9831 105.525 75.1556L105.758 75.2421C106.02 75.335 106.254 75.4151 106.462 75.4823L106.874 75.6073C107.383 75.7546 107.722 75.8283 107.978 75.8924C108.303 75.9507 108.604 76.102 108.844 76.328C109.013 76.4776 109.163 76.6464 109.292 76.831L109.436 77.2346C110.068 79.0701 110.498 80.9693 110.718 82.8983C110.754 83.2186 110.786 83.523 110.808 83.8273C110.903 84.9854 110.927 86.1484 110.878 87.3094C110.878 87.5497 110.856 87.7867 110.84 88.0174C110.754 89.4173 110.584 90.6026 110.45 91.5123C110.184 93.3223 110.085 93.1141 109.938 94.4371C109.689 96.7051 109.836 98.6015 110.395 102.199C110.715 104.307 111.173 106.882 111.799 109.83C111.87 110.086 111.908 110.342 111.966 110.605Z" fill="#2CA8B5"/>
<path d="M110.159 110.602H108.943C100.705 110.602 99.7008 110.749 98.8725 110.922C96.7572 111.392 94.765 112.305 93.0263 113.6C92.9847 113.792 92.9464 113.981 92.9048 114.177C94.8192 112.583 97.0836 111.468 99.5121 110.922C100.34 110.746 101.345 110.602 109.583 110.602H110.159Z" fill="#2CA8B5"/>
<path d="M100.101 65.5103L99.2626 74.1115C99.2403 74.3473 99.2893 74.5843 99.4034 74.7917C99.5175 74.9991 99.6913 75.1673 99.9022 75.2744L106.353 78.4362C106.579 78.5452 106.835 78.5799 107.082 78.5355L108.46 78.276C108.712 78.2322 108.942 78.1069 109.115 77.9194C109.289 77.7319 109.396 77.4925 109.42 77.2381C109.474 76.6422 109.497 75.9567 109.314 75.8926C109.132 75.8286 108.256 75.3705 107.6 75.0149C107.377 74.8941 107.199 74.7037 107.093 74.4724C106.988 74.2412 106.96 73.9818 107.015 73.7335L107.335 72.2535C107.381 72.0476 107.371 71.8328 107.306 71.6321L105.313 65.5455C105.244 65.3298 105.113 65.139 104.937 64.9968C104.761 64.8545 104.547 64.7669 104.322 64.7447L101.37 64.45C101.062 64.4224 100.755 64.5185 100.517 64.7172C100.279 64.916 100.129 65.2012 100.101 65.5103Z" fill="#FF8A9F"/>
<path d="M107.322 78.4363L100.871 75.2745C100.661 75.1675 100.487 74.9993 100.373 74.7919C100.259 74.5845 100.209 74.3474 100.232 74.1117L101.07 65.5105C101.092 65.2824 101.181 65.0659 101.324 64.8877C101.468 64.7095 101.661 64.5774 101.879 64.5078L101.39 64.4597C101.081 64.4293 100.773 64.5229 100.533 64.7199C100.293 64.917 100.141 65.2013 100.11 65.5105L99.2723 74.1117C99.25 74.3474 99.2991 74.5845 99.4132 74.7919C99.5273 74.9993 99.7011 75.1675 99.912 75.2745L106.363 78.4363C106.589 78.5454 106.844 78.5801 107.092 78.5356L107.412 78.4748L107.322 78.4363Z" fill="#FF8189"/>
<path d="M113.75 61.6307C113.504 63.5528 113.296 63.793 112.72 66.564C111.658 71.6895 111.761 73.7621 110.555 74.1594C109.986 74.3452 109.449 74.0536 108.553 73.5603C106.538 72.4615 105.716 70.9976 104.437 69.4407C102.055 66.5095 101.469 67.3008 99.9438 65.1C99.3041 64.1582 97.51 61.5763 97.833 58.1582C97.9385 57.0178 98.5206 53.1929 101.991 51.2708C105.563 49.2975 109.174 50.9953 109.519 51.1619C109.66 51.2324 112.883 52.8757 113.849 56.3707C114.249 57.7834 114.083 59.0648 113.75 61.6307Z" fill="#FF8A9F"/>
<path d="M110.875 73.5182C110.306 73.704 109.769 73.4124 108.873 72.9191C106.858 71.8203 106.036 70.3564 104.757 68.7995C102.374 65.8683 101.789 66.6596 100.264 64.4588C99.6241 63.517 97.8299 60.935 98.1529 57.517C98.2578 56.4271 98.5352 55.3609 98.9748 54.3584C98.3494 55.5377 97.9615 56.8285 97.8331 58.1577C97.5133 61.5886 99.2883 64.1577 99.9439 65.0995C101.469 67.3003 102.055 66.509 104.437 69.4402C105.716 71.0099 106.538 72.461 108.553 73.5598C109.449 74.0531 109.986 74.3446 110.555 74.1588C110.965 74.0243 111.22 73.6911 111.425 73.1145C111.289 73.3039 111.096 73.4452 110.875 73.5182Z" fill="#FF8189"/>
<path d="M117.968 47.3691L121.518 47.7952C121.689 47.8138 121.853 47.8706 121.999 47.9615C122.145 48.0523 122.269 48.1749 122.361 48.3202C122.453 48.4654 122.511 48.6295 122.532 48.8004C122.552 48.9712 122.533 49.1445 122.478 49.3072L121.582 51.9501L119.2 53.2795C119.2 53.2795 116.6 51.1108 116.641 51.0371C116.683 50.9634 117.968 47.3691 117.968 47.3691Z" fill="#FF8189"/>
<path d="M120.927 51.8248C121.14 51.6621 121.315 51.4555 121.442 51.2189C121.568 50.9824 121.642 50.7214 121.659 50.4537C121.583 50.2199 121.461 49.8579 121.298 49.4126C121.016 48.647 120.85 48.4868 120.978 48.301C121.116 48.1282 121.304 48.0018 121.515 47.939C121.306 47.8745 121.081 47.8745 120.871 47.939C120.662 48.0036 120.476 48.1297 120.338 48.301C120.198 48.4868 120.364 48.647 120.658 49.4126C120.821 49.8579 120.943 50.2199 121.02 50.4537C121.003 50.7214 120.928 50.9824 120.802 51.2189C120.676 51.4555 120.5 51.6621 120.287 51.8248C120.117 51.9487 119.925 52.0399 119.721 52.0939L119.782 52.1547C120.19 52.1781 120.594 52.0617 120.927 51.8248Z" fill="#FF8189"/>
<path d="M110.59 76.9819L111.406 75.1207L115.493 74.0604C116.945 68.0315 118.396 62.0016 119.846 55.9706L116.328 50.7522C116.532 49.663 116.648 49.0319 116.859 47.9395L120.824 45.1878C120.733 45.1228 120.624 45.0879 120.512 45.0879C120.401 45.0879 120.292 45.1228 120.201 45.1878L116.184 47.9524C115.979 49.0447 115.864 49.6758 115.653 50.765L119.171 55.9834C117.719 62.0144 116.268 68.0443 114.818 74.0732L110.731 75.1335L109.951 76.9819L113.635 81.3162L114.159 81.1784L110.59 76.9819Z" fill="#FF8189"/>
<path d="M114.038 81.7453L98.3673 87.1911C97.81 87.3843 97.2198 87.4645 96.6313 87.4271C96.0427 87.3897 95.4674 87.2354 94.9389 86.9733L94.6511 86.8292C93.9094 86.4617 93.2852 85.8937 92.8489 85.1895C92.4126 84.4853 92.1817 83.6729 92.1821 82.8441V82.0977C92.1819 81.1351 92.4936 80.1984 93.0703 79.4284C93.647 78.6584 94.4576 78.0966 95.3803 77.8275L97.4303 77.2253L111.636 74.4863L114.038 81.7453Z" fill="#38A98E"/>
<path d="M92.4956 83.4809V82.7345C92.4954 81.7719 92.807 80.8352 93.3837 80.0652C93.9604 79.2951 94.771 78.7334 95.6937 78.4643L97.7437 77.862L111.847 75.1423L111.63 74.4824L97.4239 77.2214L95.3739 77.8236C94.4512 78.0927 93.6406 78.6544 93.0639 79.4245C92.4872 80.1945 92.1756 81.1312 92.1758 82.0938V82.8402C92.1728 83.6544 92.3941 84.4536 92.8154 85.1499C92.6025 84.6194 92.4939 84.0526 92.4956 83.4809Z" fill="#38A98E"/>
<path d="M98.3607 87.1873C97.8033 87.3805 97.2132 87.4607 96.6247 87.4233C96.0361 87.3859 95.4608 87.2316 94.9323 86.9695L94.6445 86.8254C93.9188 86.4661 93.3053 85.9146 92.8706 85.2307C92.4359 84.5467 92.1966 83.7566 92.1787 82.946C92.1787 82.9812 92.1787 83.0197 92.1787 83.0549V83.8013C92.1782 84.6301 92.4092 85.4425 92.8455 86.1467C93.2818 86.851 93.906 87.4189 94.6477 87.7864L94.9355 87.9305C95.464 88.1927 96.0393 88.3469 96.6279 88.3843C97.2164 88.4217 97.8065 88.3415 98.3639 88.1484L114.035 82.7025L113.747 81.8408L98.3607 87.1873Z" fill="#38A98E"/>
<path d="M115.212 56.6298C114.223 57.7734 112.496 57.7702 111.476 57.7702C108.406 57.7702 106.251 55.9891 105.521 55.3292C105.39 56.409 105.065 57.4562 104.562 58.4205C104.207 59.0868 103.771 59.7066 103.263 60.2657C102.522 58.8337 101.664 57.9336 101.15 58.0937C100.51 58.2924 100.551 60.0158 100.555 60.1568C100.571 60.8487 100.763 62.255 101.421 62.3799C101.543 62.4024 101.84 62.412 102.288 61.9443C102.404 62.4603 102.459 62.9883 102.451 63.5172C102.398 64.9166 101.946 66.2715 101.15 67.4221C100.868 67.8668 100.547 68.285 100.19 68.6715C99.6889 68.5346 99.2127 68.3183 98.7797 68.0308C98.0537 67.5311 96.7393 66.3234 95.9654 60.3425C95.5464 57.1039 95.3257 55.4829 95.8566 53.6153C96.2148 52.334 96.9472 49.6879 99.1603 48.8967C100.057 48.6036 101.024 48.6036 101.92 48.8967C103.074 47.9238 104.451 47.2534 105.928 46.9458C106.18 46.8945 111.083 45.9847 113.996 49.3868C115.675 51.3665 116.734 54.8807 115.212 56.6298Z" fill="#004F80"/>
<path d="M207.874 134.961C207.887 134.982 207.899 135.005 207.909 135.028C208.108 135.406 208.408 135.829 208.821 135.874C209.851 135.986 210.938 133.657 211.418 132.238C212.342 129.486 211.952 127.276 211.878 125.901C211.597 120.699 215.447 119.754 218.687 111.249C219.525 109.038 220.823 105.604 220.903 102.833C220.945 101.382 220.647 100.11 219.774 99.2935C218.265 97.8808 215.479 98.2396 213.784 99.0116C211.437 100.082 210.266 102.372 209.569 104.496C209.31 105.265 209.112 106.014 208.929 106.674C208.573 108.011 208.407 109.391 208.437 110.775C208.411 111.999 208.269 113.219 208.012 114.417C207.215 118.296 206.128 119.347 205.472 121.785C204.721 124.543 204.615 128.778 207.874 134.961Z" fill="#61B932"/>
<path d="M207.874 134.96C213.253 131.238 210.157 117.418 209.575 114.824C209.121 112.796 208.821 111.457 208.43 110.774C208.405 111.999 208.262 113.219 208.005 114.417C207.209 118.296 206.121 119.347 205.466 121.785C204.721 124.543 204.615 128.781 207.874 134.96Z" fill="#4E9F36"/>
<path d="M213.5 108.238C213.525 108.181 213.535 108.118 213.529 108.055C213.521 107.983 213.491 107.914 213.442 107.86C213.424 107.837 213.4 107.819 213.373 107.809C213.346 107.799 213.316 107.796 213.288 107.801C213.259 107.807 213.232 107.82 213.211 107.839C213.189 107.858 213.173 107.883 213.164 107.911C212.761 108.757 211.376 111.912 210.235 117.608C209.988 118.841 209.768 120.116 209.576 121.423C209.525 121.788 209.473 122.154 209.425 122.522C209.163 124.518 208.965 126.587 208.837 128.717C208.437 126.84 208.164 124.937 208.021 123.022C208.02 123.015 208.02 123.009 208.021 123.003C208.023 122.943 208.003 122.885 207.965 122.839C207.928 122.792 207.875 122.761 207.817 122.749C207.705 122.749 207.618 122.871 207.625 123.025C207.81 125.462 208.188 127.881 208.757 130.258C208.518 136.115 208.707 141.981 209.323 147.81C209.323 147.961 209.438 148.076 209.55 148.063C209.659 148.063 209.732 147.922 209.72 147.772C209.157 142.437 208.947 137.071 209.093 131.709C209.109 131.235 209.125 130.748 209.147 130.297V130.217C209.285 127.26 209.55 124.412 209.94 121.712C211.616 119.178 213.068 117.586 213.807 116.926C213.837 116.892 213.86 116.851 213.874 116.808C213.888 116.764 213.892 116.718 213.887 116.673C213.884 116.632 213.873 116.593 213.855 116.557C213.794 116.423 213.666 116.378 213.573 116.461C212.265 117.715 211.101 119.112 210.103 120.626C210.253 119.669 210.42 118.732 210.605 117.816C211.597 112.896 212.873 109.529 213.5 108.238Z" fill="#004F80"/>
<path d="M209.556 104.496C210.922 103.57 213.074 99.3704 216.643 99.4216C217.638 99.4026 218.608 99.7335 219.384 100.357C220.16 100.98 220.693 101.857 220.89 102.833C220.932 101.382 220.634 100.11 219.761 99.2935C218.252 97.8808 215.466 98.2396 213.771 99.0116C211.424 100.082 210.266 102.372 209.556 104.496Z" fill="#8CD026"/>
<path d="M212.387 135.989C212.652 136.352 212.955 136.686 213.292 136.985C213.881 135.858 214.529 134.763 215.233 133.704C218.038 129.505 220.631 129.924 221.495 127.266C222.314 124.748 221.306 123.995 222.454 121.99C223.331 120.481 222.198 119.92 224.408 117.969C225.036 117.397 225.544 116.706 225.902 115.935C226.318 115.044 226.5 114.077 226.222 113.292C225.668 111.799 223.273 111.011 221.367 111.37L221.255 111.393C218.45 111.976 216.848 115.035 214.43 119.645C213.305 121.788 212.326 123.687 211.689 126.49C211.162 128.819 210.212 133.013 212.387 135.989Z" fill="#61B932"/>
<path d="M221.246 111.386C222.173 111.437 223.734 111.46 224.815 112.568C225.806 113.581 225.88 114.974 225.905 115.935C226.321 115.044 226.503 114.077 226.225 113.292C225.672 111.799 223.276 111.011 221.37 111.37L221.246 111.386Z" fill="#8CD026"/>
<path d="M222.151 114.539C222.19 114.493 222.212 114.435 222.211 114.375C222.21 114.324 222.194 114.275 222.165 114.233C222.135 114.192 222.094 114.16 222.046 114.143C221.999 114.125 221.947 114.122 221.897 114.134C221.848 114.147 221.804 114.174 221.77 114.212C221.156 114.936 219.013 117.655 216.842 122.688C216.37 123.782 215.93 124.909 215.521 126.071C215.406 126.391 215.297 126.712 215.185 127.048C214.6 128.826 214.082 130.674 213.644 132.583C213.386 130.858 213.292 129.112 213.362 127.368V127.349C213.362 127.283 213.336 127.219 213.289 127.172C213.242 127.126 213.179 127.099 213.113 127.099C213.046 127.099 212.983 127.126 212.936 127.172C212.889 127.219 212.863 127.283 212.863 127.349C212.777 129.571 212.937 131.796 213.34 133.983C212.284 139.206 211.757 144.522 211.766 149.85C211.766 149.916 211.793 149.98 211.839 150.027C211.886 150.074 211.95 150.1 212.016 150.1C212.048 150.1 212.081 150.094 212.111 150.082C212.141 150.07 212.169 150.052 212.192 150.029C212.215 150.006 212.234 149.978 212.246 149.948C212.259 149.918 212.265 149.886 212.265 149.853C212.257 144.976 212.694 140.108 213.57 135.31C213.653 134.884 213.736 134.461 213.823 134.028V133.955C214.358 131.378 215.059 128.839 215.921 126.353C217.593 124.837 219.427 123.511 221.389 122.397C221.431 122.376 221.465 122.345 221.489 122.306C221.513 122.267 221.525 122.221 221.524 122.176C221.523 122.139 221.514 122.103 221.498 122.07C221.484 122.04 221.464 122.013 221.439 121.99C221.414 121.968 221.385 121.951 221.353 121.94C221.321 121.93 221.288 121.925 221.255 121.928C221.221 121.93 221.189 121.939 221.159 121.954C219.414 122.929 217.775 124.081 216.266 125.392C216.579 124.538 216.911 123.708 217.261 122.903C219.163 118.565 221.198 115.647 222.151 114.539Z" fill="#004F80"/>
<path d="M208.133 134.416C207.821 134.784 207.47 135.118 207.087 135.412C206.542 134.164 205.931 132.946 205.255 131.763C202.584 127.067 199.783 127.317 199.063 124.411C198.382 121.666 199.514 120.939 198.424 118.709C197.602 117.031 198.855 116.521 196.645 114.269C196.02 113.61 195.531 112.834 195.206 111.985C194.832 111.002 194.711 109.957 195.082 109.137C195.785 107.59 198.398 106.933 200.41 107.452L200.525 107.484C203.473 108.324 204.951 111.707 207.18 116.813C208.219 119.187 209.118 121.298 209.582 124.328C209.972 126.862 210.666 131.408 208.133 134.416Z" fill="#61B932"/>
<path d="M200.528 107.484C199.534 107.484 197.867 107.375 196.63 108.474C195.497 109.48 195.312 110.96 195.21 111.998C194.835 111.014 194.714 109.97 195.085 109.15C195.789 107.603 198.401 106.946 200.413 107.465L200.528 107.484Z" fill="#8CD026"/>
<path d="M199.332 110.768C199.295 110.717 199.277 110.655 199.281 110.592C199.284 110.538 199.304 110.485 199.338 110.442C199.372 110.399 199.418 110.368 199.471 110.353C199.524 110.337 199.58 110.338 199.631 110.356C199.683 110.374 199.728 110.407 199.76 110.451C200.362 111.268 202.444 114.334 204.379 119.873C204.797 121.071 205.181 122.31 205.53 123.582C205.626 123.938 205.719 124.293 205.811 124.652C206.304 126.593 206.712 128.602 207.036 130.678C207.442 128.854 207.676 126.997 207.737 125.13C207.74 125.063 207.769 125.001 207.816 124.955C207.864 124.909 207.926 124.882 207.992 124.88C208.028 124.879 208.064 124.885 208.098 124.898C208.131 124.911 208.162 124.931 208.188 124.956C208.214 124.981 208.234 125.011 208.248 125.044C208.263 125.077 208.27 125.113 208.271 125.149C208.271 125.953 208.162 128.429 207.254 132.196C207.985 137.861 208.142 143.584 207.724 149.28C207.721 149.315 207.712 149.349 207.696 149.381C207.681 149.412 207.659 149.44 207.633 149.463C207.606 149.486 207.575 149.503 207.542 149.514C207.509 149.525 207.474 149.529 207.439 149.527C207.404 149.524 207.37 149.515 207.339 149.499C207.308 149.484 207.28 149.462 207.257 149.436C207.234 149.409 207.217 149.378 207.206 149.345C207.195 149.312 207.19 149.277 207.193 149.242C207.572 144.033 207.473 138.8 206.895 133.609C206.842 133.148 206.785 132.69 206.723 132.235V132.158C206.348 129.367 205.793 126.603 205.063 123.883C202.629 121.426 200.566 119.882 199.527 119.245C199.485 119.219 199.452 119.183 199.43 119.139C199.408 119.096 199.398 119.047 199.402 118.998C199.403 118.959 199.414 118.92 199.434 118.886C199.452 118.855 199.476 118.827 199.505 118.805C199.533 118.783 199.566 118.767 199.601 118.758C199.636 118.749 199.672 118.748 199.708 118.753C199.743 118.758 199.778 118.771 199.808 118.79C201.596 119.962 203.258 121.316 204.769 122.829C204.496 121.9 204.205 120.991 203.896 120.1C202.213 115.305 200.266 112.05 199.332 110.768Z" fill="#004F80"/>
<path d="M200.052 144.404V162.247C200.051 162.924 200.184 163.593 200.442 164.218C200.7 164.843 201.079 165.41 201.556 165.889C202.033 166.367 202.6 166.746 203.224 167.004C203.848 167.263 204.516 167.396 205.191 167.395H212.956C213.959 167.396 214.94 167.103 215.778 166.552C216.616 166.001 217.275 165.216 217.673 164.294C217.929 163.709 218.071 163.081 218.092 162.443C218.092 162.376 218.092 162.312 218.092 162.247V144.404H200.052Z" fill="#004F80"/>
<path d="M218.079 144.404V162.247C218.081 162.925 217.949 163.597 217.691 164.224C217.433 164.85 217.053 165.42 216.575 165.899C216.097 166.379 215.528 166.759 214.903 167.018C214.277 167.277 213.607 167.409 212.93 167.408H205.172C204.169 167.408 203.189 167.115 202.352 166.564C201.514 166.013 200.856 165.228 200.458 164.307C201.405 164.125 202.373 164.065 203.336 164.128C207.717 164.269 208.213 164.951 210.583 164.64C211.913 164.464 213.436 164.262 214.667 163.208C216.285 161.818 216.627 159.611 216.707 155.642C216.835 149.302 216.148 145.977 216.247 144.43L218.079 144.404Z" fill="#01496D"/>
<path d="M169.845 2.49214V34.943H168.943V2.20703L169.263 2.30314C169.458 2.3608 169.653 2.41846 169.845 2.49214Z" fill="#004F80"/>
<path d="M174.649 37.1659V39.1808H164.137V37.1659C164.136 35.8445 164.632 34.5713 165.525 33.5992C166.419 32.6271 167.645 32.0272 168.959 31.9186C169.104 31.9058 169.248 31.8994 169.391 31.8994C170.082 31.899 170.766 32.0349 171.404 32.2994C172.042 32.564 172.622 32.9519 173.11 33.441C173.598 33.9301 173.986 34.5108 174.25 35.15C174.514 35.7891 174.649 36.4741 174.649 37.1659Z" fill="white"/>
<path d="M169.394 53.9903C172.076 53.9903 174.249 51.8131 174.249 49.1275C174.249 46.4418 172.076 44.2646 169.394 44.2646C166.713 44.2646 164.54 46.4418 164.54 49.1275C164.54 51.8131 166.713 53.9903 169.394 53.9903Z" fill="#F9F6DE"/>
<path d="M180.764 48.6502V49.1275H158.022V48.6502C158.022 45.7991 159.089 43.0516 161.013 40.9502C162.936 38.8489 165.577 37.5466 168.413 37.3004C168.732 37.2716 169.052 37.2588 169.391 37.2588C170.885 37.2588 172.364 37.5534 173.743 38.1259C175.123 38.6984 176.377 39.5375 177.433 40.5953C178.489 41.653 179.327 42.9088 179.898 44.2909C180.47 45.673 180.764 47.1543 180.764 48.6502Z" fill="white"/>
<path d="M168.413 37.3008C167.482 37.4898 166.132 37.839 165.368 39.021C164.812 39.886 165.131 40.3216 164.437 41.8208C163.676 43.4674 163.069 43.4225 162.576 44.5726C161.729 46.5683 163.021 47.8753 162.621 49.1279H158.022V48.6506C158.022 45.7995 159.089 43.0519 161.013 40.9506C162.936 38.8493 165.577 37.5469 168.413 37.3008Z" fill="#EDF3F4"/>
<path d="M164.137 37.147V39.0274C164.769 38.7614 165.356 38.3982 165.876 37.951C165.666 37.0262 165.706 36.0619 165.992 35.1576C166.243 34.4479 166.634 33.7958 167.141 33.2396C167.648 32.6834 168.261 32.2344 168.944 31.9189C167.633 32.0267 166.412 32.6243 165.521 33.5929C164.63 34.5615 164.136 35.8302 164.137 37.147Z" fill="#EDF3F4"/>
<path d="M169.266 2.30314C169.232 12.127 169.198 21.9509 169.164 31.7748L169.09 31.8068H168.943V2.20703L169.266 2.30314Z" fill="#01496D"/>
<path d="M149.016 0.730469V24.6954H148.328V0.816963L148.568 0.784927L149.016 0.730469Z" fill="#004F80"/>
<path d="M152.678 26.3899V27.9243H144.663V26.3899C144.662 25.3841 145.038 24.4146 145.717 23.6735C146.396 22.9325 147.328 22.4739 148.328 22.3888C148.437 22.3888 148.546 22.3888 148.648 22.3888C149.175 22.3854 149.698 22.4863 150.186 22.6858C150.674 22.8852 151.118 23.1792 151.492 23.551C151.867 23.9227 152.164 24.3649 152.368 24.852C152.571 25.3392 152.676 25.8618 152.678 26.3899Z" fill="white"/>
<path d="M148.67 39.2126C150.714 39.2126 152.371 37.5532 152.371 35.5062C152.371 33.4592 150.714 31.7998 148.67 31.7998C146.627 31.7998 144.97 33.4592 144.97 35.5062C144.97 37.5532 146.627 39.2126 148.67 39.2126Z" fill="#F9F6DE"/>
<path d="M157.337 35.1413V35.5033H140.013V35.1413C140.012 32.9683 140.825 30.8741 142.292 29.2726C143.758 27.6711 145.77 26.6789 147.932 26.492C148.178 26.4696 148.427 26.46 148.68 26.46C150.977 26.4625 153.179 27.3783 154.802 29.0061C156.426 30.6338 157.337 32.8405 157.337 35.1413Z" fill="white"/>
<path d="M147.922 26.4922C147.215 26.6363 146.186 26.9022 145.604 27.8024C145.178 28.4623 145.424 28.7923 144.894 29.9359C144.311 31.1884 143.851 31.1468 143.474 32.0341C142.834 33.5558 143.816 34.5488 143.509 35.5035H140.013V35.1415C140.012 32.9685 140.825 30.8743 142.292 29.2728C143.758 27.6713 145.77 26.6791 147.932 26.4922H147.922Z" fill="#EDF3F4"/>
<path d="M144.663 26.3733V27.7989C145.146 27.5976 145.594 27.3208 145.99 26.9788C145.828 26.2747 145.858 25.5395 146.08 24.8517C146.27 24.3113 146.566 23.8144 146.95 23.3902C147.335 22.966 147.8 22.6232 148.319 22.3818C147.32 22.4663 146.39 22.9236 145.713 23.663C145.036 24.4024 144.661 25.3699 144.663 26.3733Z" fill="#EDF3F4"/>
<path d="M148.568 0.78418C148.545 7.95347 148.52 15.1217 148.494 22.2889L148.44 22.3145H148.328V0.816216L148.568 0.78418Z" fill="#01496D"/>
<path d="M182.618 110.217L192.504 167.408H189.162L176.072 110.217H182.618Z" fill="white"/>
<path d="M142.233 110.217L132.344 167.408H135.686L148.776 110.217H142.233Z" fill="white"/>
<path d="M180.975 110.217L190.86 167.408H192.507L182.618 110.217H180.975Z" fill="#EDF3F4"/>
<path d="M134.042 167.408H135.689L148.779 110.217H147.132L134.042 167.408Z" fill="#EDF3F4"/>
<path d="M139.354 111.659H185.494C187.469 111.659 189.069 110.056 189.069 108.079C189.069 106.102 187.469 104.5 185.494 104.5H139.354C137.38 104.5 135.779 106.102 135.779 108.079C135.779 110.056 137.38 111.659 139.354 111.659Z" fill="white"/>
<path d="M187.425 109.167C187.425 108.217 187.048 107.306 186.378 106.634C185.707 105.962 184.798 105.585 183.85 105.585H137.707C137.342 105.586 136.978 105.642 136.629 105.752C136.964 105.355 137.382 105.036 137.852 104.818C138.323 104.599 138.836 104.486 139.354 104.486H185.497C186.35 104.486 187.176 104.792 187.824 105.349C188.472 105.906 188.9 106.676 189.03 107.522C189.161 108.367 188.985 109.231 188.534 109.957C188.084 110.684 187.389 111.225 186.574 111.483C187.125 110.837 187.426 110.015 187.425 109.167Z" fill="#EDF3F4"/>
<path d="M175.014 93.1495C175.014 92.8291 176.901 92.5889 179.232 92.5889C181.563 92.5889 183.45 92.8419 183.45 93.1495C183.45 93.457 181.56 93.7101 179.232 93.7101C176.904 93.7101 175.014 93.4698 175.014 93.1495Z" fill="white"/>
<path d="M172.34 99.9531C172.337 101.108 172.525 102.255 172.896 103.349C173.03 103.742 173.19 104.125 173.376 104.496H185.084C185.778 103.083 186.134 101.527 186.124 99.9531C186.124 97.1821 185.075 94.7187 183.447 93.1426L182.871 93.197C181.71 93.2963 180.492 93.3476 179.232 93.3476C177.823 93.3499 176.415 93.2815 175.014 93.1426C173.386 94.7187 172.34 97.1821 172.34 99.9531Z" fill="#004F80"/>
<path d="M172.896 103.349C173.03 103.742 173.19 104.125 173.376 104.496H185.085C185.778 103.083 186.134 101.527 186.124 99.9531C186.124 97.1821 185.075 94.7187 183.447 93.1426L182.871 93.197C183.324 93.7614 183.69 94.3897 183.959 95.0614C184.202 95.6701 184.969 97.5825 184.304 99.6327C183.904 100.885 183.08 101.957 181.973 102.663C179.318 104.255 174.502 103.595 172.896 103.349Z" fill="#01496D"/>
<path d="M180.063 91.6915C180.415 92.0664 181.023 92.2137 181.746 92.1721H181.88C182.479 92.1122 183.068 91.971 183.629 91.7524L183.76 91.7012C184.343 91.4709 184.901 91.1833 185.427 90.8426L185.551 90.7593C186.075 90.4117 186.558 90.0054 186.991 89.5484C187.035 89.5036 187.08 89.4555 187.122 89.4075L187.218 89.2986C187.575 88.8838 187.885 88.4304 188.142 87.9467C188.164 87.9051 188.183 87.8634 188.206 87.825C188.407 87.4314 188.576 87.0221 188.711 86.6013C188.727 86.5564 188.74 86.5148 188.753 86.4731C188.897 86.0039 189.004 85.524 189.072 85.038C188.358 84.9013 187.631 84.8455 186.904 84.8714H186.744C186.185 84.903 185.629 84.9855 185.084 85.1181L185.017 85.1341L184.877 85.1693C184.206 85.3352 183.554 85.567 182.929 85.8613L182.811 85.9221C182.249 86.1944 181.73 86.5461 181.269 86.9665L181.183 87.0498C180.756 87.4639 180.41 87.9538 180.163 88.4945L180.131 88.5714L180.102 88.6355C180.022 88.8597 179.222 90.8042 180.063 91.6915Z" fill="#8CD026"/>
<path d="M185.107 87.2549C184.418 87.4771 183.757 87.7746 183.133 88.1422C182.821 88.3276 182.52 88.5308 182.232 88.7509C182.088 88.8662 181.944 88.9751 181.809 89.0969C181.675 89.2186 181.534 89.3371 181.41 89.4685C180.357 90.5058 179.605 91.8101 179.235 93.2421L179.593 93.3286C179.742 92.635 179.984 91.9648 180.313 91.3361C180.644 90.7049 181.057 90.12 181.541 89.5966C181.656 89.462 181.79 89.3435 181.915 89.2154C182.04 89.0872 182.184 88.9783 182.315 88.8566C183.15 88.1713 184.094 87.63 185.107 87.2549Z" fill="#004F80"/>
<path d="M169.484 82.9687C169.484 83.0232 169.5 83.0777 169.506 83.1321C169.584 83.6748 169.705 84.2104 169.868 84.7338C169.887 84.7883 169.903 84.8396 169.919 84.894C170.132 85.536 170.416 86.1526 170.763 86.7328C170.792 86.784 170.824 86.8321 170.856 86.8833C170.888 86.9346 170.939 87.0179 170.984 87.0852C171.247 87.4825 171.54 87.8594 171.86 88.2128C172.058 88.437 172.266 88.6506 172.484 88.8535C172.528 88.8951 172.573 88.94 172.618 88.9784C173.185 89.5038 173.803 89.9707 174.463 90.3719C174.511 90.4039 174.562 90.4295 174.614 90.4616C175.251 90.8438 175.936 91.139 176.651 91.3393L176.811 91.3778C177.451 91.5732 178.14 91.5357 178.755 91.2721C178.825 91.2373 178.892 91.1954 178.953 91.1471C180.159 90.2438 179.593 87.713 179.529 87.4247C179.526 87.3974 179.519 87.3705 179.51 87.3446C179.51 87.3094 179.51 87.2742 179.488 87.2421C179.3 86.5328 178.982 85.8647 178.551 85.272C178.522 85.2304 178.493 85.1919 178.461 85.1535C177.995 84.5431 177.444 84.0035 176.824 83.5518L176.689 83.4557C175.991 82.9665 175.247 82.548 174.467 82.2063L174.307 82.1358L174.227 82.1006C173.593 81.8267 172.936 81.6122 172.263 81.4599L172.068 81.4151C171.19 81.2322 170.294 81.1484 169.397 81.1652C169.38 81.7677 169.409 82.3707 169.484 82.9687Z" fill="#8CD026"/>
<path d="M171.86 88.2032C172.058 88.4274 172.266 88.641 172.484 88.8439C172.528 88.8855 172.573 88.9304 172.618 88.9688C173.185 89.4943 173.803 89.9611 174.463 90.3623C174.511 90.3943 174.562 90.42 174.613 90.452C175.25 90.8342 175.936 91.1294 176.651 91.3298L176.811 91.3682C177.451 91.5636 178.14 91.5262 178.755 91.2625C178.825 89.9811 177.796 88.4242 176.398 87.7227C175.673 87.3661 174.863 87.222 174.06 87.307C173.257 87.392 172.494 87.7027 171.86 88.2032Z" fill="#61B932"/>
<path d="M173.744 84.6953C174.534 85.1077 175.277 85.6073 175.957 86.1849C176.294 86.4758 176.615 86.786 176.916 87.1139C177.063 87.2805 177.217 87.4343 177.358 87.6201C177.498 87.8059 177.642 87.9692 177.767 88.1582C178.828 89.6379 179.47 91.3783 179.622 93.1941L179.168 93.2261C179.13 92.3552 178.976 91.4933 178.71 90.6633C178.437 89.8283 178.057 89.0325 177.578 88.296C177.466 88.107 177.329 87.934 177.201 87.7546C177.073 87.5752 176.929 87.4086 176.791 87.2356C176.502 86.8989 176.194 86.5781 175.87 86.2746C175.222 85.6706 174.509 85.1409 173.744 84.6953Z" fill="#61B932"/>
<path d="M178.883 92.2647C178.752 92.4271 178.588 92.5596 178.401 92.6535C178.215 92.7474 178.011 92.8005 177.802 92.8093H177.713C177.297 92.8473 176.879 92.829 176.469 92.7549L176.373 92.7389C175.948 92.6587 175.532 92.5364 175.132 92.3737L175.036 92.3352C174.633 92.1651 174.252 91.9502 173.897 91.6945L173.792 91.6177L173.712 91.5536C173.416 91.3192 173.147 91.0528 172.909 90.7591L172.848 90.6855C172.662 90.4524 172.494 90.205 172.346 89.9455L172.301 89.8654C172.142 89.5662 172.007 89.2545 171.898 88.9332C172.364 88.7453 172.851 88.612 173.347 88.536L173.456 88.5199C173.841 88.4681 174.229 88.4509 174.617 88.4687H174.665H174.764C175.24 88.4931 175.712 88.5639 176.174 88.6801L176.264 88.7057C176.678 88.8181 177.074 88.9908 177.438 89.2183L177.508 89.2599C177.852 89.4846 178.151 89.7727 178.387 90.1088L178.423 90.1569L178.448 90.1953C178.538 90.3331 179.35 91.5472 178.883 92.2647Z" fill="#8CD026"/>
<path d="M174.873 89.917C175.369 89.9764 175.857 90.0914 176.328 90.2598C176.564 90.3442 176.796 90.4416 177.022 90.5513C177.13 90.6121 177.246 90.6666 177.342 90.7307C177.437 90.7947 177.562 90.8588 177.661 90.9325C178.082 91.2146 178.463 91.5507 178.797 91.932C179.128 92.3211 179.408 92.7518 179.628 93.2133L179.398 93.3223C179.205 92.8714 178.953 92.4481 178.65 92.0633C178.34 91.6801 177.983 91.3378 177.588 91.0446C177.492 90.9709 177.383 90.9069 177.268 90.8364C177.153 90.7659 177.057 90.7082 176.948 90.6474C176.73 90.529 176.506 90.4221 176.277 90.327C175.825 90.1391 175.354 90.0016 174.873 89.917Z" fill="#004F80"/>
<path d="M158.364 104.496H163.679C164.608 104.496 165.52 104.251 166.324 103.784C167.127 103.317 167.792 102.646 168.253 101.838C168.713 101.03 168.952 100.115 168.946 99.1848C168.939 98.2546 168.687 97.3428 168.214 96.5419L162.176 86.2909C162.026 86.0464 161.785 85.8708 161.507 85.8017C161.228 85.7327 160.934 85.7757 160.686 85.9215C160.439 86.0673 160.259 86.3043 160.184 86.5818C160.109 86.8592 160.146 87.155 160.286 87.4057L166.328 97.6567C166.602 98.1245 166.749 98.6568 166.753 99.1996C166.756 99.7425 166.617 100.277 166.348 100.748C166.079 101.22 165.691 101.611 165.222 101.884C164.754 102.157 164.221 102.301 163.679 102.302H158.364C158.215 102.294 158.066 102.316 157.927 102.367C157.787 102.419 157.659 102.499 157.551 102.601C157.442 102.704 157.356 102.828 157.297 102.965C157.238 103.102 157.208 103.25 157.208 103.399C157.208 103.548 157.238 103.696 157.297 103.833C157.356 103.97 157.442 104.094 157.551 104.196C157.659 104.299 157.787 104.379 157.927 104.43C158.066 104.482 158.215 104.504 158.364 104.496Z" fill="#004F80"/>
<path d="M155.23 100.518C155.452 100.517 155.669 100.449 155.852 100.322C156.035 100.195 156.175 100.015 156.253 99.8065L170.645 61.881C170.735 61.6116 170.718 61.3175 170.597 61.0606C170.476 60.8036 170.259 60.6038 169.994 60.503C169.729 60.4022 169.435 60.4084 169.174 60.5202C168.913 60.632 168.705 60.8407 168.595 61.1025L154.203 99.028C154.153 99.1631 154.129 99.3068 154.133 99.4511C154.138 99.5953 154.171 99.7372 154.23 99.8687C154.29 100 154.374 100.119 154.48 100.217C154.585 100.316 154.708 100.393 154.843 100.444C154.967 100.491 155.098 100.516 155.23 100.518Z" fill="#004F80"/>
<path d="M141.097 104.496H150.791C151.165 104.496 151.469 104.192 151.469 103.817C151.469 103.442 151.165 103.138 150.791 103.138H141.097C140.723 103.138 140.419 103.442 140.419 103.817C140.419 104.192 140.723 104.496 141.097 104.496Z" fill="#004F80"/>
<path d="M105.013 107.359H103.439V123.892H105.013V107.359Z" fill="white"/>
<path d="M105.013 107.359V123.892H104.517V109.855H103.439V107.359H105.013Z" fill="#EDF3F4"/>
<path d="M112.66 107.437C112.66 107.63 112.623 107.822 112.549 108C112.476 108.179 112.367 108.341 112.231 108.478C112.095 108.617 111.932 108.726 111.751 108.798C111.574 108.873 111.384 108.911 111.192 108.91H100.44C100.05 108.91 99.6769 108.756 99.4016 108.48C99.1263 108.204 98.9717 107.83 98.9717 107.44C98.9734 107.051 99.1286 106.678 99.4035 106.402C99.6784 106.127 100.051 105.971 100.44 105.97H111.192C111.58 105.97 111.953 106.124 112.229 106.399C112.504 106.674 112.659 107.047 112.66 107.437Z" fill="#D82751"/>
<path d="M113.83 167.283C115.611 167.283 117.054 165.838 117.054 164.054C117.054 162.271 115.611 160.825 113.83 160.825C112.05 160.825 110.606 162.271 110.606 164.054C110.606 165.838 112.05 167.283 113.83 167.283Z" fill="#38A98E"/>
<path d="M95.3575 167.283C97.1379 167.283 98.5812 165.838 98.5812 164.054C98.5812 162.271 97.1379 160.825 95.3575 160.825C93.5771 160.825 92.1338 162.271 92.1338 164.054C92.1338 165.838 93.5771 167.283 95.3575 167.283Z" fill="#38A98E"/>
<path d="M113.575 160.137L114.393 163.661C114.411 163.737 114.411 163.817 114.394 163.894C114.377 163.971 114.343 164.042 114.294 164.104C114.245 164.166 114.183 164.215 114.112 164.25C114.041 164.284 113.963 164.301 113.885 164.301C113.796 164.302 113.709 164.279 113.632 164.236C113.554 164.193 113.49 164.13 113.443 164.055L111.345 160.665C111.298 160.591 111.271 160.505 111.266 160.417C111.26 160.329 111.278 160.241 111.316 160.161C111.355 160.082 111.413 160.013 111.485 159.962C111.557 159.912 111.641 159.88 111.729 159.871L113.008 159.73C113.136 159.715 113.265 159.749 113.37 159.824C113.475 159.899 113.548 160.011 113.575 160.137Z" fill="#01496D"/>
<path d="M95.6646 160.136L94.8427 163.66C94.8249 163.737 94.8246 163.817 94.8418 163.893C94.8591 163.97 94.8934 164.042 94.9423 164.104C94.9912 164.165 95.0534 164.215 95.1242 164.249C95.195 164.283 95.2726 164.301 95.3512 164.301C95.4402 164.301 95.5277 164.279 95.6055 164.236C95.6833 164.192 95.7488 164.13 95.7957 164.054L97.8937 160.665C97.9402 160.59 97.9669 160.504 97.9714 160.416C97.9759 160.328 97.9579 160.24 97.9193 160.161C97.8806 160.081 97.8225 160.013 97.7503 159.962C97.6782 159.912 97.5944 159.88 97.5067 159.871L96.2275 159.73C96.1 159.716 95.972 159.75 95.868 159.825C95.764 159.9 95.6916 160.011 95.6646 160.136Z" fill="#01496D"/>
<path d="M106.03 129.531H102.611V158.164H106.03V129.531Z" fill="white"/>
<path d="M106.03 129.531V158.164H105.032V131.527H102.611V129.531H106.03Z" fill="#EDF3F4"/>
<path d="M94.4142 160.29H114.22C114.914 160.29 115.477 159.727 115.477 159.033C115.477 158.338 114.914 157.775 114.22 157.775H94.4142C93.7201 157.775 93.1573 158.338 93.1573 159.033C93.1573 159.727 93.7201 160.29 94.4142 160.29Z" fill="white"/>
<path d="M113.983 160.028C113.983 159.863 113.951 159.699 113.888 159.546C113.825 159.394 113.732 159.255 113.615 159.139C113.498 159.022 113.36 158.93 113.207 158.867C113.055 158.804 112.891 158.772 112.727 158.772H93.186C93.2454 158.49 93.3998 158.236 93.6233 158.054C93.8469 157.872 94.1261 157.773 94.4141 157.772H114.223C114.545 157.789 114.849 157.928 115.071 158.162C115.293 158.396 115.417 158.707 115.417 159.03C115.417 159.353 115.293 159.663 115.071 159.897C114.849 160.131 114.545 160.271 114.223 160.287H113.955C113.974 160.202 113.984 160.115 113.983 160.028Z" fill="#EDF3F4"/>
<path d="M90.3048 123.012H89.3454C89.1113 123.012 88.8868 122.919 88.7212 122.753C88.5557 122.587 88.4627 122.362 88.4627 122.128V97.8647C88.4627 97.5028 88.6062 97.1557 88.8617 96.8998C89.1172 96.6438 89.4638 96.5001 89.8251 96.5001C90.1864 96.5001 90.533 96.6438 90.7885 96.8998C91.044 97.1557 91.1875 97.5028 91.1875 97.8647V122.128C91.1875 122.362 91.0945 122.587 90.929 122.753C90.7634 122.919 90.5389 123.012 90.3048 123.012Z" fill="#FF3D59"/>
<path d="M90.1929 122.128V97.8777C90.1954 97.6012 90.1138 97.3306 89.959 97.1017C89.8042 96.8728 89.5834 96.6965 89.3262 96.5963C89.5336 96.5137 89.7582 96.4835 89.9801 96.5085C90.2019 96.5335 90.4142 96.6128 90.5982 96.7394C90.7822 96.8661 90.9322 97.0362 91.035 97.2348C91.1378 97.4333 91.1901 97.6541 91.1875 97.8777V122.128C91.1875 122.363 91.0946 122.588 90.9291 122.754C90.7637 122.92 90.5392 123.014 90.3048 123.015H89.3262C89.558 123.011 89.779 122.915 89.9411 122.749C90.1033 122.583 90.1937 122.36 90.1929 122.128Z" fill="#D82751"/>
<path d="M90.8641 99.3418H88.7821C88.2732 99.3418 87.7851 99.1393 87.4253 98.7788C87.0654 98.4184 86.8633 97.9295 86.8633 97.4197V81.1463C86.8633 80.3604 87.1749 79.6067 87.7297 79.051C88.2845 78.4953 89.0369 78.1831 89.8215 78.1831C90.6061 78.1831 91.3585 78.4953 91.9133 79.051C92.4681 79.6067 92.7798 80.3604 92.7798 81.1463V97.4197C92.7798 97.9295 92.5776 98.4184 92.2178 98.7788C91.8579 99.1393 91.3698 99.3418 90.8609 99.3418H90.8641Z" fill="#D82751"/>
<path d="M91.2899 98.4188V82.1453C91.2898 81.6865 91.1834 81.2339 90.9789 80.8233C90.7745 80.4127 90.4776 80.0553 90.1117 79.7792C89.7458 79.5031 89.321 79.3158 88.8705 79.2323C88.4201 79.1487 87.9565 79.171 87.5161 79.2975C87.8981 78.8167 88.42 78.4669 89.0094 78.2966C89.5988 78.1263 90.2265 78.144 90.8054 78.3471C91.3843 78.5503 91.8858 78.9289 92.2402 79.4304C92.5947 79.9319 92.7845 80.5314 92.7834 81.1459V97.4193C92.781 97.8947 92.6028 98.3522 92.2832 98.7037C91.9637 99.0551 91.5255 99.2755 91.0532 99.3222C91.2063 99.0456 91.2877 98.735 91.2899 98.4188Z" fill="#C92454"/>
<path d="M122.702 126.785C122.686 127.422 122.507 128.044 122.182 128.591C121.857 129.139 121.397 129.594 120.847 129.912C120.795 129.937 120.747 129.963 120.699 129.982L120.572 130.04L120.434 130.091L120.297 130.136C119.766 130.3 119.204 130.339 118.656 130.251H92.1786C91.5519 130.002 91.0209 129.558 90.6627 128.986C90.2278 128.249 90.2374 127.455 90.4133 126.497C90.4772 126.141 90.5668 125.763 90.6627 125.353C90.6979 125.193 90.7427 125.033 90.797 124.838C90.9949 124.113 91.2571 123.407 91.5806 122.73L91.6797 122.525C91.7821 122.316 91.8876 122.105 91.9995 121.884L92.5848 121.791C93.1349 121.711 93.7553 121.634 94.4397 121.573C95.5602 121.469 96.6853 121.423 97.8105 121.435C98.1303 121.435 98.4821 121.435 98.8307 121.461C100.381 121.518 101.922 121.733 103.43 122.102C103.749 122.172 104.114 122.24 104.507 122.304C104.664 122.329 104.827 122.355 105.003 122.377C105.233 122.409 105.48 122.438 105.745 122.467C113.069 123.233 115.339 120.225 119.235 122.297C119.577 122.486 122.762 124.238 122.702 126.785Z" fill="#D82751"/>
<path d="M122.702 126.785C122.686 127.422 122.507 128.044 122.182 128.592C121.857 129.139 121.398 129.594 120.847 129.912C120.796 129.938 120.748 129.963 120.7 129.983L120.572 130.04L120.434 130.091L120.297 130.136C120.852 129.475 121.172 128.648 121.208 127.785C121.269 125.222 118.08 123.483 117.751 123.3C113.98 121.292 111.745 124.034 105.013 123.537L104.517 123.496L104.261 123.47C103.964 123.438 103.692 123.406 103.439 123.371C101.226 123.05 100.417 122.586 97.347 122.458C96.4131 122.419 95.5305 122.422 94.7118 122.458C94.1041 122.483 93.5316 122.522 92.9976 122.57C92.4635 122.618 92.0189 122.669 91.584 122.727L91.6831 122.522C91.7855 122.313 91.891 122.102 92.0029 121.881L92.5882 121.788C93.1383 121.708 93.7587 121.631 94.4431 121.57C95.5636 121.466 96.6887 121.421 97.8139 121.433C98.1337 121.433 98.4855 121.433 98.8341 121.458C100.385 121.515 101.926 121.73 103.433 122.099C103.753 122.169 104.117 122.237 104.511 122.301C104.668 122.326 104.831 122.352 105.007 122.374C105.237 122.406 105.483 122.435 105.748 122.464C113.072 123.23 115.343 120.222 119.238 122.294C119.577 122.486 122.763 124.239 122.702 126.785Z" fill="#C92454"/>
<path d="M91.1872 126.584C93.1549 126.584 94.7499 124.986 94.7499 123.015C94.7499 121.044 93.1549 119.446 91.1872 119.446C89.2196 119.446 87.6245 121.044 87.6245 123.015C87.6245 124.986 89.2196 126.584 91.1872 126.584Z" fill="white"/>
<path d="M91.1875 124.879C92.2155 124.879 93.0488 124.044 93.0488 123.015C93.0488 121.985 92.2155 121.15 91.1875 121.15C90.1595 121.15 89.3262 121.985 89.3262 123.015C89.3262 124.044 90.1595 124.879 91.1875 124.879Z" fill="#EDF3F4"/>
<path d="M77.5088 95.5299C77.3037 96.2411 76.9432 96.8977 76.4534 97.452C74.8703 99.1979 72.3278 99.0537 70.8375 98.5636C68.5988 97.814 67.6585 95.8791 66.8206 94.1813C66.5552 93.6303 65.9539 92.4194 65.842 91.4103C65.795 91.1944 65.7962 90.9708 65.8454 90.7554C65.8946 90.54 65.9906 90.3381 66.1266 90.1642C66.2506 90.0512 66.3961 89.9646 66.5544 89.9096C66.7127 89.8545 66.8805 89.8322 67.0477 89.8438C67.5499 89.8596 68.0502 89.9131 68.5444 90.004C70.4057 90.2955 71.0262 90.8177 72.5836 91.2854L72.8715 91.3719C75.462 92.0766 76.2999 91.3142 77.093 92.1695C77.7806 92.8999 77.8957 94.2486 77.5088 95.5299Z" fill="#FF8A9F"/>
<path d="M77.509 95.5296C77.304 96.2408 76.9435 96.8973 76.4537 97.4516C74.8706 99.1975 72.3281 99.0533 70.8378 98.5632C68.5991 97.8136 67.6588 95.8787 66.8209 94.1809C66.5555 93.6299 65.9542 92.419 65.8423 91.41C66.1585 90.8279 66.5656 90.3002 67.048 89.8467C67.5502 89.8624 68.0505 89.916 68.5447 90.0069C70.406 90.2984 71.0264 90.8205 72.5839 91.2882L72.8718 91.3747C72.9933 91.5861 73.0956 91.788 73.1916 91.9898C74.231 94.104 73.7065 94.7832 74.4324 95.3149C75.1584 95.8467 75.798 95.3598 77.509 95.5296Z" fill="#FF8189"/>
<path d="M63.127 132.305L65.6375 146.605L71.5348 156.936L72.5422 159.287L77.6496 157.951C77.6496 157.951 77.0676 155.389 75.6252 155.437C74.1829 155.485 73.6008 155.757 73.6008 155.757L69.4113 146.486L70.2268 137.837L67.3965 130.501L63.127 132.305Z" fill="#FF8189"/>
<path d="M46.3082 135.214L50.146 141.864L44.7283 154.899L48.3326 162.081C48.3326 162.081 52.535 161.191 53.4176 165.39L47.6962 166.604L41.2584 155.261L43.8552 146.561L35.7544 131.876L47.3732 132.196L46.3082 135.214Z" fill="#FF8189"/>
<path d="M62.2988 91.618C63.0455 90.8003 63.9892 90.1882 65.0396 89.8401C67.6365 89.004 70.7482 89.9651 72.261 91.9C73.5242 93.5017 72.8686 94.783 74.2022 95.632C75.6286 96.5385 77.2181 95.632 78.0783 96.593C78.622 97.2177 78.5229 98.1947 78.3566 98.9283C78.604 99.578 78.6354 100.29 78.4461 100.959C78.202 101.766 77.6583 102.448 76.927 102.865L73.6969 103.122L76.7639 103.496C77.0518 103.961 77.1652 104.513 77.0837 105.053C76.8759 106.274 75.6126 106.78 75.4175 106.86C74.295 107.308 72.9358 106.985 71.8772 106.069C72.0371 106.918 72.2706 108.225 72.5168 109.826C72.7215 111.236 73.3451 115.772 73.5402 124.956C73.5882 127.163 73.6202 130.165 73.5658 133.756C75.3823 132.51 76.8183 131.466 77.7553 130.774C81.4364 128.057 81.8809 127.465 83.4544 127.042C84.9607 126.638 85.6675 126.878 86.7101 126.081C87.9286 125.168 87.9893 124.075 89.0511 123.838C89.8347 123.662 90.97 123.982 91.2162 124.799C91.3762 125.373 91.0467 126.081 90.3911 126.558C90.8399 126.598 91.2653 126.776 91.6096 127.067C91.9741 127.395 92.2221 127.833 92.3161 128.314C92.4102 128.796 92.3451 129.295 92.1309 129.736C91.552 130.732 90.0042 130.697 88.7857 130.658C88.0322 130.639 87.2856 130.509 86.5694 130.274C84.3863 131.368 82.3193 132.681 80.4002 134.192C76.4665 137.293 74.2982 140.368 71.4454 139.852C70.99 139.755 70.5521 139.589 70.147 139.359C66.9169 137.757 65.3146 134.554 64.5599 132.507C62.9812 133.528 61.3032 134.387 59.5516 135.069C51.7322 138.103 44.4245 136.803 40.7243 135.829L44.1399 143.197C44.343 143.642 44.4482 144.126 44.4482 144.616C44.4482 145.105 44.343 145.589 44.1399 146.035C42.5067 149.665 40.8735 153.287 39.2403 156.901L44.0087 164.781C44.6363 164.379 45.368 164.169 46.1133 164.179C46.8585 164.188 47.5846 164.417 48.2015 164.836C48.9472 165.414 49.441 166.259 49.5799 167.194L42.5952 167.296C41.5235 165.443 40.3334 163.662 39.0324 161.962C37.7651 160.307 36.3958 158.732 34.9324 157.247C36.0561 154.387 37.1775 151.528 38.2969 148.668C35.4644 143.688 33.6713 138.183 33.0264 132.488C31.9486 132.6 30.5254 132.555 29.5084 131.671C28.6257 130.908 28.792 130.181 27.9094 129.697C26.6749 129.009 25.6995 130.123 24.1356 129.473C23.3265 129.134 22.4438 128.361 22.5365 127.73C22.674 126.83 24.7752 126.375 26.2431 126.43C27.2026 126.465 27.4712 126.827 29.3421 127.368C30.3399 127.657 31.1778 127.836 31.7407 127.942L35.7736 126.289C39.8378 122.696 44.2919 119.571 49.0522 116.973C50.082 116.413 53.2833 115.509 57.0763 113.219C60.1816 111.345 60.7957 110.948 61.1507 110.419C62.4843 108.436 62.1997 106.082 61.7679 102.507C61.3106 98.7297 60.4663 97.381 61.0579 94.7094C61.3058 93.6197 61.7246 92.5763 62.2988 91.618Z" fill="#FF8A9F"/>
<path d="M83.4381 127.054C81.8646 127.477 81.4201 128.07 77.739 130.786C77.2145 131.174 76.5237 131.677 75.705 132.26C75.705 132.926 75.705 133.612 75.6826 134.326C77.4992 133.08 78.9351 132.036 79.8754 131.344C83.5532 128.627 84.0009 128.035 85.5712 127.612C87.0807 127.205 87.7843 127.448 88.8301 126.651C89.9846 125.783 90.1094 124.751 91.0208 124.447C90.6083 123.899 89.6936 123.697 89.0348 123.845C87.9666 124.088 87.9122 125.18 86.6938 126.087C85.6448 126.891 84.9444 126.651 83.4381 127.054Z" fill="#FF8189"/>
<path d="M76.3258 96.1894C76.8607 96.502 77.4721 96.6584 78.0911 96.6411C78.0844 96.6289 78.0769 96.6172 78.0687 96.6059C77.605 96.0773 76.9302 96.0965 76.1851 96.0869C76.2301 96.1236 76.277 96.1578 76.3258 96.1894Z" fill="#FF8189"/>
<path d="M31.4848 127.916C32.4794 128.205 33.3173 128.381 33.8802 128.49L37.913 126.837C41.9772 123.244 46.4313 120.119 51.1917 117.521C52.2214 116.961 55.426 116.057 59.2189 113.767C62.3243 111.893 62.9352 111.492 63.2902 110.967C64.6238 108.984 64.3391 106.626 63.9074 103.055C63.4533 99.2777 62.609 97.929 63.1974 95.2574C63.4423 94.1718 63.8567 93.1317 64.4255 92.1757C65.1709 91.358 66.1136 90.7458 67.1631 90.3978C68.0436 90.1232 68.9715 90.0348 69.8879 90.1383C68.3555 89.4633 66.6331 89.3576 65.0299 89.8404C63.9795 90.1884 63.0359 90.8005 62.2891 91.6183C61.7215 92.5745 61.3081 93.6146 61.0643 94.7C60.4726 97.3684 61.3169 98.7203 61.7742 102.497C62.206 106.072 62.4906 108.427 61.157 110.41C60.802 110.938 60.1976 111.335 57.0826 113.213C53.2896 115.5 50.0883 116.416 49.0585 116.964C44.2982 119.562 39.8441 122.686 35.7799 126.279L31.747 127.932L31.1074 127.801L31.4848 127.916Z" fill="#FF8189"/>
<path d="M74.5893 107.062C74.3858 106.937 74.1933 106.796 74.0137 106.639C74.035 106.769 74.0606 106.91 74.0904 107.062C74.2565 107.074 74.4233 107.074 74.5893 107.062Z" fill="#FF8189"/>
<path d="M76.9173 103.826C76.8821 103.743 76.8437 103.669 76.8149 103.611L75.8203 103.691L76.9173 103.826Z" fill="#FF8189"/>
<path d="M66.6706 133.074C66.1973 133.395 65.692 133.686 65.1611 133.984C66.0694 135.874 67.5981 138.116 70.1246 139.369C70.5297 139.599 70.9676 139.765 71.4231 139.862C71.6909 139.911 71.9635 139.928 72.2354 139.914C69.0149 138.318 67.4158 135.115 66.6706 133.074Z" fill="#FF8189"/>
<path d="M41.1593 162.51C40.1135 161.116 39.3172 160.203 39.0677 159.915C38.3769 159.13 37.7021 158.426 37.0625 157.794C38.1818 154.935 39.3023 152.075 40.4237 149.216C38.6265 146.049 37.2421 142.664 36.3045 139.144C35.7719 137.139 35.3881 135.097 35.1564 133.035C34.4628 133.121 33.7595 133.086 33.0776 132.933C33.3117 134.841 33.6772 136.732 34.1714 138.59C35.108 142.109 36.4924 145.493 38.2906 148.658C37.167 151.516 36.0455 154.375 34.9262 157.237C36.3822 158.729 37.7511 160.303 39.0262 161.953C40.3453 163.657 41.5627 165.438 42.672 167.286L44.2711 167.145C43.3134 165.548 42.2748 164.001 41.1593 162.51Z" fill="#FF8189"/>
<path d="M32.0415 132.516C31.8941 132.429 31.755 132.328 31.6257 132.215C30.743 131.456 30.9093 130.729 30.0266 130.245C29.5171 129.989 28.9302 129.936 28.3828 130.094C28.741 130.54 28.8146 131.091 29.4766 131.661C30.2051 132.238 31.1129 132.541 32.0415 132.516Z" fill="#FF8189"/>
<path d="M24.6762 128.275C24.8105 127.42 26.7166 126.968 28.1749 126.975C27.2922 126.654 26.9596 126.446 26.2561 126.42C24.7817 126.366 22.6869 126.821 22.5462 127.721C22.4471 128.362 23.3298 129.124 24.1453 129.464C24.6082 129.655 25.114 129.72 25.61 129.649C25.044 129.262 24.6026 128.733 24.6762 128.275Z" fill="#FF8189"/>
<path d="M63.8049 90.9068C62.9734 90.6986 62.1387 91.397 60.8914 92.4669C58.9374 94.1423 58.5984 95.193 57.1272 96.8556C54.4632 99.8637 52.8481 99.5049 52.5219 101.123C52.1062 103.202 54.3289 106.008 57.0505 106.789C60.1399 107.677 62.9926 105.697 64.3614 104.041C66.4082 101.568 66.1267 98.6367 65.8773 96.0676C65.759 94.8278 65.4168 91.3169 63.8049 90.9068Z" fill="#FF8A9F"/>
<path d="M63.8052 90.9066C63.4802 90.8374 63.1413 90.8826 62.8457 91.0348C64.125 91.8548 64.4256 94.8789 64.5375 96.0193C64.7838 98.5821 65.0684 101.516 63.0216 103.993C61.9567 105.274 59.9994 106.751 57.7319 106.933C60.5591 107.385 63.1048 105.578 64.3744 104.05C66.4212 101.577 66.1398 98.6461 65.8903 96.077C65.7592 94.8276 65.417 91.3167 63.8052 90.9066Z" fill="#FF8189"/>
<path d="M70.1725 113.926C64.7005 115.089 60.6197 111.043 60.5781 110.986C60.425 110.83 60.3398 110.62 60.3413 110.402C60.3428 110.183 60.4309 109.975 60.5861 109.821C60.7413 109.668 60.951 109.583 61.169 109.584C61.387 109.586 61.5955 109.674 61.7486 109.829C61.9437 110.028 66.5778 114.583 72.3888 111.338C72.4832 111.283 72.5876 111.247 72.696 111.233C72.8043 111.219 72.9144 111.227 73.0197 111.256C73.1251 111.285 73.2236 111.334 73.3095 111.402C73.3955 111.469 73.4671 111.553 73.5203 111.649C73.5734 111.745 73.607 111.85 73.6191 111.959C73.6311 112.067 73.6214 112.178 73.5905 112.283C73.5596 112.387 73.5081 112.485 73.439 112.57C73.37 112.655 73.2847 112.725 73.1883 112.776C72.2469 113.31 71.23 113.698 70.1725 113.926Z" fill="#347474"/>
<path opacity="0.2" d="M139.108 91.2558L129.559 95.7822C128.537 96.2665 127.401 96.4587 126.277 96.3378C125.153 96.2168 124.084 95.7873 123.188 95.0967L120.086 92.7069L119.545 93.2932L110.84 87.2066C110.754 88.6065 110.584 89.7918 110.45 90.7016C110.184 92.5115 110.085 92.3033 109.938 93.6263C109.689 95.8944 109.836 97.7908 110.396 101.388C110.603 102.73 110.862 104.271 111.185 105.963C111.355 106.86 111.544 107.805 111.752 108.791C111.574 108.866 111.384 108.904 111.192 108.904H105.013V122.387C105.243 122.419 105.49 122.448 105.755 122.476C113.079 123.242 115.349 120.234 119.245 122.307C119.565 122.483 122.763 124.229 122.702 126.792C122.686 127.428 122.507 128.05 122.182 128.598C121.858 129.145 121.398 129.6 120.847 129.918C120.796 129.944 120.748 129.969 120.7 129.989L120.572 130.046L120.434 130.097L120.297 130.142C119.766 130.306 119.205 130.346 118.656 130.258H106.03V140.691C105.693 140.589 105.361 140.477 105.032 140.355C104.205 140.062 103.397 139.719 102.611 139.327V130.235H94.6799C94.3601 128.034 95.2332 126.49 96.4005 124.293C96.7012 123.729 97.021 123.124 97.344 122.451C97.5007 122.13 97.6638 121.785 97.8173 121.426C98.9191 118.903 99.6878 116.248 100.104 113.526C100.328 112.165 100.449 110.995 100.52 109.961C100.521 109.945 100.521 109.929 100.52 109.913C100.545 109.557 100.561 109.221 100.577 108.894C100.612 108.112 100.625 107.401 100.644 106.735C100.644 106.469 100.66 106.209 100.67 105.953C100.704 103.87 101.213 101.822 102.157 99.9659C104.156 95.8783 107.392 92.7998 106.491 91.6146C105.979 90.9451 104.76 91.6947 103.133 91.2942C101.313 90.8425 99.717 89.1351 98.7224 87.2034C98.5848 86.9311 98.4569 86.6524 98.3418 86.3738C97.7981 85.0539 97.5519 83.6957 97.7022 82.6161C98.0444 80.3993 100.318 78.1025 103.619 76.2829L104.076 76.0363C104.306 75.9177 104.54 75.7992 104.78 75.6839L104.965 75.5974C105.481 75.3518 106.014 75.119 106.564 74.899L106.83 74.7933C107.188 74.6556 107.556 74.521 107.927 74.3929L107.994 74.3705L108.032 74.3545C110.258 73.601 112.563 73.1034 114.902 72.8713C115.119 72.8408 115.338 72.8215 115.557 72.8136C116.232 72.788 118.02 72.7271 118.458 73.6017C118.839 74.3545 118.045 75.4436 117.93 75.5942C118.666 76.4015 118.669 77.087 118.656 77.2984C118.564 78.961 116.098 79.8323 115.858 79.9092C115.637 79.9833 115.412 80.0422 115.183 80.0854L124.714 87.6615L124.349 88.0588L127.352 91.0924C131.474 91.1307 135.555 90.2762 139.316 88.5873C139.265 89.4715 139.188 90.362 139.108 91.2558Z" fill="black"/>
<path d="M98.5207 134.208V138.927L83.6559 152.756C82.9065 153.317 81.9946 153.617 81.059 153.611C79.6358 153.528 78.0527 153.653 78.0527 155.533C78.0527 157.414 78.8651 159.438 78.4589 161.796C78.0527 164.154 78.1391 166.841 79.0665 167.043C79.994 167.245 81.382 165.621 81.382 164.279C81.382 162.936 81.4619 158.762 84.8743 156.741C87.7239 155.053 99.752 147.791 103.638 145.446C104.423 144.973 105.013 144.233 105.298 143.36L107.981 135.195L98.5207 134.208Z" fill="#FF8A9F"/>
<path d="M81.6985 153.611C82.634 153.618 83.546 153.317 84.2953 152.756L99.1602 138.927V134.275L98.5206 134.208V138.927L83.6557 152.756C83.0264 153.221 82.2865 153.512 81.5098 153.602L81.6985 153.611Z" fill="#FF8189"/>
<path d="M79.0985 161.786C79.5047 159.428 78.6924 157.394 78.6924 155.523C78.6924 154.031 79.6998 153.649 80.8319 153.601C79.4727 153.547 78.0527 153.749 78.0527 155.523C78.0527 157.394 78.8651 159.428 78.4589 161.786C78.0527 164.144 78.1391 166.831 79.0665 167.033C79.2396 167.065 79.418 167.047 79.5814 166.982C78.7691 166.572 78.7116 164.035 79.0985 161.786Z" fill="#FF8189"/>
<path d="M123.006 130.55L123.61 131.38L127.295 136.265C127.831 136.977 128.096 137.859 128.042 138.75C127.987 139.641 127.617 140.483 126.997 141.124L112.925 155.703C112.925 155.703 111.326 156.962 111.7 158.224C112.075 159.486 115.177 165.708 115.919 166.156C116.661 166.605 115.279 167.988 113.68 166.848C112.081 165.708 107.923 160.95 107.242 160.761C106.561 160.572 104.316 159.217 105.048 157.427C105.781 155.636 108.451 154.864 109.471 153.685C110.492 152.506 119.181 138.43 119.181 138.43L115.078 135.054L123.006 130.55Z" fill="#FF8A9F"/>
<path d="M114.649 166.848C113.05 165.707 108.892 160.95 108.211 160.761C107.53 160.572 105.285 159.217 106.017 157.426C106.749 155.636 109.42 154.864 110.44 153.685C111.46 152.506 120.15 138.43 120.15 138.43L116.046 135.053L123.287 130.95L123.005 130.565L115.087 135.05L119.19 138.427C119.19 138.427 110.498 152.503 109.481 153.681C108.464 154.86 105.793 155.616 105.058 157.41C104.322 159.204 106.561 160.54 107.252 160.745C107.942 160.95 112.084 165.707 113.689 166.832C113.927 167.023 114.207 167.156 114.506 167.22C114.805 167.283 115.115 167.275 115.41 167.197C115.137 167.127 114.88 167.009 114.649 166.848Z" fill="#FF8189"/>
<path d="M123.952 131.174L114.889 136.565L113.689 137.277L106.769 124.229L106.721 124.146L108.937 113.847L114.924 116.775L123.952 131.174Z" fill="#38A98E"/>
<path d="M114.889 136.565L113.689 137.276L106.769 124.229L106.887 123.88L112.298 121.688L112.675 132.231L114.889 136.565Z" fill="#347474"/>
<path d="M103.097 114.334L101.121 117.496C100.369 118.701 99.8546 120.04 99.6048 121.439L96.8384 136.95L110.133 138.414L113.683 116.775L103.097 114.334Z" fill="#38A98E"/>
<path d="M97.7978 136.95L100.558 121.442C100.809 120.041 101.326 118.701 102.08 117.495L103.938 114.525L103.097 114.33L101.121 117.495C100.369 118.701 99.8546 120.039 99.6048 121.439L96.8384 136.95L110.133 138.414L110.149 138.311L97.7978 136.95Z" fill="#347474"/>
<path d="M125.279 95.6508L128.829 96.1794L137.464 89.5835L144.727 81.8024C144.756 81.7701 144.79 81.7439 144.829 81.7254C144.868 81.7069 144.91 81.6964 144.953 81.6946C144.996 81.6928 145.039 81.6997 145.079 81.7149C145.12 81.7302 145.157 81.7534 145.188 81.7832C145.343 81.9246 145.441 82.119 145.462 82.3286C145.482 82.5381 145.425 82.7479 145.3 82.9172L143.096 85.8932C143.096 85.8932 144.676 87.245 144.446 87.3988C144.215 87.5525 142.479 89.7982 142.479 89.7982L139.469 91.339L133.227 99.2035C132.734 99.823 132.107 100.321 131.392 100.66C130.677 100.999 129.895 101.169 129.104 101.158L125.666 101.106L125.279 95.6508Z" fill="#FF8A9F"/>
<path d="M128.82 96.8201L137.455 90.2242L144.718 82.4431C144.746 82.4108 144.781 82.3846 144.82 82.3661C144.859 82.3476 144.901 82.3371 144.944 82.3353C144.987 82.3335 145.03 82.3404 145.07 82.3556C145.11 82.3708 145.147 82.394 145.178 82.4238C145.273 82.5126 145.345 82.6223 145.389 82.7442C145.459 82.582 145.476 82.402 145.439 82.2296C145.401 82.0572 145.31 81.901 145.178 81.7832C145.147 81.7534 145.11 81.7302 145.07 81.7149C145.03 81.6997 144.987 81.6928 144.944 81.6946C144.901 81.6964 144.859 81.7069 144.82 81.7254C144.781 81.7439 144.746 81.7701 144.718 81.8024L137.455 89.5835L128.82 96.1794L125.27 95.6508L125.318 96.2915L128.82 96.8201Z" fill="#F9A2B5"/>
<path d="M143.387 86.1465L143.099 86.5341C143.497 86.8738 143.876 87.2353 144.234 87.6168C144.3 87.5386 144.372 87.4658 144.449 87.399C144.618 87.2869 143.831 86.5437 143.387 86.1465Z" fill="#F9A2B5"/>
<path d="M142.482 89.1581L139.473 90.699L133.227 98.5634C132.734 99.1829 132.107 99.6812 131.392 100.02C130.677 100.359 129.895 100.529 129.104 100.517L125.666 100.466L125.327 95.6611H125.279L125.666 101.107L129.104 101.158C129.895 101.17 130.677 100.999 131.392 100.661C132.107 100.322 132.734 99.8236 133.227 99.2041L139.473 91.3396L142.482 89.7988C142.482 89.7988 144.219 87.5564 144.449 87.3994C144.522 87.3514 144.417 87.1848 144.235 86.9766C143.707 87.5756 142.482 89.1581 142.482 89.1581Z" fill="#FF8189"/>
<path d="M113.421 92.5312L119.123 94.1105L126.479 95.142L126.207 101.706L121.119 101.921C121.119 101.921 119.2 108.702 118.343 112.812C117.486 116.922 116.869 119.322 116.869 119.322L100.878 115.878C102.446 112.937 103.484 109.742 103.945 106.441C104.517 102.161 103.731 100.056 105.544 97.33C105.544 97.33 105.864 96.8527 109.487 93.0054L113.421 92.5312Z" fill="#11493E"/>
<path d="M121.765 101.593L121.682 101.891L126.213 101.699V101.404L121.765 101.593Z" fill="#01496D"/>
<path d="M101.533 115.574C103.101 112.633 104.139 109.438 104.6 106.136C105.173 101.857 104.386 99.7518 106.199 97.0257C106.199 97.0257 106.519 96.5708 109.887 92.9766L109.503 93.0214C105.879 96.8655 105.56 97.3461 105.56 97.3461C103.737 100.072 104.523 102.177 103.961 106.457C103.5 109.758 102.461 112.953 100.894 115.894L116.884 119.338C116.884 119.338 116.923 119.19 116.993 118.902L101.533 115.574Z" fill="#11493E"/>
<path d="M116.871 94.5655C116.871 94.9884 116.414 95.4336 115.928 95.5426C115.231 95.6963 114.604 95.1229 114.15 94.793C113.353 94.2227 112.033 93.6397 109.752 93.7262L108.419 89.7443L107.207 86.1309C113.19 87.9024 114.716 89.2286 114.882 90.1448C114.989 90.6873 115.131 91.2223 115.307 91.7465C115.307 91.7881 115.336 91.8266 115.349 91.8682C115.643 92.7364 115.79 93.1688 116.149 93.6205C116.567 94.1427 116.865 94.2324 116.871 94.5655Z" fill="#FF8A9F"/>
<path d="M115.32 91.7561C113.139 91.4357 110.478 88.9947 110.478 88.9947C109.887 89.7828 108.879 89.7924 108.419 89.7443L107.207 86.1309C113.19 87.9024 114.716 89.2286 114.882 90.1448C114.993 90.6908 115.139 91.2291 115.32 91.7561Z" fill="#FF8189"/>
<path d="M108.304 87.0629C109.192 87.1956 110.01 87.6245 110.626 88.2802C111.105 88.7908 111.635 89.2523 112.206 89.6577C112.9 90.1511 115.49 91.993 117.482 91.1633C117.745 91.0519 117.981 90.8847 118.173 90.6732C118.455 90.3529 118.97 89.6065 118.525 86.9604C118.383 86.0762 118.17 85.2051 117.885 84.356C115.647 78.2054 116.098 77.9043 115.055 76.7639C114.379 76.0213 113.558 75.425 112.644 75.0118C111.729 74.5987 110.74 74.3773 109.737 74.3613C107.453 74.3613 104.543 75.5178 103.363 78.308C102.97 79.2017 102.792 80.1748 102.84 81.1498C102.889 82.1249 103.164 83.0752 103.644 83.9251C104.124 84.775 104.795 85.5011 105.604 86.0458C106.412 86.5906 107.337 86.9388 108.304 87.0629Z" fill="#FF8A9F"/>
<path d="M117.146 76.2927C117.175 76.1568 117.189 76.0183 117.188 75.8795C117.188 75.5219 117.095 75.1705 116.916 74.8608C117.142 74.6089 117.301 74.3044 117.38 73.975C117.458 73.6457 117.453 73.3019 117.364 72.9751C117.276 72.6483 117.107 72.3489 116.874 72.1042C116.64 71.8594 116.349 71.6772 116.027 71.574C116.041 71.4786 116.049 71.3822 116.049 71.2857C116.047 70.897 115.934 70.5171 115.723 70.191C115.511 69.865 115.211 69.6065 114.858 69.4463C114.504 69.286 114.112 69.2308 113.728 69.2872C113.344 69.3435 112.984 69.509 112.691 69.7641C112.521 69.4335 112.262 69.1563 111.945 68.9628C111.627 68.7693 111.263 68.667 110.891 68.667C110.519 68.667 110.155 68.7693 109.837 68.9628C109.52 69.1563 109.261 69.4335 109.09 69.7641C108.852 69.5114 108.554 69.3241 108.223 69.22C107.892 69.1159 107.54 69.0985 107.201 69.1696C106.861 69.2406 106.546 69.3976 106.284 69.6256C106.023 69.8537 105.824 70.1451 105.707 70.472C105.446 70.3532 105.162 70.292 104.875 70.2927C104.337 70.2927 103.82 70.507 103.439 70.8884C103.058 71.2699 102.844 71.7873 102.844 72.3268C102.844 72.3653 102.844 72.4037 102.844 72.4454C102.627 72.3664 102.398 72.3263 102.166 72.3268C101.826 72.3268 101.491 72.4127 101.193 72.5765C100.895 72.7404 100.642 72.9769 100.459 73.2642C100.276 73.5516 100.169 73.8805 100.146 74.2206C100.124 74.5606 100.187 74.9009 100.331 75.2099C100.007 75.3232 99.7173 75.5168 99.4887 75.7727C99.26 76.0286 99.0999 76.3383 99.0232 76.6731C98.9466 77.0078 98.9559 77.3565 99.0503 77.6866C99.1447 78.0167 99.3211 78.3175 99.5631 78.5607C99.2407 78.7445 98.9747 79.0133 98.7942 79.3379C98.6138 79.6626 98.5256 80.0306 98.5395 80.4019C98.5534 80.7732 98.6686 81.1336 98.8728 81.4439C99.077 81.7541 99.3622 82.0023 99.6974 82.1614C99.3979 82.4132 99.1774 82.7464 99.0626 83.1209C98.9478 83.4953 98.9435 83.895 99.0503 84.2718C99.1571 84.6487 99.3705 84.9865 99.6646 85.2447C99.9587 85.5028 100.321 85.6703 100.708 85.7268C100.616 85.9583 100.57 86.2051 100.571 86.454C100.57 86.8181 100.667 87.1756 100.852 87.4891C101.037 87.8026 101.302 88.0606 101.621 88.2362C101.939 88.4117 102.299 88.4983 102.662 88.4868C103.025 88.4753 103.379 88.3663 103.685 88.1711C103.687 88.618 103.836 89.0519 104.109 89.4056C104.382 89.7592 104.763 90.0128 105.195 90.127C105.626 90.2413 106.083 90.2098 106.495 90.0374C106.907 89.8651 107.25 89.5615 107.472 89.1737C107.709 89.2964 107.967 89.3711 108.233 89.3937C108.498 89.4163 108.766 89.3862 109.019 89.3053C109.273 89.2244 109.509 89.0942 109.713 88.9221C109.916 88.75 110.084 88.5394 110.206 88.3024C110.329 88.0653 110.404 87.8065 110.426 87.5405C110.449 87.2746 110.419 87.0068 110.338 86.7525C110.257 86.4981 110.127 86.2622 109.955 86.0582C109.783 85.8542 109.573 85.6861 109.337 85.5635C109.543 85.3658 109.705 85.1269 109.812 84.8623C109.92 84.5976 109.971 84.3133 109.962 84.0277C109.952 83.7421 109.883 83.4616 109.758 83.2046C109.633 82.9477 109.456 82.7199 109.237 82.5362C109.607 82.303 109.891 81.9564 110.047 81.5482C110.203 81.1399 110.223 80.692 110.104 80.2714C110.432 80.1942 110.735 80.0367 110.987 79.8131C111.239 79.5894 111.431 79.3066 111.546 78.99C111.912 79.2708 112.362 79.4187 112.822 79.4094C113.282 79.4001 113.726 79.2341 114.079 78.9387C114.244 79.1663 114.454 79.3572 114.696 79.4992C114.939 79.6412 115.208 79.7314 115.486 79.7639C115.765 79.7964 116.047 79.7707 116.316 79.6882C116.584 79.6057 116.832 79.4684 117.045 79.2848C117.257 79.1013 117.43 78.8756 117.551 78.6219C117.672 78.3683 117.739 78.0923 117.748 77.8113C117.756 77.5304 117.707 77.2506 117.603 76.9897C117.498 76.7289 117.34 76.4926 117.14 76.2959L117.146 76.2927Z" fill="#004F80"/>
<path d="M106.154 70.2835C106.441 70.2828 106.725 70.344 106.986 70.4628C107.091 70.1721 107.261 69.9092 107.483 69.6938C107.704 69.4785 107.972 69.3165 108.265 69.2199C107.789 69.0619 107.271 69.0869 106.811 69.2899C106.352 69.4929 105.985 69.8596 105.78 70.3187C105.904 70.2961 106.029 70.2843 106.154 70.2835Z" fill="#01496D"/>
<path d="M110.37 69.7647C110.613 69.2952 111.03 68.9391 111.531 68.7716C111.185 68.6545 110.813 68.6344 110.456 68.7134C110.099 68.7924 109.771 68.9676 109.506 69.2201C109.836 69.3254 110.133 69.5128 110.37 69.7647Z" fill="#01496D"/>
<path d="M108.758 89.1768C108.713 89.2561 108.663 89.3322 108.607 89.4042C108.765 89.3905 108.921 89.3582 109.071 89.3081C108.963 89.2743 108.858 89.2303 108.758 89.1768Z" fill="#01496D"/>
<path d="M113.971 69.7644C114.175 69.5878 114.414 69.4548 114.671 69.3736C114.466 69.3024 114.249 69.2656 114.032 69.2646C113.903 69.2645 113.774 69.2774 113.648 69.3031C113.776 69.4414 113.885 69.5966 113.971 69.7644Z" fill="#01496D"/>
<path d="M104.971 88.1738C104.648 88.3822 104.272 88.4934 103.887 88.4942C103.831 88.4974 103.774 88.4974 103.718 88.4942C103.792 88.9724 104.035 89.4081 104.402 89.723C104.769 90.0378 105.237 90.2109 105.72 90.2112C105.937 90.2111 106.153 90.1754 106.359 90.1055C105.955 89.9707 105.603 89.7115 105.353 89.3646C105.104 89.0178 104.971 88.6011 104.971 88.1738Z" fill="#01496D"/>
<path d="M112.829 78.9873C112.777 79.1305 112.708 79.2671 112.625 79.3941C112.679 79.3941 112.73 79.3941 112.784 79.3941C113.002 79.3944 113.218 79.3587 113.424 79.2884C113.211 79.2207 113.01 79.119 112.829 78.9873Z" fill="#01496D"/>
<path d="M115.365 78.9355C115.113 79.1437 114.815 79.2876 114.495 79.3552C114.758 79.5616 115.067 79.699 115.396 79.755C115.725 79.8109 116.063 79.7836 116.379 79.6755C115.972 79.5403 115.618 79.2816 115.365 78.9355Z" fill="#01496D"/>
<path d="M103.452 72.3271C103.683 72.3265 103.913 72.3666 104.13 72.4456C104.13 72.404 104.13 72.3656 104.13 72.3271C104.132 71.9013 104.268 71.4869 104.517 71.1421C104.767 70.7974 105.118 70.5396 105.521 70.405C105.217 70.3046 104.893 70.2776 104.576 70.3264C104.259 70.3751 103.958 70.4982 103.698 70.6856C103.437 70.873 103.225 71.1194 103.078 71.4046C102.931 71.6899 102.853 72.006 102.851 72.3271C102.849 72.357 102.849 72.3869 102.851 72.4168C103.046 72.3575 103.248 72.3272 103.452 72.3271Z" fill="#01496D"/>
<path d="M101.857 86.4574C101.856 86.2084 101.902 85.9616 101.994 85.7302C101.608 85.6716 101.247 85.5027 100.955 85.2438C100.662 84.9848 100.451 84.6468 100.345 84.2703C100.24 83.8938 100.245 83.4949 100.361 83.1214C100.476 82.7479 100.697 82.4157 100.996 82.1648C100.661 82.0056 100.376 81.7575 100.172 81.4472C99.9675 81.137 99.8522 80.7766 99.8383 80.4053C99.8245 80.0339 99.9126 79.6659 100.093 79.3413C100.274 79.0167 100.539 78.7478 100.862 78.5641C100.62 78.3208 100.444 78.0201 100.349 77.69C100.255 77.3598 100.245 77.0111 100.322 76.6764C100.399 76.3417 100.559 76.0319 100.788 75.7761C101.016 75.5202 101.306 75.3266 101.629 75.2133C101.507 74.9542 101.44 74.6718 101.434 74.385C101.429 74.0982 101.484 73.8134 101.597 73.5496C101.709 73.2858 101.876 73.0489 102.087 72.8547C102.298 72.6605 102.547 72.5134 102.819 72.4231C102.613 72.3526 102.397 72.3169 102.18 72.3174C101.839 72.3174 101.505 72.4032 101.206 72.5671C100.908 72.7309 100.655 72.9674 100.473 73.2548C100.29 73.5421 100.182 73.871 100.159 74.2111C100.137 74.5512 100.2 74.8915 100.344 75.2005C100.02 75.3138 99.7305 75.5074 99.5019 75.7633C99.2732 76.0191 99.1131 76.3289 99.0364 76.6636C98.9597 76.9983 98.969 77.347 99.0635 77.6771C99.1579 78.0073 99.3343 78.308 99.5763 78.5513C99.2539 78.735 98.9879 79.0038 98.8074 79.3285C98.6269 79.6531 98.5388 80.0211 98.5527 80.3924C98.5665 80.7638 98.6818 81.1242 98.886 81.4344C99.0902 81.7446 99.3754 81.9928 99.7106 82.152C99.4111 82.4038 99.1906 82.737 99.0758 83.1114C98.961 83.4859 98.9567 83.8856 99.0635 84.2624C99.1703 84.6392 99.3836 84.9771 99.6778 85.2352C99.9719 85.4934 100.334 85.6608 100.721 85.7174C100.63 85.9488 100.583 86.1956 100.584 86.4446C100.584 86.7117 100.636 86.9762 100.738 87.223C100.84 87.4698 100.99 87.6941 101.179 87.8829C101.367 88.0718 101.591 88.2217 101.837 88.3239C102.084 88.4261 102.348 88.4788 102.615 88.4788C102.832 88.479 103.048 88.4433 103.254 88.373C102.851 88.2399 102.499 87.9836 102.248 87.64C101.998 87.2964 101.861 86.8829 101.857 86.4574Z" fill="#01496D"/>
<path d="M113.024 108.042L106.027 103.339C105.381 102.907 104.881 102.288 104.594 101.565C104.502 101.251 104.445 100.929 104.424 100.604C104.388 101.143 104.445 101.685 104.594 102.205C104.881 102.928 105.381 103.547 106.027 103.98L113.024 108.683L117.47 104.617L117.105 104.297L113.024 108.042Z" fill="#11493E"/>
<path d="M116.062 103.31L117.21 104.214L119.475 105.927L129.747 106.568C129.747 106.568 135.983 101.122 138.993 101.318C139.086 101.325 139.175 101.359 139.25 101.416C139.324 101.472 139.38 101.55 139.412 101.638C139.455 101.758 139.449 101.89 139.397 102.006C139.344 102.122 139.249 102.213 139.13 102.259L135.494 103.659L137.752 104.358C137.827 104.381 137.896 104.422 137.952 104.478C138.007 104.534 138.049 104.603 138.072 104.678L138.545 106.116C138.57 106.202 138.572 106.292 138.548 106.378C138.525 106.464 138.479 106.542 138.414 106.603C137.896 107.087 136.719 108.231 136.652 108.163L135.088 106.562L134.234 107.683L131.512 109.227H129.779L120.361 110.646C119.117 110.831 117.849 110.55 116.801 109.855L112.947 107.292L116.062 103.31Z" fill="#FF8A9F"/>
<path d="M136.972 107.532L135.408 105.931L134.554 107.052L131.832 108.596H130.099L120.68 110.015C119.437 110.2 118.169 109.919 117.121 109.224L113.385 106.744L112.947 107.305L116.801 109.868C117.849 110.563 119.117 110.844 120.361 110.659L129.779 109.249H131.525L134.247 107.705L135.101 106.584L136.665 108.186C136.732 108.253 137.909 107.11 138.427 106.626C138.489 106.567 138.534 106.493 138.558 106.41C138.582 106.328 138.584 106.241 138.564 106.158C137.979 106.683 137.032 107.59 136.972 107.532Z" fill="#FF8189"/>
<path d="M139.409 101.629L135.814 103.016L136.559 103.247L139.118 102.257C139.236 102.21 139.332 102.119 139.384 102.003C139.437 101.887 139.442 101.755 139.399 101.635L139.409 101.629Z" fill="#FF8189"/>
<path d="M113.098 100.078C110.254 97.3458 109.298 96.0099 107.757 96.1317C106.215 96.2534 105.24 97.7141 105.077 97.9608C104.747 98.4934 104.533 99.0898 104.45 99.711C104.367 100.332 104.416 100.964 104.594 101.565C104.881 102.288 105.381 102.907 106.027 103.339L113.024 108.042L117.469 103.977C115.631 102.455 114.163 101.103 113.098 100.078Z" fill="#11493E"/>
<path d="M105.397 98.5947C105.56 98.348 106.551 96.8872 108.077 96.7655C109.602 96.6438 110.574 97.9796 113.417 100.712C114.377 101.635 115.656 102.826 117.255 104.162L117.469 103.97C115.631 102.448 114.163 101.087 113.098 100.071C110.254 97.3389 109.298 96.0031 107.757 96.1248C106.215 96.2465 105.24 97.7073 105.077 97.954C104.747 98.4865 104.533 99.083 104.45 99.7041C104.367 100.325 104.416 100.957 104.594 101.558C104.684 101.769 104.791 101.973 104.914 102.167C104.74 101.57 104.693 100.945 104.776 100.329C104.86 99.7139 105.071 99.123 105.397 98.5947Z" fill="#11493E"/>
<path d="M237.486 168.597H19.5144C19.3023 168.597 19.099 168.512 18.949 168.362C18.7991 168.212 18.7148 168.008 18.7148 167.796C18.7148 167.584 18.7991 167.38 18.949 167.23C19.099 167.079 19.3023 166.995 19.5144 166.995H237.486C237.698 166.995 237.901 167.079 238.051 167.23C238.201 167.38 238.285 167.584 238.285 167.796C238.285 168.008 238.201 168.212 238.051 168.362C237.901 168.512 237.698 168.597 237.486 168.597Z" fill="#39B9CE"/>
</svg>
