<svg width="89" height="89" viewBox="0 0 89 89" fill="none" xmlns="http://www.w3.org/2000/svg">
<path d="M43.2832 0.156719C42.0664 0.556522 40.9887 1.46043 40.4324 2.57293C40.276 2.86843 40.0848 3.66805 39.9979 4.32859C39.7197 6.50145 39.2504 6.91863 36.1389 7.82254C34.8525 8.18758 33.4445 8.63953 33.01 8.83074L32.193 9.1784L31.7236 8.53523C31.0805 7.70086 29.968 6.8491 29.0119 6.50145C27.7777 6.03211 25.8482 6.10164 24.6488 6.64051C23.4494 7.19676 22.2848 8.30926 21.7285 9.4739C21.1201 10.7081 21.0332 12.7593 21.5547 14.1151C21.7459 14.654 22.024 15.1929 22.1631 15.2971C22.3021 15.4188 22.4238 15.5927 22.4238 15.6622C22.4238 15.7491 21.9545 16.3227 21.3982 16.9311C19.9207 18.513 18.7734 20.1296 18.7734 20.6337C18.7734 21.1378 19.4861 21.9026 19.9729 21.9026C20.5986 21.9026 20.8594 21.694 21.9719 20.2686C22.5803 19.5038 23.432 18.5304 23.8492 18.1305L24.5967 17.4005L25.5527 17.6612C28.9076 18.5825 32.4885 16.1141 32.8014 12.6897L32.9057 11.6815L34.3137 11.1427C35.0785 10.8471 36.4344 10.43 37.3035 10.1866C39.3373 9.64773 40.0848 9.30008 40.9365 8.43093C41.823 7.54441 42.3793 6.37976 42.5184 5.09344C42.6748 3.70281 42.8313 3.35516 43.4918 2.95535C44.1697 2.53816 44.6912 2.52078 45.3691 2.86843C46.0297 3.21609 46.3426 3.82449 46.4816 5.09344C46.6207 6.37976 47.177 7.54441 48.0635 8.43093C48.9152 9.30008 49.6627 9.64773 51.6965 10.1866C55.2252 11.1253 58.7365 12.8288 61.5525 14.9495C64.16 16.8964 64.0731 16.7573 63.4994 18.0089C63.0996 18.8606 63.0127 19.2604 63.0127 20.4251C63.0301 22.0938 63.482 23.1542 64.6988 24.2667C65.9852 25.4487 67.8451 25.918 69.6703 25.5182C70.2266 25.3966 70.2613 25.4139 70.609 26.2136C71.2695 27.7259 72.1387 30.4723 72.5211 32.2454C72.7992 33.5665 72.9035 34.905 72.9904 37.86C73.0947 41.6843 73.0947 41.7538 73.5119 42.0841C74.0508 42.5186 74.833 42.5013 75.285 42.0493C75.65 41.6843 75.65 41.58 75.5631 37.6514C75.4936 34.2096 75.4066 33.3405 75.0242 31.5327C74.5549 29.3077 73.5988 26.37 72.9035 24.9968C72.3994 23.9886 72.382 23.7452 72.834 23.1194C73.0252 22.8413 73.3207 22.1112 73.4598 21.5028C73.6857 20.5989 73.7031 20.2165 73.5467 19.4516C72.9035 16.3749 70.2266 14.5497 67.1498 15.1233L66.0199 15.3493L65.3072 14.6366C62.0914 11.5598 56.7549 8.70906 51.992 7.56179C51.1229 7.3532 50.5318 7.09246 50.1147 6.72742C49.3324 6.03211 49.176 5.71922 49.0022 4.32859C48.7762 2.48602 47.9592 1.23445 46.499 0.486992C45.7516 0.104568 43.9959 -0.0866432 43.2832 0.156719ZM27.8646 8.88289C28.6816 9.10887 29.7072 9.97801 30.0027 10.7255C31.2195 13.6284 27.9516 16.4096 25.2398 14.7409C23.3973 13.611 23.3451 10.4821 25.1529 9.36961C26.1959 8.72644 26.8564 8.60476 27.8646 8.88289ZM69.4617 17.922C71.5303 18.9128 71.5129 21.7809 69.427 22.7891C68.4361 23.2585 67.5149 23.1716 66.6457 22.511C64.9943 21.2421 65.2725 18.7389 67.1672 17.8872C68.0885 17.47 68.5578 17.47 69.4617 17.922Z" fill="#38A98E"/>
<path d="M69.1836 0.452217C67.5322 1.06061 66.3154 2.17311 65.5506 3.82448C65.1855 4.60671 65.116 5.04128 65.0986 6.25808C65.0986 7.52702 65.1682 7.89206 65.6027 8.81335C66.7674 11.3339 69.566 12.8462 72.1734 12.3594C74.1898 11.9944 75.8934 10.7081 76.7973 8.8655C77.2145 8.03112 77.2666 7.70085 77.2666 6.25808C77.2666 4.78054 77.2145 4.50241 76.7799 3.68542C76.0846 2.38171 75.0416 1.30397 73.9117 0.747725C72.6775 0.156709 70.4178 0.000263214 69.1836 0.452217ZM72.7992 3.11179C75.6674 4.58933 75.2676 8.77858 72.1734 9.66511C70.8697 10.0475 69.7572 9.7694 68.749 8.79597C67.3932 7.49226 67.2541 5.63229 68.4187 4.06784C69.3053 2.86843 71.426 2.41647 72.7992 3.11179Z" fill="#DEDEDE"/>
<path d="M11.1424 5.49328C10.9338 5.75402 10.7773 6.06691 10.7773 6.20598C10.7773 6.57101 11.2119 7.33586 11.6291 7.71828L11.9941 8.04855L11.3857 8.7091C10.6904 9.49133 10.6383 9.85637 11.1424 10.4995C11.6465 11.1427 12.4809 11.1079 13.2457 10.4474L13.8193 9.94328L14.393 10.4474C15.0883 11.0732 15.9922 11.1253 16.5137 10.5691C17.0178 10.0128 16.9482 9.33488 16.3225 8.6048L15.7836 7.99641L16.3225 7.38801C16.983 6.64055 17.0178 5.94523 16.4615 5.42375C15.8705 4.8675 15.1578 4.93703 14.4799 5.58019L13.9236 6.13644L13.2979 5.58019C12.4809 4.8675 11.6639 4.83273 11.1424 5.49328Z" fill="#E9F1F1"/>
<path d="M76.6756 14.8798C76.467 15.1405 76.3105 15.4708 76.3105 15.6446C76.3105 15.9575 77.1102 17.1395 77.5795 17.5393C77.8576 17.7479 77.8055 17.8522 77.0928 18.6171C76.6582 19.069 76.3105 19.5731 76.3105 19.7122C76.3105 20.2337 76.7104 20.8421 77.1623 21.0333C77.7707 21.2766 78.3096 21.068 79.0744 20.2684L79.6654 19.66L80.326 20.2337C80.6736 20.5639 81.143 20.9116 81.3342 21.0159C81.8035 21.2766 82.5162 21.0854 82.8291 20.6335C83.2811 19.9729 83.142 19.3471 82.3771 18.5128L81.6471 17.7305L82.3771 16.9483C83.1941 16.0618 83.3158 15.3491 82.7422 14.7755C82.1512 14.1845 81.3863 14.3235 80.5346 15.1579L79.8045 15.8706L79.0223 15.1579C78.0488 14.254 77.2318 14.1671 76.6756 14.8798Z" fill="#9BDDCF"/>
<path d="M16.3225 25.1186C15.6794 25.4662 14.6712 28.2301 13.8716 31.8631C13.5413 33.3406 13.5065 34.3141 13.3848 44.1527C13.2458 55.4342 13.1936 56.1469 12.3419 59.2758C11.3684 62.7697 10.1516 65.2902 7.78758 68.5756C6.57078 70.2791 5.49305 72.5389 5.19754 73.999C4.98895 74.9899 5.00633 75.1637 5.31922 75.8938C5.51043 76.3631 5.92762 76.9367 6.31004 77.2496L6.98797 77.7885L20.7899 77.8406L34.5919 77.8754V79.3182C34.5919 80.9695 34.9743 82.5166 35.4958 82.9512C35.9651 83.3684 36.7647 83.351 37.2167 82.899C37.5122 82.6035 37.5643 82.3949 37.4774 81.8213C37.4253 81.4215 37.321 80.3611 37.2688 79.492L37.1645 77.8754H44.4132H51.6618L51.5923 79.4051C51.5401 80.6567 51.4184 81.126 50.9839 82.082C49.3325 85.6281 45.2997 87.2795 41.7536 85.8889C40.5716 85.4195 40.2239 85.4369 39.7198 85.9584C38.7985 86.8623 39.3026 87.7488 41.1104 88.4094C42.7618 89.0178 44.7434 89.1395 46.4643 88.757C48.4634 88.3051 49.7671 87.575 51.2968 86.0627C53.3132 84.0463 54.2345 81.8561 54.2345 79.0922V77.8754L68.1233 77.8406L82.0122 77.7885L82.6901 77.2496C83.0725 76.9367 83.4897 76.3631 83.6809 75.8938C83.9938 75.1637 84.0112 74.9899 83.8026 73.999C83.4897 72.452 82.4641 70.3834 80.9518 68.2627C78.3618 64.5949 76.78 60.7881 76.0325 56.4076C75.8934 55.5211 75.7196 53.1397 75.6675 50.8973C75.5632 46.6211 75.5458 46.569 74.555 46.3256C74.2073 46.2387 73.9813 46.3256 73.5989 46.6385C73.0948 47.0731 73.0948 47.0904 73.0427 49.3676C72.921 53.7654 73.4772 58.1285 74.5897 61.4139C74.8679 62.2656 75.0938 62.9783 75.0938 63.0305C75.0938 63.0652 61.3266 63.1 44.5001 63.1C27.6735 63.1 13.9063 63.0479 13.9063 62.9609C13.9063 62.8914 14.0628 62.4395 14.2366 61.9527C14.6886 60.7707 15.21 58.6848 15.5751 56.6684C15.8011 55.3125 15.888 53.1223 15.9923 44.4135C16.1313 32.5758 16.1487 32.402 17.4872 28.5951C17.8348 27.6391 18.1477 26.6135 18.1999 26.3354C18.3563 25.3272 17.2438 24.5971 16.3225 25.1186ZM77.0233 66.959C77.4231 67.6543 78.188 68.8537 78.7442 69.6186C80.413 71.9479 81.5429 74.3467 81.2821 75.0072C81.1952 75.2332 76.5888 75.268 44.4653 75.2332L7.73543 75.1811L7.75281 74.6596C7.80496 73.7731 8.48289 72.2434 9.47371 70.818C10.4645 69.3578 11.8899 67.1328 12.3766 66.2463L12.6722 65.7074H44.4827H76.2933L77.0233 66.959Z" fill="#38A98E"/>
<path d="M35.8956 38.0689C35.1655 38.8686 35.7739 40.207 36.8342 40.207C37.9467 40.207 38.503 38.8512 37.7208 38.0689C37.2688 37.617 36.3128 37.617 35.8956 38.0689Z" fill="#38A98E"/>
<path d="M51.1229 38.1734C50.5319 38.9383 50.7057 39.6684 51.5923 40.1377C52.079 40.3984 52.9307 40.1203 53.1915 39.6162C53.9216 38.2604 52.0616 36.974 51.1229 38.1734Z" fill="#38A98E"/>
<path d="M43.1791 42.9355C42.1014 43.092 40.9541 43.5961 40.2066 44.2219C39.4939 44.8303 39.4244 45.6299 40.0328 46.2035C40.5717 46.725 41.0236 46.6902 42.1709 46.0471C42.9705 45.5951 43.3182 45.4908 44.2395 45.4908C45.1607 45.4908 45.5084 45.5951 46.308 46.0471C46.8469 46.3426 47.4727 46.5859 47.716 46.5859C48.3418 46.5859 48.8459 46.0123 48.8459 45.2996C48.8459 43.8395 45.7691 42.5531 43.1791 42.9355Z" fill="#38A98E"/>
</svg>
