<svg width="144" height="88" viewBox="0 0 144 88" fill="none" xmlns="http://www.w3.org/2000/svg">
<path d="M84.9514 6.15681C80.3784 8.26242 75.8984 10.6279 71.4109 12.7768C58.6919 18.8668 45.3755 21.4073 31.6075 23.8935C20.745 25.8551 8.76632 29.0164 2.7115 39.224C-3.7961 50.1948 2.40633 65.5538 10.7979 73.7034C23.9149 86.4408 43.3884 89.2019 60.814 87.5803C83.6527 85.4554 108.918 78.219 127.911 64.8618C141.602 55.2339 146.793 40.2682 141.334 24.1851C136.108 8.78978 122.127 -0.938324 106.018 0.0718079C98.5762 0.538025 91.6625 3.06781 84.9514 6.15681Z" fill="#E9F1F1"/>
<path d="M66.2526 28.5572C63.4165 28.5572 60.6964 29.6833 58.691 31.6878C56.6855 33.6924 55.5588 36.4112 55.5588 39.246C55.5588 42.0809 56.6855 44.7996 58.691 46.8041C60.6964 48.8087 63.4165 49.9348 66.2526 49.9348C69.0888 49.9348 71.8088 48.8087 73.8143 46.8041C75.8198 44.7996 76.9464 42.0809 76.9464 39.246C76.9464 36.4112 75.8198 33.6924 73.8143 31.6878C71.8088 29.6833 69.0888 28.5572 66.2526 28.5572ZM66.2526 47.5595C64.6076 47.5595 62.9995 47.072 61.6317 46.1585C60.2639 45.245 59.1979 43.9466 58.5684 42.4275C57.9388 40.9084 57.7741 39.2368 58.095 37.6241C58.416 36.0114 59.2081 34.5301 60.3713 33.3674C61.5345 32.2048 63.0166 31.413 64.63 31.0922C66.2434 30.7714 67.9158 30.9361 69.4356 31.5653C70.9554 32.1945 72.2544 33.2601 73.1683 34.6273C74.0822 35.9944 74.57 37.6017 74.57 39.246C74.57 41.4509 73.6937 43.5655 72.1339 45.1246C70.5741 46.6836 68.4585 47.5595 66.2526 47.5595ZM63.6386 33.7828C63.7503 33.8998 63.8339 34.0406 63.8833 34.1946C63.9326 34.3486 63.9464 34.5118 63.9235 34.6718C63.9006 34.8319 63.8417 34.9847 63.7512 35.1187C63.6607 35.2527 63.5409 35.3645 63.4009 35.4455C62.8237 35.9 62.3539 36.4763 62.0253 37.1333C61.6966 37.7903 61.5172 38.5117 61.4998 39.246C61.5189 39.4066 61.5013 39.5694 61.4484 39.7222C61.3954 39.8749 61.3085 40.0137 61.1941 40.1281C61.0797 40.2424 60.9409 40.3293 60.788 40.3822C60.6351 40.4352 60.4723 40.4528 60.3116 40.4337C59.9965 40.4337 59.6943 40.3085 59.4714 40.0858C59.2486 39.8631 59.1234 39.561 59.1234 39.246C59.1495 38.1445 59.4187 37.0624 59.9116 36.077C60.4046 35.0915 61.1092 34.227 61.9751 33.5453C62.2361 33.3831 62.5459 33.318 62.8501 33.3614C63.1543 33.4049 63.4335 33.5541 63.6386 33.7828ZM88.9473 56.5857L78.6099 46.3719C80.3378 43.3772 80.9178 39.8568 80.2419 36.4665C79.566 33.0761 77.6802 30.0469 74.9358 27.9431C72.1913 25.8392 68.7754 24.8041 65.3242 25.0306C61.873 25.2571 58.6218 26.7298 56.1762 29.1743C53.7306 31.6187 52.2573 34.8684 52.0307 38.318C51.804 41.7676 52.8396 45.182 54.9444 47.9251C57.0493 50.6682 60.0799 52.5531 63.4718 53.2288C66.8638 53.9044 70.3858 53.3247 73.3818 51.5975L83.6004 61.9301C83.9623 62.2803 84.3903 62.5552 84.8595 62.7387C85.3286 62.9222 85.8296 63.0107 86.3332 62.999C86.8179 63.0015 87.2983 62.9083 87.7468 62.7249C88.1954 62.5415 88.6033 62.2714 88.9473 61.9301C89.6238 61.2046 90 60.2497 90 59.2579C90 58.2661 89.6238 57.3112 88.9473 56.5857ZM87.4026 60.0299C87.4026 59.9111 87.4026 59.9111 87.2838 59.7923L79.917 52.3101L80.6299 51.5975L87.2838 58.2484C87.5037 58.4874 87.6353 58.7943 87.6569 59.1182C87.6785 59.4422 87.5888 59.7638 87.4026 60.0299ZM54.3706 39.246C54.3706 36.0962 55.6225 33.0753 57.8508 30.8481C60.0791 28.6208 63.1013 27.3695 66.2526 27.3695C69.4039 27.3695 72.4262 28.6208 74.6545 30.8481C76.8828 33.0753 78.1346 36.0962 78.1346 39.246C78.1346 42.3958 76.8828 45.4167 74.6545 47.6439C72.4262 49.8712 69.4039 51.1225 66.2526 51.1225C63.1013 51.1225 60.0791 49.8712 57.8508 47.6439C55.6225 45.4167 54.3706 42.3958 54.3706 39.246ZM77.3029 48.3909L78.8476 49.9348L76.9464 51.8351L75.4018 50.2911L77.3029 48.3909ZM67.4408 33.3078C67.4599 33.4683 67.4424 33.6311 67.3894 33.7839C67.3364 33.9367 67.2495 34.0755 67.1351 34.1898C67.0207 34.3042 66.8819 34.3911 66.729 34.444C66.5762 34.4969 66.4133 34.5145 66.2526 34.4954C65.9375 34.4954 65.6353 34.3703 65.4124 34.1476C65.1896 33.9248 65.0644 33.6227 65.0644 33.3078C65.0912 33.0018 65.225 32.715 65.4423 32.4978C65.6596 32.2806 65.9465 32.1469 66.2526 32.1201C66.5678 32.1201 66.87 32.2452 67.0928 32.468C67.3156 32.6907 67.4408 32.9928 67.4408 33.3078Z" fill="#3D6666"/>
</svg>
