<svg width="14" height="14" viewBox="0 0 14 14" fill="none" xmlns="http://www.w3.org/2000/svg">
<rect x="1.07188" y="0.549902" width="12.7769" height="13.3" rx="6.38846" fill="url(#paint0_linear_4944_73)"/>
<path d="M8.53505 9.25702C8.45198 9.16743 5.6621 6.15842 5.553 6.04074C5.47064 5.95191 5.33719 5.95191 5.25482 6.04074C5.17246 6.12949 5.17246 6.27356 5.25482 6.36234L5.45901 6.58257L4.20344 10.4223C4.1764 10.5049 4.19575 10.5969 4.25321 10.6588C4.31099 10.7211 4.39643 10.7414 4.47246 10.7125L8.03261 9.3583L8.23688 9.57862C8.31925 9.66745 8.45269 9.66746 8.53507 9.57862C8.61742 9.48985 8.61742 9.34578 8.53505 9.25702ZM5.93833 9.67259L5.16761 8.84144L5.40089 8.1281L6.59974 9.42101L5.93833 9.67259Z" fill="white"/>
<path d="M9.03003 5.50774C8.95044 5.4219 8.82148 5.4219 8.74189 5.50774L7.46985 6.8796C7.39026 6.96536 7.39026 7.10452 7.46985 7.19036C7.54944 7.27619 7.67838 7.27621 7.75798 7.19036L9.03003 5.8185C9.10962 5.73274 9.10962 5.59357 9.03003 5.50774Z" fill="white"/>
<path d="M8.81625 7.52832H8.10415C7.99166 7.52832 7.90039 7.62669 7.90039 7.74807C7.90039 7.86947 7.99166 7.96783 8.10415 7.96783H8.81625C8.92874 7.96783 9.02 7.86946 9.02 7.74807C9.02 7.62667 8.92874 7.52832 8.81625 7.52832Z" fill="white"/>
<path d="M6.9518 5.51709C6.83931 5.51709 6.74805 5.61544 6.74805 5.73684V6.50494C6.74805 6.62634 6.83931 6.72469 6.9518 6.72469C7.06429 6.72469 7.15556 6.62632 7.15556 6.50494V5.73684C7.15556 5.61546 7.06429 5.51709 6.9518 5.51709Z" fill="white"/>
<path d="M10.4011 7.28161C10.1624 7.02407 9.77557 7.02389 9.53667 7.28153C9.29785 7.53894 9.29749 7.95628 9.53667 8.21394C9.77534 8.47149 10.1622 8.47167 10.4011 8.21394C10.6399 7.95653 10.6402 7.53925 10.4011 7.28161ZM10.113 7.9031C10.113 7.90318 10.113 7.90318 10.113 7.90318C9.99128 8.03441 9.76514 7.9488 9.76514 7.74774C9.76514 7.62726 9.85542 7.52805 9.96889 7.52805C10.151 7.52804 10.2402 7.76591 10.113 7.9031Z" fill="white"/>
<path d="M7.38501 4.02716C7.14677 3.77022 6.75888 3.77022 6.52037 4.02731C6.28225 4.28433 6.28225 4.70254 6.5205 4.95957C6.75871 5.21665 7.14679 5.21658 7.38501 4.95965V4.95957C7.62388 4.70227 7.62412 4.28504 7.38501 4.02716ZM7.09689 4.64876V4.64884C7.01743 4.73447 6.88835 4.7346 6.80862 4.64884C6.72929 4.56313 6.72929 4.42371 6.80862 4.33808C6.88812 4.25248 7.01706 4.2522 7.09689 4.338C7.1767 4.42423 7.17641 4.563 7.09689 4.64876Z" fill="white"/>
<path d="M9.54555 6.72418C9.65808 6.72418 9.74931 6.62579 9.74931 6.50442C9.74931 6.38306 9.65808 6.28467 9.54555 6.28467C9.43302 6.28467 9.3418 6.38306 9.3418 6.50442C9.3418 6.62579 9.43302 6.72418 9.54555 6.72418Z" fill="white"/>
<path d="M8.10415 5.17046C8.21668 5.17046 8.3079 5.07208 8.3079 4.95071C8.3079 4.82934 8.21668 4.73096 8.10415 4.73096C7.99161 4.73096 7.90039 4.82934 7.90039 4.95071C7.90039 5.07208 7.99161 5.17046 8.10415 5.17046Z" fill="white"/>
<path d="M9.54555 9.21099C9.65808 9.21099 9.74931 9.1126 9.74931 8.99124C9.74931 8.86987 9.65808 8.77148 9.54555 8.77148C9.43302 8.77148 9.3418 8.86987 9.3418 8.99124C9.3418 9.1126 9.43302 9.21099 9.54555 9.21099Z" fill="white"/>
<path d="M5.79946 5.17046C5.91199 5.17046 6.00321 5.07208 6.00321 4.95071C6.00321 4.82934 5.91199 4.73096 5.79946 4.73096C5.68693 4.73096 5.5957 4.82934 5.5957 4.95071C5.5957 5.07208 5.68693 5.17046 5.79946 5.17046Z" fill="white"/>
<path d="M9.74868 3.85156C9.63619 3.85156 9.54492 3.94993 9.54492 4.07132V4.29107C9.54492 4.41247 9.63619 4.51082 9.74868 4.51082C9.86116 4.51082 9.95243 4.41246 9.95243 4.29107V4.07133C9.95243 3.94993 9.86116 3.85156 9.74868 3.85156Z" fill="white"/>
<path d="M9.74868 4.95117C9.63619 4.95117 9.54492 5.04954 9.54492 5.17093V5.39068C9.54492 5.51208 9.63619 5.61043 9.74868 5.61043C9.86116 5.61043 9.95243 5.51207 9.95243 5.39068V5.17093C9.95243 5.04954 9.86116 4.95117 9.74868 4.95117Z" fill="white"/>
<path d="M9.3411 4.51123H9.13735C9.02486 4.51123 8.93359 4.6096 8.93359 4.73098C8.93359 4.85237 9.02486 4.95074 9.13735 4.95074H9.3411C9.45359 4.95074 9.54486 4.85237 9.54486 4.73098C9.54486 4.6096 9.45359 4.51123 9.3411 4.51123Z" fill="white"/>
<path d="M10.3606 4.51123H10.1569C10.0444 4.51123 9.95312 4.6096 9.95312 4.73098C9.95312 4.85237 10.0444 4.95074 10.1569 4.95074H10.3606C10.4731 4.95074 10.5644 4.85237 10.5644 4.73098C10.5644 4.6096 10.4731 4.51123 10.3606 4.51123Z" fill="white"/>
<rect x="1.07188" y="0.549902" width="12.7769" height="13.3" rx="6.38846" stroke="white" stroke-width="0.3"/>
<defs>
<linearGradient id="paint0_linear_4944_73" x1="5.00841" y1="3.7999" x2="15.289" y2="16.1564" gradientUnits="userSpaceOnUse">
<stop stop-color="#11493F"/>
<stop offset="1" stop-color="#38A88D"/>
</linearGradient>
</defs>
</svg>
